<?xml version="1.0" encoding="UTF-8"?>
<svg width="20" height="20" version="1.1" viewBox="0 0 20 20" xmlns="http://www.w3.org/2000/svg">
 <g transform="matrix(.071966 0 0 .071919 .11379 .05156)">
  <path d="m25.946 275.32c-7.882-3.8839-16.936-13.493-21.595-22.919l-3.8517-7.7929-0.26336-106.88-0.26336-106.88 3.6013-6.8533c4.4023-8.3776 12.78-16.626 21.207-20.88l6.1612-3.1102h206.51l6.6436 2.6065c12.998 5.0994 24.452 16.219 28.869 28.025 3.644 9.7396 4.1683 26.161 3.8426 120.37l-0.30597 88.5-2.5785 6.6196c-5.5479 14.242-11.732 21.675-23.404 28.13l-6.7808 3.75h-212.34zm204.58-13.406c14.859-2.7469 24.637-12.522 27.383-27.376 1.5171-8.2066 1.5171-188.86 0-197.07-2.7459-14.854-12.523-24.629-27.383-27.376-8.1942-1.5148-184.87-1.5133-193.06 0.0016-14.854 2.7459-24.629 12.523-27.376 27.383-1.5156 8.1987-1.5142 188.86 0.0016 197.06 2.6657 14.42 11.767 23.93 25.909 27.075 7.4085 1.6472 185.75 1.9232 194.53 0.30104zm-185.82-16.277c-4.7346-1.0529-6.6923-2.1762-10.739-6.162-5.7444-5.658-7.3072-9.5779-7.246-18.175 0.08296-11.668 7.1691-22.66 18.863-29.259 2.9285-1.6528 5.7369-3.7998 6.2409-4.7712 1.8864-3.636 14.528-60.638 19.098-86.117 2.127-11.857 2.1005-11.981-4.101-19.062-12.596-14.383-6.4048-38.311 12.135-46.898 7.8732-3.6465 29.179-4.6517 70.039-3.3043 27.988 0.9229 32.567 1.3102 41.07 3.4735 16.42 4.1777 30.795 12.723 39.691 23.596 5.8715 7.176 12.856 21.66 14.729 30.546 2.2933 10.878 2.0256 38.158-0.49589 50.531-9.5271 46.75-39.76 84.616-79.125 99.101-18.364 6.7576-21.777 7.12-70.369 7.4708-33.212 0.23975-45.42 2e-3 -49.79-0.96998zm84.082-52.215c20.545-4.2154 33.808-14.768 43.566-34.662 7.6172-15.53 10.034-25.679 10.062-42.256 0.026-15.284-0.93233-18.078-8.5521-24.929-6.185-5.5608-14.564-8.5619-25.868-9.2655-7.7028-0.47938-8.7605-0.3221-11.278 1.677-1.5278 1.2133-3.6225 3.8615-4.6547 5.8848-3.2618 6.3937-21.511 94.831-20.51 99.392 1.3347 6.0813 4.3343 6.8051 17.235 4.1582z" fill="#f2f2f2"/>
  <path d="m26.5 275.2c-2.75-1.5191-6.5071-3.8735-8.3491-5.2319-5.2627-3.881-12.876-14.804-15.662-22.47l-2.5436-7 0.27731-105 0.27731-105 3-5.9376c3.8935-7.7061 13.45-17.199 21.456-21.312l6.3251-3.25h205.34l6.2963 2.4675c9.308 3.6478 14.006 6.7003 19.895 12.928 6.115 6.4656 10.74 15.636 12.473 24.729 0.9117 4.7854 1.154 30.502 0.97108 103.09l-0.24367 96.71-2.5458 6.7637c-5.0185 13.333-12.879 22.305-24.686 28.176l-6.3135 3.1395-105.48-0.0181-105.48-0.0181zm211-14.629c3.2704-1.253 7.1062-4.0184 11.089-7.9942 10.698-10.68 9.9113-1.4318 9.9113-116.58 0-115.18 0.7848-105.95-9.9113-116.51-10.923-10.78-1.9014-9.9905-114.09-9.9905-112.76 0-104.42-0.72123-115.01 9.9449-10.794 10.876-9.9905 1.499-9.9905 116.56 0 113.39-0.59964 105.35 8.6179 115.44 5.2846 5.7822 10.957 9.088 18.014 10.498 2.4025 0.48011 47.568 0.80064 100.37 0.71229 91.971-0.1539 96.21-0.24104 101-2.0763zm-184.5-14.504c-12.335-1.3311-18.921-5.1687-23.219-13.528-2.5838-5.0258-2.7568-14.164-0.40143-21.211 2.1592-6.4596 8.3477-13.594 15.094-17.402 9.6239-5.4314 8.6732-2.7955 19.758-54.779 5.8181-27.284 9.7709-48 9.4231-49.386-0.3295-1.3128-2.7865-4.8867-5.46-7.9418-5.7256-6.5429-7.7243-12.405-6.9124-20.271 1.08-10.465 7.4521-20.26 16.073-24.708 7.7664-4.0074 15.486-4.8053 46.644-4.8211 62.348-0.03157 80.198 3.8817 99.118 21.73 16.655 15.711 23.717 35.684 22.541 63.75-1.8823 44.945-23.943 86.248-58.276 109.1-15.001 9.9867-28.179 14.909-47.883 17.886-11.576 1.7491-74.312 2.8942-86.5 1.5788zm83.798-54.625c4.2363-1.4158 9.7207-3.7507 12.188-5.1888 14.458-8.4281 26.243-26.767 31.714-49.35 2.4547-10.132 2.5217-33.01 0.10964-37.456-1.967-3.6254-9.3976-10.667-13.489-12.783-4.7154-2.4385-15.251-4.814-21.79-4.9131-7.4047-0.11229-10.6 1.696-13.469 7.6215-3.5409 7.3146-21.645 94.959-20.646 99.952 1.0794 5.397 2.248 5.9959 10.361 5.3101 4.0257-0.3403 10.786-1.7771 15.022-3.1928z" fill="#ededed"/>
  <path d="m26 274.94c-8.6575-4.7585-16.473-13.145-21.309-22.865l-4.1913-8.4246v-210.25l3.7462-7.5799c4.4694-9.0432 13.469-18.057 22.416-22.45l5.8381-2.8667 102-0.27329c63.228-0.16941 102.76 0.089194 104 0.68033 1.1 0.52449 3.6553 1.4592 5.6784 2.0772 10.017 3.0599 21.943 13.921 26.919 24.516 5.3057 11.297 5.3424 12.132 5.0827 115.8l-0.23996 95.804-2.8754 7.8789c-4.8735 13.354-10.759 20.266-22.953 26.959l-7.3885 4.0552-105.61-0.0181-105.61-0.0181zm210.86-14.185c9.6476-3.86 17.579-12.276 20.257-21.494 1.1361-3.9108 1.3831-22.442 1.3831-103.76 0-114.57 0.78364-105.39-9.9113-116.09-10.686-10.686-1.7254-9.9113-114.59-9.9113-112.87 0-103.91-0.77485-114.58 9.9113-10.698 10.716-9.8555 1.3852-10.194 112.93-0.19308 63.64 0.060492 98.761 0.73957 102.43 2.6308 14.231 12.443 24.415 26.165 27.158 2.4025 0.48011 47.568 0.80323 100.37 0.71804 88.763-0.14321 96.329-0.2864 100.36-1.8994zm-184.14-15.844c-17.324-1.831-26.119-12.152-23.652-27.756 1.5558-9.8417 6.4407-16.61 16.031-22.211 3.8683-2.2592 7.7918-5.361 8.7189-6.8928 2.4041-3.9724 21.638-95.113 20.787-98.502-0.36828-1.4674-2.3941-4.5538-4.5019-6.8588-6.1689-6.7462-7.5604-10.187-7.5594-18.691 0.0018-15.847 9.8211-26.747 26.947-29.913 7.5345-1.3928 59.57-1.4149 77.83-0.03296 7.8095 0.59102 17.908 2.0833 23.224 3.4317 28.175 7.1471 46.681 26.557 52.628 55.196 3.7194 17.912 1.5255 42.427-5.8004 64.819-14.7 44.929-49.022 76.749-91.733 85.047-15.084 2.9303-73.503 4.417-92.92 2.3648zm78.873-51.917c12.308-3.1212 19.915-7.3212 27.91-15.411 8.1591-8.2557 12.549-15.31 17.15-27.561 4.6258-12.315 6.6961-25.117 6.0802-37.596-0.57712-11.695-1.5826-14.143-8.4438-20.561-5.5944-5.2329-12.423-8.121-23.106-9.7729-12.288-1.9-17.037 0.58099-20.636 10.781-1.4519 4.115-8.6044 37.235-15.684 72.627-3.9223 19.607-4.2713 25.095-1.7864 28.089 1.6706 2.013 9.1833 1.7715 18.516-0.59507z" fill="#e9e9e9"/>
  <path d="m26.212 274.82c-4.1073-2.0527-8.3544-5.3514-12.246-9.5119-6.3086-6.7439-9.0391-11.298-12.089-20.163-1.7868-5.1934-1.8767-10.255-1.8767-105.69 0-96.804 0.067289-100.46 1.9641-106.59 3.8741-12.536 12.532-22.465 24.983-28.654l7.4475-3.7016 101.05-0.27595c61.059-0.16674 101.84 0.09328 103.05 0.65699 1.1 0.51312 4.025 1.6839 6.5 2.6018 15.802 5.8601 27.51 20.508 30.074 37.626 0.75699 5.0529 1.0703 37.503 0.99023 102.56-0.11225 91.223-0.19709 95.402-2.0457 100.78-5.0517 14.683-12.198 23.33-24.819 30.032l-6.6348 3.5231-105.03-0.0208-105.03-0.0207zm210.65-14.061c9.6476-3.86 17.579-12.276 20.257-21.494 2.0486-7.0521 2.0486-199.47 0-206.52-2.8516-9.8163-12.039-19.004-21.856-21.856-7.0499-2.0479-195.47-2.0479-202.52 0-9.2185 2.6779-17.634 10.609-21.494 20.257-1.6103 4.0247-1.766 11.814-2.0232 101.23-0.18219 63.325 0.077587 98.796 0.75018 102.43 2.6261 14.206 12.448 24.393 26.16 27.133 2.4025 0.48011 47.568 0.80323 100.37 0.71804 88.763-0.14321 96.329-0.2864 100.36-1.8994zm-186.86-16.693c-16.079-2.9503-23.91-14.568-19.655-29.16 2.6336-9.0334 6.5446-14.082 14.774-19.072 4.442-2.6935 8.0968-5.7462 9.2563-7.7314 2.5426-4.3536 21.824-94.567 21.029-98.39-0.3193-1.5353-2.4116-4.9072-4.6497-7.493-5.3939-6.2322-7.7051-11.591-7.7318-17.928-0.04978-11.814 7.5465-22.95 18.739-27.47 5.6918-2.2987 6.0857-2.3174 48.239-2.2921 36.229 0.02177 43.894 0.28499 51.947 1.7839 18.895 3.5169 29.979 8.8301 41.079 19.691 14.41 14.099 20.977 31.893 20.971 56.815-7e-3 26.182-7.6552 52.593-21.717 74.991-19.074 30.382-47.082 49.339-80.976 54.809-11.065 1.7856-83.226 2.9295-91.303 1.4474zm81.59-51.068c12.238-3.1035 19.908-7.3258 27.992-15.411 15.215-15.217 24.223-40.291 23.203-64.583-0.51133-12.18-1.4681-14.559-8.4981-21.135-5.5944-5.2329-12.423-8.121-23.106-9.7729-11.277-1.7437-15.687-0.04342-19.517 7.5255-2.3838 4.7101-20.663 91.522-20.663 98.133 0 1.5424 0.70052 3.8044 1.5567 5.0268 2.0286 2.8962 8.1902 2.9663 19.033 0.21667z" fill="#e5e5e5"/>
  <path d="m29.908 276.11c-13.942-5.4549-24.64-18.392-28.402-34.349-2.1703-9.205-2.1999-192.82-0.032722-203.05 3.9422-18.604 16.944-32.544 34.783-37.293 4.3141-1.1485 22.37-1.3982 101.82-1.4079l96.575-0.011869 7.4252 2.5171c17.967 6.0907 30.334 20.414 32.89 38.093 0.60511 4.1862 1.0037 44.404 1.0158 102.48 0.0188 90.764-0.0746 95.868-1.848 101.02-5.0484 14.673-12.513 23.758-24.778 30.156l-7.1462 3.7278-103.85-0.0468c-97.503-0.04389-104.13-0.15663-108.45-1.8435zm208.19-15.876c10.268-4.1543 17.761-13.717 19.927-25.43 0.67259-3.6384 0.93237-39.11 0.75018-102.43-0.25725-89.415-0.41294-97.204-2.0232-101.23-3.86-9.6476-12.276-17.579-21.494-20.257-7.0499-2.0479-195.47-2.0479-202.52 0-9.2185 2.6779-17.634 10.609-21.494 20.257-1.6103 4.0247-1.766 11.814-2.0232 101.23-0.18219 63.325 0.077587 98.796 0.75018 102.43 2.6557 14.366 12.325 24.351 26.298 27.157 2.3267 0.46716 47.43 0.77968 100.23 0.69449l96-0.15489zm-191.29-17.581c-6.9241-1.9379-11.513-5.4924-14.327-11.099-3.1024-6.1805-3.2182-12.513-0.36813-20.131 2.4775-6.6217 7.0773-11.537 15.368-16.423 3.2666-1.925 6.7094-4.85 7.6505-6.5 2.0686-3.6268 20.881-91.247 20.873-97.217-0.0049-3.5928-0.68971-4.9867-4.6285-9.4215-2.5425-2.8627-5.2875-6.796-6.1-8.7406-4.2516-10.175 0.61498-25.526 10.107-31.88 9.631-6.4472 12.047-6.7543 52.116-6.6262 49.206 0.1573 60.839 1.6507 78.388 10.063 26.854 12.874 40.91 42.613 37.242 78.797-4.9362 48.689-31.017 89.185-69.87 108.49-8.8308 4.387-18.099 7.4051-29.729 9.6811-11.133 2.1785-89.618 2.9982-96.721 1.0101zm84.78-49.658c12.599-3.1949 19.89-7.2725 28.429-15.898 15.139-15.293 23.962-40.408 22.776-64.829-0.55269-11.379-1.6341-13.972-8.5079-20.402-5.7452-5.374-13.288-8.4898-24.333-10.052-6.8995-0.97572-8.1255-0.89129-11.585 0.79782-5.6403 2.7542-7.6582 7.4326-12.245 28.389-6.8738 31.408-15.124 73.086-15.124 76.401 0 1.7347 0.70052 4.1542 1.5567 5.3765 2.0286 2.8962 8.1902 2.9663 19.033 0.21667z" fill="#e1e1e1"/>
  <path d="m30.892 275.65c-8.2209-3.3926-12.251-6.146-17.436-11.913-5.4609-6.0739-8.8563-12.424-11.231-21.006-1.5788-5.7052-1.7254-14.43-1.7254-102.73 0-88.304 0.14653-97.029 1.7254-102.73 2.4866-8.9854 6.2505-15.831 12.112-22.029 5.9281-6.2681 11.201-9.599 19.948-12.602 6.1476-2.1103 7.2282-2.1362 100.87-2.4176 103.47-0.31103 102.52-0.35639 114.48 5.4619 12.936 6.2941 23.175 20.777 25.326 35.821 1.4161 9.9049 1.384 190.24-0.0353 198.07-2.6604 14.675-12.503 27.939-25.615 34.517l-6.8089 3.4163-103 0.23361-103 0.23362zm207.4-15.489c7.6335-3.0809 14.794-10.241 17.875-17.875l2.3363-5.7887v-99.5c0-81.745-0.2468-100.35-1.3831-104.26-2.8516-9.8163-12.039-19.004-21.856-21.856-7.0499-2.0479-195.47-2.0479-202.52 0-9.8163 2.8516-19.004 12.039-21.856 21.856-1.1363 3.9116-1.3831 22.516-1.3831 104.26v99.5l2.311 5.721c4.0841 10.11 13.227 17.488 24.459 19.737 2.3267 0.46589 47.43 0.77841 100.23 0.6945l96-0.15258zm-183.79-17.134c-8.3989-0.81201-10.814-1.5474-15.7-4.7812-7.5733-5.0118-9.9313-16.477-5.7095-27.76 2.7074-7.2362 4.9061-9.5796 13.41-14.292 5.6276-3.1188 7.4428-4.7436 9.2587-8.2877 2.1636-4.2228 21.241-91.025 21.241-96.647 0-3.1102-1.4931-5.8719-5.7438-10.624-7.1968-8.0463-8.6589-14.952-5.3896-25.456 2.6788-8.607 5.4608-11.971 12.702-15.36 9.833-4.6014 16.143-5.1137 55.931-4.5402 37.993 0.54761 49.201 1.5942 61.676 5.7595 35.957 12.006 52.757 47.058 44.816 93.509-9.4334 55.18-46.729 96.622-95.382 105.99-14.622 2.8148-71.643 4.3748-91.11 2.4927zm82.341-51.409c10.289-3.4811 17.386-8.045 24.634-15.843 13.193-14.194 21.534-37.501 21.52-60.138-8e-3 -12.804-1.1359-16.073-7.8513-22.752-6.4799-6.4442-13.106-9.3749-25.175-11.134-6.8143-0.9932-7.9776-0.91036-11.524 0.82055-5.5984 2.7326-7.7223 7.3848-11.835 25.925-6.0404 27.228-15.609 75.602-15.609 78.91 0 1.7296 0.74353 4.2063 1.6523 5.5037 1.5605 2.2279 2.0748 2.3264 9.2561 1.7726 4.1821-0.3225 10.902-1.7021 14.933-3.0659z" fill="#ddd"/>
  <path d="m33.798 276.07c-8.1965-2.6207-13.819-6.2176-19.591-12.534-6.1507-6.7298-9.7299-13.786-11.693-23.053-2.1965-10.37-2.2049-190.53-0.0093955-200.98 4.1404-19.721 15.66-31.801 35.496-37.223 6.0108-1.6431 13.5-1.7768 99.5-1.7768 74.939 0 94.165 0.26485 99 1.3638 19.291 4.3849 32.044 16.458 37.236 35.249 1.629 5.8969 1.7644 13.717 1.7644 101.89 0 87.799-0.14246 96.105-1.7667 103-4.0085 17.017-14.355 28.193-31.592 34.123-5.1954 1.7875-10.14 1.8741-104.05 1.8229-92.57-0.0505-98.942-0.16517-104.3-1.877zm198.4-14.192c11.132-2.3594 19.905-9.5486 23.988-19.656l2.311-5.721v-201l-2.2664-5.6019c-4.1547-10.269-13.717-17.761-25.433-19.927-3.6388-0.67266-38.447-0.93266-100.43-0.75018-87.508 0.2576-95.204 0.41456-99.226 2.0238-9.6476 3.86-17.579 12.276-20.257 21.494-1.1363 3.9116-1.3831 22.516-1.3831 104.26v99.5l2.311 5.721c2.5087 6.2103 8.9168 13.538 14.314 16.368 7.9599 4.1737 9.5408 4.2375 107.08 4.326 65.811 0.0597 95.278-0.24927 99-1.0382zm-183.2-20.196c-6.9278-1.6056-8.9656-2.7389-12.821-7.1297-5.9327-6.7569-6.5267-17.025-1.5781-27.277 2.5623-5.3085 5.8866-8.4232 10.399-9.743 3.9277-1.1488 9.3791-5.2101 11.254-8.3842 2.503-4.2372 22.025-96.6 21.206-100.33-0.35832-1.6314-2.6886-5.2598-5.1784-8.0632-5.7208-6.4413-7.2815-10.202-7.2815-17.544 0-12.559 4.7132-19.855 15.5-23.993l7-2.6852 35-0.34773c37.391-0.37148 53.611 0.55743 67.45 3.8626 19.158 4.5758 35.791 17.457 43.885 33.987 6.0168 12.287 7.362 18.269 7.9068 35.159 0.93177 28.888-6.9732 56.444-23.173 80.778-18.536 27.844-44.641 45.035-76.897 50.64-12.468 2.1665-84.36 2.997-92.672 1.0705zm86.978-49.74c10.883-3.5927 16.199-6.8695 24.041-14.819 15.125-15.333 23.861-40.153 22.795-64.768-0.47854-11.054-1.6575-14.157-7.566-19.911-5.1884-5.0524-11.502-8.0284-21.203-9.994-12.708-2.5749-18.226-0.9345-22.046 6.5532-2.8907 5.6663-20.999 90.323-20.999 98.171 0 1.8602 0.74353 4.4437 1.6523 5.7412 1.5615 2.2294 2.0696 2.3262 9.25 1.7623 4.1787-0.32819 10.513-1.5591 14.076-2.7354z" fill="#d9d9d9"/>
  <path d="m36.691 276.5c-17.122-4.707-29.381-17.572-33.827-35.499-1.1044-4.4531-1.3641-23.774-1.3641-101.5 0-105.31-0.24468-100.63 5.9805-114.24 5.0373-11.008 17.271-19.619 32.443-22.835 10.013-2.1226 186.47-2.049 196.58 0.082006 9.6106 2.0267 18.087 6.4241 24.17 12.539 6.4245 6.4582 9.8286 12.669 12.352 22.535 1.9027 7.4395 1.9775 11.323 1.9608 101.82-0.0188 102.15-0.0115 102-5.5525 113.32-3.5915 7.3408-11.248 15.359-18.209 19.069-12.062 6.429-7.9427 6.2076-113.68 6.1092-76.307-0.071-97.028-0.36102-100.85-1.4114zm195.51-14.622c11.132-2.3594 19.905-9.5486 23.988-19.656l2.311-5.721v-201l-2.3363-5.7887c-3.0809-7.6335-10.241-14.794-17.875-17.875l-5.7887-2.3363h-197l-5.7887 2.3363c-7.6335 3.0809-14.794 10.241-17.875 17.875l-2.3363 5.7887v201l2.311 5.721c2.5087 6.2103 8.9168 13.538 14.314 16.368 7.9599 4.1737 9.5408 4.2375 107.08 4.326 65.811 0.0597 95.278-0.24927 99-1.0382zm-186.45-21.475c-10.154-3.1224-16.122-13.967-13.866-25.198 1.2767-6.3569 4.998-13.249 8.3211-15.41 1.26-0.81963 4.091-2.0618 6.291-2.7605 4.5646-1.4496 9.8734-6.0617 11.412-9.9143 1.6886-4.2288 20.088-91.915 20.088-95.734 0-4.17-1.8462-7.9901-5.5023-11.385-4.9297-4.5776-6.9287-9.7437-6.9649-18-0.05898-13.47 4.9609-19.908 18.467-23.683 5.7583-1.6095 10.722-1.8125 43.5-1.7794 49.328 0.04988 62.835 1.8078 78.984 10.28 8.4933 4.4558 19.758 14.906 24.44 22.672 10.754 17.841 13.628 42.272 8.1404 69.199-9.7526 47.853-40.715 84.822-81.825 97.698-14.674 4.5962-27.429 5.6204-69.04 5.5435-30.055-0.0555-38.661-0.36553-42.444-1.529zm85.077-46.924c22.297-5.2564 38.308-20.897 46.725-45.645 4.9147-14.45 7.0424-35.77 4.4662-44.752-3.2726-11.411-14.288-18.735-32.079-21.329-6.7883-0.98985-7.956-0.90623-11.5 0.82355-6.3109 3.0803-7.9039 7.2674-14.515 38.154-8.296 38.757-12.929 62.586-12.929 66.496 0 5.637 2.2912 7.7775 8.3067 7.7604 2.8563-8e-3 8.0425-0.68648 11.525-1.5074z" fill="#d5d5d5"/>
  <path d="m39.059 276.44c-18.823-4.0816-31.341-17.117-35.56-37.032-2.2278-10.516-2.2015-187.07 0.029732-200.03 3.4267-19.906 12.887-30.271 32.471-35.578l8.5-2.3032h93.5c75.733 0 94.545 0.25984 99 1.3674 18.427 4.5813 30.822 16.457 35.734 34.238 1.6316 5.9067 1.7664 13.685 1.7664 101.89 0 76.81-0.26561 96.674-1.3572 101.5-4.3449 19.208-19.332 33.538-38.143 36.471-4.0669 0.63419-40.75 0.98666-98 0.94165-74.377-0.0585-92.705-0.33332-97.941-1.4686zm197.12-15.244c9.2213-3.1467 18.281-12.415 21.053-21.538 0.98382-3.2373 1.265-26.39 1.265-104.16v-100l-2.3363-5.7887c-3.0809-7.6335-10.241-14.794-17.875-17.875l-5.7887-2.3363h-197l-5.7887 2.3363c-7.6335 3.0809-14.794 10.241-17.875 17.875l-2.3363 5.7887v201l2.311 5.721c2.5087 6.2103 8.9168 13.538 14.314 16.368 8.0853 4.2394 9.0309 4.2744 109.88 4.0665 74.406-0.1534 97.343-0.48659 100.18-1.4553zm-185.84-20.18c-9.6291-2.0484-15.465-7.2206-18.3-16.218-2.262-7.1806 2.3181-21.208 8.1648-25.007 1.26-0.8186 4.6402-2.2642 7.5115-3.2124 5.1033-1.6854 9.5869-5.6163 10.639-9.3275 0.27369-0.96547 5.0755-23.322 10.671-49.681 11.443-53.907 11.199-49.888 3.5445-58.36-1.9249-2.1306-4.4597-6.0879-5.6329-8.794-4.0287-9.2926-0.61134-22.963 6.9994-28 6.7618-4.4748 15.911-5.4206 52.397-5.4169 35.775 0.0037 51.507 1.0158 63.513 4.0861 26.79 6.8512 44.123 25.282 49.699 52.846 1.3547 6.6969 1.5905 11.541 1.1438 23.5-0.80791 21.627-4.9914 38.14-14.454 57.049-18.475 36.92-48.549 59.47-87.395 65.531-9.0204 1.4074-82.677 2.2436-88.501 1.0048zm82.047-47.992c18.495-4.7303 31.658-15.867 40.476-34.246 7.6817-16.01 9.5613-24.305 9.6007-42.366 0.0328-15.047 0.0258-15.094-2.8738-19.28-5.9057-8.5246-15.098-13.263-29.923-15.425-7.155-1.0433-8.1446-0.97234-11.484 0.82355-7.1 3.8182-8.556 8.7635-21.636 73.489-5.9739 29.56-6.3845 33.34-3.9932 36.754 2.0334 2.9031 9.1127 2.9925 19.834 0.25051z" fill="#d1d1d1"/>
  <path d="m45.772 276.95c-12.465-1.4521-21.545-5.5959-29.337-13.388-6.0737-6.0737-9.7544-12.805-12.197-22.306-1.5903-6.1857-1.7377-14.774-1.7377-101.26 0-101.83 0.10054-104.05 5.2084-114.85 3.3449-7.0704 10.219-13.996 17.304-17.435 11.266-5.4673 16.051-5.7079 113.65-5.7123 98.06-0.00442 98.499 0.019439 110.36 6.0048 13.013 6.5689 21.675 19.313 23.959 35.249 0.86096 6.0082 1.0908 33.581 0.84823 101.74l-0.33282 93.5-2.283 6.7402c-3.2879 9.7068-9.5407 18.319-17.014 23.433-6.9034 4.7242-13.219 6.9462-23.695 8.3363-8.4154 1.1167-175.1 1.0661-184.73-0.0561zm190.41-15.753c9.2213-3.1467 18.281-12.415 21.053-21.538 0.98382-3.2373 1.265-26.39 1.265-104.16v-100l-2.3363-5.7887c-3.0809-7.6335-10.241-14.794-17.875-17.875l-5.7887-2.3363h-197l-5.7887 2.3363c-7.6335 3.0809-14.794 10.241-17.875 17.875l-2.3363 5.7887-0.30202 97c-0.315 101.17-0.19268 104.67 3.9382 112.77 2.3744 4.6543 8.595 11.017 13.061 13.359 8.0013 4.1966 9.0977 4.2369 109.8 4.0292 74.406-0.1534 97.343-0.48659 100.18-1.4553zm-188.24-21.565c-6.2169-1.6764-10.224-4.7463-13.556-10.386-6.923-11.717-0.11018-28.84 12.85-32.297 5.6795-1.5148 6.8451-2.1701 8.9468-5.0296 2.2744-3.0945 23.374-101.58 22.504-105.04-0.33181-1.322-2.7158-4.8732-5.2977-7.8915-8.3042-9.7077-9.9379-15.956-6.7516-25.822 1.8559-5.7464 6.2641-10.789 11.269-12.892 10.204-4.2867 85.508-4.0981 106.64 0.26704 28.2 5.8249 46.434 22.547 53.618 49.172 3.0126 11.165 3.0088 33.712-8e-3 47.934-5.7753 27.229-17.157 49.911-33.858 67.474-20.012 21.045-42.224 31.816-71.722 34.781-15.248 1.5322-78.708 1.3318-84.638-0.26725zm84.452-46.607c18.457-4.7205 31.6-15.827 40.525-34.246 7.617-15.719 9.5255-24.179 9.5578-42.368l0.0267-15.086-3-4.3338c-6.5732-9.4958-19.287-15.326-33.664-15.436-12.062-0.09277-13.902 2.4484-19.308 26.653-6.3339 28.36-15.528 74.929-15.528 78.649 0 2.0316 0.70052 4.6939 1.5567 5.9163 2.0334 2.9031 9.1127 2.9925 19.834 0.25051z" fill="#ccc"/>
  <path d="m38.191 274.98c-9.9179-2.5982-16.401-6.3332-22.448-12.933-6.2491-6.8203-10.157-15.185-11.699-25.042-0.85491-5.4644-1.0878-33.691-0.85824-104 0.31169-95.445 0.33843-96.568 2.4454-102.7 4.1435-12.066 13.673-21.365 25.369-24.756 10.962-3.1778 28.865-3.6883 116-3.3077 76.592 0.33457 86.101 0.5494 91.267 2.0619 17.792 5.2093 28.576 16.105 33.469 33.818 1.6284 5.8947 1.7644 13.673 1.7644 100.89 0 71.744-0.30107 95.945-1.2502 100.5-2.8156 13.512-12.319 26.451-23.416 31.88-11.435 5.5947-11.304 5.5882-111.33 5.5472-87.357-0.0358-92.369-0.13434-99.309-1.9526zm197.99-13.774c9.5193-3.2492 18.197-12.126 21.059-21.544 1.8404-6.0551 1.8391-201.26-1e-3 -207.32-2.8605-9.4127-12.16-18.712-21.572-21.572-6.0584-1.8411-197.27-1.8411-203.33 0-9.1232 2.7724-18.391 11.832-21.538 21.053-1.7501 5.1286-2.4554 194.81-0.75726 203.66 1.4538 7.5758 4.0071 12.574 8.9457 17.513 4.6515 4.6515 8.7567 6.9323 15.512 8.6182 7.227 1.8036 196.32 1.4237 201.68-0.40519zm-184.97-21.246c-2.9132-0.52368-6.5899-1.6208-8.1703-2.4381-3.7862-1.9579-9.8711-9.4671-11.079-13.672-1.1006-3.8322 0.12763-12.169 2.4561-16.672 2.2341-4.3202 8.0267-8.9409 12.823-10.229 7.0074-1.8815 8.7456-2.8007 9.7943-5.1799 0.54906-1.2456 5.8852-25.215 11.858-53.265 11.645-54.687 11.385-52.235 6.15-58-5.8046-6.3924-9.2654-12.356-9.7703-16.836-1.105-9.8038 5.223-20.901 13.617-23.88 2.7435-0.97366 14.364-1.275 48.117-1.248 48.167 0.03864 55.005 0.61464 70.254 5.9177 14.875 5.1731 27.779 16.681 34.81 31.047 5.4682 11.171 7.0527 18.007 7.6577 33.041 1.1224 27.886-6.8434 55.708-22.919 80.048-18.378 27.827-44.574 44.947-76.5 49.995-11.698 1.8497-80.545 2.91-89.1 1.3722zm81.187-46.927c18.457-4.7205 31.6-15.827 40.525-34.246 7.5835-15.65 9.5088-24.174 9.5502-42.282 0.0322-14.093-0.10968-15.232-2.347-18.831-5.9781-9.6161-19.563-15.997-34.297-16.11-7.1546-0.05492-7.8866 0.13982-10.723 2.8525-4.635 4.4324-5.9821 9.58-18.037 68.922-6.4688 31.843-6.9396 35.966-4.5039 39.444 2.0334 2.9031 9.1127 2.9925 19.834 0.25051z" fill="#c9c9c9"/>
  <path d="m44.387 276.02c-17.736-2.6672-31.586-13.244-37.283-28.473-4.0194-10.743-4.2299-17.034-3.8817-116.05 0.30986-88.109 0.46422-95.4 2.1282-100.51 4.0627-12.486 14.168-22.225 26.65-25.685 6.0585-1.6791 13.19-1.8015 105-1.8015h98.5l6.5 2.3066c13.712 4.866 23.754 14.837 28.239 28.039l2.2607 6.6545 0.28858 95.5c0.2058 68.106-0.0386 97.456-0.85212 102.32-2.24 13.392-11.698 26.947-22.729 32.575-11.207 5.7174-7.7432 5.5334-107.71 5.7219-50.6 0.0954-94.301-0.17255-97.113-0.59544zm191.79-14.819c9.5193-3.2492 18.197-12.126 21.059-21.544 1.8404-6.0551 1.8391-201.26-1e-3 -207.32-2.8605-9.4127-12.16-18.712-21.572-21.572-6.0584-1.8411-197.27-1.8411-203.33 0-9.1232 2.7724-18.391 11.832-21.538 21.053-1.7501 5.1286-2.4554 194.81-0.75726 203.66 2.6592 13.857 11.056 22.869 24.341 26.125 7.3809 1.8088 196.42 1.4349 201.79-0.39914zm-189.32-22.771c-5.4519-1.6784-14.244-10.639-15.218-15.509-0.62297-3.1149 0.87275-11.96 2.6076-15.421 2.8805-5.7455 9.0967-10.15 15.985-11.326 2.6717-0.45609 4.688-1.5521 5.8588-3.1848 1.1553-1.6109 5.6698-20.812 12.793-54.411 8.8195-41.599 10.789-52.335 9.9067-54-0.60574-1.1431-3.3305-4.5533-6.055-7.5783-7.9908-8.8721-9.2836-13.961-6.0725-23.903 2.2607-6.9998 8.2348-12.479 15.245-13.983 6.5717-1.4094 61.408-1.4701 80.597-0.08924 17.371 1.25 25.037 2.5388 34 5.7156 20.232 7.171 34.777 23.291 40.718 45.124 2.9894 10.987 2.9753 33.636-0.0297 47.7-5.8404 27.335-16.625 48.993-33.273 66.819-19.009 20.355-42.127 31.614-70.991 34.576-15.92 1.6337-80.332 1.2372-86.072-0.52985zm85.538-45.402c14.426-3.6897 27.245-12.57 35.243-24.415 4.3013-6.3701 10.056-19.539 12.505-28.613 1.9001-7.0424 2.2992-11.072 2.3276-23.5 0.0322-14.093-0.10968-15.232-2.347-18.831-5.9781-9.6161-19.563-15.997-34.297-16.11-7.1546-0.05492-7.8866 0.13982-10.723 2.8525-4.6908 4.4858-6.0716 9.7706-18.152 69.471-6.2276 30.776-6.6789 34.414-4.7852 38.57 1.0453 2.2942 1.7243 2.547 6.84 2.547 3.1237 0 9.1492-0.8874 13.39-1.972z" fill="#c3c3c3"/>
  <path d="m42 274.88c-8.1621-1.3635-18.732-6.7757-24.317-12.452-6.8125-6.9231-12.419-18.725-13.743-28.93-0.67415-5.1954-0.92757-41.13-0.72287-102.5 0.29423-88.213 0.43617-94.859 2.1334-99.903 4.3749-13.001 13.326-21.783 26.281-25.784 5.4946-1.6969 12.022-1.8125 102.37-1.8125 103.5 0 100.88-0.11853 112.78 5.1012 7.3331 3.2161 16.608 12.33 20.188 19.839 5.5023 11.539 5.5311 12.123 5.5311 112.06 0 69.471-0.30457 93.469-1.2438 98-2.8282 13.643-11.771 26.143-22.704 31.733-10.473 5.3548-6.8338 5.1729-107.55 5.3774-53.174 0.10798-95.872-0.2064-99-0.72894zm194.18-13.68c9.5193-3.2492 18.197-12.126 21.059-21.544 1.8404-6.0551 1.8391-201.26-1e-3 -207.32-2.8605-9.4127-12.16-18.712-21.572-21.572-6.0584-1.8411-197.27-1.8411-203.33 0-9.1232 2.7724-18.391 11.832-21.538 21.053-1.7501 5.1286-2.4554 194.81-0.75726 203.66 2.6592 13.857 11.056 22.869 24.341 26.125 7.3809 1.8088 196.42 1.4349 201.79-0.39914zm-189.92-23.959c-5.9358-2.4398-13.896-10.364-14.545-14.478-0.5902-3.7421 0.90266-12.04 2.8542-15.865 3.073-6.0232 11.372-10.878 18.62-10.893 1.48-3e-3 2.9515-0.42717 3.27-0.94244 0.6435-1.0412 23.535-107.83 23.537-109.81 8.86e-4 -0.68401-3.2609-4.9473-7.2484-9.474l-7.25-8.2304 0.04605-6.526c0.08152-11.553 6.6306-19.881 17.394-22.119 6.909-1.4367 80.082-0.60349 90.56 1.0312 21.73 3.39 34.354 8.9413 45.702 20.097 6.1468 6.043 8.515 9.2771 11.729 16.018 6.3954 13.414 7.5452 19.089 7.485 36.946-0.0406 12.022-0.54334 17.786-2.2404 25.688-9.592 44.662-36.711 78.847-73.675 92.872-16.386 6.2174-20.968 6.6905-68.5 7.0733-39.561 0.31861-43.884 0.19259-47.739-1.3919zm86.129-44.214c17.974-4.5971 31.444-15.57 39.927-32.528 7.7755-15.542 11.048-30.291 10.536-47.478-0.3372-11.306-0.49256-12.049-3.3789-16.155-6.7455-9.597-19.049-15.196-33.638-15.308-6.8366-0.05258-7.9532 0.21088-10.345 2.4411-1.4747 1.375-3.3171 3.7221-4.0943 5.2159-2.5607 4.9218-20.397 90.23-20.397 97.556 0 7.0472 1.13 8.2279 7.8752 8.2279 3.1927 0 9.2746-0.8874 13.515-1.972z" fill="#bbb"/>
  <path d="m41.5 273.98c-14.474-2.8856-24.723-10.672-32.828-24.939-5.4795-9.646-5.6013-12.075-5.6178-112.04-0.00927-56.248 0.37312-94.197 0.99253-98.5 2.7296-18.963 15.49-31.723 34.453-34.453 9.3886-1.3514 182.55-1.3576 192-0.00682 13.964 1.9964 28.773 11.695 34.819 22.804 6.3794 11.721 6.1812 8.1249 6.1812 112.16 0 101.48 0.0391 100.64-5.1525 111.69-3.4241 7.2922-10.179 14.406-17.265 18.183-11.57 6.1669-10.311 6.0992-111.58 5.9977-50.6-0.0507-93.8-0.45106-96-0.88966zm197.55-14.085c10.7-5.0189 16.708-12.767 18.918-24.399 1.6908-8.8985 0.98047-198.57-0.76274-203.68-3.2492-9.5193-12.126-18.197-21.544-21.059-6.0493-1.8386-197.27-1.8386-203.31 0-9.4176 2.8624-18.295 11.54-21.544 21.059-1.749 5.1243-2.4533 194.81-0.75607 203.65 1.9833 10.335 6.786 17.582 14.742 22.244 9.0396 5.2975 6.5018 5.184 111.22 4.9749l97.5-0.19467zm-185.74-21.882c-7.3578-1.0495-9.1609-1.9246-16.06-7.7938-5.1847-4.4109-5.2499-4.5365-5.2444-10.095 0.0083-8.3941 1.6896-13.087 6.3628-17.76 4.1945-4.1945 9.3542-6.3522 15.215-6.3628l3.0836-6e-3 11.673-54.75c6.4201-30.112 11.67-55.716 11.666-56.897-0.0041-1.3217-2.7326-4.8726-7.1005-9.2404-8.2121-8.2121-9.176-11.233-6.51-20.404 1.9262-6.626 5.3489-10.991 10.98-14.003 3.9431-2.1092 5.4419-2.2209 34.124-2.5428 34.566-0.38791 60.34 0.99571 72.536 3.894 26.505 6.2987 44.894 23.381 51.607 47.943 2.5301 9.2563 2.5545 35.227 0.0442 47-12.037 56.455-48.166 92.873-99.188 99.983-10.107 1.4084-74.918 2.214-83.19 1.034zm77.292-44.617c8.6725-1.7962 19.311-6.794 25.563-12.009 12.571-10.486 21.97-28.658 25.77-49.825 1.3754-7.6608 1.3617-24.959-0.0237-29.948-1.3407-4.8284-8.3953-12.506-14.116-15.364-10.607-5.2973-25.634-6.8693-31.496-3.2948-5.3168 3.2418-5.7568 4.4803-11.738 33.04-1.9007 9.075-5.9542 28.213-9.0079 42.529s-5.5522 27.418-5.5522 29.115c0 1.6976 0.92337 4.2604 2.0519 5.6952 2.3058 2.9314 4.6564 2.9392 18.55 0.0616z" fill="#b4b4b4"/>
  <path d="m52 274c-16.898-1.0944-23.697-3.7089-33.188-12.762-6.8593-6.5427-10.971-12.729-13.452-20.239-1.6942-5.1284-1.8388-11.852-2.1398-99.5-0.21264-61.913 0.036172-96.7 0.72891-101.91 1.3559-10.198 4.8779-17.799 11.245-24.268 6.3005-6.4016 14.014-9.9925 24.446-11.38 5.1344-0.68286 39.765-0.93819 99.86-0.73628 90.33 0.3035 92.111 0.3471 98.104 2.4017 11.405 3.9096 22.681 13.161 27.477 22.544 5.4808 10.721 5.2889 7.1392 5.6702 105.85 0.24294 62.902 9e-3 94.109-0.74917 99.846-1.9773 14.968-6.9566 24.279-16.878 31.563-7.6342 5.604-14.603 7.5664-30.624 8.624-15.782 1.0418-154.32 1.0156-170.5-0.0323zm187.05-14.102c7.9148-3.7123 12.437-8.1034 16.184-15.713l3.2705-6.6431v-100.52c0-78.134-0.28142-101.45-1.2636-104.68-2.9479-9.6987-11.88-18.631-21.579-21.579-6.0493-1.8386-197.27-1.8386-203.31 0-9.4176 2.8624-18.295 11.54-21.544 21.059-1.749 5.1243-2.4533 194.81-0.75607 203.65 1.9833 10.335 6.786 17.582 14.742 22.244 9.0396 5.2975 6.5018 5.184 111.22 4.9749l97.5-0.19467zm-187.34-22.871c-4.6187-0.84214-12.778-5.2259-17.457-9.3789-1.832-1.6261-2.25-3.0464-2.25-7.6447 0-14.359 8.7159-23.976 21.75-23.998 1.7875-3e-3 3.2538-0.34308 3.2584-0.75558s5.3789-25.941 11.943-56.73l11.934-55.98-2.5226-3.3073c-1.3874-1.819-4.2739-4.4128-6.4144-5.7641-6.7955-4.2898-8.2846-9.6064-5.4059-19.3 1.9776-6.6592 6.3128-11.56 12.254-13.852 4.2694-1.6474 8.3483-1.8091 44.203-1.7522 25.973 0.04124 42.753 0.49838 49 1.3349 26.644 3.568 47.808 17.024 57.409 36.5 5.1903 10.53 6.7338 17.42 7.3025 32.602 0.80511 21.494-3.4306 41.286-13.216 61.753-6.9009 14.434-13.946 24.589-24.144 34.799-16.588 16.608-35.683 26.285-59.351 30.076-11.011 1.7638-80.272 2.8608-88.293 1.3984zm81.093-44.134c19.936-5.0162 34.191-18.178 42.945-39.65 6.8311-16.755 9.4325-40.24 5.83-52.632-2.7135-9.3342-11.249-15.907-24.806-19.104-13.553-3.1955-21.643-1.313-25.934 6.0354-1.7088 2.9258-21.835 95.258-21.835 100.17 0 1.3119 0.69213 3.7237 1.5381 5.3596 1.5343 2.967 1.5545 2.9727 8.25 2.3153 3.6916-0.36245 9.9972-1.4856 14.012-2.496z" fill="#ababab"/>
  <path d="m48.5 273.38c-12.889-1.5804-20.9-4.9646-29.658-12.529-6.5634-5.6685-10.919-12.084-13.477-19.848-1.6869-5.1212-1.8338-11.94-2.1328-99-0.20459-59.578 0.049617-96.533 0.70069-101.86 2.5285-20.689 15.485-33.69 36.067-36.192 5.462-0.66388 41.203-0.92054 100-0.71812 101.3 0.34875 96.328 0.029441 107.11 6.8754 6.2356 3.958 15.006 13.369 17.717 19.01 5.0852 10.584 5.134 11.626 5.1445 109.88 6e-3 56.927-0.37317 93.956-1.0038 98-2.0286 13.009-9.3245 24.021-20.097 30.333-10.705 6.2723-7.4701 6.083-106.87 6.255-49.775 0.0862-91.85-9e-3 -93.5-0.21121zm190.55-13.478c7.9149-3.7124 12.437-8.1035 16.184-15.713l3.2705-6.6434v-203.04l-2.6011-5.5456c-3.7124-7.9148-8.1035-12.437-15.713-16.184l-6.6433-3.2705h-98.521c-76.522 0-99.449 0.28215-102.68 1.2636-9.6987 2.9479-18.631 11.88-21.579 21.579-0.98216 3.2314-1.2636 26.541-1.2636 104.66v100.5l2.5902 5.5c3.3645 7.1442 7.0398 11.406 12.695 14.72 9.0396 5.2975 6.5018 5.184 111.22 4.9749l97.5-0.19467zm-189.55-24.3c-6.947-2.3963-14.276-6.4407-15.917-8.7835-0.9225-1.317-1.5831-4.3098-1.5831-7.1717 0-13.843 8.9923-23.616 21.75-23.638 1.7875-3e-3 3.25-0.27873 3.25-0.61257 0-0.33385 5.459-26.235 12.131-57.558l12.131-56.951-2.8812-3.0236c-1.5847-1.663-4.3339-3.6346-6.1093-4.3815-3.8571-1.6225-7.263-6.799-7.2682-11.047-0.0063-5.159 2.9195-13.274 6.0858-16.881 5.9797-6.8105 7.7685-7.0566 50.91-7.0032 59.366 0.07345 71.038 2.3733 89.792 17.693 17.051 13.928 24.419 30.9 24.424 56.259 8e-3 42.283-21.32 84.473-53.541 105.91-12.995 8.6468-25.012 13.387-41.175 16.242-12.711 2.2456-86.046 2.9984-92 0.94449zm83.3-42.687c28.403-7.221 46.302-32.048 50.097-69.488 1.7942-17.701-1.9952-30.65-10.646-36.38-8.7316-5.7836-26.239-9.523-33.447-7.144-4.0738 1.3445-8.2195 5.3883-9.7933 9.5526-1.1599 3.0691-21.012 95.917-21.012 98.273 0 0.73644 0.67128 2.9456 1.4917 4.9092l1.4917 3.5702 7.2583-0.71833c3.992-0.39509 10.543-1.5535 14.559-2.5743z" fill="#a3a3a3"/>
  <path d="m43 271.99c-10.658-1.8398-24.592-9.8316-30.386-17.428-4.4044-5.7744-7.5637-13.743-8.5931-21.672-1.3467-10.375-1.3183-182.05 0.031967-192.91 1.2927-10.405 4.3398-17.341 10.522-23.951 6.1179-6.5405 14.55-10.623 24.747-11.981 10.112-1.3468 179.26-1.3593 189.62-0.013965 10.55 1.3691 18.874 5.5306 26.003 13 6.7874 7.1109 10.351 13.264 12.785 22.077 1.6304 5.9023 1.7664 13.596 1.7664 99.895 0 86.557-0.13376 94.07-1.8014 101.17-1.9997 8.5194-7.1552 17.499-12.775 22.25-4.9844 4.2143-14.471 8.3353-21.924 9.5238-7.6381 1.218-182.96 1.2546-190 0.0396zm196.05-12.089c7.9149-3.7124 12.437-8.1035 16.184-15.713l3.2705-6.6434v-203.04l-2.6011-5.5456c-3.7124-7.9149-8.1035-12.437-15.713-16.184l-6.6434-3.2705h-199.08l-6.6434 3.2705c-7.6099 3.7464-12.001 8.2689-15.713 16.184l-2.6011 5.5456v203l2.5902 5.5c3.3645 7.1442 7.0398 11.406 12.695 14.72 9.0396 5.2975 6.5018 5.184 111.22 4.9749l97.5-0.19467zm-190.55-25.445c-2.2-0.86256-5.9133-2.2602-8.2519-3.1058-5.9105-2.1374-8.2481-5.4298-8.2481-11.617 0-13.933 8.9567-23.704 21.75-23.726 1.7875-3e-3 3.25-0.26018 3.25-0.57137 0-0.31118 4.9144-23.599 10.921-51.75 14.756-69.157 13.735-63.297 11.464-65.836-1.0365-1.1589-3.7681-2.9203-6.0701-3.9143-7.3657-3.1804-9.6911-9.6862-6.8972-19.297 2.0501-7.0521 6.3091-11.979 12.379-14.322 4.268-1.6469 8.3136-1.808 43.703-1.7402 49.842 0.0955 60.633 1.3803 76.5 9.1081 9.9341 4.8382 22.811 17.596 28.279 28.017 9.6515 18.395 10.907 41.604 3.7705 69.714-6.0024 23.643-15.896 41.323-32.549 58.165-16.491 16.678-30.729 24.588-53.068 29.482-9.1037 1.9944-13.392 2.2086-51.432 2.5689-35.96 0.34066-42.034 0.18379-45.5-1.1752zm84.455-41.567c16.062-4.2944 28.715-13.736 36.893-27.527 12.823-21.627 17.288-52.552 10.025-69.436-3.934-9.1449-12.779-14.583-27.598-16.969-12.256-1.9732-19.459 0.58766-23.056 8.1969-2.4799 5.2457-21.514 94.4-21.566 101.01-0.0565 7.1972 1.2875 8.159 10.302 7.3726 4.1503-0.36207 10.901-1.5553 15.001-2.6515z" fill="#9b9b9b"/>
  <path d="m40.276 270.49c-8.0646-1.7523-19.245-7.6656-24.918-13.178-6.0759-5.9051-10.008-14.693-11.314-25.284-1.4223-11.54-1.415-180.6 0.00833-192.05 1.2927-10.405 4.3398-17.341 10.522-23.951 6.3732-6.8135 14.561-10.68 25.399-11.995 10.957-1.3292 176.41-1.3714 187.92-0.047947 15.734 1.8089 26.069 8.8288 33.915 23.037 6.8448 12.395 6.6928 9.8063 6.6928 113.98 0 101.68 0.13795 98.949-5.57 110.14-5.0576 9.9138-16.688 17.882-28.93 19.819-10.533 1.667-185.85 1.2437-193.72-0.46766zm188.14-8.0163c11.904-0.95791 21.509-7.5084 26.815-18.287l3.2705-6.6434v-203.08l-3.2705-6.6434c-3.7464-7.6099-8.2689-12.001-16.184-15.713l-5.5456-2.6011h-199.04l-6.6434 3.2705c-7.6099 3.7464-12.001 8.2689-15.713 16.184l-2.6011 5.5456v203l2.6011 5.5456c3.7117 7.9134 8.1029 12.437 15.71 16.184l6.6403 3.2705 41.024 0.53697c44.215 0.57874 143.27 0.21298 152.94-0.56469zm-179.91-28.832c-2.2-0.74719-5.8884-1.8829-8.1964-2.5237-5.9641-1.656-8.306-5.0448-8.2939-12.002 0.0226-12.991 9.5002-23.115 21.639-23.115 1.8429 0 3.3508-0.18442 3.3508-0.40981 0-0.2254 5.1849-24.76 11.522-54.521s11.785-56.032 12.107-58.379c0.67188-4.9019-0.39893-6.2466-6.9202-8.6904-5.7291-2.147-8.2203-5.9352-8.1591-12.407 0.09871-10.439 5.4451-18.672 14.115-21.737 4.9749-1.7585 77.266-1.7876 90.839-0.03655 23.65 3.0513 37.585 10.269 49.029 25.394 10.995 14.533 14.894 27.074 14.857 47.786-0.0487 26.729-7.7155 51.755-22.625 73.85-16.333 24.205-39.13 39.599-67.792 45.775-10.458 2.2537-89.355 3.0924-95.471 1.015zm75.117-38.72c22.882-3.1826 39.271-14.945 49.354-35.42 7.7868-15.813 12.091-37.944 10.106-51.961-1.2089-8.5361-6.0293-18.638-10.533-22.073-4.3242-3.2982-12.719-6.2144-21.457-7.4536-14.113-2.0016-20.71 1.541-24.101 12.944-3.3833 11.374-19.986 91.99-19.986 97.044 0 2.6602 0.27314 5.5484 0.60699 6.4184 0.73051 1.9037 4.9763 2.0369 16.01 0.50227z" fill="#939393"/>
  <path d="m46.867 270.95c-9.2226-1.0106-21.818-5.7083-27.53-10.268-9.7942-7.8183-13.809-15.712-15.377-30.236-0.71432-6.615-0.95263-40.603-0.71131-101.45 0.38659-97.473 0.28427-95.401 5.1801-104.86 2.5119-4.8553 9.2783-11.88 14.249-14.793 10.036-5.8813 6.8639-5.6961 104.32-6.0929 59.735-0.24326 92.826-0.00521 99.5 0.71581 12.199 1.3178 19.93 4.6223 26.734 11.427 6.0021 6.0021 12.376 18.808 13.742 27.608 0.62371 4.0195 1.0049 41.227 0.9988 97.5-0.0104 96.607-0.0834 98.268-4.7796 108.73-2.7386 6.0991-9.1247 12.873-15.311 16.24-11.113 6.0482-8.2052 5.8789-104.88 6.1101-48.675 0.11641-91.935-0.1647-96.133-0.62469zm187.47-9.3151c10.303-2.922 17.157-8.9317 21.887-19.192l2.28-4.945v-203.04l-3.2705-6.6434c-3.7464-7.6099-8.2689-12.001-16.184-15.713l-5.5456-2.6011h-199.04l-6.6434 3.2705c-7.6099 3.7464-12.001 8.2689-15.713 16.184l-2.6011 5.5456-0.27384 98.477c-0.18612 66.93 0.067977 100.12 0.79318 103.62 2.2214 10.7 11.454 21.302 21.326 24.488 7.0077 2.2617 25.938 2.6691 113.15 2.4348 74.686-0.20057 84.647-0.40901 89.833-1.8798zm-180.33-27.632c-2.475-0.48443-6.8326-1.3268-9.6835-1.872-9.683-1.8517-12.322-4.6616-12.307-13.105 0.02273-12.859 9.542-23.027 21.557-23.027 3.1318 0 3.3151-0.21865 4.4001-5.25 6.3311-29.358 21.477-100.72 22.493-105.98 1.5042-7.7848 1.2654-8.1961-6.229-10.729-6.2247-2.1037-8.7442-5.7175-8.6805-12.451 0.09871-10.439 5.4451-18.672 14.115-21.737 5.1185-1.8093 75.073-1.7993 90.044 0.01285 20.495 2.4807 32.347 7.3761 42.804 17.68 15.338 15.113 22.366 35.041 21.233 60.201-1.4274 31.674-13.849 61.774-34.349 83.23-17.33 18.14-35.709 27.758-60.396 31.608-11.097 1.7308-77.721 2.8406-85 1.416zm69.617-39.084c8.9759-1.2484 20.991-5.3858 27.418-9.4412 18.658-11.773 32.074-40.65 32.28-69.479 0.11369-15.93-4.5832-27.044-13.937-32.976-9.5174-6.0358-29.935-7.9618-36.096-3.405-5.5447 4.1012-6.79 8.2441-17.21 57.256-12.284 57.778-12.387 59.125-4.5278 59.125 2.3711 0 7.8037-0.48578 12.072-1.0795z" fill="#8d8d8d"/>
  <path d="m44 270.32c-7.5927-1.2503-19.392-5.7632-23.834-9.1155-10.411-7.8587-14.589-15.784-16.208-30.753-0.71779-6.6334-0.95311-40.434-0.70629-101.45 0.39415-97.43 0.29531-95.428 5.1773-104.86 2.5119-4.8553 9.2783-11.88 14.249-14.793 10.036-5.8813 6.8639-5.6961 104.32-6.0929 59.735-0.24326 92.826-0.00521 99.5 0.71581 20.454 2.2096 30.901 10.837 38.185 31.535l2.8154 8v95.5c0 87.791-0.14095 96.01-1.746 101.82-4.3395 15.696-15.69 26.138-31.714 29.177-5.0812 0.96363-184.3 1.2688-190.04 0.32362zm191-8.7553c3.025-0.97738 7.2881-2.9751 9.4735-4.4393 4.7122-3.1572 10.722-10.807 12.529-15.947 1.7334-4.9318 2.8347-88.029 2.0664-155.92l-0.57425-50.75-2.5984-5.5456c-3.7075-7.9127-8.0992-12.437-15.711-16.184l-6.6434-3.2705h-199.08l-6.6434 3.2705c-7.6099 3.7464-12.001 8.2689-15.713 16.184l-2.6011 5.5456-0.27384 98.477c-0.18612 66.93 0.067977 100.12 0.79318 103.62 2.2229 10.708 11.478 21.329 21.326 24.475 7.2936 2.3297 23.276 2.684 111.65 2.4748 79.816-0.18893 86.925-0.34208 92-1.9818zm-185.5-28.646c-2.2-0.46472-5.7552-1.1188-7.9005-1.4534-2.3709-0.36989-5.0179-1.726-6.75-3.4581-2.484-2.484-2.8483-3.597-2.8398-8.6765 0.0225-13.422 9.4379-23.295 22.24-23.321 1.5125-3e-3 2.75-0.15331 2.75-0.33386 0-0.18056 5.3637-25.493 11.919-56.25 6.5556-30.757 12.068-57.439 12.25-59.294 0.36333-3.7049-0.0089-4.0334-7.0787-6.2473-6.0609-1.898-8.6045-5.5576-8.5409-12.288 0.09871-10.439 5.4451-18.672 14.115-21.737 5.1061-1.8049 75.05-1.7917 90.044 0.01705 28.882 3.484 44.645 13.597 55.293 35.474 6.629 13.62 8.3001 21.059 8.3459 37.153 0.10752 37.766-17.33 76.039-44.681 98.071-15.743 12.681-35.125 20.261-57.334 22.421-11.954 1.1626-76.25 1.1019-81.832-0.0772zm74.117-37.994c8.9602-1.2462 20.975-5.3798 27.418-9.4325 5.98-3.7616 14.687-12.959 18.882-19.946 8.1742-13.613 13.316-32.862 13.367-50.042 0.0477-16.005-4.0825-25.825-13.621-32.388-9.1653-6.3059-28.379-8.7851-35.663-4.6016-6.4078 3.6806-7.9596 8.6625-18.997 60.99-9.6928 45.951-10.612 52.087-8.3529 55.742 0.66469 1.0755 7.9081 0.93807 16.967-0.3219z" fill="#898989"/>
  <path d="m49 270.32c-7.473-0.76853-18.734-3.652-23.707-6.0702-6.8894-3.3503-13.719-10.333-17.35-17.739-4.8036-9.7976-5.0995-17.256-4.6844-118.1 0.39827-96.752 0.30502-94.871 5.1707-104.28 2.5119-4.8553 9.2783-11.88 14.249-14.793 10.007-5.8646 6.9463-5.6851 103.77-6.0848 57.718-0.23827 92.617 0.0025 99.406 0.68579 12.308 1.2387 18.734 3.7918 25.715 10.217 6.0516 5.5694 8.7824 9.9554 12.185 19.571l2.7492 7.7685v98c0 93.026-0.0947 98.279-1.8662 103.5-5.5223 16.275-16.688 24.84-35.14 26.953-8.2691 0.94724-171.62 1.2791-180.49 0.36671zm185.9-8.7246c12.253-4 19.449-11.403 22.669-23.319 1.3636-5.0467 1.5608-17.963 1.5608-102.28 0-106.3 0.16192-103.35-6.1695-112.55-3.5684-5.1865-7.7487-8.5458-14.519-11.667l-4.945-2.28h-199.04l-6.6434 3.2705c-7.6142 3.7485-12.007 8.275-15.706 16.184l-2.5936 5.5456-0.60735 50.75c-0.79653 66.558 0.33649 150.9 2.0945 155.92 2.9595 8.4503 11.979 17.222 20.494 19.93 7.2848 2.317 22.188 2.6475 110.5 2.4504 80.568-0.1798 87.928-0.33501 92.903-1.9592zm-185.64-29.033c-15.02-1.9216-17.872-4.4363-17.024-15.007 1.0466-13.038 9.6797-21.524 21.924-21.55 2.4051-5e-3 2.7789-0.52139 3.8051-5.2556 10.644-49.103 22.966-108.14 23.212-111.2 0.31604-3.9496 0.31453-3.9513-4.0636-4.72-8.7721-1.5402-12.898-7.1378-11.612-15.755 1.4765-9.898 5.7091-15.833 13.412-18.806 4.114-1.5879 8.4963-1.7567 43.08-1.6591 40.078 0.11315 51.864 0.92576 65 4.4815 28.416 7.6921 46 34.4 46 69.867 0 30.964-13.434 65.398-34.155 87.549-16.222 17.341-38.024 28.332-62.345 31.428-13.914 1.7714-74.865 2.21-87.233 0.62769zm74.289-37.633c15.827-2.2013 30.397-9.3664 38.76-19.061 13.042-15.118 20.957-37.874 20.999-60.368 0.0312-16.947-3.9619-25.943-14.652-33.007-6.3186-4.1756-14.852-6.4927-23.913-6.4927-11.25 0-16.899 4.227-19.694 14.737-3.2655 12.282-20.057 94.187-20.057 97.834 0 6.72 0.57642 7.4297 6.0346 7.4297 2.6514 0 8.286-0.48198 12.521-1.0711z" fill="#838383"/>
  <path d="m40 268.48c-8.8125-1.5407-13.206-3.0077-18-6.0105-4.3732-2.7391-11.272-10.166-13.571-14.609-4.8578-9.3895-4.7706-7.6572-5.1705-102.73-0.39864-94.762 0.016121-107.59 3.8034-117.63 3.1351-8.3121 12.136-17.31 20.438-20.431 10.164-3.8208 21.82-4.2077 114.8-3.8105 93.812 0.40081 92.191 0.31827 101.57 5.1701 4.4564 2.3056 11.86 9.1907 14.685 13.657 3.8631 6.1066 6.4689 16.59 7.5575 30.406 0.637 8.0841 0.87509 45.042 0.6282 97.513-0.43352 92.133-0.2949 89.903-6.271 100.88-5.2503 9.6465-14.987 16.046-27.464 18.052-10.202 1.64-183.35 1.2307-193-0.45625zm196.04-7.2569c10.931-3.6401 18.024-11.131 21.646-22.858 1.6969-5.4946 1.8125-12.022 1.8125-102.37 0-90.289-0.11662-96.886-1.812-102.5-3.4963-11.577-12.113-20.073-23.315-22.991-8.7701-2.2843-192.06-2.262-200.84 0.02449-11.137 2.9008-20.013 11.762-23.077 23.04-1.4285 5.2571-1.6104 16.828-1.6104 102.43 0 84.423 0.19576 97.22 1.5643 102.25 3.017 11.089 10.063 18.856 20.59 22.696 6.7228 2.4527 22.123 2.8225 110 2.6416 88.008-0.18115 88.536-0.19428 95.042-2.3607zm-189.28-29.246c-12.228-1.1675-15.332-4.2527-14.516-14.426 1.0456-13.026 9.6805-21.524 21.898-21.55 1.9046-4e-3 2.7975-0.63329 3.2006-2.2556 1.3322-5.3622 23.626-110.64 24.216-114.36l0.65211-4.1072-4.9954-0.66267c-9.5538-1.2674-13.435-7.4266-11.265-17.877 1.5462-7.4482 5.9269-13.356 11.87-16.008 4.1681-1.8599 7.0904-2.1354 26.681-2.5155 27.353-0.53081 65.47 1.1345 76.067 3.3234 25.156 5.1962 40.665 19.399 47.997 43.954 3.5528 11.899 4.4776 33.231 2.0472 47.224-7.0398 40.531-29.953 73.508-61.932 89.132-11.432 5.585-24.234 8.7515-40.729 10.074-14.732 1.1813-68.997 1.2158-81.19 0.0517zm79.36-37.45c25.366-4.4446 41.501-18.422 50.74-43.955 6.479-17.906 8.467-38.753 4.8405-50.76-4.3719-14.476-17.099-23.197-35.699-24.462-6.5027-0.44227-8.0984-0.20054-12 1.8178-7.5356 3.8983-8.597 7.1304-19.955 60.768-9.5527 45.114-10.841 52.823-9.4384 56.478 0.79626 2.075 10.038 2.1237 21.512 0.11328z" fill="#7c7c7c"/>
  <path d="m49 268.99c-12.564-0.76785-18.079-1.978-25.003-5.4866-5.0553-2.5617-12.848-10.378-15.546-15.591-4.8523-9.379-4.7709-7.7754-5.191-102.22-0.42066-94.552 0.015741-108 3.8359-118.23 3.082-8.2482 12.106-17.281 20.336-20.357 10.288-3.8441 22.831-4.2619 115.57-3.8498 95.168 0.4229 92.379 0.25702 102.32 6.0839 5.8198 3.4106 12.361 10.714 15.21 16.982 4.886 10.75 4.9686 12.648 4.9686 114.18v95l-2.2275 7c-2.8079 8.8241-8.2628 16.053-15.293 20.268-7.291 4.371-10.377 5.1584-24.479 6.2454-13.719 1.0576-157.11 1.034-174.5-0.0286zm187.42-7.8655c5.6269-1.8751 8.001-3.3845 12.674-8.0572 4.8801-4.8801 6.1018-6.8702 8.0761-13.156l2.3262-7.4062v-96.5c0-90.466-0.11372-96.868-1.8186-102.39-3.8567-12.491-10.806-19.435-23.313-23.298-5.491-1.6958-11.953-1.8125-100.37-1.8125-88.359 0-94.89 0.11776-100.5 1.812-11.462 3.4617-19.572 11.6-23.166 23.247-1.7243 5.5874-1.8335 11.689-1.8335 102.44 0 90.347 0.11557 96.874 1.8125 102.37 4.7955 15.528 14.756 23.055 32.688 24.702 4.125 0.37892 47.775 0.61395 97 0.52229l89.5-0.16666zm-197.11-30.182c-1.7529-0.52902-4.1633-2.1938-5.3566-3.6996-1.861-2.3484-2.1045-3.662-1.7127-9.2377 0.94128-13.396 9.4757-21.968 21.898-21.994 1.956-4e-3 2.7988-0.63189 3.2473-2.4188 1.3059-5.2033 23.557-110.33 24.169-114.19l0.65163-4.1072-4.9954-0.66267c-9.6247-1.2768-13.229-6.9769-11.137-17.612 1.546-7.858 5.6077-13.513 11.742-16.348 4.5714-2.1126 5.6043-2.159 44.181-1.9849 43.314 0.19549 56.295 1.2686 69.064 5.7091 18.369 6.3882 32.287 21.678 37.424 41.113 5.1026 19.306 3.5398 45.672-4.0464 68.271-11.492 34.233-34.444 59.632-63.965 70.784-16.36 6.1802-21.648 6.6971-71.976 7.0352-27.542 0.18505-47.279-0.0769-49.187-0.6528zm92.599-37.436c27.771-6.7295 45.142-29.325 50.741-66.001 4.7621-31.193-6.728-48.483-34.816-52.39-11.658-1.6215-17.776 0.92967-21.977 9.1654-2.2274 4.366-22.859 99.322-22.859 105.21 0 6.7984 0.13659 6.8693 11.911 6.1869 5.8238-0.33754 13.474-1.3129 17.001-2.1674z" fill="#747474"/>
  <path d="m37.043 267.88c-11.337-1.9144-22.246-9.2507-27.768-18.673-5.6538-9.6475-5.5733-8.2621-6.0084-103.33-0.4076-89.037 0.11053-108.01 3.1919-116.88 3.7101-10.679 14.703-20.508 26.542-23.731 6.0022-1.6339 13.699-1.7694 100.5-1.7694 75.316 0 95.193 0.26851 100 1.3509 16.557 3.7278 27.785 16.118 30.491 33.649 0.73462 4.7583 0.98417 37.743 0.77926 103-0.33513 106.72 0.0494 100.72-7.1189 111.16-4.4564 6.4886-10.342 10.816-18.444 13.563l-6.7079 2.2738-95 0.15333c-54.13 0.0874-97.348-0.24313-100.46-0.76821zm188.44-4.9004c12.272-1.193 18.548-3.993 24.977-11.143 3.3415-3.7166 5.1508-6.9638 6.7974-12.2l2.2439-7.135v-96.5c0-90.466-0.11372-96.868-1.8186-102.39-3.8567-12.491-10.806-19.435-23.313-23.298-5.491-1.6958-11.953-1.8125-100.37-1.8125-88.532 0-94.872 0.11485-100.39 1.8186-12.491 3.8567-19.435 10.806-23.298 23.313-1.6969 5.4946-1.8125 12.022-1.8125 102.37v96.5l2.2439 7.135c4.3478 13.825 14.72 21.774 30.381 23.285 12.117 1.1686 172.41 1.2193 184.36 0.0582zm-186.36-32.311c-4.9575-1.8536-7.1239-5.0581-7.1173-10.528 0.01616-13.442 7.4434-22.339 19.878-23.812l5.0124-0.59365 2.039-9.1168c7.0443-31.497 23.064-108 23.064-110.14 0-0.67705-2.0154-1.4843-4.5852-1.8365-10.042-1.3763-13.769-7.8098-10.934-18.874 1.792-6.995 5.1572-11.97 9.8212-14.521 2.9112-1.592 7.2373-1.7489 48.198-1.7489 48.827 0 53.515 0.3826 67.682 5.5234 13.607 4.9373 24.889 14.834 31.131 27.307 5.3507 10.692 6.8784 17.421 7.4177 32.67 1.4008 39.605-15.455 80.185-42.497 102.31-13.163 10.769-27.864 17.83-45.594 21.899-8.4321 1.935-12.666 2.1218-54.64 2.4101-34.834 0.2393-46.292 0.0166-48.877-0.95009zm89.528-36.582c30.113-6.2146 47.682-27.68 53.961-65.929 3.931-23.949-2.2164-40.405-17.995-48.173-6.1282-3.0169-18.499-5.878-25.719-5.9479-6.4541-0.06251-13.579 6.5944-15.89 14.847-2.2192 7.9225-21.008 98.266-21.008 101.01 0 5.7773 0.50308 6.1048 9.357 6.0905 4.4786-7e-3 12.261-0.86298 17.294-1.9017z" fill="#6c6c6c"/>
  <path d="m37.5 267.89c-13.33-1.9308-26.05-11.781-30.529-23.64-3.3426-8.8511-3.885-23.917-3.8786-107.75 0.0060161-79.011 0.65487-99.897 3.3397-107.5 2.2673-6.421 8.2606-13.9 14.604-18.225 10.665-7.2716 7.7519-7.0534 100.46-7.5238 90.287-0.45803 109.23 0.13601 118.75 3.7237 12.251 4.6188 21.689 17.161 23.723 31.525 1.342 9.4793 1.3274 186.67-0.0161 195.97-1.3511 9.349-4.7846 16.458-10.906 22.579s-13.23 9.5545-22.579 10.906c-8.6172 1.2453-184.33 1.185-192.97-0.0662zm188.36-4.908c5.1502-0.54247 11.304-1.8446 13.676-2.8936 6.0742-2.6869 12.974-9.3918 15.973-15.522 4.2193-8.6239 4.6495-20.503 4.2631-117.71l-0.35124-88.354-2.3063-6.9239c-1.8746-5.6279-3.3825-8.0001-8.0562-12.674-4.8801-4.8801-6.8702-6.1018-13.156-8.0761l-7.4062-2.3262h-189l-7.4062 2.3262c-6.291 1.9759-8.2747 3.1947-13.174 8.0938s-6.1178 6.8828-8.0938 13.174l-2.3262 7.4062v96c0 102.92-0.034173 102.17 5.0567 111.08 2.9992 5.2506 9.5116 11.117 15.072 13.576 2.4056 1.0641 7.8607 2.3036 12.122 2.7543 11.283 1.1933 173.86 1.2501 185.11 0.0646zm-186.58-32.26c-5.7617-2.182-6.7822-4.0005-6.7822-12.086 0-6.3746 0.38134-7.9073 3.0354-12.2 3.6156-5.8475 8.8702-9.09 16.219-10.008 4.2637-0.53272 5.3627-1.0641 5.7728-2.7915 2.6913-11.335 24.473-115.17 24.473-116.66 0-1.4898-0.68044-1.9708-2.7881-1.9708-1.5335 0-4.796-1.0125-7.25-2.25-6.2415-3.1474-7.7372-7.6492-5.5331-16.653 1.8495-7.5554 5.0235-12.103 10.265-14.706 3.5613-1.769 6.6725-1.8907 48.306-1.8907 47.442 0 51.598 0.32205 65.891 5.1067 34.376 11.507 47.972 48.663 35.645 97.411-3.7803 14.949-12.768 34.352-21.081 45.51-13.114 17.602-31.983 31.763-50.955 38.242-15.376 5.2505-18.065 5.4866-66.5 5.8376-34.037 0.24667-46.311 0.0227-48.718-0.88884zm93.218-37.243c18.775-5.0883 31.833-15.96 40.352-33.597 7.2008-14.908 10.53-28.935 10.534-44.379 2e-3 -10.056-0.35808-12.915-2.2247-17.647-5.6757-14.389-18.727-22.119-39.719-23.523l-9.0578-0.60596-3.569 3.1336c-1.9629 1.7235-4.0755 4.3732-4.6945 5.8882-1.748 4.278-23.121 105.92-23.121 109.96v3.5832l12.75-0.59272c7.0125-0.326 15.45-1.3245 18.75-2.2188z" fill="#616161"/>
  <path d="m37.5 267.91c-13.253-1.962-25.836-11.666-30.679-23.66l-2.3206-5.7467-0.27344-99.884c-0.30505-111.43-0.54033-107.21 6.5429-117.58 4.3171-6.323 11.782-12.314 18.231-14.633 7.8542-2.8234 44.751-3.5818 128.5-2.6413 76.558 0.85975 77.033 0.87765 82.747 3.1219 7.8392 3.0791 15.914 10.64 19.697 18.444 5.0054 10.326 5.1843 14.632 4.847 116.67l-0.30902 93.5-2.2454 6.5c-4.2016 12.163-12.272 20.154-24.637 24.396-6.006 2.0601-7.5351 2.0944-100.1 2.2455-51.7 0.0844-96.7-0.24634-100-0.73489zm188.71-4.858c10.383-1.0926 16.065-3.4136 22.199-9.0676 6.6604-6.1393 9.4066-12.503 10.573-24.498 1.2565-12.925 1.2705-173.9 0.0162-186.79-1.1147-11.46-3.1893-16.776-9.0136-23.095-6.1393-6.6604-12.503-9.4066-24.498-10.573-12.887-1.2529-169.89-1.271-182.74-0.021073-11.875 1.1551-18.728 4.0924-24.723 10.595-5.8229 6.3171-7.8976 11.633-9.0122 23.093-1.2543 12.896-1.2403 173.87 0.016233 186.79 1.1662 11.996 3.9124 18.359 10.573 24.498 5.888 5.4274 11.999 8.0699 20.811 8.9995 10.327 1.0894 175.52 1.15 185.8 0.0681zm-186.6-32.479c-2.1433-0.78886-4.5687-2.106-5.3896-2.9269-2.0323-2.0323-2.7156-10.553-1.2249-15.275 3.0532-9.6722 8.7385-14.481 18.722-15.836 3.5745-0.48518 5.3647-1.229 5.7012-2.3688 1.2458-4.2201 24.588-115.27 24.588-116.97 0-1.4901-0.94053-2.0833-4.105-2.5894-5.3395-0.85381-9.5428-3.0726-11.008-5.8107-3.3143-6.1928 0.6648-21.245 6.7349-25.476 5.8698-4.0919 8.3025-4.3124 47.567-4.3124 39.72 0 52.522 0.80427 64.621 4.0597 29.132 7.8387 45.232 31.089 45.173 65.24-0.0858 50.157-28.636 96.981-70.006 114.82-17.43 7.5145-22.631 8.1223-72.976 8.5282-36.831 0.29692-45.172 0.11156-48.397-1.0755zm94.39-37.543c11.048-3.1956 18.625-7.6382 26.676-15.641 11.583-11.513 19.452-29.826 22.429-52.198 3.496-26.271-5.8798-42.872-27.598-48.868-2.75-0.75915-9.725-1.6425-15.5-1.9631l-10.5-0.58281-2.6648 2.8636c-2.4207 2.6013-3.7196 7.8553-14.182 57.364-6.3344 29.975-11.834 56.248-12.222 58.385l-0.70482 3.8851 13.387-0.53857c9.4219-0.37906 15.606-1.1805 20.88-2.7059z" fill="#5b5b5b"/>
  <path d="m42.5 268.35c-15.953-1.8387-25.251-7.0579-32.388-18.181-6.165-9.6073-6.0806-8.0315-6.0969-113.87-0.010236-66.623 0.3261-97.83 1.0939-101.5 3.1869-15.232 14.388-26.428 29.691-29.675 7.0013-1.4855 190.49-1.5868 198.28-0.10948 14.233 2.6991 25.315 12.856 29.703 27.221 1.4157 4.6352 1.65 16.291 1.9615 97.577 0.22248 58.066-0.0215 95.674-0.65776 101.37-2.3569 21.11-14.811 34.148-35.14 36.786-6.7828 0.88025-179.06 1.2337-186.45 0.38254zm193.21-6.6623c10.141-3.3964 18.886-12.329 22.036-22.509 1.6273-5.2591 1.7586-12.966 1.7586-103.18 0-90.218-0.13135-97.924-1.7586-103.18-3.1523-10.188-11.911-19.13-22.036-22.496-4.7443-1.5775-13.043-1.7624-93.604-2.085-96.098-0.38487-105.93-0.017061-114.74 4.2916-6.0374 2.9521-12.766 9.8794-15.417 15.872-1.0341 2.3378-2.3403 8.2669-2.9027 13.176-1.3651 11.916-1.3711 176.84-0.00687 188.93 1.2379 10.97 4.2466 17.659 10.563 23.481 5.7462 5.2966 11.797 7.9862 20.259 9.0046 3.6555 0.43995 48.046 0.72131 98.646 0.62524 84.549-0.16051 92.422-0.31586 97.206-1.9182zm-196.21-31.172c-2.2-0.81959-4.1009-1.4969-4.2243-1.5052-0.12338-8e-3 -0.91088-1.3427-1.75-2.9654-1.8934-3.6615-1.941-8.3516-0.14534-14.318 2.8027-9.3126 8.254-13.833 18.33-15.201 3.5603-0.48324 5.3724-1.2335 5.7214-2.3688 0.43018-1.3996 21.897-102.23 24.445-114.82l0.84147-4.1576-4.6091-0.6911c-9.2743-1.3906-12.059-4.3869-12.077-12.994-0.02208-10.625 4.9866-18.335 13.867-21.347 4.3775-1.4848 73.656-1.5764 88.245-0.11678 21.062 2.1073 33.28 7.1529 44.444 18.353 11.757 11.795 17.125 25.192 18.125 45.232 1.9996 40.07-18.024 84.428-48.213 106.8-13.352 9.8957-24.641 15.071-40.992 18.792-8.1885 1.8635-13.058 2.084-53.508 2.4229-37.624 0.31519-45.118 0.14253-48.5-1.1174zm93-36.937c27.029-7.2687 44.431-29.552 50.029-64.061 6.1054-37.642-9.4178-55.493-48.279-55.517-5.0875-0.0032-9.25 0.25584-9.25 0.5756s-5.625 27.112-12.5 59.538-12.5 59.673-12.5 60.549c0 1.4036 1.5733 1.5296 13.25 1.0608 7.2875-0.29258 15.95-1.258 19.25-2.1455z" fill="#474747"/>
  <path d="m42 267.96c-9.8667-0.94616-15.296-2.6949-21.396-6.892-7.9223-5.4507-13.346-13.814-15.48-23.871-1.5476-7.2937-1.5821-193.33-0.037425-201.77 2.8983-15.822 14.5-27.407 30.387-30.344 8.365-1.5463 190.43-1.5142 197.73 0.034915 14.825 3.1456 25.454 13.196 29.514 27.909 1.6561 6.0003 1.7848 13.427 1.7848 102.97 0 102.41 0.0196 101.95-4.7068 111.35-2.6335 5.2381-9.273 12.261-14.472 15.308-10.024 5.8742-6.7769 5.691-104.82 5.9153-49.5 0.11327-93.825-0.16085-98.5-0.60915zm186.33-4.991c9.3519-1.352 15.507-4.2229 20.963-9.7777 5.8776-5.9839 8.5111-12.018 9.7817-22.412 0.63891-5.2266 0.89378-42.414 0.69074-100.78-0.29531-84.895-0.46553-92.928-2.0704-97.706-3.4086-10.148-12.337-18.887-22.514-22.036-5.2556-1.6262-12.874-1.7586-101.18-1.7586-88.31 0-95.928 0.13241-101.18 1.7586-10.177 3.1489-19.105 11.888-22.514 22.036-1.6048 4.7779-1.7751 12.811-2.0704 97.706-0.20153 57.935 0.053823 95.573 0.68335 100.72 1.2909 10.56 4.0338 16.821 9.8895 22.573 5.4681 5.371 11.797 8.4273 19.911 9.6145 8.3279 1.2186 181.23 1.2759 189.62 0.0628zm-186.83-31.901c-7.5844-1.8303-10.163-5.829-9.1688-14.22 1.3631-11.509 7.3979-18.098 18.184-19.854 3.2106-0.52254 6.1349-1.2982 6.4985-1.7238 0.36353-0.42556 6.17-26.874 12.903-58.774s12.448-58.745 12.7-59.656c0.35722-1.2916-0.48503-1.7999-3.8295-2.311-10.012-1.53-12.787-4.5406-12.787-13.869 0-7.7379 4.0769-15.31 10.048-18.664l4.4516-2.5 36-0.31905c64.181-0.56881 79.015 2.4144 96.057 19.319 7.9836 7.9189 13.219 17.357 16.086 29 2.3662 9.6095 2.3677 31.865 3e-3 43.846-8.1789 41.437-30.719 73.28-63.146 89.206-12.52 6.1491-22.797 8.8935-39 10.414-12.276 1.1521-80.313 1.2364-85 0.10529zm94-38.403c23.962-7.7807 38.117-24.919 45.699-55.329 1.684-6.755 2.2153-11.906 2.2526-21.84 0.0471-12.552-0.0589-13.224-3.0742-19.5-7.3058-15.206-21.034-22-44.454-22h-10.757l-1.1384 5.25c-0.62612 2.8875-6.2857 29.55-12.577 59.25s-11.639 54.843-11.883 55.874c-0.42305 1.7822 0.25115 1.85 13.744 1.3831 11.657-0.40339 15.616-0.95443 22.189-3.0887z" fill="#343434"/>
  <path d="m46.477 268.04c-11.736-0.57389-13.676-0.942-19.623-3.7253-3.63-1.6987-8.3899-4.7056-10.578-6.682-5.2626-4.7544-9.8704-13.618-11.247-21.635-0.78313-4.5593-1.0281-35.552-0.82193-103.99l0.29367-97.5 2.2024-5.3776c4.5439-11.095 11.371-17.981 22.145-22.337l5.6525-2.2854 95.867-0.27898c62.21-0.18103 97.808 0.07972 101.39 0.7427 7.36 1.3606 15.086 5.0005 19.959 9.4031 4.8084 4.3441 9.6617 13.222 11.17 20.432 0.76744 3.6681 1.1087 35.076 1.1087 102.04 0 105.24 0.11131 103-5.5969 112.74-3.6592 6.244-11.548 12.955-18.201 15.485-4.3034 1.6364-9.2576 2.3706-20.202 2.994-16.674 0.94983-154.03 0.93626-173.52-0.0172zm182.83-5.1506c16.987-2.6294 27.133-13.04 29.645-30.418 1.3477-9.3254 1.3575-183.55 0.0109-192.86-1.3261-9.1739-4.0922-15.125-9.6689-20.803-5.4562-5.5549-11.611-8.4257-20.963-9.7777-9.1881-1.3284-179.53-1.3207-188.72 0.0084747-9.1739 1.3261-15.125 4.0922-20.803 9.6689-5.5549 5.4562-8.4257 11.611-9.7777 20.963-1.3386 9.259-1.3211 183.53 0.019365 192.8 2.4512 16.961 13.215 28.172 29.31 30.529 8.6326 1.2639 182.72 1.163 190.95-0.11062zm-187.81-31.817c-7.4501-1.8022-10.159-6.0408-9.077-14.201 1.6223-12.229 7.9457-18.906 18.638-19.68 4.3258-0.3129 6.0068-0.85658 6.3608-2.0573 0.26461-0.89758 5.9079-27.282 12.541-58.632 6.6328-31.35 12.286-58.002 12.562-59.228 0.53165-2.356 0.3146-2.4615-7.7139-3.7488-2.4643-0.39513-4.5795-1.6491-6.3688-3.7755-2.4645-2.9289-2.6406-3.7209-2.1992-9.8912 0.61786-8.6354 4.115-14.936 10.051-18.109 4.0932-2.1876 5.1525-2.2572 39.207-2.5781 40.368-0.38033 58.582 0.75928 71.371 4.4654 11.819 3.4249 17.461 6.6971 25.631 14.864 12.716 12.711 17.731 26.826 17.767 50 0.0718 46-24.132 90.066-60.34 109.85-14 7.651-26.265 11.051-45.501 12.613-14.207 1.1537-78.256 1.2328-82.929 0.10242zm87.803-36.675c23.197-5.1746 39.572-20.213 48.083-44.161 3.7042-10.421 6.6139-25.789 6.6139-34.931 0-27.762-15.573-41.246-47.683-41.288-9.7977-0.01295-11.245 0.20196-11.69 1.7352-0.27919 0.9625-5.9594 27.625-12.623 59.25-6.6633 31.625-12.346 58.288-12.627 59.25-0.46692 1.5956 0.51283 1.75 11.108 1.75 7.0131 0 14.473-0.63653 18.817-1.6055z" fill="#292929"/>
  <path d="m33.5 266.61c-10.71-2.6045-19.852-9.6365-24.662-18.97-4.7189-9.1572-4.8036-11.124-4.8036-111.64 0-100.67 0.075839-102.42 4.8501-111.77 2.6093-5.1147 10.226-12.732 15.341-15.341 9.3415-4.7657 11.253-4.8501 109.77-4.8501 98.862 0 100.4 0.069502 109.99 4.9598 9.357 4.7736 16.846 15.254 18.921 26.479 1.5336 8.2959 1.5158 194.39-0.0192 201.73-3.2084 15.335-14.281 26.401-29.691 29.674-7.7969 1.6558-192.81 1.4143-199.7-0.26064zm196.36-3.6614c16.18-2.6254 26.767-13.413 29.117-29.668 1.368-9.4607 1.3323-185.75-0.0393-194.28-2.7868-17.335-13.064-27.438-30.471-29.953-9.6274-1.3913-180.81-1.3793-189.47 0.013286-17.11 2.7505-27.189 12.83-29.94 29.94-1.429 8.8894-1.429 185.11 0 194 2.652 16.497 12.871 27.341 28.166 29.888 7.6971 1.2819 184.77 1.3413 192.64 0.0647zm-187.74-31.955c-5.3621-1.2659-7.9461-3.0573-9.0731-6.2901-1.4156-4.0609-1.3225-6.4195 0.49508-12.54 2.8294-9.5275 9.8414-15.167 18.858-15.167 3.3806 0 4.5953-0.42494 5.0025-1.75 0.68822-2.2396 25.597-119.26 25.597-120.26 0-0.40944-2.5506-0.95596-5.668-1.2145-4.8578-0.40285-6.0904-0.94282-8.6234-3.7777-2.7908-3.1235-2.9287-3.6809-2.4757-10.012 0.78013-10.903 6.176-17.901 15.466-20.058 5.2673-1.2227 67.241-1.1551 82.575 0.09015 23.868 1.9381 36.504 6.7961 48.199 18.529 12.315 12.355 17.614 26.811 17.761 48.45 0.39692 58.389-35.4 108.91-85.757 121.04-4.4125 1.0623-14.312 2.3849-22 2.9391-16.291 1.1745-75.407 1.1913-80.356 0.0228zm75.56-34.983c19.305-1.7412 30.939-6.6823 42.414-18.014 14.104-13.927 22.371-34.577 23.62-59 1.2657-24.749-8.2488-38.442-30.259-43.546-8.1973-1.9011-27.309-2.3096-28.362-0.60629-0.40406 0.65379-6.255 27.393-13.002 59.421s-12.473 58.988-12.725 59.911c-0.3329 1.2222 0.30333 1.7938 2.3375 2.1002 4.6465 0.69978 5.4215 0.68692 15.976-0.265z" fill="#171717"/>
  <path d="m34.166 266.48c-15.547-3.4102-26.564-15.319-29.122-31.481-1.4003-8.8483-1.4003-189.15 0-198 1.4198-8.9714 4.9873-15.794 11.46-21.915 6.5196-6.166 11.658-8.6269 21.051-10.082 4.6961-0.7273 37.378-0.97757 100.94-0.77301 86.104 0.27709 94.431 0.4483 99.126 2.0382 10.758 3.6426 20.818 13.907 24.138 24.628 1.598 5.1602 1.7354 13.48 1.7354 105.1 0 91.08-0.14479 99.967-1.711 105.02-3.491 11.262-11.304 19.613-22.636 24.195l-5.6525 2.2854-96.5 0.18497c-79.178 0.15177-97.637-0.0644-102.83-1.2044zm198.28-3.9868c12.721-2.6948 22.59-11.891 25.749-23.994 1.0303-3.9478 1.3049-25.623 1.3049-103 0-92.364-0.10538-98.313-1.8323-103.44-3.7031-10.993-10.735-18.025-21.728-21.728-5.1242-1.7261-11.03-1.8323-101.94-1.8323-90.909 0-96.815 0.10615-101.94 1.8323-10.993 3.7031-18.025 10.735-21.728 21.728-1.7271 5.1273-1.8323 11.091-1.8323 103.94 0 92.848 0.10513 98.812 1.8323 103.94 4.0153 11.92 12.811 19.92 24.746 22.509 9.7966 2.1247 187.36 2.1655 197.37 0.0454zm-189.33-31.453c-7.6934-1.2223-10.638-4.3811-10.548-11.316 0.17348-13.337 6.9752-21.281 19.377-22.632l5.4447-0.59315 12.251-57.5c6.7381-31.625 12.54-59.188 12.893-61.25l0.64199-3.75h-4.1376c-8.2057 0-13.038-4.4836-13.038-12.097 0-10.697 5.6506-18.874 14.901-21.563 7.8916-2.2942 81.919-1.4175 96.099 1.138 29.311 5.2826 46.436 21.665 51.996 49.742 1.6021 8.0897 1.3808 26.966-0.43869 37.414-9.7218 55.826-46.262 94.679-95.334 101.37-9.7996 1.3361-82.929 2.1781-90.108 1.0376zm88.421-37.05c20.521-5.2484 33.286-15.953 42.675-35.785 6.686-14.123 9.1208-25.285 9.2113-42.225 0.0773-14.466 0.0655-14.543-3.2145-21.208-6.8016-13.82-19.265-20.139-42.208-21.398-8.0216-0.44025-10.89-0.25745-12.151 0.77448-1.1854 0.96967-5.2057 18.196-14.25 61.058-6.9293 32.839-12.599 60.245-12.599 60.902 0 1.8114 23.034 0.31135 32.536-2.1189z"/>
 </g>
</svg>
