<?xml version="1.0" encoding="UTF-8" standalone="no"?>
<svg
   xmlns:dc="http://purl.org/dc/elements/1.1/"
   xmlns:cc="http://creativecommons.org/ns#"
   xmlns:rdf="http://www.w3.org/1999/02/22-rdf-syntax-ns#"
   xmlns:svg="http://www.w3.org/2000/svg"
   xmlns="http://www.w3.org/2000/svg"
   xmlns:sodipodi="http://sodipodi.sourceforge.net/DTD/sodipodi-0.dtd"
   xmlns:inkscape="http://www.inkscape.org/namespaces/inkscape"
   width="20"
   height="20"
   version="1.1"
   viewBox="0 0 20 20.000206"
   id="svg66"
   sodipodi:docname="task_remark_pink_20x20.svg"
   inkscape:version="0.92.2 5c3e80d, 2017-08-06">
  <metadata
     id="metadata72">
    <rdf:RDF>
      <cc:Work
         rdf:about="">
        <dc:format>image/svg+xml</dc:format>
        <dc:type
           rdf:resource="http://purl.org/dc/dcmitype/StillImage" />
        <dc:title></dc:title>
      </cc:Work>
    </rdf:RDF>
  </metadata>
  <defs
     id="defs70" />
  <sodipodi:namedview
     pagecolor="#ffffff"
     bordercolor="#666666"
     borderopacity="1"
     objecttolerance="10"
     gridtolerance="10"
     guidetolerance="10"
     inkscape:pageopacity="0"
     inkscape:pageshadow="2"
     inkscape:window-width="949"
     inkscape:window-height="792"
     id="namedview68"
     showgrid="false"
     inkscape:zoom="16.41432"
     inkscape:cx="7.4705573"
     inkscape:cy="7.5818429"
     inkscape:window-x="0"
     inkscape:window-y="0"
     inkscape:window-maximized="0"
     inkscape:current-layer="svg66" />
  <g
     transform="matrix(0.0605214,0,0,0.06249758,0.04786664,-0.24081077)"
     id="g64"
     style="stroke-width:1.33329999">
    <path
       d="M 28.3,320.45 C 14.145,310.8455 3.888,294.158 1.387,276.665 -0.3944,264.205 -0.3944,71.795 1.387,59.335 4.8321,35.238 22.065,15.247 46.098,7.467 c 6.0971,-1.9738 18.133,-2.1541 122,-1.8276 l 115.24,0.36224 10.228,4.8843 c 18.512,8.8402 31.989,26.107 35.734,45.782 1.0857,5.7035 1.4053,39.194 1.1136,116.67 l -0.40925,108.67 -4.3589,10.096 c -4.9858,11.548 -14.315,22.825 -24.051,29.073 l -6.4903,4.1648 -129.88,-0.0546 -129.88,-0.0546 z"
       id="path2"
       inkscape:connector-curvature="0"
       style="fill:#f3f3f3" />
    <path
       d="M 32.131,320.33 C 21.782,314.2239 13.51,304.822 7.708,292.568 l -4.3746,-9.2379 -0.37022,-111.97 c -0.35864,-108.47 -0.28742,-112.24 2.2779,-120.67 1.4565,-4.7816 4.4612,-11.546 6.6772,-15.032 5.9812,-9.409 18.277,-20.532 28.054,-25.379 l 8.6386,-4.2827 h 233.39 l 8.6667,4.1321 c 9.5372,4.5472 22.902,16.493 28.449,25.43 1.8988,3.0589 4.8246,9.3589 6.5018,14 l 3.0495,8.4383 v 220 l -3.1037,8.6667 c -5.7705,16.113 -17.072,29.63 -30.01,35.894 -5.6765,2.748 -6.8592,2.7731 -130.34,2.7731 h -124.61 z"
       id="path4"
       inkscape:connector-curvature="0"
       style="fill:#f1eef1" />
    <path
       d="M 33.776,320.63 C 24.3711,315.2989 14.617,305.111 9.781,295.567 2.8531,281.895 2.7146,279.416 2.6896,168.577 2.674247,100.434 3.1532,63.157 4.1115,57.907 7.4951,39.382 22.6115,19.149 39.4585,10.598 l 9.0681,-4.6029 h 233.53 l 8.8179,4.3409 c 10.313,5.0771 24.481,19.177 29.783,29.639 7.4371,14.676 7.3434,13.043 7.3434,128.02 0,114 0.0328,113.39 -6.896,127.78 -4.1229,8.5619 -15.893,20.54 -24.901,25.341 l -7.9093,4.2156 -123.15,-0.0206 -123.15,-0.0205 z"
       id="path6"
       inkscape:connector-curvature="0"
       style="fill:#eceaec" />
    <path
       d="M 37.604,320.62 C 19.914,311.7701 8.032,294.624 5.267,273.958 4.32976,266.9527 3.998,228.359 4.29325,160.668 4.73514,59.338 4.7785,57.898 7.61365,50.388 c 7.4339,-19.7 18.761,-33.44 33.559,-40.707 l 7.4949,-3.6807 h 233.33 l 7.6241,3.5734 c 14.468,6.7812 27.535,22.639 33.862,41.093 2.3836,6.9528 2.5141,13.041 2.5141,117.33 0,104.32 -0.13,110.38 -2.5156,117.33 -5.6751,16.544 -15.863,28.297 -30.78,35.507 l -9.2957,4.4932 h -236.38 z"
       id="path8"
       inkscape:connector-curvature="0"
       style="fill:#e5e3e5" />
    <path
       d="M 47.333,323.48 C 25.513,316.5153 10.199,298.367 6.654,275.272 5.68223,268.9424 5.3504,231.922 5.638,161.942 l 0.4272,-103.93 3.561,-9.6852 c 7.5712,-20.592 16.091,-31.045 31.451,-38.588 l 7.5896,-3.727 h 233.39 l 8.8502,4.3569 c 16.654,8.1988 28.863,26.002 33.08,48.238 0.83544,4.4052 1.3382,46.153 1.3239,109.92 -0.0255,112.84 -0.12307,114.42 -7.9094,128.03 -5.4832,9.5837 -15.644,18.759 -26.436,23.871 l -8.9644,4.2466 -114.67,0.25536 c -89.914,0.20023 -115.82,-0.11213 -120,-1.447 z"
       id="path10"
       inkscape:connector-curvature="0"
       style="fill:#e0dce0" />
    <path
       d="M 56,324.43 C 34.49,320.9254 16.101,305.086 9.788,284.627 7.4885,277.174 7.3329,269.779 7.3329,168.007 V 59.337 l 3.0227,-10.431 c 1.6625,-5.737 4.2781,-12.892 5.8126,-15.9 4.0765,-7.9907 15.329,-18.594 24.498,-23.085 l 8,-3.9181 h 233.33 l 7.5669,3.5472 c 8.6766,4.0674 18.605,12.699 23.526,20.453 1.8616,2.9333 4.9122,9.8333 6.7793,15.333 l 3.3946,10 0.41187,107.79 c 0.26753,70.016 -0.0696,110.43 -0.9619,115.33 -4.1468,22.776 -22.773,41.129 -46.12,45.445 -7.3713,1.3627 -212.46,1.8525 -220.6,0.52688 z"
       id="path12"
       inkscape:connector-curvature="0"
       style="fill:#d9d5d9" />
    <path
       d="M 56,323.1 C 32.062,318.9594 13.674,301.181 9.448,278.091 c -0.9607,-5.2488 -1.4464,-42.271 -1.443,-110 0.00551,-110.8 0.44004,-118.8 7.2093,-132.63 6.6588,-13.61 17.569,-23.07 32.218,-27.935 6.1681,-2.0485 16.82,-2.2149 120.67,-1.8843 l 113.9,0.36255 7.3333,3.4801 c 14.082,6.6829 25.197,19.395 30.181,34.52 2.2415,6.8015 2.4475,15.458 2.8406,119.37 0.40405,106.82 0.30641,112.41 -2.0988,120.14 -5.2675,16.924 -18.159,30.727 -34.443,36.876 l -7.8136,2.9507 -109.33,0.17033 c -60.133,0.0937 -110.83,-0.0891 -112.67,-0.40622 z"
       id="path14"
       inkscape:connector-curvature="0"
       style="fill:#d0cbd0" />
    <path
       d="M 51.001,320.61 C 34.307,316.1147 21.711,305.657 14.525,290.325 l -4.5252,-9.6547 v -233.33 l 2.9905,-7.3333 c 6.302,-15.454 19.889,-28.132 34.94,-32.604 6.6732,-1.9825 18.568,-2.1596 120.74,-1.7978 l 113.33,0.40138 7.3333,3.4629 c 11.381,5.3743 20.488,14.456 26.312,26.238 l 5.0212,10.159 0.36246,114.74 c 0.35252,111.58 0.289,114.98 -2.3121,123.54 -5.2987,17.445 -19.843,31.49 -37.384,36.1 -7.8304,2.058 -19.024,2.2767 -116,2.2669 -88.273,-0.009 -108.58,-0.34556 -114.33,-1.8956 z"
       id="path16"
       inkscape:connector-curvature="0"
       style="fill:#cac4ca" />
    <path
       d="M 48.634,318.86 C 27.629,312.7941 13.558,294.927 10.593,270.556 9.73449,263.5003 9.3709,219.968 9.61397,153.336 l 0.38663,-106 2.9905,-7.3333 c 6.302,-15.454 19.889,-28.132 34.94,-32.604 6.6732,-1.9825 18.568,-2.1596 120.74,-1.7978 l 113.33,0.40138 7.3333,3.4629 c 11.381,5.3743 20.488,14.456 26.312,26.238 l 5.0212,10.158 0.39142,108.07 c 0.25023,69.089 -0.10573,111.84 -0.98701,118.52 -2.7101,20.543 -15.521,38.04 -33.025,45.105 l -7.7128,3.113 -111.33,0.25712 c -102.29,0.23623 -111.99,0.0685 -119.37,-2.0627 z"
       id="path18"
       inkscape:connector-curvature="0"
       style="fill:#c1b9c1" />
    <path
       d="M 53.227,318.67 C 35.524,315.6099 20.635,301.384 13.694,280.897 L 10.0002,269.995 V 47.325 l 2.9905,-7.3333 c 6.302,-15.454 19.889,-28.132 34.94,-32.604 6.6732,-1.9825 18.568,-2.1596 120.74,-1.7978 l 113.33,0.40138 7.3333,3.4629 c 11.382,5.3749 20.489,14.456 26.312,26.239 l 5.0212,10.16 v 226.8 l -3.6167,9.7533 c -6.1901,16.693 -14.701,26.127 -30.069,33.329 l -7.6473,3.584 -110,0.19852 c -60.5,0.1092 -112.75,-0.27645 -116.11,-0.85696 z"
       id="path20"
       inkscape:connector-curvature="0"
       style="fill:#d18fd1" />
    <path
       d="m 53.068,318.65 c -8.3664,-1.4399 -18.762,-7.2658 -25.92,-14.527 -5.6074,-5.6877 -11.907,-16.494 -12.898,-22.126 -0.25815,-1.4667 -1.1197,-5.0667 -1.9146,-8 -1.804,-6.6574 -3.1465,-210.79 -1.4672,-223.1 2.3518,-17.25 13.571,-32.342 30.088,-40.473 l 8.9883,-4.4249 h 230.86 l 10.177,5.0298 c 15.375,7.5985 25.376,20.322 28.852,36.703 1.0381,4.8925 1.4928,39.135 1.4784,111.33 -0.0179,89.305 -0.3144,105.42 -2.0666,112.27 -1.1251,4.4 -2.1158,8.75 -2.2014,9.6667 -0.0856,0.91666 -0.63685,1.6667 -1.2249,1.6667 -0.5881,0 -0.68614,0.99843 -0.21787,2.2187 0.5686,1.4818 0.33833,1.9016 -0.69324,1.2641 -1.0206,-0.63078 -1.2657,-0.22766 -0.72233,1.1882 1.0747,2.8006 -7.6606,15.494 -14.259,20.72 -2.7672,2.1917 -8.5329,5.6253 -12.813,7.6302 l -7.7812,3.6453 -110,0.19852 c -60.5,0.1092 -112.82,-0.28669 -116.27,-0.87973 z"
       id="path22"
       inkscape:connector-curvature="0"
       style="fill:#b6adb6" />
    <path
       d="m 53.807,317.28 c -12.098,-2.3944 -28.701,-14.359 -33.366,-24.044 -0.85751,-1.7804 -3.2557,-6.8372 -5.3293,-11.237 l -3.7702,-8 -0.86326,-106.67 c -0.49653,-61.352 -0.35239,-110.53 0.3393,-115.77 2.3601,-17.868 13.354,-32.875 30.138,-41.137 l 8.9883,-4.4249 h 230.86 l 10.177,5.0298 c 15.375,7.5985 25.376,20.322 28.852,36.703 2.0785,9.7958 2.1009,212 0.0245,221.68 -2.2757,10.611 -9.5337,25.219 -16.219,32.644 -6.3722,7.0766 -16.525,12.908 -26.459,15.199 -7.0862,1.6336 -215.13,1.659 -223.37,0.0272 z"
       id="path24"
       inkscape:connector-curvature="0"
       style="fill:#aea3ae" />
    <path
       d="M 56,316.02 C 39.826,313.1833 24.745,300.708 15.688,282.673 l -4.355,-8.6722 -0.85924,-106.67 c -0.49402,-61.328 -0.34809,-110.54 0.34331,-115.77 2.3601,-17.868 13.354,-32.875 30.138,-41.137 l 8.9883,-4.4249 h 230.86 l 10.177,5.0298 c 15.375,7.5985 25.376,20.322 28.852,36.703 2.099,9.8925 2.099,211.98 0,221.87 -4.0151,18.923 -18.876,37.107 -36.096,44.167 -7.0437,2.8877 -7.49,2.8998 -114.4,3.1015 -59.033,0.11133 -110.03,-0.27103 -113.33,-0.8498 z"
       id="path26"
       inkscape:connector-curvature="0"
       style="fill:#e22ee2" />
    <path
       d="m 56,316.02 c -9.0537,-1.5879 -20.273,-7.463 -26.114,-13.675 -2.8709,-3.0533 -4.0198,-4.7517 -2.5531,-3.7741 1.4667,0.97756 0.56667,-0.22259 -2,-2.667 -6.3012,-6.001 -9.9342,-12.308 -13,-22.57 -1.8879,-6.3184 -3.25,-209.79 -1.4891,-222.44 2.4069,-17.29 13.611,-32.349 30.112,-40.473 L 49.9441,5.996 h 230.86 l 10.177,5.0298 c 15.274,7.5489 25.512,20.5 28.696,36.304 1.4937,7.4123 0.96215,218.99 -0.56444,224.67 -1.2103,4.4998 -0.89941,3.7318 -4.9936,12.333 -2.0071,4.2167 -4.1725,7.6667 -4.8121,7.6667 -0.6396,0 -1.9537,1.65 -2.9202,3.6667 -0.96656,2.0167 -2.4493,3.6667 -3.295,3.6667 -0.84568,0 -2.0376,0.5462 -2.6487,1.2138 -0.64555,0.70519 -0.41276,0.81188 0.55556,0.25464 0.91667,-0.52752 1.6481,-0.47372 1.6254,0.1196 -0.0759,1.9841 -11.735,9.9141 -18.888,12.846 -7.0437,2.8877 -7.49,2.8998 -114.4,3.1015 -59.033,0.11133 -110.03,-0.27103 -113.33,-0.8498 z"
       id="path28"
       inkscape:connector-curvature="0"
       style="fill:#a499a4" />
    <path
       d="m 50.346,312.54 c -12.841,-3.949 -28.489,-17.317 -34.184,-29.204 -1.3633,-2.8454 -2.8541,-6.7396 -3.8283,-10 -1.8879,-6.3184 -3.25,-209.79 -1.4891,-222.44 2.4069,-17.29 13.611,-32.349 30.112,-40.473 l 8.9883,-4.4249 h 230.86 l 10.177,5.0298 c 15.274,7.5489 25.512,20.5 28.696,36.304 1.4937,7.4123 0.96215,218.99 -0.56444,224.67 -1.2103,4.4998 -0.89941,3.7318 -4.9936,12.333 -2.0071,4.2167 -4.2201,7.6667 -4.9178,7.6667 -0.69772,0 -1.8389,1.5 -2.5359,3.3333 -0.69703,1.8333 -2.201,3.3333 -3.3422,3.3333 -1.1412,0 -2.4093,0.87167 -2.8182,1.937 -1.1474,2.99 -13.574,10.45 -15.912,9.5529 -1.1361,-0.43598 -1.742,-0.26891 -1.3463,0.37126 2.219,3.5905 -13.818,4.1365 -118.84,4.046 -90.417,-0.0779 -108.76,-0.40546 -114.06,-2.0367 z"
       id="path30"
       inkscape:connector-curvature="0"
       style="fill:#ec00ec" />
    <path
       d="m 50,312.47 c -3.6667,-1.1072 -7.5667,-2.8935 -8.6667,-3.9696 -1.6897,-1.6531 -1.231,-1.6366 2.9572,0.10587 6.3825,2.6556 6.3762,2.6569 6.3762,-1.2708 0,-3.1163 -0.4392,-3.3333 -6.7454,-3.3333 -4.5653,0 -6.4525,0.4739 -5.8391,1.4664 0.51435,0.83224 -0.46066,0.68808 -2.2546,-0.33334 -2.9206,-1.6629 -2.4767,-1.8297 5.8391,-2.1939 l 9,-0.39426 v -30.545 h -19.255 c -11.398,0 -19.591,-0.54404 -20.079,-1.3333 -0.53543,-0.86634 6.2084,-1.3333 19.255,-1.3333 h 20.079 v -30.667 h -20 c -12.444,0 -20,-0.50371 -20,-1.3333 0,-0.82963 7.5556,-1.3333 20,-1.3333 h 20 v -30.667 h -20 c -12.444,0 -20,-0.50371 -20,-1.3333 0,-0.82962 7.5556,-1.3333 20,-1.3333 h 20 v -29.333 h -20 c -12.444,0 -20,-0.50371 -20,-1.3333 0,-0.82962 7.5556,-1.3333 20,-1.3333 h 20 v -33.333 h -20 c -12.444,0 -20,-0.50371 -20,-1.3333 0,-0.82962 7.5556,-1.3333 20,-1.3333 h 20 v -20 h -40 v -6.5972 l 20.333,-0.40548 20.333,-0.40548 -20.152,-0.29591 -20.152,-0.29592 -0.8479,-6.1861 c -1.2797,-9.3368 -0.96791,-38.618 0.52094,-48.916 2.6091,-18.046 13.541,-32.912 30.253,-41.139 l 8.9883,-4.4249 h 230.86 l 10.177,5.0298 c 15.375,7.5985 25.376,20.322 28.852,36.703 0.82455,3.8861 1.4992,16.967 1.4992,29.068 v 22.002 l -4.7987,2.005 c -2.8908,1.2078 -12.831,2.5116 -25,3.2791 -11.111,0.70073 -29.201,2.1586 -40.201,3.2398 -47.905,4.7084 -71.85,5.0827 -126,1.9698 -21.195,-1.2184 -25.605,-1.13 -31.333,0.62834 -3.6667,1.1255 -10.042,2.0528 -14.167,2.0608 -4.125,0.008 -9.375,0.38943 -11.667,0.84777 l -4.1667,0.83333 v 21 h 128.67 c 84.889,0 128.67,0.45365 128.67,1.3333 0,0.87965 -43.778,1.3333 -128.67,1.3333 h -128.67 v 33.333 h 128.67 c 84.889,0 128.67,0.45365 128.67,1.3333 0,0.87965 -43.778,1.3333 -128.67,1.3333 h -128.67 v 29.333 h 128.67 c 84.889,0 128.67,0.45365 128.67,1.3333 0,0.87965 -43.778,1.3333 -128.67,1.3333 h -128.67 v 30.667 h 128.67 c 84.889,0 128.67,0.45366 128.67,1.3333 0,0.87964 -43.778,1.3333 -128.67,1.3333 h -128.67 v 30.667 h 128 c 84.444,0 128,0.45371 128,1.3333 0,0.87963 -43.556,1.3333 -128,1.3333 h -128 v 30.695 l 118,-0.34763 c 64.9,-0.1912 118,-0.26017 118,-0.15329 -6e-5,0.10693 -2.8501,2.0039 -6.3334,4.2157 -13.366,8.4867 -9.8819,8.2661 -128.91,8.1638 -92.372,-0.0794 -109.06,-0.38563 -114.76,-2.1059 z m 12.667,-4.4679 c 0,-3.7778 -0.2963,-4 -5.3333,-4 -4.6984,0 -5.3333,0.37037 -5.3333,3.1111 0,4.1397 0.95356,4.8889 6.2222,4.8889 4.0494,0 4.4444,-0.35556 4.4444,-4 z m 219.53,2.4208 c 1.5733,-0.48433 5.1733,-2.1006 8,-3.5918 l 5.1395,-2.7112 -115.67,-0.0589 -115.67,-0.0589 v 8.0311 l 107.67,-0.36484 c 59.217,-0.20067 108.95,-0.76112 110.53,-1.2455 z m -219.53,-23.087 v -15.333 H 52 v 30.667 h 10.667 z m 0,-33.333 v -15.333 H 52 v 30.667 h 10.667 z m 0,-33.333 v -15.333 H 52 v 30.667 h 10.667 z m 0,-32.667 v -14.667 H 52 v 29.333 h 10.667 z m 0,-34 v -16.667 H 52 v 33.333 h 10.667 z m 0,-30 v -10.667 H 52 v 21.333 h 10.667 z m 153.33,-21.239 12.667,-1.2877 -12,0.56743 c -6.6,0.31209 -15,0.97981 -18.667,1.4838 -6.0231,0.82792 -6.4962,0.70947 -4.9007,-1.227 0.97128,-1.1789 3.6713,-2.3821 6,-2.6738 l 4.234,-0.53036 -4.1701,-0.21338 c -2.3129,-0.11835 -4.9093,0.67735 -5.8299,1.7866 -1.3597,1.6384 -5.879,2 -24.993,2 -22.03,0 -23.231,-0.13029 -21.503,-2.3333 1.6066,-2.0486 1.5782,-2.1374 -0.23326,-0.72762 -1.1348,0.88314 -6.8348,1.8124 -12.667,2.065 l -10.604,0.45929 11.079,0.26832 c 6.0933,0.14758 10.8,0.71833 10.458,1.2683 -0.34112,0.55 10.175,0.82343 23.37,0.60763 14.036,-0.22957 23.681,0.10697 23.246,0.81105 -0.4392,0.71064 1.8341,0.74478 5.5515,0.0834 3.4624,-0.61603 11.995,-1.6995 18.962,-2.4077 z m -154.98,1.6562 c -1.2748,-0.33373 -3.6748,-0.34583 -5.3333,-0.0269 -1.6585,0.31892 -0.61554,0.59197 2.3178,0.60677 2.93334,0.0148 4.2903,-0.24614 3.0155,-0.57986 z m 33.339,-1.7144 c 1.8684,-1.1362 1.6213,-1.2501 -1.2872,-0.59347 -1.9797,0.44697 -9.1797,1.3194 -16,1.9389 l -12.4,1.1262 13.688,-0.53271 c 7.5282,-0.29299 14.728,-1.1655 16,-1.9389 z m -41.021,-2.0718 c 0,-1.7495 -2.7486,-1.9838 -19.557,-1.6667 -14.19,0.26772 -19.709,0.82636 -20.111,2.0356 -0.42679,1.2842 4.0618,1.6667 19.557,1.6667 17.144,0 20.111,-0.30032 20.111,-2.0356 z m 63.711,-0.27591 c -3.4588,-0.27366 -9.4588,-0.2765 -13.333,-0.006 -3.8746,0.27014 -1.0447,0.49405 6.2886,0.49752 7.3333,0.003 10.503,-0.21759 7.0447,-0.49125 z m 135.62,-0.26039 c 3.3918,-0.68999 0.23686,-0.83745 -8.6667,-0.40507 -7.7,0.37393 -14.25,0.89673 -14.556,1.1618 -1.0773,0.93447 17.958,0.3142 23.222,-0.75671 z M 63.686,99.0868 c -1.2748,-0.33372 -3.6748,-0.34583 -5.3333,-0.02691 -1.6585,0.31892 -0.61555,0.59197 2.3178,0.60677 2.9333,0.0148 4.2903,-0.24614 3.0155,-0.57986 z m 18.651,-0.05518 c -2.75,-0.28766 -7.25,-0.28766 -10,0 -2.75,0.28766 -0.5,0.52302 5,0.52302 5.5,0 7.75,-0.23536 5,-0.52302 z m 237.77,164.19 c 0.064,-1.5533 0.37992,-1.8692 0.80554,-0.80556 0.38516,0.9625 0.3378,2.1125 -0.1052,2.5556 -0.44306,0.44306 -0.75818,-0.34445 -0.70029,-1.75 z"
       id="path32"
       inkscape:connector-curvature="0"
       style="fill:#c64cc6" />
    <path
       d="m 50,312.46 c -3.6667,-1.1109 -7.2667,-2.6068 -8,-3.3243 -0.77956,-0.76278 0.22558,-0.716 2.4201,0.11266 5.4564,2.0602 6.2465,1.8023 6.2465,-2.0388 0,-3.381 -0.17127,-3.4461 -7.8904,-3.0015 -4.3397,0.24998 -8.3397,0.005 -8.8889,-0.54399 -0.54917,-0.54923 3.0015,-0.99855 7.8904,-0.99855 h 8.8889 v -30.667 h -19.333 c -12,0 -19.333,-0.50575 -19.333,-1.3333 0,-0.82758 7.3333,-1.3333 19.333,-1.3333 h 19.333 v -30.667 h -20 c -12.444,0 -20,-0.50371 -20,-1.3333 0,-0.82963 7.5556,-1.3333 20,-1.3333 h 20 v -30.667 h -20 c -12.444,0 -20,-0.50371 -20,-1.3333 0,-0.82962 7.5556,-1.3333 20,-1.3333 h 20 v -29.333 h -20 c -12.444,0 -20,-0.50371 -20,-1.3333 0,-0.82962 7.5556,-1.3333 20,-1.3333 h 20 v -33.333 h -20 c -12.444,0 -20,-0.50371 -20,-1.3333 0,-0.82962 7.5556,-1.3333 20,-1.3333 h 20 v -20 h -40 v -6.5972 l 20.333,-0.40548 20.333,-0.40548 -20.152,-0.29591 -20.152,-0.29592 -0.8479,-6.1861 c -1.2837,-9.3658 -0.96603,-38.631 0.53184,-48.993 3.0421,-21.045 17.015,-37.281 37.6,-43.687 7.4375,-2.3148 14.62,-2.4663 116.9,-2.4663 95.541,0 109.87,0.26056 116.21,2.114 19.988,5.8344 34.281,20.825 38.409,40.285 0.82455,3.8861 1.4992,16.967 1.4992,29.068 v 22.002 l -4.7987,2.005 c -2.8908,1.2078 -12.831,2.5116 -25,3.2791 -11.111,0.70073 -29.201,2.1586 -40.201,3.2398 -47.905,4.7084 -71.85,5.0827 -126,1.9698 -21.195,-1.2184 -25.605,-1.13 -31.333,0.62834 -3.6667,1.1255 -10.042,2.0528 -14.167,2.0608 -4.125,0.008 -9.375,0.38943 -11.667,0.84777 l -4.1667,0.83333 v 21 h 128.67 c 84.889,0 128.67,0.45365 128.67,1.3333 0,0.87965 -43.778,1.3333 -128.67,1.3333 h -128.67 v 33.333 h 128.67 c 84.889,0 128.67,0.45365 128.67,1.3333 0,0.87965 -43.778,1.3333 -128.67,1.3333 h -128.67 v 29.333 h 128.67 c 84.889,0 128.67,0.45365 128.67,1.3333 0,0.87965 -43.778,1.3333 -128.67,1.3333 h -128.67 v 30.667 h 128.67 c 84.889,0 128.67,0.45366 128.67,1.3333 0,0.87964 -43.778,1.3333 -128.67,1.3333 h -128.67 v 30.667 h 128.08 c 85.046,0 127.8,0.44797 127.25,1.3333 -0.54005,0.87382 -44.68,1.3333 -128.08,1.3333 h -127.25 v 30.652 l 117.67,0.34792 117.67,0.34792 -117.58,0.32599 -117.58,0.326 -0.53776,4.3333 -0.53776,4.3333 -0.21338,-4.3333 c -0.20342,-4.1311 -0.46228,-4.3333 -5.5467,-4.3333 -5.0023,0 -5.3333,0.24118 -5.3333,3.8862 0,3.855 0.07759,3.8932 9.6667,4.7601 5.3167,0.48064 56.225,0.68183 113.13,0.4471 85.265,-0.35175 103.85,-0.74868 105.67,-2.2567 1.2122,-1.0065 2.204,-1.4484 2.204,-0.9821 0,0.46629 2.1222,-0.0389 4.7161,-1.1227 2.5938,-1.0838 4.3685,-1.4081 3.9437,-0.72074 -0.42481,0.68736 -4.7102,2.466 -9.5232,3.9526 -8.4965,2.6243 -11.895,2.7002 -116.94,2.61 -92.632,-0.0795 -109.15,-0.38338 -114.86,-2.1126 z M 62.667,287.332 V 271.999 H 52 v 30.667 h 10.667 z m 0,-33.333 V 238.666 H 52 v 30.667 h 10.667 z m 0,-33.333 V 205.333 H 52 V 236 h 10.667 z m 0,-32.667 V 173.332 H 52 v 29.333 h 10.667 z m 0,-34 V 137.332 H 52 v 33.333 h 10.667 z m 0,-30 V 113.332 H 52 v 21.333 h 10.667 z m 153.33,-21.239 12.667,-1.2877 -12,0.56743 c -6.6,0.31209 -15,0.97981 -18.667,1.4838 -6.0231,0.82792 -6.4962,0.70947 -4.9007,-1.227 0.97128,-1.1789 3.6713,-2.3821 6,-2.6738 l 4.234,-0.53036 -4.1701,-0.21338 c -2.3129,-0.11835 -4.9093,0.67735 -5.8299,1.7866 -1.3597,1.6384 -5.879,2 -24.993,2 -22.03,0 -23.231,-0.13029 -21.503,-2.3333 1.6066,-2.0486 1.5782,-2.1374 -0.23326,-0.72762 -1.1348,0.88314 -6.8348,1.8124 -12.667,2.065 l -10.604,0.45929 11.079,0.26832 c 6.0933,0.14758 10.8,0.71833 10.458,1.2683 -0.34112,0.55 10.175,0.82343 23.37,0.60763 14.036,-0.22957 23.681,0.10697 23.246,0.81105 -0.4392,0.71064 1.8341,0.74478 5.5515,0.0834 3.4624,-0.61603 11.995,-1.6995 18.962,-2.4077 z m -154.98,1.6562 c -1.2748,-0.33373 -3.6748,-0.34583 -5.3333,-0.0269 -1.6585,0.31892 -0.61554,0.59197 2.3178,0.60677 2.93334,0.0148 4.2903,-0.24614 3.0155,-0.57986 z m 33.339,-1.7144 c 1.8684,-1.1362 1.6213,-1.2501 -1.2872,-0.59347 -1.9797,0.44697 -9.1797,1.3194 -16,1.9389 l -12.4,1.1262 13.688,-0.53271 c 7.5282,-0.29299 14.728,-1.1655 16,-1.9389 z M 53.335,100.63 c 0,-1.7495 -2.7486,-1.9838 -19.557,-1.6667 -14.19,0.26772 -19.709,0.82636 -20.111,2.0356 -0.42679,1.2842 4.0618,1.6667 19.557,1.6667 17.144,0 20.111,-0.30032 20.111,-2.0356 z m 63.711,-0.27591 c -3.4588,-0.27366 -9.4588,-0.2765 -13.333,-0.006 -3.8746,0.27014 -1.0447,0.49405 6.2886,0.49752 7.3333,0.003 10.503,-0.21759 7.0447,-0.49125 z m 135.62,-0.26039 c 3.3918,-0.68999 0.23686,-0.83745 -8.6667,-0.40507 -7.7,0.37393 -14.25,0.89673 -14.556,1.1618 -1.0773,0.93447 17.958,0.3142 23.222,-0.75671 z M 63.686,99.0829 c -1.2748,-0.33372 -3.6748,-0.34583 -5.3333,-0.02691 -1.6585,0.31892 -0.61555,0.59197 2.3178,0.60677 2.9333,0.0148 4.2903,-0.24614 3.0155,-0.57986 z m 18.651,-0.05518 c -2.75,-0.28766 -7.25,-0.28766 -10,0 -2.75,0.28766 -0.5,0.52302 5,0.52302 5.5,0 7.75,-0.23536 5,-0.52302 z"
       id="path34"
       inkscape:connector-curvature="0"
       style="fill:#b169b1" />
    <path
       d="m 51.333,312.7 c -2.9333,-0.96675 -4.2833,-1.8206 -3,-1.8975 1.5763,-0.0944 2.3333,-1.244 2.3333,-3.543 0,-3.3028 -0.23607,-3.3947 -8.0033,-3.1144 -4.4018,0.15886 -8.4018,-0.10973 -8.8889,-0.59677 -0.48707,-0.48707 3.1144,-0.88559 8.0033,-0.88559 h 8.8889 v -30.667 h -19.333 c -12,0 -19.333,-0.50575 -19.333,-1.3333 0,-0.82758 7.3333,-1.3333 19.333,-1.3333 h 19.333 v -30.667 h -20 c -12.444,0 -20,-0.50371 -20,-1.3333 0,-0.82963 7.5556,-1.3333 20,-1.3333 h 20 v -30.667 h -20 c -12.444,0 -20,-0.50371 -20,-1.3333 0,-0.82962 7.5556,-1.3333 20,-1.3333 h 20 v -29.333 h -20 c -12.444,0 -20,-0.50371 -20,-1.3333 0,-0.82962 7.5556,-1.3333 20,-1.3333 h 20 v -33.333 h -20 c -12.444,0 -20,-0.50371 -20,-1.3333 0,-0.82962 7.5556,-1.3333 20,-1.3333 h 20 v -20 h -40 v -6.5972 l 20.333,-0.40548 20.333,-0.40548 -20.422,-0.29591 -20.422,-0.29592 0.42199,-31 c 0.41402,-30.415 0.48947,-31.144 3.9954,-38.624 4.1684,-8.8935 13.704,-19.587 21.568,-24.187 13.134,-7.6822 10.399,-7.5226 128.96,-7.5226 104.86,0 109.27,0.099271 117.51,2.643 11.016,3.4024 22.004,11.32 28.133,20.272 8.3164,12.146 9.2219,16.226 9.9333,44.753 l 0.64011,25.669 -4.9568,2.0711 c -3.0737,1.2843 -12.631,2.5551 -25.158,3.3451 -11.111,0.70073 -29.201,2.1586 -40.201,3.2398 -47.905,4.7084 -71.85,5.0827 -126,1.9698 -21.195,-1.2184 -25.605,-1.13 -31.333,0.62834 -3.6667,1.1255 -10.042,2.0528 -14.167,2.0608 -4.125,0.008 -9.375,0.38943 -11.667,0.84777 l -4.1667,0.83333 v 21 h 128.67 c 84.889,0 128.67,0.45365 128.67,1.3333 0,0.87965 -43.778,1.3333 -128.67,1.3333 h -128.67 v 33.333 h 128.67 c 84.889,0 128.67,0.45365 128.67,1.3333 0,0.87965 -43.778,1.3333 -128.67,1.3333 h -128.67 v 29.333 h 128.67 c 84.889,0 128.67,0.45365 128.67,1.3333 0,0.87965 -43.778,1.3333 -128.67,1.3333 h -128.67 v 30.667 h 128.67 c 84.889,0 128.67,0.45366 128.67,1.3333 0,0.87964 -43.778,1.3333 -128.67,1.3333 h -128.67 v 30.667 h 128.08 c 85.046,0 127.8,0.44797 127.25,1.3333 -0.54005,0.87382 -44.68,1.3333 -128.08,1.3333 h -127.25 v 30.652 l 117,0.34799 117,0.348 -116.92,0.32595 -116.92,0.32596 -0.53776,4.3333 -0.53776,4.3333 -0.21338,-4.3333 c -0.20233,-4.109 -0.48168,-4.3333 -5.3954,-4.3333 -4.7191,0 -5.2336,0.3514 -5.7594,3.9341 -0.56268,3.8337 -0.40496,3.9547 6.182,4.7416 3.7177,0.44409 55.247,0.62375 114.51,0.39921 59.263,-0.22453 106.36,-0.018 104.67,0.45886 -1.6962,0.4769 -51.984,0.88078 -111.75,0.89753 -86.415,0.0242 -109.76,-0.32949 -114,-1.7273 z M 62.666,287.329 V 271.996 H 51.999 v 30.667 h 10.667 z m 0,-33.333 V 238.663 H 51.999 v 30.667 h 10.667 z m 0,-33.333 V 205.33 H 51.999 v 30.667 h 10.667 z m 0,-32.667 V 173.329 H 51.999 v 29.333 h 10.667 z m 0,-34 V 137.329 H 51.999 v 33.333 h 10.667 z m 0,-30 V 113.329 H 51.999 v 21.333 h 10.667 z m 153.33,-21.239 12.667,-1.2877 -12,0.56743 c -6.6,0.31209 -15,0.97981 -18.667,1.4838 -6.0231,0.82792 -6.4962,0.70947 -4.9007,-1.227 0.97128,-1.1789 3.6713,-2.3821 6,-2.6738 l 4.234,-0.53036 -4.1701,-0.21338 c -2.3129,-0.11835 -4.9093,0.67735 -5.8299,1.7866 -1.3597,1.6384 -5.879,2 -24.993,2 -22.03,0 -23.231,-0.13029 -21.503,-2.3333 1.6066,-2.0486 1.5782,-2.1374 -0.23326,-0.72762 -1.1348,0.88314 -6.8348,1.8124 -12.667,2.065 l -10.604,0.45929 11.079,0.26832 c 6.0933,0.14758 10.8,0.71833 10.458,1.2683 -0.34112,0.55 10.175,0.82343 23.37,0.60763 14.036,-0.22957 23.681,0.10697 23.246,0.81105 -0.4392,0.71064 1.8341,0.74478 5.5515,0.0834 3.4624,-0.61603 11.995,-1.6995 18.962,-2.4077 z m -154.98,1.6562 c -1.2748,-0.33373 -3.6748,-0.34583 -5.3333,-0.0269 -1.6585,0.31892 -0.61554,0.59197 2.3178,0.60677 2.93334,0.0148 4.2903,-0.24614 3.0155,-0.57986 z m 33.339,-1.7144 c 1.8684,-1.1362 1.6213,-1.2501 -1.2872,-0.59347 -1.9797,0.44697 -9.1797,1.3194 -16,1.9389 l -12.4,1.1262 13.688,-0.53271 c 7.5282,-0.29299 14.728,-1.1655 16,-1.9389 z M 53.334,100.627 c 0,-1.7495 -2.7486,-1.9838 -19.557,-1.6667 -14.19,0.26772 -19.709,0.82636 -20.111,2.0356 -0.42679,1.2842 4.0618,1.6667 19.557,1.6667 17.144,0 20.111,-0.30032 20.111,-2.0356 z m 63.711,-0.27591 c -3.4588,-0.27366 -9.4588,-0.2765 -13.333,-0.006 -3.8746,0.27014 -1.0447,0.49405 6.2886,0.49752 7.3333,0.003 10.503,-0.21759 7.0447,-0.49125 z m 135.62,-0.26039 c 3.3918,-0.68999 0.23686,-0.83745 -8.6667,-0.40507 -7.7,0.37393 -14.25,0.89673 -14.556,1.1618 -1.0773,0.93447 17.958,0.3142 23.222,-0.75671 z M 63.685,99.0799 c -1.2748,-0.33372 -3.6748,-0.34583 -5.3333,-0.02691 -1.6585,0.31892 -0.61555,0.59197 2.3178,0.60677 2.9333,0.0148 4.2903,-0.24614 3.0155,-0.57986 z m 18.651,-0.05518 c -2.75,-0.28766 -7.25,-0.28766 -10,0 -2.75,0.28766 -0.5,0.52302 5,0.52302 5.5,0 7.75,-0.23536 5,-0.52302 z m 199,211.56 c 0,-0.77661 0.6,-1.0412 1.3333,-0.58797 0.73333,0.45322 1.3333,1.0886 1.3333,1.412 0,0.32339 -0.6,0.58798 -1.3333,0.58798 -0.73334,0 -1.3333,-0.63542 -1.3333,-1.412 z m -239.32,-1.2394 c -0.46712,-0.75582 0.06808,-0.97934 1.2546,-0.52402 2.3099,0.88639 2.7325,1.8421 0.81461,1.8421 -0.69005,0 -1.6212,-0.59313 -2.0692,-1.3181 z"
       id="path36"
       inkscape:connector-curvature="0"
       style="fill:#9d909d" />
    <path
       d="m 62.88,308.33 c -0.20279,-4.1183 -0.47364,-4.3333 -5.4582,-4.3333 -4.698,0 -5.3027,0.38224 -5.8002,3.6667 l -0.55545,3.6667 -0.19978,-3.7366 c -0.19732,-3.6906 -0.29828,-3.733 -8.2031,-3.4478 -4.4018,0.15886 -8.4018,-0.10973 -8.8889,-0.59677 -0.48707,-0.48707 3.1144,-0.88559 8.0033,-0.88559 h 8.8889 v -30.667 h -19.333 c -12,0 -19.333,-0.50575 -19.333,-1.3333 0,-0.82758 7.3333,-1.3333 19.333,-1.3333 h 19.333 v -30.667 h -20 c -12.444,0 -20,-0.50371 -20,-1.3333 0,-0.82963 7.5556,-1.3333 20,-1.3333 h 20 v -30.667 h -20 c -12.444,0 -20,-0.50371 -20,-1.3333 0,-0.82962 7.5556,-1.3333 20,-1.3333 h 20 v -29.333 h -20 c -12.444,0 -20,-0.50371 -20,-1.3333 0,-0.82962 7.5556,-1.3333 20,-1.3333 h 20 v -33.333 h -20 c -12.444,0 -20,-0.50371 -20,-1.3333 0,-0.82962 7.5556,-1.3333 20,-1.3333 h 20 v -20 h -40 v -6.5972 l 20.333,-0.40548 20.333,-0.40548 -20.422,-0.29591 -20.422,-0.29592 0.42199,-31 c 0.41402,-30.415 0.48947,-31.144 3.9954,-38.624 4.1684,-8.8935 13.704,-19.587 21.568,-24.187 13.134,-7.6822 10.399,-7.5226 128.96,-7.5226 104.86,0 109.27,0.099271 117.51,2.643 11.016,3.4024 22.004,11.32 28.133,20.272 8.3164,12.146 9.2219,16.226 9.9333,44.753 l 0.64011,25.669 -4.9568,2.0711 c -3.0737,1.2843 -12.631,2.5551 -25.158,3.3451 -11.111,0.70073 -29.201,2.1586 -40.201,3.2398 -47.905,4.7084 -71.85,5.0827 -126,1.9698 -21.195,-1.2184 -25.605,-1.13 -31.333,0.62834 -3.6667,1.1255 -10.042,2.0528 -14.167,2.0608 -4.125,0.008 -9.375,0.38943 -11.667,0.84777 l -4.1667,0.83333 v 21 h 128.67 c 84.889,0 128.67,0.45365 128.67,1.3333 0,0.87965 -43.778,1.3333 -128.67,1.3333 h -128.67 v 33.333 h 128.67 c 84.889,0 128.67,0.45365 128.67,1.3333 0,0.87965 -43.778,1.3333 -128.67,1.3333 h -128.67 v 29.333 h 128.67 c 84.889,0 128.67,0.45365 128.67,1.3333 0,0.87965 -43.778,1.3333 -128.67,1.3333 h -128.67 v 30.667 h 128.67 c 84.889,0 128.67,0.45366 128.67,1.3333 0,0.87964 -43.778,1.3333 -128.67,1.3333 h -128.67 v 30.667 h 128.08 c 85.046,0 127.8,0.44797 127.25,1.3333 -0.54005,0.87382 -44.68,1.3333 -128.08,1.3333 h -127.25 v 30.652 l 117,0.34799 117,0.348 -116.92,0.32595 -116.92,0.32596 -0.53776,4.3333 -0.53776,4.3333 z m -0.21338,-21 v -15.333 h -10.667 v 30.667 h 10.667 z m 0,-33.333 v -15.333 h -10.667 v 30.667 h 10.667 z m 0,-33.333 v -15.333 h -10.667 v 30.667 h 10.667 z m 0,-32.667 V 173.33 h -10.667 v 29.333 h 10.667 z m 0,-34 V 137.33 h -10.667 v 33.333 h 10.667 z m 0,-30 V 113.33 h -10.667 v 21.333 h 10.667 z m 153.33,-21.239 12.667,-1.2877 -12,0.56743 c -6.6,0.31209 -15,0.97981 -18.667,1.4838 -6.0231,0.82792 -6.4962,0.70947 -4.9007,-1.227 0.97128,-1.1789 3.6713,-2.3821 6,-2.6738 l 4.234,-0.53036 -4.1701,-0.21338 c -2.3129,-0.11835 -4.9093,0.67735 -5.8299,1.7866 -1.3597,1.6384 -5.879,2 -24.993,2 -22.03,0 -23.231,-0.13029 -21.503,-2.3333 1.6066,-2.0486 1.5782,-2.1374 -0.23326,-0.72762 -1.1348,0.88314 -6.8348,1.8124 -12.667,2.065 l -10.604,0.45929 11.079,0.26832 c 6.0933,0.14758 10.8,0.71833 10.458,1.2683 -0.34112,0.55 10.175,0.82343 23.37,0.60763 14.036,-0.22957 23.681,0.10697 23.246,0.81105 -0.4392,0.71064 1.8341,0.74478 5.5515,0.0834 3.4624,-0.61603 11.995,-1.6995 18.962,-2.4077 z m -154.98,1.6562 c -1.2748,-0.33373 -3.6748,-0.34583 -5.3333,-0.0269 -1.6585,0.31892 -0.61554,0.59197 2.3178,0.60677 2.93334,0.0148 4.2903,-0.24614 3.0155,-0.57986 z m 33.339,-1.7144 c 1.8684,-1.1362 1.6213,-1.2501 -1.2872,-0.59347 -1.9797,0.44697 -9.1797,1.3194 -16,1.9389 l -12.4,1.1262 13.688,-0.53271 c 7.5282,-0.29299 14.728,-1.1655 16,-1.9389 z m -41.021,-2.0718 c 0,-1.7495 -2.7486,-1.9838 -19.557,-1.6667 -14.19,0.26772 -19.709,0.82636 -20.111,2.0356 -0.42679,1.2842 4.0618,1.6667 19.557,1.6667 17.144,0 20.111,-0.30032 20.111,-2.0356 z m 63.711,-0.27591 c -3.4588,-0.27366 -9.4588,-0.2765 -13.333,-0.006 -3.8746,0.27014 -1.0447,0.49405 6.2886,0.49752 7.3333,0.003 10.503,-0.21759 7.0447,-0.49125 z m 135.62,-0.26039 c 3.3918,-0.68999 0.23686,-0.83745 -8.6667,-0.40507 -7.7,0.37393 -14.25,0.89673 -14.556,1.1618 -1.0773,0.93447 17.958,0.3142 23.222,-0.75671 z m -188.98,-1.0108 c -1.2748,-0.33372 -3.6748,-0.34583 -5.3333,-0.02691 -1.6585,0.31892 -0.61555,0.59197 2.3178,0.60677 2.9333,0.0148 4.2903,-0.24614 3.0155,-0.57986 z m 18.651,-0.05518 c -2.75,-0.28766 -7.25,-0.28766 -10,0 -2.75,0.28766 -0.5,0.52302 5,0.52302 5.5,0 7.75,-0.23536 5,-0.52302 z"
       id="path38"
       inkscape:connector-curvature="0"
       style="fill:#d800d8" />
    <path
       d="m 62.88,308.33 c -0.20279,-4.1183 -0.47364,-4.3333 -5.4582,-4.3333 -4.698,0 -5.3027,0.38224 -5.8002,3.6667 l -0.55545,3.6667 -0.19978,-3.6058 c -0.19353,-3.4931 -0.481,-3.6203 -9.1998,-4.0722 l -9,-0.46644 9,-0.26115 9,-0.26115 v -30.667 h -19.333 c -12,0 -19.333,-0.50575 -19.333,-1.3333 0,-0.82758 7.3333,-1.3333 19.333,-1.3333 h 19.333 v -30.667 h -20 c -12.444,0 -20,-0.50371 -20,-1.3333 0,-0.82963 7.5556,-1.3333 20,-1.3333 h 20 v -30.667 h -20 c -12.444,0 -20,-0.50371 -20,-1.3333 0,-0.82962 7.5556,-1.3333 20,-1.3333 h 20 v -29.333 h -20 c -12.444,0 -20,-0.50371 -20,-1.3333 0,-0.82962 7.5556,-1.3333 20,-1.3333 h 20 v -33.333 h -20 c -12.444,0 -20,-0.50371 -20,-1.3333 0,-0.82962 7.5556,-1.3333 20,-1.3333 h 20 l 0.0019,-11 0.0019,-11 -16.8,0.44487 c -17.241,0.45656 -23.204,-0.1782 -23.204,-2.4703 0,-0.79288 7.4821,-1.316 19,-1.3284 19.215,-0.0207 21.667,-0.45835 21.667,-3.8685 0,-1.0389 0.70279,-2.1232 1.5618,-2.4095 0.99357,-0.33119 1.3008,0.47729 0.84449,2.2222 -0.60786,2.3245 -0.09837,2.7428 3.3406,2.7428 3.2203,0 4.4908,-0.86786 6.1555,-4.2048 1.1537,-2.3127 2.0977,-4.4127 2.0977,-4.6667 0,-1.3348 -9.2284,-0.21043 -9.8889,1.2049 -0.62222,1.3333 -0.93333,1.3333 -1.5556,0 -0.56998,-1.2214 -5.9632,-1.6667 -20.186,-1.6667 -16.898,0 -19.645,0.30177 -21.238,2.3333 -1.5633,1.9936 -1.7789,-1.9381 -1.4803,-27 0.34159,-28.677 0.42938,-29.504 3.9228,-36.957 4.1684,-8.8935 13.704,-19.587 21.568,-24.187 13.134,-7.6822 10.399,-7.5226 128.96,-7.5226 104.86,0 109.27,0.099271 117.51,2.643 11.016,3.4024 22.004,11.32 28.133,20.272 8.3053,12.13 9.2223,16.245 9.9292,44.554 l 0.63601,25.469 -12.012,2.1976 c -6.6065,1.2087 -17.626,2.2284 -24.487,2.266 -6.8616,0.0376 -16.676,0.60564 -21.809,1.2622 -9.3054,1.1902 -59.071,5.2937 -66.667,5.4972 -12.011,0.32176 -36.949,-0.32826 -65.021,-1.6948 -23.406,-1.1394 -32.989,-1.1532 -36.667,-0.0529 -2.7385,0.81931 -10.829,1.9 -17.979,2.4016 l -13,0.91189 v 23.606 h 128.67 c 84.889,0 128.67,0.45365 128.67,1.3333 0,0.87965 -43.778,1.3333 -128.67,1.3333 h -128.67 v 33.333 h 128.67 c 84.889,0 128.67,0.45365 128.67,1.3333 0,0.87965 -43.778,1.3333 -128.67,1.3333 h -128.67 v 29.333 h 128.67 c 84.889,0 128.67,0.45365 128.67,1.3333 0,0.87965 -43.778,1.3333 -128.67,1.3333 h -128.67 v 30.667 h 128.67 c 84.889,0 128.67,0.45366 128.67,1.3333 0,0.87964 -43.778,1.3333 -128.67,1.3333 h -128.67 v 30.667 h 128.08 c 85.046,0 127.8,0.44797 127.25,1.3333 -0.54005,0.87382 -44.68,1.3333 -128.08,1.3333 h -127.25 v 30.652 l 117,0.34799 117,0.348 -116.92,0.32595 -116.92,0.32596 -0.53776,4.3333 -0.53776,4.3333 z m -0.21338,-21 v -15.333 h -10.667 v 30.667 h 10.667 z m 0,-33.333 v -15.333 h -10.667 v 30.667 h 10.667 z m 0,-33.333 v -15.333 h -10.667 v 30.667 h 10.667 z m 0,-32.667 V 173.33 h -10.667 v 29.333 h 10.667 z m 0,-34 V 137.33 h -10.667 v 33.333 h 10.667 z m 0,-31.414 v -12.08 l -5,0.41383 -5,0.41382 -0.38524,11.667 -0.38524,11.667 h 10.77 z m 29.852,-18.197 c 5.6798,-1.7949 9.9673,-1.8638 33.333,-0.53569 28.472,1.6183 80.13,2.2216 86.815,1.0138 2.2,-0.39744 7.6,-0.78614 12,-0.86379 4.4,-0.0776 14.6,-1.0022 22.667,-2.0546 8.0667,-1.0524 16.767,-2.1292 19.333,-2.393 2.5667,-0.26375 -7.9125,-0.53805 -23.287,-0.60955 -19.845,-0.09229 -28.525,0.33171 -29.923,1.4617 -1.5463,1.2501 -1.7527,1.2319 -0.9615,-0.0848 0.8042,-1.3384 -13.572,-1.6677 -71.288,-1.6333 -66.859,0.03995 -72.427,0.21616 -74.042,2.3431 -3.711,4.8861 -2.3492,5.7823 8.5017,5.5946 5.6833,-0.0983 13.267,-1.1057 16.852,-2.2386 z m 185.82,-5.3085 c -1.2833,-0.33537 -3.3833,-0.33537 -4.6667,0 -1.2833,0.33537 -0.23334,0.60976 2.3333,0.60976 2.56664,0 3.6167,-0.27439 2.3333,-0.60976 z"
       id="path40"
       inkscape:connector-curvature="0"
       style="fill:#c800c8" />
    <path
       d="m 62.88,308.33 c -0.20279,-4.1183 -0.47364,-4.3333 -5.4582,-4.3333 -4.698,0 -5.3027,0.38224 -5.8002,3.6667 l -0.55545,3.6667 -0.19978,-3.6058 c -0.19353,-3.4931 -0.481,-3.6203 -9.1998,-4.0722 l -9,-0.46644 9,-0.26115 9,-0.26115 v -30.667 h -19.333 c -12,0 -19.333,-0.50575 -19.333,-1.3333 0,-0.82758 7.3333,-1.3333 19.333,-1.3333 h 19.333 v -30.667 h -20 c -12.444,0 -20,-0.50371 -20,-1.3333 0,-0.82963 7.5556,-1.3333 20,-1.3333 h 20 v -30.667 h -20 c -12.444,0 -20,-0.50371 -20,-1.3333 0,-0.82962 7.5556,-1.3333 20,-1.3333 h 20 v -29.333 h -20 c -12.444,0 -20,-0.50371 -20,-1.3333 0,-0.82962 7.5556,-1.3333 20,-1.3333 h 20 v -33.333 h -20 c -12.444,0 -20,-0.50371 -20,-1.3333 0,-0.82962 7.5556,-1.3333 20,-1.3333 h 20 l 0.0019,-11.667 0.0019,-11.667 -17.002,0.42377 c -9.3886,0.23402 -18.494,-0.17592 -20.335,-0.91548 -2.4973,-1.0034 1.0485,-1.3605 14.138,-1.4238 9.6091,-0.0465 21.158,-0.46984 25.664,-0.9408 7.4043,-0.77391 8.3852,-1.2426 10.196,-4.8715 1.1017,-2.2084 2.0031,-4.223 2.0031,-4.477 0,-1.3348 -9.2284,-0.21043 -9.8889,1.2049 -0.62222,1.3333 -0.93333,1.3333 -1.5556,0 -0.57466,-1.2314 -6.3456,-1.6667 -22.098,-1.6667 h -21.321 l 0.43161,-27 c 0.41645,-26.052 0.55712,-27.268 4.005,-34.624 4.1684,-8.8935 13.704,-19.587 21.568,-24.187 13.134,-7.6822 10.399,-7.5226 128.96,-7.5226 104.86,0 109.27,0.099271 117.51,2.643 11.016,3.4024 22.004,11.32 28.133,20.272 8.3086,12.135 9.2222,16.239 9.9304,44.612 l 0.63721,25.528 -7.1552,0.72788 c -3.9354,0.40034 -18.752,1.3564 -32.926,2.1246 -14.174,0.76818 -26.265,1.7023 -26.869,2.0758 -0.60438,0.37353 -12.408,1.6189 -26.23,2.7676 -29.665,2.4652 -58.147,2.5693 -98.67,0.36059 -22.358,-1.2186 -30.786,-1.2371 -34.667,-0.0759 -2.8202,0.84384 -10.978,1.9446 -18.128,2.4461 l -13,0.9119 v 24.94 h 128.66997 c 84.889,0 128.67,0.45365 128.67,1.3333 0,0.87965 -43.778,1.3333 -128.67,1.3333 H 64.000956 v 33.333 H 192.67096 c 84.889,0 128.67,0.45365 128.67,1.3333 0,0.87965 -43.778,1.3333 -128.67,1.3333 H 64.000956 v 29.333 H 192.67096 c 84.889,0 128.67,0.45365 128.67,1.3333 0,0.87965 -43.778,1.3333 -128.67,1.3333 H 64.000956 v 30.667 H 192.67096 c 84.889,0 128.67,0.45366 128.67,1.3333 0,0.87964 -43.778,1.3333 -128.67,1.3333 H 64.000956 v 30.667 H 192.08096 c 85.046,0 127.8,0.44797 127.25,1.3333 -0.54005,0.87382 -44.68,1.3333 -128.08,1.3333 H 64.000956 v 30.652 l 117.000004,0.34799 117,0.348 -116.92,0.32595 -116.920004,0.32596 -0.53776,4.3333 -0.53776,4.3333 z m -0.21338,-21 v -15.333 h -10.667 v 30.667 h 10.667 z m 0,-33.333 v -15.333 h -10.667 v 30.667 h 10.667 z m 0,-33.333 v -15.333 h -10.667 v 30.667 h 10.667 z m 0,-32.667 V 173.33 h -10.667 v 29.333 h 10.667 z m 0,-34 V 137.33 h -10.667 v 33.333 h 10.667 z m 0,-32.08 V 109.17 l -5,0.41382 -5,0.41382 -0.38337,12.333 -0.38337,12.333 h 10.767 z m 31.21,-17.438 c 4.4424,-1.6722 8.6519,-1.7388 28.576,-0.45223 49.19,3.1765 90.955,2.4944 129.55,-2.1156 9.1667,-1.095 21.167,-2.1543 26.667,-2.354 5.5,-0.1997 -39.549,-0.48232 -100.11,-0.62803 l -110.11,-0.26493 -1.8291,3.6667 c -1.006,2.0167 -2.0192,4.0785 -2.2515,4.5818 -0.75581,1.6373 24.148,-0.4168 29.507,-2.4337 z m -42.543,0.85191 c 0.45323,-0.73334 1.0886,-1.3333 1.412,-1.3333 0.3234,0 0.58798,0.6 0.58798,1.3333 0,0.73333 -0.63541,1.3333 -1.412,1.3333 -0.77659,0 -1.0412,-0.6 -0.58798,-1.3333 z"
       id="path42"
       inkscape:connector-curvature="0"
       style="fill:#b500b5" />
    <path
       d="m 50.866,307.73 c -0.19156,-3.4548 -0.54266,-3.6225 -8.5331,-4.0764 l -8.3333,-0.47338 8.3333,-0.25691 8.3333,-0.25691 v -30.667 h -19.333 c -12,0 -19.333,-0.50575 -19.333,-1.3333 0,-0.82758 7.3333,-1.3333 19.333,-1.3333 h 19.333 v -30.667 h -20 c -12.444,0 -20,-0.50371 -20,-1.3333 0,-0.82963 7.5556,-1.3333 20,-1.3333 h 20 v -30.667 h -20 c -12.444,0 -20,-0.50371 -20,-1.3333 0,-0.82962 7.5556,-1.3333 20,-1.3333 h 20 v -29.333 h -20 c -12.444,0 -20,-0.50371 -20,-1.3333 0,-0.82962 7.5556,-1.3333 20,-1.3333 h 20 v -33.333 h -20 c -12.444,0 -20,-0.50371 -20,-1.3333 0,-0.82962 7.5556,-1.3333 20,-1.3333 h 20 v -13.333 c 0,-7.3333 0.45,-13.335 1,-13.336 0.55,-0.002 0.81015,5.9984 0.57812,13.333 l -0.42189,13.336 h 134.09 c 88.503,0 134.09,0.45328 134.09,1.3333 0,0.88004 -45.556,1.3333 -134,1.3333 h -134 v 33.333 h 134 c 88.444,0 134,0.45329 134,1.3333 0,0.88001 -45.556,1.3333 -134,1.3333 h -134 v 29.333 h 134 c 88.444,0 134,0.45329 134,1.3333 0,0.88001 -45.556,1.3333 -134,1.3333 h -134 v 30.667 h 134 c 88.444,0 134,0.4533 134,1.3333 0,0.88 -45.556,1.3333 -134,1.3333 h -134 v 30.667 h 133.33 c 88,0 133.33,0.45333 133.33,1.3333 0,0.87997 -45.333,1.3333 -133.33,1.3333 h -133.33 v 30.653 l 122.33,0.34738 122.33,0.34738 -122.24,0.32627 -122.24,0.32627 -0.55546,3.6667 -0.55545,3.6667 z M 62.477,110.94 c -0.39082,-2.4531 0.08512,-5.9053 1.078,-7.8191 2.3687,-4.5656 2.4403,-4.4551 -2.8889,-4.4551 -2.7407,0 -4.6667,0.66032 -4.6667,1.6 0,1.2444 -0.35556,1.2444 -1.6,0 -1.1101,-1.1101 -8.0811,-1.6 -22.765,-1.6 h -21.165 l 0.43161,-27 c 0.41645,-26.052 0.55712,-27.268 4.005,-34.624 4.1684,-8.8935 13.704,-19.587 21.568,-24.187 13.134,-7.6822 10.399,-7.5226 128.96,-7.5226 104.86,0 109.27,0.099271 117.51,2.643 11.016,3.4024 22.004,11.32 28.133,20.272 8.3162,12.146 9.2219,16.226 9.9333,44.751 l 0.64007,25.667 -9.8247,0.01419 c -5.4036,0.0077 -62.37,0.0015 -126.59,-0.01397 l -116.77,-0.02816 -1.7693,3.3059 c -0.97311,1.8183 -2.163,5.5746 -2.6441,8.3473 l -0.87481,5.0414 z m -42.811,-1.2572 c 3.85,-0.26934 10.15,-0.26934 14,0 3.85,0.26934 0.7,0.4897 -7,0.4897 -7.7,0 -10.85,-0.22036 -7,-0.4897 z m 58,-2.6028 c 1.2833,-0.33537 3.3833,-0.33537 4.6667,0 1.2833,0.33537 0.23333,0.60976 -2.3333,0.60976 -2.56663,0 -3.6167,-0.27439 -2.3333,-0.60976 z m 66.692,-1.3382 c 1.2973,-0.33806 3.0973,-0.31582 4,0.0494 0.9027,0.36523 -0.15871,0.64182 -2.3587,0.61465 -2.2,-0.0272 -2.9386,-0.326 -1.6413,-0.66405 z m 28.641,-0.017 c 1.65,-0.3178 4.35,-0.3178 6,0 1.65,0.31781 0.3,0.57783 -3,0.57783 -3.3,0 -4.65,-0.26002 -3,-0.57783 z m 34.667,0.0579 c 0.91666,-0.36988 2.4167,-0.36988 3.3333,0 0.91667,0.36989 0.16667,0.67252 -1.6667,0.67252 -1.8333,0 -2.5833,-0.30263 -1.6667,-0.67252 z m -85.333,-1.3333 c 0.91667,-0.36988 2.4167,-0.36988 3.3333,0 0.91666,0.36989 0.16666,0.67252 -1.6667,0.67252 -1.83336,0 -2.5833,-0.30263 -1.6667,-0.67252 z m 102.75,-0.0278 c 0.9625,-0.38516 2.1125,-0.33779 2.5556,0.10526 0.44306,0.44306 -0.34445,0.75819 -1.75,0.7003 -1.5533,-0.064 -1.8692,-0.37992 -0.80556,-0.80556 z m -124.72,-1.3465 c 1.2973,-0.33805 3.0973,-0.31582 4,0.0494 0.90271,0.36524 -0.15871,0.64183 -2.3587,0.61466 -2.2,-0.0272 -2.9386,-0.326 -1.6413,-0.66406 z m 167.39,-2.6534 c 0.96249,-0.38516 2.1125,-0.3378 2.5556,0.10526 0.44305,0.44306 -0.34445,0.75819 -1.75,0.7003 -1.5533,-0.064 -1.8692,-0.37992 -0.80556,-0.80556 z"
       id="path44"
       inkscape:connector-curvature="0"
       style="fill:#a500a5" />
    <path
       d="m 51.301,209.33 c 0,-56.1 0.16447,-79.05 0.3655,-51 0.20102,28.05 0.20102,73.95 0,102 -0.20102,28.05 -0.3655,5.1 -0.3655,-51 z M 10.902,71.66 c 0.41562,-26 0.563,-27.28 3.9788,-34.567 4.2076,-8.9757 12.267,-18.086 20.901,-23.627 12.835,-8.236 11.296,-8.1399 130.36,-8.1399 104.16,0 108.57,0.099865 116.8,2.643 11.016,3.4024 22.004,11.32 28.133,20.272 8.3162,12.146 9.2219,16.226 9.9333,44.751 l 0.64007,25.667 h -311.18 z"
       id="path46"
       inkscape:connector-curvature="0"
       style="fill:#860f86" />
    <path
       d="m 51.301,209.33 c 0,-56.1 0.16447,-79.05 0.3655,-51 0.20102,28.05 0.20102,73.95 0,102 -0.20102,28.05 -0.3655,5.1 -0.3655,-51 z M 10.667,74.8 c 0,-20.056 0.42155,-25.21 2.6447,-32.333 4.6478,-14.892 16.287,-27.163 31.646,-33.362 l 7.7097,-3.1119 108,-0.40571 c 115.26,-0.43299 117.92,-0.30928 131.02,6.0935 8.9017,4.3514 19.414,15.413 24.051,25.309 3.4398,7.3399 3.6232,8.8328 4.2612,34.672 l 0.66667,27.002 -155,-0.0021 -155,-0.0022 z"
       id="path48"
       inkscape:connector-curvature="0"
       style="fill:#770077" />
    <path
       d="M 10.879,72.333 11.3329,46 15.5904,37.0123 c 7.8351,-16.54 22.367,-27.432 40.409,-30.287 10.864,-1.7193 206.53,-1.8398 218.32,-0.13441 17.799,2.5743 32.9,13.424 40.689,29.234 l 4.3217,8.7715 0.43162,27.035 0.43161,27.035 h -309.77 z"
       id="path50"
       inkscape:connector-curvature="0"
       style="fill:#600060" />
    <path
       d="M 10.951,73 C 11.56789,43.115 13.2198,36.864 23.528,25.398 l 6.0519,-6.7312 h 272.88 l 4.8079,5.617 c 2.6444,3.0893 6.4312,8.9393 8.4152,13 3.4963,7.1558 3.6219,8.2142 4.0812,34.383 l 0.47383,27 h -309.82 z"
       id="path52"
       inkscape:connector-curvature="0"
       style="fill:#5b005b" />
    <path
       d="m 10.954,73 c 0.44759,-21.567 0.953,-26.731 3.1644,-32.333 l 2.6317,-6.6667 148.36,-0.33914 148.36,-0.33914 2.9276,6.3391 c 2.6422,5.7211 2.9699,8.9063 3.361,32.672 l 0.43341,26.333 h -309.78 z"
       id="path54"
       inkscape:connector-curvature="0"
       style="fill:#520052" />
    <path
       d="m 10.667,76.776 c 0,-12.04 0.36419,-22.84 0.80932,-24 0.73152,-1.9063 15.599,-2.109 154.67,-2.109 h 153.86 v 48 h -309.33 z"
       id="path56"
       inkscape:connector-curvature="0"
       style="fill:#4b004b" />
    <path
       d="M 10.667,81.333 V 64 h 309.33 V 98.667 H 10.667 Z"
       id="path58"
       inkscape:connector-curvature="0"
       style="fill:#430043" />
    <path
       d="m 10.667,89.333 v -9.3333 h 309.33 v 18.667 H 10.667 Z"
       id="path60"
       inkscape:connector-curvature="0"
       style="fill:#3c003c" />
    <path
       d="m 10.667,96 c 0,-2.6513 0.88889,-2.6667 154.67,-2.6667 153.78,0 154.67,0.01532 154.67,2.6667 0,2.6513 -0.88889,2.6667 -154.67,2.6667 -153.78,0 -154.67,-0.01533 -154.67,-2.6667 z"
       id="path62"
       inkscape:connector-curvature="0"
       style="fill:#360036" />
  </g>
</svg>
