<?xml version="1.0" encoding="UTF-8"?>
<svg width="364" height="364" version="1.1" viewBox="0 0 364 364" xmlns="http://www.w3.org/2000/svg">
 <g transform="translate(18.237 -2.2373)">
  <path d="m74.633 368.93c-20.817-2.2598-37.881-12.004-47.776-27.282-4.8413-7.4752-7.387-14.309-10.67-28.646l-2.6339-11.5-0.29938-123.47c-0.33067-136.37-0.46628-133.02 5.9107-146.03 4.1796-8.5282 13.308-17.656 21.836-21.836 12.818-6.2819 12.48-6.265 118.59-5.9144l95.911 0.31692 13.745 3.6596c7.7988 2.0764 16.677 5.2001 20.522 7.2205 18.09 9.5059 29.297 26.607 32.3 49.287 0.67254 5.0796 0.9114 49.629 0.6904 128.77-0.30962 110.87-0.48268 121.54-2.0679 127.5-2.4635 9.256-4.146 13.189-8.7834 20.532-5.4276 8.5941-13.636 15.766-23.406 20.45-16.066 7.7031-10.944 7.362-114 7.5934-50.6 0.11363-95.54-0.17769-99.867-0.64739z" fill="#f3f3f3"/>
  <path d="m73.925 365.04c-13.494-1.7853-25.294-7.0699-34.731-15.554-7.2601-6.5274-10.498-11.572-16.785-26.151-9.773-22.663-8.9088-8.2735-8.9088-148.33 0-114.86 0.12437-124.03 1.7783-131.07 4.3376-18.466 19.166-33.311 37.595-37.639 7.0494-1.6552 14.853-1.7907 103.13-1.7907 110.18 0 99.921-0.88498 123.62 10.659 13.106 6.3843 15.678 8.0574 21.57 14.032 4.4467 4.5089 7.8924 9.2183 10.277 14.046 7.4913 15.167 6.9365 4.4469 7.2798 140.67 0.26688 105.91 0.10382 123.59-1.2102 131.2-4.1368 23.971-19.16 40.944-42.535 48.054l-7.5 2.2813-94 0.16731c-51.7 0.092-96.509-0.16462-99.575-0.57031z" fill="#e6edf4"/>
  <path d="m73.925 365.04c-7.8564-1.0394-18.548-4.499-24.44-7.9086-6.5292-3.7782-14.773-11.235-18.65-16.869-3.4877-5.0692-10.924-21.838-10.065-22.697 0.30968-0.30968-0.036949-0.56305-0.77028-0.56305s-1.0513-0.28205-0.70655-0.62678c0.34473-0.34474-3.01e-4 -1.8394-0.76674-3.3216-0.76644-1.4821-2.1134-6.2626-2.9932-10.623-1.4248-7.0618-1.5679-21.483-1.3088-131.93 0.27492-117.19 0.39168-124.3 2.1266-129.5 5.5651-16.674 17.688-28.624 34.149-33.663 5.6489-1.7292 11.764-1.8367 104.5-1.8367 78.654 0 99.507 0.26728 103.5 1.3266 7.4822 1.9852 28.63 11.489 35.055 15.754 10.163 6.746 18.773 19.208 23.249 33.651 1.4652 4.7279 1.6643 17.826 1.9411 127.67 0.26688 105.91 0.10382 123.59-1.2102 131.2-4.1368 23.971-19.16 40.944-42.535 48.054l-7.5 2.2813-94 0.16731c-51.7 0.092-96.509-0.16462-99.575-0.57031z" fill="#ebebeb"/>
  <path d="m75.81 362.98c-15.539-1.8732-27.007-7.1701-36.81-17.003-8.8803-8.907-21.101-31.542-23.475-43.48-1.4129-7.1049-1.5584-21.874-1.3-132 0.27492-117.19 0.39168-124.3 2.1266-129.5 5.5651-16.674 17.688-28.624 34.149-33.663 5.6498-1.7295 11.779-1.8367 105-1.8367h99l7 2.2081c3.85 1.2144 9.7 3.8585 13 5.8757s8.25 5.0054 11 6.6404c13.874 8.2489 23.087 18.997 27.386 31.95 4.077 12.284 4.2219 17.563 3.892 141.83-0.29483 111.04-0.44304 119.92-2.0948 125.5-6.6302 22.38-20.763 36.242-43.049 42.224-5.4548 1.464-16.268 1.6696-97.634 1.8562-50.325 0.11542-94.51-0.15303-98.19-0.59656z" fill="#e3e3e3"/>
  <path d="m74.156 360.95c-13.07-1.7399-24.216-6.9019-33.014-15.29-6.4879-6.1857-21.679-29.539-24.37-37.462l-2.2725-6.6928-0.27661-123.45c-0.29551-131.88-0.29499-131.9 4.5591-143.05 4.4409-10.205 15.022-20.785 25.218-25.214 10.748-4.6692 13.463-4.7857 111.5-4.7857 100.95 0 101.93 0.04998 113.35 5.7771 8.7033 4.3668 28.613 19.602 33.281 25.468 4.749 5.9671 8.9587 14.684 10.989 22.755 2.0316 8.0772 2.0543 250.79 0.0242 259-5.1009 20.64-19.545 35.438-40.675 41.673-5.4866 1.6189-13.432 1.7745-98.965 1.9382-51.15 0.0979-95.855-0.202-99.344-0.66645z" fill="#dbdbdb"/>
  <path d="m69.5 358.52c-19.103-4.3208-27.029-10.776-46.213-37.638-2.3171-3.2444-5.2421-8.9321-6.5-12.639l-2.2871-6.7402-0.27661-123.45c-0.29551-131.88-0.29499-131.9 4.5591-143.05 4.4409-10.205 15.022-20.785 25.218-25.214 10.748-4.6692 13.463-4.7857 111.5-4.7857 102.02 0 102.03 5.407e-4 114.14 6.2288 6.3195 3.2494 19.577 13.962 28.438 22.98 5.68 5.7804 11.298 16.235 13.651 25.405 1.6419 6.3979 1.7673 15.44 1.7673 127.39 0 134.22 0.23057 129.31-6.7311 143.22-6.6573 13.301-17.428 22.313-32.769 27.418-5.1598 1.717-11.468 1.8427-102 2.0326-78.215 0.16407-97.637-0.0547-102.5-1.1547z" fill="#cad9e7"/>
  <path d="m69.5 358.52c-8.856-2.0031-13.942-4.0398-19.779-7.9201-6.7112-4.4616-9.7216-7.6726-19.779-21.097-8.8795-11.852-10.943-15.717-13.676-25.61-1.643-5.9476-1.7652-14.945-1.7652-129.89 0-136.42-0.34393-128.64 6.2768-141.99 3.4909-7.038 13.195-16.742 20.233-20.233 13.154-6.5243 8.6391-6.2768 114.49-6.2768 105.6 0 100.97-0.24929 114.02 6.141 5.8361 2.8576 21.079 14.892 28.585 22.568 5.6676 5.7958 11.282 16.262 13.628 25.405 1.6419 6.3979 1.7673 15.44 1.7673 127.39 0 134.22 0.23057 129.31-6.7311 143.22-6.6573 13.301-17.428 22.313-32.769 27.418-5.1598 1.717-11.468 1.8427-102 2.0326-78.215 0.16407-97.637-0.0547-102.5-1.1547z" fill="#d4d3d3"/>
  <path d="m76.335 358c-9.4945-1.0347-19.166-4.3504-25.907-8.8815-6.1812-4.1551-22.489-21.422-27.273-28.877-4.5433-7.0801-7.0892-15.342-8.2408-26.742-0.63934-6.3293-0.88744-52.947-0.67589-127 0.3682-128.89-0.002666-121.27 6.543-134.49 3.4847-7.0381 13.19-16.743 20.228-20.228 12.892-6.3832 8.8355-6.1329 105.99-6.5402 93.724-0.39294 106.28 0.023234 116.57 3.8647 9.2114 3.4383 13.601 6.6409 26.33 19.21 12.727 12.568 16.564 18.329 19.768 29.684 1.7339 6.1447 1.8342 13.251 1.8342 130 0 100.73-0.25061 124.51-1.3592 129-4.8831 19.759-18.375 33.583-38.641 39.593-5.5362 1.6419-13.034 1.7952-97 1.9836-50.05 0.11229-94.224-0.14722-98.165-0.5767zm177.02-43.892c2.1201-0.69289 5.832-3.0824 8.2487-5.3101 8.1687-7.5296 7.6915-0.52216 8.1248-119.3 0.21069-57.75-0.0108-113.15-0.49218-123.1-0.82355-17.035-1.0338-18.375-3.5595-22.685-3.0086-5.1337-6.285-7.7767-12.177-9.8222-5.8577-2.0338-191.09-2.0648-196.84-0.032947-5.3046 1.875-10.605 6.7961-13.081 12.144-2.0686 4.4685-2.0852 5.3296-2.368 123-0.19143 79.649 0.06194 120.79 0.7728 125.5 1.9855 13.141 8.8973 19.209 23.39 20.533 4.4671 0.40822 47.722 0.65046 96.122 0.53831 67.598-0.15663 88.894-0.49598 91.855-1.4637z" fill="#b5cbe2"/>
  <path d="m76.335 358c-16.274-1.7735-26.869-7.5462-39.991-21.789-9.9218-10.769-15.644-19.422-18.609-28.139l-2.2352-6.5721-0.27264-124.21c-0.2971-135.35-0.41086-132.27 5.3113-143.96 5.5886-11.423 17.848-21.562 30.182-24.963 6.408-1.7666 12.168-1.8689 105.28-1.8689h98.5l7.1087 2.33c9.6959 3.178 16.766 8.1279 29.385 20.573 11.569 11.41 15.538 17.488 18.672 28.597 1.7339 6.1447 1.8342 13.251 1.8342 130 0 100.73-0.25061 124.51-1.3592 129-4.8831 19.759-18.375 33.583-38.641 39.593-5.5362 1.6419-13.034 1.7952-97 1.9836-50.05 0.11229-94.224-0.14722-98.165-0.5767zm177.02-43.892c2.1201-0.69289 5.832-3.0824 8.2487-5.3101 8.1687-7.5296 7.6915-0.52216 8.1248-119.3 0.21069-57.75-0.0108-113.15-0.49218-123.1-0.82355-17.035-1.0338-18.375-3.5595-22.685-3.0086-5.1337-6.285-7.7767-12.177-9.8222-5.8577-2.0338-191.09-2.0648-196.84-0.032947-5.3046 1.875-10.605 6.7961-13.081 12.144-2.0686 4.4685-2.0852 5.3296-2.368 123-0.19143 79.649 0.06194 120.79 0.7728 125.5 1.9855 13.141 8.8973 19.209 23.39 20.533 4.4671 0.40822 47.722 0.65046 96.122 0.53831 67.598-0.15663 88.894-0.49598 91.855-1.4637z" fill="#c7cbd0"/>
  <path d="m73.381 357c-7.708-1.1294-17.299-4.6744-22.744-8.4067-7.7365-5.3029-26.035-25.621-29.585-32.851-6.1982-12.622-6.0178-8.3733-6.0178-141.74 0-131.95-0.10782-129.2 5.507-140.67 5.5856-11.416 17.848-21.557 30.179-24.956 6.4091-1.7669 12.179-1.8689 105.78-1.8689h99l6.5 2.3141c3.575 1.2728 8.975 3.912 12 5.8649 8.3029 5.3604 26.323 24.5 30.413 32.304 6.7855 12.945 6.5886 8.6982 6.5694 141.72-0.0192 132.37 0.20854 127.37-6.4063 140.79-4.53 9.1923-12.876 17.538-22.112 22.109-12.77 6.3217-12.935 6.3307-113.46 6.2309-49.775-0.0494-92.803-0.42738-95.619-0.8399zm183.21-43.692c5.1231-2.7414 9.783-7.9757 11.549-12.973 1.1131-3.149 1.3559-25.946 1.3559-127.34v-123.5l-2.3827-4.8399c-2.6704-5.4243-8.2539-10.005-14.521-11.913-5.9409-1.8088-188.25-1.808-194.19 8.3e-4 -8.1543 2.4825-13.885 8.0548-16.592 16.134-1.5412 4.5988-2.4095 222.63-0.9553 239.86 1.0613 12.572 3.393 18.165 9.3394 22.399 6.7143 4.781 6.3371 4.765 107.31 4.5578l95-0.19497z" fill="#c7c7c7"/>
  <path d="m69.601 354.36c-12.447-2.6687-21.94-8.9457-39.136-25.877-7.125-7.0154-11.785-15.691-13.955-25.981-2.2121-10.49-2.2095-246.54 0.00287-256.98 2.8229-13.327 10.294-24.196 21.707-31.579 11.973-7.7456 7.1152-7.4387 117.78-7.4387h98.5l7.2452 2.3739c9.1335 2.9926 19.385 10.011 25.014 17.126 2.3933 3.025 6.464 8.1151 9.0461 11.311 6.2544 7.7422 9.7066 14.62 11.889 23.689 1.6883 7.0138 1.8053 15.214 1.8053 126.5 0 94.823-0.27056 120.46-1.3317 126.2-3.9032 21.099-18.766 36.382-39.668 40.79-10.407 2.1948-188.6 2.0772-198.9-0.13122zm186.99-41.049c5.1231-2.7414 9.783-7.9757 11.549-12.973 1.1131-3.149 1.3559-25.946 1.3559-127.34v-123.5l-2.3827-4.8399c-2.6704-5.4243-8.2539-10.005-14.521-11.913-5.9409-1.8088-188.25-1.808-194.19 8.3e-4 -8.1543 2.4825-13.885 8.0548-16.592 16.134-1.5412 4.5988-2.4095 222.63-0.9553 239.86 1.0613 12.572 3.393 18.165 9.3394 22.399 6.7143 4.781 6.3371 4.765 107.31 4.5578l95-0.19497z" fill="#b5c1ce"/>
  <path d="m69.601 354.36c-9.6532-2.0697-17.153-6.1573-26.778-14.595-18.212-15.965-23.358-23.252-26.312-37.263-2.2121-10.49-2.2095-246.54 0.00287-256.98 3.7049-17.491 15.733-31.037 32.738-36.872 6.1926-2.1248 7.0968-2.1464 101.75-2.4306 61.886-0.1858 97.837 0.075137 102.14 0.74133 13.977 2.164 24.672 8.4923 33.984 20.109 2.8371 3.5392 6.9421 8.4599 9.1222 10.935 5.0427 5.7249 9.3044 14.143 11.518 22.75 1.6001 6.2232 1.7356 16.077 1.7356 126.25 0 95.239-0.27036 120.96-1.3317 126.7-3.9032 21.099-18.766 36.382-39.668 40.79-10.407 2.1948-188.6 2.0772-198.9-0.13122zm183.52-39.168c8.0771-2.7036 13.652-8.4359 16.134-16.591 1.8938-6.2206 1.806-241.93-0.0928-249.31-1.757-6.8306-7.5913-13.517-13.928-15.962-4.4625-1.7219-10.168-1.8257-100.3-1.8257h-95.571l-5.896 3.0153c-7.0229 3.5917-10.9 9.0619-12.478 17.608-0.69165 3.744-0.94618 45.689-0.76157 125.5 0.26129 112.96 0.38114 120.11 2.078 123.88 3.9066 8.6781 10.535 13.223 21.199 14.536 10.657 1.3125 185.5 0.53212 189.62-0.84631z" fill="#abc"/>
  <path d="m69.5 354.35c-10.63-2.257-18.835-7.3514-32.322-20.069-12.831-12.099-17.511-19.078-20.306-30.282-2.0459-8.2005-2.0312-251.89 0.015643-260 4.4973-17.823 18.289-31.615 36.112-36.112 4.5046-1.1366 23.145-1.3878 103-1.3878 107.44 0 101.53-0.31953 114.35 6.1763 8.0656 4.0871 27.55 25.235 32.775 35.574 6.6809 13.219 6.3772 6.6125 6.3772 138.75 0 95.239-0.27036 120.96-1.3317 126.7-3.9032 21.099-18.766 36.382-39.668 40.79-10.434 2.2004-188.57 2.0765-199-0.1384zm186.5-39.94c5.7294-2.6607 11.521-9.0699 13.196-14.604 1.0412-3.4393 1.3038-28.979 1.3038-126.81v-122.5l-2.8592-5.8228c-3.4412-7.0082-8.6413-11.12-15.992-12.646-3.5712-0.74137-34.707-0.99432-99.177-0.80572-93.378 0.27317-94 0.28829-98.472 2.3949-5.3939 2.5411-9.255 6.4627-11.697 11.88-1.7006 3.7728-1.8184 10.902-2.0726 125.5-0.18591 83.794 0.06412 123.1 0.80572 126.68 1.9914 9.5923 8.9843 16.22 19.308 18.299 2.2859 0.4604 46.231 0.76723 97.656 0.68185 92.573-0.1537 93.545-0.17597 98-2.245z" fill="#b8b8b8"/>
  <path d="m78.459 353.04c-10.648-0.97236-20.17-4.2589-27.211-9.3916-3.1618-2.305-8.0499-5.6507-10.863-7.435-7.1317-4.524-15.616-13.732-19.138-20.77-6.0001-11.99-5.748-5.7854-5.748-141.44 0-102.88 0.24095-125.45 1.3878-130 4.4973-17.823 18.289-31.615 36.112-36.112 4.5046-1.1366 23.145-1.3878 103-1.3878 91.812 0 97.848 0.10724 103.46 1.8382 12.751 3.9345 23.184 11.65 29.643 21.924 1.8113 2.8808 5.2852 8.3364 7.7198 12.124 5.4017 8.4028 7.918 15.314 9.2567 25.422 0.65939 4.9792 0.89873 49.306 0.67868 125.69-0.37207 129.16-0.071 122.69-6.2814 134.96-3.3886 6.6975-12.186 15.344-19.259 18.928-12.04 6.101-9.371 5.9459-106.22 6.1727-48.675 0.11401-92.118-0.12311-96.541-0.52695zm177.54-38.627c5.7294-2.6607 11.521-9.0699 13.196-14.604 1.0412-3.4393 1.3038-28.979 1.3038-126.81v-122.5l-2.8592-5.8228c-3.4412-7.0082-8.6413-11.12-15.992-12.646-3.5712-0.74137-34.707-0.99432-99.177-0.80572-93.378 0.27317-94 0.28829-98.472 2.3949-5.3939 2.5411-9.255 6.4627-11.697 11.88-1.7006 3.7728-1.8184 10.902-2.0726 125.5-0.18591 83.794 0.06412 123.1 0.80572 126.68 1.9914 9.5923 8.9843 16.22 19.308 18.299 2.2859 0.4604 46.231 0.76723 97.656 0.68185 92.573-0.1537 93.545-0.17597 98-2.245z" fill="#9bb1c8"/>
  <path d="m78.459 353.04c-11.624-1.0615-20.228-4.2622-29.252-10.882-4.2392-3.1099-9.6674-6.9859-12.063-8.6133-9.3985-6.3853-17.189-18.119-20.277-30.541-1.1196-4.5033-1.3674-27.971-1.3674-129.5 0-117.22 0.1002-124.36 1.8338-130.5 2.5815-9.1504 6.2914-15.573 12.692-21.974 6.4007-6.4007 12.824-10.111 21.974-12.692 6.0985-1.7205 12.43-1.8338 102.5-1.8338 104.28 0 102.28-0.098584 114 5.61 9.3702 4.5622 14.673 9.8466 24.05 23.966 9.4737 14.265 11.998 20.185 13.527 31.732 0.65939 4.9792 0.89873 49.306 0.67868 125.69-0.37207 129.16-0.071 122.69-6.2814 134.96-3.3886 6.6975-12.186 15.344-19.259 18.928-12.04 6.101-9.371 5.9459-106.22 6.1727-48.675 0.11401-92.118-0.12311-96.541-0.52695zm175.45-37.603c6.3075-1.8731 13.145-8.1796 15.21-14.029 2.031-5.7526 2.0529-249 0.0229-254.74-1.7666-4.9976-6.4649-10.277-11.375-12.782-7.1001-3.6222-18.296-3.9957-109.47-3.6523-98.696 0.37173-93.234-0.055136-101.2 7.9078-8.1057 8.1057-7.5977-0.91156-7.5977 134.86 0 98.081 0.25193 121.48 1.3541 125.77 1.8893 7.3505 7.8713 13.779 15.146 16.278 5.236 1.7981 9.992 1.8904 99.068 1.9214 82.083 0.0286 94.216-0.15961 98.843-1.5336z" fill="#a7a7a7"/>
  <path d="m76.173 349.95c-8.523-1.1387-11.588-2.2338-26.168-9.3507-15.114-7.3773-23.807-15.141-28.758-25.685-6.0061-12.79-5.7466-6.4047-5.7466-141.41 0-117.22 0.1002-124.36 1.8338-130.5 2.5815-9.1504 6.2914-15.573 12.692-21.974 6.4007-6.4007 12.824-10.111 21.974-12.692 6.0985-1.7205 12.43-1.8338 102.5-1.8338 76.75 0 97.203 0.26956 102 1.3443 14.718 3.2975 28.291 13.693 34.27 26.246 8.1534 17.117 11.135 24.874 12.147 31.601 0.73037 4.8538 1.0708 44.999 1.0472 123.5-0.0381 126.91 2.8e-4 125.99-5.7341 137.35-3.3587 6.6528-11.661 15.106-18.024 18.353-11.143 5.6845-7.9072 5.5112-106.71 5.7139-50.05 0.10267-93.847-0.1937-97.327-0.6586zm177.74-34.516c6.3075-1.8731 13.145-8.1796 15.21-14.029 2.031-5.7526 2.0529-249 0.0229-254.74-1.7666-4.9976-6.4649-10.277-11.375-12.782-7.1001-3.6222-18.296-3.9957-109.47-3.6523-98.696 0.37173-93.234-0.055136-101.2 7.9078-8.1057 8.1057-7.5977-0.91156-7.5977 134.86 0 98.081 0.25193 121.48 1.3541 125.77 1.8893 7.3505 7.8713 13.779 15.146 16.278 5.236 1.7981 9.992 1.8904 99.068 1.9214 82.083 0.0286 94.216-0.15961 98.843-1.5336z" fill="#89a6c4"/>
  <path d="m75.782 349.91c-8.6127-1.1407-14.176-3.2916-28.189-10.898-17.524-9.5124-25.949-19.269-30.328-35.12-1.6419-5.9436-1.7644-14.963-1.7644-129.89 0-114.92 0.12253-123.94 1.7644-129.89 5.0791-18.386 17.462-30.769 35.848-35.848 5.8969-1.629 13.717-1.7644 101.89-1.7644 88.092 0 96.035 0.13727 102.4 1.7697 17.384 4.4606 26.982 13.362 37.19 34.489 4.7071 9.7425 7.0326 15.924 7.9912 21.241 1.0857 6.0222 1.3521 30.553 1.3521 124.5 0 127.69 0.0419 126.67-5.6992 138.04-3.3587 6.6528-11.661 15.106-18.024 18.353-11.142 5.6845-7.9074 5.5112-106.71 5.7142-50.05 0.10283-94.023-0.21341-97.718-0.70278zm178.72-33.924c2.2-0.78588 6.2942-3.7057 9.0982-6.4885 4.0126-3.9822 5.3967-6.2237 6.5-10.527 1.1646-4.5418 1.4018-25.945 1.4018-126.47 0-113.41-0.11096-121.28-1.7696-125.43-2.7343-6.8471-6.1931-10.658-12.472-13.741l-5.7583-2.8276h-95.5c-76.24 0-96.381 0.26628-99.868 1.3203-5.4421 1.645-13.455 9.4066-15.278 14.799-1.7011 5.0319-2.5188 240.33-0.86626 249.28 2.1498 11.637 9.9929 19.287 21.543 21.012 3.2829 0.49026 47.144 0.80384 97.469 0.69686 76.414-0.16245 92.159-0.4301 95.5-1.6234z" fill="#76a1cb"/>
  <path d="m75.782 349.91c-8.6323-1.1432-14.175-3.2907-28.344-10.982-17.892-9.7123-26.477-20.168-29.924-36.441-2.2148-10.456-2.2148-246.51 0-256.97 2.1095-9.9589 5.9487-17.118 12.917-24.086s14.127-10.808 24.086-12.917c10.157-2.1516 191.54-2.2097 201.66-0.064628 10.021 2.1239 17.468 6.1665 24.927 13.533 5.7164 5.6448 7.5068 8.394 13.363 20.518 4.8163 9.9713 7.1513 16.158 8.1143 21.5 1.0857 6.0222 1.3521 30.553 1.3521 124.5 0 127.69 0.0419 126.67-5.6992 138.04-3.3587 6.6528-11.661 15.106-18.024 18.353-11.142 5.6845-7.9074 5.5112-106.71 5.7142-50.05 0.10283-94.023-0.21341-97.718-0.70278zm173.1-32.957c7.706-1.2504 10.918-2.814 15.525-7.5581 7.5264-7.7497 7.0913 0.55686 7.0913-135.39 0-94.19-0.2803-122.42-1.247-125.6-2.0813-6.8359-6.7475-12.276-13.072-15.241l-5.6806-2.6629h-96c-108.47 0-101.56-0.49905-109.29 7.8867-7.1517 7.7587-6.7112-1.1765-6.7112 136.11 0 111.49 0.16126 124.35 1.5985 127.5 3.8164 8.3564 10.975 13.63 20.38 15.012 8.0808 1.1879 180.05 1.1299 187.4-0.0632z" fill="#6f99c3"/>
  <path d="m75.63 349.89c-8.248-1.0882-15.219-3.7984-28.28-10.994-11.868-6.5386-20.807-14.883-25.134-23.461-6.3764-12.642-6.2166-9.0063-6.2166-141.43 0-132.32-0.15339-128.81 6.174-141.34 6.6171-13.108 20.154-22.349 36.084-24.632 6.0094-0.86108 33.703-1.0909 102.24-0.84841l94 0.33254 6.6499 2.2553c8.8308 2.995 18.106 9.3266 23.234 15.86 6.6449 8.4663 16.622 29.487 18.204 38.355 1.0724 6.01 1.3422 31.04 1.3422 124.52 0 127.69 0.0419 126.67-5.6992 138.04-3.3587 6.6528-11.661 15.106-18.024 18.353-11.142 5.6845-7.9074 5.5112-106.71 5.7142-50.05 0.10283-94.091-0.2209-97.87-0.71942zm181-34.712c6.2834-2.8434 9.5533-6.1429 12.564-12.677l2.3036-5v-122.5c0-137.74 0.4777-128.93-7.4345-137.11-8.1211-8.3881-2.246-7.9827-111.16-7.6694l-95.41 0.27449-5.5 3.0931c-6.1473 3.4572-11.268 10.56-12.355 17.139-0.34253 2.0725-0.62773 57.799-0.63378 123.84-0.01225 133.62-0.35677 126.72 6.7203 134.56 4.174 4.6201 7.7163 6.6638 13.595 7.8437 2.2955 0.46069 46.474 0.76886 98.174 0.68481l94-0.15281z" fill="#979797"/>
  <path d="m71.111 345.45c-26.9-5.8357-41.115-14.665-49.138-30.521-6.0969-12.05-5.9731-9.1306-5.9731-140.93 0-132.32-0.15339-128.81 6.174-141.34 6.6171-13.108 20.154-22.349 36.084-24.632 6.0094-0.86108 33.703-1.0909 102.24-0.84841l94 0.33254 6.6499 2.2553c13.158 4.4625 23.451 13.506 29.802 26.185 1.5296 3.0536 4.3036 11.627 6.1644 19.052l3.3832 13.5 0.31588 110.5c0.32301 112.99-0.10729 130.58-3.437 140.5-2.1991 6.5488-7.5786 14.652-11.931 17.972-5.2611 4.0129-13.209 7.3045-20.448 8.4682-4.1993 0.67508-38.533 1.0195-97 0.97299-73.19-0.0582-91.722-0.33706-96.889-1.458zm185.52-30.277c6.2834-2.8434 9.5533-6.1429 12.564-12.677l2.3036-5v-122.5c0-137.74 0.4777-128.93-7.4345-137.11-8.1211-8.3881-2.246-7.9827-111.16-7.6694l-95.41 0.27449-5.5 3.0931c-6.1473 3.4572-11.268 10.56-12.355 17.139-0.34253 2.0725-0.62773 57.799-0.63378 123.84-0.01225 133.62-0.35677 126.72 6.7203 134.56 4.174 4.6201 7.7163 6.6638 13.595 7.8437 2.2955 0.46069 46.474 0.76886 98.174 0.68481l94-0.15281z" fill="#6893bd"/>
  <path d="m75 346.31c-4.2141-0.71115-21.126-5.3762-22.863-6.3067-0.90034-0.48223-4.112-1.9672-7.137-3.2999-11.942-5.2615-21.736-16.29-26.241-29.549l-2.2591-6.6499-0.29763-121c-0.18994-77.217 0.066435-123.75 0.70853-128.6 2.7032-20.424 14.209-34.791 32.939-41.13l6.6499-2.2505 94.335-0.29736c104.22-0.32853 105.54-0.2644 117.73 5.7388 8.6526 4.2597 16.373 12.27 21.025 21.813 5.0514 10.364 5.0049 10.236 8.0937 22.228l2.7045 10.5 0.37201 111c0.3808 113.63-0.037 131.03-3.3844 141-2.1991 6.5488-7.5786 14.652-11.931 17.972-5.2611 4.0129-13.209 7.3045-20.448 8.4682-6.2407 1.0032-184.19 1.3458-190 0.36579zm178.88-29.862c6.422-1.9071 12.697-7.3382 15.532-13.444 2.0787-4.4761 2.0912-5.1447 2.3594-126 0.18396-82.915-0.06791-123.12-0.79316-126.62-2.0249-9.7538-8.9072-17.015-18.557-19.579-7.006-1.8614-188.91-1.9175-195.02-0.060085-11.056 3.366-16.958 11.356-18.484 25.018-1.5824 14.173-0.70646 238.61 0.95126 243.73 2.8013 8.6584 10.038 15.535 18.46 17.541 1.7424 0.41502 45.274 0.80064 96.737 0.85694 81.97 0.0897 94.218-0.0906 98.81-1.4541z" fill="#5b8bbb"/>
  <path d="m75.5 346.37c-7.68-1.5471-22.5-5.7631-22.5-6.4009 0-0.4269-2.0901-1.4884-4.6447-2.3588-10.215-3.4807-20.872-12.771-25.796-22.488-6.3761-12.583-6.0595-5.2105-6.0595-141.12 0-114.92 0.12253-123.94 1.7644-129.89 4.9985-18.094 16.791-29.848 35.001-34.888 5.7041-1.5786 14.404-1.7254 102.23-1.7254 89.889 0 96.409 0.11609 102.43 1.8237 14.789 4.1952 24.657 12.1 31.05 24.872 2.212 4.4195 4.0219 8.6208 4.0219 9.3363s0.39017 1.4509 0.86705 1.6342c0.47687 0.18333 2.1644 5.5083 3.75 11.833l2.883 11.5 0.31588 110.5c0.32301 112.99-0.10729 130.58-3.437 140.5-2.1991 6.5488-7.5786 14.652-11.931 17.972-5.2611 4.0129-13.209 7.3045-20.448 8.4682-6.1629 0.99074-184.7 1.3913-189.5 0.42516zm179.93-29.789c7.0759-2.7091 13.048-9.0651 15.267-16.25 1.6915-5.4749 1.8002-13.128 1.8002-126.83 0-95.312-0.27115-121.89-1.2772-125.21-2.046-6.7406-6.9829-12.422-13.723-15.792l-5.9999-3h-95.5c-77.396 0-96.353 0.25651-100 1.3531-6.0961 1.833-14.314 10.051-16.147 16.147-2.0149 6.7012-2.0005 246.27 0.01518 253.21 2.7329 9.4038 11.002 16.092 21.922 17.731 3.1402 0.47118 46.884 0.78226 97.209 0.69129 87.068-0.1574 91.739-0.25688 96.432-2.0539z" fill="#888989"/>
  <path d="m58.25 341.82c-2.8875-0.53661-5.25-1.349-5.25-1.8054s-2.0901-1.5419-4.6447-2.4123c-10.215-3.4807-20.872-12.771-25.796-22.488-6.3761-12.583-6.0595-5.2105-6.0595-141.12 0-114.92 0.12253-123.94 1.7644-129.89 4.9985-18.094 16.791-29.848 35.001-34.888 5.7041-1.5786 14.404-1.7254 102.23-1.7254 89.889 0 96.409 0.11609 102.43 1.8237 14.789 4.1952 24.657 12.1 31.05 24.872 2.212 4.4195 4.0219 8.6208 4.0219 9.3363s0.42466 1.4509 0.94368 1.6342c2.6701 0.94316 3.0414 17.003 3.0488 131.86 8e-3 118.12-0.26679 129.17-3.4865 140.49-3.0684 10.787-11.695 19.281-23.506 23.144-5.1324 1.6787-12.217 1.8102-106 1.9669-61.838 0.10335-102.52-0.20736-105.75-0.80769zm197.18-25.247c7.0759-2.7091 13.048-9.0651 15.267-16.25 1.6915-5.4749 1.8002-13.128 1.8002-126.83 0-95.312-0.27115-121.89-1.2772-125.21-2.046-6.7406-6.9829-12.422-13.723-15.792l-5.9999-3h-95.5c-77.396 0-96.353 0.25651-100 1.3531-6.0961 1.833-14.314 10.051-16.147 16.147-2.0149 6.7012-2.0005 246.27 0.01518 253.21 2.7329 9.4038 11.002 16.092 21.922 17.731 3.1402 0.47118 46.884 0.78226 97.209 0.69129 87.068-0.1574 91.739-0.25688 96.432-2.0539z" fill="#75818d"/>
  <path d="m65.242 341.96c-18.54-1.8686-35.399-12.472-42.682-26.846-6.3761-12.583-6.0595-5.2105-6.0595-141.12 0-113.87 0.13451-123.99 1.7254-129.73 5.0395-18.21 16.794-30.002 34.888-35.001 5.8979-1.6293 13.739-1.7644 102.39-1.7644 89.889 0 96.409 0.11609 102.43 1.8237 8.8408 2.5079 14.735 5.669 20.892 11.205 5.8663 5.2743 9.1001 10.297 13.392 20.8 2.5393 6.2138 3.0563 9.1733 3.8734 22.171 1.0762 17.119 1.071 235.5-6e-3 235.5-0.38825 0-0.71537 2.8125-0.72694 6.25-0.0578 17.162-9.4703 30.294-25.354 35.374-5.0704 1.6215-12.959 1.775-101 1.9652-52.525 0.1135-99.216-0.16817-103.76-0.62594zm191.49-0.56724c-0.33229-0.33229-1.1948-0.36781-1.9167-0.0789-0.79773 0.31922-0.56078 0.55618 0.60417 0.60416 1.0542 0.0434 1.6448-0.19293 1.3125-0.52522zm-1.2967-24.82c7.0759-2.7091 13.048-9.0651 15.267-16.25 1.6915-5.4749 1.8002-13.128 1.8002-126.83 0-95.312-0.27115-121.89-1.2772-125.21-2.046-6.7406-6.9829-12.422-13.723-15.792l-5.9999-3h-95.5c-77.396 0-96.353 0.25651-100 1.3531-6.0961 1.833-14.314 10.051-16.147 16.147-2.0149 6.7012-2.0005 246.27 0.01518 253.21 2.7329 9.4038 11.002 16.092 21.922 17.731 3.1402 0.47118 46.884 0.78226 97.209 0.69129 87.068-0.1574 91.739-0.25688 96.432-2.0539z" fill="#4781ba"/>
  <path d="m64.681 341.91c-4.8506-0.48578-10.026-1.5189-11.5-2.2958-1.4744-0.77693-5.7544-2.855-9.5113-4.6179-12.679-5.9498-22.135-18.272-25.231-32.879-1.1604-5.4747-1.4066-27.775-1.421-128.71-0.016785-118.02 0.048008-122.35 1.9427-129.75 4.5003-17.596 16.1-29.196 33.696-33.696 7.349-1.8796 11.548-1.9593 102.25-1.9427 103.92 0.019076 102.62-0.049666 114.06 6.0467 10.572 5.6348 17.65 13.981 23.168 27.318 2.5538 6.1728 3.0742 9.1096 3.9188 22.118 1.1022 16.974 1.1258 235.5 0.0254 235.5-0.38825 0-0.71537 2.8125-0.72694 6.25-0.0578 17.162-9.4703 30.294-25.354 35.374-5.0703 1.6214-12.961 1.7751-101 1.9663-52.525 0.11411-99.469-0.18997-104.32-0.67575zm192.05-0.51855c-0.33229-0.33229-1.1948-0.36781-1.9167-0.0789-0.79773 0.31922-0.56078 0.55618 0.60417 0.60416 1.0542 0.0434 1.6448-0.19293 1.3125-0.52522zm-1.2292-24.397c5.1414-1.8576 13.636-10.349 15.505-15.498 1.2315-3.3938 1.4981-22.109 1.7592-123.5 0.21892-85.029-0.0161-121.44-0.81486-126.23-1.8439-11.053-8.155-18.317-18.539-21.339-4.3686-1.2713-18.614-1.4423-100.5-1.2068l-95.41 0.27449-4.7061 2.3179c-5.2559 2.5888-10.221 7.7261-12.669 13.109-1.4657 3.2228-1.6544 15.426-1.9265 124.57-0.16586 66.55-0.02705 123.31 0.30847 126.14 1.2758 10.754 9.9565 20.171 20.538 22.28 2.4503 0.48842 46.755 0.80553 98.455 0.70469 79.126-0.15434 94.633-0.41203 98-1.6286z" fill="#7e7e7f"/>
  <path d="m64.681 341.91c-4.8506-0.48183-10.026-1.5117-11.5-2.2887-1.4744-0.77693-5.7544-2.855-9.5113-4.6179-12.679-5.9498-22.135-18.272-25.231-32.879-1.1604-5.4747-1.4066-27.775-1.421-128.71-0.016785-118.02 0.048008-122.35 1.9427-129.75 4.5003-17.596 16.1-29.196 33.696-33.696 7.349-1.8796 11.548-1.9593 102.25-1.9427 103.92 0.019076 102.62-0.049666 114.06 6.0467 10.569 5.6334 17.644 13.974 23.172 27.318 2.6263 6.3397 3.0594 8.9288 3.9614 23.681 1.4872 24.321 0.5903 230.67-1.0342 237.94-3.0572 13.685-13.396 27.586-24.827 33.378-12.108 6.1356-9.2449 5.9701-107.24 6.1976-49.225 0.11427-93.469-0.18646-98.319-0.66828zm190.82-24.909c5.1414-1.8576 13.636-10.349 15.505-15.498 1.2315-3.3938 1.4981-22.109 1.7592-123.5 0.21892-85.029-0.0161-121.44-0.81486-126.23-1.8439-11.053-8.155-18.317-18.539-21.339-4.3686-1.2713-18.614-1.4423-100.5-1.2068l-95.41 0.27449-4.7061 2.3179c-5.2559 2.5888-10.221 7.7261-12.669 13.109-1.4657 3.2228-1.6544 15.426-1.9265 124.57-0.16586 66.55-0.02705 123.31 0.30847 126.14 1.2758 10.754 9.9565 20.171 20.538 22.28 2.4503 0.48842 46.755 0.80553 98.455 0.70469 79.126-0.15434 94.633-0.41203 98-1.6286z" fill="#6e7e8d"/>
  <path d="m59.45 341.03c-2.7773-0.41834-5.9273-1.2268-7-1.7966-1.0727-0.5698-5.0242-2.476-8.781-4.236-12.675-5.938-22.134-18.262-25.231-32.873-1.1604-5.4747-1.4066-27.775-1.421-128.71-0.016785-118.02 0.048008-122.35 1.9427-129.75 4.5003-17.596 16.1-29.196 33.696-33.696 7.349-1.8796 11.548-1.9593 102.25-1.9427 103.97 0.019085 102.61-0.052902 114.1 6.0698 10.74 5.7244 17.986 14.444 23.686 28.503l2.8017 6.9101 0.29579 119.5c0.30851 124.64 0.13823 130.76-3.9455 141.67-4.6733 12.491-16.918 23.905-30.61 28.534l-6.7402 2.2787-95 0.15267c-52.25 0.084-97.272-0.1896-100.05-0.60795zm196.05-24.029c5.1414-1.8576 13.636-10.349 15.505-15.498 1.2315-3.3938 1.4981-22.109 1.7592-123.5 0.21892-85.029-0.0161-121.44-0.81486-126.23-1.8439-11.053-8.155-18.317-18.539-21.339-4.3686-1.2713-18.614-1.4423-100.5-1.2068l-95.41 0.27449-4.7061 2.3179c-5.2559 2.5888-10.221 7.7261-12.669 13.109-1.4657 3.2228-1.6544 15.426-1.9265 124.57-0.16586 66.55-0.02705 123.31 0.30847 126.14 1.2758 10.754 9.9565 20.171 20.538 22.28 2.4503 0.48842 46.755 0.80553 98.455 0.70469 79.126-0.15434 94.633-0.41203 98-1.6286z" fill="#427db7"/>
  <path d="m59.958 341.11c-2.498-0.36204-8.573-2.6426-13.5-5.0679-14.661-7.2169-23.825-18.2-27.57-33.045-1.1467-4.5445-1.3878-27.042-1.3878-129.5 0-115.99 0.11541-124.42 1.787-130.48 4.4356-16.073 16.684-28.33 32.713-32.737 6.0339-1.6591 13.42-1.7873 103-1.7873 79.002 0 97.497 0.25165 102 1.3878 14.127 3.5646 25.466 12.662 31.515 25.284 1.9168 3.9996 3.485 7.8097 3.485 8.4669s0.46918 1.3513 1.0426 1.5424c2.5148 0.83827 2.9181 18.548 2.9373 129 0.0208 119.85-0.16312 125.89-4.1559 136.56-4.6469 12.42-16.923 23.845-30.584 28.464l-6.7402 2.2787-95 0.14379c-52.25 0.0791-97.044-0.15241-99.542-0.51444zm194.91-23.471c7.6193-2.541 14.425-9.535 16.818-17.285 1.7028-5.513 1.8089-12.925 1.8089-126.36 0-113.22-0.10877-120.85-1.8003-126.33-2.2524-7.2903-7.872-13.599-14.973-16.81l-5.227-2.3633h-95.5c-90.948 0-95.758 0.08977-100.91 1.8834-7.133 2.4834-13.223 8.5739-15.707 15.707-1.8049 5.1841-1.8834 10.519-1.8834 127.91 0 117.76 0.07319 122.69 1.8914 127.4 2.3163 6.0053 7.6289 12.056 12.984 14.788 2.2065 1.1257 7.1872 2.3931 11.068 2.8164s47.331 0.69214 96.556 0.59743c83.094-0.15989 89.885-0.30046 94.873-1.964z" fill="#56799c"/>
  <path d="m57.789 339.99c-13.207-2.2724-28.585-13.646-34.54-25.547-5.9996-11.989-5.7484-5.8309-5.7484-140.94 0-115.99 0.11541-124.42 1.787-130.48 4.4356-16.073 16.684-28.33 32.713-32.737 6.0339-1.6591 13.42-1.7873 103-1.7873 105.07 0 101.6-0.1753 113.41 5.7334 10.538 5.2733 17.186 13.353 23.792 28.916l2.2712 5.3507 0.29559 121.5c0.19575 80.463-0.055 123.77-0.74254 128.23-3.0528 19.783-14.57 33.799-32.877 40.01l-6.6499 2.2562-96 0.1521c-52.8 0.0837-98.12-0.21266-100.71-0.65849zm197.08-22.346c7.6193-2.541 14.425-9.535 16.818-17.285 1.7028-5.513 1.8089-12.925 1.8089-126.36 0-113.22-0.10877-120.85-1.8003-126.33-2.2524-7.2903-7.872-13.599-14.973-16.81l-5.227-2.3633h-95.5c-90.948 0-95.758 0.08977-100.91 1.8834-7.133 2.4834-13.223 8.5739-15.707 15.707-1.8049 5.1841-1.8834 10.519-1.8834 127.91 0 117.76 0.07319 122.69 1.8914 127.4 2.3163 6.0053 7.6289 12.056 12.984 14.788 2.2065 1.1257 7.1872 2.3931 11.068 2.8164s47.331 0.69214 96.556 0.59743c83.094-0.15989 89.885-0.30046 94.873-1.964z" fill="#4276a8"/>
  <path d="m66.5 340.01c-13.093-0.85005-19.062-2.5912-27.547-8.0359-9.4747-6.0799-17.049-17.015-20.065-28.97-1.1467-4.5445-1.3878-27.042-1.3878-129.5 0-115.99 0.11541-124.42 1.787-130.48 4.4356-16.073 16.684-28.33 32.713-32.737 6.0339-1.6591 13.42-1.7873 103-1.7873 79.002 0 97.497 0.25165 102 1.3878 13.456 3.3953 25.091 12.407 30.915 23.945 6.392 12.663 6.0846 5.5789 6.0846 140.22 0 119.38-0.0531 122.84-2.001 130.45-1.1005 4.3031-3.2066 9.8876-4.6802 12.41-6.0218 10.308-18.128 18.991-30.819 22.105-5.8645 1.4389-169.91 2.291-190 0.98689zm188.37-22.365c7.6193-2.541 14.425-9.535 16.818-17.285 1.7028-5.513 1.8089-12.925 1.8089-126.36 0-113.22-0.10877-120.85-1.8003-126.33-2.2524-7.2903-7.872-13.599-14.973-16.81l-5.227-2.3633h-95.5c-90.948 0-95.758 0.08977-100.91 1.8834-7.133 2.4834-13.223 8.5739-15.707 15.707-1.8049 5.1841-1.8834 10.519-1.8834 127.91 0 117.76 0.07319 122.69 1.8914 127.4 2.3163 6.0053 7.6289 12.056 12.984 14.788 2.2065 1.1257 7.1872 2.3931 11.068 2.8164s47.331 0.69214 96.556 0.59743c83.094-0.15989 89.885-0.30046 94.873-1.964z" fill="#3d74ab"/>
  <path d="m58.973 338.96c-16.736-2.5234-28.943-11.001-35.94-24.961-5.7494-11.47-5.5325-5.9628-5.5325-140.5 0-115.99 0.11541-124.42 1.787-130.48 4.4356-16.073 16.684-28.33 32.713-32.737 6.0339-1.6591 13.42-1.7873 103-1.7873 105.07 0 101.6-0.1753 113.41 5.7334 11.266 5.6374 20.329 17.403 23.701 30.767 2.0283 8.0385 2.0616 248.51 0.0357 257.5-2.995 13.29-12.667 26.184-23.618 31.485-11.655 5.6422-7.1276 5.41-109.53 5.6175-51.975 0.10532-96.987-0.18353-100.03-0.64188zm195.9-21.32c7.6193-2.541 14.425-9.535 16.818-17.285 1.7028-5.513 1.8089-12.925 1.8089-126.36 0-113.22-0.10877-120.85-1.8003-126.33-2.2524-7.2903-7.872-13.599-14.973-16.81l-5.227-2.3633h-95.5c-90.948 0-95.758 0.08977-100.91 1.8834-7.133 2.4834-13.223 8.5739-15.707 15.707-1.8049 5.1841-1.8834 10.519-1.8834 127.91 0 117.76 0.07319 122.69 1.8914 127.4 2.3163 6.0053 7.6289 12.056 12.984 14.788 2.2065 1.1257 7.1872 2.3931 11.068 2.8164s47.331 0.69214 96.556 0.59743c83.094-0.15989 89.885-0.30046 94.873-1.964z" fill="#3173b3"/>
 </g>
</svg>
