<?xml version="1.0" encoding="UTF-8" standalone="no"?>
<!-- Created with Inkscape (http://www.inkscape.org/) -->

<svg
   xmlns:dc="http://purl.org/dc/elements/1.1/"
   xmlns:cc="http://creativecommons.org/ns#"
   xmlns:rdf="http://www.w3.org/1999/02/22-rdf-syntax-ns#"
   xmlns:svg="http://www.w3.org/2000/svg"
   xmlns="http://www.w3.org/2000/svg"
   xmlns:sodipodi="http://sodipodi.sourceforge.net/DTD/sodipodi-0.dtd"
   xmlns:inkscape="http://www.inkscape.org/namespaces/inkscape"
   version="1.1"
   id="svg2"
   width="332"
   height="325.33334"
   viewBox="0 0 332 325.33334"
   sodipodi:docname="task_remark_darkblue.svg"
   inkscape:version="0.92.2 5c3e80d, 2017-08-06">
  <metadata
     id="metadata8">
    <rdf:RDF>
      <cc:Work
         rdf:about="">
        <dc:format>image/svg+xml</dc:format>
        <dc:type
           rdf:resource="http://purl.org/dc/dcmitype/StillImage" />
        <dc:title></dc:title>
      </cc:Work>
    </rdf:RDF>
  </metadata>
  <defs
     id="defs6" />
  <sodipodi:namedview
     pagecolor="#ffffff"
     bordercolor="#666666"
     borderopacity="1"
     objecttolerance="10"
     gridtolerance="10"
     guidetolerance="10"
     inkscape:pageopacity="0"
     inkscape:pageshadow="2"
     inkscape:window-width="833"
     inkscape:window-height="860"
     id="namedview4"
     showgrid="false"
     inkscape:zoom="0.72540981"
     inkscape:cx="141.87571"
     inkscape:cy="162.66667"
     inkscape:window-x="0"
     inkscape:window-y="0"
     inkscape:window-maximized="0"
     inkscape:current-layer="svg2" />
  <g
     id="g817"
     transform="translate(1.92192,-3.2429379)">
    <path
       style="fill:#f3f3f3;stroke-width:1.33333337"
       d="M 29.065925,321.32074 C 20.71338,315.78823 11.576485,305.70679 7.3426965,297.35182 0.14812932,283.15402 0.04824475,281.39674 0.02315149,168.57822 0.00783105,99.697967 0.48722949,61.813657 1.4404303,56.578213 5.5063673,34.246101 22.314707,15.091224 44.527764,7.4756519 52.481625,4.7487324 55.101795,4.6763102 159.774,4.290216 280.45217,3.8450822 282.53652,3.9694957 297.84725,12.531748 c 15.16844,8.482676 27.81611,25.44795 31.41172,42.13492 1.1663,5.412685 1.47026,36.317658 1.16059,118.000002 L 330,283.33334 l -3.9344,8.66667 c -5.33493,11.75177 -13.21705,21.67065 -22.27753,28.03408 l -7.54527,5.29925 H 165.68333 35.123852 Z"
       id="path879"
       inkscape:connector-curvature="0" />
    <path
       style="fill:#eeeef1;stroke-width:1.33333337"
       d="M 32.131429,320.33334 C 21.782137,314.22725 13.510856,304.82531 7.7079352,292.57123 L 3.3333333,283.33334 2.9631169,171.36054 C 2.6044757,62.888651 2.6756967,59.115913 5.2410351,50.693868 6.6975089,45.912241 9.7022609,39.147842 11.918262,35.66187 17.899451,26.252913 30.194764,15.129768 39.971964,10.282658 L 48.610593,6.0000001 H 165.30529 282 l 8.66667,4.1320979 c 9.53724,4.54717 22.90177,16.493424 28.44866,25.429625 1.89876,3.058947 4.82458,9.358947 6.50182,14.000001 l 3.04952,8.438277 V 168 278.00001 l -3.10374,8.66666 c -5.77054,16.11334 -17.07188,29.63046 -30.0097,35.89355 -5.67651,2.74796 -6.85918,2.77312 -130.33787,2.77312 H 40.605993 Z"
       id="path877"
       inkscape:connector-curvature="0" />
    <path
       style="fill:#eaeaec;stroke-width:1.33333337"
       d="M 35.980656,321.66667 C 26.743905,316.97819 14.781257,305.10074 10.744684,296.61042 3.0219924,280.36691 3.4200572,286.64502 2.9718952,174.02123 2.7005183,105.82378 3.0417745,66.823345 3.9635687,60.687892 6.9695332,40.680222 22.468684,18.869746 39.714081,10.379605 l 8.89597,-4.3796049 H 165.30503 282 l 8.66667,4.1154179 c 13.78868,6.547633 27.5296,22.288096 33.65401,38.55125 l 3.01265,8 0.37822,107.598712 c 0.41086,116.88709 0.40292,117.03711 -6.97351,131.59377 -4.48925,8.85911 -14.45404,19.15622 -23.99293,24.79307 l -7.92156,4.68112 H 166.01393 43.204336 Z"
       id="path875"
       inkscape:connector-curvature="0" />
    <path
       style="fill:#e3e3e5;stroke-width:1.33333337"
       d="M 37.601636,320.95306 C 26.921217,315.50195 16.259312,305.03559 11.513511,295.34339 3.9307879,279.85746 3.8738623,278.81903 4.2877709,163.53346 L 4.6666667,58.000001 7.6868481,49.648821 C 11.684265,38.595462 20.943325,24.349578 28.125857,18.201598 31.312025,15.474356 37.23714,11.613307 41.292779,9.6214887 L 48.666667,6.0000001 H 165.36108 282.05549 l 8.7582,4.3115039 c 15.3434,7.553282 29.48632,26.181142 33.81312,44.535778 3.04736,12.927201 3.01315,213.013728 -0.0387,226.431778 -3.93312,17.2926 -15.56971,31.96747 -31.80106,40.10423 l -7.87968,3.95005 -119.4537,-0.047 L 46,325.23945 Z"
       id="path873"
       inkscape:connector-curvature="0" />
    <path
       style="fill:#dcdce0;stroke-width:1.33333337"
       d="M 43.856167,322.20938 C 32.846485,317.6581 27.386955,313.92034 20.874147,306.47522 13.431843,297.96755 9.7164784,290.46763 7.304078,279.08237 4.4474167,265.60042 4.4620936,70.330797 7.3207823,56.837806 11.942413,35.023738 24.091676,18.068046 41.077073,9.7270233 L 48.666667,6.0000001 H 165.33333 282 l 7.67019,3.5945156 c 11.29376,5.2926403 21.50988,15.6003063 27.06582,27.3083513 8.75158,18.442179 8.55791,15.475438 8.55791,131.097133 0,112.16149 -0.0904,113.85349 -6.78839,126.98253 -4.62002,9.05598 -16.64746,20.61832 -26.4255,25.4036 l -8.7467,4.28054 -116,0.31686 -115.999997,0.31684 z"
       id="path871"
       inkscape:connector-curvature="0" />
    <path
       style="fill:#d5d5d9;stroke-width:1.33333337"
       d="M 51.333333,323.43854 C 35.664145,319.51809 23.413623,310.63493 15.334105,297.33461 6.5021552,282.79565 6.5223028,283.12038 7.0325683,163.5359 7.4756016,59.707781 7.5673932,56.417566 10.25826,47.912858 c 1.523325,-4.814596 4.104044,-11.369375 5.734931,-14.566176 4.23667,-8.30456 15.36116,-18.867768 24.673476,-23.4285863 l 8,-3.9180956 H 165.33333 282 l 7.67019,3.5945156 c 9.85637,4.6190313 21.41536,15.5740713 25.59694,24.2595093 1.80396,3.746953 4.50684,11.575645 6.0064,17.397092 C 323.90797,61.478329 324,65.402504 324,167.51883 c 0,71.67636 -0.47185,107.95684 -1.46639,112.74888 -4.40054,21.2036 -23.39274,39.59658 -45.14648,43.7221 -11.00001,2.0861 -217.525746,1.58246 -226.053797,-0.55127 z"
       id="path869"
       inkscape:connector-curvature="0" />
    <path
       style="fill:#cbcbd0;stroke-width:1.33333337"
       d="M 56,323.09745 C 31.707237,318.89554 13.453392,300.98382 9.3611708,277.33278 8.3084101,271.24834 7.9952873,236.69166 8.3100843,161.33334 8.7957075,45.081385 8.6311455,47.777482 16.139533,33.059825 20.242557,25.017234 31.473736,14.420443 40.666667,9.9180957 l 8,-3.9180956 H 165.33333 282 l 7.62409,3.5734082 c 14.01511,6.5688827 24.67163,18.8539487 29.86287,34.4265927 2.27852,6.8351 2.4734,14.945014 2.86836,119.367279 0.40405,106.82195 0.30641,112.41101 -2.09879,120.13891 -5.26749,16.92448 -18.15921,30.72703 -34.44297,36.87643 L 278,323.33334 168.66667,323.50367 C 108.53333,323.59741 57.833333,323.41461 56,323.09745 Z"
       id="path867"
       inkscape:connector-curvature="0" />
    <path
       style="fill:#c4c4ca;stroke-width:1.33333337"
       d="M 48.633581,320.17565 C 29.842485,314.79301 14.288825,297.76625 10.653782,278.59873 8.8505099,269.09011 8.8794165,58.775269 10.685314,49.181988 13.786116,32.709915 25.528224,17.332328 40.666667,9.9180957 l 8,-3.9180956 H 165.33333 282 l 7.56687,3.5472096 c 13.84852,6.4919413 25.14266,19.5321433 29.83961,34.4527913 2.07816,6.601624 2.36684,17.178159 2.89315,105.999999 0.65094,109.85355 -0.0373,127.62658 -5.40956,139.68162 -4.50812,10.11612 -12.4491,19.35031 -21.16444,24.61115 -14.13979,8.53518 -11.74366,8.38376 -131.00576,8.27892 -98.160589,-0.0863 -108.788658,-0.30567 -116.086289,-2.39604 z"
       id="path865"
       inkscape:connector-curvature="0" />
    <path
       style="fill:#b9b9c1;stroke-width:1.33333337"
       d="M 48.633581,318.86109 C 27.628499,312.79517 13.557805,294.92846 10.592393,270.55709 9.7338808,263.50137 9.3703115,219.9694 9.6133659,153.33334 L 10,47.333334 12.990503,40.000001 C 19.372601,24.349775 32.704304,11.919271 47.970809,7.3843 54.591717,5.4175352 66.749232,5.237666 168.66667,5.5986177 L 282,6.0000001 l 7.33333,3.4628726 c 11.38115,5.3742933 20.48848,14.4559423 26.31216,26.2379723 l 5.02118,10.158476 0.39142,108.070349 c 0.25023,69.08887 -0.10573,111.83928 -0.98701,118.51916 -2.71011,20.54316 -15.52079,38.03971 -33.02497,45.10479 l -7.71278,3.11305 L 168,320.92379 c -102.285473,0.23623 -111.986168,0.0685 -119.366419,-2.0627 z"
       id="path863"
       inkscape:connector-curvature="0" />
    <path
       style="fill:#adadb6;stroke-width:1.33333337"
       d="M 53.227263,318.6749 C 35.524051,315.61477 20.634816,301.38869 13.693783,280.90221 L 10,270.00001 V 158.66667 47.333334 l 2.990503,-7.333333 C 19.116659,24.977401 30.663909,13.852479 46.141333,8.0616328 53.509804,5.3047348 54.7748,5.2795314 167.79361,5.637883 L 282,6.0000001 289.33333,9.4628727 C 300.71551,14.83765 309.82187,23.91875 315.64549,35.702034 l 5.02118,10.159666 v 113.40249 113.40248 l -3.61671,9.7533 c -6.19008,16.69305 -14.70104,26.12673 -30.06935,33.32934 l -7.64728,3.58403 -110,0.19852 c -60.5,0.1092 -112.747729,-0.27645 -116.106067,-0.85696 z"
       id="path861"
       inkscape:connector-curvature="0" />
    <path
       style="fill:#a3a3ae;stroke-width:1.33333337"
       d="M 53.806735,317.28069 C 45.26442,315.59002 34.858799,309.70834 28.058509,302.72674 20.777865,295.25198 12.768275,279.42489 10.755179,268.53506 8.86006,258.28341 8.7966551,59.214915 10.685314,49.181988 13.870787,32.260127 25.164524,17.764708 41.012331,10.257511 L 50,6.0000001 h 116 116 l 7.33333,3.4628726 c 11.38099,5.3742143 20.48847,14.4559533 26.31216,26.2377803 l 5.02118,10.158285 0.41988,108.737202 c 0.30988,80.24676 0.005,110.65863 -1.1615,116.07053 -2.16001,10.01656 -9.11956,23.40752 -16.33797,31.43614 -6.31941,7.02872 -16.49131,12.86478 -26.40663,15.15068 -7.08617,1.63365 -215.128906,1.65898 -223.373715,0.0272 z"
       id="path859"
       inkscape:connector-curvature="0" />
    <path
       style="fill:#8f8fd1;stroke-width:1.33333337"
       d="M 56,315.99337 C 45.347736,314.17127 35.158035,308.31202 27.288771,299.48394 18.194224,289.28127 12.652954,278.96534 10.782604,268.75513 8.8620204,258.27069 8.7738744,59.335929 10.685314,49.181988 13.870787,32.260127 25.164524,17.764708 41.012331,10.257511 L 50,6.0000001 h 116 116 l 7.33333,3.4628726 c 11.38099,5.3742143 20.48847,14.4559533 26.31216,26.2377803 l 5.02118,10.158285 0.40722,108.737202 c 0.30378,81.11125 -0.001,110.70835 -1.20168,116.49572 -3.06745,14.79191 -17.67982,33.68236 -31.15357,40.27445 -3.77028,1.84463 -10.42435,3.93835 -14.78684,4.65272 -9.38393,1.53666 -208.935647,1.51316 -217.9318,-0.0257 z"
       id="path857"
       inkscape:connector-curvature="0" />
    <path
       style="fill:#9999a4;stroke-width:1.33333337"
       d="M 56,315.96191 C 47.846456,314.52447 38.218505,310.02906 32.454531,304.96822 25.289687,298.67741 14.83364,283.02073 12.708134,275.40037 11.179403,269.91955 10.752865,248.32387 10.415684,159.33334 10.027096,56.775137 10.150939,49.545572 12.414204,42.666668 16.003663,31.756965 23.6811,21.530355 33.142908,15.055324 48.006119,4.8839346 41.895619,5.3333334 165.33333,5.3333334 c 97.0881,0 111.03584,0.2533655 117.3616,2.1319134 18.67358,5.5454582 33.09542,21.1812262 37.14079,40.2670492 1.92763,9.094429 2.10541,211.365494 0.19463,221.441004 -1.58783,8.37261 -6.97706,19.68219 -12.245,25.69677 -12.33791,14.0866 -20.01548,18.88292 -33.85355,21.14896 C 264.43055,317.5749 64.852584,317.52259 56,315.96197 Z"
       id="path855"
       inkscape:connector-curvature="0" />
    <path
       style="fill:#90909d;stroke-width:1.33333337"
       d="M 50.099732,312.46534 C 32.998567,307.21647 16.307336,290.27275 12.207586,274.00001 11.377751,270.70622 10.698994,226.85588 10.432666,159.33334 10.028044,56.748792 10.150358,49.547338 12.414204,42.666668 16.003663,31.756965 23.6811,21.530355 33.142908,15.055324 48.006119,4.8839346 41.895619,5.3333334 165.33333,5.3333334 c 97.0881,0 111.03584,0.2533655 117.3616,2.1319134 18.67358,5.5454582 33.09542,21.1812262 37.14079,40.2670492 1.92763,9.094429 2.10541,211.365494 0.19463,221.441004 -3.67826,19.39535 -19.63982,36.99828 -39.01688,43.02911 -7.438,2.31496 -14.47419,2.45864 -116.13226,2.3714 -92.592331,-0.0795 -109.162567,-0.38386 -114.781478,-2.10847 z"
       id="path853"
       inkscape:connector-curvature="0" />
    <path
       style="fill:#6969b1;stroke-width:1.33333337"
       d="M 51.000899,311.2955 C 36.682936,307.39427 26.312461,299.91494 18.63752,287.95458 10.788645,275.72318 11.017001,279.3101 10.489425,159.96795 10.03292,56.702476 10.15029,49.55304 12.415136,42.666668 16.002833,31.758105 23.680444,21.530804 33.142908,15.055324 48.006119,4.8839346 41.895619,5.3333334 165.33333,5.3333334 c 97.0881,0 111.03584,0.2533655 117.3616,2.1319134 18.67358,5.5454582 33.09542,21.1812262 37.14079,40.2670492 1.92763,9.094429 2.10541,211.365494 0.19463,221.441004 -3.19907,16.86861 -14.22134,30.75851 -30.69702,38.68335 l -10,4.81002 -110.66666,0.26795 c -92.436622,0.2238 -111.819627,-0.0463 -117.665771,-1.63912 z"
       id="path851"
       inkscape:connector-curvature="0" />
    <path
       style="fill:#4c4cc6;stroke-width:1.33333337"
       d="M 55.333333,312.00643 C 36.36356,309.17738 19.521056,294.94422 13.282275,276.47018 10.69546,268.81019 10.631515,265.4853 10.977488,156.62914 L 11.333333,44.666668 15.159109,36.38453 C 19.900191,26.120918 31.51212,14.663067 42.291704,9.6119602 L 50,6.0000001 h 115.33333 115.33334 l 8.66666,4.1676519 c 15.81366,7.604514 25.7138,19.434065 29.94355,35.779148 3.07548,11.884616 3.08673,213.53745 0.012,225.33993 -5.79188,22.23654 -22.69341,37.56774 -44.96727,40.78932 -9.89374,1.43097 -209.351993,1.36757 -218.98885,-0.0696 z"
       id="path849"
       inkscape:connector-curvature="0" />
    <path
       style="fill:#2e2ee2;stroke-width:1.33333337"
       d="M 48.666667,310.14539 C 33.326589,305.23834 22.230945,295.67003 15.565861,281.60095 l -4.232528,-8.93428 v -114 -114.000002 l 3.573408,-7.624087 C 19.075123,28.149081 28.611128,17.455327 36.474863,12.855917 49.609439,5.1736494 46.871508,5.3333334 165.45655,5.3333334 c 104.21442,0 109.33649,0.113276 117.30804,2.5943026 16.3694,5.094728 28.90034,16.926609 34.99138,33.03932 2.88843,7.640824 2.91362,8.495116 3.29299,111.699714 0.40476,110.11383 0.1028,116.96908 -5.71271,129.691 -4.18461,9.1542 -15.28974,20.13718 -25.33625,25.05758 l -8,3.91809 -114,0.25905 c -89.514684,0.2034 -115.145512,-0.10733 -119.333333,-1.447 z"
       id="path847"
       inkscape:connector-curvature="0" />
    <path
       style="fill:#0000ec;stroke-width:1.33333337"
       d="m 48,309.50889 c -4.033333,-1.31187 -9.186712,-3.35348 -11.451952,-4.53692 -6.836907,-3.57184 -18.691989,-17.47818 -22.101665,-25.92586 l -3.11305,-7.71277 V 158 44.666668 l 3.573408,-7.624087 C 19.075123,28.149081 28.611128,17.455327 36.474863,12.855917 49.609439,5.1736494 46.871508,5.3333334 165.45655,5.3333334 c 104.21442,0 109.33649,0.113276 117.30804,2.5943026 16.399,5.103942 28.9858,17.005987 34.94014,33.03932 2.85272,7.681538 2.85843,7.960797 2.41886,118.314704 -0.34124,85.66785 -0.82639,111.70835 -2.1511,115.46299 -5.28986,14.99308 -15.01638,26.02537 -28.63534,32.47961 l -8.67048,4.10908 L 168,311.61371 C 62.936704,311.87517 54.83844,311.73318 48,309.50889 Z"
       id="path845"
       inkscape:connector-curvature="0" />
    <path
       style="fill:#0000d8;stroke-width:1.33333337"
       d="m 62.880049,308.33334 c -0.202794,-4.11831 -0.473636,-4.33333 -5.458153,-4.33333 -4.698023,0 -5.302673,0.38224 -5.800224,3.66666 l -0.555453,3.66667 -0.199776,-3.73656 c -0.197318,-3.69056 -0.298284,-3.733 -8.203079,-3.44775 -4.401817,0.15886 -8.401817,-0.10973 -8.888889,-0.59677 -0.487072,-0.48707 3.114414,-0.88559 8.003302,-0.88559 h 8.88889 V 287.33334 272.00001 H 31.333333 c -12,0 -19.333333,-0.50575 -19.333333,-1.33334 0,-0.82758 7.333333,-1.33333 19.333333,-1.33333 h 19.333334 v -15.33333 -15.33334 h -20 c -12.444444,0 -20,-0.50371 -20,-1.33333 0,-0.82963 7.555556,-1.33334 20,-1.33334 h 20 v -15.33333 -15.33333 h -20 c -12.444444,0 -20,-0.50371 -20,-1.33334 0,-0.82962 7.555556,-1.33333 20,-1.33333 h 20 V 188 173.33334 h -20 c -12.444444,0 -20,-0.50371 -20,-1.33334 0,-0.82962 7.555556,-1.33333 20,-1.33333 h 20 V 154 137.33334 h -20 c -12.444444,0 -20,-0.50371 -20,-1.33334 0,-0.82962 7.555556,-1.33333 20,-1.33333 h 20 v -10 -10 h -20 -20 v -3.29861 -3.2986 L 31,107.66398 l 20.333333,-0.40548 -20.42199,-0.29591 -20.42199,-0.29592 0.42199,-31.000002 C 11.325364,45.252092 11.400816,44.522689 14.906741,37.042581 19.075123,28.149081 28.611128,17.455327 36.474863,12.855917 49.609439,5.1736494 46.871508,5.3333334 165.45655,5.3333334 c 104.21442,0 109.33649,0.113276 117.30804,2.5943026 16.42369,5.111628 29.05568,17.070981 34.89754,33.03932 2.38743,6.525834 2.90395,11.512349 3.38796,32.707615 l 0.57108,25.007902 -4.94261,2.065157 c -3.05733,1.27743 -12.64812,2.55113 -25.14392,3.33921 -11.11072,0.70073 -29.20131,2.15862 -40.20131,3.23977 -47.90494,4.70837 -71.85018,5.08273 -126,1.96985 C 104.138,108.07802 99.728469,108.16645 94,109.9248 c -3.666667,1.12549 -10.041667,2.05283 -14.166667,2.06077 -4.125,0.008 -9.375,0.38943 -11.666666,0.84777 L 64,113.66667 v 10.5 10.5 h 128 c 84.44444,0 128,0.45371 128,1.33333 0,0.87963 -43.55556,1.33334 -128,1.33334 H 64 V 154 170.66667 h 128 c 84.44444,0 128,0.45371 128,1.33333 0,0.87963 -43.55556,1.33334 -128,1.33334 H 64 V 188 202.66667 h 128 c 84.44444,0 128,0.45371 128,1.33333 0,0.87963 -43.55556,1.33334 -128,1.33334 H 64 V 220.66667 236 h 128 c 84.44444,0 128,0.45371 128,1.33334 0,0.87962 -43.55556,1.33333 -128,1.33333 H 64 v 15.33334 15.33333 h 128.07869 c 85.04627,0 127.80182,0.44797 127.25464,1.33333 -0.54005,0.87382 -44.6805,1.33334 -128.07869,1.33334 H 64 v 15.32605 15.32605 l 117,0.34799 117,0.348 -116.91552,0.32595 -116.915524,0.32596 -0.537761,4.33333 -0.537763,4.33333 z m -0.213382,-21 V 272.00001 H 57.333333 52 v 15.33333 15.33333 h 5.333333 5.333334 z m 0,-33.33333 V 238.66667 H 57.333333 52 v 15.33334 15.33333 h 5.333333 5.333334 z m 0,-33.33334 V 205.33334 H 57.333333 52 V 220.66667 236 h 5.333333 5.333334 z m 0,-32.66667 V 173.33334 H 57.333333 52 V 188 202.66667 h 5.333333 5.333334 z m 0,-34 V 137.33334 H 57.333333 52 V 154 170.66667 h 5.333333 5.333334 z m 0,-30 V 113.33334 H 57.333333 52 V 124 134.66667 h 5.333333 5.333334 z M 216,102.76099 l 12.66667,-1.28769 -12,0.56743 c -6.6,0.31209 -15,0.97981 -18.66667,1.48382 -6.02309,0.82792 -6.49619,0.70947 -4.90071,-1.22701 0.97128,-1.17887 3.67128,-2.382054 6,-2.67375 l 4.23404,-0.530356 -4.17008,-0.213383 c -2.31286,-0.118349 -4.9093,0.677347 -5.82992,1.786619 -1.35972,1.63835 -5.87904,2 -24.99318,2 -22.03046,0 -23.23115,-0.13029 -21.5034,-2.33333 1.60665,-2.048649 1.57818,-2.137425 -0.23326,-0.727621 -1.13476,0.883141 -6.83476,1.812401 -12.66666,2.065011 l -10.6035,0.45929 11.0787,0.26832 c 6.09328,0.14758 10.79957,0.71833 10.45844,1.26833 -0.34112,0.55 10.17529,0.82343 23.36982,0.60763 14.03584,-0.22957 23.68146,0.10697 23.24631,0.81105 -0.4392,0.71064 1.83409,0.74478 5.55148,0.0834 3.46239,-0.61603 11.99525,-1.69951 18.96192,-2.40774 z m -154.984455,1.65624 c -1.274782,-0.33373 -3.674782,-0.34583 -5.333333,-0.0269 -1.658549,0.31892 -0.615545,0.59197 2.317788,0.60677 2.933333,0.0148 4.290329,-0.24614 3.015545,-0.57986 z m 33.338792,-1.71438 c 1.868408,-1.1362 1.621294,-1.25013 -1.287188,-0.59347 -1.979734,0.44697 -9.179734,1.31945 -16,1.93886 l -12.400482,1.12618 13.68767,-0.53271 c 7.528218,-0.29299 14.728218,-1.16548 16,-1.93886 z m -41.021004,-2.07183 c 0,-1.749547 -2.748593,-1.983783 -19.55719,-1.666662 C 19.586021,99.232077 14.06694,99.790718 13.665032,101 c -0.426791,1.28415 4.061767,1.66667 19.557191,1.66667 17.144162,0 20.11111,-0.30032 20.11111,-2.03565 z m 63.711367,-0.27591 c -3.45875,-0.27366 -9.45875,-0.2765 -13.33334,-0.006 -3.87458,0.27014 -1.04469,0.49405 6.28864,0.49752 7.33333,0.003 10.50345,-0.21759 7.0447,-0.49125 z m 135.62197,-0.26039 c 3.39182,-0.68999 0.23686,-0.837447 -8.66667,-0.40507 -7.7,0.37393 -14.25,0.89673 -14.55556,1.16178 -1.07728,0.93447 17.95785,0.3142 23.22223,-0.75671 z M 63.682212,99.083895 c -1.274783,-0.333724 -3.674783,-0.345832 -5.333333,-0.02691 -1.65855,0.318922 -0.615546,0.591969 2.317788,0.606769 2.933333,0.0148 4.290329,-0.24614 3.015545,-0.579863 z m 18.651121,-0.05518 c -2.75,-0.28766 -7.25,-0.28766 -10,0 -2.75,0.287659 -0.5,0.523016 5,0.523016 5.5,0 7.75,-0.235357 5,-0.523016 z"
       id="path843"
       inkscape:connector-curvature="0" />
    <path
       style="fill:#0000c8;stroke-width:1.33333337"
       d="m 62.880049,308.33334 c -0.202794,-4.11831 -0.473636,-4.33333 -5.458153,-4.33333 -4.698023,0 -5.302673,0.38224 -5.800224,3.66666 l -0.555453,3.66667 -0.199776,-3.60575 c -0.193534,-3.49308 -0.481003,-3.62032 -9.199776,-4.07218 l -9,-0.46644 9,-0.26115 9,-0.26115 V 287.33334 272.00001 H 31.333333 c -12,0 -19.333333,-0.50575 -19.333333,-1.33334 0,-0.82758 7.333333,-1.33333 19.333333,-1.33333 h 19.333334 v -15.33333 -15.33334 h -20 c -12.444444,0 -20,-0.50371 -20,-1.33333 0,-0.82963 7.555556,-1.33334 20,-1.33334 h 20 v -15.33333 -15.33333 h -20 c -12.444444,0 -20,-0.50371 -20,-1.33334 0,-0.82962 7.555556,-1.33333 20,-1.33333 h 20 V 188 173.33334 h -20 c -12.444444,0 -20,-0.50371 -20,-1.33334 0,-0.82962 7.555556,-1.33333 20,-1.33333 h 20 V 154 137.33334 h -20 c -12.444444,0 -20,-0.50371 -20,-1.33334 0,-0.82962 7.555556,-1.33333 20,-1.33333 h 20 l 0.0019,-11 0.0019,-11 -16.800025,0.44487 c -17.241346,0.45656 -23.203708,-0.1782 -23.203708,-2.47027 0,-0.79288 7.48211,-1.31597 19,-1.32835 19.215176,-0.0207 21.666666,-0.45835 21.666666,-3.86847 0,-1.03889 0.702788,-2.12315 1.561752,-2.40948 0.993567,-0.33119 1.300803,0.47729 0.844491,2.22223 -0.607865,2.32448 -0.09837,2.7428 3.340593,2.7428 3.220331,0 4.490799,-0.86786 6.155508,-4.20485 1.153711,-2.31267 2.097656,-4.412667 2.097656,-4.666665 0,-1.334814 -9.228424,-0.210432 -9.888889,1.204855 -0.622221,1.33333 -0.933333,1.33333 -1.555555,0 -0.569978,-1.221386 -5.963194,-1.666671 -20.186344,-1.666671 -16.898416,0 -19.645208,0.301774 -21.238301,2.333331 -1.563296,1.99356 -1.778855,-1.938089 -1.480323,-26.999998 0.341593,-28.67693 0.429376,-29.503941 3.92282,-36.957421 4.168382,-8.8935 13.704387,-19.587254 21.568122,-24.186664 13.134576,-7.6822676 10.396645,-7.5225836 128.98169,-7.5225836 104.21442,0 109.33649,0.113276 117.30804,2.5943026 16.42369,5.111628 29.05568,17.070981 34.89754,33.03932 2.384,6.516482 2.90404,11.511537 3.38412,32.504675 l 0.56726,24.804964 -11.99787,2.195035 c -6.59883,1.20727 -17.61187,2.22585 -24.47341,2.26351 -6.86156,0.0376 -16.67556,0.60564 -21.8089,1.26219 -9.30541,1.19015 -59.07092,5.29372 -66.66666,5.49721 -12.0108,0.32176 -36.94868,-0.32826 -65.02105,-1.69481 -23.40553,-1.13938 -32.989051,-1.1532 -36.666666,-0.0529 C 92.240531,108.56614 84.15,109.64684 77,110.14838 l -13,0.91189 v 11.8032 11.8032 h 128 c 84.44444,0 128,0.45371 128,1.33333 0,0.87963 -43.55556,1.33334 -128,1.33334 H 64 V 154 170.66667 h 128 c 84.44444,0 128,0.45371 128,1.33333 0,0.87963 -43.55556,1.33334 -128,1.33334 H 64 V 188 202.66667 h 128 c 84.44444,0 128,0.45371 128,1.33333 0,0.87963 -43.55556,1.33334 -128,1.33334 H 64 V 220.66667 236 h 128 c 84.44444,0 128,0.45371 128,1.33334 0,0.87962 -43.55556,1.33333 -128,1.33333 H 64 v 15.33334 15.33333 h 128.07869 c 85.04627,0 127.80182,0.44797 127.25464,1.33333 -0.54005,0.87382 -44.6805,1.33334 -128.07869,1.33334 H 64 v 15.32605 15.32605 l 117,0.34799 117,0.348 -116.91552,0.32595 -116.915524,0.32596 -0.537761,4.33333 -0.537763,4.33333 z m -0.213382,-21 V 272.00001 H 57.333333 52 v 15.33333 15.33333 h 5.333333 5.333334 z m 0,-33.33333 V 238.66667 H 57.333333 52 v 15.33334 15.33333 h 5.333333 5.333334 z m 0,-33.33334 V 205.33334 H 57.333333 52 V 220.66667 236 h 5.333333 5.333334 z m 0,-32.66667 V 173.33334 H 57.333333 52 V 188 202.66667 h 5.333333 5.333334 z m 0,-34 V 137.33334 H 57.333333 52 V 154 170.66667 h 5.333333 5.333334 z m 0,-31.41382 v -12.08049 l -5,0.41383 -5,0.41382 L 52.281423,123 51.896179,134.66667 h 5.385244 5.385244 z m 29.851525,-18.19677 c 5.679788,-1.7949 9.967298,-1.86381 33.333338,-0.53569 28.47218,1.61834 80.12963,2.2216 86.81514,1.01383 2.2,-0.39744 7.6,-0.78614 12,-0.86379 4.4,-0.0776 14.6,-1.00221 22.66666,-2.05459 8.06667,-1.05238 16.76667,-2.129209 19.33334,-2.39296 2.56666,-0.263751 -7.91252,-0.538048 -23.28708,-0.609551 -19.84498,-0.09229 -28.52487,0.331707 -29.92262,1.461671 -1.54633,1.25009 -1.75268,1.23189 -0.9615,-0.0848 0.8042,-1.338366 -13.57236,-1.667742 -71.28816,-1.633257 -66.858715,0.03995 -72.426885,0.216158 -74.042343,2.343127 -3.711044,4.88608 -2.34917,5.78226 8.5017,5.59458 5.683333,-0.0983 13.26652,-1.10567 16.851525,-2.23859 z M 278.33333,99.080901 c -1.28333,-0.33537 -3.38333,-0.33537 -4.66666,0 -1.28334,0.33537 -0.23334,0.609764 2.33333,0.609764 2.56667,0 3.61667,-0.274394 2.33333,-0.609764 z"
       id="path841"
       inkscape:connector-curvature="0" />
    <path
       style="fill:#0000b5;stroke-width:1.33333337"
       d="m 62.880049,308.33334 c -0.202794,-4.11831 -0.473636,-4.33333 -5.458153,-4.33333 -4.698023,0 -5.302673,0.38224 -5.800224,3.66666 l -0.555453,3.66667 -0.199776,-3.60575 c -0.193534,-3.49308 -0.481003,-3.62032 -9.199776,-4.07218 l -9,-0.46644 9,-0.26115 9,-0.26115 V 287.33334 272.00001 H 31.333333 c -12,0 -19.333333,-0.50575 -19.333333,-1.33334 0,-0.82758 7.333333,-1.33333 19.333333,-1.33333 h 19.333334 v -15.33333 -15.33334 h -20 c -12.444444,0 -20,-0.50371 -20,-1.33333 0,-0.82963 7.555556,-1.33334 20,-1.33334 h 20 v -15.33333 -15.33333 h -20 c -12.444444,0 -20,-0.50371 -20,-1.33334 0,-0.82962 7.555556,-1.33333 20,-1.33333 h 20 V 188 173.33334 h -20 c -12.444444,0 -20,-0.50371 -20,-1.33334 0,-0.82962 7.555556,-1.33333 20,-1.33333 h 20 V 154 137.33334 h -20 c -12.444444,0 -20,-0.50371 -20,-1.33334 0,-0.82962 7.555556,-1.33333 20,-1.33333 h 20 L 50.668533,123 l 0.0019,-11.66666 -17.001885,0.42377 c -9.388635,0.23402 -18.49447,-0.17592 -20.335182,-0.91548 -2.497315,-1.00337 1.048508,-1.36046 14.137746,-1.42378 9.609093,-0.0465 21.157716,-0.46984 25.663606,-0.9408 7.404336,-0.77391 8.38524,-1.24259 10.195588,-4.87152 1.101683,-2.20838 2.00306,-4.223047 2.00306,-4.477045 0,-1.334814 -9.228424,-0.210432 -9.888889,1.204855 -0.622221,1.33333 -0.933333,1.33333 -1.555555,0 C 53.31426,99.101915 47.54334,98.666669 31.790644,98.666669 H 10.47011 l 0.431612,-27.000001 c 0.416452,-26.05167 0.557121,-27.267784 4.005019,-34.624087 4.168382,-8.8935 13.704387,-19.587254 21.568122,-24.186664 13.134576,-7.6822676 10.396645,-7.5225836 128.981687,-7.5225836 104.21442,0 109.33649,0.113276 117.30804,2.5943026 16.42369,5.111628 29.05568,17.070981 34.89754,33.03932 2.38496,6.519117 2.90402,11.511764 3.3852,32.561508 l 0.56832,24.861795 -7.14116,0.726939 c -3.92764,0.399816 -18.73785,1.355452 -32.91158,2.123642 -14.17374,0.76818 -26.26491,1.70231 -26.86928,2.07583 -0.60438,0.37353 -12.40768,1.61893 -26.22958,2.76756 -29.66472,2.4652 -58.14737,2.56929 -98.66977,0.36059 -22.35798,-1.21864 -30.785595,-1.23709 -34.666664,-0.0759 C 92.307427,107.21276 84.15,108.3135 77,108.81504 l -13,0.9119 v 12.46986 12.46987 h 128 c 84.44444,0 128,0.45371 128,1.33333 0,0.87963 -43.55556,1.33334 -128,1.33334 H 64 V 154 170.66667 h 128 c 84.44444,0 128,0.45371 128,1.33333 0,0.87963 -43.55556,1.33334 -128,1.33334 H 64 V 188 202.66667 h 128 c 84.44444,0 128,0.45371 128,1.33333 0,0.87963 -43.55556,1.33334 -128,1.33334 H 64 V 220.66667 236 h 128 c 84.44444,0 128,0.45371 128,1.33334 0,0.87962 -43.55556,1.33333 -128,1.33333 H 64 v 15.33334 15.33333 h 128.07869 c 85.04627,0 127.80182,0.44797 127.25464,1.33333 -0.54005,0.87382 -44.6805,1.33334 -128.07869,1.33334 H 64 v 15.32605 15.32605 l 117,0.34799 117,0.348 -116.91552,0.32595 -116.915524,0.32596 -0.537761,4.33333 -0.537763,4.33333 z m -0.213382,-21 V 272.00001 H 57.333333 52 v 15.33333 15.33333 h 5.333333 5.333334 z m 0,-33.33333 V 238.66667 H 57.333333 52 v 15.33334 15.33333 h 5.333333 5.333334 z m 0,-33.33334 V 205.33334 H 57.333333 52 V 220.66667 236 h 5.333333 5.333334 z m 0,-32.66667 V 173.33334 H 57.333333 52 V 188 202.66667 h 5.333333 5.333334 z m 0,-34 V 137.33334 H 57.333333 52 V 154 170.66667 h 5.333333 5.333334 z m 0,-32.08048 v -12.74716 l -5,0.41382 -5,0.41382 -0.383368,12.33334 -0.383368,12.33333 h 5.383368 5.383368 z m 31.209838,-17.43809 c 4.442379,-1.6722 8.651865,-1.73882 28.575725,-0.45223 49.19004,3.17648 90.95458,2.49444 129.54777,-2.1156 9.16667,-1.09498 21.16667,-2.154269 26.66667,-2.353973 5.5,-0.199705 -39.54862,-0.482318 -100.10803,-0.628029 L 68.450612,98.666669 66.621513,102.33334 c -1.006004,2.01666 -2.019194,4.07846 -2.251534,4.58178 -0.755808,1.63729 24.148452,-0.4168 29.506526,-2.43369 z m -42.543172,0.85191 C 51.786559,104.6 52.421968,104 52.745356,104 c 0.323388,0 0.587977,0.6 0.587977,1.33334 0,0.73333 -0.63541,1.33333 -1.412022,1.33333 -0.776612,0 -1.041203,-0.6 -0.587978,-1.33333 z"
       id="path839"
       inkscape:connector-curvature="0" />
    <path
       style="fill:#0000a5;stroke-width:1.33333337"
       d="m 50.866443,307.7303 c -0.191556,-3.4548 -0.542663,-3.62252 -8.53311,-4.07643 L 34,303.18049 l 8.333333,-0.25691 8.333334,-0.25691 V 287.33334 272.00001 H 31.333333 c -12,0 -19.333333,-0.50575 -19.333333,-1.33334 0,-0.82758 7.333333,-1.33333 19.333333,-1.33333 h 19.333334 v -15.33333 -15.33334 h -20 c -12.444444,0 -20,-0.50371 -20,-1.33333 0,-0.82963 7.555556,-1.33334 20,-1.33334 h 20 v -15.33333 -15.33333 h -20 c -12.444444,0 -20,-0.50371 -20,-1.33334 0,-0.82962 7.555556,-1.33333 20,-1.33333 h 20 V 188 173.33334 h -20 c -12.444444,0 -20,-0.50371 -20,-1.33334 0,-0.82962 7.555556,-1.33333 20,-1.33333 h 20 V 154 137.33334 h -20 c -12.444444,0 -20,-0.50371 -20,-1.33334 0,-0.82962 7.555556,-1.33333 20,-1.33333 h 20 v -13.33333 c 0,-7.33334 0.45,-13.33465 1,-13.33624 0.55,-0.002 0.810152,5.9984 0.578116,13.33333 l -0.421886,13.33624 H 185.91145 C 274.41493,134.66667 320,135.11995 320,136 c 0,0.88004 -45.55556,1.33334 -134,1.33334 H 52 V 154 170.66667 h 134 c 88.44444,0 134,0.45329 134,1.33333 0,0.88004 -45.55556,1.33334 -134,1.33334 H 52 V 188 202.66667 h 134 c 88.44444,0 134,0.45329 134,1.33333 0,0.88004 -45.55556,1.33334 -134,1.33334 H 52 V 220.66667 236 h 134 c 88.44444,0 134,0.4533 134,1.33334 0,0.88004 -45.55556,1.33333 -134,1.33333 H 52 v 15.33334 15.33333 h 133.33333 c 88,0 133.33334,0.45333 133.33334,1.33333 0,0.88 -45.33334,1.33334 -133.33334,1.33334 H 52 v 15.32636 15.32634 l 122.33333,0.34738 122.33334,0.34738 -122.24478,0.32627 -122.244763,0.32627 -0.555455,3.66666 -0.555453,3.66667 z M 62.4776,110.94088 c -0.390815,-2.45314 0.08512,-5.90534 1.07798,-7.81907 2.368669,-4.565617 2.440307,-4.455141 -2.888913,-4.455141 -2.740742,0 -4.666667,0.660317 -4.666667,1.600001 0,1.24444 -0.355556,1.24444 -1.6,0 -1.110051,-1.110052 -8.081099,-1.600001 -22.764945,-1.600001 H 10.47011 l 0.431612,-27.000001 c 0.416452,-26.05167 0.557121,-27.267784 4.005019,-34.624087 4.168382,-8.8935 13.704387,-19.587254 21.568122,-24.186664 13.134576,-7.6822676 10.396645,-7.5225836 128.981687,-7.5225836 104.21442,0 109.33649,0.113276 117.30804,2.5943026 16.42369,5.111628 29.05568,17.070981 34.89754,33.03932 2.3873,6.525473 2.90395,11.512317 3.38782,32.699712 l 0.57092,25.000001 -9.81043,0.01419 c -5.39575,0.0077 -62.35568,0.0015 -126.57765,-0.01397 l -116.767218,-0.02816 -1.769287,3.305941 c -0.973106,1.81827 -2.162952,5.57456 -2.644098,8.34731 l -0.874812,5.04137 z m -42.810933,-1.2572 c 3.85,-0.26934 10.15,-0.26934 14,0 3.85,0.26934 0.7,0.4897 -7,0.4897 -7.7,0 -10.85,-0.22036 -7,-0.4897 z m 58,-2.60278 c 1.283333,-0.33537 3.383333,-0.33537 4.666666,0 1.283334,0.33537 0.233334,0.60976 -2.333333,0.60976 -2.566667,0 -3.616667,-0.27439 -2.333333,-0.60976 z m 66.692043,-1.33822 c 1.29729,-0.33806 3.09729,-0.31582 4,0.0494 0.9027,0.36523 -0.15871,0.64182 -2.35871,0.61465 -2.2,-0.0272 -2.93859,-0.326 -1.64129,-0.66405 z M 173,105.72569 c 1.65,-0.3178 4.35,-0.3178 6,0 1.65,0.31781 0.3,0.57783 -3,0.57783 -3.3,0 -4.65,-0.26002 -3,-0.57783 z m 34.66667,0.0579 c 0.91666,-0.36988 2.41666,-0.36988 3.33333,0 0.91667,0.36989 0.16667,0.67252 -1.66667,0.67252 -1.83333,0 -2.58333,-0.30263 -1.66666,-0.67252 z m -85.33334,-1.33333 c 0.91667,-0.36988 2.41667,-0.36988 3.33334,0 0.91666,0.36989 0.16666,0.67252 -1.66667,0.67252 -1.83333,0 -2.58333,-0.30263 -1.66667,-0.67252 z m 102.75,-0.0278 c 0.9625,-0.38516 2.1125,-0.33779 2.55556,0.10526 0.44306,0.44306 -0.34445,0.75819 -1.75,0.7003 -1.55326,-0.064 -1.8692,-0.37992 -0.80556,-0.80556 z m -124.72462,-1.34651 c 1.29729,-0.33805 3.09729,-0.31582 4,0.0494 0.90271,0.36524 -0.15871,0.64183 -2.35871,0.61466 -2.2,-0.0272 -2.938581,-0.326 -1.64129,-0.66406 z M 267.75,100.42252 c 0.96249,-0.38516 2.11249,-0.3378 2.55556,0.10526 0.44305,0.44306 -0.34445,0.75819 -1.75,0.7003 -1.55327,-0.064 -1.8692,-0.37992 -0.80556,-0.80556 z"
       id="path837"
       inkscape:connector-curvature="0" />
    <path
       style="fill:#0f0f86;stroke-width:1.33333337"
       d="m 51.300696,209.33334 c 0,-56.1 0.164473,-79.05 0.365496,-51 0.201021,28.05 0.201021,73.95 0,102 -0.201023,28.05 -0.365496,5.1 -0.365496,-51 z M 10.901722,71.666668 c 0.416452,-26.05167 0.557121,-27.267784 4.005019,-34.624087 4.168382,-8.8935 13.704387,-19.587254 21.568122,-24.186664 13.134576,-7.6822676 10.396645,-7.5225836 128.981687,-7.5225836 104.21442,0 109.33649,0.113276 117.30804,2.5943026 16.42369,5.111628 29.05568,17.070981 34.89754,33.03932 2.3873,6.525473 2.90395,11.512317 3.38782,32.699712 l 0.57092,25.000001 H 166.04549 10.47011 Z"
       id="path835"
       inkscape:connector-curvature="0" />
    <path
       style="fill:#000077;stroke-width:1.33333337"
       d="m 51.300696,209.33334 c 0,-56.1 0.164473,-79.05 0.365496,-51 0.201021,28.05 0.201021,73.95 0,102 -0.201023,28.05 -0.365496,5.1 -0.365496,-51 z M 10.666667,74.694667 c 0,-20.732951 0.377194,-25.121014 2.791589,-32.475769 C 18.41576,27.117302 29.679548,15.278386 44.956919,9.1119175 L 52.666667,6.0000001 160.66667,5.5942928 c 77.19832,-0.2899994 110.26642,0.030055 115.94677,1.1222049 17.01687,3.2718018 31.85308,14.7651543 39.14648,30.3260833 3.44791,7.356303 3.58857,8.572417 4.00503,34.624087 l 0.43161,27.000001 H 165.43161 10.666667 Z"
       id="path833"
       inkscape:connector-curvature="0" />
    <path
       style="fill:#000060;stroke-width:1.33333337"
       d="m 10.879429,72.333335 0.453904,-26.333334 4.257511,-8.98767 C 23.425961,20.472282 37.957979,9.5803063 56,6.7250359 66.864241,5.0056969 262.53117,4.8852385 274.32219,6.5906301 292.12096,9.1649537 307.22195,20.014587 315.01163,35.824849 l 4.3217,8.771517 0.43162,27.035151 0.43161,27.035152 H 165.31104 10.425525 Z"
       id="path831"
       inkscape:connector-curvature="0" />
    <path
       style="fill:#00005b;stroke-width:1.33333337"
       d="M 10.951094,73.000001 C 11.567986,43.11545 13.219856,36.863587 23.528561,25.397825 l 6.051891,-6.731158 h 136.439218 136.4392 l 4.80792,5.616971 c 2.64436,3.089335 6.43122,8.939335 8.41525,13 3.49629,7.15576 3.62192,8.214163 4.08116,34.38303 l 0.47383,27.000001 H 165.32915 10.42127 Z"
       id="path829"
       inkscape:connector-curvature="0" />
    <path
       style="fill:#000052;stroke-width:1.33333337"
       d="M 10.95394,73.000001 C 11.401533,51.432753 11.906943,46.26855 14.118336,40.666668 l 2.631727,-6.666667 148.364047,-0.339138 148.36404,-0.339137 2.92758,6.339137 c 2.6422,5.721149 2.96986,8.906319 3.36102,32.672472 l 0.43341,26.333334 H 165.31072 10.42127 Z"
       id="path827"
       inkscape:connector-curvature="0" />
    <path
       style="fill:#00004b;stroke-width:1.33333337"
       d="m 10.666667,76.775718 c 0,-12.040022 0.364193,-22.840022 0.809318,-24.000001 0.731523,-1.906316 15.598875,-2.109049 154.666665,-2.109049 H 320 v 24 24.000001 H 165.33333 10.666667 Z"
       id="path825"
       inkscape:connector-curvature="0" />
    <path
       style="fill:#000043;stroke-width:1.33333337"
       d="M 10.666667,81.333335 V 64.000001 H 165.33333 320 V 81.333335 98.666669 H 165.33333 10.666667 Z"
       id="path823"
       inkscape:connector-curvature="0" />
    <path
       style="fill:#00003c;stroke-width:1.33333337"
       d="M 10.666667,89.333335 V 80.000002 H 165.33333 320 v 9.333333 9.333334 H 165.33333 10.666667 Z"
       id="path821"
       inkscape:connector-curvature="0" />
    <path
       style="fill:#000036;stroke-width:1.33333337"
       d="m 10.666667,96.000002 c 0,-2.651341 0.888889,-2.666667 154.666663,-2.666667 153.77778,0 154.66667,0.01532 154.66667,2.666667 0,2.651341 -0.88889,2.666667 -154.66667,2.666667 -153.777774,0 -154.666663,-0.01533 -154.666663,-2.666667 z"
       id="path819"
       inkscape:connector-curvature="0" />
  </g>
</svg>
