<?xml version="1.0" encoding="UTF-8" standalone="no"?>
<svg
   xmlns:dc="http://purl.org/dc/elements/1.1/"
   xmlns:cc="http://creativecommons.org/ns#"
   xmlns:rdf="http://www.w3.org/1999/02/22-rdf-syntax-ns#"
   xmlns:svg="http://www.w3.org/2000/svg"
   xmlns="http://www.w3.org/2000/svg"
   xmlns:sodipodi="http://sodipodi.sourceforge.net/DTD/sodipodi-0.dtd"
   xmlns:inkscape="http://www.inkscape.org/namespaces/inkscape"
   width="20"
   height="20"
   version="1.1"
   viewBox="0 0 20 20.000206"
   id="svg66"
   sodipodi:docname="task_remark_red_20x20.svg"
   inkscape:version="0.92.2 5c3e80d, 2017-08-06">
  <metadata
     id="metadata72">
    <rdf:RDF>
      <cc:Work
         rdf:about="">
        <dc:format>image/svg+xml</dc:format>
        <dc:type
           rdf:resource="http://purl.org/dc/dcmitype/StillImage" />
        <dc:title></dc:title>
      </cc:Work>
    </rdf:RDF>
  </metadata>
  <defs
     id="defs70" />
  <sodipodi:namedview
     pagecolor="#ffffff"
     bordercolor="#666666"
     borderopacity="1"
     objecttolerance="10"
     gridtolerance="10"
     guidetolerance="10"
     inkscape:pageopacity="0"
     inkscape:pageshadow="2"
     inkscape:window-width="938"
     inkscape:window-height="778"
     id="namedview68"
     showgrid="false"
     inkscape:zoom="16.41432"
     inkscape:cx="10.91685"
     inkscape:cy="7.5818429"
     inkscape:window-x="0"
     inkscape:window-y="0"
     inkscape:window-maximized="0"
     inkscape:current-layer="svg66" />
  <g
     transform="matrix(0.06051303,0,0,0.06226993,0.08267502,-0.1459777)"
     id="g64"
     style="stroke-width:1.33329999">
    <path
       d="M 29.066,321.32 C 20.7135,315.7875 11.577,305.706 7.343,297.351 0.1484,283.153 0.0485,281.396 0.0235,168.581 0.00818,99.701 0.48758,61.821 1.4408,56.581 5.5067,34.249 22.3148,15.094 44.5278,7.478 c 7.9539,-2.7269 10.574,-2.7993 115.25,-3.1854 120.68,-0.44513 122.76,-0.32072 138.07,8.2415 15.168,8.4827 27.816,25.448 31.412,42.135 1.1663,5.4127 1.4703,36.318 1.1606,118 l -0.41956,110.67 -3.9344,8.6667 c -5.3349,11.752 -13.217,21.671 -22.278,28.034 l -7.5453,5.2992 h -261.12 z"
       id="path2"
       inkscape:connector-curvature="0"
       style="fill:#f3f3f3" />
    <path
       d="M 32.131,320.33 C 21.782,314.2239 13.51,304.822 7.708,292.568 l -4.3746,-9.2379 -0.37022,-111.97 c -0.35864,-108.47 -0.28742,-112.24 2.2779,-120.67 1.4565,-4.7816 4.4612,-11.546 6.6772,-15.032 5.9812,-9.409 18.277,-20.532 28.054,-25.379 l 8.6386,-4.2827 h 233.39 l 8.6667,4.1321 c 9.5372,4.5472 22.902,16.493 28.449,25.43 1.8988,3.0589 4.8246,9.3589 6.5018,14 l 3.0495,8.4383 v 220 l -3.1037,8.6667 c -5.7705,16.113 -17.072,29.63 -30.01,35.894 -5.6765,2.748 -6.8592,2.7731 -130.34,2.7731 h -124.61 z"
       id="path4"
       inkscape:connector-curvature="0"
       style="fill:#f1eeee" />
    <path
       d="M 35.981,321.67 C 26.7442,316.9815 14.782,305.104 10.745,296.614 3.0223,280.37 3.4204,286.6486 2.9722,174.024 2.70082,105.827 3.042079,66.824 3.96387,60.694 c 3.006,-20.008 18.505,-41.818 35.751,-50.308 l 8.896,-4.3796 h 233.39 l 8.6667,4.1154 c 13.789,6.5476 27.53,22.288 33.654,38.551 l 3.0126,8 0.37822,107.6 c 0.41086,116.89 0.40292,117.04 -6.9735,131.59 -4.4892,8.8591 -14.454,19.156 -23.993,24.793 l -7.9216,4.6811 h -245.62 z"
       id="path6"
       inkscape:connector-curvature="0"
       style="fill:#eceaea" />
    <path
       d="M 37.602,320.95 C 26.922,315.4989 16.26,305.033 11.514,295.34 3.9313,279.854 3.8744,278.816 4.2883,163.53 L 4.6672,58 7.6874,49.6488 c 3.9974,-11.053 13.256,-25.299 20.439,-31.447 3.1862,-2.7272 9.1113,-6.5883 13.167,-8.5801 l 7.3739,-3.6215 h 233.39 l 8.7582,4.3115 c 15.343,7.5533 29.486,26.181 33.813,44.536 3.0474,12.927 3.0132,213.01 -0.0387,226.43 -3.9331,17.293 -15.57,31.967 -31.801,40.104 l -7.8797,3.95 -119.45,-0.047 -119.45,-0.0469 z"
       id="path8"
       inkscape:connector-curvature="0"
       style="fill:#e5e3e3" />
    <path
       d="M 43.856,322.21 C 32.846,317.6587 27.387,313.921 20.874,306.476 13.4317,297.9683 9.716,290.468 7.304,279.083 4.4473,265.601 4.462,70.333 7.320704,56.843 c 4.6216,-21.814 16.771,-38.77 33.756,-47.111 l 7.5896,-3.727 H 281.9963 l 7.6702,3.5945 c 11.294,5.2926 21.51,15.6 27.066,27.308 8.7516,18.442 8.5579,15.475 8.5579,131.1 0,112.16 -0.0904,113.85 -6.7884,126.98 -4.62,9.056 -16.647,20.618 -26.426,25.404 l -8.7467,4.2805 -116,0.31686 -115.999996,0.31684 z"
       id="path10"
       inkscape:connector-curvature="0"
       style="fill:#e0dcdc" />
    <path
       d="M 51.333,323.44 C 35.664,319.5196 23.413,310.636 15.334,297.336 6.5021,282.797 6.5222,283.122 7.0325,163.536 7.47553,59.706 7.56732,56.416 10.2582,47.916 11.7815,43.1014 14.3622,36.547 15.9931,33.35 20.2298,25.0454 31.3541,14.482 40.6661,9.921 l 8,-3.9181 h 233.33 l 7.6702,3.5945 c 9.8564,4.619 21.415,15.574 25.597,24.26 1.804,3.747 4.5068,11.576 6.0064,17.397 2.6344,10.227 2.7265,14.151 2.7265,116.27 0,71.676 -0.47185,107.96 -1.4664,112.75 -4.4005,21.204 -23.393,39.597 -45.146,43.722 -11,2.0861 -217.53,1.5825 -226.05,-0.55127 z"
       id="path12"
       inkscape:connector-curvature="0"
       style="fill:#d9d5d5" />
    <path
       d="M 56,323.1 C 31.707,318.8981 13.453,300.986 9.361,277.335 8.3082,271.2506 7.9951,236.694 8.3099,161.335 8.79552,45.085 8.63096,47.775 16.1393,33.065 20.2423,25.0224 31.4733,14.426 40.6663,9.923 l 8,-3.9181 h 233.33 l 7.6241,3.5734 c 14.015,6.5689 24.672,18.854 29.863,34.427 2.2785,6.8351 2.4734,14.945 2.8684,119.37 0.40405,106.82 0.30641,112.41 -2.0988,120.14 -5.2675,16.924 -18.159,30.727 -34.443,36.876 l -7.8136,2.9507 -109.33,0.17033 c -60.133,0.0937 -110.83,-0.0891 -112.67,-0.40622 z"
       id="path14"
       inkscape:connector-curvature="0"
       style="fill:#d0cbcb" />
    <path
       d="M 48.634,320.18 C 29.843,314.7974 14.289,297.771 10.654,278.603 8.8507,269.0944 8.8796,58.783 10.68553,49.183 c 3.1008,-16.472 14.843,-31.85 29.981,-39.264 l 8,-3.9181 h 233.33 l 7.5669,3.5472 c 13.849,6.4919 25.143,19.532 29.84,34.453 2.0782,6.6016 2.3668,17.178 2.8932,106 0.65094,109.85 -0.0373,127.63 -5.4096,139.68 -4.5081,10.116 -12.449,19.35 -21.164,24.611 -14.14,8.5352 -11.744,8.3838 -131.01,8.2789 -98.160998,-0.0863 -108.789998,-0.30567 -116.089998,-2.396 z"
       id="path16"
       inkscape:connector-curvature="0"
       style="fill:#cac4c4" />
    <path
       d="M 48.634,318.86 C 27.629,312.7941 13.558,294.927 10.593,270.556 9.73449,263.5003 9.3709,219.968 9.61397,153.336 l 0.38663,-106 2.9905,-7.3333 c 6.3821,-15.65 19.714,-28.081 34.98,-32.616 6.6209,-1.9668 18.778,-2.1466 120.7,-1.7857 l 113.33,0.40138 7.3333,3.4629 c 11.381,5.3743 20.488,14.456 26.312,26.238 l 5.0212,10.158 0.39142,108.07 c 0.25023,69.089 -0.10573,111.84 -0.98701,118.52 -2.7101,20.543 -15.521,38.04 -33.025,45.105 l -7.7128,3.113 -111.33,0.25712 c -102.29,0.23623 -111.99,0.0685 -119.37,-2.0627 z"
       id="path18"
       inkscape:connector-curvature="0"
       style="fill:#c1b9b9" />
    <path
       d="M 53.227,318.67 C 35.524,315.6099 20.635,301.384 13.694,280.897 L 10.0002,269.995 V 47.325 l 2.9905,-7.3333 c 6.1262,-15.023 17.673,-26.148 33.151,-31.938 7.3685,-2.7569 8.6335,-2.7821 121.65,-2.4237 l 114.21,0.36212 7.3333,3.4629 c 11.382,5.3748 20.489,14.456 26.312,26.239 l 5.0212,10.16 v 226.8 l -3.6167,9.7533 c -6.1901,16.693 -14.701,26.127 -30.069,33.329 l -7.6473,3.584 -110,0.19852 c -60.5,0.1092 -112.75,-0.27645 -116.11,-0.85696 z"
       id="path20"
       inkscape:connector-curvature="0"
       style="fill:#b6adad" />
    <path
       d="M 53.807,317.28 C 45.2647,315.5893 34.859,309.7076 28.059,302.726 20.7784,295.2512 12.769,279.424 10.756,268.534 8.8609,258.282 8.7975,59.214 10.686135,49.184 c 3.1855,-16.922 14.479,-31.417 30.327,-38.924 l 8.9877,-4.2575 H 282.00083 l 7.3333,3.4629 c 11.38101,5.3742 20.488,14.456 26.31201,26.238 l 5.0212,10.158 0.41988,108.74 c 0.30988,80.247 0.005,110.66 -1.1615,116.07 -2.16001,10.017 -9.1196,23.408 -16.33801,31.436 -6.31939,7.0287 -16.49099,12.865 -26.40699,15.151 -7.08621,1.6336 -215.130005,1.659 -223.370005,0.0272 z"
       id="path22"
       inkscape:connector-curvature="0"
       style="fill:#aea3a3" />
    <path
       d="M 56,315.99 C 45.348,314.1679 35.158,308.3086 27.289,299.481 18.1945,289.278 12.653,278.962 10.783,268.752 8.8624,258.268 8.7743,59.332 10.68571,49.182 c 3.1855,-16.922 14.479,-31.417 30.327,-38.924 l 8.9877,-4.2575 h 232 l 7.3333,3.4629 c 11.381,5.3742 20.488,14.456 26.312,26.238 l 5.0212,10.158 0.40722,108.74 c 0.30378,81.111 -0.001,110.71 -1.2017,116.5 -3.0674,14.792 -17.68,33.682 -31.154,40.274 -3.7703,1.8446 -10.424,3.9384 -14.787,4.6527 -9.3839,1.5367 -208.94,1.5132 -217.93,-0.0257 z"
       id="path24"
       inkscape:connector-curvature="0"
       style="fill:#d18f8f" />
    <path
       d="m 56,315.96 c -8.1535,-1.4374 -17.781,-5.9328 -23.545,-10.994 -7.1648,-6.2908 -17.621,-21.947 -19.746,-29.568 -1.5287,-5.4808 -1.9553,-27.076 -2.2924,-116.07 -0.38859,-102.56 -0.26474,-109.79 1.9985,-116.67 3.5895,-10.91 11.267,-21.136 20.729,-27.611 14.863,-10.171 8.7527,-9.722 132.19,-9.722 97.088,0 111.04,0.25337 117.36,2.1319 18.674,5.5455 33.095,21.181 37.141,40.267 1.9276,9.0944 2.1054,211.37 0.19463,221.44 -1.5878,8.3726 -6.9771,19.682 -12.245,25.697 -12.338,14.087 -20.015,18.883 -33.854,21.149 -9.5012,1.5559 -209.08,1.5036 -217.93,-0.0571 z"
       id="path26"
       inkscape:connector-curvature="0"
       style="fill:#a49999" />
    <path
       d="M 50.1,312.47 C 32.999,307.2211 16.308,290.277 12.208,274.005 11.37816,270.7112 10.6994,226.861 10.4331,159.335 10.02848,56.755 10.15079,49.545 12.4146,42.665 c 3.5895,-10.91 11.267,-21.136 20.729,-27.611 14.863,-10.171 8.7527,-9.722 132.19,-9.722 97.088,0 111.04,0.25337 117.36,2.1319 18.674,5.5455 33.095,21.181 37.141,40.267 1.9276,9.0944 2.1054,211.37 0.19463,221.44 -3.6783,19.395 -19.64,36.998 -39.017,43.029 -7.438,2.315 -14.474,2.4586 -116.13,2.3714 -92.592,-0.0795 -109.16,-0.38386 -114.78,-2.1085 z"
       id="path28"
       inkscape:connector-curvature="0"
       style="fill:#9d9090" />
    <path
       d="M 51.001,311.3 C 36.683,307.3988 26.313,299.919 18.638,287.959 10.7891,275.728 11.0175,279.3145 10.4899,159.969 10.0334,56.699 10.15076,49.559 12.4156,42.669 16.0033,31.76 23.6806,21.533 33.1436,15.058 c 14.863,-10.171 8.7527,-9.722 132.19,-9.722 97.088,0 111.04,0.25337 117.36,2.1319 18.674,5.5455 33.095,21.181 37.141,40.267 1.9276,9.0944 2.1054,211.37 0.19463,221.44 -3.1991,16.869 -14.221,30.759 -30.697,38.683 l -10,4.81 -110.67,0.26795 c -92.437,0.2238 -111.82,-0.0463 -117.67,-1.6391 z"
       id="path30"
       inkscape:connector-curvature="0"
       style="fill:#b16969" />
    <path
       d="m 55.333,312.01 c -18.97,-2.829 -35.812,-17.062 -42.051,-35.536 -2.5868,-7.66 -2.6508,-10.985 -2.3048,-119.84 l 0.35584,-111.96 3.8258,-8.2821 c 4.7411,-10.264 16.353,-21.721 27.133,-26.773 l 7.7083,-3.612 h 230.67 l 8.6667,4.1677 c 15.814,7.6045 25.714,19.434 29.944,35.779 3.0755,11.885 3.0867,213.54 0.012,225.34 -5.7919,22.237 -22.693,37.568 -44.967,40.789 -9.8937,1.431 -209.35,1.3676 -218.99,-0.0696 z"
       id="path32"
       inkscape:connector-curvature="0"
       style="fill:#c64c4c" />
    <path
       d="M 48.667,310.15 C 33.327,305.243 22.231,295.675 15.566,281.606 l -4.2325,-8.9343 v -228 l 3.5734,-7.6241 c 4.1684,-8.8935 13.704,-19.587 21.568,-24.187 13.135,-7.6823 10.397,-7.5226 128.98,-7.5226 104.21,0 109.34,0.11328 117.31,2.5943 16.369,5.0947 28.9,16.927 34.991,33.039 2.8884,7.6408 2.9136,8.4951 3.293,111.7 0.40476,110.11 0.1028,116.97 -5.7127,129.69 -4.1846,9.1542 -15.29,20.137 -25.336,25.058 l -8,3.9181 -114,0.25905 c -89.515,0.2034 -115.15,-0.10733 -119.33,-1.447 z"
       id="path34"
       inkscape:connector-curvature="0"
       style="fill:#e22e2e" />
    <path
       d="m 48,309.51 c -4.0333,-1.3119 -9.1867,-3.3535 -11.452,-4.5369 -6.8369,-3.5718 -18.692,-17.478 -22.102,-25.926 l -3.113,-7.7128 v -226.67 l 3.5734,-7.6241 c 4.1684,-8.8935 13.704,-19.587 21.568,-24.187 13.135,-7.6823 10.397,-7.5226 128.98,-7.5226 104.21,0 109.34,0.11328 117.31,2.5943 16.399,5.1039 28.986,17.006 34.94,33.039 2.8527,7.6815 2.8584,7.9608 2.4189,118.31 -0.34124,85.668 -0.82639,111.71 -2.1511,115.46 -5.2899,14.993 -15.016,26.025 -28.635,32.48 l -8.6705,4.1091 -112.67,0.28037 c -105.06,0.26146 -113.16,0.11947 -120,-2.1048 z"
       id="path36"
       inkscape:connector-curvature="0"
       style="fill:#ec0000" />
    <path
       d="m 62.88,308.33 c -0.20279,-4.1183 -0.47364,-4.3333 -5.4582,-4.3333 -4.698,0 -5.3027,0.38224 -5.8002,3.6667 l -0.55545,3.6667 -0.19978,-3.7366 c -0.19732,-3.6906 -0.29828,-3.733 -8.2031,-3.4478 -4.4018,0.15886 -8.4018,-0.10973 -8.8889,-0.59677 -0.48707,-0.48707 3.1144,-0.88559 8.0033,-0.88559 h 8.8889 v -30.667 h -19.333 c -12,0 -19.333,-0.50575 -19.333,-1.3333 0,-0.82758 7.3333,-1.3333 19.333,-1.3333 h 19.333 v -30.667 h -20 c -12.444,0 -20,-0.50371 -20,-1.3333 0,-0.82963 7.5556,-1.3333 20,-1.3333 h 20 v -30.667 h -20 c -12.444,0 -20,-0.50371 -20,-1.3333 0,-0.82962 7.5556,-1.3333 20,-1.3333 h 20 v -29.333 h -20 c -12.444,0 -20,-0.50371 -20,-1.3333 0,-0.82962 7.5556,-1.3333 20,-1.3333 h 20 v -33.333 h -20 c -12.444,0 -20,-0.50371 -20,-1.3333 0,-0.82962 7.5556,-1.3333 20,-1.3333 h 20 v -20 h -40 v -6.5972 l 20.333,-0.40548 20.333,-0.40548 -20.422,-0.29591 -20.422,-0.29592 0.42199,-31 c 0.41402,-30.415 0.48947,-31.144 3.9954,-38.624 4.1684,-8.8935 13.704,-19.587 21.568,-24.187 13.135,-7.6823 10.397,-7.5226 128.98,-7.5226 104.21,0 109.34,0.11328 117.31,2.5943 16.424,5.1116 29.056,17.071 34.898,33.039 2.3874,6.5258 2.904,11.512 3.388,32.708 l 0.57108,25.008 -4.9426,2.0652 c -3.0573,1.2774 -12.648,2.5511 -25.144,3.3392 -11.111,0.70073 -29.201,2.1586 -40.201,3.2398 -47.905,4.7084 -71.85,5.0827 -126,1.9698 -21.195,-1.2184 -25.605,-1.13 -31.333,0.62834 -3.6667,1.1255 -10.042,2.0528 -14.167,2.0608 -4.125,0.008 -9.375,0.38943 -11.667,0.84777 l -4.1667,0.83333 v 21 h 128 c 84.444,0 128,0.45371 128,1.3333 0,0.87963 -43.556,1.3333 -128,1.3333 h -128 v 33.333 h 128 c 84.444,0 128,0.45371 128,1.3333 0,0.87963 -43.556,1.3333 -128,1.3333 h -128 v 29.333 h 128 c 84.444,0 128,0.45371 128,1.3333 0,0.87963 -43.556,1.3333 -128,1.3333 h -128 v 30.667 h 128 c 84.444,0 128,0.45371 128,1.3333 0,0.87962 -43.556,1.3333 -128,1.3333 h -128 v 30.667 h 128.08 c 85.046,0 127.8,0.44797 127.25,1.3333 -0.54005,0.87382 -44.68,1.3333 -128.08,1.3333 h -127.25 v 30.652 l 117,0.34799 117,0.348 -116.92,0.32595 -116.92,0.32596 -0.53776,4.3333 -0.53776,4.3333 z m -0.21338,-21 v -15.333 h -10.667 v 30.667 h 10.667 z m 0,-33.333 v -15.333 h -10.667 v 30.667 h 10.667 z m 0,-33.333 v -15.333 h -10.667 v 30.667 h 10.667 z m 0,-32.667 V 173.33 h -10.667 v 29.333 h 10.667 z m 0,-34 V 137.33 h -10.667 v 33.333 h 10.667 z m 0,-30 V 113.33 h -10.667 v 21.333 h 10.667 z m 153.33,-21.239 12.667,-1.2877 -12,0.56743 c -6.6,0.31209 -15,0.97981 -18.667,1.4838 -6.0231,0.82792 -6.4962,0.70947 -4.9007,-1.227 0.97128,-1.1789 3.6713,-2.3821 6,-2.6738 l 4.234,-0.53036 -4.1701,-0.21338 c -2.3129,-0.11835 -4.9093,0.67735 -5.8299,1.7866 -1.3597,1.6384 -5.879,2 -24.993,2 -22.03,0 -23.231,-0.13029 -21.503,-2.3333 1.6066,-2.0486 1.5782,-2.1374 -0.23326,-0.72762 -1.1348,0.88314 -6.8348,1.8124 -12.667,2.065 l -10.604,0.45929 11.079,0.26832 c 6.0933,0.14758 10.8,0.71833 10.458,1.2683 -0.34112,0.55 10.175,0.82343 23.37,0.60763 14.036,-0.22957 23.681,0.10697 23.246,0.81105 -0.4392,0.71064 1.8341,0.74478 5.5515,0.0834 3.4624,-0.61603 11.995,-1.6995 18.962,-2.4077 z m -154.98,1.6562 c -1.2748,-0.33373 -3.6748,-0.34583 -5.3333,-0.0269 -1.6585,0.31892 -0.61554,0.59197 2.3178,0.60677 2.93334,0.0148 4.2903,-0.24614 3.0155,-0.57986 z m 33.339,-1.7144 c 1.8684,-1.1362 1.6213,-1.2501 -1.2872,-0.59347 -1.9797,0.44697 -9.1797,1.3194 -16,1.9389 l -12.4,1.1262 13.688,-0.53271 c 7.5282,-0.29299 14.728,-1.1655 16,-1.9389 z m -41.021,-2.0718 c 0,-1.7495 -2.7486,-1.9838 -19.557,-1.6667 -14.19,0.26772 -19.709,0.82636 -20.111,2.0356 -0.42679,1.2842 4.0618,1.6667 19.557,1.6667 17.144,0 20.111,-0.30032 20.111,-2.0356 z m 63.711,-0.27591 c -3.4588,-0.27366 -9.4588,-0.2765 -13.333,-0.006 -3.8746,0.27014 -1.0447,0.49405 6.2886,0.49752 7.3333,0.003 10.503,-0.21759 7.0447,-0.49125 z m 135.62,-0.26039 c 3.3918,-0.68999 0.23686,-0.83745 -8.6667,-0.40507 -7.7,0.37393 -14.25,0.89673 -14.556,1.1618 -1.0773,0.93447 17.958,0.3142 23.222,-0.75671 z m -188.98,-1.0108 c -1.2748,-0.33372 -3.6748,-0.34583 -5.3333,-0.02691 -1.6585,0.31892 -0.61555,0.59197 2.3178,0.60677 2.9333,0.0148 4.2903,-0.24614 3.0155,-0.57986 z m 18.651,-0.05518 c -2.75,-0.28766 -7.25,-0.28766 -10,0 -2.75,0.28766 -0.5,0.52302 5,0.52302 5.5,0 7.75,-0.23536 5,-0.52302 z"
       id="path38"
       inkscape:connector-curvature="0"
       style="fill:#d80000" />
    <path
       d="m 62.88,308.33 c -0.20279,-4.1183 -0.47364,-4.3333 -5.4582,-4.3333 -4.698,0 -5.3027,0.38224 -5.8002,3.6667 l -0.55545,3.6667 -0.19978,-3.6058 c -0.19353,-3.4931 -0.481,-3.6203 -9.1998,-4.0722 l -9,-0.46644 9,-0.26115 9,-0.26115 v -30.667 h -19.333 c -12,0 -19.333,-0.50575 -19.333,-1.3333 0,-0.82758 7.3333,-1.3333 19.333,-1.3333 h 19.333 v -30.667 h -20 c -12.444,0 -20,-0.50371 -20,-1.3333 0,-0.82963 7.5556,-1.3333 20,-1.3333 h 20 v -30.667 h -20 c -12.444,0 -20,-0.50371 -20,-1.3333 0,-0.82962 7.5556,-1.3333 20,-1.3333 h 20 v -29.333 h -20 c -12.444,0 -20,-0.50371 -20,-1.3333 0,-0.82962 7.5556,-1.3333 20,-1.3333 h 20 v -33.333 h -20 c -12.444,0 -20,-0.50371 -20,-1.3333 0,-0.82962 7.5556,-1.3333 20,-1.3333 h 20 l 0.0019,-11 0.0019,-11 -16.8,0.44487 c -17.241,0.45656 -23.204,-0.1782 -23.204,-2.4703 0,-0.79288 7.4821,-1.316 19,-1.3284 19.215,-0.0207 21.667,-0.45835 21.667,-3.8685 0,-1.0389 0.70279,-2.1232 1.5618,-2.4095 0.99357,-0.33119 1.3008,0.47729 0.84449,2.2222 -0.60786,2.3245 -0.09837,2.7428 3.3406,2.7428 3.2203,0 4.4908,-0.86786 6.1555,-4.2048 1.1537,-2.3127 2.0977,-4.4127 2.0977,-4.6667 0,-1.3348 -9.2284,-0.21043 -9.8889,1.2049 -0.62222,1.3333 -0.93333,1.3333 -1.5556,0 -0.56998,-1.2214 -5.9632,-1.6667 -20.186,-1.6667 -16.898,0 -19.645,0.30177 -21.238,2.3333 -1.5633,1.9936 -1.7789,-1.9381 -1.4803,-27 0.34159,-28.677 0.42938,-29.504 3.9228,-36.957 4.1684,-8.8935 13.704,-19.587 21.568,-24.187 13.135,-7.6823 10.397,-7.5226 128.98,-7.5226 104.21,0 109.34,0.11328 117.31,2.5943 16.424,5.1116 29.056,17.071 34.898,33.039 2.384,6.5165 2.904,11.512 3.3841,32.505 l 0.56726,24.805 -11.998,2.195 c -6.5988,1.2073 -17.612,2.2258 -24.473,2.2635 -6.8616,0.0376 -16.676,0.60564 -21.809,1.2622 -9.3054,1.1902 -59.071,5.2937 -66.667,5.4972 -12.011,0.32176 -36.949,-0.32826 -65.021,-1.6948 -23.406,-1.1394 -32.989,-1.1532 -36.667,-0.0529 -2.7385,0.81931 -10.829,1.9 -17.979,2.4016 l -13,0.91189 v 23.606 h 128 c 84.444,0 128,0.45371 128,1.3333 0,0.87963 -43.556,1.3333 -128,1.3333 h -128 v 33.333 h 128 c 84.444,0 128,0.45371 128,1.3333 0,0.87963 -43.556,1.3333 -128,1.3333 h -128 v 29.333 h 128 c 84.444,0 128,0.45371 128,1.3333 0,0.87963 -43.556,1.3333 -128,1.3333 h -128 v 30.667 h 128 c 84.444,0 128,0.45371 128,1.3333 0,0.87962 -43.556,1.3333 -128,1.3333 h -128 v 30.667 h 128.08 c 85.046,0 127.8,0.44797 127.25,1.3333 -0.54005,0.87382 -44.68,1.3333 -128.08,1.3333 h -127.25 v 30.652 l 117,0.34799 117,0.348 -116.92,0.32595 -116.92,0.32596 -0.53776,4.3333 -0.53776,4.3333 z m -0.21338,-21 v -15.333 h -10.667 v 30.667 h 10.667 z m 0,-33.333 v -15.333 h -10.667 v 30.667 h 10.667 z m 0,-33.333 v -15.333 h -10.667 v 30.667 h 10.667 z m 0,-32.667 V 173.33 h -10.667 v 29.333 h 10.667 z m 0,-34 V 137.33 h -10.667 v 33.333 h 10.667 z m 0,-31.414 v -12.08 l -5,0.41383 -5,0.41382 -0.38524,11.667 -0.38524,11.667 h 10.77 z m 29.852,-18.197 c 5.6798,-1.7949 9.9673,-1.8638 33.333,-0.53569 28.472,1.6183 80.13,2.2216 86.815,1.0138 2.2,-0.39744 7.6,-0.78614 12,-0.86379 4.4,-0.0776 14.6,-1.0022 22.667,-2.0546 8.0667,-1.0524 16.767,-2.1292 19.333,-2.393 2.5667,-0.26375 -7.9125,-0.53805 -23.287,-0.60955 -19.845,-0.09229 -28.525,0.33171 -29.923,1.4617 -1.5463,1.2501 -1.7527,1.2319 -0.9615,-0.0848 0.8042,-1.3384 -13.572,-1.6677 -71.288,-1.6333 -66.859,0.03995 -72.427,0.21616 -74.042,2.3431 -3.711,4.8861 -2.3492,5.7823 8.5017,5.5946 5.6833,-0.0983 13.267,-1.1057 16.852,-2.2386 z m 185.82,-5.3085 c -1.2833,-0.33537 -3.3833,-0.33537 -4.6667,0 -1.2833,0.33537 -0.23334,0.60976 2.3333,0.60976 2.56664,0 3.6167,-0.27439 2.3333,-0.60976 z"
       id="path40"
       inkscape:connector-curvature="0"
       style="fill:#c80000" />
    <path
       d="m 62.88,308.33 c -0.20279,-4.1183 -0.47364,-4.3333 -5.4582,-4.3333 -4.698,0 -5.3027,0.38224 -5.8002,3.6667 l -0.55545,3.6667 -0.19978,-3.6058 c -0.19353,-3.4931 -0.481,-3.6203 -9.1998,-4.0722 l -9,-0.46644 9,-0.26115 9,-0.26115 v -30.667 h -19.333 c -12,0 -19.333,-0.50575 -19.333,-1.3333 0,-0.82758 7.3333,-1.3333 19.333,-1.3333 h 19.333 v -30.667 h -20 c -12.444,0 -20,-0.50371 -20,-1.3333 0,-0.82963 7.5556,-1.3333 20,-1.3333 h 20 v -30.667 h -20 c -12.444,0 -20,-0.50371 -20,-1.3333 0,-0.82962 7.5556,-1.3333 20,-1.3333 h 20 v -29.333 h -20 c -12.444,0 -20,-0.50371 -20,-1.3333 0,-0.82962 7.5556,-1.3333 20,-1.3333 h 20 v -33.333 h -20 c -12.444,0 -20,-0.50371 -20,-1.3333 0,-0.82962 7.5556,-1.3333 20,-1.3333 h 20 l 0.0019,-11.667 0.0019,-11.667 -17.002,0.42377 c -9.3886,0.23402 -18.494,-0.17592 -20.335,-0.91548 -2.4973,-1.0034 1.0485,-1.3605 14.138,-1.4238 9.6091,-0.0465 21.158,-0.46984 25.664,-0.9408 7.4043,-0.77391 8.3852,-1.2426 10.196,-4.8715 1.1017,-2.2084 2.0031,-4.223 2.0031,-4.477 0,-1.3348 -9.2284,-0.21043 -9.8889,1.2049 -0.62222,1.3333 -0.93333,1.3333 -1.5556,0 -0.57466,-1.2314 -6.3456,-1.6667 -22.098,-1.6667 h -21.321 l 0.43161,-27 c 0.41645,-26.052 0.55712,-27.268 4.005,-34.624 4.1684,-8.8935 13.704,-19.587 21.568,-24.187 13.135,-7.6823 10.397,-7.5226 128.98,-7.5226 104.21,0 109.34,0.11328 117.31,2.5943 16.424,5.1116 29.056,17.071 34.898,33.039 2.385,6.5191 2.904,11.512 3.3852,32.562 l 0.56832,24.862 -7.1412,0.72694 c -3.9276,0.39982 -18.738,1.3555 -32.912,2.1236 -14.174,0.76818 -26.265,1.7023 -26.869,2.0758 -0.60438,0.37353 -12.408,1.6189 -26.23,2.7676 -29.665,2.4652 -58.147,2.5693 -98.67,0.36059 -22.358,-1.2186 -30.786,-1.2371 -34.667,-0.0759 -2.8202,0.84384 -10.978,1.9446 -18.128,2.4461 l -13,0.9119 v 24.94 h 127.99997 c 84.444,0 128,0.45371 128,1.3333 0,0.87963 -43.556,1.3333 -128,1.3333 H 63.999866 v 33.333 H 191.99987 c 84.444,0 128,0.45371 128,1.3333 0,0.87963 -43.556,1.3333 -128,1.3333 H 63.999866 v 29.333 H 191.99987 c 84.444,0 128,0.45371 128,1.3333 0,0.87963 -43.556,1.3333 -128,1.3333 H 63.999866 v 30.667 H 191.99987 c 84.444,0 128,0.45371 128,1.3333 0,0.87962 -43.556,1.3333 -128,1.3333 H 63.999866 v 30.667 H 192.07987 c 85.046,0 127.8,0.44797 127.25,1.3333 -0.54005,0.87382 -44.68,1.3333 -128.08,1.3333 H 63.999866 v 30.652 l 117.000004,0.34799 117,0.348 -116.92,0.32595 -116.920004,0.32596 -0.53776,4.3333 -0.53776,4.3333 z m -0.21338,-21 v -15.333 h -10.667 v 30.667 h 10.667 z m 0,-33.333 v -15.333 h -10.667 v 30.667 h 10.667 z m 0,-33.333 v -15.333 h -10.667 v 30.667 h 10.667 z m 0,-32.667 V 173.33 h -10.667 v 29.333 h 10.667 z m 0,-34 V 137.33 h -10.667 v 33.333 h 10.667 z m 0,-32.08 V 109.17 l -5,0.41382 -5,0.41382 -0.38337,12.333 -0.38337,12.333 h 10.767 z m 31.21,-17.438 c 4.4424,-1.6722 8.6519,-1.7388 28.576,-0.45223 49.19,3.1765 90.955,2.4944 129.55,-2.1156 9.1667,-1.095 21.167,-2.1543 26.667,-2.354 5.5,-0.1997 -39.549,-0.48232 -100.11,-0.62803 l -110.11,-0.26493 -1.8291,3.6667 c -1.006,2.0167 -2.0192,4.0785 -2.2515,4.5818 -0.75581,1.6373 24.148,-0.4168 29.507,-2.4337 z m -42.543,0.85191 c 0.45323,-0.73334 1.0886,-1.3333 1.412,-1.3333 0.3234,0 0.58798,0.6 0.58798,1.3333 0,0.73333 -0.63541,1.3333 -1.412,1.3333 -0.77659,0 -1.0412,-0.6 -0.58798,-1.3333 z"
       id="path42"
       inkscape:connector-curvature="0"
       style="fill:#b50000" />
    <path
       d="m 50.866,307.73 c -0.19156,-3.4548 -0.54266,-3.6225 -8.5331,-4.0764 l -8.3333,-0.47338 8.3333,-0.25691 8.3333,-0.25691 v -30.667 h -19.333 c -12,0 -19.333,-0.50575 -19.333,-1.3333 0,-0.82758 7.3333,-1.3333 19.333,-1.3333 h 19.333 v -30.667 h -20 c -12.444,0 -20,-0.50371 -20,-1.3333 0,-0.82963 7.5556,-1.3333 20,-1.3333 h 20 v -30.667 h -20 c -12.444,0 -20,-0.50371 -20,-1.3333 0,-0.82962 7.5556,-1.3333 20,-1.3333 h 20 v -29.333 h -20 c -12.444,0 -20,-0.50371 -20,-1.3333 0,-0.82962 7.5556,-1.3333 20,-1.3333 h 20 v -33.333 h -20 c -12.444,0 -20,-0.50371 -20,-1.3333 0,-0.82962 7.5556,-1.3333 20,-1.3333 h 20 v -13.333 c 0,-7.3333 0.45,-13.335 1,-13.336 0.55,-0.002 0.81015,5.9984 0.57812,13.333 l -0.42189,13.336 h 134.09 c 88.503,0 134.09,0.45328 134.09,1.3333 0,0.88004 -45.556,1.3333 -134,1.3333 h -134 v 33.333 h 134 c 88.444,0 134,0.45329 134,1.3333 0,0.88001 -45.556,1.3333 -134,1.3333 h -134 v 29.333 h 134 c 88.444,0 134,0.45329 134,1.3333 0,0.88001 -45.556,1.3333 -134,1.3333 h -134 v 30.667 h 134 c 88.444,0 134,0.4533 134,1.3333 0,0.88 -45.556,1.3333 -134,1.3333 h -134 v 30.667 h 133.33 c 88,0 133.33,0.45333 133.33,1.3333 0,0.87997 -45.333,1.3333 -133.33,1.3333 h -133.33 v 30.653 l 122.33,0.34738 122.33,0.34738 -122.24,0.32627 -122.24,0.32627 -0.55546,3.6667 -0.55545,3.6667 z M 62.477,110.94 c -0.39082,-2.4531 0.08512,-5.9053 1.078,-7.8191 2.3687,-4.5656 2.4403,-4.4551 -2.8889,-4.4551 -2.7407,0 -4.6667,0.66032 -4.6667,1.6 0,1.2444 -0.35556,1.2444 -1.6,0 -1.1101,-1.1101 -8.0811,-1.6 -22.765,-1.6 h -21.165 l 0.43161,-27 c 0.41645,-26.052 0.55712,-27.268 4.005,-34.624 4.1684,-8.8935 13.704,-19.587 21.568,-24.187 13.135,-7.6823 10.397,-7.5226 128.98,-7.5226 104.21,0 109.34,0.11328 117.31,2.5943 16.424,5.1116 29.056,17.071 34.898,33.039 2.3873,6.5255 2.904,11.512 3.3878,32.7 l 0.57092,25 -9.8104,0.01419 c -5.3958,0.0077 -62.356,0.0015 -126.58,-0.01397 l -116.77,-0.02816 -1.7693,3.3059 c -0.97311,1.8183 -2.163,5.5746 -2.6441,8.3473 l -0.87481,5.0414 z m -42.811,-1.2572 c 3.85,-0.26934 10.15,-0.26934 14,0 3.85,0.26934 0.7,0.4897 -7,0.4897 -7.7,0 -10.85,-0.22036 -7,-0.4897 z m 58,-2.6028 c 1.2833,-0.33537 3.3833,-0.33537 4.6667,0 1.2833,0.33537 0.23333,0.60976 -2.3333,0.60976 -2.56663,0 -3.6167,-0.27439 -2.3333,-0.60976 z m 66.692,-1.3382 c 1.2973,-0.33806 3.0973,-0.31582 4,0.0494 0.9027,0.36523 -0.15871,0.64182 -2.3587,0.61465 -2.2,-0.0272 -2.9386,-0.326 -1.6413,-0.66405 z m 28.641,-0.017 c 1.65,-0.3178 4.35,-0.3178 6,0 1.65,0.31781 0.3,0.57783 -3,0.57783 -3.3,0 -4.65,-0.26002 -3,-0.57783 z m 34.667,0.0579 c 0.91666,-0.36988 2.4167,-0.36988 3.3333,0 0.91667,0.36989 0.16667,0.67252 -1.6667,0.67252 -1.8333,0 -2.5833,-0.30263 -1.6667,-0.67252 z m -85.333,-1.3333 c 0.91667,-0.36988 2.4167,-0.36988 3.3333,0 0.91666,0.36989 0.16666,0.67252 -1.6667,0.67252 -1.83336,0 -2.5833,-0.30263 -1.6667,-0.67252 z m 102.75,-0.0278 c 0.9625,-0.38516 2.1125,-0.33779 2.5556,0.10526 0.44306,0.44306 -0.34445,0.75819 -1.75,0.7003 -1.5533,-0.064 -1.8692,-0.37992 -0.80556,-0.80556 z m -124.72,-1.3465 c 1.2973,-0.33805 3.0973,-0.31582 4,0.0494 0.90271,0.36524 -0.15871,0.64183 -2.3587,0.61466 -2.2,-0.0272 -2.9386,-0.326 -1.6413,-0.66406 z m 167.39,-2.6534 c 0.96249,-0.38516 2.1125,-0.3378 2.5556,0.10526 0.44305,0.44306 -0.34445,0.75819 -1.75,0.7003 -1.5533,-0.064 -1.8692,-0.37992 -0.80556,-0.80556 z"
       id="path44"
       inkscape:connector-curvature="0"
       style="fill:#a50000" />
    <path
       d="m 51.301,209.33 c 0,-56.1 0.16447,-79.05 0.3655,-51 0.20102,28.05 0.20102,73.95 0,102 -0.20102,28.05 -0.3655,5.1 -0.3655,-51 z M 10.902,71.66 C 11.31845,45.608 11.45912,44.392 14.907,37.036 19.0754,28.1425 28.611,17.449 36.475,12.849 49.61,5.1667 46.872,5.3264 165.455,5.3264 c 104.21,0 109.34,0.11328 117.31,2.5943 16.424,5.1116 29.056,17.071 34.898,33.039 2.3873,6.5255 2.904,11.512 3.3878,32.7 l 0.57092,25 h -311.15 z"
       id="path46"
       inkscape:connector-curvature="0"
       style="fill:#860f0f" />
    <path
       d="m 51.301,209.33 c 0,-56.1 0.16447,-79.05 0.3655,-51 0.20102,28.05 0.20102,73.95 0,102 -0.20102,28.05 -0.3655,5.1 -0.3655,-51 z M 10.667,74.69 c 0,-20.733 0.37719,-25.121 2.7916,-32.476 4.9575,-15.102 16.221,-26.941 31.499,-33.107 l 7.7097,-3.1119 108,-0.40571 c 77.198,-0.29 110.27,0.030055 115.95,1.1222 17.017,3.2718 31.853,14.765 39.146,30.326 3.4479,7.3563 3.5886,8.5724 4.005,34.624 l 0.43161,27 h -309.53 z"
       id="path48"
       inkscape:connector-curvature="0"
       style="fill:#770000" />
    <path
       d="M 10.879,72.333 11.3329,46 15.5904,37.0123 c 7.8351,-16.54 22.367,-27.432 40.409,-30.287 10.864,-1.7193 206.53,-1.8398 218.32,-0.13441 17.799,2.5743 32.9,13.424 40.689,29.234 l 4.3217,8.7715 0.43162,27.035 0.43161,27.035 h -309.77 z"
       id="path50"
       inkscape:connector-curvature="0"
       style="fill:#600000" />
    <path
       d="M 10.951,73 C 11.56789,43.115 13.2198,36.864 23.528,25.398 l 6.0519,-6.7312 h 272.88 l 4.8079,5.617 c 2.6444,3.0893 6.4312,8.9393 8.4152,13 3.4963,7.1558 3.6219,8.2142 4.0812,34.383 l 0.47383,27 h -309.82 z"
       id="path52"
       inkscape:connector-curvature="0"
       style="fill:#5b0000" />
    <path
       d="m 10.954,73 c 0.44759,-21.567 0.953,-26.731 3.1644,-32.333 l 2.6317,-6.6667 148.36,-0.33914 148.36,-0.33914 2.9276,6.3391 c 2.6422,5.7211 2.9699,8.9063 3.361,32.672 l 0.43341,26.333 h -309.78 z"
       id="path54"
       inkscape:connector-curvature="0"
       style="fill:#520000" />
    <path
       d="m 10.667,76.776 c 0,-12.04 0.36419,-22.84 0.80932,-24 0.73152,-1.9063 15.599,-2.109 154.67,-2.109 h 153.86 v 48 h -309.33 z"
       id="path56"
       inkscape:connector-curvature="0"
       style="fill:#4b0000" />
    <path
       d="M 10.667,81.333 V 64 h 309.33 V 98.667 H 10.667 Z"
       id="path58"
       inkscape:connector-curvature="0"
       style="fill:#430000" />
    <path
       d="m 10.667,89.333 v -9.3333 h 309.33 v 18.667 H 10.667 Z"
       id="path60"
       inkscape:connector-curvature="0"
       style="fill:#3c0000" />
    <path
       d="m 10.667,96 c 0,-2.6513 0.88889,-2.6667 154.67,-2.6667 153.78,0 154.67,0.01532 154.67,2.6667 0,2.6513 -0.88889,2.6667 -154.67,2.6667 -153.78,0 -154.67,-0.01533 -154.67,-2.6667 z"
       id="path62"
       inkscape:connector-curvature="0"
       style="fill:#360000" />
  </g>
</svg>
