<?xml version="1.0" encoding="UTF-8"?>
<svg width="332" height="325.33" version="1.1" viewBox="0 0 332 325.33334" xmlns="http://www.w3.org/2000/svg">
 <g transform="matrix(1.0125 0 0 1.0129 -.00028091 -2.8105)" stroke-width="1.3333">
  <path d="m29.066 321.32c-8.3525-5.5325-17.489-15.614-21.723-23.969-7.1946-14.198-7.2945-15.955-7.3195-128.77-0.01532-68.88 0.46408-106.76 1.4173-112 4.0659-22.332 20.874-41.487 43.087-49.103 7.9539-2.7269 10.574-2.7993 115.25-3.1854 120.68-0.44513 122.76-0.32072 138.07 8.2415 15.168 8.4827 27.816 25.448 31.412 42.135 1.1663 5.4127 1.4703 36.318 1.1606 118l-0.41956 110.67-3.9344 8.6667c-5.3349 11.752-13.217 21.671-22.278 28.034l-7.5453 5.2992h-261.12z" fill="#f3f3f3"/>
  <path d="m32.131 320.33c-10.349-6.1061-18.621-15.508-24.423-27.762l-4.3746-9.2379-0.37022-111.97c-0.35864-108.47-0.28742-112.24 2.2779-120.67 1.4565-4.7816 4.4612-11.546 6.6772-15.032 5.9812-9.409 18.277-20.532 28.054-25.379l8.6386-4.2827h233.39l8.6667 4.1321c9.5372 4.5472 22.902 16.493 28.449 25.43 1.8988 3.0589 4.8246 9.3589 6.5018 14l3.0495 8.4383v220l-3.1037 8.6667c-5.7705 16.113-17.072 29.63-30.01 35.894-5.6765 2.748-6.8592 2.7731-130.34 2.7731h-124.61z" fill="#f1eeee"/>
  <path d="m35.981 321.67c-9.2368-4.6885-21.199-16.566-25.236-25.056-7.7227-16.244-7.3246-9.9654-7.7728-122.59-0.27138-68.197 0.069879-107.2 0.99167-113.33 3.006-20.008 18.505-41.818 35.751-50.308l8.896-4.3796h233.39l8.6667 4.1154c13.789 6.5476 27.53 22.288 33.654 38.551l3.0126 8 0.37822 107.6c0.41086 116.89 0.40292 117.04-6.9735 131.59-4.4892 8.8591-14.454 19.156-23.993 24.793l-7.9216 4.6811h-245.62z" fill="#eceaea"/>
  <path d="m37.602 320.95c-10.68-5.4511-21.342-15.917-26.088-25.61-7.5827-15.486-7.6396-16.524-7.2257-131.81l0.3789-105.53 3.0202-8.3512c3.9974-11.053 13.256-25.299 20.439-31.447 3.1862-2.7272 9.1113-6.5883 13.167-8.5801l7.3739-3.6215h233.39l8.7582 4.3115c15.343 7.5533 29.486 26.181 33.813 44.536 3.0474 12.927 3.0132 213.01-0.0387 226.43-3.9331 17.293-15.57 31.967-31.801 40.104l-7.8797 3.95-119.45-0.047-119.45-0.04689z" fill="#e5e3e3"/>
  <path d="m43.856 322.21c-11.01-4.5513-16.469-8.289-22.982-15.734-7.4423-8.5077-11.158-16.008-13.57-27.393-2.8567-13.482-2.842-208.75 0.016704-222.24 4.6216-21.814 16.771-38.77 33.756-47.111l7.5896-3.727h233.33l7.6702 3.5945c11.294 5.2926 21.51 15.6 27.066 27.308 8.7516 18.442 8.5579 15.475 8.5579 131.1 0 112.16-0.0904 113.85-6.7884 126.98-4.62 9.056-16.647 20.618-26.426 25.404l-8.7467 4.2805-116 0.31686-116 0.31684z" fill="#e0dcdc"/>
  <path d="m51.333 323.44c-15.669-3.9204-27.92-12.804-35.999-26.104-8.8319-14.539-8.8118-14.214-8.3015-133.8 0.44303-103.83 0.53482-107.12 3.2257-115.62 1.5233-4.8146 4.104-11.369 5.7349-14.566 4.2367-8.3046 15.361-18.868 24.673-23.429l8-3.9181h233.33l7.6702 3.5945c9.8564 4.619 21.415 15.574 25.597 24.26 1.804 3.747 4.5068 11.576 6.0064 17.397 2.6344 10.227 2.7265 14.151 2.7265 116.27 0 71.676-0.47185 107.96-1.4664 112.75-4.4005 21.204-23.393 39.597-45.146 43.722-11 2.0861-217.53 1.5825-226.05-0.55127z" fill="#d9d5d5"/>
  <path d="m56 323.1c-24.293-4.2019-42.547-22.114-46.639-45.765-1.0528-6.0844-1.3659-40.641-1.0511-116 0.48562-116.25 0.32106-113.56 7.8294-128.27 4.103-8.0426 15.334-18.639 24.527-23.142l8-3.9181h233.33l7.6241 3.5734c14.015 6.5689 24.672 18.854 29.863 34.427 2.2785 6.8351 2.4734 14.945 2.8684 119.37 0.40405 106.82 0.30641 112.41-2.0988 120.14-5.2675 16.924-18.159 30.727-34.443 36.876l-7.8136 2.9507-109.33 0.17033c-60.133 0.09374-110.83-0.08906-112.67-0.40622z" fill="#d0cbcb"/>
  <path d="m48.634 320.18c-18.791-5.3826-34.345-22.409-37.98-41.577-1.8033-9.5086-1.7744-219.82 0.031532-229.42 3.1008-16.472 14.843-31.85 29.981-39.264l8-3.9181h233.33l7.5669 3.5472c13.849 6.4919 25.143 19.532 29.84 34.453 2.0782 6.6016 2.3668 17.178 2.8932 106 0.65094 109.85-0.0373 127.63-5.4096 139.68-4.5081 10.116-12.449 19.35-21.164 24.611-14.14 8.5352-11.744 8.3838-131.01 8.2789-98.161-0.0863-108.79-0.30567-116.09-2.396z" fill="#cac4c4"/>
  <path d="m48.634 318.86c-21.005-6.0659-35.076-23.933-38.041-48.304-0.85851-7.0557-1.2221-50.588-0.97903-117.22l0.38663-106 2.9905-7.3333c6.3821-15.65 19.714-28.081 34.98-32.616 6.6209-1.9668 18.778-2.1466 120.7-1.7857l113.33 0.40138 7.3333 3.4629c11.381 5.3743 20.488 14.456 26.312 26.238l5.0212 10.158 0.39142 108.07c0.25023 69.089-0.10573 111.84-0.98701 118.52-2.7101 20.543-15.521 38.04-33.025 45.105l-7.7128 3.113-111.33 0.25712c-102.29 0.23623-111.99 0.0685-119.37-2.0627z" fill="#c1b9b9"/>
  <path d="m53.227 318.67c-17.703-3.0601-32.592-17.286-39.533-37.773l-3.6938-10.902v-222.67l2.9905-7.3333c6.1262-15.023 17.673-26.148 33.151-31.938 7.3685-2.7569 8.6335-2.7821 121.65-2.4237l114.21 0.36212 7.3333 3.4629c11.382 5.3748 20.489 14.456 26.312 26.239l5.0212 10.16v226.8l-3.6167 9.7533c-6.1901 16.693-14.701 26.127-30.069 33.329l-7.6473 3.584-110 0.19852c-60.5 0.1092-112.75-0.27645-116.11-0.85696z" fill="#b6adad"/>
  <path d="m53.807 317.28c-8.5423-1.6907-18.948-7.5724-25.748-14.554-7.2806-7.4748-15.29-23.302-17.303-34.192-1.8951-10.252-1.9585-209.32-0.069865-219.35 3.1855-16.922 14.479-31.417 30.327-38.924l8.9877-4.2575h232l7.3333 3.4629c11.381 5.3742 20.488 14.456 26.312 26.238l5.0212 10.158 0.41988 108.74c0.30988 80.247 5e-3 110.66-1.1615 116.07-2.16 10.017-9.1196 23.408-16.338 31.436-6.3194 7.0287-16.491 12.865-26.407 15.151-7.0862 1.6336-215.13 1.659-223.37 0.0272z" fill="#aea3a3"/>
  <path d="m56 315.99c-10.652-1.8221-20.842-7.6814-28.711-16.509-9.0945-10.203-14.636-20.519-16.506-30.729-1.9206-10.484-2.0087-209.42-0.09729-219.57 3.1855-16.922 14.479-31.417 30.327-38.924l8.9877-4.2575h232l7.3333 3.4629c11.381 5.3742 20.488 14.456 26.312 26.238l5.0212 10.158 0.40722 108.74c0.30378 81.111-1e-3 110.71-1.2017 116.5-3.0674 14.792-17.68 33.682-31.154 40.274-3.7703 1.8446-10.424 3.9384-14.787 4.6527-9.3839 1.5367-208.94 1.5132-217.93-0.0257z" fill="#d18f8f"/>
  <path d="m56 315.96c-8.1535-1.4374-17.781-5.9328-23.545-10.994-7.1648-6.2908-17.621-21.947-19.746-29.568-1.5287-5.4808-1.9553-27.076-2.2924-116.07-0.38859-102.56-0.26474-109.79 1.9985-116.67 3.5895-10.91 11.267-21.136 20.729-27.611 14.863-10.171 8.7527-9.722 132.19-9.722 97.088 0 111.04 0.25337 117.36 2.1319 18.674 5.5455 33.095 21.181 37.141 40.267 1.9276 9.0944 2.1054 211.37 0.19463 221.44-1.5878 8.3726-6.9771 19.682-12.245 25.697-12.338 14.087-20.015 18.883-33.854 21.149-9.5012 1.5559-209.08 1.5036-217.93-0.05706z" fill="#a49999"/>
  <path d="m50.1 312.47c-17.101-5.2489-33.792-22.193-37.892-38.465-0.82984-3.2938-1.5086-47.144-1.7749-114.67-0.40462-102.58-0.28231-109.79 1.9815-116.67 3.5895-10.91 11.267-21.136 20.729-27.611 14.863-10.171 8.7527-9.722 132.19-9.722 97.088 0 111.04 0.25337 117.36 2.1319 18.674 5.5455 33.095 21.181 37.141 40.267 1.9276 9.0944 2.1054 211.37 0.19463 221.44-3.6783 19.395-19.64 36.998-39.017 43.029-7.438 2.315-14.474 2.4586-116.13 2.3714-92.592-0.0795-109.16-0.38386-114.78-2.1085z" fill="#9d9090"/>
  <path d="m51.001 311.3c-14.318-3.9012-24.688-11.381-32.363-23.341-7.8489-12.231-7.6205-8.6445-8.1481-127.99-0.4565-103.27-0.33914-110.41 1.9257-117.3 3.5877-10.909 11.265-21.136 20.728-27.611 14.863-10.171 8.7527-9.722 132.19-9.722 97.088 0 111.04 0.25337 117.36 2.1319 18.674 5.5455 33.095 21.181 37.141 40.267 1.9276 9.0944 2.1054 211.37 0.19463 221.44-3.1991 16.869-14.221 30.759-30.697 38.683l-10 4.81-110.67 0.26795c-92.437 0.2238-111.82-0.0463-117.67-1.6391z" fill="#b16969"/>
  <path d="m55.333 312.01c-18.97-2.829-35.812-17.062-42.051-35.536-2.5868-7.66-2.6508-10.985-2.3048-119.84l0.35584-111.96 3.8258-8.2821c4.7411-10.264 16.353-21.721 27.133-26.773l7.7083-3.612h230.67l8.6667 4.1677c15.814 7.6045 25.714 19.434 29.944 35.779 3.0755 11.885 3.0867 213.54 0.012 225.34-5.7919 22.237-22.693 37.568-44.967 40.789-9.8937 1.431-209.35 1.3676-218.99-0.0696z" fill="#c64c4c"/>
  <path d="m48.667 310.15c-15.34-4.907-26.436-14.475-33.101-28.544l-4.2325-8.9343v-228l3.5734-7.6241c4.1684-8.8935 13.704-19.587 21.568-24.187 13.135-7.6823 10.397-7.5226 128.98-7.5226 104.21 0 109.34 0.11328 117.31 2.5943 16.369 5.0947 28.9 16.927 34.991 33.039 2.8884 7.6408 2.9136 8.4951 3.293 111.7 0.40476 110.11 0.1028 116.97-5.7127 129.69-4.1846 9.1542-15.29 20.137-25.336 25.058l-8 3.9181-114 0.25905c-89.515 0.2034-115.15-0.10733-119.33-1.447z" fill="#e22e2e"/>
  <path d="m48 309.51c-4.0333-1.3119-9.1867-3.3535-11.452-4.5369-6.8369-3.5718-18.692-17.478-22.102-25.926l-3.113-7.7128v-226.67l3.5734-7.6241c4.1684-8.8935 13.704-19.587 21.568-24.187 13.135-7.6823 10.397-7.5226 128.98-7.5226 104.21 0 109.34 0.11328 117.31 2.5943 16.399 5.1039 28.986 17.006 34.94 33.039 2.8527 7.6815 2.8584 7.9608 2.4189 118.31-0.34124 85.668-0.82639 111.71-2.1511 115.46-5.2899 14.993-15.016 26.025-28.635 32.48l-8.6705 4.1091-112.67 0.28037c-105.06 0.26146-113.16 0.11947-120-2.1048z" fill="#ec0000"/>
  <path d="m62.88 308.33c-0.20279-4.1183-0.47364-4.3333-5.4582-4.3333-4.698 0-5.3027 0.38224-5.8002 3.6667l-0.55545 3.6667-0.19978-3.7366c-0.19732-3.6906-0.29828-3.733-8.2031-3.4478-4.4018 0.15886-8.4018-0.10973-8.8889-0.59677-0.48707-0.48707 3.1144-0.88559 8.0033-0.88559h8.8889v-30.667h-19.333c-12 0-19.333-0.50575-19.333-1.3333 0-0.82758 7.3333-1.3333 19.333-1.3333h19.333v-30.667h-20c-12.444 0-20-0.50371-20-1.3333 0-0.82963 7.5556-1.3333 20-1.3333h20v-30.667h-20c-12.444 0-20-0.50371-20-1.3333 0-0.82962 7.5556-1.3333 20-1.3333h20v-29.333h-20c-12.444 0-20-0.50371-20-1.3333 0-0.82962 7.5556-1.3333 20-1.3333h20v-33.333h-20c-12.444 0-20-0.50371-20-1.3333 0-0.82962 7.5556-1.3333 20-1.3333h20v-20h-40v-6.5972l20.333-0.40548 20.333-0.40548-20.422-0.29591-20.422-0.29592 0.42199-31c0.41402-30.415 0.48947-31.144 3.9954-38.624 4.1684-8.8935 13.704-19.587 21.568-24.187 13.135-7.6823 10.397-7.5226 128.98-7.5226 104.21 0 109.34 0.11328 117.31 2.5943 16.424 5.1116 29.056 17.071 34.898 33.039 2.3874 6.5258 2.904 11.512 3.388 32.708l0.57108 25.008-4.9426 2.0652c-3.0573 1.2774-12.648 2.5511-25.144 3.3392-11.111 0.70073-29.201 2.1586-40.201 3.2398-47.905 4.7084-71.85 5.0827-126 1.9698-21.195-1.2184-25.605-1.13-31.333 0.62834-3.6667 1.1255-10.042 2.0528-14.167 2.0608-4.125 8e-3 -9.375 0.38943-11.667 0.84777l-4.1667 0.83333v21h128c84.444 0 128 0.45371 128 1.3333 0 0.87963-43.556 1.3333-128 1.3333h-128v33.333h128c84.444 0 128 0.45371 128 1.3333 0 0.87963-43.556 1.3333-128 1.3333h-128v29.333h128c84.444 0 128 0.45371 128 1.3333 0 0.87963-43.556 1.3333-128 1.3333h-128v30.667h128c84.444 0 128 0.45371 128 1.3333 0 0.87962-43.556 1.3333-128 1.3333h-128v30.667h128.08c85.046 0 127.8 0.44797 127.25 1.3333-0.54005 0.87382-44.68 1.3333-128.08 1.3333h-127.25v30.652l117 0.34799 117 0.348-116.92 0.32595-116.92 0.32596-0.53776 4.3333-0.53776 4.3333zm-0.21338-21v-15.333h-10.667v30.667h10.667zm0-33.333v-15.333h-10.667v30.667h10.667zm0-33.333v-15.333h-10.667v30.667h10.667zm0-32.667v-14.667h-10.667v29.333h10.667zm0-34v-16.667h-10.667v33.333h10.667zm0-30v-10.667h-10.667v21.333h10.667zm153.33-21.239l12.667-1.2877-12 0.56743c-6.6 0.31209-15 0.97981-18.667 1.4838-6.0231 0.82792-6.4962 0.70947-4.9007-1.227 0.97128-1.1789 3.6713-2.3821 6-2.6738l4.234-0.53036-4.1701-0.21338c-2.3129-0.11835-4.9093 0.67735-5.8299 1.7866-1.3597 1.6384-5.879 2-24.993 2-22.03 0-23.231-0.13029-21.503-2.3333 1.6066-2.0486 1.5782-2.1374-0.23326-0.72762-1.1348 0.88314-6.8348 1.8124-12.667 2.065l-10.604 0.45929 11.079 0.26832c6.0933 0.14758 10.8 0.71833 10.458 1.2683-0.34112 0.55 10.175 0.82343 23.37 0.60763 14.036-0.22957 23.681 0.10697 23.246 0.81105-0.4392 0.71064 1.8341 0.74478 5.5515 0.0834 3.4624-0.61603 11.995-1.6995 18.962-2.4077zm-154.98 1.6562c-1.2748-0.33373-3.6748-0.34583-5.3333-0.0269-1.6585 0.31892-0.61554 0.59197 2.3178 0.60677s4.2903-0.24614 3.0155-0.57986zm33.339-1.7144c1.8684-1.1362 1.6213-1.2501-1.2872-0.59347-1.9797 0.44697-9.1797 1.3194-16 1.9389l-12.4 1.1262 13.688-0.53271c7.5282-0.29299 14.728-1.1655 16-1.9389zm-41.021-2.0718c0-1.7495-2.7486-1.9838-19.557-1.6667-14.19 0.26772-19.709 0.82636-20.111 2.0356-0.42679 1.2842 4.0618 1.6667 19.557 1.6667 17.144 0 20.111-0.30032 20.111-2.0356zm63.711-0.27591c-3.4588-0.27366-9.4588-0.2765-13.333-6e-3 -3.8746 0.27014-1.0447 0.49405 6.2886 0.49752 7.3333 3e-3 10.503-0.21759 7.0447-0.49125zm135.62-0.26039c3.3918-0.68999 0.23686-0.83745-8.6667-0.40507-7.7 0.37393-14.25 0.89673-14.556 1.1618-1.0773 0.93447 17.958 0.3142 23.222-0.75671zm-188.98-1.0108c-1.2748-0.33372-3.6748-0.34583-5.3333-0.02691s-0.61555 0.59197 2.3178 0.60677c2.9333 0.0148 4.2903-0.24614 3.0155-0.57986zm18.651-0.05518c-2.75-0.28766-7.25-0.28766-10 0-2.75 0.28766-0.5 0.52302 5 0.52302s7.75-0.23536 5-0.52302z" fill="#d80000"/>
  <path d="m62.88 308.33c-0.20279-4.1183-0.47364-4.3333-5.4582-4.3333-4.698 0-5.3027 0.38224-5.8002 3.6667l-0.55545 3.6667-0.19978-3.6058c-0.19353-3.4931-0.481-3.6203-9.1998-4.0722l-9-0.46644 9-0.26115 9-0.26115v-30.667h-19.333c-12 0-19.333-0.50575-19.333-1.3333 0-0.82758 7.3333-1.3333 19.333-1.3333h19.333v-30.667h-20c-12.444 0-20-0.50371-20-1.3333 0-0.82963 7.5556-1.3333 20-1.3333h20v-30.667h-20c-12.444 0-20-0.50371-20-1.3333 0-0.82962 7.5556-1.3333 20-1.3333h20v-29.333h-20c-12.444 0-20-0.50371-20-1.3333 0-0.82962 7.5556-1.3333 20-1.3333h20v-33.333h-20c-12.444 0-20-0.50371-20-1.3333 0-0.82962 7.5556-1.3333 20-1.3333h20l0.0019-11 0.0019-11-16.8 0.44487c-17.241 0.45656-23.204-0.1782-23.204-2.4703 0-0.79288 7.4821-1.316 19-1.3284 19.215-0.0207 21.667-0.45835 21.667-3.8685 0-1.0389 0.70279-2.1232 1.5618-2.4095 0.99357-0.33119 1.3008 0.47729 0.84449 2.2222-0.60786 2.3245-0.09837 2.7428 3.3406 2.7428 3.2203 0 4.4908-0.86786 6.1555-4.2048 1.1537-2.3127 2.0977-4.4127 2.0977-4.6667 0-1.3348-9.2284-0.21043-9.8889 1.2049-0.62222 1.3333-0.93333 1.3333-1.5556 0-0.56998-1.2214-5.9632-1.6667-20.186-1.6667-16.898 0-19.645 0.30177-21.238 2.3333-1.5633 1.9936-1.7789-1.9381-1.4803-27 0.34159-28.677 0.42938-29.504 3.9228-36.957 4.1684-8.8935 13.704-19.587 21.568-24.187 13.135-7.6823 10.397-7.5226 128.98-7.5226 104.21 0 109.34 0.11328 117.31 2.5943 16.424 5.1116 29.056 17.071 34.898 33.039 2.384 6.5165 2.904 11.512 3.3841 32.505l0.56726 24.805-11.998 2.195c-6.5988 1.2073-17.612 2.2258-24.473 2.2635-6.8616 0.0376-16.676 0.60564-21.809 1.2622-9.3054 1.1902-59.071 5.2937-66.667 5.4972-12.011 0.32176-36.949-0.32826-65.021-1.6948-23.406-1.1394-32.989-1.1532-36.667-0.0529-2.7385 0.81931-10.829 1.9-17.979 2.4016l-13 0.91189v23.606h128c84.444 0 128 0.45371 128 1.3333 0 0.87963-43.556 1.3333-128 1.3333h-128v33.333h128c84.444 0 128 0.45371 128 1.3333 0 0.87963-43.556 1.3333-128 1.3333h-128v29.333h128c84.444 0 128 0.45371 128 1.3333 0 0.87963-43.556 1.3333-128 1.3333h-128v30.667h128c84.444 0 128 0.45371 128 1.3333 0 0.87962-43.556 1.3333-128 1.3333h-128v30.667h128.08c85.046 0 127.8 0.44797 127.25 1.3333-0.54005 0.87382-44.68 1.3333-128.08 1.3333h-127.25v30.652l117 0.34799 117 0.348-116.92 0.32595-116.92 0.32596-0.53776 4.3333-0.53776 4.3333zm-0.21338-21v-15.333h-10.667v30.667h10.667zm0-33.333v-15.333h-10.667v30.667h10.667zm0-33.333v-15.333h-10.667v30.667h10.667zm0-32.667v-14.667h-10.667v29.333h10.667zm0-34v-16.667h-10.667v33.333h10.667zm0-31.414v-12.08l-5 0.41383-5 0.41382-0.38524 11.667-0.38524 11.667h10.77zm29.852-18.197c5.6798-1.7949 9.9673-1.8638 33.333-0.53569 28.472 1.6183 80.13 2.2216 86.815 1.0138 2.2-0.39744 7.6-0.78614 12-0.86379 4.4-0.0776 14.6-1.0022 22.667-2.0546 8.0667-1.0524 16.767-2.1292 19.333-2.393 2.5667-0.26375-7.9125-0.53805-23.287-0.60955-19.845-0.09229-28.525 0.33171-29.923 1.4617-1.5463 1.2501-1.7527 1.2319-0.9615-0.0848 0.8042-1.3384-13.572-1.6677-71.288-1.6333-66.859 0.03995-72.427 0.21616-74.042 2.3431-3.711 4.8861-2.3492 5.7823 8.5017 5.5946 5.6833-0.0983 13.267-1.1057 16.852-2.2386zm185.82-5.3085c-1.2833-0.33537-3.3833-0.33537-4.6667 0-1.2833 0.33537-0.23334 0.60976 2.3333 0.60976s3.6167-0.27439 2.3333-0.60976z" fill="#c80000"/>
  <path d="m62.88 308.33c-0.20279-4.1183-0.47364-4.3333-5.4582-4.3333-4.698 0-5.3027 0.38224-5.8002 3.6667l-0.55545 3.6667-0.19978-3.6058c-0.19353-3.4931-0.481-3.6203-9.1998-4.0722l-9-0.46644 9-0.26115 9-0.26115v-30.667h-19.333c-12 0-19.333-0.50575-19.333-1.3333 0-0.82758 7.3333-1.3333 19.333-1.3333h19.333v-30.667h-20c-12.444 0-20-0.50371-20-1.3333 0-0.82963 7.5556-1.3333 20-1.3333h20v-30.667h-20c-12.444 0-20-0.50371-20-1.3333 0-0.82962 7.5556-1.3333 20-1.3333h20v-29.333h-20c-12.444 0-20-0.50371-20-1.3333 0-0.82962 7.5556-1.3333 20-1.3333h20v-33.333h-20c-12.444 0-20-0.50371-20-1.3333 0-0.82962 7.5556-1.3333 20-1.3333h20l0.001866-11.667 0.0019-11.667-17.002 0.42377c-9.3886 0.23402-18.494-0.17592-20.335-0.91548-2.4973-1.0034 1.0485-1.3605 14.138-1.4238 9.6091-0.0465 21.158-0.46984 25.664-0.9408 7.4043-0.77391 8.3852-1.2426 10.196-4.8715 1.1017-2.2084 2.0031-4.223 2.0031-4.477 0-1.3348-9.2284-0.21043-9.8889 1.2049-0.62222 1.3333-0.93333 1.3333-1.5556 0-0.57466-1.2314-6.3456-1.6667-22.098-1.6667h-21.321l0.43161-27c0.41645-26.052 0.55712-27.268 4.005-34.624 4.1684-8.8935 13.704-19.587 21.568-24.187 13.135-7.6823 10.397-7.5226 128.98-7.5226 104.21 0 109.34 0.11328 117.31 2.5943 16.424 5.1116 29.056 17.071 34.898 33.039 2.385 6.5191 2.904 11.512 3.3852 32.562l0.56832 24.862-7.1412 0.72694c-3.9276 0.39982-18.738 1.3555-32.912 2.1236-14.174 0.76818-26.265 1.7023-26.869 2.0758-0.60438 0.37353-12.408 1.6189-26.23 2.7676-29.665 2.4652-58.147 2.5693-98.67 0.36059-22.358-1.2186-30.786-1.2371-34.667-0.0759-2.8202 0.84384-10.978 1.9446-18.128 2.4461l-13 0.9119v24.94h128c84.444 0 128 0.45371 128 1.3333 0 0.87963-43.556 1.3333-128 1.3333h-128v33.333h128c84.444 0 128 0.45371 128 1.3333 0 0.87963-43.556 1.3333-128 1.3333h-128v29.333h128c84.444 0 128 0.45371 128 1.3333 0 0.87963-43.556 1.3333-128 1.3333h-128v30.667h128c84.444 0 128 0.45371 128 1.3333 0 0.87962-43.556 1.3333-128 1.3333h-128v30.667h128.08c85.046 0 127.8 0.44797 127.25 1.3333-0.54005 0.87382-44.68 1.3333-128.08 1.3333h-127.25v30.652l117 0.34799 117 0.348-116.92 0.32595-116.92 0.32596-0.53776 4.3333-0.53776 4.3333zm-0.21338-21v-15.333h-10.667v30.667h10.667zm0-33.333v-15.333h-10.667v30.667h10.667zm0-33.333v-15.333h-10.667v30.667h10.667zm0-32.667v-14.667h-10.667v29.333h10.667zm0-34v-16.667h-10.667v33.333h10.667zm0-32.08v-12.747l-5 0.41382-5 0.41382-0.38337 12.333-0.38337 12.333h10.767zm31.21-17.438c4.4424-1.6722 8.6519-1.7388 28.576-0.45223 49.19 3.1765 90.955 2.4944 129.55-2.1156 9.1667-1.095 21.167-2.1543 26.667-2.354 5.5-0.1997-39.549-0.48232-100.11-0.62803l-110.11-0.26493-1.8291 3.6667c-1.006 2.0167-2.0192 4.0785-2.2515 4.5818-0.75581 1.6373 24.148-0.4168 29.507-2.4337zm-42.543 0.85191c0.45323-0.73334 1.0886-1.3333 1.412-1.3333s0.58798 0.6 0.58798 1.3333c0 0.73333-0.63541 1.3333-1.412 1.3333s-1.0412-0.6-0.58798-1.3333z" fill="#b50000"/>
  <path d="m50.866 307.73c-0.19156-3.4548-0.54266-3.6225-8.5331-4.0764l-8.3333-0.47338 8.3333-0.25691 8.3333-0.25691v-30.667h-19.333c-12 0-19.333-0.50575-19.333-1.3333 0-0.82758 7.3333-1.3333 19.333-1.3333h19.333v-30.667h-20c-12.444 0-20-0.50371-20-1.3333 0-0.82963 7.5556-1.3333 20-1.3333h20v-30.667h-20c-12.444 0-20-0.50371-20-1.3333 0-0.82962 7.5556-1.3333 20-1.3333h20v-29.333h-20c-12.444 0-20-0.50371-20-1.3333 0-0.82962 7.5556-1.3333 20-1.3333h20v-33.333h-20c-12.444 0-20-0.50371-20-1.3333 0-0.82962 7.5556-1.3333 20-1.3333h20v-13.333c0-7.3333 0.45-13.335 1-13.336 0.55-2e-3 0.81015 5.9984 0.57812 13.333l-0.42189 13.336h134.09c88.503 0 134.09 0.45328 134.09 1.3333 0 0.88004-45.556 1.3333-134 1.3333h-134v33.333h134c88.444 0 134 0.45329 134 1.3333s-45.556 1.3333-134 1.3333h-134v29.333h134c88.444 0 134 0.45329 134 1.3333s-45.556 1.3333-134 1.3333h-134v30.667h134c88.444 0 134 0.4533 134 1.3333s-45.556 1.3333-134 1.3333h-134v30.667h133.33c88 0 133.33 0.45333 133.33 1.3333s-45.333 1.3333-133.33 1.3333h-133.33v30.653l122.33 0.34738 122.33 0.34738-122.24 0.32627-122.24 0.32627-0.55546 3.6667-0.55545 3.6667zm11.611-196.79c-0.39082-2.4531 0.08512-5.9053 1.078-7.8191 2.3687-4.5656 2.4403-4.4551-2.8889-4.4551-2.7407 0-4.6667 0.66032-4.6667 1.6 0 1.2444-0.35556 1.2444-1.6 0-1.1101-1.1101-8.0811-1.6-22.765-1.6h-21.165l0.43161-27c0.41645-26.052 0.55712-27.268 4.005-34.624 4.1684-8.8935 13.704-19.587 21.568-24.187 13.135-7.6823 10.397-7.5226 128.98-7.5226 104.21 0 109.34 0.11328 117.31 2.5943 16.424 5.1116 29.056 17.071 34.898 33.039 2.3873 6.5255 2.904 11.512 3.3878 32.7l0.57092 25-9.8104 0.01419c-5.3958 0.0077-62.356 0.0015-126.58-0.01397l-116.77-0.02816-1.7693 3.3059c-0.97311 1.8183-2.163 5.5746-2.6441 8.3473l-0.87481 5.0414zm-42.811-1.2572c3.85-0.26934 10.15-0.26934 14 0s0.7 0.4897-7 0.4897-10.85-0.22036-7-0.4897zm58-2.6028c1.2833-0.33537 3.3833-0.33537 4.6667 0 1.2833 0.33537 0.23333 0.60976-2.3333 0.60976s-3.6167-0.27439-2.3333-0.60976zm66.692-1.3382c1.2973-0.33806 3.0973-0.31582 4 0.0494 0.9027 0.36523-0.15871 0.64182-2.3587 0.61465-2.2-0.0272-2.9386-0.326-1.6413-0.66405zm28.641-0.01699c1.65-0.3178 4.35-0.3178 6 0 1.65 0.31781 0.3 0.57783-3 0.57783s-4.65-0.26002-3-0.57783zm34.667 0.0579c0.91666-0.36988 2.4167-0.36988 3.3333 0 0.91667 0.36989 0.16667 0.67252-1.6667 0.67252-1.8333 0-2.5833-0.30263-1.6667-0.67252zm-85.333-1.3333c0.91667-0.36988 2.4167-0.36988 3.3333 0 0.91666 0.36989 0.16666 0.67252-1.6667 0.67252s-2.5833-0.30263-1.6667-0.67252zm102.75-0.0278c0.9625-0.38516 2.1125-0.33779 2.5556 0.10526 0.44306 0.44306-0.34445 0.75819-1.75 0.7003-1.5533-0.064-1.8692-0.37992-0.80556-0.80556zm-124.72-1.3465c1.2973-0.33805 3.0973-0.31582 4 0.0494 0.90271 0.36524-0.15871 0.64183-2.3587 0.61466-2.2-0.0272-2.9386-0.326-1.6413-0.66406zm167.39-2.6534c0.96249-0.38516 2.1125-0.3378 2.5556 0.10526 0.44305 0.44306-0.34445 0.75819-1.75 0.7003-1.5533-0.064-1.8692-0.37992-0.80556-0.80556z" fill="#a50000"/>
  <path d="m51.301 209.33c0-56.1 0.16447-79.05 0.3655-51 0.20102 28.05 0.20102 73.95 0 102-0.20102 28.05-0.3655 5.1-0.3655-51zm-40.399-137.67c0.41645-26.052 0.55712-27.268 4.005-34.624 4.1684-8.8935 13.704-19.587 21.568-24.187 13.135-7.6823 10.397-7.5226 128.98-7.5226 104.21 0 109.34 0.11328 117.31 2.5943 16.424 5.1116 29.056 17.071 34.898 33.039 2.3873 6.5255 2.904 11.512 3.3878 32.7l0.57092 25h-311.15z" fill="#860f0f"/>
  <path d="m51.301 209.33c0-56.1 0.16447-79.05 0.3655-51 0.20102 28.05 0.20102 73.95 0 102-0.20102 28.05-0.3655 5.1-0.3655-51zm-40.634-134.64c0-20.733 0.37719-25.121 2.7916-32.476 4.9575-15.102 16.221-26.941 31.499-33.107l7.7097-3.1119 108-0.40571c77.198-0.29 110.27 0.030055 115.95 1.1222 17.017 3.2718 31.853 14.765 39.146 30.326 3.4479 7.3563 3.5886 8.5724 4.005 34.624l0.43161 27h-309.53z" fill="#700"/>
  <path d="m10.879 72.333 0.4539-26.333 4.2575-8.9877c7.8351-16.54 22.367-27.432 40.409-30.287 10.864-1.7193 206.53-1.8398 218.32-0.13441 17.799 2.5743 32.9 13.424 40.689 29.234l4.3217 8.7715 0.43162 27.035 0.43161 27.035h-309.77z" fill="#600000"/>
  <path d="m10.951 73c0.61689-29.885 2.2688-36.136 12.577-47.602l6.0519-6.7312h272.88l4.8079 5.617c2.6444 3.0893 6.4312 8.9393 8.4152 13 3.4963 7.1558 3.6219 8.2142 4.0812 34.383l0.47383 27h-309.82z" fill="#5b0000"/>
  <path d="m10.954 73c0.44759-21.567 0.953-26.731 3.1644-32.333l2.6317-6.6667 148.36-0.33914 148.36-0.33914 2.9276 6.3391c2.6422 5.7211 2.9699 8.9063 3.361 32.672l0.43341 26.333h-309.78z" fill="#520000"/>
  <path d="m10.667 76.776c0-12.04 0.36419-22.84 0.80932-24 0.73152-1.9063 15.599-2.109 154.67-2.109h153.86v48h-309.33z" fill="#4b0000"/>
  <path d="m10.667 81.333v-17.333h309.33v34.667h-309.33z" fill="#430000"/>
  <path d="m10.667 89.333v-9.3333h309.33v18.667h-309.33z" fill="#3c0000"/>
  <path d="m10.667 96c0-2.6513 0.88889-2.6667 154.67-2.6667 153.78 0 154.67 0.01532 154.67 2.6667 0 2.6513-0.88889 2.6667-154.67 2.6667-153.78 0-154.67-0.01533-154.67-2.6667z" fill="#360000"/>
 </g>
</svg>
