<?xml version="1.0" encoding="UTF-8"?>
<svg width="249" height="244" version="1.1" viewBox="0 0 249 244" xmlns="http://www.w3.org/2000/svg">
 <g transform="translate(1.0339 -1.0339)">
  <path d="m17.809 239.53c-6.665-5.2323-13.495-14.797-16.021-22.436-1.6602-5.0207-1.7874-11.464-1.7874-90.568 0-94.555-0.26657-90.516 6.6922-101.39 7.2875-11.392 18.112-18.793 31.516-21.548 6.6482-1.3665 18.402-1.5832 85.5-1.5767 47.575 0.0046198 80.317 0.40127 84.292 1.0211 19.298 3.0093 36.65 19.523 40.031 38.098 0.66083 3.6299 0.92573 35.036 0.74647 88.5l-0.27786 82.873-2.2671 5.6037c-3.2626 8.0644-8.8834 15.624-15.698 21.115l-5.9354 4.7816-100.55-6.3e-4 -100.55-6.3e-4z" fill="#f8f8f8"/>
  <path d="m23.403 241.06c-9.6385-5.5283-17.777-16.718-20.911-28.751-2.2276-8.5522-2.2276-164.06 0-172.61 3.5776-13.735 12.392-24.342 25.924-31.193l7.8999-4h175.18l7.8085 3.7285c15.658 7.4765 25.723 21.585 27.706 38.835 1.2376 10.765 1.2352 149.04-3e-3 158.56-1.887 14.519-10.043 27.694-21.825 35.254l-4.8622 3.1202-95.912-9e-3 -95.912-9e-3 -5.0969-2.9234z" fill="#f3f3f3"/>
  <path d="m25.999 241.06c-6.6343-3.4275-14.843-11.846-18.406-18.878-5.676-11.201-5.5933-9.7787-5.5933-96.184 0-86.483-0.088776-84.965 5.6327-96.267 3.6508-7.2113 15.395-18.669 22.867-22.31l6-2.9234h175.04l6.602 3.2501c7.7367 3.8088 19.176 15.148 22.769 22.57 5.1192 10.575 5.0623 9.5022 5.075 95.719 0.0129 87.857 0.0914 86.531-5.7571 97.277-3.3612 6.1757-11.11 13.878-17.853 17.745l-5.1217 2.9377-92.878-0.0481-92.878-0.0481z" fill="#ececec"/>
  <path d="m28.201 240.71c-8.0103-4.0883-16.007-11.938-19.566-19.207-5.687-11.614-5.7297-12.393-5.4193-98.857l0.28417-79.15 2.2651-6.2634c2.9967-8.2863 9.9417-18.974 15.322-23.58 2.3859-2.0422 6.8297-4.938 9.8752-6.4351l5.5373-2.722h175.04l6.5684 3.2336c11.507 5.6651 22.115 19.636 25.36 33.402 2.2855 9.6954 2.2599 159.76-0.029 169.82-2.9498 12.969-11.677 23.976-23.851 30.078l-5.9098 2.9625-89.59-0.03521-89.59-0.03521z" fill="#e8e6e6"/>
  <path d="m31.761 241.6c-11.526-4.7573-20.062-13.499-25.021-25.624l-2.2402-5.4772-0.30436-80.5c-0.21765-57.564 0.022519-82.21 0.84292-86.5 1.4533-7.6006 6.9193-19.522 11.531-25.15 4.5945-5.6069 11.073-10.022 18.273-12.454 5.5322-1.8682 8.8815-1.9295 91.2-1.6675l85.457 0.27194 5.7526 2.6959c8.5615 4.0122 16.124 11.687 20.435 20.739 6.5489 13.751 6.2877 9.6851 6.3008 98.087 0.011 74.618-0.12067 81-1.7958 87.041-3.4 12.261-11.827 22.071-23.762 27.66l-5.9301 2.7771-87.5 0.23482-87.5 0.23482z" fill="#e3e2e2"/>
  <path d="m38.5 243.29c-14.718-3.6572-27.241-15.361-31.672-29.599-1.7757-5.7052-1.8579-10.285-1.5998-89.104l0.27213-83.09 2.7591-7.5c5.3436-14.525 14.226-23.984 26.312-28.018 5.9348-1.9809 7.9859-2.0202 91.5-1.7544l85.429 0.27192 5.62 2.6352c14.104 6.6131 23.117 20.394 25.881 39.572 0.77911 5.4047 1.0185 31.391 0.78119 84.793-0.38269 86.112 0.0129 81.318-7.6938 93.241-4.6789 7.2391-11.921 13.24-19.837 16.436l-5.7521 2.3226-85 0.14499c-46.75 0.0797-85.9-0.0787-87-0.352z" fill="#e7e4d7"/>
  <path d="m38.5 243.29c-14.718-3.6572-27.241-15.361-31.672-29.599-1.7757-5.7052-1.8579-10.285-1.5998-89.104l0.27213-83.09 2.7409-7.3983c5.1779-13.976 11.558-21.312 23.329-26.825l5.9301-2.7771h174l5.5373 2.722c14.627 7.1902 23.185 20.205 25.964 39.485 0.77911 5.4047 1.0185 31.391 0.78119 84.793-0.38269 86.112 0.0129 81.318-7.6938 93.241-4.6789 7.2391-11.921 13.24-19.837 16.436l-5.7521 2.3226-85 0.14499c-46.75 0.0797-85.9-0.0787-87-0.352z" fill="#e0dedd"/>
  <path d="m42 243.32c-11.373-1.853-23.116-9.2683-29.205-18.442-7.5696-11.405-7.2265-7.0875-7.5634-95.188-0.20035-52.404 0.051436-80.548 0.75149-84 0.57904-2.8551 1.3143-6.5411 1.6338-8.1911 2.6264-13.56 11.069-24.186 24.047-30.266l5.8359-2.734h174l5.6922 2.7953c11.334 5.5656 18.403 14.138 23.153 28.076 2.0394 5.984 2.0962 8.0397 2.4055 86.97 0.20588 52.546-0.0439 82.822-0.71357 86.5-3.1101 17.082-17.08 30.847-34.59 34.084-5.5285 1.022-159.34 1.3894-165.45 0.39516z" fill="#f5f2b3"/>
  <path d="m42 243.32c-11.373-1.853-23.116-9.2683-29.205-18.442-7.5696-11.405-7.2265-7.0875-7.5634-95.188-0.20035-52.404 0.051436-80.548 0.75149-84 0.57904-2.8551 1.3143-6.5411 1.6338-8.1911 2.6264-13.56 11.069-24.186 24.047-30.266l5.8359-2.734h174l5.6922 2.7953c11.334 5.5656 18.403 14.138 23.153 28.076 2.0394 5.984 2.0962 8.0397 2.4055 86.97 0.20588 52.546-0.0439 82.822-0.71357 86.5-3.1101 17.082-17.08 30.847-34.59 34.084-5.5285 1.022-159.34 1.3894-165.45 0.39516zm5-12.32c0-2.8333-0.22222-3-4-3-3.5678 0-4 0.26222-4 2.4267 0 2.4484 1.296 3.2277 5.75 3.4573 1.8591 0.0959 2.25-0.40518 2.25-2.884zm165.14 1.0045c3.4954-1.0975 7.0303-2.4406 7.8553-2.9847 0.99515-0.65628-27.697-0.99438-85.25-1.0045l-86.75-0.01531v6h78.895c76.045 0 79.124-0.0721 85.25-1.9955zm-174.14-1.5045c0-2.3592-0.29563-2.4956-5.25-2.4211l-5.25 0.0789 5 2.4083c2.75 1.3245 5.1125 2.414 5.25 2.4211 0.1375 0.00705 0.25-1.1122 0.25-2.4872zm0-15v-11.5h-29.027l1.5659 3.75c2.7565 6.601 6.2419 11.819 10.408 15.584 3.7957 3.4292 4.4785 3.6664 10.555 3.6664h6.4971zm9 0v-11.5h-8v23h8zm181.74 6.1766c4.7704-5.044 8.1443-10.413 9.6946-15.427l0.6957-2.25h-191.13v23h175.71zm-190.74-31.177v-11.5h-30v9.9182c0 5.455 0.27314 10.63 0.60699 11.5 0.51459 1.341 2.7979 1.5818 15 1.5818h14.393zm9 0v-11.5h-8v23h8zm193 0v-11.5h-192v23h192zm-202-25v-11.5h-30v23h30zm9 0v-11.5h-8v23h8zm193 0v-11.5h-192v23h192zm-202-24.5v-11h-30v22h30zm9 0v-11h-8v22h8zm193 0v-11h-192v22h192zm-202-25.5v-12.5h-30v25h30zm9 0v-12.5h-8v25h8zm193 0v-12.5h-192v25h192zm-202-21.25-9.67e-4 -6.75h-29.999l6.455e-4 6.75 6.456e-4 6.75h30zm9.001-0.75c0-7.2657-0.075548-7.5-2.4182-7.5-5.061 0-5.5818 0.75633-5.5818 8.107v6.893h8zm193-5.1224c0-9.9517-0.26448-12.416-1.25-11.647-1.9662 1.5349-15.016 3.1538-29.75 3.6906-7.425 0.27052-16.875 0.93787-21 1.483-12.235 1.6169-39.006 3.5215-46 3.2727-3.575-0.12717-13.7-0.40342-22.5-0.6139-8.8-0.21048-22.571-0.7155-30.602-1.1223-9.9156-0.50221-15.62-0.38491-17.772 0.36546-1.7435 0.60778-7.6599 1.4143-13.148 1.7922l-9.9777 0.6872v14.714h192zm-209.25-8.1209c-4.2625-0.18745-11.238-0.18745-15.5 0s-0.775 0.34082 7.75 0.34082 12.012-0.15337 7.75-0.34082zm15.012-1.9438c-0.95609-0.25029-2.7561-0.25937-4-0.02018-1.2439 0.23919-0.46166 0.44398 1.7383 0.45508s3.2177-0.1846 2.2617-0.4349zm12.966-0.04272c-2.0748-0.21648-5.2248-0.21285-7 0.0081-1.7752 0.22088-0.0777 0.398 3.7723 0.39356 3.85-0.0044 5.3025-0.18518 3.2277-0.40166zm63.425-1.0469c-12.459-0.26385-13.258-0.39722-12-2.003 1.1781-1.5037 1.153-1.5687-0.19959-0.51601-0.85107 0.66236-5.1261 1.3593-9.5 1.5488l-7.9526 0.34447 8.309 0.20124c4.57 0.11068 8.0994 0.53874 7.8431 0.95124s5.6797 0.52633 13.191 0.25296l13.657-0.49704-13.348-0.28267zm36.764 0.14001c0.76627-0.66808-8.3773-0.13701-11.417 0.66309-1.8196 0.479-0.2458 0.57538 4 0.24496 3.85-0.29963 7.1875-0.70825 7.4167-0.90805zm-90.155-0.050348c-0.95609-0.25029-2.7561-0.25937-4-0.02018-1.2439 0.23919-0.46166 0.44398 1.7383 0.45508s3.2177-0.1846 2.2617-0.4349zm73.488-0.018653c-1.2375-0.23835-3.2625-0.23835-4.5 0s-0.225 0.43337 2.25 0.43337 3.4875-0.19502 2.25-0.43337zm-102.25-1.7943c0-2.2368-28.503-2.2368-29.362 0-0.49585 1.2922 1.4984 1.5 14.393 1.5 12.639 0 14.969-0.23347 14.969-1.5zm128.77 0.78547c-1.5026-0.22817-4.2026-0.23277-6-0.0102-1.7974 0.22256-0.56791 0.40925 2.7321 0.41486 3.3 0.0056 4.7706-0.17648 3.2679-0.40466zm-79.991-1.0124c-2.048-0.21488-5.648-0.21785-8-0.0066-2.352 0.21124-0.67643 0.38705 3.7236 0.39068 4.4 0.0036 6.3244-0.1692 4.2764-0.38408zm93.974-0.001575c-2.0625-0.21574-5.4375-0.21574-7.5 0-2.0625 0.21574-0.375 0.39226 3.75 0.39226s5.8125-0.17652 3.75-0.39226zm-134.99-0.95861c-0.95609-0.25029-2.7561-0.25937-4-0.02018-1.2439 0.23919-0.46166 0.44398 1.7383 0.45508s3.2177-0.1846 2.2617-0.4349zm12.966-0.04272c-2.0748-0.21648-5.2248-0.21285-7 0.0081-1.7752 0.22088-0.0777 0.398 3.7723 0.39356 3.85-0.0044 5.3025-0.18518 3.2277-0.40166zm90.541 0.07386c-0.67703-0.27392-2.027-0.2906-3-0.03705-0.97297 0.25354-0.41903 0.47766 1.231 0.49804 1.65 0.02038 2.4461-0.18706 1.769-0.46099zm40.481-0.033386c-0.9625-0.25153-2.5375-0.25153-3.5 0-0.9625 0.25153-0.175 0.45732 1.75 0.45732s2.7125-0.2058 1.75-0.45732z" fill="#f1efb0"/>
  <path d="m42 243.32c-11.373-1.853-23.116-9.2683-29.205-18.442-7.5696-11.405-7.2265-7.0875-7.5634-95.188-0.20035-52.404 0.051436-80.548 0.75149-84 0.57904-2.8551 1.3143-6.5411 1.6338-8.1911 2.6264-13.56 11.069-24.186 24.047-30.266l5.8359-2.734h174l5.6922 2.7953c11.334 5.5656 18.403 14.138 23.153 28.076 2.0394 5.984 2.0962 8.0397 2.4055 86.97 0.20588 52.546-0.0439 82.822-0.71357 86.5-3.1101 17.082-17.08 30.847-34.59 34.084-5.5285 1.022-159.34 1.3894-165.45 0.39516zm5-12.32c0-2.8333-0.22222-3-4-3-3.5678 0-4 0.26222-4 2.4267 0 2.4484 1.296 3.2277 5.75 3.4573 1.8591 0.0959 2.25-0.40518 2.25-2.884zm165.14 1.0045c3.4954-1.0975 7.0303-2.4406 7.8553-2.9847 0.99515-0.65628-27.697-0.99438-85.25-1.0045l-86.75-0.01531v6h78.895c76.045 0 79.124-0.0721 85.25-1.9955zm-174.14-1.5045c0-2.3592-0.29563-2.4956-5.25-2.4211l-5.25 0.0789 5 2.4083c2.75 1.3245 5.1125 2.414 5.25 2.4211 0.1375 0.00705 0.25-1.1122 0.25-2.4872zm0-15v-11.5h-28.896l1.1082 3.25c1.7038 4.9966 7.0419 12.894 11.152 16.5 3.3624 2.9495 4.3028 3.25 10.17 3.25h6.4652zm9 0v-11.5h-8v23h8zm181.74 6.1766c4.7704-5.044 8.1443-10.413 9.6946-15.427l0.6957-2.25h-191.13v23h175.71zm-190.74-31.177v-11.5h-30v9.9182c0 5.455 0.27314 10.63 0.60699 11.5 0.51459 1.341 2.7979 1.5818 15 1.5818h14.393zm9 0v-11.5h-8v23h8zm193 0v-11.5h-192v23h192zm-202-25v-11.5h-30v23h30zm9 0v-11.5h-8v23h8zm193 0v-11.5h-192v23h192zm-202-24.5v-11h-30v22h30zm9 0v-11h-8v22h8zm193 0v-11h-192v22h192zm-202-25.5v-12.5h-30v25h30zm9 0v-12.5h-8v25h8zm193 0v-12.5h-192v25h192zm-202-21.5v-7h-30v14h30zm9-0.5v-7.5h-8v15h8zm193-5.107c0-11.598-0.14012-12.553-1.75-11.931-3.6979 1.4287-11.233 2.3719-23.75 2.973-7.15 0.34335-19.3 1.271-27 2.0615-34.443 3.536-52.716 3.8194-93.097 1.4435-16.805-0.98873-19.66-0.93254-23.785 0.46808-2.5785 0.87542-7.71 1.5978-11.403 1.6053-11.223 0.022822-11.215 0.016407-11.215 8.603v7.3834h192zm-209.25-8.1363c-4.2625-0.18745-11.238-0.18745-15.5 0s-0.775 0.34082 7.75 0.34082 12.012-0.15337 7.75-0.34082zm15.012-1.9438c-0.95609-0.25029-2.7561-0.25937-4-0.02018-1.2439 0.23919-0.46166 0.44398 1.7383 0.45508s3.2177-0.1846 2.2617-0.4349zm12.966-0.04272c-2.0748-0.21648-5.2248-0.21285-7 0.0081-1.7752 0.22088-0.0777 0.398 3.7723 0.39356 3.85-0.0044 5.3025-0.18518 3.2277-0.40166zm63.425-1.0469c-12.459-0.26385-13.258-0.39722-12-2.003 1.1781-1.5037 1.153-1.5687-0.19959-0.51601-0.85107 0.66236-5.1261 1.3593-9.5 1.5488l-7.9526 0.34447 8.309 0.20124c4.57 0.11068 8.0994 0.53874 7.8431 0.95124s5.6797 0.52633 13.191 0.25296l13.657-0.49704-13.348-0.28267zm36.764 0.14001c0.76627-0.66808-8.3773-0.13701-11.417 0.66309-1.8196 0.479-0.2458 0.57538 4 0.24496 3.85-0.29963 7.1875-0.70825 7.4167-0.90805zm-90.155-0.050348c-0.95609-0.25029-2.7561-0.25937-4-0.02018-1.2439 0.23919-0.46166 0.44398 1.7383 0.45508s3.2177-0.1846 2.2617-0.4349zm73.488-0.018653c-1.2375-0.23835-3.2625-0.23835-4.5 0s-0.225 0.43337 2.25 0.43337 3.4875-0.19502 2.25-0.43337zm-102.25-1.7943c0-2.2368-28.503-2.2368-29.362 0-0.49585 1.2922 1.4984 1.5 14.393 1.5 12.639 0 14.969-0.23347 14.969-1.5zm128.77 0.78547c-1.5026-0.22817-4.2026-0.23277-6-0.0102-1.7974 0.22256-0.56791 0.40925 2.7321 0.41486 3.3 0.0056 4.7706-0.17648 3.2679-0.40466zm-79.991-1.0124c-2.048-0.21488-5.648-0.21785-8-0.0066-2.352 0.21124-0.67643 0.38705 3.7236 0.39068 4.4 0.0036 6.3244-0.1692 4.2764-0.38408zm93.974-0.001575c-2.0625-0.21574-5.4375-0.21574-7.5 0-2.0625 0.21574-0.375 0.39226 3.75 0.39226s5.8125-0.17652 3.75-0.39226zm-134.99-0.95861c-0.95609-0.25029-2.7561-0.25937-4-0.02018-1.2439 0.23919-0.46166 0.44398 1.7383 0.45508s3.2177-0.1846 2.2617-0.4349zm12.966-0.04272c-2.0748-0.21648-5.2248-0.21285-7 0.0081-1.7752 0.22088-0.0777 0.398 3.7723 0.39356 3.85-0.0044 5.3025-0.18518 3.2277-0.40166zm90.541 0.07386c-0.67703-0.27392-2.027-0.2906-3-0.03705-0.97297 0.25354-0.41903 0.47766 1.231 0.49804 1.65 0.02038 2.4461-0.18706 1.769-0.46099zm40.481-0.033386c-0.9625-0.25153-2.5375-0.25153-3.5 0-0.9625 0.25153-0.175 0.45732 1.75 0.45732s2.7125-0.2058 1.75-0.45732z" fill="#dbdada"/>
  <path d="m36 241.12c-7.4986-2.4198-10.694-4.2066-16.2-9.0582-5.4598-4.811-10.424-12.968-12.393-20.365-2.1429-8.0489-2.043-160.84 0.11261-172.19 2.9265-15.413 10.493-25.768 23.24-31.807l6.7408-3.1931h174l5.6922 2.7953c12.067 5.9256 20.063 16.271 23.435 30.321 1.435 5.9792 1.7094 16.464 2.0876 79.782 0.49903 83.535 0.0892 92.193-4.8376 102.2-5.3077 10.782-16.495 19.689-28.085 22.363-2.6514 0.6116-35.629 0.97869-86.291 0.96057-75.752-0.0271-82.419-0.16457-87.5-1.8042zm11-10.118c0-2.8333-0.22222-3-4-3-3.5678 0-4 0.26222-4 2.4267 0 2.4484 1.296 3.2277 5.75 3.4573 1.8591 0.0959 2.25-0.40518 2.25-2.884zm165.14 1.0045c3.4954-1.0975 7.0303-2.4406 7.8553-2.9847 0.99515-0.65628-27.697-0.99438-85.25-1.0045l-86.75-0.01531v6h78.895c76.045 0 79.124-0.0721 85.25-1.9955zm-174.14-1.5045c0-2.3592-0.29563-2.4956-5.25-2.4211l-5.25 0.0789 5 2.4083c2.75 1.3245 5.1125 2.414 5.25 2.4211 0.1375 0.00705 0.25-1.1122 0.25-2.4872zm0-15v-11.5h-28.896l1.1082 3.25c1.7038 4.9966 7.0419 12.894 11.152 16.5 3.3624 2.9495 4.3028 3.25 10.17 3.25h6.4652zm9 0v-11.5h-8v23h8zm181.74 6.1766c4.7704-5.044 8.1443-10.413 9.6946-15.427l0.6957-2.25h-191.13v23h175.71zm-190.74-31.177v-11.5h-30v9.9182c0 5.455 0.27314 10.63 0.60699 11.5 0.51459 1.341 2.7979 1.5818 15 1.5818h14.393zm9 0v-11.5h-8v23h8zm193 0v-11.5h-192v23h192zm-202-25v-11.5h-30v23h30zm9 0v-11.5h-8v23h8zm193 0v-11.5h-192v23h192zm-202-24.5v-11h-30v22h30zm9 0v-11h-8v22h8zm193 0v-11h-192v22h192zm-202-25.5v-12.5h-30v25h30zm9 0v-12.5h-8v25h8zm193 0v-12.5h-192v25h192zm-202-21.5v-7h-30v14h30zm9-0.5v-7.5h-8v15h8zm193-5.107c0-11.598-0.14012-12.553-1.75-11.931-3.6979 1.4287-11.233 2.3719-23.75 2.973-7.15 0.34335-19.3 1.271-27 2.0615-34.443 3.536-52.716 3.8194-93.097 1.4435-16.805-0.98873-19.66-0.93254-23.785 0.46808-2.5785 0.87542-7.71 1.5978-11.403 1.6053-11.223 0.022822-11.215 0.016407-11.215 8.603v7.3834h192zm-209.25-8.1363c-4.2625-0.18745-11.238-0.18745-15.5 0s-0.775 0.34082 7.75 0.34082 12.012-0.15337 7.75-0.34082zm15.012-1.9438c-0.95609-0.25029-2.7561-0.25937-4-0.02018-1.2439 0.23919-0.46166 0.44398 1.7383 0.45508s3.2177-0.1846 2.2617-0.4349zm12.966-0.04272c-2.0748-0.21648-5.2248-0.21285-7 0.0081-1.7752 0.22088-0.0777 0.398 3.7723 0.39356 3.85-0.0044 5.3025-0.18518 3.2277-0.40166zm63.425-1.0469c-12.459-0.26385-13.258-0.39722-12-2.003 1.1781-1.5037 1.153-1.5687-0.19959-0.51601-0.85107 0.66236-5.1261 1.3593-9.5 1.5488l-7.9526 0.34447 8.309 0.20124c4.57 0.11068 8.0994 0.53874 7.8431 0.95124s5.6797 0.52633 13.191 0.25296l13.657-0.49704-13.348-0.28267zm36.764 0.14001c0.76627-0.66808-8.3773-0.13701-11.417 0.66309-1.8196 0.479-0.2458 0.57538 4 0.24496 3.85-0.29963 7.1875-0.70825 7.4167-0.90805zm-90.155-0.050348c-0.95609-0.25029-2.7561-0.25937-4-0.02018-1.2439 0.23919-0.46166 0.44398 1.7383 0.45508s3.2177-0.1846 2.2617-0.4349zm73.488-0.018653c-1.2375-0.23835-3.2625-0.23835-4.5 0s-0.225 0.43337 2.25 0.43337 3.4875-0.19502 2.25-0.43337zm-102.25-1.7943c0-2.2368-28.503-2.2368-29.362 0-0.49585 1.2922 1.4984 1.5 14.393 1.5 12.639 0 14.969-0.23347 14.969-1.5zm128.77 0.78547c-1.5026-0.22817-4.2026-0.23277-6-0.0102-1.7974 0.22256-0.56791 0.40925 2.7321 0.41486 3.3 0.0056 4.7706-0.17648 3.2679-0.40466zm-79.991-1.0124c-2.048-0.21488-5.648-0.21785-8-0.0066-2.352 0.21124-0.67643 0.38705 3.7236 0.39068 4.4 0.0036 6.3244-0.1692 4.2764-0.38408zm93.974-0.001575c-2.0625-0.21574-5.4375-0.21574-7.5 0-2.0625 0.21574-0.375 0.39226 3.75 0.39226s5.8125-0.17652 3.75-0.39226zm-134.99-0.95861c-0.95609-0.25029-2.7561-0.25937-4-0.02018-1.2439 0.23919-0.46166 0.44398 1.7383 0.45508s3.2177-0.1846 2.2617-0.4349zm12.966-0.04272c-2.0748-0.21648-5.2248-0.21285-7 0.0081-1.7752 0.22088-0.0777 0.398 3.7723 0.39356 3.85-0.0044 5.3025-0.18518 3.2277-0.40166zm90.541 0.07386c-0.67703-0.27392-2.027-0.2906-3-0.03705-0.97297 0.25354-0.41903 0.47766 1.231 0.49804 1.65 0.02038 2.4461-0.18706 1.769-0.46099zm40.481-0.033386c-0.9625-0.25153-2.5375-0.25153-3.5 0-0.9625 0.25153-0.175 0.45732 1.75 0.45732s2.7125-0.2058 1.75-0.45732z" fill="#f0eeaf"/>
  <path d="m36 241.12c-7.4986-2.4198-10.694-4.2066-16.2-9.0582-5.4598-4.811-10.424-12.968-12.393-20.365-2.1429-8.0489-2.043-160.84 0.11261-172.19 2.9265-15.413 10.493-25.768 23.24-31.807l6.7408-3.1931h174l5.6922 2.7953c12.067 5.9256 20.063 16.271 23.435 30.321 1.435 5.9792 1.7094 16.464 2.0876 79.782 0.49903 83.535 0.0892 92.193-4.8376 102.2-5.3077 10.782-16.495 19.689-28.085 22.363-2.6514 0.6116-35.629 0.97869-86.291 0.96057-75.752-0.0271-82.419-0.16457-87.5-1.8042zm11-10.118c0-2.8333-0.22222-3-4-3-3.5632 0-4 0.26389-4 2.4167 0 2.6529 1.097 3.3852 5.25 3.5044 2.4064 0.06909 2.75-0.29585 2.75-2.921zm163.52 1.638c2.7637-0.73603 6.3637-2.0627 8-2.9481 2.7547-1.4906-3.4535-1.6128-83.775-1.6499l-86.75-0.04004v6l78.75-0.0119c62.569-9e-3 79.782-0.28684 83.775-1.3501zm-172.52-2.138c0-2.3462-0.32-2.5-5.2-2.5-5.8401 0-5.6091 1.0854 0.72416 3.4037 2.1867 0.80046 4.0883 1.4871 4.2258 1.5258 0.1375 0.03875 0.25-1.0545 0.25-2.4295zm0-15v-11.5h-28.911l1.4346 4.0661c1.7565 4.9784 4.5259 9.1111 9.8403 14.684 3.9909 4.185 4.1567 4.25 10.845 4.25h6.7918zm9 0v-11.5h-8v23h8zm181.47 6.8741c4.3023-4.3023 8.3217-10.803 9.9699-16.124l0.6969-2.25h-191.13v23h175.84zm-190.47-31.874v-11.5h-30v9.9182c0 5.455 0.27314 10.63 0.60699 11.5 0.51459 1.341 2.7979 1.5818 15 1.5818h14.393zm9 0v-11.5h-8v23h8zm193 0v-11.5h-192v23h192zm-202-25v-11.5h-30v23h30zm9 0v-11.5h-8v23h8zm193 0v-11.5h-192v23h192zm-202-24.5v-11h-30v22h30zm9 0v-11h-8v22h8zm193 0v-11h-192v22h192zm-202-25.5v-12.5h-30v25h30zm9 0v-12.5h-8v25h8zm193 0v-12.5h-192v25h192zm-202-21.75-0.003595-7.25-14.996-0.33208-14.996-0.33208v15.164h30l-0.0036-7.25zm9.0036-0.81036v-8.0604l-3.75 0.31037-3.75 0.31036-0.29206 7.75-0.29206 7.75h8.0841zm193-4.9748c0-12.086-0.12737-12.97-1.75-12.146-3.0176 1.533-16.218 3.0978-30.25 3.5858-7.425 0.25825-16.875 0.92357-21 1.4785-22.759 3.0617-64.484 3.5885-98.5 1.2437-9.9883-0.68851-13.927-0.59394-17 0.40821-2.2 0.71738-8.3875 1.619-13.75 2.0036l-9.75 0.69929v15.762h192zm-209.25-7.7081c-4.2625-0.18745-11.238-0.18745-15.5 0s-0.775 0.34082 7.75 0.34082 12.012-0.15337 7.75-0.34082zm131.25-3.186l9.5-0.96576-9 0.42557c-4.95 0.23407-11.25 0.73485-14 1.1129-4.5173 0.62094-4.8721 0.5321-3.6755-0.92026 0.72846-0.88415 2.7535-1.7865 4.5-2.0053l3.1755-0.39777-3.1276-0.16004c-1.7346-0.088762-3.682 0.50801-4.3724 1.34-1.0198 1.2288-4.4093 1.5-18.745 1.5-16.523 0-17.423-0.09772-16.128-1.75 1.205-1.5365 1.1836-1.6031-0.17494-0.54571-0.85107 0.66236-5.1261 1.3593-9.5 1.5488l-7.9526 0.34447 8.309 0.20124c4.57 0.11068 8.0997 0.53874 7.8438 0.95124-0.25584 0.4125 7.6315 0.61757 17.527 0.45572 10.527-0.17217 17.761 0.08023 17.435 0.60829-0.3294 0.53298 1.3756 0.55858 4.1636 0.06253 2.5968-0.46202 8.9964-1.2746 14.221-1.8058zm-116.24 1.2422c-0.95609-0.25029-2.7561-0.25937-4-0.02018-1.2439 0.23919-0.46166 0.44398 1.7383 0.45508s3.2177-0.1846 2.2617-0.4349zm25.004-1.2858c1.4013-0.85215 1.216-0.9376-0.96539-0.44511-1.4848 0.33523-6.8848 0.98959-12 1.4541l-9.3004 0.84464 10.266-0.39953c5.6462-0.21974 11.046-0.87411 12-1.4541zm-30.766-1.5539c0-1.3122-2.0614-1.4878-14.668-1.25-10.643 0.20079-14.782 0.61977-15.083 1.5267-0.32009 0.96311 3.0463 1.25 14.668 1.25 12.858 0 15.083-0.22524 15.083-1.5267zm47.784-0.20694c-2.5941-0.20525-7.0941-0.20738-10-0.0047-2.9059 0.20261-0.78352 0.37054 4.7165 0.37314 5.5 0.0026 7.8776-0.16319 5.2835-0.36844zm101.72-0.19529c2.5439-0.51749 0.17765-0.62808-6.5-0.3038-5.775 0.28045-10.688 0.67255-10.917 0.87133-0.80796 0.70086 13.468 0.23565 17.417-0.56753zm-141.74-0.75812c-0.95609-0.25029-2.7561-0.25937-4-0.02018-1.2439 0.23919-0.46166 0.44398 1.7383 0.45508s3.2177-0.1846 2.2617-0.4349zm13.988-0.041388c-2.0625-0.21574-5.4375-0.21574-7.5 0-2.0625 0.21574-0.375 0.39226 3.75 0.39226s5.8125-0.17652 3.75-0.39226z" fill="#e7e6b7"/>
  <path d="m36 241.12c-7.4986-2.4198-10.694-4.2066-16.2-9.0582-5.4598-4.811-10.424-12.968-12.393-20.365-2.1429-8.0489-2.043-160.84 0.11261-172.19 2.9265-15.413 10.493-25.768 23.24-31.807l6.7408-3.1931h174l5.6922 2.7953c12.067 5.9256 20.063 16.271 23.435 30.321 1.435 5.9792 1.7094 16.464 2.0876 79.782 0.49903 83.535 0.0892 92.193-4.8376 102.2-5.3077 10.782-16.495 19.689-28.085 22.363-2.6514 0.6116-35.629 0.97869-86.291 0.96057-75.752-0.0271-82.419-0.16457-87.5-1.8042zm11-10.118c0-2.8333-0.22222-3-4-3-3.5632 0-4 0.26389-4 2.4167 0 2.6529 1.097 3.3852 5.25 3.5044 2.4064 0.06909 2.75-0.29585 2.75-2.921zm169-0.16665 5.5-2.6666-86.75-0.0833l-86.75-0.0834v6.0455l81.25-0.27277 81.25-0.27277zm-178-0.33335c0-2.386-0.2623-2.4964-5.75-2.4211l-5.75 0.0789 5 2.4083c6.2317 3.0015 6.5 2.9988 6.5-0.066zm0-15v-11.5h-29.135l0.6957 2.25c1.5503 5.014 4.9241 10.383 9.6946 15.427l5.0346 5.3234h13.71zm9 0v-11.5h-8v23h8zm181.39 7.1654c4.7109-4.7109 9.0813-11.562 10.153-15.915l0.67682-2.75h-191.22v23h176.05zm-190.39-32.165v-11.5h-30v23h30zm9 0v-11.5h-8v23h8zm193.36 7.75c0.34091-2.0625 0.62479-7.2375 0.63084-11.5l0.01101-7.75h-193v23h191.74zm-202.36-32.75v-11.5h-30v23h30zm9 0v-11.5h-8v23h8zm194 0v-11.5h-193v23h193zm-203-24.5v-11h-30v22h30zm9 0v-11h-8v22h8zm194 0v-11h-193v22h193zm-203-25.5v-12.5h-30v25h30zm9 0v-12.5h-8v25h8zm194 0v-12.5h-193v25h193zm-203-21.75-0.003595-7.25-14.996-0.33208-14.996-0.33208v15.164h30l-0.0036-7.25zm9.0036-0.81036v-8.0604l-3.75 0.31037-3.75 0.31036-0.29206 7.75-0.29206 7.75h8.0841zm194-5.5621c0-12.068-0.17321-13.479-1.5183-12.362-2.4852 2.0625-9.0243 3.0158-26.982 3.9335-9.35 0.47783-20.825 1.3451-25.5 1.9272-25.047 3.1189-64.154 3.6152-98.5 1.2499-9.9867-0.68774-13.927-0.59292-17 0.40908-2.2 0.71738-8.3875 1.619-13.75 2.0036l-9.75 0.69929v15.762h193zm-210.25-7.1209c-4.2625-0.18745-11.238-0.18745-15.5 0s-0.775 0.34082 7.75 0.34082 12.012-0.15337 7.75-0.34082zm133.25-2.8797c9.625-0.8022 20.2-1.8478 23.5-2.3235 5.4578-0.78681 5.2319-0.82297-2.5-0.40012-11.459 0.62669-30.472 2.2135-35.997 3.0043-4.0358 0.5776-4.3619 0.48033-3.1768-0.94762 0.72636-0.87521 2.5252-1.7756 3.9975-2.0008 2.4974-0.38207 2.4671-0.41957-0.45074-0.55936-1.7239-0.082589-3.6862 0.52335-4.3724 1.3502-1.0198 1.2288-4.4093 1.5-18.745 1.5-16.504 0-17.425-0.09955-16.176-1.75 1.1266-1.4888 1.115-1.5634-0.0776-0.5-1.509 1.3456-17.476 1.825-16.655 0.5 0.67472-1.0888-18.214-0.39922-22.347 0.81581-1.925 0.56594-7.775 1.4333-13 1.9275l-9.5 0.89853 10.804-0.43972c5.9423-0.24185 11.65-0.89252 12.684-1.4459 2.1572-1.1545 20.368-1.3918 19.665-0.2562-0.25542 0.4125 3.5985 0.59065 8.5643 0.3959 4.9658-0.19476 8.7905 0.03024 8.4992 0.5-0.29123 0.46976 7.5671 0.72168 17.463 0.55982 13.916-0.22761 17.823-0.0192 17.242 0.91994-0.53837 0.8711-0.20956 1.0017 1.1636 0.46203 1.0527-0.4137 9.789-1.4085 19.414-2.2107zm-138.8-0.37696c12.489 0 14.8-0.23423 14.8-1.5 0-1.2638-2.265-1.5-14.385-1.5h-14.385l-1.7448 2.75c-0.95965 1.5125-1.1464 2.1875-0.41501 1.5 0.94023-0.88379 5.6657-1.25 16.13-1.25zm20.562 1.3129c-0.95609-0.25029-2.7561-0.25937-4-0.02018-1.2439 0.23919-0.46166 0.44398 1.7383 0.45508s3.2177-0.1846 2.2617-0.4349zm2-4c-0.95609-0.25029-2.7561-0.25937-4-0.02018-1.2439 0.23919-0.46166 0.44398 1.7383 0.45508s3.2177-0.1846 2.2617-0.4349zm13.988-0.041388c-2.0625-0.21574-5.4375-0.21574-7.5 0-2.0625 0.21574-0.375 0.39226 3.75 0.39226s5.8125-0.17652 3.75-0.39226z" fill="#e8e7aa"/>
  <path d="m36 241.12c-7.4986-2.4198-10.694-4.2066-16.2-9.0582-5.4598-4.811-10.424-12.968-12.393-20.365-2.1429-8.0489-2.043-160.84 0.11261-172.19 2.9265-15.413 10.493-25.768 23.24-31.807l6.7408-3.1931h174l5.6922 2.7953c12.067 5.9256 20.063 16.271 23.435 30.321 1.435 5.9792 1.7094 16.464 2.0876 79.782 0.49903 83.535 0.0892 92.193-4.8376 102.2-5.3077 10.782-16.495 19.689-28.085 22.363-2.6514 0.6116-35.629 0.97869-86.291 0.96057-75.752-0.0271-82.419-0.16457-87.5-1.8042zm11-10.118c0-2.8333-0.22222-3-4-3-3.5632 0-4 0.26389-4 2.4167 0 2.6529 1.097 3.3852 5.25 3.5044 2.4064 0.06909 2.75-0.29585 2.75-2.921zm169-0.16665 5.5-2.6666-86.75-0.0833l-86.75-0.0834v6.0455l81.25-0.27277 81.25-0.27277zm-178-0.33335c0-2.386-0.2623-2.4964-5.75-2.4211l-5.75 0.0789 5 2.4083c6.2317 3.0015 6.5 2.9988 6.5-0.066zm0-15v-11.5h-29.135l0.6957 2.25c1.5503 5.014 4.9241 10.383 9.6946 15.427l5.0346 5.3234h13.71zm9 0v-11.5h-8v23h8zm181.39 7.1654c4.7109-4.7109 9.0813-11.562 10.153-15.915l0.67682-2.75h-191.22v23h176.05zm-190.39-32.165v-11.5h-30v23h30zm9 0v-11.5h-8v23h8zm193.36 7.75c0.34091-2.0625 0.62479-7.2375 0.63084-11.5l0.01101-7.75h-193v23h191.74zm-202.36-32.75v-11.5h-30v23h30zm9 0v-11.5h-8v23h8zm194 0v-11.5h-193v23h193zm-203-24.5v-11h-30v22h30zm9 0v-11h-8v22h8zm194 0v-11h-193v22h193zm-203-25.5v-12.5h-30v25h30zm9 0v-12.5h-8v25h8zm194 0v-12.5h-193v25h193zm-203-22.25-7.74e-4 -7.75h-29.999l4.864e-4 7.75 4.863e-4 7.75h30zm9.0008-0.81036v-8.5604l-3.75 0.31037-3.75 0.31036-0.29044 8.25-0.29044 8.25h8.0809zm194-5.0466c0-12.568-0.13362-13.552-1.75-12.883-4.3766 1.8099-16.597 3.488-25.408 3.4891-5.312 6.48e-4 -14.987 0.64621-21.5 1.4346-23.114 2.7979-44.182 3.6584-71.342 2.9139-35.696-0.97846-47.371-0.84347-61.25 0.70816l-11.75 1.3136v16.631h193zm-210.25-7.1363c-4.2625-0.18745-11.238-0.18745-15.5 0s-0.775 0.34082 7.75 0.34082 12.012-0.15337 7.75-0.34082zm133.25-2.8797c9.625-0.8022 20.2-1.8478 23.5-2.3235 5.4578-0.78681 5.2319-0.82297-2.5-0.40012-11.459 0.62669-30.472 2.2135-35.997 3.0043-4.0358 0.5776-4.3619 0.48033-3.1768-0.94762 0.72636-0.87521 2.5252-1.7756 3.9975-2.0008 2.4974-0.38207 2.4671-0.41957-0.45074-0.55936-1.7239-0.082589-3.6862 0.52335-4.3724 1.3502-1.0198 1.2288-4.4093 1.5-18.745 1.5-16.504 0-17.425-0.09955-16.176-1.75 1.1266-1.4888 1.115-1.5634-0.0776-0.5-1.509 1.3456-17.476 1.825-16.655 0.5 0.67472-1.0888-18.214-0.39922-22.347 0.81581-1.925 0.56594-7.775 1.4333-13 1.9275l-9.5 0.89853 10.804-0.43972c5.9423-0.24185 11.65-0.89252 12.684-1.4459 2.1572-1.1545 20.368-1.3918 19.665-0.2562-0.25542 0.4125 3.5985 0.59065 8.5643 0.3959 4.9658-0.19476 8.7905 0.03024 8.4992 0.5-0.29123 0.46976 7.5671 0.72168 17.463 0.55982 13.916-0.22761 17.823-0.0192 17.242 0.91994-0.53837 0.8711-0.20956 1.0017 1.1636 0.46203 1.0527-0.4137 9.789-1.4085 19.414-2.2107zm-138.8-0.37696c12.489 0 14.8-0.23423 14.8-1.5 0-1.2638-2.265-1.5-14.385-1.5h-14.385l-1.7448 2.75c-0.95965 1.5125-1.1464 2.1875-0.41501 1.5 0.94023-0.88379 5.6657-1.25 16.13-1.25zm20.562 1.3129c-0.95609-0.25029-2.7561-0.25937-4-0.02018-1.2439 0.23919-0.46166 0.44398 1.7383 0.45508s3.2177-0.1846 2.2617-0.4349zm2-4c-0.95609-0.25029-2.7561-0.25937-4-0.02018-1.2439 0.23919-0.46166 0.44398 1.7383 0.45508s3.2177-0.1846 2.2617-0.4349zm13.988-0.041388c-2.0625-0.21574-5.4375-0.21574-7.5 0-2.0625 0.21574-0.375 0.39226 3.75 0.39226s5.8125-0.17652 3.75-0.39226z" fill="#d3d2d2"/>
  <path d="m35.762 240.07c-16.045-5.1686-27.253-18.966-28.266-34.796-0.2384-3.727-0.18958-5.9888 0.1085-5.0263 0.48444 1.5643 2.1259 1.75 15.469 1.75h14.927v-23h-29.928l-0.32692 9.75c-0.17981 5.3625-0.4211-25.401-0.53621-68.364-0.13263-49.501 0.16212-80.087 0.8047-83.5 2.3891-12.691 10.859-23.563 22.745-29.193l6.7408-3.1931h174l5.6922 2.7953c8.6591 4.2522 15.209 10.71 19.306 19.033 2.9122 5.9169 3.6978 8.9212 4.4901 17.172 1.2365 12.876 1.2688 153.94 0.0372 162.47-1.2915 8.9365-6.828 19.799-12.798 25.109-2.6002 2.3127-7.6527 5.6046-11.228 7.3153l-6.5 3.1104-84.5 0.21028c-79.783 0.19855-84.82 0.1071-90.238-1.6381zm11.238-9.0722c0-2.8333-0.22222-3-4-3-3.5632 0-4 0.26389-4 2.4167 0 2.6529 1.097 3.3852 5.25 3.5044 2.4064 0.06909 2.75-0.29585 2.75-2.921zm169-0.16665 5.5-2.6666-86.75-0.0833l-86.75-0.0834v6.0455l81.25-0.27277 81.25-0.27277zm-178-0.33335c0-2.386-0.2623-2.4964-5.75-2.4211l-5.75 0.0789 5 2.4083c6.2317 3.0015 6.5 2.9988 6.5-0.066zm0-15v-11.5h-29.135l0.6957 2.25c1.5503 5.014 4.9241 10.383 9.6946 15.427l5.0346 5.3234h13.71zm9 0v-11.5h-8v23h8zm181.39 7.1654c4.7109-4.7109 9.0813-11.562 10.153-15.915l0.67682-2.75h-191.22v23h176.05zm-181.39-32.165v-11.5h-8v23h8zm193.36 7.75c0.34091-2.0625 0.62479-7.2375 0.63084-11.5l0.01101-7.75h-193v23h191.74zm-202.36-32.75v-11.5h-30v23h30zm9 0v-11.5h-8v23h8zm194 0v-11.5h-193v23h193zm-203-24.5v-11h-30v22h30zm9 0v-11h-8v22h8zm194 0v-11h-193v22h193zm-203-25.5v-12.5h-30v25h30zm9 0v-12.5h-8v25h8zm194 0v-12.5h-193v25h193zm-203-22.25-7.74e-4 -7.75h-29.999l4.864e-4 7.75 4.863e-4 7.75h30zm9.0008-0.81036v-8.5604l-3.75 0.31037-3.75 0.31036-0.29044 8.25-0.29044 8.25h8.0809zm194-5.0466c0-12.568-0.13362-13.552-1.75-12.883-4.3766 1.8099-16.597 3.488-25.408 3.4891-5.312 6.48e-4 -14.987 0.64621-21.5 1.4346-23.114 2.7979-44.182 3.6584-71.342 2.9139-35.696-0.97846-47.371-0.84347-61.25 0.70816l-11.75 1.3136v16.631h193zm-210.25-7.1363c-4.2625-0.18745-11.238-0.18745-15.5 0s-0.775 0.34082 7.75 0.34082 12.012-0.15337 7.75-0.34082zm133.25-2.8797c9.625-0.8022 20.2-1.8478 23.5-2.3235 5.4578-0.78681 5.2319-0.82297-2.5-0.40012-11.459 0.62669-30.472 2.2135-35.997 3.0043-4.0358 0.5776-4.3619 0.48033-3.1768-0.94762 0.72636-0.87521 2.5252-1.7756 3.9975-2.0008 2.4974-0.38207 2.4671-0.41957-0.45074-0.55936-1.7239-0.082589-3.6862 0.52335-4.3724 1.3502-1.0198 1.2288-4.4093 1.5-18.745 1.5-16.504 0-17.425-0.09955-16.176-1.75 1.1266-1.4888 1.115-1.5634-0.0776-0.5-1.509 1.3456-17.476 1.825-16.655 0.5 0.67472-1.0888-18.214-0.39922-22.347 0.81581-1.925 0.56594-7.775 1.4333-13 1.9275l-9.5 0.89853 10.804-0.43972c5.9423-0.24185 11.65-0.89252 12.684-1.4459 2.1572-1.1545 20.368-1.3918 19.665-0.2562-0.25542 0.4125 3.5985 0.59065 8.5643 0.3959 4.9658-0.19476 8.7905 0.03024 8.4992 0.5-0.29123 0.46976 7.5671 0.72168 17.463 0.55982 13.916-0.22761 17.823-0.0192 17.242 0.91994-0.53837 0.8711-0.20956 1.0017 1.1636 0.46203 1.0527-0.4137 9.789-1.4085 19.414-2.2107zm-138.8-0.37696c12.489 0 14.8-0.23423 14.8-1.5 0-1.2638-2.265-1.5-14.385-1.5h-14.385l-1.7448 2.75c-0.95965 1.5125-1.1464 2.1875-0.41501 1.5 0.94023-0.88379 5.6657-1.25 16.13-1.25zm20.562 1.3129c-0.95609-0.25029-2.7561-0.25937-4-0.02018-1.2439 0.23919-0.46166 0.44398 1.7383 0.45508s3.2177-0.1846 2.2617-0.4349zm2-4c-0.95609-0.25029-2.7561-0.25937-4-0.02018-1.2439 0.23919-0.46166 0.44398 1.7383 0.45508s3.2177-0.1846 2.2617-0.4349zm13.988-0.041388c-2.0625-0.21574-5.4375-0.21574-7.5 0-2.0625 0.21574-0.375 0.39226 3.75 0.39226s5.8125-0.17652 3.75-0.39226z" fill="#d4d5ca"/>
  <path d="m35.762 240.07c-16.045-5.1686-27.253-18.966-28.266-34.796-0.2384-3.727-0.18958-5.9888 0.1085-5.0263 0.48444 1.5643 2.1259 1.75 15.469 1.75h14.927v-23h-15.5c-9.6667 0-15.5-0.37634-15.5-1s5.8333-1 15.5-1h15.5v-23h-15.5c-9.6667 0-15.5-0.37634-15.5-1s5.8333-1 15.5-1h15.5v-22h-15.5c-9.6667 0-15.5-0.37634-15.5-1s5.8333-1 15.5-1h15.5v-25h-15.5c-9.6667 0-15.5-0.37634-15.5-1s5.8333-1 15.5-1h15.5l0.0014-7.75 0.0014-7.75-12.751 0.32254c-12.89 0.32606-18.796-0.68392-18.001-3.0787 0.29457-0.88789 4.8251-1.3983 15.831-1.7836l15.419-0.53971-15.75-0.21029-15.75-0.21029v-18.316c0-10.074 0.49197-20.986 1.0933-24.25 2.4403-13.245 10.75-24.093 22.845-29.824l6.5617-3.1094 84.418-0.27215c93.659-0.30194 90.373-0.50633 100.7 6.2649 11.004 7.213 16.876 17.804 18.366 33.126 1.2369 12.72 1.2698 153.82 0.0378 162.35-1.2915 8.9365-6.828 19.799-12.798 25.109-2.6002 2.3127-7.6527 5.6046-11.228 7.3153l-6.5 3.1104-84.5 0.21028c-79.783 0.19855-84.82 0.1071-90.238-1.6381zm11.238-9.0722c0-2.8333-0.22222-3-4-3-3.5632 0-4 0.26389-4 2.4167 0 2.6529 1.097 3.3852 5.25 3.5044 2.4064 0.06909 2.75-0.29585 2.75-2.921zm169-0.16665 5.5-2.6666-86.75-0.0833l-86.75-0.0834v6.0455l81.25-0.27277 81.25-0.27277zm-178-0.33335c0-2.386-0.2623-2.4964-5.75-2.4211l-5.75 0.0789 5 2.4083c6.2317 3.0015 6.5 2.9988 6.5-0.066zm0-15v-11.5h-14.5c-10.945 0-14.495 0.30646-14.478 1.25 0.054071 3.0775 4.1569 9.8292 9.4417 15.537l5.7518 6.2126h13.785zm9 0v-11.5h-8v23h8zm179.47 9.0885c3.6283-2.7675 9.7414-11.34 12.008-16.838l1.5458-3.75h-192.03v23h175.31zm-179.47-34.088v-11.5h-8v23h8zm193.78-0.25 0.28275-11.25h-193.07v23.01l96.25-0.255 96.25-0.255zm-193.78-24.75v-11.5h-8v23h8zm194 0v-11.5h-193v23h193zm-194-24.5v-11h-8v22h8zm194 0v-11h-193v22h193zm-194-25.5v-12.5h-8v25h8zm194 0v-12.5h-193v25h193zm-194-23.06v-8.5604l-3.75 0.31037-3.75 0.31036-0.29044 8.25-0.29044 8.25h8.0809zm194-5.0466c0-12.568-0.13362-13.552-1.75-12.883-4.3766 1.8099-16.597 3.488-25.408 3.4891-5.312 6.48e-4 -14.987 0.64621-21.5 1.4346-23.114 2.7979-44.182 3.6584-71.342 2.9139-35.696-0.97846-47.371-0.84347-61.25 0.70816l-11.75 1.3136v16.631h193zm-77-10.016c9.625-0.8022 20.2-1.8478 23.5-2.3235 5.4578-0.78681 5.2319-0.82297-2.5-0.40012-11.459 0.62669-30.472 2.2135-35.997 3.0043-4.0358 0.5776-4.3619 0.48033-3.1768-0.94762 0.72636-0.87521 2.5252-1.7756 3.9975-2.0008 2.4974-0.38207 2.4671-0.41957-0.45074-0.55936-1.7239-0.082589-3.6862 0.52335-4.3724 1.3502-1.0198 1.2288-4.4093 1.5-18.745 1.5-16.504 0-17.425-0.09955-16.176-1.75 1.1266-1.4888 1.115-1.5634-0.0776-0.5-1.509 1.3456-17.476 1.825-16.655 0.5 0.67472-1.0888-18.214-0.39922-22.347 0.81581-1.925 0.56594-7.775 1.4333-13 1.9275l-9.5 0.89853 10.804-0.43972c5.9423-0.24185 11.65-0.89252 12.684-1.4459 2.1572-1.1545 20.368-1.3918 19.665-0.2562-0.25542 0.4125 3.5985 0.59065 8.5643 0.3959 4.9658-0.19476 8.7905 0.03024 8.4992 0.5-0.29123 0.46976 7.5671 0.72168 17.463 0.55982 13.916-0.22761 17.823-0.0192 17.242 0.91994-0.53837 0.8711-0.20956 1.0017 1.1636 0.46203 1.0527-0.4137 9.789-1.4085 19.414-2.2107zm-138.8-0.37696c12.489 0 14.8-0.23423 14.8-1.5 0-1.2638-2.265-1.5-14.385-1.5h-14.385l-1.7448 2.75c-0.95965 1.5125-1.1464 2.1875-0.41501 1.5 0.94023-0.88379 5.6657-1.25 16.13-1.25zm20.562 1.3129c-0.95609-0.25029-2.7561-0.25937-4-0.02018-1.2439 0.23919-0.46166 0.44398 1.7383 0.45508s3.2177-0.1846 2.2617-0.4349zm2-4c-0.95609-0.25029-2.7561-0.25937-4-0.02018-1.2439 0.23919-0.46166 0.44398 1.7383 0.45508s3.2177-0.1846 2.2617-0.4349zm13.988-0.041388c-2.0625-0.21574-5.4375-0.21574-7.5 0-2.0625 0.21574-0.375 0.39226 3.75 0.39226s5.8125-0.17652 3.75-0.39226z" fill="#dddcb3"/>
  <path d="m35.762 240.07c-16.045-5.1686-27.253-18.966-28.266-34.796-0.2384-3.727-0.18958-5.9888 0.1085-5.0263 0.48444 1.5643 2.1259 1.75 15.469 1.75h14.927v-23h-15.5c-9.6667 0-15.5-0.37634-15.5-1s5.8333-1 15.5-1h15.5v-23h-15.5c-9.6667 0-15.5-0.37634-15.5-1s5.8333-1 15.5-1h15.5v-22h-15.5c-9.6667 0-15.5-0.37634-15.5-1s5.8333-1 15.5-1h15.5v-25h-15.5c-9.6667 0-15.5-0.37634-15.5-1s5.8333-1 15.5-1h15.5l0.0014-7.75 0.0014-7.75-12.751 0.32254c-12.354 0.31249-18.251-0.59156-18.251-2.7978 0-0.64851 4.9028-1.0248 13.353-1.0248 7.3443 0 16.118-0.289 19.498-0.64222 5.5533-0.58043 6.2889-0.93194 7.6467-3.6536 0.82626-1.6563 1.5023-3.1673 1.5023-3.3578 0-1.0011-6.9213-0.15782-7.4167 0.90364-0.46667 1-0.7 1-1.1667 0-0.42811-0.91737-4.5195-1.25-15.375-1.25h-14.792l-1.6021 3.25c-1.5294 3.1024-1.6032 2.4068-1.6249-15.316-0.012524-10.211 0.4692-21.236 1.0705-24.5 2.4403-13.245 10.75-24.093 22.845-29.824l6.5617-3.1094 84.418-0.27215c93.577-0.30168 90.029-0.52149 100.59 6.2328 11.003 7.0384 16.985 17.772 18.482 33.158 1.2369 12.72 1.2698 153.82 0.0378 162.35-1.2915 8.9365-6.828 19.799-12.798 25.109-2.6002 2.3127-7.6527 5.6046-11.228 7.3153l-6.5 3.1104-84.5 0.21028c-79.783 0.19855-84.82 0.1071-90.238-1.6381zm11.238-9.0722c0-2.8333-0.22222-3-4-3-3.5238 0-4 0.27778-4 2.3333 0 3.1048 0.71517 3.6667 4.6667 3.6667 3.037 0 3.3333-0.26667 3.3333-3zm166.72 1.0083c3.1167-1.0954 6.1204-2.4454 6.675-3 0.67775-0.67775-27.415-1.0083-85.692-1.0083h-86.7v6h80.025c77.35 0 80.214-0.0666 85.692-1.9917zm-175.72-1.5083c0-2.386-0.2623-2.4964-5.75-2.4211l-5.75 0.0789 5 2.4083c6.2317 3.0015 6.5 2.9988 6.5-0.066zm0-15v-11.5h-29.217l0.67682 2.75c1.0715 4.3535 5.4418 11.204 10.153 15.915 4.2903 4.2902 4.4065 4.3346 11.361 4.3346h7.0263zm9 0v-11.5h-8v23h8zm181.05 7.8336c4.1666-3.7642 7.6519-8.9826 10.408-15.584l1.5659-3.75h-192.03v23h175.99zm-181.05-32.834v-11.5h-8v23h8zm193.78-0.25 0.28275-11.25h-193.07v23.01l96.25-0.255 96.25-0.255zm-193.78-24.75v-11.5h-8v23h8zm194 0v-11.5h-193v23h193zm-194-24.5v-11h-8v22h8zm194 0v-11h-193v22h193zm-194-25.5v-12.5h-8v25h8zm194 0v-12.5h-193v25h193zm-194-23.06v-8.5604l-3.75 0.31037-3.75 0.31036-0.29044 8.25-0.29044 8.25h8.0809zm194-5.0466c0-12.568-0.13362-13.552-1.75-12.883-4.3766 1.8099-16.597 3.488-25.408 3.4891-5.312 6.48e-4 -14.987 0.64621-21.5 1.4346-23.114 2.7979-44.182 3.6584-71.342 2.9139-35.696-0.97846-47.371-0.84347-61.25 0.70816l-11.75 1.3136v16.631h193zm-171.3-9.0135c4.2338-1.4374 7.0341-1.4941 24.785-0.50145 28.122 1.5726 56.257 1.68 75.213 0.28717 8.9105-0.6547 16.891-1.4552 17.735-1.7789s4.8031-0.93195 8.799-1.3517c3.9959-0.4197-26.885-0.8242-68.624-0.89888-71.196-0.12738-75.972-0.027536-77.218 1.6142-2.7426 3.6129-1.7573 4.25 6.573 4.25 4.713 0 9.9139-0.66164 12.738-1.6205zm140.06-4.0666c-0.95609-0.25029-2.7561-0.25937-4-0.02018-1.2439 0.23919-0.46166 0.44398 1.7383 0.45508s3.2178-0.1846 2.2617-0.4349zm-171.76 5.3095c0-0.20766 0.6853-0.9463 1.5229-1.6414 1.2733-1.0568 1.4197-0.99492 0.89301 0.37756-0.5379 1.4017-2.4159 2.3842-2.4159 1.2639z" fill="#e0dfa5"/>
  <path d="m35.762 240.07c-16.045-5.1686-27.253-18.966-28.266-34.796-0.2384-3.727-0.18958-5.9888 0.1085-5.0263 0.48444 1.5643 2.1259 1.75 15.469 1.75h14.927v-23h-15.5c-9.6667 0-15.5-0.37634-15.5-1s5.8333-1 15.5-1h15.5v-23h-15.5c-9.6667 0-15.5-0.37634-15.5-1s5.8333-1 15.5-1h15.5v-22h-15.5c-9.6667 0-15.5-0.37634-15.5-1s5.8333-1 15.5-1h15.5v-25h-15.5c-9.6667 0-15.5-0.37634-15.5-1s5.8333-1 15.5-1h15.5v-15.948l-15.168-0.27605c-11.043-0.20098-15.281-0.61596-15.583-1.526-0.31864-0.9586 2.7169-1.25 13.021-1.25 7.3902 0 16.202-0.289 19.581-0.64222 5.5533-0.58043 6.2889-0.93194 7.6467-3.6536 0.82626-1.6563 1.5023-3.1673 1.5023-3.3578 0-1.0011-6.9213-0.15782-7.4167 0.90364-0.46667 1-0.7 1-1.1667 0-0.42811-0.91737-4.5195-1.25-15.375-1.25h-14.792l-1.6021 3.25c-1.5294 3.1024-1.6032 2.4068-1.6249-15.316-0.012524-10.211 0.4692-21.236 1.0705-24.5 2.4403-13.245 10.75-24.093 22.845-29.824l6.5617-3.1094 84.418-0.27215c93.577-0.30168 90.029-0.52149 100.59 6.2328 11.003 7.0384 16.985 17.772 18.482 33.158 1.2369 12.72 1.2698 153.82 0.0378 162.35-1.2915 8.9365-6.828 19.799-12.798 25.109-2.6002 2.3127-7.6527 5.6046-11.228 7.3153l-6.5 3.1104-84.5 0.21028c-79.783 0.19855-84.82 0.1071-90.238-1.6381zm11.238-9.0722c0-2.8333-0.22222-3-4-3-3.5238 0-4 0.27778-4 2.3333 0 3.1048 0.71517 3.6667 4.6667 3.6667 3.037 0 3.3333-0.26667 3.3333-3zm166.72 1.0083c3.1167-1.0954 6.1204-2.4454 6.675-3 0.67775-0.67775-27.415-1.0083-85.692-1.0083h-86.7v6h80.025c77.35 0 80.214-0.0666 85.692-1.9917zm-175.72-1.5083c0-2.386-0.2623-2.4964-5.75-2.4211l-5.75 0.0789 5 2.4083c6.2317 3.0015 6.5 2.9988 6.5-0.066zm0-15v-11.5h-29.217l0.67682 2.75c1.0715 4.3535 5.4418 11.204 10.153 15.915 4.2903 4.2902 4.4065 4.3346 11.361 4.3346h7.0263zm9 0v-11.5h-8v23h8zm181.05 7.8336c4.1666-3.7642 7.6519-8.9826 10.408-15.584l1.5659-3.75h-192.03v23h175.99zm-181.05-32.834v-11.5h-8v23h8zm193.78-0.25 0.28275-11.25h-193.07v23.01l96.25-0.255 96.25-0.255zm-193.78-24.75v-11.5h-8v23h8zm194 0v-11.5h-193v23h193zm-194-24.5v-11h-8v22h8zm194 0v-11h-193v22h193zm-194-25.5v-12.5h-8v25h8zm194 0v-12.5h-193v25h193zm-194-23v-8.5h-8v17h8zm194-5.1166v-13.617l-2.25 0.65168c-4.9123 1.4228-13.859 2.4554-26.25 3.0298-7.15 0.33142-18.4 1.2558-25 2.0542-21.54 2.6056-40.329 3.2778-68.5 2.4507-15.125-0.44409-30.888-1.1032-35.029-1.4648-5.4535-0.47612-9.2153-0.22048-13.644 0.9272-3.3632 0.8715-9.0507 1.5846-12.639 1.5846-9.8095 0-9.6874-0.12105-9.6874 9.607v8.393h193zm-171.3-9.0039c4.2338-1.4374 7.0341-1.4941 24.785-0.50145 28.122 1.5726 56.257 1.68 75.213 0.28717 8.9105-0.6547 16.891-1.4552 17.735-1.7789s4.8031-0.93195 8.799-1.3517c3.9959-0.4197-26.885-0.8242-68.624-0.89888-71.196-0.12738-75.972-0.027536-77.218 1.6142-2.7426 3.6129-1.7573 4.25 6.573 4.25 4.713 0 9.9139-0.66164 12.738-1.6205zm140.06-4.0666c-0.95609-0.25029-2.7561-0.25937-4-0.02018-1.2439 0.23919-0.46166 0.44398 1.7383 0.45508s3.2178-0.1846 2.2617-0.4349zm-171.76 5.3095c0-0.20766 0.6853-0.9463 1.5229-1.6414 1.2733-1.0568 1.4197-0.99492 0.89301 0.37756-0.5379 1.4017-2.4159 2.3842-2.4159 1.2639z" fill="#cbcbcb"/>
  <path d="m36.475 239.15c-6.8746-1.9853-13.665-6.3206-18.467-11.79-3.6627-4.1716-8.4755-13.958-9.5187-19.356-0.55652-2.8797-0.11181-2.3874 2.5091 2.7777 1.752 3.4527 5.365 8.5152 8.0287 11.25l4.8432 4.9723h14.13v-23h-15c-9.3333 0-15-0.37778-15-1s5.6667-1 15-1h15v-23h-15.5c-9.6667 0-15.5-0.37634-15.5-1s5.8333-1 15.5-1h15.5v-23h-15.5c-9.6667 0-15.5-0.37634-15.5-1s5.8333-1 15.5-1h15.5v-22h-15.5c-9.6667 0-15.5-0.37634-15.5-1s5.8333-1 15.5-1h15.5v-25h-15.5c-9.6667 0-15.5-0.37634-15.5-1s5.8333-1 15.5-1h15.5v-16h-15c-12.667 0-15-0.23333-15-1.5 0-1.2555 2.0948-1.5 12.853-1.5 7.0693 0 15.618-0.289 18.998-0.64222 5.5533-0.58043 6.2889-0.93194 7.6467-3.6536 0.82626-1.6563 1.5023-3.1673 1.5023-3.3578 0-1.0011-6.9213-0.15782-7.4167 0.90364-0.46667 1-0.7 1-1.1667 0-0.42815-0.91747-4.523-1.25-15.393-1.25-13.166 0-14.889 0.19427-15.524 1.75-0.65574 1.6065-0.78177 1.586-1.5367-0.25-1.1942-2.9043-1.1272-29.894 0.092832-37.414 2.1947-13.526 10.525-24.621 22.882-30.477l6.5617-3.1094 84.418-0.27215c93.577-0.30168 90.029-0.52149 100.59 6.2328 6.3221 4.0442 11.537 10.251 15.216 18.109 2.6894 5.7446 2.7868 6.5424 3.1149 25.496l0.33861 19.565-4.2186 1.2639c-2.3202 0.69515-13.722 1.8832-25.338 2.6402s-23.594 1.811-26.619 2.3424c-14.585 2.5621-54.653 3.0314-91.5 1.0718-15.022-0.79891-18.91-0.71041-23.5 0.5349-3.025 0.8207-8.5007 1.4975-12.168 1.5041-9.9753 0.017755-9.8318-0.1226-9.8318 9.6189v8.393h96.5c63.667 0 96.5 0.34024 96.5 1s-32.833 1-96.5 1h-96.5v25h96.5c63.667 0 96.5 0.34024 96.5 1s-32.833 1-96.5 1h-96.5v22h96.5c63.667 0 96.5 0.34024 96.5 1s-32.833 1-96.5 1h-96.5v23h96.5c63.667 0 96.5 0.34024 96.5 1s-32.833 1-96.5 1h-96.5v23h96c63.333 0 96 0.34028 96 1s-32.667 1-96 1h-96v23h176.39l5.1006-5.266c2.8053-2.8963 6.3566-7.7338 7.8918-10.75 2.4524-4.8181 2.7076-5.059 2.1021-1.984-2.3209 11.787-12.984 24.639-24.197 29.165l-5.7846 2.3348-83.5 0.19284c-76.714 0.17717-83.99 0.0514-89.525-1.547zm10.525-8.1458c0-2.8333-0.22222-3-4-3-3.5238 0-4 0.27778-4 2.3333 0 3.1048 0.71517 3.6667 4.6667 3.6667 3.037 0 3.3333-0.26667 3.3333-3zm166.72 1.0083c3.1167-1.0954 6.1204-2.4454 6.675-3 0.67775-0.67775-27.415-1.0083-85.692-1.0083h-86.7v6h80.025c77.35 0 80.214-0.0666 85.692-1.9917zm-175.72-1.5083c0-2.386-0.2623-2.4964-5.75-2.4211l-5.75 0.0789 5 2.4083c6.2317 3.0015 6.5 2.9988 6.5-0.066zm9-15v-11.5h-8v23h8zm0-25v-11.5h-8v23h8zm0-25v-11.5h-8v23h8zm0-24.5v-11h-8v22h8zm0-25.5v-12.5h-8v25h8zm0-23v-8.5h-8v17h8zm22.703-14.12c4.2338-1.4374 7.0341-1.4941 24.785-0.50145 28.122 1.5726 56.257 1.68 75.213 0.28717 8.9105-0.6547 16.891-1.4552 17.735-1.7789s4.8031-0.93195 8.799-1.3517c3.9959-0.4197-26.885-0.8242-68.624-0.89888-71.196-0.12738-75.972-0.027536-77.218 1.6142-2.7426 3.6129-1.7573 4.25 6.573 4.25 4.713 0 9.9139-0.66164 12.738-1.6205zm140.06-4.0666c-0.95609-0.25029-2.7561-0.25937-4-0.02018-1.2439 0.23919-0.46166 0.44398 1.7383 0.45508s3.2178-0.1846 2.2617-0.4349zm-171.76 5.3095c0-0.20766 0.6853-0.9463 1.5229-1.6414 1.2733-1.0568 1.4197-0.99492 0.89301 0.37756-0.5379 1.4017-2.4159 2.3842-2.4159 1.2639z" fill="#dbdaa1"/>
  <path d="m36.475 239.15c-6.8746-1.9853-13.665-6.3206-18.467-11.79-3.6627-4.1716-8.4755-13.958-9.5187-19.356-0.55652-2.8797-0.11181-2.3874 2.5091 2.7777 1.752 3.4527 5.365 8.5152 8.0287 11.25l4.8432 4.9723h14.13v-23h-15c-9.3333 0-15-0.37778-15-1s5.6667-1 15-1h15v-23h-15.5c-9.6667 0-15.5-0.37634-15.5-1s5.8333-1 15.5-1h15.5v-23h-15.5c-9.6667 0-15.5-0.37634-15.5-1s5.8333-1 15.5-1h15.5v-22h-15.5c-9.6667 0-15.5-0.37634-15.5-1s5.8333-1 15.5-1h15.5v-25h-15.5c-9.6667 0-15.5-0.37634-15.5-1s5.8333-1 15.5-1h15.5l0.0014-8.25 0.0014-8.25-12.6 0.33366c-12.931 0.34242-17.403-0.13365-17.403-1.8527 0-0.59038 5.1175-0.98095 12.853-0.98095 7.0693 0 15.618-0.289 18.998-0.64222 5.5533-0.58043 6.2889-0.93194 7.6467-3.6536 0.82626-1.6563 1.5023-3.1673 1.5023-3.3578 0-1.0011-6.9213-0.15782-7.4167 0.90364-0.46667 1-0.7 1-1.1667 0-0.42815-0.91747-4.523-1.25-15.393-1.25-13.166 0-14.889 0.19427-15.524 1.75-0.65574 1.6065-0.78177 1.586-1.5367-0.25-1.1942-2.9043-1.1272-29.894 0.092832-37.414 2.1947-13.526 10.525-24.621 22.882-30.477l6.5617-3.1094 84.418-0.27215c93.577-0.30168 90.029-0.52149 100.59 6.2328 6.3221 4.0442 11.537 10.251 15.216 18.109 2.69 5.746 2.7868 6.539 3.1155 25.537l0.33923 19.607-8.9816 1.6432c-4.9399 0.90377-13.192 1.6663-18.338 1.6946-5.1462 0.02824-12.507 0.45423-16.357 0.94664-6.9791 0.89262-44.303 3.9703-50 4.1229-9.0081 0.24132-27.712-0.24619-48.766-1.2711-17.554-0.85453-24.742-0.8649-27.5-0.03967-2.0538 0.61448-8.1217 1.425-13.484 1.8012l-9.75 0.68392v17.705h96.5c63.667 0 96.5 0.34024 96.5 1s-32.833 1-96.5 1h-96.5v25h96.5c63.667 0 96.5 0.34024 96.5 1s-32.833 1-96.5 1h-96.5v22h96.5c63.667 0 96.5 0.34024 96.5 1s-32.833 1-96.5 1h-96.5v23h96.5c63.667 0 96.5 0.34024 96.5 1s-32.833 1-96.5 1h-96.5v23h96c63.333 0 96 0.34028 96 1s-32.667 1-96 1h-96v23h176.39l5.1006-5.266c2.8053-2.8963 6.3566-7.7338 7.8918-10.75 2.4524-4.8181 2.7076-5.059 2.1021-1.984-2.3209 11.787-12.984 24.639-24.197 29.165l-5.7846 2.3348-83.5 0.19284c-76.714 0.17717-83.99 0.0514-89.525-1.547zm10.525-8.1458c0-2.8333-0.22222-3-4-3-3.5238 0-4 0.27778-4 2.3333 0 3.1048 0.71517 3.6667 4.6667 3.6667 3.037 0 3.3333-0.26667 3.3333-3zm166.72 1.0083c3.1167-1.0954 6.1204-2.4454 6.675-3 0.67775-0.67775-27.415-1.0083-85.692-1.0083h-86.7v6h80.025c77.35 0 80.214-0.0666 85.692-1.9917zm-175.72-1.5083c0-2.386-0.2623-2.4964-5.75-2.4211l-5.75 0.0789 5 2.4083c6.2317 3.0015 6.5 2.9988 6.5-0.066zm9-15v-11.5h-8v23h8zm0-25v-11.5h-8v23h8zm0-25v-11.5h-8v23h8zm0-24.5v-11h-8v22h8zm0-25.5v-12.5h-8v25h8zm0-23.56v-9.0604l-3.75 0.31037-3.75 0.31036-0.28893 8.75-0.28893 8.75h8.0779zm22.703-13.56c4.2338-1.4374 7.0341-1.4941 24.785-0.50145 28.122 1.5726 56.257 1.68 75.213 0.28717 8.9105-0.6547 16.891-1.4552 17.735-1.7789s4.8031-0.93195 8.799-1.3517c3.9959-0.4197-26.885-0.8242-68.624-0.89888-71.196-0.12738-75.972-0.027536-77.218 1.6142-2.7426 3.6129-1.7573 4.25 6.573 4.25 4.713 0 9.9139-0.66164 12.738-1.6205zm140.06-4.0666c-0.95609-0.25029-2.7561-0.25937-4-0.02018-1.2439 0.23919-0.46166 0.44398 1.7383 0.45508s3.2178-0.1846 2.2617-0.4349zm-171.76 5.3095c0-0.20766 0.6853-0.9463 1.5229-1.6414 1.2733-1.0568 1.4197-0.99492 0.89301 0.37756-0.5379 1.4017-2.4159 2.3842-2.4159 1.2639z" fill="#c2c1c2"/>
  <path d="m36.286 238.56c-10.105-3.1912-19.408-11.332-23.848-20.869-2.8672-6.1582-3.2018-9.8076-0.41567-4.5336 1.0637 2.0135 4.1646 5.951 6.8909 8.75l4.9569 5.089h14.13v-23h-14.441c-8.5486 0-14.693-0.40803-15.059-1-0.40157-0.64976 4.6563-1 14.441-1h15.059v-23h-15c-9.3333 0-15-0.37778-15-1s5.6667-1 15-1h15v-23h-15c-9.3333 0-15-0.37778-15-1s5.6667-1 15-1h15v-22h-15c-9.3333 0-15-0.37778-15-1s5.6667-1 15-1h15v-25h-15c-9.3333 0-15-0.37778-15-1s5.6667-1 15-1h15l0.0014-8.25 0.0014-8.25-12.6 0.33366c-12.931 0.34242-17.403-0.13365-17.403-1.8527 0-0.59038 5.1175-0.98095 12.853-0.98095 7.0693 0 15.618-0.289 18.998-0.64222 5.5533-0.58043 6.2889-0.93194 7.6467-3.6536 0.82626-1.6563 1.5023-3.1673 1.5023-3.3578 0-1.0011-6.9213-0.15782-7.4167 0.90364-0.46667 1-0.7 1-1.1667 0-0.42815-0.91747-4.523-1.25-15.393-1.25-13.166 0-14.889 0.19427-15.524 1.75-0.65574 1.6065-0.78177 1.586-1.5367-0.25-1.1942-2.9043-1.1272-29.894 0.092832-37.414 2.1947-13.526 10.525-24.621 22.882-30.477l6.5617-3.1094 84.418-0.27215c93.577-0.30168 90.029-0.52149 100.59 6.2328 6.3221 4.0442 11.537 10.251 15.216 18.109 2.69 5.746 2.7868 6.539 3.1155 25.537l0.33923 19.607-8.9816 1.6432c-4.9399 0.90377-13.192 1.6663-18.338 1.6946-5.1462 0.02824-12.507 0.45423-16.357 0.94664-6.9791 0.89262-44.303 3.9703-50 4.1229-9.0081 0.24132-27.712-0.24619-48.766-1.2711-17.554-0.85453-24.742-0.8649-27.5-0.03967-2.0538 0.61448-8.1217 1.425-13.484 1.8012l-9.75 0.68392v17.705h96.5c63.667 0 96.5 0.34024 96.5 1s-32.833 1-96.5 1h-96.5v25h96.5c63.667 0 96.5 0.34024 96.5 1s-32.833 1-96.5 1h-96.5v22h96.5c63.667 0 96.5 0.34024 96.5 1s-32.833 1-96.5 1h-96.5v23h96.5c63.667 0 96.5 0.34024 96.5 1s-32.833 1-96.5 1h-96.5v23h96c63.333 0 96 0.34028 96 1s-32.667 1-96 1h-96v23h175.99l4.1708-3.75c2.294-2.0625 5.4452-5.7506 7.0029-8.1958 3.4981-5.4914 3.6798-3.7224 0.34228 3.3326-3.252 6.8742-10.345 13.969-17.929 17.934l-6.0814 3.1793-85.5 0.19696c-68.82 0.15854-86.322-0.06266-89.714-1.1338zm10.714-7.5631c0-2.8333-0.22222-3-4-3-3.5238 0-4 0.27778-4 2.3333 0 3.1048 0.71517 3.6667 4.6667 3.6667 3.037 0 3.3333-0.26667 3.3333-3zm166.72 1.0083c3.1167-1.0954 6.1204-2.4454 6.675-3 0.67775-0.67775-27.415-1.0083-85.692-1.0083h-86.7v6h80.025c77.35 0 80.214-0.0666 85.692-1.9917zm-175.72-1.5083c0-2.386-0.2623-2.4964-5.75-2.4211l-5.75 0.0789 5 2.4083c6.2317 3.0015 6.5 2.9988 6.5-0.066zm9-15v-11.5h-8v23h8zm0-25v-11.5h-8v23h8zm0-25v-11.5h-8v23h8zm0-24.5v-11h-8v22h8zm0-25.5v-12.5h-8v25h8zm0-23.56v-9.0604l-3.75 0.31037-3.75 0.31036-0.28893 8.75-0.28893 8.75h8.0779zm22.703-13.56c4.2338-1.4374 7.0341-1.4941 24.785-0.50145 28.122 1.5726 56.257 1.68 75.213 0.28717 8.9105-0.6547 16.891-1.4552 17.735-1.7789s4.8031-0.93195 8.799-1.3517c3.9959-0.4197-26.885-0.8242-68.624-0.89888-71.196-0.12738-75.972-0.027536-77.218 1.6142-2.7426 3.6129-1.7573 4.25 6.573 4.25 4.713 0 9.9139-0.66164 12.738-1.6205zm140.06-4.0666c-0.95609-0.25029-2.7561-0.25937-4-0.02018-1.2439 0.23919-0.46166 0.44398 1.7383 0.45508s3.2178-0.1846 2.2617-0.4349zm-171.76 5.3095c0-0.20766 0.6853-0.9463 1.5229-1.6414 1.2733-1.0568 1.4197-0.99492 0.89301 0.37756-0.5379 1.4017-2.4159 2.3842-2.4159 1.2639z" fill="#c8c8b3"/>
  <path d="m36.286 238.56c-10.105-3.1912-19.408-11.332-23.848-20.869-2.9104-6.2509-3.1829-9.7735-0.33918-4.3845 1.1058 2.0956 4.1532 6.033 6.772 8.75l4.7614 4.9399h14.368v-23h-14.441c-8.5486 0-14.693-0.40803-15.059-1-0.40157-0.64976 4.6563-1 14.441-1h15.059v-23h-15c-9.3333 0-15-0.37778-15-1s5.6667-1 15-1h15v-23h-15c-9.3333 0-15-0.37778-15-1s5.6667-1 15-1h15v-22h-15c-9.3333 0-15-0.37778-15-1s5.6667-1 15-1h15v-25h-15c-9.3333 0-15-0.37778-15-1s5.6667-1 15-1h15l0.0014-8.25 0.0014-8.25-12.6 0.33366c-12.931 0.34242-17.403-0.13365-17.403-1.8527 0-0.59038 5.1175-0.98095 12.853-0.98095 7.0693 0 15.618-0.289 18.998-0.64222 5.5533-0.58043 6.2889-0.93194 7.6467-3.6536 0.82626-1.6563 1.5023-3.1673 1.5023-3.3578 0-1.0011-6.9213-0.15782-7.4167 0.90364-0.46667 1-0.7 1-1.1667 0-0.83926-1.7984-31.41-1.7984-31.432 0-0.010208 0.83333-0.33844 0.75-0.98469-0.25-1.2596-1.949-1.2456-27.527 0.019768-36.278 1.9379-13.402 10.394-24.846 22.911-31.008l6.5268-3.2132h173.04l6.7408 3.1931c7.5546 3.5787 15.454 10.829 18.673 17.138 4.0184 7.8767 5.0863 14.648 5.0863 32.252v16.663l-8.8933 1.6271c-4.8913 0.89488-13.104 1.6502-18.25 1.6784-5.1462 0.02824-12.507 0.45423-16.357 0.94664-6.9791 0.89262-44.303 3.9703-50 4.1229-9.0081 0.24132-27.712-0.24619-48.766-1.2711-17.554-0.85453-24.742-0.8649-27.5-0.03967-2.0538 0.61448-8.1217 1.425-13.484 1.8012l-9.75 0.68392v17.705h96.5c63.667 0 96.5 0.34024 96.5 1s-32.833 1-96.5 1h-96.5v25h96.5c63.667 0 96.5 0.34024 96.5 1s-32.833 1-96.5 1h-96.5v22h96.5c63.667 0 96.5 0.34024 96.5 1s-32.833 1-96.5 1h-96.5v23h96.5c63.667 0 96.5 0.34024 96.5 1s-32.833 1-96.5 1h-96.5v23h96c63.333 0 96 0.34028 96 1s-32.667 1-96 1h-96v23h176.58l4.6175-4.75c2.5396-2.6125 5.5585-6.325 6.7087-8.25 2.8864-4.831 2.6348-2.0096-0.39115 4.3868-3.252 6.8742-10.345 13.969-17.929 17.934l-6.0814 3.1793-85.5 0.19696c-68.82 0.15854-86.322-0.06266-89.714-1.1338zm10.714-7.0631c0-3.4167-0.09524-3.5-4-3.5-3.7595 0-4 0.17673-4 2.9396 0 2.6605 0.35607 2.9769 3.75 3.3319 2.0625 0.21575 3.8625 0.46791 4 0.56037 0.1375 0.0925 0.25-1.4069 0.25-3.3319zm158.72 2.5603c3.4202-0.49472 8.5952-2.0232 11.5-3.3965l5.2814-2.497-87.25-0.08335-87.25-0.08335v7l75.75-0.0201c41.662-0.0111 78.548-0.42488 81.969-0.91961zm-167.72-3.5603c0-2.3636-0.3-2.5-5.5-2.5-3.025 0-5.5 0.247-5.5 0.54889 0 0.71222 8.1191 4.4005 9.75 4.4292 0.6875 0.01208 1.25-1.103 1.25-2.478zm9-15v-11.5h-8v23h8zm0-25v-11.5h-8v23h8zm0-25v-11.5h-8v23h8zm0-24.5v-11h-8v22h8zm0-25.5v-12.5h-8v25h8zm0-23.56v-9.0604l-3.75 0.31037-3.75 0.31036-0.28893 8.75-0.28893 8.75h8.0779zm22.715-13.568c3.8535-1.3111 6.8288-1.4908 15.285-0.92339 38.388 2.5761 70.166 2.3777 96.5-0.60246 5.5-0.62242 14.5-1.442 20-1.8212s-25.95-0.765-69.89-0.85724c-75.027-0.1575-79.971-0.061191-81.218 1.5823-2.7426 3.6129-1.7573 4.25 6.573 4.25 4.7323 0 9.9071-0.66076 12.75-1.628zm-31.215 0.628c0.33992-0.55 0.81648-1 1.059-1s0.44098 0.45 0.44098 1-0.47656 1-1.059 1-0.7809-0.45-0.44098-1z" fill="#d4d39c"/>
  <path d="m36.286 238.56c-10.105-3.1912-19.408-11.332-23.848-20.869-2.9104-6.2509-3.1829-9.7735-0.33918-4.3845 1.1058 2.0956 4.1532 6.033 6.772 8.75l4.7614 4.9399h14.368v-23h-14.441c-8.5486 0-14.693-0.40803-15.059-1-0.40157-0.64976 4.6563-1 14.441-1h15.059v-23h-15c-9.3333 0-15-0.37778-15-1s5.6667-1 15-1h15v-23h-15c-9.3333 0-15-0.37778-15-1s5.6667-1 15-1h15v-22h-15c-9.3333 0-15-0.37778-15-1s5.6667-1 15-1h15v-25h-15c-9.3333 0-15-0.37778-15-1s5.6667-1 15-1h15v-17h-14.441c-8.5486 0-14.693-0.40803-15.059-1-0.39983-0.64695 3.9407-1 12.294-1 7.1018 0 15.677-0.289 19.057-0.64222 5.5533-0.58043 6.2889-0.93194 7.6467-3.6536 0.82626-1.6563 1.5023-3.1673 1.5023-3.3578 0-1.0011-6.9213-0.15782-7.4167 0.90364-0.46667 1-0.7 1-1.1667 0-0.83926-1.7984-31.41-1.7984-31.432 0-0.010208 0.83333-0.33844 0.75-0.98469-0.25-1.2596-1.949-1.2456-27.527 0.019768-36.278 1.9379-13.402 10.394-24.846 22.911-31.008l6.5268-3.2132h173.04l6.7408 3.1931c7.5546 3.5787 15.454 10.829 18.673 17.138 4.0175 7.8749 5.0863 14.649 5.0863 32.237v16.648l-8.75 1.1004c-4.8125 0.60524-14.15 1.3568-20.75 1.6702s-17.4 1.2177-24 2.0096c-21.569 2.5879-40.419 3.2729-68 2.4712-14.85-0.43167-31.05-1.0956-36-1.4753-6.3073-0.4839-9.8976-0.31967-12 0.54894-1.65 0.68169-7.5 1.5138-13 1.8492l-10 0.60977-0.28753 9.25-0.28753 9.25h96.538c63.692 0 96.538 0.34024 96.538 1s-32.833 1-96.5 1h-96.5v25h96.5c63.667 0 96.5 0.34024 96.5 1s-32.833 1-96.5 1h-96.5v22h96.5c63.667 0 96.5 0.34024 96.5 1s-32.833 1-96.5 1h-96.5v23h96.5c63.667 0 96.5 0.34024 96.5 1s-32.833 1-96.5 1h-96.5v23h96c63.333 0 96 0.34028 96 1s-32.667 1-96 1h-96v23h176.58l4.6175-4.75c2.5396-2.6125 5.5585-6.325 6.7087-8.25 2.8864-4.831 2.6348-2.0096-0.39115 4.3868-3.252 6.8742-10.345 13.969-17.929 17.934l-6.0814 3.1793-85.5 0.19696c-68.82 0.15854-86.322-0.06266-89.714-1.1338zm10.714-7.0631c0-3.4167-0.09524-3.5-4-3.5-3.7595 0-4 0.17673-4 2.9396 0 2.6605 0.35607 2.9769 3.75 3.3319 2.0625 0.21575 3.8625 0.46791 4 0.56037 0.1375 0.0925 0.25-1.4069 0.25-3.3319zm158.72 2.5603c3.4202-0.49472 8.5952-2.0232 11.5-3.3965l5.2814-2.497-87.25-0.08335-87.25-0.08335v7l75.75-0.0201c41.662-0.0111 78.548-0.42488 81.969-0.91961zm-167.72-3.5603c0-2.3636-0.3-2.5-5.5-2.5-3.025 0-5.5 0.247-5.5 0.54889 0 0.71222 8.1191 4.4005 9.75 4.4292 0.6875 0.01208 1.25-1.103 1.25-2.478zm9-15v-11.5h-8v23h8zm0-25v-11.5h-8v23h8zm0-25v-11.5h-8v23h8zm0-24.5v-11h-8v22h8zm0-25.5v-12.5h-8v25h8zm0-23.5v-9h-8v18h8zm22.715-13.628c3.8535-1.3111 6.8288-1.4908 15.285-0.92339 38.388 2.5761 70.166 2.3777 96.5-0.60246 5.5-0.62242 14.5-1.442 20-1.8212s-25.95-0.765-69.89-0.85724c-75.027-0.1575-79.971-0.061191-81.218 1.5823-2.7426 3.6129-1.7573 4.25 6.573 4.25 4.7323 0 9.9071-0.66076 12.75-1.628zm-31.215 0.628c0.33992-0.55 0.81648-1 1.059-1s0.44098 0.45 0.44098 1-0.47656 1-1.059 1-0.7809-0.45-0.44098-1z" fill="#c0bec0"/>
  <path d="m40.65 238.97c-11.082-1.9034-24.18-12.255-27.878-22.035-1.5542-4.1097-1.5552-4.2519-0.012343-1.9356 0.91584 1.375 3.7554 4.6375 6.3101 7.25l4.6449 4.75h14.286v-23h-14.441c-8.5486 0-14.693-0.40803-15.059-1-0.40157-0.64976 4.6563-1 14.441-1h15.059v-23h-15c-9.3333 0-15-0.37778-15-1s5.6667-1 15-1h15v-23h-15c-9.3333 0-15-0.37778-15-1s5.6667-1 15-1h15v-22h-15c-9.3333 0-15-0.37778-15-1s5.6667-1 15-1h15v-25h-15c-9.3333 0-15-0.37778-15-1s5.6667-1 15-1h15v-17h-14.441c-8.5486 0-14.693-0.40803-15.059-1-0.39983-0.64695 3.9407-1 12.294-1 7.1018 0 15.677-0.289 19.057-0.64222 5.5533-0.58043 6.2889-0.93194 7.6467-3.6536 0.82626-1.6563 1.5023-3.1673 1.5023-3.3578 0-1.0011-6.9213-0.15782-7.4167 0.90364-0.46667 1-0.7 1-1.1667 0-0.83926-1.7984-31.41-1.7984-31.432 0-0.010208 0.83333-0.33844 0.75-0.98469-0.25-1.2596-1.949-1.2456-27.527 0.019768-36.278 1.9379-13.402 10.394-24.846 22.911-31.008l6.5268-3.2132h173.04l6.7408 3.1931c7.5546 3.5787 15.454 10.829 18.673 17.138 4.0175 7.8749 5.0863 14.649 5.0863 32.237v16.648l-8.75 1.1004c-4.8125 0.60524-14.15 1.3568-20.75 1.6702s-17.4 1.2177-24 2.0096c-21.569 2.5879-40.419 3.2729-68 2.4712-14.85-0.43167-31.05-1.0956-36-1.4753-6.3073-0.4839-9.8976-0.31967-12 0.54894-1.65 0.68169-7.5 1.5138-13 1.8492l-10 0.60977-0.28753 9.25-0.28753 9.25h96.538c63.692 0 96.538 0.34024 96.538 1s-32.833 1-96.5 1h-96.5v25h96.5c63.667 0 96.5 0.34024 96.5 1s-32.833 1-96.5 1h-96.5v22h96.5c63.667 0 96.5 0.34024 96.5 1s-32.833 1-96.5 1h-96.5v23h96.5c63.667 0 96.5 0.34024 96.5 1s-32.833 1-96.5 1h-96.5v23h96c63.333 0 96 0.34028 96 1s-32.667 1-96 1h-96v23h176.78l5.6077-6.057c3.0842-3.3314 5.6077-6.5564 5.6077-7.1667 0-0.61031 0.25525-0.85441 0.56723-0.54243 1.1391 1.1391-4.8283 11.094-9.193 15.336-2.4667 2.3974-7.4875 5.8372-11.157 7.6442l-6.6724 3.2854-82.022 0.15157c-45.112 0.0834-84.205-0.22328-86.872-0.68142zm6.3501-7.4702c0-3.4167-0.09524-3.5-4-3.5-3.7595 0-4 0.17673-4 2.9396 0 2.6605 0.35607 2.9769 3.75 3.3319 2.0625 0.21575 3.8625 0.46791 4 0.56037 0.1375 0.0925 0.25-1.4069 0.25-3.3319zm158.72 2.5603c3.4202-0.49472 8.5952-2.0232 11.5-3.3965l5.2814-2.497-87.25-0.08335-87.25-0.08335v7l75.75-0.0201c41.662-0.0111 78.548-0.42488 81.969-0.91961zm-167.72-3.5603c0-2.3636-0.3-2.5-5.5-2.5-3.025 0-5.5 0.247-5.5 0.54889 0 0.71222 8.1191 4.4005 9.75 4.4292 0.6875 0.01208 1.25-1.103 1.25-2.478zm9-15v-11.5h-8v23h8zm0-25v-11.5h-8v23h8zm0-25v-11.5h-8v23h8zm0-24.5v-11h-8v22h8zm0-25.5v-12.5h-8v25h8zm0-23.5v-9h-8v18h8zm22.715-13.628c3.8535-1.3111 6.8288-1.4908 15.285-0.92339 38.388 2.5761 70.166 2.3777 96.5-0.60246 5.5-0.62242 14.5-1.442 20-1.8212s-25.95-0.765-69.89-0.85724c-75.027-0.1575-79.971-0.061191-81.218 1.5823-2.7426 3.6129-1.7573 4.25 6.573 4.25 4.7323 0 9.9071-0.66076 12.75-1.628zm-31.215 0.628c0.33992-0.55 0.81648-1 1.059-1s0.44098 0.45 0.44098 1-0.47656 1-1.059 1-0.7809-0.45-0.44098-1z" fill="#cacaa5"/>
  <path d="m40.65 238.97c-11.082-1.9034-24.18-12.255-27.878-22.035-1.5542-4.1097-1.5552-4.2519-0.012343-1.9356 0.91584 1.375 3.7554 4.6375 6.3101 7.25l4.6449 4.75h14.286v-23h-14.441c-8.5486 0-14.693-0.40803-15.059-1-0.40157-0.64976 4.6563-1 14.441-1h15.059v-23h-15c-9.3333 0-15-0.37778-15-1s5.6667-1 15-1h15v-23h-15c-9.3333 0-15-0.37778-15-1s5.6667-1 15-1h15v-22h-15c-9.3333 0-15-0.37778-15-1s5.6667-1 15-1h15v-25h-15c-9.3333 0-15-0.37778-15-1s5.6667-1 15-1h15v-17h-14.441c-8.5486 0-14.693-0.40803-15.059-1-0.39983-0.64695 3.9407-1 12.294-1 7.1018 0 15.677-0.289 19.057-0.64222 5.5533-0.58043 6.2889-0.93194 7.6467-3.6536 0.82626-1.6563 1.5023-3.1673 1.5023-3.3578 0-1.0011-6.9213-0.15782-7.4167 0.90364-0.46667 1-0.7 1-1.1667 0-0.43192-0.92555-4.8444-1.25-17-1.25h-16.417l0.019809-14.25c0.010895-7.8375 0.46088-17.3 0.99996-21.028 1.9379-13.402 10.394-24.846 22.911-31.008l6.5268-3.2132h173.04l6.7408 3.1931c7.5546 3.5787 15.454 10.829 18.673 17.138 4.0175 7.8749 5.0863 14.649 5.0863 32.237v16.648l-8.75 1.1004c-4.8125 0.60524-14.15 1.3568-20.75 1.6702s-17.4 1.2177-24 2.0096c-21.569 2.5879-40.419 3.2729-68 2.4712-14.85-0.43167-31.05-1.0956-36-1.4753-6.3073-0.4839-9.8976-0.31967-12 0.54894-1.65 0.68169-7.5 1.5138-13 1.8492l-10 0.60977-0.28753 9.25-0.28753 9.25h96.538c63.692 0 96.538 0.34024 96.538 1s-32.833 1-96.5 1h-96.5v25h96.5c63.667 0 96.5 0.34024 96.5 1s-32.833 1-96.5 1h-96.5v22h96.5c63.667 0 96.5 0.34024 96.5 1s-32.833 1-96.5 1h-96.5v23h96.5c63.667 0 96.5 0.34024 96.5 1s-32.833 1-96.5 1h-96.5v23h96c63.333 0 96 0.34028 96 1s-32.667 1-96 1h-96v23h176.78l5.6077-6.057c3.0842-3.3314 5.6077-6.5564 5.6077-7.1667 0-0.61031 0.25525-0.85441 0.56723-0.54243 1.1391 1.1391-4.8283 11.094-9.193 15.336-2.4667 2.3974-7.4875 5.8372-11.157 7.6442l-6.6724 3.2854-82.022 0.15157c-45.112 0.0834-84.205-0.22328-86.872-0.68142zm6.3501-7.4702c0-3.4167-0.09524-3.5-4-3.5-3.7595 0-4 0.17673-4 2.9396 0 2.6605 0.35607 2.9769 3.75 3.3319 2.0625 0.21575 3.8625 0.46791 4 0.56037 0.1375 0.0925 0.25-1.4069 0.25-3.3319zm158.72 2.5603c3.4202-0.49472 8.5952-2.0232 11.5-3.3965l5.2814-2.497-87.25-0.08335-87.25-0.08335v7l75.75-0.0201c41.662-0.0111 78.548-0.42488 81.969-0.91961zm-167.72-3.5603c0-2.3636-0.3-2.5-5.5-2.5-3.025 0-5.5 0.247-5.5 0.54889 0 0.71222 8.1191 4.4005 9.75 4.4292 0.6875 0.01208 1.25-1.103 1.25-2.478zm9-15v-11.5h-8v23h8zm0-25v-11.5h-8v23h8zm0-25v-11.5h-8v23h8zm0-24.5v-11h-8v22h8zm0-25.5v-12.5h-8v25h8zm0-23.5v-9h-8v18h8zm23.407-13.639c3.3318-1.2542 6.4889-1.3041 21.432-0.33917 36.893 2.3824 68.216 1.8708 97.161-1.5867 6.875-0.82123 15.875-1.6157 20-1.7655 4.125-0.14978-29.661-0.36174-75.081-0.47102l-82.581-0.1987-1.3718 2.75c-0.7545 1.5125-1.5144 3.0589-1.6887 3.4363-0.56686 1.228 18.111-0.3126 22.13-1.8253zm-31.907 0.63893c0.33992-0.55 0.81648-1 1.059-1s0.44098 0.45 0.44098 1-0.47656 1-1.059 1-0.7809-0.45-0.44098-1z" fill="#b8b7b7"/>
  <path d="m40.344 237.96c-8.7437-1.7299-17.79-7.7981-23.248-15.595l-3.4047-4.8633 4.939 4.75 4.939 4.75h14.431v-23h-14.441c-8.5486 0-14.693-0.40803-15.059-1-0.40157-0.64976 4.6563-1 14.441-1h15.059v-23h-15c-9.3333 0-15-0.37778-15-1s5.6667-1 15-1h15v-23h-15c-9.3333 0-15-0.37778-15-1s5.6667-1 15-1h15v-22h-15c-9.3333 0-15-0.37778-15-1s5.6667-1 15-1h15v-25h-15c-9.3333 0-15-0.37778-15-1s5.6667-1 15-1h15v-17h-14.441c-8.5486 0-14.693-0.40803-15.059-1-0.39983-0.64695 3.9407-1 12.294-1 7.1018 0 15.677-0.289 19.057-0.64222 5.5533-0.58043 6.2889-0.93194 7.6467-3.6536 0.82626-1.6563 1.5023-3.1673 1.5023-3.3578 0-1.0011-6.9213-0.15782-7.4167 0.90364-0.46667 1-0.7 1-1.1667 0-0.43192-0.92555-4.8444-1.25-17-1.25h-16.417l0.030876-13.75c0.016982-7.5625 0.4527-16.997 0.96827-20.966 1.7899-13.778 10.14-25.274 22.932-31.571l6.5268-3.2132h173.04l6.7408 3.1931c7.5546 3.5787 15.454 10.829 18.673 17.138 4.0175 7.8749 5.0863 14.649 5.0863 32.237v16.648l-8.75 1.1004c-4.8125 0.60524-14.15 1.3568-20.75 1.6702s-17.4 1.2177-24 2.0096c-21.569 2.5879-40.419 3.2729-68 2.4712-14.85-0.43167-31.05-1.0956-36-1.4753-6.3073-0.4839-9.8976-0.31967-12 0.54894-1.65 0.68169-7.5 1.5138-13 1.8492l-10 0.60977-0.28753 9.25-0.28753 9.25h96.538c63.692 0 96.538 0.34024 96.538 1s-32.833 1-96.5 1h-96.5v25h96.5c63.667 0 96.5 0.34024 96.5 1s-32.833 1-96.5 1h-96.5v22h96.5c63.667 0 96.5 0.34024 96.5 1s-32.833 1-96.5 1h-96.5v23h96.5c63.667 0 96.5 0.34024 96.5 1s-32.833 1-96.5 1h-96.5v23h96c63.333 0 96 0.34028 96 1s-32.667 1-96 1h-96v23h176.82l4.6235-4.4935c5.5651-5.4087 4.434-2.807-1.7888 4.1142-4.6995 5.227-12.355 9.6109-19.766 11.319-5.3198 1.2264-161.35 1.2436-167.54 0.0185zm6.6563-6.4586c0-3.4167-0.09524-3.5-4-3.5-3.7567 0-4 0.17826-4 2.9304 0 2.2439 0.52712 3.032 2.25 3.3638 5.3848 1.0372 5.75 0.85972 5.75-2.7943zm162 2.1568c3.025-0.72156 7.3-2.2696 9.5-3.4402l4-2.1283-87.25-0.0442-87.25-0.04419v7l77.75-0.0156c60.652-0.0122 78.96-0.30413 83.25-1.3276zm-171-3.1568c0-2.4084-0.22897-2.4971-6.25-2.4211l-6.25 0.0789 5 2.4083c6.3227 3.0453 7.5 3.035 7.5-0.066zm9-15v-11.5h-8v23h8zm0-25v-11.5h-8v23h8zm0-25v-11.5h-8v23h8zm0-24.5v-11h-8v22h8zm0-25.5v-12.5h-8v25h8zm0-23.5v-9h-8v18h8zm23.407-13.639c3.3318-1.2542 6.4889-1.3041 21.432-0.33917 36.893 2.3824 68.216 1.8708 97.161-1.5867 6.875-0.82123 15.875-1.6157 20-1.7655 4.125-0.14978-29.661-0.36174-75.081-0.47102l-82.581-0.1987-1.3718 2.75c-0.7545 1.5125-1.5144 3.0589-1.6887 3.4363-0.56686 1.228 18.111-0.3126 22.13-1.8253zm-31.907 0.63893c0.33992-0.55 0.81648-1 1.059-1s0.44098 0.45 0.44098 1-0.47656 1-1.059 1-0.7809-0.45-0.44098-1z" fill="#c7c694"/>
  <path d="m40.344 237.96c-8.7437-1.7299-17.79-7.7981-23.248-15.595l-3.4047-4.8633 4.939 4.75 4.939 4.75h14.431v-23h-14.441c-8.5486 0-14.693-0.40803-15.059-1-0.40157-0.64976 4.6563-1 14.441-1h15.059v-23h-15c-9.3333 0-15-0.37778-15-1s5.6667-1 15-1h15v-23h-15c-9.3333 0-15-0.37778-15-1s5.6667-1 15-1h15v-22h-15c-9.3333 0-15-0.37778-15-1s5.6667-1 15-1h15v-25h-15c-9.3333 0-15-0.37778-15-1s5.6667-1 15-1h15v-17.752l-14.706-0.16261c-8.088-0.089435-14.913-0.37013-15.167-0.62376s5.3978-0.46115 12.559-0.46115c7.161 0 15.785-0.289 19.164-0.64222 5.5533-0.58043 6.2889-0.93194 7.6467-3.6536 0.82626-1.6563 1.5023-3.1673 1.5023-3.3578 0-1.0011-6.9213-0.15782-7.4167 0.90364-0.46667 1-0.7 1-1.1667 0-0.43192-0.92555-4.8444-1.25-17-1.25h-16.417l0.030876-13.75c0.016982-7.5625 0.4527-16.997 0.96827-20.966 1.7899-13.778 10.14-25.274 22.932-31.571l6.5268-3.2132h173.04l6.7408 3.1931c7.5546 3.5787 15.454 10.829 18.673 17.138 4.019 7.878 5.0863 14.648 5.0863 32.263v16.673l-6.75 0.61146c-3.7125 0.33631-14.4 1.0136-23.75 1.5051-9.35 0.49152-19.925 1.3661-23.5 1.9434-18.814 3.0385-57.906 3.7679-90.382 1.6864-17.804-1.1411-21.563-1.1318-25.5 0.06325-2.5399 0.77089-6.418 1.4104-8.618 1.4211-2.2 0.01073-6.3625 0.30329-9.25 0.65012l-5.25 0.6306v18.721h96.5c63.667 0 96.5 0.34024 96.5 1s-32.833 1-96.5 1h-96.5v25h96.5c63.667 0 96.5 0.34024 96.5 1s-32.833 1-96.5 1h-96.5v22h96.5c63.667 0 96.5 0.34024 96.5 1s-32.833 1-96.5 1h-96.5v23h96.5c63.667 0 96.5 0.34024 96.5 1s-32.833 1-96.5 1h-96.5v23h96c63.333 0 96 0.34028 96 1s-32.667 1-96 1h-96v23h176.82l4.6235-4.4935c5.5651-5.4087 4.434-2.807-1.7888 4.1142-4.6995 5.227-12.355 9.6109-19.766 11.319-5.3198 1.2264-161.35 1.2436-167.54 0.0185zm6.6563-6.4586c0-3.4167-0.09524-3.5-4-3.5-3.7567 0-4 0.17826-4 2.9304 0 2.2439 0.52712 3.032 2.25 3.3638 5.3848 1.0372 5.75 0.85972 5.75-2.7943zm162 2.1568c3.025-0.72156 7.3-2.2696 9.5-3.4402l4-2.1283-87.25-0.0442-87.25-0.04419v7l77.75-0.0156c60.652-0.0122 78.96-0.30413 83.25-1.3276zm-171-3.1568c0-2.4084-0.22897-2.4971-6.25-2.4211l-6.25 0.0789 5 2.4083c6.3227 3.0453 7.5 3.035 7.5-0.066zm9-15v-11.5h-8v23h8zm0-25v-11.5h-8v23h8zm0-25v-11.5h-8v23h8zm0-24.5v-11h-8v22h8zm0-25.5v-12.5h-8v25h8zm0-24v-9.5h-8v19h8zm23.407-13.139c3.3318-1.2542 6.4889-1.3041 21.432-0.33917 36.943 2.3856 68.878 1.8703 97.161-1.5678 6.875-0.83574 15.875-1.6404 20-1.7881s-29.661-0.35799-75.081-0.46727l-82.581-0.1987-1.3718 2.75c-0.7545 1.5125-1.5144 3.0589-1.6887 3.4363-0.56686 1.228 18.111-0.3126 22.13-1.8253z" fill="#c7b7a1"/>
  <path d="m40.344 237.96c-8.7437-1.7299-17.79-7.7981-23.248-15.595l-3.4047-4.8633 4.939 4.75 4.939 4.75h14.431v-23h-14.441c-8.5486 0-14.693-0.40803-15.059-1-0.40157-0.64976 4.6563-1 14.441-1h15.059v-23h-15c-9.3333 0-15-0.37778-15-1s5.6667-1 15-1h15v-23h-15c-9.3333 0-15-0.37778-15-1s5.6667-1 15-1h15v-22h-15c-9.3333 0-15-0.37778-15-1s5.6667-1 15-1h15v-25h-15c-9.3333 0-15-0.37778-15-1s5.6667-1 15-1h15v-17.752l-14.706-0.16261c-8.088-0.089435-14.913-0.37013-15.167-0.62376s5.3978-0.46115 12.559-0.46115c7.161 0 15.785-0.289 19.164-0.64222 5.5533-0.58043 6.2889-0.93194 7.6467-3.6536 0.82626-1.6563 1.5023-3.1673 1.5023-3.3578 0-1.0011-6.9213-0.15782-7.4167 0.90364-0.46667 1-0.7 1-1.1667 0-0.43192-0.92555-4.8444-1.25-17-1.25h-16.417l0.062921-12.25c0.10213-19.883 1.1808-27.772 4.8041-35.131 4.0359-8.198 12.838-16.551 20.848-19.784l5.7846-2.3348h172l6.5 3.1257c8.219 3.9524 13.628 8.6908 17.708 15.511 5.0884 8.5077 6.2923 15.005 6.2923 33.957v16.673l-6.75 0.61146c-3.7125 0.33631-14.4 1.0136-23.75 1.5051-9.35 0.49152-19.925 1.3661-23.5 1.9434-18.814 3.0385-57.906 3.7679-90.382 1.6864-17.804-1.1411-21.563-1.1318-25.5 0.06325-2.5399 0.77089-6.418 1.4104-8.618 1.4211-2.2 0.01073-6.3625 0.30329-9.25 0.65012l-5.25 0.6306v18.721h96.5c63.667 0 96.5 0.34024 96.5 1s-32.833 1-96.5 1h-96.5v25h96.5c63.667 0 96.5 0.34024 96.5 1s-32.833 1-96.5 1h-96.5v22h96.5c63.667 0 96.5 0.34024 96.5 1s-32.833 1-96.5 1h-96.5v23h96.5c63.667 0 96.5 0.34024 96.5 1s-32.833 1-96.5 1h-96.5v23h96c63.333 0 96 0.34028 96 1s-32.667 1-96 1h-96v23h176.82l4.6235-4.4935c5.5651-5.4087 4.434-2.807-1.7888 4.1142-4.6995 5.227-12.355 9.6109-19.766 11.319-5.3198 1.2264-161.35 1.2436-167.54 0.0185zm168.66-4.3018c3.025-0.72156 7.3-2.2696 9.5-3.4402l4-2.1283-87.25-0.0442-87.25-0.04419-0.16004 3.25-0.16004 3.25-0.40332-3.25c-0.37825-3.048-0.64802-3.25-4.34-3.25-3.6866 0-3.9366 0.18612-3.9366 2.9304 0 2.2439 0.52712 3.032 2.25 3.3638 1.2375 0.23835 38.25 0.48762 82.25 0.55393 62.89 0.0948 81.176-0.16003 85.5-1.1914zm-171-3.1568c0-2.4084-0.22897-2.4971-6.25-2.4211l-6.25 0.0789 5 2.4083c6.3227 3.0453 7.5 3.035 7.5-0.066zm9-15v-11.5h-8v23h8zm0-25v-11.5h-8v23h8zm0-25v-11.5h-8v23h8zm0-24.5v-11h-8v22h8zm0-25.5v-12.5h-8v25h8zm0-24v-9.5h-8v19h8zm23.878-13.139c3.6575-1.1894 7.1722-1.2415 21.363-0.31616 36.279 2.3656 68.584 1.8346 96.759-1.5904 6.875-0.83574 15.875-1.6404 20-1.7881s-29.661-0.35799-75.081-0.46727l-82.581-0.1987-1.3718 2.75c-0.7545 1.5125-1.5144 3.0589-1.6887 3.4363-0.54136 1.1727 17.981-0.32356 22.6-1.8257z" fill="#aec3ad"/>
  <path d="m40.344 237.96c-8.7243-1.726-17.753-7.7744-23.281-15.595l-3.4371-4.8633 5.6652 5.2858c5.1565 4.8112 14.342 10.18 17.459 10.204 0.6875 5e-3 1.25-1.0938 1.25-2.4425 0-2.3036-0.37895-2.4738-6.25-2.8073l-6.25-0.35504 6.25-0.19268 6.25-0.19268v-23h-14.5c-9 0-14.5-0.37931-14.5-1s5.5-1 14.5-1h14.5v-23h-15c-9.3333 0-15-0.37778-15-1s5.6667-1 15-1h15v-23h-15c-9.3333 0-15-0.37778-15-1s5.6667-1 15-1h15v-22h-15c-9.3333 0-15-0.37778-15-1s5.6667-1 15-1h15v-25h-15c-9.3333 0-15-0.37778-15-1s5.6667-1 15-1h15v-17.752l-14.706-0.16261c-8.088-0.089435-14.913-0.37013-15.167-0.62376s5.3978-0.46115 12.559-0.46115c7.161 0 15.785-0.289 19.164-0.64222 5.5533-0.58043 6.2889-0.93194 7.6467-3.6536 0.82626-1.6563 1.5023-3.1673 1.5023-3.3578 0-1.0011-6.9213-0.15782-7.4167 0.90364-0.46667 1-0.7 1-1.1667 0-0.43192-0.92555-4.8444-1.25-17-1.25h-16.417l0.062921-12.25c0.10213-19.883 1.1808-27.772 4.8041-35.131 4.0359-8.198 12.838-16.551 20.848-19.784l5.7846-2.3348h172l6.5 3.1257c8.219 3.9524 13.628 8.6908 17.708 15.511 5.0884 8.5077 6.2923 15.005 6.2923 33.957v16.673l-6.75 0.61146c-3.7125 0.33631-14.4 1.0136-23.75 1.5051-9.35 0.49152-19.925 1.3661-23.5 1.9434-18.814 3.0385-57.906 3.7679-90.382 1.6864-17.804-1.1411-21.563-1.1318-25.5 0.06325-2.5399 0.77089-6.418 1.4104-8.618 1.4211-2.2 0.01073-6.3625 0.30329-9.25 0.65012l-5.25 0.6306v18.721h96c63.333 0 96 0.34028 96 1s-32.667 1-96 1h-96v25h96c63.333 0 96 0.34028 96 1s-32.667 1-96 1h-96v22h96c63.333 0 96 0.34028 96 1s-32.667 1-96 1h-96v23h96c63.333 0 96 0.34028 96 1s-32.667 1-96 1h-96v23h96.059c63.785 0 95.851 0.33598 95.441 1-0.40504 0.65536-33.51 1-96.059 1h-95.441v23h176.82l4.6235-4.4935c5.5651-5.4087 4.434-2.807-1.7888 4.1142-4.6995 5.227-12.355 9.6109-19.766 11.319-5.3198 1.2264-161.35 1.2436-167.54 0.0185zm168.66-4.3018c3.025-0.72156 7.3-2.2696 9.5-3.4402l4-2.1283-87.25-0.0442-87.25-0.04419-0.16004 3.25-0.16004 3.25-0.40332-3.25c-0.37825-3.048-0.64802-3.25-4.34-3.25-3.6866 0-3.9366 0.18612-3.9366 2.9304 0 2.2439 0.52712 3.032 2.25 3.3638 1.2375 0.23835 38.25 0.48762 82.25 0.55393 62.89 0.0948 81.176-0.16003 85.5-1.1914zm-162-18.157v-11.5h-8v23h8zm0-25v-11.5h-8v23h8zm0-25v-11.5h-8v23h8zm0-24.5v-11h-8v22h8zm0-25.5v-12.5h-8v25h8zm0-24v-9.5h-8v19h8zm23.878-13.139c3.6575-1.1894 7.1722-1.2415 21.363-0.31616 36.279 2.3656 68.584 1.8346 96.759-1.5904 6.875-0.83574 15.875-1.6404 20-1.7881s-29.661-0.35799-75.081-0.46727l-82.581-0.1987-1.3718 2.75c-0.7545 1.5125-1.5144 3.0589-1.6887 3.4363-0.54136 1.1727 17.981-0.32356 22.6-1.8257z" fill="#b0aead"/>
  <path d="m40.344 236.97c-7.5621-1.5216-17.427-7.7378-21.252-13.391-0.88521-1.3085-0.14269-0.95051 2 0.96424 3.2108 2.8693 3.7983 3.0234 10.158 2.6647l6.75-0.3807v-22.829h-14.5c-9 0-14.5-0.37931-14.5-1s5.5-1 14.5-1h14.5v-23h-15c-9.3333 0-15-0.37778-15-1s5.6667-1 15-1h15v-23h-15c-9.3333 0-15-0.37778-15-1s5.6667-1 15-1h15v-22h-15c-9.3333 0-15-0.37778-15-1s5.6667-1 15-1h15v-25h-15c-9.3333 0-15-0.37778-15-1s5.6667-1 15-1h15v-17.752l-14.706-0.16261c-8.088-0.089435-14.913-0.37013-15.167-0.62376s5.3978-0.46115 12.559-0.46115c7.161 0 15.785-0.289 19.164-0.64222 5.5533-0.58043 6.2889-0.93194 7.6467-3.6536 0.82626-1.6563 1.5023-3.1673 1.5023-3.3578 0-1.0011-6.9213-0.15782-7.4167 0.90364-0.46667 1-0.7 1-1.1667 0-0.43164-0.92493-4.8175-1.25-16.865-1.25h-16.282l0.4394-18.75c0.46356-19.781 1.2399-24.074 5.7421-31.757 3.6238-6.1835 12.664-13.992 19.302-16.673l5.7467-2.3206h172l6.5 3.1257c8.219 3.9524 13.628 8.6908 17.708 15.511 5.0884 8.5077 6.2923 15.005 6.2923 33.957v16.673l-6.75 0.61146c-3.7125 0.33631-14.4 1.0136-23.75 1.5051-9.35 0.49152-19.925 1.3661-23.5 1.9434-18.814 3.0385-57.906 3.7679-90.382 1.6864-17.804-1.1411-21.563-1.1318-25.5 0.06325-2.5399 0.77089-6.418 1.4104-8.618 1.4211-2.2 0.01073-6.3625 0.30329-9.25 0.65012l-5.25 0.6306v18.721h96c63.333 0 96 0.34028 96 1s-32.667 1-96 1h-96v25h96c63.333 0 96 0.34028 96 1s-32.667 1-96 1h-96v22h96c63.333 0 96 0.34028 96 1s-32.667 1-96 1h-96v23h96c63.333 0 96 0.34028 96 1s-32.667 1-96 1h-96v23h96.059c63.785 0 95.851 0.33598 95.441 1-0.40504 0.65536-33.51 1-96.059 1h-95.441v22.989l87.75 0.25546c85.065 0.24764 87.842 0.1967 90.75-1.665l3-1.9205-3 3.2382c-1.65 1.781-6.3512 4.8952-10.447 6.9205l-7.4471 3.6823-82.053 0.15445c-45.129 0.0849-83.923-0.22189-86.209-0.68185zm174.89-4.7873c3.152-1.2731 5.9911-2.7356 6.309-3.25 0.35699-0.57761-32.714-0.93526-86.481-0.93526h-87.059l-0.16004 3.25-0.16004 3.25-0.40332-3.25c-0.37825-3.048-0.64802-3.25-4.34-3.25-3.6866 0-3.9366 0.18612-3.9366 2.9304 0 2.2398 0.53026 3.0358 2.25 3.3776 1.2375 0.24593 39.6 0.38973 85.25 0.31955l83-0.1276zm-177.23-1.6853c0-2.4048-0.23795-2.4983-6.25-2.4548l-6.25 0.04518 4.5 2.4096c5.9595 3.1912 8 3.1912 8 0zm9-15v-11.5h-8v23h8zm0-25v-11.5h-8v23h8zm0-25v-11.5h-8v23h8zm0-24.5v-11h-8v22h8zm0-25.5v-12.5h-8v25h8zm0-24v-9.5h-8v19h8zm23.878-13.139c3.6575-1.1894 7.1722-1.2415 21.363-0.31616 36.279 2.3656 68.584 1.8346 96.759-1.5904 6.875-0.83574 15.875-1.6404 20-1.7881s-29.661-0.35799-75.081-0.46727l-82.581-0.1987-1.3718 2.75c-0.7545 1.5125-1.5144 3.0589-1.6887 3.4363-0.54136 1.1727 17.981-0.32356 22.6-1.8257z" fill="#b8b997"/>
  <path d="m40.344 236.97c-7.5621-1.5216-17.427-7.7378-21.252-13.391-0.88521-1.3085-0.14269-0.95051 2 0.96424 3.2108 2.8693 3.7983 3.0234 10.158 2.6647l6.75-0.3807v-22.829h-14.5c-9 0-14.5-0.37931-14.5-1s5.5-1 14.5-1h14.5v-23h-15c-9.3333 0-15-0.37778-15-1s5.6667-1 15-1h15v-23h-15c-9.3333 0-15-0.37778-15-1s5.6667-1 15-1h15v-22h-15c-9.3333 0-15-0.37778-15-1s5.6667-1 15-1h15v-25h-15c-9.3333 0-15-0.37778-15-1s5.6667-1 15-1h15v-20h3.9268c3.4063 0 4.1353-0.41796 5.5-3.1536 0.86528-1.7345 1.5732-3.3095 1.5732-3.5 0-1.0011-6.9213-0.15782-7.4167 0.90364-0.46667 1-0.7 1-1.1667 0-0.43164-0.92493-4.8175-1.25-16.865-1.25h-16.282l0.4394-18.75c0.46356-19.781 1.2399-24.074 5.7421-31.757 3.6238-6.1835 12.664-13.992 19.302-16.673l5.7467-2.3206 82.983-0.27258c55.575-0.18255 84.668 0.077231 88.085 0.78655 11.872 2.4645 23.889 12.956 28.62 24.986 1.8796 4.7797 2.2193 8.0211 2.594 24.75l0.43122 19.25-5.8561 0.02587c-3.2208 0.01423-45.957 0.0029-94.969-0.0252l-89.113-0.051068-1.595 3.2752-1.595 3.2752 3.7079 0.6081 3.7079 0.60809-3.75 0.14191-3.75 0.1419v19h96c63.333 0 96 0.34028 96 1s-32.667 1-96 1h-96v25h96c63.333 0 96 0.34028 96 1s-32.667 1-96 1h-96v22h96c63.333 0 96 0.34028 96 1s-32.667 1-96 1h-96v23h96c63.333 0 96 0.34028 96 1s-32.667 1-96 1h-96v23h96.059c63.785 0 95.851 0.33598 95.441 1-0.40504 0.65536-33.51 1-96.059 1h-95.441v22.989l87.75 0.25546c85.065 0.24764 87.842 0.1967 90.75-1.665l3-1.9205-3 3.2382c-1.65 1.781-6.3512 4.8952-10.447 6.9205l-7.4471 3.6823-82.053 0.15445c-45.129 0.0849-83.923-0.22189-86.209-0.68185zm174.89-4.7873c3.152-1.2731 5.9911-2.7356 6.309-3.25 0.35699-0.57761-32.714-0.93526-86.481-0.93526h-87.059l-0.16004 3.25-0.16004 3.25-0.40332-3.25c-0.37825-3.048-0.64802-3.25-4.34-3.25-3.5915 0-3.9498 0.24108-4.0865 2.75l-0.14983 2.75-0.41659-2.75c-0.40363-2.6644-0.60895-2.7486-6.6002-2.7058l-6.1836 0.0442 4 2.1338c8.66 4.6197 9.2326 4.646 97 4.4568l83-0.17896 5.731-2.3147zm-168.23-16.685v-11.5h-8v23h8zm0-25v-11.5h-8v23h8zm0-25v-11.5h-8v23h8zm0-24.5v-11h-8v22h8zm0-25.5v-12.5h-8v25h8zm0-24v-9.5h-8v19h8zm-32.713-9.2401c3.1826-0.19905 8.1326-0.1972 11 0.0041 2.8674 0.20131 0.26349 0.36417-5.7865 0.36191-6.05-0.0023-8.3961-0.16696-5.2135-0.36601zm45.481-1.9847c1.7974-0.22256 4.4974-0.21797 6 0.0102 1.5026 0.22817 0.03209 0.41027-3.2679 0.40466-3.3-0.0056-4.5294-0.1923-2.7321-0.41486zm36.732-0.84877c-15.926-1.2145-15.94-1.2177-3-0.68282 7.15 0.29556 21.452 0.63887 31.783 0.76292s18.985 0.42756 19.232 0.67447c0.94077 0.94077-32.721 0.41177-48.014-0.75457zm50.5 1.2847c0.44078-0.46902 10.596-1.3949 35.979-3.2805 4.1135-0.30557 7.2146-0.29106 6.8913 0.03225s-6.8389 1.0166-14.479 1.5406c-7.6402 0.52405-17.266 1.2424-21.391 1.5962-4.125 0.35388-7.275 0.40401-7 0.11139zm-75.5-2.2072c1.65-0.77759 4.125-1.3954 5.5-1.373l2.5 0.04085-2.5 0.75176c-1.375 0.41347-3.85 1.0313-5.5 1.373l-3 0.6212 3-1.4138zm121.26-2.2113c1.2439-0.23919 3.0439-0.23011 4 0.02018s-0.0617 0.446-2.2617 0.4349c-2.2-0.0111-2.9822-0.21588-1.7383-0.45508zm12.988-1.0331c3.4375-0.19527 9.0625-0.19527 12.5 0s0.625 0.35504-6.25 0.35504-9.6875-0.15977-6.25-0.35504z" fill="#aaa8a9"/>
  <path d="m39 235.66c-5.4769-1.4982-13.366-5.7899-13.166-7.1624 0.0801-0.55 2.8502-1.134 6.1558-1.2977l6.0102-0.29771v-22.905h-14.5c-9 0-14.5-0.37931-14.5-1s5.5-1 14.5-1h14.5v-23h-15c-9.3333 0-15-0.37778-15-1s5.6667-1 15-1h15v-23h-15c-9.3333 0-15-0.37778-15-1s5.6667-1 15-1h15v-22h-15c-9.3333 0-15-0.37778-15-1s5.6667-1 15-1h15v-25h-15c-9.3333 0-15-0.37778-15-1s5.6667-1 15-1h15v-20h3.9268c3.4063 0 4.1353-0.41796 5.5-3.1536 0.86528-1.7345 1.5732-3.3095 1.5732-3.5 0-1.0011-6.9213-0.15782-7.4167 0.90364-0.46667 1-0.7 1-1.1667 0-0.43096-0.92349-4.7559-1.25-16.557-1.25h-15.974l0.30719-20.277 0.30719-20.277 3.2677-6.6318c4.14-8.4023 12.853-16.712 20.948-19.98l5.7846-2.3348 82.983-0.27258c55.575-0.18255 84.668 0.077231 88.085 0.78655 11.872 2.4645 23.889 12.956 28.62 24.986 1.8796 4.7797 2.2193 8.0211 2.594 24.75l0.43122 19.25-5.8561 0.02587c-3.2208 0.01423-45.957 0.0029-94.969-0.0252l-89.113-0.051068-1.595 3.2752-1.595 3.2752 3.7079 0.6081 3.7079 0.60809-3.75 0.14191-3.75 0.1419v19h96c63.333 0 96 0.34028 96 1s-32.667 1-96 1h-96v25h96c63.333 0 96 0.34028 96 1s-32.667 1-96 1h-96v22h96c63.333 0 96 0.34028 96 1s-32.667 1-96 1h-96v23h96c63.333 0 96 0.34028 96 1s-32.667 1-96 1h-96v23h96.059c63.785 0 95.851 0.33598 95.441 1-0.40504 0.65536-33.51 1-96.059 1h-95.441v23h86.941c52.083 0 87.17 0.37028 87.512 0.92353 0.71113 1.1506-3.5311 4.1399-9.4527 6.6608-4.2989 1.8301-8.1861 1.9245-87 2.1124-62.734 0.14955-83.578-0.0982-87-1.0343zm176.23-3.4771c3.152-1.2731 5.9911-2.7356 6.309-3.25 0.35699-0.57761-32.714-0.93526-86.481-0.93526h-87.059l-0.16004 3.25-0.16004 3.25-0.40332-3.25c-0.37825-3.048-0.64802-3.25-4.34-3.25-3.5915 0-3.9498 0.24108-4.0865 2.75l-0.14983 2.75-0.41659-2.75c-0.40057-2.6442-0.64483-2.75-6.3502-2.75-3.2635 0-5.9336 0.2503-5.9336 0.55623 0 0.92979 8.7686 4.5004 13.27 5.4036 2.3267 0.46683 41.58 0.77935 87.23 0.69449l83-0.1543zm-168.23-16.685v-11.5h-8v23h8zm0-25v-11.5h-8v23h8zm0-25v-11.5h-8v23h8zm0-24.5v-11h-8v22h8zm0-25.5v-12.5h-8v25h8zm0-24v-9.5h-8v19h8zm-32.713-9.2401c3.1826-0.19905 8.1326-0.1972 11 0.0041 2.8674 0.20131 0.26349 0.36417-5.7865 0.36191-6.05-0.0023-8.3961-0.16696-5.2135-0.36601zm45.481-1.9847c1.7974-0.22256 4.4974-0.21797 6 0.0102 1.5026 0.22817 0.03209 0.41027-3.2679 0.40466-3.3-0.0056-4.5294-0.1923-2.7321-0.41486zm36.732-0.84877c-15.926-1.2145-15.94-1.2177-3-0.68282 7.15 0.29556 21.452 0.63887 31.783 0.76292s18.985 0.42756 19.232 0.67447c0.94077 0.94077-32.721 0.41177-48.014-0.75457zm50.5 1.2847c0.44078-0.46902 10.596-1.3949 35.979-3.2805 4.1135-0.30557 7.2146-0.29106 6.8913 0.03225s-6.8389 1.0166-14.479 1.5406c-7.6402 0.52405-17.266 1.2424-21.391 1.5962-4.125 0.35388-7.275 0.40401-7 0.11139zm-75.5-2.2072c1.65-0.77759 4.125-1.3954 5.5-1.373l2.5 0.04085-2.5 0.75176c-1.375 0.41347-3.85 1.0313-5.5 1.373l-3 0.6212 3-1.4138zm121.26-2.2113c1.2439-0.23919 3.0439-0.23011 4 0.02018s-0.0617 0.446-2.2617 0.4349c-2.2-0.0111-2.9822-0.21588-1.7383-0.45508zm12.988-1.0331c3.4375-0.19527 9.0625-0.19527 12.5 0s0.625 0.35504-6.25 0.35504-9.6875-0.15977-6.25-0.35504z" fill="#b8b98a"/>
  <path d="m39 235.66c-5.4769-1.4982-13.366-5.7899-13.166-7.1624 0.0801-0.55 2.8502-1.134 6.1558-1.2977l6.0102-0.29771v-22.905h-14.5c-9 0-14.5-0.37931-14.5-1s5.5-1 14.5-1h14.5v-23h-15c-9.3333 0-15-0.37778-15-1s5.6667-1 15-1h15v-23h-15c-9.3333 0-15-0.37778-15-1s5.6667-1 15-1h15v-22h-15c-9.3333 0-15-0.37778-15-1s5.6667-1 15-1h15v-25h-15c-9.3333 0-15-0.37778-15-1 0-0.62212 5.655-1 14.965-1h14.965l0.32408-10.25 0.32409-10.25 0.2109 10.25 0.2109 10.25h8.0791l-0.14833-11.591c-0.09399-7.3452 0.25783-11.997 0.96045-12.7 0.60983-0.60983 1.1088-1.4688 1.1088-1.9088 0-1.3154-6.7849-0.90375-7.4167 0.45-0.46667 1-0.7 1-1.1667 0-0.43096-0.92349-4.7559-1.25-16.557-1.25h-15.974l0.30719-20.277 0.30719-20.277 3.2677-6.6318c4.14-8.4023 12.853-16.712 20.948-19.98l5.7846-2.3348 82.983-0.27258c55.575-0.18255 84.668 0.077231 88.085 0.78655 11.872 2.4645 23.889 12.956 28.62 24.986 1.8796 4.7797 2.2193 8.0211 2.594 24.75l0.43122 19.25-7.3561 0.01064c-4.0458 0.0058-46.79 0.0011-94.987-0.0105l-87.631-0.02114-1.6189 3.4116c-1.1598 2.4441-1.6189 6.2756-1.6189 13.51v10.099h96c63.333 0 96 0.34028 96 1s-32.667 1-96 1h-96v25h96c63.333 0 96 0.34028 96 1s-32.667 1-96 1h-96v22h96c63.333 0 96 0.34028 96 1s-32.667 1-96 1h-96v23h96c63.333 0 96 0.34028 96 1s-32.667 1-96 1h-96v23h96.059c63.785 0 95.851 0.33598 95.441 1-0.40504 0.65536-33.51 1-96.059 1h-95.441v23h86.941c52.083 0 87.17 0.37028 87.512 0.92353 0.71113 1.1506-3.5311 4.1399-9.4527 6.6608-4.2989 1.8301-8.1861 1.9245-87 2.1124-62.734 0.14955-83.578-0.0982-87-1.0343zm176.23-3.4771c3.152-1.2731 5.9911-2.7356 6.309-3.25 0.35699-0.57761-32.714-0.93526-86.481-0.93526h-87.059l-0.16004 3.25-0.16004 3.25-0.40332-3.25c-0.37825-3.048-0.64802-3.25-4.34-3.25-3.5915 0-3.9498 0.24108-4.0865 2.75l-0.14983 2.75-0.41659-2.75c-0.40057-2.6442-0.64483-2.75-6.3502-2.75-3.2635 0-5.9336 0.2503-5.9336 0.55623 0 0.92979 8.7686 4.5004 13.27 5.4036 2.3267 0.46683 41.58 0.77935 87.23 0.69449l83-0.1543zm-168.23-16.685v-11.5h-8v23h8zm0-25v-11.5h-8v23h8zm0-25v-11.5h-8v23h8zm0-24.5v-11h-8v22h8zm0-25.5v-12.5h-8v25h8zm-32.713-33.24c3.1826-0.19905 8.1326-0.1972 11 0.0041 2.8674 0.20131 0.26349 0.36417-5.7865 0.36191-6.05-0.0023-8.3961-0.16696-5.2135-0.36601zm43.983-1.9529c0.97297-0.25354 2.323-0.23687 3 0.03705 0.67703 0.27393-0.11903 0.48137-1.769 0.46099-1.65-0.020379-2.2039-0.2445-1.231-0.49804zm50.481-0.96929c0.6875-0.27741 1.8125-0.27741 2.5 0 0.6875 0.27741 0.125 0.50439-1.25 0.50439s-1.9375-0.22697-1.25-0.50439zm21.514-0.0553c1.5201-0.22986 3.7701-0.22371 5 0.01365s-0.0137 0.42542-2.7638 0.41792c-2.75-0.0075-3.7563-0.20171-2.2362-0.43157zm25.486 0.0553c0.6875-0.27741 1.8125-0.27741 2.5 0 0.6875 0.27741 0.125 0.50439-1.25 0.50439s-1.9375-0.22697-1.25-0.50439zm-63.481-1.0307c0.97297-0.25354 2.323-0.23687 3 0.03705 0.67703 0.27393-0.11903 0.48137-1.769 0.46099-1.65-0.020379-2.2039-0.2445-1.231-0.49804zm75.481 0.03071c0.6875-0.27741 1.8125-0.27741 2.5 0 0.6875 0.27741 0.125 0.50439-1.25 0.50439s-1.9375-0.22697-1.25-0.50439zm-92.481-1.0307c0.97297-0.25354 2.323-0.23687 3 0.03705 0.67703 0.27393-0.11903 0.48137-1.769 0.46099-1.65-0.020379-2.2039-0.2445-1.231-0.49804zm125.54-1.9901c0.72187-0.28887 1.5844-0.25334 1.9167 0.07895 0.33229 0.33229-0.25834 0.56864-1.3125 0.52522-1.165-0.04798-1.4019-0.28494-0.60417-0.60417z" fill="#eda563"/>
  <path d="m39 235.66c-5.4769-1.4982-13.366-5.7899-13.166-7.1624 0.0801-0.55 2.8502-1.134 6.1558-1.2977l6.0102-0.29771v-22.905h-14.5c-9 0-14.5-0.37931-14.5-1s5.5-1 14.5-1h14.5v-23h-15c-9.3333 0-15-0.37778-15-1s5.6667-1 15-1h15v-23h-15c-9.3333 0-15-0.37778-15-1s5.6667-1 15-1h15v-22h-15c-9.3333 0-15-0.37778-15-1s5.6667-1 15-1h15v-25h-15c-9.3333 0-15-0.37778-15-1 0-0.62212 5.655-1 14.965-1h14.965l0.32408-10.25 0.32409-10.25 0.2109 10.25 0.2109 10.25h100.5c66.333 0 100.5 0.33997 100.5 1s-34.167 1-100.5 1h-100.5v25h100.5c66.333 0 100.5 0.33997 100.5 1s-34.167 1-100.5 1h-100.5v22h100.5c66.333 0 100.5 0.33997 100.5 1s-34.167 1-100.5 1h-100.5v23h100.5c66.333 0 100.5 0.33997 100.5 1s-34.167 1-100.5 1h-100.5v23h100.56c66.785 0 100.35 0.33587 99.941 1-0.40535 0.65587-35.01 1-100.56 1h-99.941v23h91.441c54.835 0 91.669 0.36972 92.012 0.92353 0.71113 1.1506-3.5311 4.1399-9.4527 6.6608-4.2989 1.8301-8.1861 1.9245-87 2.1124-62.734 0.14955-83.578-0.0982-87-1.0343zm176.23-3.4771c3.152-1.2731 5.9911-2.7356 6.309-3.25 0.35707-0.57775-34.421-0.93526-90.981-0.93526h-91.559l-0.14983 2.75-0.14983 2.75-0.41659-2.75c-0.40057-2.6442-0.64483-2.75-6.3502-2.75-3.2635 0-5.9336 0.2503-5.9336 0.55623 0 0.92979 8.7686 4.5004 13.27 5.4036 2.3267 0.46683 41.58 0.77935 87.23 0.69449l83-0.1543zm-200.94-149.93c3.1826-0.19905 8.1326-0.1972 11 0.0041 2.8674 0.20131 0.26349 0.36417-5.7865 0.36191-6.05-0.0023-8.3961-0.16696-5.2135-0.36601zm43.983-1.9529c0.97297-0.25354 2.323-0.23687 3 0.03705 0.67703 0.27393-0.11903 0.48137-1.769 0.46099-1.65-0.020379-2.2039-0.2445-1.231-0.49804zm50.481-0.96929c0.6875-0.27741 1.8125-0.27741 2.5 0 0.6875 0.27741 0.125 0.50439-1.25 0.50439s-1.9375-0.22697-1.25-0.50439zm21.514-0.0553c1.5201-0.22986 3.7701-0.22371 5 0.01365s-0.0137 0.42542-2.7638 0.41792c-2.75-0.0075-3.7563-0.20171-2.2362-0.43157zm25.486 0.0553c0.6875-0.27741 1.8125-0.27741 2.5 0 0.6875 0.27741 0.125 0.50439-1.25 0.50439s-1.9375-0.22697-1.25-0.50439zm-63.481-1.0307c0.97297-0.25354 2.323-0.23687 3 0.03705 0.67703 0.27393-0.11903 0.48137-1.769 0.46099-1.65-0.020379-2.2039-0.2445-1.231-0.49804zm75.481 0.03071c0.6875-0.27741 1.8125-0.27741 2.5 0 0.6875 0.27741 0.125 0.50439-1.25 0.50439s-1.9375-0.22697-1.25-0.50439zm-92.481-1.0307c0.97297-0.25354 2.323-0.23687 3 0.03705 0.67703 0.27393-0.11903 0.48137-1.769 0.46099-1.65-0.020379-2.2039-0.2445-1.231-0.49804zm125.54-1.9901c0.72187-0.28887 1.5844-0.25334 1.9167 0.07895 0.33229 0.33229-0.25834 0.56864-1.3125 0.52522-1.165-0.04798-1.4019-0.28494-0.60417-0.60417zm-84.12-1.0713-108.81-0.25443 0.30715-20.272 0.30715-20.272 3.2677-6.6318c4.14-8.4023 12.853-16.712 20.948-19.98l5.7846-2.3348 82.983-0.27258c55.575-0.18255 84.668 0.077231 88.085 0.78655 11.872 2.4645 23.889 12.956 28.62 24.986 1.8783 4.7764 2.2193 8.0216 2.5925 24.667l0.42973 19.167-7.8546 0.33266c-4.32 0.18296-56.818 0.21817-116.66 0.07823z" fill="#a3a1a3"/>
  <path d="m83.75 235.25c22.138-0.15015 58.362-0.15015 80.5 0 22.138 0.15016 4.025 0.27301-40.25 0.27301s-62.388-0.12285-40.25-0.27301zm-44-0.9126c0.6875-0.27741 1.8125-0.27741 2.5 0s0.125 0.50439-1.25 0.50439-1.9375-0.22698-1.25-0.50439zm167.06-0.0208c0.72187-0.28887 1.5844-0.25335 1.9167 0.0789 0.33229 0.33229-0.25834 0.56864-1.3125 0.52522-1.165-0.048-1.4019-0.28494-0.60417-0.60416zm-168.66-3.5192c-0.14367-2.5911-0.407-2.7169-6.3998-3.0573l-6.25-0.35504 6.25-0.19268 6.25-0.19268v-23h-14.5c-9 0-14.5-0.37931-14.5-1s5.5-1 14.5-1h14.5v-23h-15c-9.3333 0-15-0.37778-15-1s5.6667-1 15-1h15v-23h-15c-9.3333 0-15-0.37778-15-1s5.6667-1 15-1h15v-22h-15c-9.3333 0-15-0.37778-15-1s5.6667-1 15-1h15v-25h-15c-9.3333 0-15-0.37778-15-1 0-0.62212 5.655-1 14.965-1h14.965l0.32408-10.25 0.32409-10.25 0.2109 10.25 0.2109 10.25h100.5c66.333 0 100.5 0.33997 100.5 1s-34.167 1-100.5 1h-100.5v25h100.5c66.333 0 100.5 0.33997 100.5 1s-34.167 1-100.5 1h-100.5v22h100.5c66.333 0 100.5 0.33997 100.5 1s-34.167 1-100.5 1h-100.5v23h100.5c66.333 0 100.5 0.33997 100.5 1s-34.167 1-100.5 1h-100.5v23h100.56c66.785 0 100.35 0.33587 99.941 1-0.40535 0.65587-35.01 1-100.56 1h-99.941v22.99l91.75 0.26053 91.75 0.26054-91.684 0.2447-91.684 0.2447-0.41659 2.75-0.41659 2.75zm-23.863-148.54c3.1826-0.19905 8.1326-0.1972 11 0.0041 2.8674 0.20131 0.26349 0.36417-5.7865 0.36191-6.05-0.0023-8.3961-0.16696-5.2135-0.36601zm43.983-1.9529c0.97297-0.25354 2.323-0.23687 3 0.03705 0.67703 0.27393-0.11903 0.48137-1.769 0.46099-1.65-0.020379-2.2039-0.2445-1.231-0.49804zm50.481-0.96929c0.6875-0.27741 1.8125-0.27741 2.5 0 0.6875 0.27741 0.125 0.50439-1.25 0.50439s-1.9375-0.22697-1.25-0.50439zm21.514-0.0553c1.5201-0.22986 3.7701-0.22371 5 0.01365s-0.0137 0.42542-2.7638 0.41792c-2.75-0.0075-3.7563-0.20171-2.2362-0.43157zm25.486 0.0553c0.6875-0.27741 1.8125-0.27741 2.5 0 0.6875 0.27741 0.125 0.50439-1.25 0.50439s-1.9375-0.22697-1.25-0.50439zm-63.481-1.0307c0.97297-0.25354 2.323-0.23687 3 0.03705 0.67703 0.27393-0.11903 0.48137-1.769 0.46099-1.65-0.020379-2.2039-0.2445-1.231-0.49804zm75.481 0.03071c0.6875-0.27741 1.8125-0.27741 2.5 0 0.6875 0.27741 0.125 0.50439-1.25 0.50439s-1.9375-0.22697-1.25-0.50439zm-92.481-1.0307c0.97297-0.25354 2.323-0.23687 3 0.03705 0.67703 0.27393-0.11903 0.48137-1.769 0.46099-1.65-0.020379-2.2039-0.2445-1.231-0.49804zm125.54-1.9901c0.72187-0.28887 1.5844-0.25334 1.9167 0.07895 0.33229 0.33229-0.25834 0.56864-1.3125 0.52522-1.165-0.04798-1.4019-0.28494-0.60417-0.60417zm-84.12-1.0713-108.81-0.25443 0.30715-20.272 0.30715-20.272 3.2677-6.6318c4.14-8.4023 12.853-16.712 20.948-19.98l5.7846-2.3348 82.983-0.27258c55.575-0.18255 84.668 0.077231 88.085 0.78655 11.872 2.4645 23.889 12.956 28.62 24.986 1.8783 4.7764 2.2193 8.0216 2.5925 24.667l0.42973 19.167-7.8546 0.33266c-4.32 0.18296-56.818 0.21817-116.66 0.07823z" fill="#aaab8c"/>
  <path d="m83.75 235.25c22.138-0.15015 58.362-0.15015 80.5 0 22.138 0.15016 4.025 0.27301-40.25 0.27301s-62.388-0.12285-40.25-0.27301zm-44-0.9126c0.6875-0.27741 1.8125-0.27741 2.5 0s0.125 0.50439-1.25 0.50439-1.9375-0.22698-1.25-0.50439zm167.06-0.0208c0.72187-0.28887 1.5844-0.25335 1.9167 0.0789 0.33229 0.33229-0.25834 0.56864-1.3125 0.52522-1.165-0.048-1.4019-0.28494-0.60417-0.60416zm-168.66-3.5192c-0.14367-2.5911-0.407-2.7169-6.3998-3.0573l-6.25-0.35504 6.25-0.19268 6.25-0.19268v-23h-14.5c-9 0-14.5-0.37931-14.5-1s5.5-1 14.5-1h14.5v-23h-15c-9.3333 0-15-0.37778-15-1s5.6667-1 15-1h15v-23h-15c-9.3333 0-15-0.37778-15-1s5.6667-1 15-1h15v-22h-15c-9.3333 0-15-0.37778-15-1s5.6667-1 15-1h15v-25h-15c-9.3333 0-15-0.37778-15-1 0-0.62212 5.655-1 14.965-1h14.965l0.32408-10.25 0.32409-10.25 0.2109 10.25 0.2109 10.25h100.5c66.333 0 100.5 0.33997 100.5 1s-34.167 1-100.5 1h-100.5v25h100.5c66.333 0 100.5 0.33997 100.5 1s-34.167 1-100.5 1h-100.5v22h100.5c66.333 0 100.5 0.33997 100.5 1s-34.167 1-100.5 1h-100.5v23h100.5c66.333 0 100.5 0.33997 100.5 1s-34.167 1-100.5 1h-100.5v23h100.56c66.785 0 100.35 0.33587 99.941 1-0.40535 0.65587-35.01 1-100.56 1h-99.941v22.99l91.75 0.26053 91.75 0.26054-91.684 0.2447-91.684 0.2447-0.41659 2.75-0.41659 2.75zm-29.974-177.07 0.32371-20.276 3.2741-6.6453c5.2837-10.724 15.823-19.085 27.434-21.763 2.6388-0.60868 35.547-0.99931 85.452-1.0143 77.636-0.023384 81.432 0.060069 87.413 1.9213 12.318 3.8337 21.792 12.803 26.173 24.779 1.7905 4.8941 2.178 8.6342 2.5409 24.525l0.42819 18.75h-233.36z" fill="#9d9c9d"/>
  <path d="m38.15 230.8c-0.14367-2.5911-0.407-2.7169-6.3998-3.0573l-6.25-0.35504 6.25-0.19268 6.25-0.19268v-23h-14.5c-9 0-14.5-0.37931-14.5-1s5.5-1 14.5-1h14.5v-23h-15c-9.3333 0-15-0.37778-15-1s5.6667-1 15-1h15v-23h-15c-9.3333 0-15-0.37778-15-1s5.6667-1 15-1h15v-22h-15c-9.3333 0-15-0.37778-15-1s5.6667-1 15-1h15v-25h-15c-9.3333 0-15-0.37778-15-1 0-0.62212 5.655-1 14.965-1h14.965l0.32408-10.25 0.32409-10.25 0.2109 10.25 0.2109 10.25h100.5c66.333 0 100.5 0.33997 100.5 1s-34.167 1-100.5 1h-100.5v25h100.5c66.333 0 100.5 0.33997 100.5 1s-34.167 1-100.5 1h-100.5v22h100.5c66.333 0 100.5 0.33997 100.5 1s-34.167 1-100.5 1h-100.5v23h100.5c66.333 0 100.5 0.33997 100.5 1s-34.167 1-100.5 1h-100.5v23h100.56c66.785 0 100.35 0.33587 99.941 1-0.40535 0.65587-35.01 1-100.56 1h-99.941v22.99l91.75 0.26053 91.75 0.26054-91.684 0.2447-91.684 0.2447-0.41659 2.75-0.41659 2.75zm-29.974-177.07 0.32371-20.276 3.2741-6.6453c5.2837-10.724 15.823-19.085 27.434-21.763 2.6388-0.60868 35.547-0.99931 85.452-1.0143 77.636-0.023384 81.432 0.060069 87.413 1.9213 12.318 3.8337 21.792 12.803 26.173 24.779 1.7905 4.8941 2.178 8.6342 2.5409 24.525l0.42819 18.75h-233.36z" fill="#a39c96"/>
  <path d="m38.15 230.8c-0.14367-2.5911-0.407-2.7169-6.3998-3.0573l-6.25-0.35504 6.25-0.19268 6.25-0.19268v-23h-14.5c-9 0-14.5-0.37931-14.5-1s5.5-1 14.5-1h14.5v-23h-15c-9.3333 0-15-0.37778-15-1s5.6667-1 15-1h15v-23h-15c-9.3333 0-15-0.37778-15-1s5.6667-1 15-1h15v-22h-15c-9.3333 0-15-0.37778-15-1s5.6667-1 15-1h15v-25h-15c-9.3333 0-15-0.37778-15-1 0-0.62212 5.655-1 14.965-1h14.965l0.32408-10.25 0.32409-10.25 0.2109 10.25 0.2109 10.25h100.5c66.333 0 100.5 0.33997 100.5 1s-34.167 1-100.5 1h-100.5v25h100.5c66.333 0 100.5 0.33997 100.5 1s-34.167 1-100.5 1h-100.5v22h100.5c66.333 0 100.5 0.33997 100.5 1s-34.167 1-100.5 1h-100.5v23h100.5c66.333 0 100.5 0.33997 100.5 1s-34.167 1-100.5 1h-100.5v23h100.56c66.785 0 100.35 0.33587 99.941 1-0.40535 0.65587-35.01 1-100.56 1h-99.941v22.99l91.75 0.26053 91.75 0.26054-91.684 0.2447-91.684 0.2447-0.41659 2.75-0.41659 2.75zm-29.974-177.07 0.32371-20.276 3.2741-6.6453c5.2837-10.724 15.823-19.085 27.434-21.763 2.6388-0.60868 35.547-0.99931 85.452-1.0143 77.636-0.023384 81.432 0.060069 87.413 1.9213 12.318 3.8337 21.792 12.803 26.173 24.779 1.7905 4.8941 2.178 8.6342 2.5409 24.525l0.42819 18.75h-233.36z" fill="#7fb39b"/>
  <path d="m38.476 157c0-42.075 0.12336-59.288 0.27412-38.25 0.15077 21.038 0.15077 55.462 0 76.5-0.15077 21.038-0.27412 3.825-0.27412-38.25zm-30.299-103.28 0.32371-20.276 3.2741-6.6453c5.2837-10.724 15.823-19.085 27.434-21.763 2.6388-0.60868 35.547-0.99931 85.452-1.0143 77.636-0.023384 81.432 0.060069 87.413 1.9213 12.318 3.8337 21.792 12.803 26.173 24.779 1.7905 4.8941 2.178 8.6342 2.5409 24.525l0.42819 18.75h-233.36z" fill="#a58c74"/>
  <path d="m38.476 157c0-42.075 0.12336-59.288 0.27412-38.25 0.15077 21.038 0.15077 55.462 0 76.5-0.15077 21.038-0.27412 3.825-0.27412-38.25zm-30.298-103.25c0.34684-19.764 0.42204-20.387 3.1342-25.942 5.672-11.619 16.405-20.171 28.487-22.699 6.9008-1.4438 160.59-1.552 168.15-0.11837 16.409 3.1119 29.615 17.018 32.031 33.731 0.53908 3.7281 0.98907 13.191 0.99996 21.028l0.01981 14.25h-233.18z" fill="#938367"/>
  <path d="m38.476 157c0-42.075 0.12336-59.288 0.27412-38.25 0.15077 21.038 0.15077 55.462 0 76.5-0.15077 21.038-0.27412 3.825-0.27412-38.25zm-30.476-100.89c0-15.042 0.31616-18.908 1.9835-24.25 3.4859-11.169 12.215-20.372 23.734-25.021l5.7823-2.3339 81-0.30428c57.704-0.21677 82.726 0.024085 87 0.83746 14.432 2.7462 26.001 12.694 30.82 26.5 0.86902 2.4897 1.6438 11.136 2.0803 23.217l0.69558 19.25h-233.1z" fill="#8f7a64"/>
  <path d="m38.476 157c0-42.075 0.12336-59.288 0.27412-38.25 0.15077 21.038 0.15077 55.462 0 76.5-0.15077 21.038-0.27412 3.825-0.27412-38.25zm-30.301-102.81 0.32506-19.807 3.7723-7.6275c5.9987-12.129 16.098-19.614 29.407-21.793 7.6818-1.2581 156.96-1.2581 164.64 0 13.099 2.1454 24.207 10.272 29.938 21.904l3.2413 6.5786 0.32371 20.276 0.32371 20.276h-232.3z" fill="#e76121"/>
  <path d="m8.1749 54.193 0.32506-19.807 3.7723-7.6275c5.9987-12.129 16.098-19.614 29.407-21.793 7.6818-1.2581 156.96-1.2581 164.64 0 13.099 2.1454 24.207 10.272 29.938 21.904l3.2413 6.5786 0.32371 20.276 0.32371 20.276h-232.3z" fill="#8a6955"/>
  <path d="m8.1596 54.25 0.34043-19.75 3.2093-6.7753c5.8192-12.285 16.777-20.462 30.377-22.669 8.7329-1.4169 155.1-1.4131 163.91 0.0042553 3.575 0.57471 8.8707 2.1252 11.768 3.4455 6.8552 3.1237 15.091 11.449 18.79 18.994 2.9177 5.9512 2.9442 6.1646 3.2653 26.25l0.32371 20.25h-232.33z" fill="#815b4b"/>
  <path d="m8.1746 54.25c0.31951-17.751 0.57701-20.233 2.5437-24.521 3.1256-6.8154 7.9869-13.252 12.228-16.192l3.6607-2.5369h196.52l5.2462 5.25c2.8854 2.8875 6.5612 7.95 8.1683 11.25 2.8877 5.9294 2.9263 6.2384 3.2775 26.25l0.35537 20.25h-232.36z" fill="#7c5849"/>
  <path d="m8.2084 54.75c0.40817-21.748 1.5981-26.659 8.3776-34.579l3.5699-4.1707h208.67l3.4758 4.75c6.6769 9.1247 7.0311 10.689 7.4721 33l0.40026 20.25h-232.33z" fill="#7b5748"/>
  <path d="m8 56.605c0-19.604 1.4619-26.801 6.9955-34.44l3.017-4.1649 106.24 0.0019 106.24 0.0019 3.1792 4.7481c5.2847 7.8927 6.3208 13.373 6.3208 33.43v17.818h-232z" fill="#935432"/>
  <path d="m8 56.605c0-19.604 1.4619-26.801 6.9955-34.44l3.017-4.1649 106.24 0.0019 106.24 0.0019 3.1792 4.7481c5.2847 7.8927 6.3208 13.373 6.3208 33.43v17.818h-232z" fill="#795546"/>
  <path d="m8 57.21c0-17.392 1.2047-25.362 4.7375-31.343l1.6937-2.8673h219.68l2.6947 5.75c2.5952 5.5377 2.7067 6.4793 3.0197 25.5l0.32506 19.75h-232.15z" fill="#735243"/>
  <path d="m8.2616 54.75c0.28283-12.218 0.92566-20.62 1.7598-23l1.3142-3.75h225.59l1.5387 5.1815c1.1336 3.8171 1.5387 9.8735 1.5387 23v17.818h-232.18z" fill="#704f41"/>
  <path d="m8 57.549c0-9.0479 0.48729-18.723 1.0829-21.5l1.0829-5.0492h227.74l1.0414 3.75c0.57278 2.0625 1.0439 11.738 1.047 21.5l0.00558 17.75h-232z" fill="#6e4e40"/>
  <path d="m8.158 54.75c0.18811-10.588 0.70608-19.812 1.151-20.5 0.63944-0.98799 24.77-1.25 115.13-1.25h114.32l0.625 3.125c0.34375 1.7188 0.625 10.944 0.625 20.5v17.375h-232.18z" fill="#6c4d3e"/>
  <path d="m8.0153 56.75c0.00842-9.4875 0.37366-17.814 0.81164-18.504 0.63248-0.99618 24.445-1.2019 115.73-1l114.94 0.25424 0.27256 18.25 0.27256 18.25h-232.05z" fill="#684a3c"/>
  <path d="m8 57v-17h232v34h-232z" fill="#66483a"/>
  <path d="m8 59v-15h232v30h-232z" fill="#634638"/>
  <path d="m8 60.5v-13.5h232v27h-232z" fill="#604436"/>
  <path d="m8 62.5v-11.5h232v23h-232z" fill="#5c4133"/>
  <path d="m8 65v-9h232v18h-232z" fill="#583e31"/>
  <path d="m8 66.5v-7.5h232v15h-232z" fill="#563d30"/>
  <path d="m8 68v-6h232v12h-232z" fill="#523a2c"/>
  <path d="m8 70v-4h232v8h-232z" fill="#4f382b"/>
  <path d="m8 71v-3h232v6h-232z" fill="#4d3629"/>
  <path d="m8 73c0-0.66092 39.333-1 116-1 76.667 0 116 0.33908 116 1s-39.333 1-116 1c-76.667 0-116-0.33908-116-1z" fill="#4a3426"/>
 </g>
</svg>
