<?xml version="1.0" encoding="UTF-8"?>
<svg width="603" height="603" version="1.1" viewBox="0 0 603 603" xmlns="http://www.w3.org/2000/svg">
 <g transform="translate(1.6653 2)">
  <path d="m0 301.5v-301.5h603v603h-603z" fill="#fefefe"/>
  <path d="m212 550.5v-50.5h36v101h-36zm77 0v-50.5h36v101h-36zm77 0v-50.5h36v101h-36zm-189.5-73.51c-6.05-0.42531-13.025-1.3133-15.5-1.9733-12.017-3.2047-24.989-13.549-30.309-24.171-6.1487-12.276-5.8703-7.6934-6.8256-112.35-0.98076-107.44-0.1325-165.03 2.5764-174.92 4.805-17.546 18.193-30.709 35.829-35.229 6.8609-1.7582 13.853-1.8502 137.23-1.8038 97.028 0.0365 131.52 0.35355 136 1.2502 18.745 3.7534 34.898 19.899 38.719 38.701 1.8302 9.0064 1.8106 260.2-0.0211 269.88-3.5813 18.926-17.586 33.525-37.698 39.297-5.513 1.5822-15.862 1.7366-127.5 1.9033-66.825 0.0998-126.45-0.1666-132.5-0.5919zm252.5-175.49v-123.5h-259v247h259zm-212 0v-82.5h166l-2e-3 57.75c-1e-3 31.762-0.29824 68.888-0.66012 82.5l-0.65813 24.75h-164.68zm-216 73.5v-18h101v36h-101zm500 0v-18h101v36h-101zm-500-73.509v-18.509l50.25 0.25925 50.25 0.25925 0.27256 18.25 0.27256 18.25h-101.05zm500 0v-18.509l50.25 0.25925 50.25 0.25925 0.27256 18.25 0.27256 18.25h-101.05zm-500-76.491v-18h101v36h-101zm500 0v-18h101v36h-101zm-289-174.5v-50.5h36v101h-36zm77 0v-50.5h36v101h-36zm77 0v-50.5h36v101h-36z" fill="#ccc"/>
  <path d="m212 550.5v-50.5h36v101h-36zm77 0v-50.5h36v101h-36zm77 0v-50.5h36v101h-36zm-184.5-73.474c-11.598-0.59111-17.788-1.3848-22.5-2.8851-15.985-5.0899-27.274-17.063-32.661-34.641-1.7449-5.6939-1.8387-12.658-1.8387-136.5 0-121.57 0.12166-131.02 1.7783-138.07 4.3256-18.415 17.276-31.342 36.722-36.654 6.0849-1.6622 14.769-1.7654 136-1.6155 94.48 0.11681 131.26 0.47895 136 1.3392 10.14 1.8394 16.574 5.4094 25.083 13.918 8.4733 8.4733 12.033 14.863 13.973 25.083 0.9348 4.9244 1.2594 37.649 1.3392 135 0.0957 116.77-0.0472 129.15-1.5651 135.63-2.2796 9.7251-5.7388 16.135-12.757 23.637-7.0224 7.5069-13.144 11.07-23.627 13.751-7.3955 1.8914-12.336 1.9872-123.82 2.3991-63.867 0.23598-123.32 0.06211-132.12-0.38638zm248.25-175.28 0.25392-123.75h-260.01v248.01l129.75-0.25375 129.75-0.25374zm-212.09 20.585c-0.36519-33.916-0.66399-71.041-0.66399-82.5v-20.835h82.441c45.343 0 82.63 0.3375 82.861 0.75s0.19648 37.538-0.0764 82.5l-0.49607 81.75h-163.4l-0.66399-61.665zm-216.66 52.665v-18h101v36h-101zm500 0v-18h101v36h-101zm-500-72.991v-18.009h101.05l-0.27308 17.75-0.27307 17.75-50.25 0.25925-50.25 0.25925zm500 0v-18.009h101.05l-0.27308 17.75-0.27307 17.75-50.25 0.25925-50.25 0.25925zm-500-77.009v-18h101v36h-101zm500 0v-18h101v36h-101zm-289-174.5v-50.5h36v101h-36zm77 0v-50.5h36v101h-36zm77 0v-50.5h36v101h-36z" fill="#b2b2b2"/>
  <path d="m212 551v-50h36v100h-36zm77 0v-50h36v100h-36zm77 0v-50h36v100h-36zm-178-74.022c-23.484-0.79916-29.657-1.9189-38.514-6.986-6.5685-3.7581-15.512-13.135-18.895-19.811-6.4294-12.688-6.0916-4.4966-6.0916-147.68 0-105.39 0.2551-131.14 1.3477-136 4.3065-19.172 17.721-33.027 36.783-37.992 5.0163-1.3066 23.149-1.5071 135.83-1.5021 79.66 4e-3 132.36 0.38348 136.04 0.98068 19.216 3.1222 36.439 20.578 39.601 40.137 0.66146 4.0911 1.0968 51.71 1.2147 132.88 0.2006 138.04 0.27357 136.08-5.5067 148-4.0898 8.4369-14.2 18.66-22.152 22.399-11.502 5.4083-10.558 5.3653-128.66 5.8559-60.225 0.25018-119.18 0.12564-131-0.27677zm242-174.98v-124h-260v248h260zm-212.24 0.25c-0.28865-44.962-0.32717-82.088-0.0856-82.5s37.313-0.75 82.38-0.75h81.941v165h-163.71zm-216.76 72.75v-18h100v36h-100zm500 0v-18h100v36h-100zm-500-73v-18h100v36h-100zm500 0v-18h100v36h-100zm-500-77v-18h100v36h-100zm500 0v-18h100v36h-100zm-289-174v-50h36v100h-36zm77 0v-50h36v100h-36zm77 0v-50h36v100h-36z" fill="#909090"/>
  <path d="m212 551v-50h36v100h-36zm77 0v-50h36v100h-36zm77 0v-50h36v100h-36zm-198.13-75.071c-20.561-3.0206-35.355-16.03-41.488-36.483-1.6603-5.5367-1.8071-14.472-2.135-129.95-0.36724-129.33-0.14007-138.2 3.8482-150.25 3.7022-11.185 12.362-20.94 23.636-26.625 11.477-5.7876 6.3867-5.5933 146.77-5.6012 82.248-5e-3 131.36 0.36011 135.5 1.0064 19.777 3.0839 36.821 20.152 39.941 39.995 1.6669 10.604 1.9033 258.64 0.25485 267.45-2.7954 14.938-12.278 28.179-24.932 34.812-13.298 6.9715-7.8423 6.73-148.97 6.5943-69.736-0.0671-129.33-0.49414-132.42-0.94905zm262.13-173.93v-124h-260v248h260zm-212-0.5v-82.5h164v165h-164zm-217 73.5v-18h100v36h-100zm500 0v-18h100v36h-100zm-500-73v-18h100v36h-100zm500 0v-18h100v36h-100zm-500-77v-18h100v36h-100zm500 0v-18h100v36h-100zm-289-174v-50h36v100h-36zm77 0v-50h36v100h-36zm77 0v-50h36v100h-36z" fill="#727272"/>
  <path d="m212 551v-50h36v100h-36zm77 0v-50h36v100h-36zm77 0v-50h36v100h-36zm-195-74.625c-19.936-3.0114-33.581-12.239-40.853-27.629-5.8528-12.386-5.647-7.0193-5.647-147.25 0-119.19 0.13198-129.51 1.7356-135.75 3.7687-14.657 12.338-26.069 24.386-32.475 12.266-6.5221 5.7439-6.246 147.38-6.2404 80.988 3e-3 131.09 0.37759 135.5 1.0126 10.375 1.4934 18.453 5.6989 26.603 13.849 8.4135 8.4135 12.432 16.306 13.798 27.103 1.2436 9.8251 2.1775 211.34 1.1262 243-0.94235 28.375-2.1143 33.822-9.4091 43.732-6.9788 9.48-14.49 14.813-26.619 18.902-5.2352 1.7646-11.759 1.8603-135.5 1.9867-71.5 0.0731-131.12-0.0371-132.5-0.24474zm259-174.38v-124h-260v248h260zm-212 0v-82h164v164h-164zm-217 73v-18h100v36h-100zm500 0v-18h100v36h-100zm-499.33-55.667c-0.36667-0.36666-0.66667-8.4667-0.66667-18v-17.333h100v36h-49.333c-27.133 0-49.633-0.3-50-0.66667zm500 0c-0.36667-0.36666-0.66667-8.4667-0.66667-18v-17.333h100v36h-49.333c-27.133 0-49.633-0.3-50-0.66667zm-500.67-94.333v-18h100v36h-100zm500 0v-18h100v36h-100zm-289-174v-50h36v100h-36zm77 0v-50h36v100h-36zm77 0v-50h36v100h-36z" fill="#535353"/>
  <path d="m212 551v-50h36v100h-36zm77 0v-50h36v100h-36zm77 0v-50h36v100h-36zm-197.45-75.111c-19.737-2.8761-34.434-14.62-40.553-32.404-3.7998-11.044-4.1197-23.903-3.7438-150.48 0.32971-111.03 0.50895-122.05 2.08-127.91 5.1754-19.287 18.688-32.305 37.961-36.571 6.4349-1.4242 21.315-1.5646 138.71-1.3089 131.48 0.2864 131.5 0.2868 137.75 2.431 15.231 5.2276 26.894 17.068 31.872 32.355 1.6579 5.0918 1.8312 13.07 2.3355 107.5 0.29956 56.1 0.28715 116.62-0.0276 134.5-0.53396 30.326-0.72307 32.931-2.8267 38.946-4.4639 12.764-13.295 22.825-24.814 28.271-12.264 5.7981-10.264 5.7216-147.29 5.6266-69.025-0.0479-128.18-0.47739-131.45-0.95448zm261.21-174.14-0.25391-124.25-129.75-0.25374-129.75-0.25375v249.01h260.01zm-211.75 0.25v-82h164v164h-164zm-216 73v-18h99v36h-99zm500 0v-18h99v36h-99zm-500-73v-18h99v36h-99zm500 0v-18h99v36h-99zm-500-77v-18h99v36h-99zm500 0v-18h99v36h-99zm-290-174v-50h36v100h-36zm77 0v-50h36v100h-36zm77 0v-50h36v100h-36z" fill="#353535"/>
  <path d="m212 551v-50h36v100h-36zm77 0v-50h36v100h-36zm77 0v-50h36v100h-36zm-196.46-75.098c-9.5285-1.4114-15.707-3.5648-22.12-7.7095-7.5831-4.9012-12.765-10.859-16.956-19.494-6.107-12.585-5.9639-9.0406-5.9639-147.7 0-118.54 0.11386-126.99 1.8089-134.21 0.99489-4.2395 3.1499-10.392 4.789-13.672 3.6034-7.211 13.42-16.758 21.088-20.51 11.945-5.8441 7.9463-5.7015 150.65-5.3713 121.89 0.28202 131.06 0.42198 136.66 2.0838 8.1248 2.4123 13.933 5.9726 20.569 12.609 6.8329 6.8329 10.309 12.632 12.644 21.093 1.6743 6.0669 1.787 14.801 1.787 138.48 0 108.49-0.24428 132.98-1.3713 137.5-3.1144 12.491-12.936 25.409-23.741 31.224-12.08 6.5008-4.7588 6.1806-145.89 6.3804-70.4 0.0997-130.68-0.21613-133.96-0.70177zm260.46-174.4v-124.5h-260v249h260zm-212 0.5v-82h164v164h-164zm-216 73v-18h99v36h-99zm500 0v-18h99v36h-99zm-500-73.5v-17.5h99v35h-99zm500 0v-17.5h99v35h-99zm-500-76.5v-18h99v36h-99zm500 0v-18h99v36h-99zm-290-174v-50h36v100h-36zm77 0v-50h36v100h-36zm77 0v-50h36v100h-36z"/>
 </g>
</svg>
