<?xml version="1.0" encoding="UTF-8"?>
<svg width="128" height="128" version="1.1" viewBox="0 0 128 128" xmlns="http://www.w3.org/2000/svg">
 <g transform="matrix(1.1273 0 0 1.1028 -6.6115 -.64348)">
  <path d="m5.8471 114.56c-0.61051-1.3399-0.80348-3.235-0.42883-4.2114 0.37466-0.97633 0.64787-25.984 0.60714-55.572l-0.074053-53.797 56.774 0.25827 56.774 0.25827 0.5 56.322c0.275 30.977 0.14014 56.965-0.29969 57.75-0.67801 1.2106-9.3166 1.4278-56.771 1.4278h-55.972zm75.403-100.31c-10.588-0.16197-27.912-0.16197-38.5 0s-1.925 0.2945 19.25 0.2945 29.838-0.13252 19.25-0.2945zm18.75-6.2513v-4h-76.553l0.38146 4 0.38146 4h75.79z" fill="#f8f9fa"/>
  <path d="m6.5567 114.78c-1.9697-2.8121-1.9804-4.6777-0.031181-5.4257 1.0918-0.41895 1.2314-0.93983 0.49101-1.8319-0.69105-0.83267-0.94853-18.639-0.77552-53.633l0.25899-52.387h113l0.25834 56.936c0.20367 44.886-8e-3 57.105-1 57.735-0.69209 0.43937-25.87 0.80575-55.952 0.81417l-54.693 0.01531zm93.194-99.527c0.32834-0.98561-7.7527-1.25-38.206-1.25-33.9 0-38.465 0.17975-37.333 1.4701 1.0975 1.2513 6.7836 1.4373 38.206 1.25 28.486-0.16983 37.012-0.50556 37.333-1.4701zm1.0572-7l0.3075-4.25h-78.115v9.0235l38.75-0.26174 38.75-0.26174zm-20.124-5.999c-10.899-0.16156-28.449-0.16133-39 5.141e-4 -10.551 0.16185-1.6338 0.29403 19.816 0.29375 21.45-2.828e-4 30.083-0.1327 19.184-0.29426z" fill="#f6f8f9"/>
  <path d="m7 115c-2.3765-2.3765-2.4829-3.3743-0.56429-5.2929 0.90115-0.90115 1.084-1.7875 0.49098-2.3804-0.57563-0.57563-0.84354-21.433-0.68571-53.386l0.25902-52.441h113l0.25839 56.387c0.18702 40.813-0.054 56.764-0.87245 57.75-0.92912 1.1195-10.83 1.3626-55.508 1.3626-53.044 0-54.427-0.04904-56.378-2zm73.75-95.749c-10.312-0.16253-27.188-0.16253-37.5 0s-1.875 0.29551 18.75 0.29551 29.062-0.13298 18.75-0.29551zm19.25-3.7514c1.103-1.329-3.2119-1.5-37.846-1.5-34.337 0-39.021 0.18243-38.515 1.5 0.86682 2.2589 74.487 2.2589 76.362 0zm0.61861-8.25 0.1186-5.25h-38.928c-25.697 0-38.718 0.33987-38.31 1 0.33992 0.55 0.25073 1-0.19819 1-0.44892 0-0.65475 2.0302-0.4574 4.5116l0.35883 4.5116 38.648-0.26165 38.648-0.26165z" fill="#f5f6f8"/>
  <path d="m7.75 115.92c-1.9407-1.1304-2.4658-6.9199-0.62756-6.9199 0.82553 0 0.82315-0.36063-0.00899-1.3633-0.81758-0.98512-1.0596-15.895-0.87245-53.75l0.25899-52.387 55.936-0.25848c44.086-0.20372 56.105 0.00812 56.735 1 0.43942 0.69216 0.80584 26.256 0.81426 56.808 0.0115 41.89-0.27978 55.845-1.1847 56.75-1.5671 1.5671-108.37 1.6824-111.05 0.1199zm73-94.669c-10.312-0.16253-27.188-0.16253-37.5 0s-1.875 0.29551 18.75 0.29551 29.062-0.13298 18.75-0.29551zm19.264-2.0014c8e-3 -0.4125 0.285-1.7625 0.61664-3l0.60297-2.25h-39.117c-21.514 0-39.11 0.3375-39.103 0.75 0.0075 0.4125 0.28499 1.7625 0.61663 3l0.60298 2.25h37.883c20.836 0 37.89-0.3375 37.897-0.75zm1.1257-8c0.0767-0.9625 0.22722-3.4375 0.33459-5.5l0.19523-3.75h-79.419v11h39.375c36.78 0 39.384-0.11532 39.514-1.75z" fill="#f1f2f3"/>
  <path d="m7.8656 115.19c-2.1182-1.4836-2.4946-4.8149-0.61558-5.4474 0.99796-0.33588 0.99615-0.72838-0.00899-1.9466-0.984-1.1926-1.2024-12.968-1-53.913l0.25899-52.387 56.19-0.2583 56.19-0.2583 0.31035 56.758c0.17069 31.217-0.0497 57.208-0.48967 57.758-0.51559 0.64448-20.028 1-54.884 1-42.901 0-54.47-0.2702-55.95-1.3067zm91.634-93.193c0.40789-0.65998-12.323-1-37.441-1-24.706 0-38.059 0.35085-38.059 1 0 1.3726 74.652 1.3726 75.5 0zm1.9699-8.25c0.34601-3.4375 0.50868-7.4875 0.36149-9l-0.26763-2.75h-79.564v11l39.75 0.2382 39.75 0.2382-39.575 0.27312-39.575 0.27312 0.43864 2.9887 0.43864 2.9887h77.614z" fill="#edf0f3"/>
  <path d="m7.8656 115.19c-2.1182-1.4836-2.4946-4.8149-0.61558-5.4474 0.99796-0.33588 0.99615-0.72838-0.00899-1.9466-0.984-1.1926-1.2024-12.968-1-53.913l0.25899-52.387 56.19-0.2583 56.19-0.2583 0.31035 56.758c0.17069 31.217-0.0497 57.208-0.48967 57.758-0.51559 0.64448-20.028 1-54.884 1-42.901 0-54.47-0.2702-55.95-1.3067zm91.638-89.172c-0.20961-1.0884 0.04856-2.2445 0.57373-2.5691 3.2673-2.0193-3.5617-2.4519-38.704-2.4519h-38.508l0.72457 2.25c0.39851 1.2375 0.72884 2.8125 0.73405 3.5 0.0074 0.97777 8.2364 1.25 37.785 1.25 37.104 0 37.769-0.03521 37.395-1.979zm1.9248-9.271c0.28572-1.7875 0.69864-5.8375 0.91762-9l0.39813-5.75-41.622 0.078947c-22.892 0.043421-41.06 0.30592-40.372 0.58333 0.80809 0.32607 1.2548 2.6845 1.2637 6.6711 0.00751 3.3917 0.28499 7.1792 0.61663 8.4167l0.60298 2.25h77.676zm-59.179-3.4988c10.862-0.16144 28.638-0.16144 39.5 0s1.975 0.29353-19.75 0.29353-30.612-0.13209-19.75-0.29353z" fill="#ebeef1"/>
  <path d="m8.4467 115.22c-2.5762-1.3498-3.3213-4.757-1.1967-5.4721 0.99796-0.33588 0.99615-0.72838-0.00899-1.9466-0.984-1.1926-1.2024-12.968-1-53.913l0.25899-52.387 56.25-0.25833 56.25-0.25833 0.011 52.758c6e-3 29.017 0.24736 54.333 0.53625 56.258 1.03 6.8635 4.2432 6.4846-55.06 6.4927-41.66 6e-3 -54.139-0.27815-56.041-1.2746zm72.803-85.967c-10.588-0.16197-27.912-0.16197-38.5 0s-1.925 0.2945 19.25 0.2945 29.838-0.13252 19.25-0.2945zm19.145-3.0013c1.0811-3.5733 2.5904-14.903 2.5978-19.5l0.00755-4.75h-41.5c-35.467 0-41.5 0.20949-41.5 1.441 0 0.79254 0.47153 1.7324 1.0478 2.0886 0.57632 0.35618 0.9745 1.3952 0.88485 2.309-0.089653 0.91378-0.11118 4.0239-0.04785 6.9114l0.11515 5.25 39.75 0.23805 39.75 0.23805-39.25 0.27355-39.25 0.27355v6.9768h38.433c35.734 0 38.47-0.12287 38.962-1.75zm-58.711-12.998c10.551-0.16185 28.101-0.16208 39-5.14e-4 10.899 0.16156 2.2662 0.29398-19.184 0.29426-21.45 2.82e-4 -30.367-0.1319-19.816-0.29375z" fill="#e5e9ee"/>
  <path d="m10.156 115.86c-0.94886-0.35097-2.3676-1.4122-3.1527-2.3582-1.2488-1.5047-1.2118-1.8778 0.29581-2.9802 1.5321-1.1203 1.5547-1.4001 0.20348-2.5215-1.3307-1.1044-1.4877-7.8105-1.2611-53.882l0.25877-52.62 56.25-0.25833 56.25-0.25833 0.01365 53.758c8e-3 29.567 0.25406 54.658 0.54789 55.758s-0.11992 2.8916-0.91945 3.9814c-1.4169 1.9313-2.7853 1.9819-54.107 2-28.96 0.0102-53.43-0.26857-54.379-0.61955zm89.844-78.862c0-0.65346-13.429-0.91956-38.75-0.76788l-38.75 0.23212 38.5 0.53575c21.175 0.29466 38.612 0.64021 38.75 0.76788s0.25-0.21788 0.25-0.76788zm0-3.4182c0-0.78002 0.27314-2.13 0.60699-3 0.54713-1.4258-3.2598-1.5818-38.607-1.5818s-39.154 0.15598-38.607 1.5818c0.33384 0.86998 0.60699 2.22 0.60699 3 0 1.1994 5.8629 1.4182 38 1.4182s38-0.21881 38-1.4182zm1.4378-7.8318c0.36911-1.2375 0.93532-7.0875 1.2582-13l0.58713-10.75h-83.524l0.56483 5.75c0.77722 7.9122 1.7038 15.314 2.2534 18l0.4603 2.25h77.729zm-59.754-5.4985c10.551-0.16185 28.101-0.16208 39-5.14e-4 10.899 0.16156 2.2662 0.29398-19.184 0.29426-21.45 2.82e-4 -30.367-0.1319-19.816-0.29375zm0-7c10.551-0.16185 28.101-0.16208 39-5.14e-4 10.899 0.16156 2.2662 0.29398-19.184 0.29426-21.45 2.82e-4 -30.367-0.1319-19.816-0.29375z" fill="#e0e5ea"/>
  <path d="m10.156 115.86c-0.94886-0.35097-2.3676-1.4122-3.1527-2.3582-1.2488-1.5047-1.2118-1.8778 0.29581-2.9802 1.5321-1.1203 1.5547-1.4001 0.20348-2.5215-1.3307-1.1044-1.4877-7.8105-1.2611-53.882l0.25877-52.62 56.25-0.25833 56.25-0.25833 0.01365 53.758c8e-3 29.567 0.25406 54.658 0.54789 55.758s-0.11992 2.8916-0.91945 3.9814c-1.4169 1.9313-2.7853 1.9819-54.107 2-28.96 0.0102-53.43-0.26857-54.379-0.61955zm89.844-78.862c0-0.64938-13.52-1-38.559-1-25.451 0-38.349 0.33994-37.941 1 0.39445 0.63824 14.344 1 38.559 1 24.627 0 37.941-0.3509 37.941-1zm1.8336-9.75c0.64879-4.2625 1.1766-11.688 1.173-16.5l-0.00661-8.75h-83.205l0.58161 8.25c0.31988 4.5375 0.86137 10.388 1.2033 13l0.6217 4.75 39.649 0.23805 39.649 0.23805-39.25 0.27355-39.25 0.27355v5.9768h77.654zm-60.15-6.9985c10.551-0.16185 28.101-0.16208 39-5.14e-4 10.899 0.16156 2.2662 0.29398-19.184 0.29426-21.45 2.82e-4 -30.367-0.1319-19.816-0.29375z" fill="#dde2e8"/>
  <path d="m10.156 115.86c-0.94886-0.35097-2.3676-1.4122-3.1527-2.3582-1.2488-1.5047-1.2118-1.8778 0.29581-2.9802 1.5321-1.1203 1.5547-1.4001 0.20348-2.5215-1.3307-1.1044-1.4877-7.8105-1.2611-53.882l0.25877-52.62 56.25-0.25833 56.25-0.25833 0.01365 53.758c8e-3 29.567 0.25406 54.658 0.54789 55.758s-0.11992 2.8916-0.91945 3.9814c-1.4169 1.9313-2.7853 1.9819-54.107 2-28.96 0.0102-53.43-0.26857-54.379-0.61955zm70.66-73.61c-10.276-0.1624-27.376-0.16264-38-5.38e-4s-2.2158 0.29497 18.684 0.29526 29.592-0.13233 19.316-0.29473zm17.602-1.8586c0.86998-0.33384 1.5818-1.4588 1.5818-2.5 0-1.8246-1.392-1.893-38.5-1.893-21.175 0-38.5 0.30207-38.5 0.67126 0 0.36919 0.74474 1.4942 1.655 2.5 1.5437 1.7058 4.0258 1.8287 36.918 1.8287 19.395 0 35.975-0.27314 36.845-0.60699zm3.4891-11.643c0.6236-3.4375 1.237-10.863 1.3632-16.501l0.22941-10.251-41.819 0.0014067-41.819 0.0014066 0.47697 9.25c0.26234 5.0875 0.76039 11.05 1.1068 13.25s0.85803 5.4625 1.137 7.25l0.50714 3.25h77.683zm-59.657-0.49875c10.862-0.16144 28.638-0.16144 39.5 0s1.975 0.29353-19.75 0.29353-30.612-0.13209-19.75-0.29353z" fill="#e2e2e2"/>
  <path d="m7.8608 114c-2.2229-1.8826-2.2579-2.0793-0.59969-3.3684 1.5644-1.2162 1.5914-1.5099 0.24123-2.6304-1.3307-1.1044-1.4877-7.8105-1.2611-53.882l0.25877-52.62h112l0.5 55.312c0.275 30.422 0.177 56.184-0.21778 57.25-0.69795 1.8845-2.2066 1.938-54.639 1.938-52.462 0-53.985-0.05413-56.282-1.9993zm72.955-71.749c-10.276-0.1624-27.376-0.16264-38-5.38e-4s-2.2158 0.29497 18.684 0.29526 29.592-0.13233 19.316-0.29473zm17.602-1.8586c0.86998-0.33384 1.5818-1.4588 1.5818-2.5 0-1.8246-1.392-1.893-38.5-1.893-21.175 0-38.5 0.30207-38.5 0.67126 0 0.36919 0.74474 1.4942 1.655 2.5 1.5437 1.7058 4.0258 1.8287 36.918 1.8287 19.395 0 35.975-0.27314 36.845-0.60699zm3.4891-11.643c0.6236-3.4375 1.237-10.863 1.3632-16.501l0.22941-10.251-41.819 0.0014067-41.819 0.0014066 0.47697 9.25c0.26234 5.0875 0.76039 11.05 1.1068 13.25s0.85803 5.4625 1.137 7.25l0.50714 3.25h77.683zm-59.657-0.49875c10.862-0.16144 28.638-0.16144 39.5 0s1.975 0.29353-19.75 0.29353-30.612-0.13209-19.75-0.29353z" fill="#dbe1e6"/>
  <path d="m7.8608 114c-2.2229-1.8826-2.2579-2.0793-0.59969-3.3684 1.5644-1.2162 1.5914-1.5099 0.24123-2.6304-1.3307-1.1044-1.4877-7.8105-1.2611-53.882l0.25877-52.62h112l0.5 55.312c0.275 30.422 0.177 56.184-0.21778 57.25-0.69795 1.8845-2.2066 1.938-54.639 1.938-52.462 0-53.985-0.05413-56.282-1.9993zm92.431-73.745c0.28854-1.5094 0.31444-3.0844 0.0576-3.5-0.25691-0.41563-17.818-0.7557-39.025-0.7557h-38.558l0.68906 2.25c0.37899 1.2375 0.73147 2.8125 0.7833 3.5 0.0736 0.97624 8.3545 1.25 37.811 1.25h37.717zm1.0862-6.7974c1.1508-2.9989 2.6811-19.043 2.4037-25.2l-0.2813-6.2416-41.814-0.0083913-41.814-0.0083914 0.49403 10.25c0.49338 10.237 1.3887 19.139 2.1623 21.5 0.31832 0.97158 9.0795 1.25 39.334 1.25 34.145 0 38.997-0.18929 39.516-1.5417zm-59.694-5.2067c10.551-0.16185 28.101-0.16208 39-5.14e-4 10.899 0.16156 2.2662 0.29398-19.184 0.29426-21.45 2.82e-4 -30.367-0.1319-19.816-0.29375z" fill="#d9dee5"/>
  <path d="m7.8608 114c-2.2229-1.8826-2.2579-2.0793-0.59969-3.3684 1.5644-1.2162 1.5914-1.5099 0.24123-2.6304-1.3307-1.1044-1.4877-7.8105-1.2611-53.882l0.25877-52.62h112l0.5 55.312c0.275 30.422 0.177 56.184-0.21778 57.25-0.69795 1.8845-2.2066 1.938-54.639 1.938-52.462 0-53.985-0.05413-56.282-1.9993zm91.139-69.001c0.98262-0.63502-11.779-0.96937-37-0.96937s-37.983 0.33435-37 0.96937c2.009 1.2983 71.991 1.2983 74 0zm3.2213-12c0.99615-5.4979 1.6845-14.029 1.634-20.25l-0.08734-10.75h-83.768v11.453c0 6.2991 0.42448 12.487 0.94328 13.75s1.2302 5.3398 1.5808 9.0587l0.63757 6.7617 38.669-0.26167 38.669-0.26167zm-59.971 2.2512c10.862-0.16144 28.638-0.16144 39.5 0s1.975 0.29353-19.75 0.29353-30.612-0.13209-19.75-0.29353zm-0.56622-6.9997c10.551-0.16185 28.101-0.16208 39-5.14e-4 10.899 0.16156 2.2662 0.29398-19.184 0.29426-21.45 2.82e-4 -30.367-0.1319-19.816-0.29375z" fill="#d4dae2"/>
  <path d="m7.8608 114c-2.2229-1.8826-2.2579-2.0793-0.59969-3.3684 1.5644-1.2162 1.5914-1.5099 0.24123-2.6304-1.3307-1.1044-1.4877-7.8105-1.2611-53.882l0.25877-52.62h112l0.5 55.312c0.275 30.422 0.177 56.184-0.21778 57.25-0.69795 1.8845-2.2066 1.938-54.639 1.938-52.462 0-53.985-0.05413-56.282-1.9993zm72.823-62.75c-10.899-0.16156-28.449-0.16133-39 5.14e-4 -10.551 0.16185-1.6338 0.29403 19.816 0.29375 21.45-2.83e-4 30.083-0.1327 19.184-0.29426zm19.709-2.8328c1.7477-4.5544 2.931-4.4182-38.393-4.4182-41.324 0-40.141-0.13617-38.393 4.4182 0.53868 1.4038 4.8596 1.5818 38.393 1.5818s37.854-0.17802 38.393-1.5818zm2.4034-12.437c0.66195-3.8602 1.2036-13.085 1.2036-20.5v-13.481h-84v14.941c0 8.882 0.40553 15.192 1 15.559 0.55 0.33992 1 2.5415 1 4.8924s0.3 4.5743 0.66667 4.941c0.36667 0.36667 18.275 0.66667 39.796 0.66667h39.13zm-61.113-0.7299c10.551-0.16185 28.101-0.16208 39-5.14e-4 10.899 0.16156 2.2662 0.29398-19.184 0.29426-21.45 2.82e-4 -30.367-0.1319-19.816-0.29375z" fill="#d7d8da"/>
  <path d="m8.4786 113.98c-1.3918-1.5379-1.5523-2.3027-0.66864-3.1864 0.88362-0.88362 0.80378-1.5593-0.33263-2.8151-1.2942-1.4301-1.4605-8.7022-1.2363-54.064l0.259-52.411h112l0.25846 55.887c0.18703 40.443-0.0541 56.264-0.87245 57.25-0.92866 1.119-10.649 1.3627-54.353 1.3627-52.16 0-53.259-0.04041-55.054-2.0236zm81.021-39.976c-0.39349-0.63667-10.679-0.91784-28.309-0.77385l-27.691 0.22615 28 0.54771c15.4 0.30124 28.139 0.64947 28.309 0.77385s0.030902-0.22385-0.30902-0.77385zm-8.8162-22.749c-10.899-0.16156-28.449-0.16133-39 5.14e-4 -10.551 0.16185-1.6338 0.29403 19.816 0.29375 21.45-2.83e-4 30.083-0.1327 19.184-0.29426zm19.709-2.8328c1.7477-4.5544 2.931-4.4182-38.393-4.4182-41.324 0-40.141-0.13617-38.393 4.4182 0.53868 1.4038 4.8596 1.5818 38.393 1.5818s37.854-0.17802 38.393-1.5818zm2.4034-12.437c0.66195-3.8602 1.2036-13.085 1.2036-20.5v-13.481h-84v14.941c0 8.882 0.40553 15.192 1 15.559 0.55 0.33992 1 2.5415 1 4.8924s0.3 4.5743 0.66667 4.941c0.36667 0.36667 18.275 0.66667 39.796 0.66667h39.13zm-61.113-0.7299c10.551-0.16185 28.101-0.16208 39-5.14e-4 10.899 0.16156 2.2662 0.29398-19.184 0.29426-21.45 2.82e-4 -30.367-0.1319-19.816-0.29375z" fill="#cdd4dd"/>
  <path d="m8.4786 113.98c-1.3918-1.5379-1.5523-2.3027-0.66864-3.1864 0.88362-0.88362 0.80378-1.5593-0.33263-2.8151-1.2942-1.4301-1.4605-8.7022-1.2363-54.064l0.259-52.411h112l0.25846 55.887c0.18703 40.443-0.0541 56.264-0.87245 57.25-0.92866 1.119-10.649 1.3627-54.353 1.3627-52.16 0-53.259-0.04041-55.054-2.0236zm81.021-39.976c-0.39349-0.63667-10.679-0.91784-28.309-0.77385l-27.691 0.22615 28 0.54771c15.4 0.30124 28.139 0.64947 28.309 0.77385s0.030902-0.22385-0.30902-0.77385zm9.8329-19.385c0.85963-1.312 1.2864-2.662 0.94835-3-0.90892-0.90892-77.281-0.74796-77.281 0.16288 0 0.42762 0.70052 1.7776 1.5567 3l1.5567 2.2225h71.657zm2.2172-7.3646c0.32354-1.5125 1.0071-3.7837 1.519-5.0471 0.51193-1.2634 0.93079-10.826 0.93079-21.25v-18.953l-42.25-0.0011486-42.25-0.0011487 0.2927 18.501c0.17266 10.913 0.68531 18.501 1.25 18.501 0.52651 0 0.9573 1.7632 0.9573 3.9182 0 7.6454-3.1906 7.0818 40.088 7.0818h38.874zm-59.866-3.9985c10.551-0.16185 28.101-0.16208 39-5.14e-4 10.899 0.16156 2.2662 0.29398-19.184 0.29426-21.45 2.82e-4 -30.367-0.1319-19.816-0.29375z" fill="#c8d0da"/>
  <path d="m8.4786 113.98c-1.3918-1.5379-1.5523-2.3027-0.66864-3.1864 0.88362-0.88362 0.80378-1.5593-0.33263-2.8151-1.2942-1.4301-1.4605-8.7022-1.2363-54.064l0.259-52.411h112l0.25846 55.887c0.18703 40.443-0.0541 56.264-0.87245 57.25-0.92866 1.119-10.649 1.3627-54.353 1.3627-52.16 0-53.259-0.04041-55.054-2.0236zm81.021-39.976c-0.39349-0.63667-10.679-0.91784-28.309-0.77385l-27.691 0.22615 28 0.54771c15.4 0.30124 28.139 0.64947 28.309 0.77385s0.030902-0.22385-0.30902-0.77385zm10.206-15.25c0.02172-0.6875 0.99672-4.925 2.1667-9.4166 1.8192-6.984 2.1272-11.002 2.1272-27.75v-19.583l-42.25-9.971e-4 -42.25-9.972e-4 0.29082 20.744c0.18931 13.503 0.62028 20.223 1.2347 19.251 0.66974-1.0594 0.94832-0.11344 0.95918 3.257l0.015313 4.75 39.75 0.23805 39.75 0.23805-39.373 0.27366-39.373 0.27366 0.71988 3.2383c0.39593 1.7811 0.75113 3.8008 0.78932 4.4883 0.10153 1.8275 75.385 1.8275 75.442 0zm-55.456-15.499c10.312-0.16253 27.188-0.16253 37.5 0s1.875 0.29551-18.75 0.29551-29.062-0.13298-18.75-0.29551z" fill="#c8cfd9"/>
  <path d="m8.4786 113.98c-1.3918-1.5379-1.5523-2.3027-0.66864-3.1864 0.88362-0.88362 0.80378-1.5593-0.33263-2.8151-1.2942-1.4301-1.4605-8.7022-1.2363-54.064l0.259-52.411h112l0.25846 55.887c0.18703 40.443-0.0541 56.264-0.87245 57.25-0.92866 1.119-10.649 1.3627-54.353 1.3627-52.16 0-53.259-0.04041-55.054-2.0236zm81.021-39.976c-0.39382-0.63722-10.845-0.91782-28.809-0.77348l-28.191 0.22652 28.5 0.54696c15.675 0.30083 28.639 0.64889 28.809 0.77348s0.030902-0.22348-0.30902-0.77348zm12.45-20.25c0.90319-4.0116 1.5411-14.398 1.7811-29l0.37389-22.75-42.302 0.0058312-42.302 0.0058311 0.08311 8.7442c0.29311 30.839 0.49316 35.674 1.4169 34.244 0.70585-1.0922 0.97653-0.27669 0.99569 3 0.01448 2.475 0.30524 6.1875 0.64616 8.25l0.61984 3.75h77.281zm-59.7-3.4988c10.862-0.16144 28.638-0.16144 39.5 0s1.975 0.29353-19.75 0.29353-30.612-0.13209-19.75-0.29353z" fill="#c2cad4"/>
  <path d="m8.4786 113.98c-1.3918-1.5379-1.5523-2.3027-0.66864-3.1864 0.88362-0.88362 0.80378-1.5593-0.33263-2.8151-1.2942-1.4301-1.4605-8.7022-1.2363-54.064l0.259-52.411h112l0.25846 55.887c0.18703 40.443-0.0541 56.264-0.87245 57.25-0.92866 1.119-10.649 1.3627-54.353 1.3627-52.16 0-53.259-0.04041-55.054-2.0236zm81.021-39.976c-0.39382-0.63722-10.845-0.91782-28.809-0.77348l-28.191 0.22652 28.5 0.54696c15.675 0.30083 28.639 0.64889 28.809 0.77348s0.030902-0.22348-0.30902-0.77348zm12-13.765c1.4902-1.0948 1.706-4.3496 2.1544-32.485l0.41039-25.75h-84.565l-0.16783 3.25c-0.45476 8.8064 0.99589 45.665 1.7782 45.182 0.48929-0.3024 0.88962 1.6517 0.88962 4.3425 0 2.6908 0.3 5.1924 0.66667 5.559 0.91418 0.91418 77.585 0.81824 78.833-0.098646zm-59.816-9.9831c10.551-0.16185 28.101-0.16208 39-5.14e-4 10.899 0.16156 2.2662 0.29398-19.184 0.29426-21.45 2.82e-4 -30.367-0.1319-19.816-0.29375z" fill="#c9c9c9"/>
  <path d="m8.7444 113.76c-1.8794-1.4592-2.0069-1.8965-0.78416-2.689 1.2602-0.81665 1.2247-1.2066-0.259-2.846-1.5868-1.7534-1.6993-5.9382-1.4602-54.311l0.259-52.411h112l0.25849 55.955c0.2425 52.495 0.14972 56.019-1.5 56.985-1.1448 0.67053-19.995 1.035-54.014 1.0445-48.171 0.0134-52.431-0.12167-54.5-1.7281zm52.397-39.757c16.749 0 26.972 0.37367 27.359 1 0.33992 0.55 1.0966 1 1.6815 1 0.67059 0 0.60355-0.55411-0.18146-1.5-1.0519-1.2674-5.5505-1.5-29.015-1.5-25.528 0-27.824 0.14134-28.437 1.75-0.53419 1.4031-0.41665 1.5022 0.59301 0.5 0.94438-0.93744 7.9457-1.25 28-1.25zm40.359-13.765c1.4902-1.0948 1.706-4.3496 2.1544-32.485l0.41039-25.75h-84.565l-0.16783 3.25c-0.45476 8.8064 0.99589 45.665 1.7782 45.182 0.48929-0.3024 0.88962 1.6517 0.88962 4.3425 0 2.6908 0.3 5.1924 0.66667 5.559 0.91418 0.91418 77.585 0.81824 78.833-0.098646zm-59.816-9.9831c10.551-0.16185 28.101-0.16208 39-5.14e-4 10.899 0.16156 2.2662 0.29398-19.184 0.29426-21.45 2.82e-4 -30.367-0.1319-19.816-0.29375z" fill="#bcc5d1"/>
  <path d="m8.7444 113.76c-1.8794-1.4592-2.0069-1.8965-0.78416-2.689 1.2602-0.81665 1.2247-1.2066-0.259-2.846-1.5868-1.7534-1.6993-5.9382-1.4602-54.311l0.259-52.411h112l0.25849 55.955c0.2425 52.495 0.14972 56.019-1.5 56.985-1.1448 0.67053-19.995 1.035-54.014 1.0445-48.171 0.0134-52.431-0.12167-54.5-1.7281zm52.397-39.757c16.749 0 26.972 0.37367 27.359 1 0.33992 0.55 1.0966 1 1.6815 1 0.67059 0 0.60355-0.55411-0.18146-1.5-1.0519-1.2674-5.5505-1.5-29.015-1.5-25.528 0-27.824 0.14134-28.437 1.75-0.53419 1.4031-0.41665 1.5022 0.59301 0.5 0.94438-0.93744 7.9457-1.25 28-1.25zm41.55-14.25c0.44496-0.6875 0.95284-13.962 1.1286-29.5l0.3196-28.25h-85.294l0.51821 24.75c0.30212 14.429 0.99659 26.209 1.6654 28.25 0.63097 1.925 1.3185 4.0625 1.5278 4.75 0.55438 1.821 78.956 1.821 80.134 0z" fill="#b9c2cd"/>
  <path d="m8.7444 113.76c-1.8794-1.4592-2.0069-1.8965-0.78416-2.689 1.2602-0.81665 1.2247-1.2066-0.259-2.846-1.5868-1.7534-1.6993-5.9382-1.4602-54.311l0.259-52.411h112l0.25849 55.955c0.2425 52.495 0.14972 56.019-1.5 56.985-1.1448 0.67053-19.995 1.035-54.014 1.0445-48.171 0.0134-52.431-0.12167-54.5-1.7281zm52.397-39.757c16.749 0 26.972 0.37367 27.359 1 0.33992 0.55 1.0966 1 1.6815 1 0.67059 0 0.60355-0.55411-0.18146-1.5-1.0519-1.2674-5.5505-1.5-29.015-1.5-25.528 0-27.824 0.14134-28.437 1.75-0.53419 1.4031-0.41665 1.5022 0.59301 0.5 0.94438-0.93744 7.9457-1.25 28-1.25zm41.659-14.2c0.8768-0.8768 1.2-8.8222 1.2-29.5v-28.3h-85.294l0.52828 28.618c0.41884 22.689 0.8118 28.797 1.8968 29.485 2.2425 1.4206 80.234 1.1318 81.669-0.3024z" fill="#b1b9c6"/>
  <path d="m8.7444 113.76c-1.8794-1.4592-2.0069-1.8965-0.78416-2.689 1.2602-0.81665 1.2247-1.2066-0.259-2.846-1.5868-1.7534-1.6993-5.9382-1.4602-54.311l0.259-52.411h112l0.25849 55.955c0.2425 52.495 0.14972 56.019-1.5 56.985-1.1448 0.67053-19.995 1.035-54.014 1.0445-48.171 0.0134-52.431-0.12167-54.5-1.7281zm52.397-39.757c16.749 0 26.972 0.37367 27.359 1 0.33992 0.55 1.0966 1 1.6815 1 0.67059 0 0.60355-0.55411-0.18146-1.5-1.0519-1.2674-5.5505-1.5-29.015-1.5-25.528 0-27.824 0.14134-28.437 1.75-0.53419 1.4031-0.41665 1.5022 0.59301 0.5 0.94438-0.93744 7.9457-1.25 28-1.25zm42.252-14.582c0.33385-0.86998 0.60699-14.145 0.60699-29.5v-27.918h-85.109l0.16005 28.25c0.09863 17.409 0.55018 28.73 1.1767 29.5 0.78317 0.96294 10.38 1.25 41.787 1.25 36.255 0 40.838-0.17519 41.378-1.5818z" fill="#bababa"/>
  <path d="m9.552 113.69c-1.535-1.3571-1.7186-1.9512-0.72891-2.3577 1.0004-0.41091 0.81531-1.084-0.75901-2.7598-2.0619-2.1948-2.0796-2.7258-1.8231-54.642l0.25901-52.426h112l0.25834 55.621c0.2319 49.93 0.0949 55.756-1.3391 56.946-1.2797 1.0621-11.962 1.3364-53.706 1.3794-48.953 0.0504-52.233-0.0563-54.161-1.7606zm80.365-39.285c-0.98853-1.1911-5.9003-1.3865-29.302-1.1656l-28.115 0.26534-0.31642 2.75c-0.17403 1.5125 0.16347 2.75 0.75 2.75 0.58653 0 1.0664-0.45 1.0664-1s0.70156-1 1.559-1 1.2809 0.45 0.94098 1-0.02898 1.0069 0.69098 1.0153c1.0592 0.01239 1.0543 0.17677-0.02552 0.86126-1.0195 0.64622-0.8556 0.9712 0.69402 1.3764 1.6158 0.42254 2.0908-0.0071 2.3345-2.1113 0.30365-2.6216 0.38964-2.6477 11.306-3.4315 9.073-0.65144 32.435-0.39182 37.25 0.41397 0.79827 0.13358 1.3183 2.2269 1.4391 5.7925l0.18909 5.5833 0.36334-5.8344c0.22139-3.555-0.10064-6.3934-0.82426-7.2653zm-55.156 0.89246c1.2439-0.23919 3.0439-0.23011 4 0.02018 0.95609 0.25029-0.061659 0.446-2.2617 0.4349-2.2-0.0111-2.9823-0.21588-1.7383-0.45508zm4.4883 8.045c-0.6875-0.27741-1.8125-0.27741-2.5 0-0.6875 0.27741-0.125 0.50439 1.25 0.50439s1.9375-0.22697 1.25-0.50439zm25.72-7.0328c0.25859-0.22658-1.4289-0.2999-3.75-0.16295-2.3211 0.13696-4.2202 0.58274-4.2202 0.99063 0 0.72281 7.0343-0.0077 7.9702-0.82768zm19.03 0.69504c-1.375-0.44035-6.1-0.76442-10.5-0.72016l-8 0.08048 7.5 0.63968c4.125 0.35183 8.85 0.6759 10.5 0.72016 2.8911 0.077557 2.9093 0.051422 0.5-0.72016zm19.393-17.582c0.33385-0.86998 0.60699-14.145 0.60699-29.5v-27.918h-85.109l0.16005 28.25c0.09863 17.409 0.55018 28.73 1.1767 29.5 0.78317 0.96294 10.38 1.25 41.787 1.25 36.255 0 40.838-0.17519 41.378-1.5818z" fill="#b3b3b3"/>
  <path d="m12.323 115.19c-2.908-0.41407-5.1585-3.0553-3.4847-4.0898 0.8785-0.54294 0.65573-1.2484-0.8143-2.5788-1.9821-1.7938-2.0233-2.8906-2.0083-53.426 0.008422-28.377 0.37486-52.161 0.8143-52.854 0.62964-0.9918 12.549-1.2038 56.235-1l55.436 0.25855 0.25838 55.71c0.24635 53.117 0.17316 55.756-1.5724 56.69-1.6568 0.88669-99.263 2.0869-104.86 1.2895zm77.582-40.805c-0.92836-1.1186-6.4811-1.3846-28.904-1.3846-30.166 0-30.243 0.01442-29.522 5.5464 0.21152 1.6245 0.41559 3.7676 0.45349 4.7626 0.03789 0.99496 0.52293 1.5284 1.0778 1.1855 1.1791-0.72871 4.9961 0.30687 4.8523 1.3165-0.25395 1.7837 0.22685 3.1891 1.091 3.1891 0.52376 0 1.0863-2.8125 1.25-6.25l0.29772-6.25 8.25-0.29044 8.25-0.29044v3.1571c0 2.786 0.26446 3.0862 2.25 2.5541 1.2375-0.33164 2.925-0.65398 3.75-0.71631 0.825-0.06233 0.375-0.44144-1-0.84245-1.3849-0.40389 3.2007-0.75591 10.28-0.78919 10.797-0.05075 12.601 0.15547 11.628 1.3288-0.90304 1.0881-0.80131 1.3889 0.46978 1.3889 0.89234 0 1.6224-0.45 1.6224-1 0-2.0759 2.0059-0.89963 2.1316 1.25 0.08776 1.5 0.37721 1.0833 0.86836-1.25 0.48412-2.3 0.85795 1.4715 1.0903 11l0.35358 14.5 0.30473-15.365c0.20859-10.518-0.05779-15.802-0.84438-16.75zm-55.654 7.9261c0.9625-0.25153 2.5375-0.25153 3.5 0 0.9625 0.25153 0.175 0.45732-1.75 0.45732s-2.7125-0.2058-1.75-0.45732zm42.25-0.31067c0.36722-0.59417-0.72487-0.97148-2.691-0.92972-2.7572 0.058565-2.9755 0.2136-1.309 0.92972 2.7129 1.1658 3.2795 1.1658 4 0zm27.265-50.75 0.26511-29.25h-85.03v28.3c0 20.82 0.32008 28.62 1.2109 29.511 0.91722 0.91722 11.165 1.1476 42.25 0.95l41.039-0.26092z" fill="#ababac"/>
  <path d="m8.8724 113.34c-1.0746-1.3018-1.1-1.7543-0.11687-2.0852 0.90456-0.30443 0.69488-1.1354-0.75-2.9722-1.9483-2.4769-2.0056-4.0163-2.0056-53.915 0-35.485 0.32741-51.365 1.059-51.365 0.58246 0 0.7809-0.45 0.44098-1-0.39404-0.63757 2.2122-0.95796 7.191-0.884 4.295 0.063801 7.0215 0.3218 6.059 0.57332-1.6149 0.42202-1.7488 2.6325-1.7347 28.634 0.0084 15.497 0.37561 28.744 0.81597 29.438 0.6277 0.98879 9.7511 1.2048 42.235 1l41.434-0.26124 0.26498-29.174c0.24669-27.159 0.14312-29.207-1.5-29.656-0.97074-0.26503 2.285-0.41182 7.235-0.32621l9 0.15566 0.26111 55.5c0.24129 51.288 0.13193 55.595-1.4411 56.75-1.3109 0.96264-13.814 1.25-54.389 1.25-47.906 0-52.811-0.15086-54.059-1.6626zm81.028-38.958c-1.5576-1.8768-55.834-2.0457-57.7-0.17958-0.78914 0.78914-1.165 4.641-1.0979 11.25 0.0861 8.4758 0.2654 9.5409 1.1447 6.8 0.8926-2.7825 1.4893-3.2357 4.1479-3.1503 3.001 0.096329 3.0213 0.12659 0.60534 0.90032-2.3984 0.7681-2.4086 0.80469-0.25 0.90032 1.3584 0.06018 2.3249 0.79317 2.439 1.8497 0.10393 0.9625 0.44143-2.3 0.75-7.25l0.56103-9h16l0.3064 5.9678c0.16852 3.2823 0.61852 5.4761 1 4.8751 0.4723-0.74403 2.5971-0.83167 6.6597-0.27468 3.3019 0.4527 6.4335 0.43011 7.0127-0.05058 0.57559-0.4777 4.6211-0.68813 8.99-0.46763 5.5592 0.28057 8.1772 0.03308 8.722-0.82453 0.42819-0.674 0.88737 5.2996 1.0204 13.275 0.23312 13.975 0.25258 13.817 0.53782-4.3704 0.2055-13.103-0.05397-19.292-0.849-20.25z" fill="#a3a3a3"/>
  <path d="m9.4411 113.44c-1.3834-1.1138-1.5804-1.7129-0.68556-2.0852 0.92115-0.38324 0.72138-1.2015-0.75-3.072-1.9477-2.476-2.0056-4.0168-2.0056-53.356 0-33.336 0.34947-51.022 1.0163-51.434 0.55897-0.34546 0.75741-1.047 0.44098-1.559-0.33185-0.53694 2.0947-0.93117 5.7337-0.93154l6.309-6.4309e-4 -0.2885 27.751c-0.15868 15.263-0.036365 28.768 0.2718 30.012l0.5603 2.261 41.728-0.26095 41.728-0.26095v-59.501l7.309 2.9657e-4c4.618 1.8739e-4 7.0815 0.36848 6.691 1.0003-0.33992 0.55-0.14148 1 0.44098 1 0.73251 0 1.059 16.946 1.059 54.965 0 53.319-0.0579 54.996-1.9343 56-1.262 0.67541-19.963 1.0352-53.809 1.0352-45.543 0-52.112-0.19076-53.816-1.5628zm22.252-4.1682c-0.25354-0.97297-0.47766-0.41903-0.49804 1.231-0.02038 1.65 0.18706 2.4461 0.46099 1.769s0.2906-2.027 0.03705-3zm58.207-34.889c-1.5576-1.8768-55.834-2.0457-57.7-0.17958-0.8485 0.8485-1.1508 5.9013-1.0319 17.25 0.09246 8.8275 0.3176 14.25 0.50032 12.05 0.92962-11.193 1.3591-12.638 3.6519-12.287 1.1988 0.18374 2.0672 0.88589 1.9297 1.5603s0.18588 1.2263 0.71862 1.2263c0.53274 0 0.72706 0.62948 0.43183 1.3988-0.29523 0.76937-0.05611 1.6959 0.53138 2.059 0.71673 0.44296 1.1061-1.7446 1.1835-6.6488 0.063442-4.02 0.2199-7.759 0.34768-8.309 0.12778-0.55 0.30088-2.2564 0.38465-3.7921l0.15231-2.7921 7.75 0.29206 7.75 0.29206 0.28826 8.7039c0.23564 7.1149 0.55284 8.6024 1.7375 8.1478 0.79707-0.30587 2.9174-0.06632 4.7117 0.53233 2.8023 0.93492 3.0157 0.89852 1.5125-0.25806-0.9625-0.74058-1.75-1.5912-1.75-1.8903 0-0.98286 10.357-0.73385 17.847 0.42908 6.1188 0.95009 7.495 0.90629 8.2347-0.26205 0.55424-0.87541 0.97906 2.9206 1.13 10.097 0.16245 7.7238 0.33905 5.3036 0.53782-7.3704 0.2055-13.103-0.05397-19.292-0.849-20.25zm-31.15 16.958c0.6875-0.27741 1.8125-0.27741 2.5 0 0.6875 0.27741 0.125 0.50439-1.25 0.50439s-1.9375-0.22697-1.25-0.50439zm22.145-2.3899c1.3172-0.54485 3.2513-0.71884 4.298-0.38664 1.0467 0.3322 2.5565 0.06173 3.3551-0.60106 1.1559-0.95932 1.452-0.90911 1.452 0.24626 0 1.0839-1.4558 1.4869-5.75 1.5917-4.6591 0.11375-5.2956-0.04756-3.3551-0.85026zm-18.145-0.61015c0.6875-0.27741 1.8125-0.27741 2.5 0 0.6875 0.27741 0.125 0.50439-1.25 0.50439s-1.9375-0.22697-1.25-0.50439zm-11.982 19.948c-1.5026-0.22817-4.2026-0.23276-6-0.0102s-0.56791 0.40925 2.7321 0.41486c3.3 6e-3 4.7706-0.17648 3.2679-0.40466z" fill="#a0a09f"/>
  <path d="m9.4411 113.44c-1.3459-1.0836-1.5656-1.7198-0.71654-2.0749 0.87526-0.36598 0.62772-1.3194-0.86777-3.3421-1.1508-1.5565-1.822-3.2676-1.4915-3.8023 0.33047-0.53471 0.62417-23.977 0.65265-52.095l0.051793-51.123 6.2151-6.4308e-4 6.2151-6.4309e-4 -0.2885 27.751c-0.15868 15.263-0.036365 28.768 0.2718 30.012l0.5603 2.261 41.728-0.26095 41.728-0.26095v-59.501l7.309 2.9657e-4c4.618 1.8739e-4 7.0815 0.36848 6.691 1.0003-0.33992 0.55-0.14148 1 0.44098 1 0.73251 0 1.059 16.946 1.059 54.965 0 53.319-0.0579 54.996-1.9343 56-1.262 0.67541-19.963 1.0352-53.809 1.0352-45.543 0-52.112-0.19076-53.816-1.5628zm22.252-4.1682c-0.25354-0.97297-0.47766-0.41903-0.49804 1.231-0.02038 1.65 0.18706 2.4461 0.46099 1.769s0.2906-2.027 0.03705-3zm58.207-34.889c-1.5576-1.8768-55.834-2.0457-57.7-0.17958-0.8485 0.8485-1.1508 5.9013-1.0319 17.25 0.09246 8.8275 0.35099 14.256 0.57451 12.063 0.53408-5.2399 1.7457-6.565 5.3446-5.8452l2.9128 0.58256 0.10714-5.375c0.05893-2.9562 0.2254-6.725 0.36994-8.375 0.14454-1.65 0.32132-4.2375 0.39286-5.75 0.1296-2.7403 0.15617-2.75 7.5231-2.75 5.819 0 7.5222 0.33678 8 1.5818 0.33384 0.86998 0.61388 5.9325 0.6223 11.25 0.0093 5.8985 0.35566 9.1309 0.8882 8.2901 0.48009-0.75796 1.3929-1.0567 2.0285-0.66391 0.63558 0.39281 1.7101 0.25402 2.3878-0.30842s2.458-0.88806 3.9562-0.7236c1.7788 0.19526 2.724-0.17375 2.724-1.0635 0-1.2546 5.7155-2.13 8.5-1.3019 0.55 0.16356 3.5875 0.2745 6.75 0.24654 5.3981-0.04774 5.75 0.09429 5.75 2.321 0 1.7527-0.58735 2.4074-2.25 2.5081l-2.25 0.13618 2.25 0.43337c2.0574 0.39628 2.2694 1.0479 2.4766 7.6138 0.12461 3.9492 0.35974-1.3112 0.52251-11.69 0.2055-13.103-0.05397-19.292-0.849-20.25zm-56.9 20.62c0-0.55 0.70156-1 1.559-1s1.2809 0.45 0.94098 1-1.0415 1-1.559 1-0.94098-0.45-0.94098-1zm25.812-0.68311c0.72188-0.28887 1.5844-0.25334 1.9167 0.07895 0.33229 0.33229-0.25833 0.56864-1.3125 0.52522-1.1649-0.04798-1.4019-0.28494-0.60417-0.60417zm5.9375-1.9792c0.6875-0.27741 1.8125-0.27741 2.5 0 0.6875 0.27741 0.125 0.50439-1.25 0.50439s-1.9375-0.22697-1.25-0.50439zm-13.022 15.932c-2.0748-0.21647-5.2248-0.21284-7 8e-3 -1.7752 0.22091-0.0777 0.39803 3.7723 0.39359 3.85-4e-3 5.3025-0.18518 3.2277-0.40166zm-12.045-6.4577c-0.31923-0.79773-0.55618-0.56078-0.60417 0.60417-0.04342 1.0542 0.19293 1.6448 0.52522 1.3125 0.33229-0.3323 0.36782-1.1948 0.07895-1.9167zm35.046-6.4167c-0.33229-0.33229-1.1948-0.36782-1.9167-0.07895-0.79773 0.31923-0.56078 0.55618 0.60417 0.60417 1.0542 0.04342 1.6448-0.19293 1.3125-0.52522z" fill="#9b9ea3"/>
  <path d="m9.4411 113.44c-1.3459-1.0836-1.5656-1.7198-0.71654-2.0749 0.87526-0.36598 0.62772-1.3194-0.86777-3.3421-1.1508-1.5565-1.822-3.2676-1.4915-3.8023 0.33047-0.53471 0.62417-23.977 0.65265-52.095l0.051793-51.123h11.9l0.26488 29.75 0.26488 29.75h84l0.26488-29.75 0.26488-29.75h7.0441c4.4414 0 6.8158 0.36948 6.4261 1-0.33992 0.55-0.14148 1 0.44098 1 0.73251 0 1.059 16.946 1.059 54.965 0 53.319-0.0579 54.996-1.9343 56-1.262 0.67541-19.963 1.0352-53.809 1.0352-45.543 0-52.112-0.19076-53.816-1.5628zm23.697-15.103c0.63034-0.75952 2.1786-1.0209 3.9496-0.66669l2.9128 0.58256 0.10714-5.375c0.05893-2.9562 0.2254-6.725 0.36994-8.375 0.14454-1.65 0.32132-4.2375 0.39286-5.75 0.1296-2.7403 0.15617-2.75 7.5231-2.75 5.819 0 7.5222 0.33678 8 1.5818 0.33384 0.86998 0.61388 5.9325 0.6223 11.25 0.0093 5.8985 0.35566 9.1309 0.8882 8.2901 0.48009-0.75796 1.3929-1.0567 2.0285-0.66391 0.63558 0.39281 1.7101 0.25402 2.3878-0.30842s2.458-0.88806 3.9562-0.7236c1.7788 0.19526 2.724-0.17375 2.724-1.0635 0-1.2546 5.7155-2.13 8.5-1.3019 0.55 0.16356 3.5875 0.2745 6.75 0.24654 5.3981-0.04774 5.75 0.09429 5.75 2.321 0 1.7527-0.58735 2.4074-2.25 2.5081l-2.25 0.13618 2.2075 0.4278c1.9914 0.38593 2.2411 1.1311 2.5513 7.6138 0.1891 3.9523 0.43324-1.3865 0.54252-11.864 0.14306-13.716-0.13733-19.386-1.0013-20.25-1.7113-1.7113-55.889-1.7113-57.6 0-0.86377 0.86377-1.1451 6.5377-1.0041 20.25 0.10772 10.478 0.35542 15.919 0.55044 12.092s0.82113-7.5205 1.3914-8.2076zm-0.13766-3.3341c0-0.55 0.70156-1 1.559-1s1.2809 0.45 0.94098 1-1.0415 1-1.559 1-0.94098-0.45-0.94098-1zm25.812-0.68311c0.72188-0.28887 1.5844-0.25334 1.9167 0.07895 0.33229 0.33229-0.25833 0.56864-1.3125 0.52522-1.1649-0.04798-1.4019-0.28494-0.60417-0.60417zm5.9375-1.9792c0.6875-0.27741 1.8125-0.27741 2.5 0 0.6875 0.27741 0.125 0.50439-1.25 0.50439s-1.9375-0.22697-1.25-0.50439zm-13.022 15.932c-2.0748-0.21647-5.2248-0.21284-7 8e-3 -1.7752 0.22091-0.0777 0.39803 3.7723 0.39359 3.85-4e-3 5.3025-0.18518 3.2277-0.40166zm-12.045-6.4577c-0.31923-0.79773-0.55618-0.56078-0.60417 0.60417-0.04342 1.0542 0.19293 1.6448 0.52522 1.3125 0.33229-0.3323 0.36782-1.1948 0.07895-1.9167zm35.046-6.4167c-0.33229-0.33229-1.1948-0.36782-1.9167-0.07895-0.79773 0.31923-0.56078 0.55618 0.60417 0.60417 1.0542 0.04342 1.6448-0.19293 1.3125-0.52522z" fill="#9c9c9c"/>
  <path d="m10.036 113.54c-0.66469-0.8009-0.94975-1.8749-0.63346-2.3867 0.31629-0.51177-0.10216-1.4926-0.9299-2.1795-1.3067-1.0845-1.4985-8.2789-1.4556-54.613l0.049412-53.364h11.903l0.26488 29.75 0.26488 29.75h84l0.26488-29.75 0.26488-29.75h7.0441c4.4414 0 6.8158 0.36948 6.4261 1-0.33992 0.55-0.14148 1 0.44098 1 0.73251 0 1.059 16.946 1.059 54.965 0 53.319-0.0579 54.996-1.9343 56-1.2621 0.67546-19.984 1.0352-53.878 1.0352-44.257 0-52.122-0.21547-53.152-1.4562zm22.529-8.2938c0.62056-3.837 3.4938-4.4319 5.7623-1.1931 1.2927 1.8456 1.5156 0.51028 2.1699-13l0.7292-15.057h14.774l0.125 3c0.06875 1.65 0.2375 3.45 0.375 4s0.30625 5.05 0.375 10c0.10958 7.8898 0.34087 8.9903 1.875 8.921 1.0454-0.0472 1.2467-0.28201 0.5-0.58333-0.6875-0.27741-1.25-1.3669-1.25-2.4211 0-2.2986 1.5183-2.4163 5.3552-0.41525 2.5434 1.3265 2.7915 1.3233 2.2725-0.0293-0.47049-1.2261-0.21267-1.3204 1.3391-0.48988 1.057 0.56568 2.1984 1.4761 2.5365 2.0231 0.88566 1.433 2.1949 1.2234 2.8388-0.45445 0.37166-0.96852 0.07551-1.2647-0.89301-0.89301-0.79699 0.30583-1.4491 0.009133-1.4491-0.65934 0-0.8288 0.87473-0.99289 2.75-0.51588 1.5125 0.38473 5 0.89661 7.75 1.1375 6.5574 0.57441 7.5835 0.99851 6.8762 2.842-0.37507 0.97742-0.02355 1.5378 0.9646 1.5378 1.1622 0 1.6474 1.3254 1.922 5.25 0.202 2.8875 0.45052-3.3225 0.55226-13.8 0.13303-13.7-0.15204-19.387-1.015-20.25-1.7113-1.7113-55.889-1.7113-57.6 0-0.8594 0.8594-1.1613 6.607-1.0638 20.25 0.0749 10.478 0.30876 17.925 0.51969 16.55 0.21093-1.375 0.62004-3.9625 0.90913-5.75zm23.435 3c0-0.4125-3.557-0.75-7.9045-0.75-4.3475 0-7.6959 0.3375-7.441 0.75 0.25494 0.4125 3.812 0.75 7.9045 0.75s7.441-0.3375 7.441-0.75z" fill="#939393"/>
  <path d="m9.8487 113.32c-0.5615-0.67656-0.76212-1.6488-0.44583-2.1606 0.31629-0.51177-0.094966-1.4866-0.91391-2.1662-1.284-1.0656-1.489-8.4476-1.489-53.613 0-36.198 0.32714-52.378 1.059-52.378 0.58246 0 0.7809-0.45 0.44098-1-0.38364-0.62074 1.4847-1 4.9261-1h5.5441l0.26488 29.75 0.26488 29.75h84l0.26488-29.75 0.26488-29.75h7.0441c4.4414 0 6.8158 0.36948 6.4261 1-0.33992 0.55-0.14148 1 0.44098 1 1.6559 0 1.4668 109.63-0.19098 110.67-0.6875 0.43183-25.017 0.80665-54.065 0.83294-40.625 0.0368-53.051-0.23612-53.836-1.1823zm22.616-1.3746c-0.35924-0.58125-0.37722-2.1562-0.03997-3.5 0.71313-2.8413 4.0614-3.2989 7.134-0.97496 2.0631 1.5604 15.915 2.1927 16.796 0.76672 0.26007-0.4208-2.7509-0.62748-6.691-0.45931-3.9401 0.16818-7.7123-0.0679-8.3827-0.52471-0.91591-0.62405-1.0637-4.6114-0.59453-16.041l0.62437-15.21h14.447l0.72486 14.5c0.62536 12.51 0.95078 14.498 2.3709 14.485 1.4375-0.0134 1.456-0.15105 0.14604-1.0868-1.1763-0.84019-0.96043-0.94774 1-0.49834 1.375 0.3152 3.0625 0.57924 3.75 0.58675 2.1538 0.0235 1.3611 1.8532-1 2.3079-1.3433 0.25872-0.68941 0.48825 1.6224 0.56955 3.3716 0.11857 3.708-0.062 2.6011-1.3957-1.119-1.3483-0.92398-1.4075 1.6276-0.49417 2.5337 0.90695 2.6784 0.86557 1.1489-0.32839-0.9625-0.75134-1.75-1.671-1.75-2.0437 0-0.96433 5.3704-0.28045 6.1418 0.78212 0.35302 0.48621 3.278 0.87569 6.5 0.86551 3.222-0.01019 4.9582 0.19818 3.8582 0.46304-4.2247 1.0172-3.8156 2.2874 0.73664 2.2874 4.4817 0 4.6501 0.10862 5.04 3.25 0.22183 1.7875 0.47534-5.3225 0.56336-15.8 0.11485-13.671-0.17881-19.389-1.04-20.25-1.7113-1.7113-55.889-1.7113-57.6 0-1.5854 1.5854-1.7206 38.8-0.14098 38.8 0.58246 0 0.7651-0.47558 0.40586-1.0568zm44.785-5.6054c-0.6875-0.27741-1.8125-0.27741-2.5 0s-0.125 0.50439 1.25 0.50439 1.9375-0.22698 1.25-0.50439z" fill="#8b8b8b"/>
  <path d="m10.216 113.42c-0.83673-0.61183-1.2325-1.5797-0.87957-2.1508 0.35297-0.57112-0.028281-1.5945-0.84722-2.2742-1.284-1.0656-1.489-8.4476-1.489-53.613 0-36.198 0.32714-52.378 1.059-52.378 0.58246 0 0.7809-0.45 0.44098-1-0.38364-0.62074 1.4847-1 4.9261-1h5.5441l0.26488 29.75 0.26488 29.75h84l0.26488-29.75 0.26488-29.75h6.0566c3.9157 0 6.5615 0.50497 7.4851 1.4286 1.2032 1.2032 1.4286 10.03 1.4286 55.941 0 34.195-0.36208 54.736-0.97144 55.113-1.9083 1.1794-106.2 1.115-107.81-0.0665zm29.284-1.4158c-1.1-0.47269-1.55-0.92761-1-1.0109 0.55-0.0833-0.35-0.81088-2-1.6168l-3-1.4653 3.375 0.54648c1.8562 0.30056 6.8062 0.57811 11 0.61677 5.1889 0.0478 6.986 0.34486 5.625 0.92971-1.6044 0.68942-1.2582 0.87333 1.75 0.92971 2.0625 0.0387 3.75-0.37944 3.75-0.92911s1.4625-0.97508 3.25-0.94535c1.7875 0.0297 5.95-0.16027 9.25-0.4222 5.1108-0.40567 5.3331-0.36193 1.5 0.29515-2.475 0.42428-3.6 0.89091-2.5 1.037 1.1 0.14604 2.45 0.37009 3 0.49788 0.55 0.12778 1.9 0.30776 3 0.39996 1.6701 0.13998 1.7526 0.32752 0.5 1.137-1.0399 0.67206 0.877 0.97407 6.25 0.98469l7.75 0.01531v-18.8c0-13.289-0.35177-19.152-1.2-20-1.7113-1.7113-55.889-1.7113-57.6 0-0.84823 0.84823-1.2 6.7111-1.2 20v18.8l5.25-0.0703c3.8557-0.0516 4.7188-0.29852 3.25-0.9297zm39.5-1c0-1.276 5.0255-1.276 7 0 1.0985 0.70991 0.36246 0.97347-2.75 0.98469-2.3375 0.00842-4.25-0.43469-4.25-0.98469zm-0.25-2.6623c0.6875-0.27741 1.8125-0.27741 2.5 0s0.125 0.50439-1.25 0.50439-1.9375-0.22698-1.25-0.50439zm-37.693-1.7694c-0.56832-0.68479-0.85107-3.0053-0.62834-5.1567 0.22274-2.1514 0.44247-8.7491 0.48829-14.662l0.083317-10.75h15l0.01366 6.75c0.0075 3.7125 0.28976 10.401 0.62722 14.862 0.47489 6.2789 0.30578 8.3026-0.74824 8.954-2.2591 1.3962-13.678 1.3978-14.836 2e-3zm27.193 5.7694c-0.6875-0.27741-1.8125-0.27741-2.5 0s-0.125 0.50439 1.25 0.50439 1.9375-0.22698 1.25-0.50439zm-22-2c-0.6875-0.27741-1.8125-0.27741-2.5 0s-0.125 0.50439 1.25 0.50439 1.9375-0.22698 1.25-0.50439z" fill="#858585"/>
  <path d="m9.5053 113.01c-0.34284-0.55472-0.37673-1.4076-0.075331-1.8953 0.3014-0.48768-0.12204-1.4428-0.94098-2.1224-2.1908-1.8182-2.2489-104.37-0.060418-106.56 0.82007-0.82007 3.3694-1.4286 5.9851-1.4286h4.5565l0.26488 29.75 0.26488 29.75h84l0.26488-29.75 0.26488-29.75h6.0566c3.9325 0 6.5606 0.504 7.4937 1.4371 1.221 1.221 1.3982 9.6813 1.1786 56.25l-0.25857 54.813-54.186 0.25858c-35.631 0.17004-54.399-0.0868-54.809-0.75zm81.495-18.809c0-13.289-0.35177-19.152-1.2-20-1.7113-1.7113-55.889-1.7113-57.6 0-0.84823 0.84823-1.2 6.7111-1.2 20v18.8h60zm-50-2.6579v-15.542h15l0.125 13.5c0.06875 7.425 0.18125 14.288 0.25 15.25 0.10743 1.504-0.96447 1.7911-7.625 2.0421l-7.75 0.29207z" fill="#767a83"/>
  <path d="m9.8816 113.26c-0.065131-0.41723-0.056904-1.1208 0.018284-1.5635s-0.54652-1.7803-1.3816-2.9725c-2.2127-3.1591-2.2979-104.09-0.089712-106.29 0.82007-0.82007 3.3694-1.4286 5.9851-1.4286h4.5565l0.26488 29.75 0.26488 29.75h84l0.5-29.066 0.5-29.066 6-0.20347c3.3-0.11191 6.5664 0.17188 7.2586 0.63064 0.99138 0.65701 1.2037 12.498 1 55.77l-0.25863 54.936-54.25 0.25861c-29.838 0.14224-54.303-0.0828-54.368-0.5zm81.118-19.059c0-13.289-0.35177-19.152-1.2-20-1.7113-1.7113-55.889-1.7113-57.6 0-0.84823 0.84823-1.2 6.7111-1.2 20v18.8h60zm-50-2.7v-15.5h15v31h-15zm-26.638-81c0.39152-1.0203-0.053973-1.5-1.393-1.5-1.965 0-2.5632 1.0721-1.3019 2.3333 1.08 1.08 2.0793 0.77096 2.695-0.83333z" fill="#646872"/>
  <path d="m9.0934 109.69c-2.0402-4.2145-2.0934-5.6134-2.0934-55.08 0-42.655 0.228-50.984 1.4286-52.184 0.82007-0.82007 3.3694-1.4286 5.9851-1.4286h4.5565l0.26488 29.75 0.26488 29.75h84l0.26416-29 0.26416-29 6.7358 0.19897c3.7047 0.10943 7.0772 0.22193 7.4943 0.25 0.41715 0.028067 0.64215 24.914 0.5 55.301l-0.25847 55.25-53.657 0.25864-53.657 0.25864zm81.907-15.493c0-13.289-0.35177-19.152-1.2-20-1.7113-1.7113-55.889-1.7113-57.6 0-0.84823 0.84823-1.2 6.7111-1.2 20v18.8h60zm-50-2.7v-15.5h15v31h-15zm-26-81.059c0-0.79254-0.9-1.441-2-1.441-2.1827 0-2.7673 2.5581-0.75 3.2817 1.6917 0.60684 2.75-0.10152 2.75-1.8407zm1.25-8.1467c-1.2375-0.23835-3.2625-0.23835-4.5 0s-0.225 0.43337 2.25 0.43337 3.4875-0.19502 2.25-0.43337z" fill="#63656a"/>
  <path d="m9.0892 109.68c-2.0348-4.2034-2.0892-5.6371-2.0892-55.071 0-56.983-0.40767-53.974 7.2367-53.421l4.2633 0.30815 0.5 29.5 0.5 29.5h84l0.26326-29 0.26325-29 7.2368 0.5 7.2367 0.5 0.2587 54.436c0.20381 42.886-8e-3 54.605-1 55.235-0.69228 0.4395-24.956 0.80598-53.919 0.8144l-52.661 0.01531zm81.911-15.484c0-13.289-0.35177-19.152-1.2-20-1.8004-1.8004-56.137-1.7043-57.636 0.10188-0.84714 1.0207-1.6245 25.142-1.2068 37.448 0.032964 0.97128 6.7317 1.25 30.042 1.25h30zm-49.776-2.45 0.27605-15.25 7.25-0.29381 7.25-0.29381v31.088h-15.052zm-26.547-80.351c0.70746-1.8436-1.711-3.7652-3.0515-2.4247-1.0915 1.0915-0.089733 4.0256 1.3744 4.0256 0.58452 0 1.3392-0.72042 1.6771-1.6009zm1.5729-9.1048c-1.2375-0.23835-3.2625-0.23835-4.5 0s-0.225 0.43337 2.25 0.43337 3.4875-0.19502 2.25-0.43337z" fill="#5d616a"/>
  <path d="m9.08 109.67c-2.0582-4.2517-2.0935-5.3112-1.8392-55.25l0.25926-50.915 5.7353-0.51072 5.7353-0.51072 0.26472 29.011 0.26472 29.011h84l0.52277-29.5c0.28752-16.225 0.70613-27.025 0.93024-24l0.40749 5.5 0.37454-4.75 0.37454-4.75h4.8634c8.8216 0 8.027-5.4939 8.027 55.5 0 48.579-0.16628 54.35-1.5818 54.893-0.86998 0.33385-25.13 0.60699-53.911 0.60699h-52.329zm81.92-15.465c0-13.289-0.35177-19.152-1.2-20-1.8004-1.8004-56.137-1.7043-57.636 0.10188-0.84714 1.0207-1.6245 25.142-1.2068 37.448 0.032964 0.97128 6.7317 1.25 30.042 1.25h30zm-49.776-2.45 0.27605-15.25 7.25-0.29381 7.25-0.29381v31.088h-15.052zm-26.404-81c-0.17575-1.2375-0.99455-2.25-1.8196-2.25s-1.6438 1.0125-1.8196 2.25c-0.24594 1.7317 0.17321 2.25 1.8196 2.25s2.0655-0.5183 1.8196-2.25z" fill="#5d5d5d"/>
  <path d="m11.5 113.23c-0.55-0.40408-1.1479-1.4097-1.3288-2.2347s-0.97244-2.215-1.7592-3.0889c-1.2087-1.3426-1.3902-9.5586-1.1712-53l0.25917-51.411 5.7353-0.51072 5.7353-0.51072 0.26472 29.011 0.26472 29.011h84l0.52277-29.5c0.28752-16.225 0.70613-27.025 0.93024-24l0.40749 5.5 0.37454-4.75 0.37454-4.75h4.8634c8.8216 0 8.027-5.4939 8.027 55.5 0 48.579-0.16628 54.35-1.5818 54.893-0.86998 0.33385-7.2825 0.60753-14.25 0.60818l-12.668 0.00119 0.29559-18.251c0.16257-10.038 0.041501-19.264-0.26905-20.501l-0.56464-2.25h-28.359c-21.983 0-28.6 0.29094-29.433 1.2942-0.6699 0.80718-1.1349 8.5214-1.2357 20.5l-0.16159 19.206-9.1368-0.01531c-5.0252-0.00842-9.5868-0.34592-10.137-0.75zm3.3196-102.48c-0.17575-1.2375-0.99455-2.25-1.8196-2.25s-1.6438 1.0125-1.8196 2.25c-0.24594 1.7317 0.17321 2.25 1.8196 2.25s2.0655-0.5183 1.8196-2.25zm26.404 81l0.27605-15.25h14l0.27605 15.25 0.27605 15.25h-15.104z" fill="#545862"/>
  <path d="m11.5 113.23c-0.55-0.40408-1.1479-1.4097-1.3288-2.2347s-0.97244-2.215-1.7592-3.0889c-1.2087-1.3426-1.3902-9.5586-1.1712-53l0.25917-51.411 4.8159-0.14286c3.7414-0.11099 4.6967 0.16766 4.2818 1.2489-0.29374 0.76546-0.1269 2.4047 0.37074 3.6429 0.79078 1.9674 0.94138 1.747 1.1951-1.7489 0.15965-2.2 0.52567 9.05 0.81339 25l0.52312 29h84l0.52277-29.5c0.29464-16.627 0.70739-25.136 0.94586-19.5 0.40322 9.5303 0.4404 9.6712 0.79158 3 0.34771-6.6051 0.44748-6.859 1.7687-4.5 0.77011 1.375 1.4162 1.916 1.4356 1.2023 0.0195-0.71376 1.2466-2.4202 2.7268-3.7921 1.5485-1.4351 1.9683-2.2168 0.98866-1.8409-1.2794 0.49096-1.549 0.25281-1.0844-0.95793 0.34008-0.88624 1.6952-1.6113 3.0113-1.6113 2.2706 0 2.4018 0.34523 2.5656 6.75l0.1726 6.75 0.6548-6.5c0.36014-3.575 0.73247 18.089 0.8274 48.143 0.1548 49.006 9e-3 54.706-1.4092 55.25-0.86998 0.33385-7.2825 0.60724-14.25 0.60754l-12.668 5.4e-4v-40.501l-28.615-0.26511c-22.618-0.20955-28.843 0.0093-29.702 1.0442-0.68566 0.82617-1.1463 8.3963-1.2482 20.515l-0.16159 19.206-9.1368-0.01531c-5.0252-0.00842-9.5868-0.34592-10.137-0.75zm53.75-49.958c-1.7875-0.22183-4.7125-0.22183-6.5 0-1.7875 0.22183-0.325 0.40332 3.25 0.40332s5.0375-0.1815 3.25-0.40332zm-50.25-52.777c0-1.8333-0.53333-2.5-2-2.5s-2 0.66667-2 2.5c0 1.8333 0.53333 2.5 2 2.5s2-0.66667 2-2.5zm26.224 81.25 0.27605-15.25h14l0.27605 15.25 0.27605 15.25h-15.104z" fill="#50545e"/>
  <path d="m11.446 113.18c-0.52048-0.3742-1.0943-1.3554-1.2751-2.1804s-0.97614-2.2191-1.7674-3.098c-1.2123-1.3465-1.4303-9.405-1.3855-51.213 0.03799-35.456 0.37241-49.812 1.1719-50.307 0.72749-0.44961 0.8358-0.23362 0.30971 0.6176-0.54515 0.88207-0.4192 1.0681 0.38617 0.57035 0.69049-0.42675 0.9188-1.6095 0.54065-2.8009-0.56566-1.7822-0.33358-1.9763 1.7093-1.4295 1.3001 0.34801 2.8905 0.6389 3.5343 0.64641 0.69375 0.00809 1.5083 2.7626 2 6.7637l0.82959 6.75 0.56984-7.5c0.31341-4.125 0.65091 5.4109 0.75 21.191 0.1362 21.691 0.48512 28.888 1.4302 29.5 1.4129 0.91446 79.956 1.5508 82.261 0.66648 1.2659-0.48578 1.5201-5.0146 1.696-30.214 0.164-23.505 0.32824-26.744 0.79317-15.643 0.37231 8.8896 0.66184 11.341 0.79317 6.7148 0.19981-7.0381 0.27723-7.2475 2.2825-6.1743 1.9229 1.0291 1.9892 0.94924 0.90024-1.0855-0.64925-1.2131-0.72354-1.9171-0.16594-1.5724 1.6125 0.99656 4.1162-0.41123 3.5155-1.9767-0.39729-1.0353-0.0595-1.241 1.2272-0.7473 1.0984 0.42148 1.5344 0.29131 1.1434-0.34134-0.34761-0.56244 0.0143-1.8764 0.80415-2.9199 1.2886-1.7024 1.4591-1.024 1.6594 6.6027l0.22322 8.5 0.61717-9.5c0.33944-5.225 0.70331 15.089 0.80858 45.143 0.17171 49.018 0.0286 54.705-1.3904 55.25-0.86998 0.33385-7.2825 0.60724-14.25 0.60754l-12.668 5.4e-4v-40.501l-28.615-0.26511c-22.618-0.20955-28.843 0.0093-29.702 1.0442-0.68557 0.82606-1.1462 8.3906-1.2481 20.495l-0.16143 19.186-9.1906-0.0498c-5.0548-0.0274-9.6164-0.35597-10.137-0.73017zm60.47-49.806c0.22917-0.20614-4.0458-0.31094-9.5-0.2329-7.508 0.10744-8.9451 0.32053-5.9167 0.87731 3.6825 0.67704 14.448 0.22705 15.417-0.64441zm-56.917-52.768c0-2.296-2.1571-4.1166-3.4022-2.8714-0.32877 0.32877-0.59777 1.6478-0.59777 2.9311 0 1.6667 0.57143 2.3333 2 2.3333 1.4428 0 2-0.66667 2-2.393zm26.224 81.143 0.27605-15.25h14l0.27605 15.25 0.27605 15.25h-15.104z" fill="#4d515b"/>
  <path d="m12 113.14c-0.825-0.34931-1.6479-1.3101-1.8288-2.1351s-0.98875-2.233-1.7954-3.1289c-2.3164-2.5727-1.8961-91.129 0.46828-98.652 1.4667-4.6671 1.9415-5.2377 4.1559-4.994 2.2266 0.245 2.5333 0.79457 2.8048 5.0251 0.29258 4.5598 0.19756 4.75-2.3724 4.75-2.2405 0-2.4785 0.2395-1.4589 1.468 0.6701 0.80742 1.5127 1.4291 1.8724 1.3816 1.9899-0.263 3.2226 0.29762 3.0794 1.4004-0.08928 0.6875-0.02185 1.925 0.14983 2.75 0.17168 0.825 0.58785-3 0.92482-8.5 0.40862-6.6694 0.67717-0.43637 0.80633 18.715 0.18385 27.259 0.2917 28.767 2.1279 29.75 2.0838 1.1152 78.645 1.5175 81.484 0.4282 1.3864-0.532 1.6081-4.2692 1.795-30.25 0.19175-26.657 0.27101-27.931 0.78677-12.643 0.31544 9.35 0.66949 13.993 0.78677 10.317 0.18874-5.9151 0.46629-6.7629 2.4166-7.3819 2.6676-0.84666 4.9336-2.9651 4.0824-3.8164-0.34047-0.34048 0.15751-0.61905 1.1066-0.61905s1.4476-0.45 1.1076-1 0.0835-1 0.94098-1c1.238 0 1.6008 1.3898 1.7617 6.75 0.13513 4.5 0.4009 2.5833 0.7973-5.75 0.32703-6.875 0.68582 12.089 0.7973 42.143 0.18186 49.024 0.04 54.705-1.3791 55.25-0.86998 0.33385-7.2825 0.60724-14.25 0.60754l-12.668 5.4e-4v-40.501l-29.227-0.26507-29.227-0.26507-0.50793 2.2651c-0.27936 1.2458-0.62714 10.262-0.77283 20.036l-0.26491 17.771-8.5 0.36442c-4.675 0.20042-9.175 0.0786-10-0.2707zm60.654-49.385c0.25519-0.4125-4.8501-0.69676-11.345-0.63168-7.9153 0.0793-10.82 0.38143-8.809 0.91629 3.6734 0.9771 19.512 0.75344 20.154-0.2846zm-57.838-53.5c-0.18837-1.6371-0.92343-2.75-1.8164-2.75s-1.628 1.1129-1.8164 2.75c-0.25766 2.2393 0.079641 2.75 1.8164 2.75s2.0741-0.51067 1.8164-2.75zm26.408 81.638 0.27605-15.112h14l0.27605 15.112 0.27605 15.112h-15.104z" fill="#4a4e58"/>
  <path d="m12 113.23c-0.825-0.40278-1.6479-1.4073-1.8288-2.2323s-0.97696-2.22-1.7692-3.1c-1.21-1.344-1.431-8.6643-1.3815-45.75 0.032417-24.283 0.44893-44.15 0.92558-44.15 0.47665 0 0.64959-1.0125 0.38429-2.25l-0.48235-2.25 2.0258 2.2989c1.1142 1.2644 1.7753 2.9519 1.469 3.75-0.41401 1.0789 0.30427 1.4809 2.8001 1.5671 1.8463 0.0638 2.5695 0.3218 1.607 0.57332-0.9625 0.25153-1.75 0.8602-1.75 1.3526s0.675 0.63627 1.5 0.31969c0.98656-0.37858 1.5341 0.06003 1.5997 1.2814 0.073828 1.3754 0.30733 1.2086 0.90032-0.64301 0.46665-1.4571 0.84222 5.4467 0.90032 16.55 0.06993 13.365 0.45779 19.408 1.2997 20.25 0.89305 0.89305 11.36 1.2 40.918 1.2 21.845 0 40.43-0.27314 41.3-0.60699 1.3863-0.53197 1.6085-4.2707 1.7976-30.25 0.20538-28.215 0.24315-28.752 0.78424-11.143 0.31266 10.175 0.66556 15.771 0.78424 12.437 0.21045-5.9142 0.30074-6.0967 3.6704-7.4189 1.9001-0.74553 3.2235-1.7295 2.941-2.1866-0.28252-0.45713 0.38159-0.83114 1.4758-0.83114 1.2681 0 2.1466-0.81586 2.4228-2.25 0.23835-1.2375 0.58772 0.9 0.77638 4.75 0.25376 5.1787 0.49557 3.3574 0.92935-7 0.32249-7.7 0.67941 10.589 0.79317 40.643 0.18557 49.027 0.0442 54.705-1.375 55.25-0.86998 0.33385-7.1607 0.60699-13.979 0.60699h-12.398l-0.27071-20.25-0.2707-20.25-29.137-0.26492c-24.795-0.22545-29.221-0.04732-29.698 1.1954-0.30821 0.80318-0.63757 9.8099-0.73192 20.015l-0.17154 18.555h-4.2412c-2.3327 0-6.2165 0.21705-8.6308 0.48233-2.4143 0.26527-5.0646 0.15277-5.8896-0.25zm62.5-49.232c0.39949-0.64639-3.8229-1-11.941-1-7.706 0-12.559 0.38642-12.559 1 0 0.61084 4.647 1 11.941 1 6.882 0 12.203-0.42367 12.559-1zm-33.5 28v-15h15v30h-15zm-22.64-80c0-5.225 0.16854-7.3625 0.37454-4.75 0.206 2.6125 0.206 6.8875 0 9.5-0.206 2.6125-0.37454 0.475-0.37454-4.75zm-8.3605-3c0-5.1167 0.70513-5.8179 4.4182-4.393 1.1102 0.42603 1.5818 1.9166 1.5818 5 0 4.2145-0.12194 4.393-3 4.393-2.9333 0-3-0.11111-3-5zm4.8164 1.25c-0.18837-1.6371-0.92343-2.75-1.8164-2.75s-1.628 1.1129-1.8164 2.75c-0.25766 2.2393 0.079641 2.75 1.8164 2.75s2.0741-0.51067 1.8164-2.75z" fill="#484c55"/>
  <path d="m12 113.23c-0.825-0.40278-1.6479-1.4073-1.8288-2.2323s-0.96832-2.2104-1.75-3.0787c-1.1794-1.3101-1.4044-8.0316-1.3223-39.5 0.10554-40.469 0.55995-48.485 2.7903-49.222 0.84248-0.27829 1.1144-0.014278 0.69098 0.67085-0.40488 0.65512-0.043249 1.1297 0.8608 1.1297 0.87655 0 1.559 0.84968 1.559 1.941 0 1.0675 0.45 2.2191 1 2.559s1.0069 0.02898 1.0153-0.69098c0.02782-2.3785 1.9456 1.506 2.0691 4.191l0.11499 2.5 0.80064-2.5c0.47384-1.4796 0.84133 4.4973 0.90032 14.643 0.08518 14.649 0.32977 17.231 1.6815 17.75 2.0656 0.79264 79.771 0.79264 81.836 0 1.3852-0.53157 1.6089-4.228 1.7998-29.75l0.21797-29.143 0.56406 20c0.31023 11 0.69378 16.85 0.85232 13 0.20513-4.9816 0.53607-6.4233 1.1477-5 0.79609 1.8526 1.021 1.5692 1.3884-1.75 0.0761-0.6875 1.4062-1.2294 2.9558-1.2043 2.3724 0.03848 2.5678-0.1369 1.2366-1.1102-2.3339-1.7066-1.9205-2.6876 0.57079-1.3543 1.8489 0.98948 2.0616 0.91677 1.5114-0.51675-0.35209-0.91755-0.22938-1.4144 0.27269-1.1041 0.50208 0.3103 1.1197-0.22883 1.3726-1.1981 0.25282-0.96923 0.59691 1.8378 0.76465 6.2378l0.30497 8 0.62206-9c0.34213-4.95 0.7071 12.214 0.81103 38.143 0.16906 42.177 0.0224 47.207-1.3928 47.75-0.86998 0.33385-7.1607 0.60699-13.979 0.60699h-12.398l-0.27071-20.25-0.2707-20.25-28.931-0.26563c-22.48-0.2064-29.11 0.01661-29.735 1-0.44185 0.6961-0.81026 9.0016-0.81868 18.457-0.01022 11.472-0.3835 17.419-1.1221 17.875-0.77153 0.47683-0.69581 0.94441 0.25 1.5437 0.87174 0.55236-0.29141 0.86516-3.2537 0.875-2.5357 8e-3 -6.5857 0.23236-9 0.49764-2.4143 0.26527-5.0646 0.15277-5.8896-0.25zm66.446-49.319c-0.80739-1.3064-31.446-1.1873-31.446 0.12219 0 0.67589 5.5578 0.99302 16.005 0.91326 9.3694-0.07153 15.771-0.50084 15.441-1.0354zm-37.446 28.087v-15h15v30h-15zm-31-82.441c0-4.9253 0.62934-5.7302 3.8265-4.8941 1.8144 0.47447 2.1735 1.2927 2.1735 4.9518 0 4.2037-0.12294 4.3834-3 4.3834-2.883 0-3-0.17322-3-4.441zm4.8164 0.69098c-0.18837-1.6371-0.92343-2.75-1.8164-2.75s-1.628 1.1129-1.8164 2.75c-0.25766 2.2393 0.079641 2.75 1.8164 2.75s2.0741-0.51067 1.8164-2.75zm3.4832-2.25c0-3.025 0.18747-4.2625 0.41659-2.75 0.22912 1.5125 0.22912 3.9875 0 5.5-0.22912 1.5125-0.41659 0.275-0.41659-2.75z" fill="#454953"/>
  <path d="m12 113.23c-0.825-0.40278-1.6479-1.4073-1.8288-2.2323s-1.002-2.2477-1.8249-3.1615c-2.4278-2.6961-1.2878-82.23 1.2144-84.733 0.24156-0.24156 0.43919 0.78736 0.43919 2.2865 0 1.5625 0.42676 2.4619 1 2.1076 0.55-0.33992 1-0.09333 1 0.54797 0 0.67026 0.69788 0.8982 1.6414 0.53612 1.3957-0.53558 1.4452-0.39342 0.33073 0.94944-0.72089 0.86862-0.89704 1.5006-0.39144 1.4045 2.6136-0.4971 3.6197 0.18747 3.1146 2.1191-0.44141 1.688-0.28288 1.8455 0.88337 0.87756 1.2169-1.01 1.4213 0.83586 1.4213 12.836 0 11.858 0.24352 14.109 1.5818 14.622 2.0656 0.79264 79.771 0.79264 81.836 0 1.3852-0.53154 1.6092-4.2295 1.8023-29.75l0.2205-29.143 0.559 22c0.30745 12.1 0.65823 19.188 0.7795 15.75 0.12678-3.5934 0.67064-6.25 1.2795-6.25 0.58246 0 0.76841 0.5625 0.41322 1.25s0.33231 0.125 1.5278-1.25 1.883-1.9375 1.5278-1.25-0.16924 1.25 0.41322 1.25 1.059-0.675 1.059-1.5c0-1.3736 1.2211-1.959 3.3243-1.5936 0.45338 0.07876 0.55854-0.28686 0.23369-0.81248-0.32486-0.52562-0.1333-1.2383 0.42567-1.5838 0.63709-0.39374 1.0822 1.5394 1.1929 5.1809l0.17658 5.809 0.64683-7c0.35575-3.85 0.72629 12.635 0.82341 36.633l0.17659 43.633-2.25 0.60297c-1.2375 0.33164-7.5375 0.60913-14 0.61664l-11.75 0.01365v-19.941c0-12.445-0.38251-20.177-1.0176-20.57-0.55968-0.3459-13.693-0.60228-29.184-0.56973-21.518 0.04522-28.356 0.35676-28.967 1.3199-0.44018 0.69339-0.80722 8.9967-0.81564 18.452-0.01022 11.472-0.3835 17.419-1.1221 17.875-0.77153 0.47683-0.69581 0.94441 0.25 1.5437 0.87174 0.55236-0.29141 0.86516-3.2537 0.875-2.5357 8e-3 -6.5857 0.23236-9 0.49764-2.4143 0.26527-5.0646 0.15277-5.8896-0.25zm70-49.232c-3.6054-1.1547-36.213-1.1547-38 0-0.99235 0.64131 5.6071 0.94082 19.5 0.88501 12.059-0.048446 19.936-0.42526 18.5-0.88501zm-41 28v-15h15v30h-15zm-31-82.5c0-4.3333 0.11111-4.5 3-4.5s3 0.16667 3 4.5c0 4.3333-0.11111 4.5-3 4.5s-3-0.16667-3-4.5zm4.8164 0.75c-0.18837-1.6371-0.92343-2.75-1.8164-2.75s-1.628 1.1129-1.8164 2.75c-0.25766 2.2393 0.079641 2.75 1.8164 2.75s2.0741-0.51067 1.8164-2.75zm3.4358-3.75c0.0111-2.2 0.21588-2.9823 0.45508-1.7383 0.23919 1.2439 0.23011 3.0439-0.02018 4-0.25029 0.95609-0.446-0.061659-0.4349-2.2617z" fill="#424650"/>
  <path d="m12 113.23c-0.825-0.40278-1.6479-1.4073-1.8288-2.2323s-1.0175-2.2648-1.8594-3.1996c-1.3301-1.477-1.4836-6.5432-1.1712-38.667 0.19767-20.332 0.70166-37.309 1.12-37.728s1.6733 0.2192 2.789 1.4167c2.0925 2.2461 3.5412 2.942 2.4505 1.1772-0.33992-0.55-0.14148-1 0.44098-1s1.059 0.67119 1.059 1.4915 0.9 2.0536 2 2.7405c1.8058 1.1277 2 2.332 2 12.401 0 9.2471 0.27024 11.256 1.5818 11.759 2.0656 0.79264 79.771 0.79264 81.836 0 1.3619-0.52261 1.6113-3.4767 1.7941-21.25l0.2123-20.643 0.5754 16.5c0.38694 11.096 0.65489 13.716 0.81811 8 0.18097-6.3379 0.50197-8.0549 1.262-6.75 0.5606 0.9625 1.502 1.75 2.092 1.75 0.64359 0 0.52369-0.66559-0.29969-1.6637-1.2425-1.5062-1.1627-1.552 0.84342-0.48308 1.9333 1.0301 2.4262 0.85968 3.865-1.3363 0.90703-1.3843 2.0474-2.5169 2.5341-2.5169s0.96064 3.2625 1.0531 7.25l0.16811 7.25 0.66378-6c0.36508-3.3 0.73943 11.385 0.83189 32.633l0.16811 38.633-2.25 0.60297c-1.2375 0.33164-7.5375 0.60913-14 0.61664l-11.75 0.01365v-19.941c0-14.362-0.33367-20.147-1.1925-20.678-0.65589-0.40536-13.786-0.66678-29.177-0.58092-21.417 0.11946-28.174 0.4546-28.792 1.428-0.44398 0.69955-0.81413 9.0078-0.82256 18.463-0.01022 11.472-0.3835 17.419-1.1221 17.875-0.77153 0.47683-0.69581 0.94441 0.25 1.5437 0.87174 0.55236-0.29141 0.86516-3.2537 0.875-2.5357 8e-3 -6.5857 0.23236-9 0.49764-2.4143 0.26527-5.0646 0.15277-5.8896-0.25zm72.5-49.29c-5.1912-1.0738-37.809-1.0738-43 0-2.5113 0.51944 5.4906 0.82737 21.5 0.82737s24.011-0.30793 21.5-0.82737zm-43.5 28.057v-15h15v30h-15zm77.079-60.583c0.048-1.1649 0.28494-1.4019 0.60416-0.60417 0.28887 0.72188 0.25335 1.5844-0.0789 1.9167-0.3323 0.33229-0.56864-0.25833-0.52522-1.3125zm-13.751-21.917c4e-3 -3.85 0.18518-5.3025 0.40166-3.2277 0.21647 2.0748 0.21284 5.2248-8e-3 7-0.22098 1.7752-0.3981 0.077696-0.39366-3.7723zm-94.328 0c0-4.3333 0.11111-4.5 3-4.5s3 0.16667 3 4.5c0 4.3333-0.11111 4.5-3 4.5s-3-0.16667-3-4.5zm4.8164 0.75c-0.18837-1.6371-0.92343-2.75-1.8164-2.75s-1.628 1.1129-1.8164 2.75c-0.25766 2.2393 0.079641 2.75 1.8164 2.75s2.0741-0.51067 1.8164-2.75zm3.4156-4.25c0-1.925 0.2058-2.7125 0.45732-1.75 0.25153 0.9625 0.25153 2.5375 0 3.5-0.25153 0.9625-0.45732 0.175-0.45732-1.75z" fill="#41444d"/>
  <path d="m12.25 113.39c-0.6875-0.30616-1.25-1.1244-1.25-1.8183 0-0.69392-0.91057-2.0857-2.0235-3.0929-1.9542-1.7685-2.0181-2.8783-1.8654-32.405 0.17387-33.633 0.71383-42.282 2.6639-42.67 0.70125-0.13955 0.81375-0.02498 0.25 0.25461-1.9239 0.95413-1.0325 2.4788 1.0608 1.8144 1.881-0.597 1.9718-0.44886 0.92431 1.5083-1.0733 2.0054-1.0038 2.0859 0.91417 1.0594 1.4928-0.7989 2.0757-0.80359 2.0757-0.016677 0 0.60181 0.45 0.81609 1 0.47617 0.87034-0.5379 1.4752 1.4902 1.1184 3.75-0.065132 0.4125 0.33158 0.75 0.88158 0.75 0.5917 0 1 3.631 1 8.893 0 7.1868 0.30349 9.0095 1.5818 9.5 2.0656 0.79264 79.771 0.79264 81.836 0 1.3366-0.51291 1.6132-3.0315 1.7845-16.25l0.2027-15.643 0.5946 12.5c0.44776 9.4131 0.64466 10.695 0.7973 5.191 0.12897-4.6506 0.57235-7.0806 1.219-6.6809 0.55897 0.34546 0.7506 1.1595 0.42584 1.809-0.32475 0.6495 0.11791 0.30739 0.98369-0.76023 0.86579-1.0676 1.581-2.4176 1.5895-3 0.00842-0.58238 0.45153-0.38387 0.98469 0.44113 0.64625 1 0.97448 1.0833 0.98469 0.25 8e-3 -0.6875 0.87781-1.25 1.932-1.25 1.0542 0 2.1436-0.5625 2.421-1.25s0.53991 1.3375 0.58333 4.5 0.52895 5.75 1.079 5.75c0.64639 0 1 11.628 1 32.883v32.883l-2.25 0.60297c-1.2375 0.33164-7.5282 0.60913-13.979 0.61664l-11.729 0.01365-0.27071-20.25-0.2707-20.25-9.3816-0.72118c-5.1599-0.39665-18.435-0.39665-29.5 0l-20.118 0.72118-0.27379 17.926c-0.15672 10.261-0.70905 18.451-1.2917 19.153-0.70862 0.85384-0.62543 1.384 0.27379 1.7448 0.71046 0.28506-0.78296 0.55382-3.3187 0.59724-2.5357 0.0434-6.5857 0.29194-9 0.55226s-4.9521 0.22282-5.6396-0.0833zm74.25-49.39c-1.65-0.41985-12.225-0.76337-23.5-0.76337s-21.85 0.34352-23.5 0.76337 8.925 0.76337 23.5 0.76337 25.15-0.34352 23.5-0.76337zm-45.5 28v-15h15v30h-15zm77.079-47.583c0.048-1.1649 0.28494-1.4019 0.60416-0.60417 0.28887 0.72188 0.25335 1.5844-0.0789 1.9167-0.3323 0.33229-0.56864-0.25833-0.52522-1.3125zm-108.08-34.917c0-4.3333 0.11111-4.5 3-4.5 2.391 0 3 0.43084 3 2.1224 0 1.7449-0.25906 1.9074-1.4562 0.91391-1.9458-1.6149-3.5438-0.47737-3.5438 2.5227 0 2.9112 3.5805 3.4851 4.3107 0.69098 0.34414-1.3169 0.48603-1.1932 0.57332 0.5 0.095848 1.8591-0.40518 2.25-2.884 2.25-2.8889 0-3-0.16667-3-4.5zm94.252-3c0.0111-2.2 0.21589-2.9823 0.45508-1.7383 0.23919 1.2439 0.23011 3.0439-0.0202 4-0.25027 0.95609-0.44598-0.061659-0.43488-2.2617zm-86.173-2.0833c0.04798-1.1649 0.28494-1.4019 0.60417-0.60417 0.28887 0.72188 0.25334 1.5844-0.07895 1.9167-0.33229 0.33229-0.56864-0.25833-0.52522-1.3125z" fill="#3d414a"/>
  <path d="m12.25 113.39c-0.6875-0.30616-1.25-1.1244-1.25-1.8183 0-0.69392-0.9-2.0762-2-3.0716-1.9078-1.7266-1.9954-3.0128-1.9008-27.905 0.054588-14.352 0.39209-29.854 0.75-34.449l0.65075-8.3537 2.7625 2.5675c1.7637 1.6392 3.3907 2.3422 4.5 1.9444 0.95563-0.34273 1.4343-0.28577 1.0638 0.12659-0.37056 0.41236-0.03306 2.5656 0.75 4.7851 0.78306 2.2194 1.4237 6.1806 1.4237 8.8026 0 3.4246 0.44549 4.9382 1.5818 5.3743 2.0656 0.79264 79.771 0.79264 81.836 0 1.2951-0.49696 1.6156-2.6268 1.7681-11.75l0.18631-11.143 0.59475 8.5c0.533 7.6176 0.64343 7.9809 1.0637 3.5 0.41942-4.4719 0.70657-4.9748 2.719-4.7618 1.4321 0.15162 2.25-0.30276 2.25-1.25 0-0.83576 0.9027-1.4882 2.059-1.4882 1.1325 0 1.7809-0.45 1.441-1s0.0835-1 0.94098-1c1.2371 0 1.559 1.2268 1.559 5.941 0 3.2675 0.45 6.2191 1 6.559 0.62988 0.38929 1 11.472 1 29.942v29.324l-2.25 0.60297c-1.2375 0.33164-7.5198 0.60913-13.961 0.61664l-11.711 0.01365-0.28937-20.476c-0.24786-17.539-0.074222-20.526 1.2106-20.827 0.825-0.19303-12.134-0.21711-28.798-0.053508s-30.726 0.56222-31.25 0.88584c-0.54527 0.33699-0.95202 8.2285-0.95202 18.47 0 11.993-0.36451 18.107-1.1068 18.566-0.77153 0.47683-0.69581 0.94441 0.25 1.5437 0.87174 0.55236-0.29141 0.86516-3.2537 0.875-2.5357 8e-3 -6.5857 0.2283-9 0.48862s-4.9521 0.22282-5.6396-0.0833zm75.75-49.441c-5.6838-1.0114-43.667-1.0045-51 0.0091-3.2727 0.45241 6.8512 0.76664 25 0.77594 18.301 0.0094 28.7-0.30462 26-0.78508zm-47 28.051v-15h15v30h-15zm77.158-41c0-1.375 0.22698-1.9375 0.50439-1.25s0.27741 1.8125 0 2.5-0.50439 0.125-0.50439-1.25zm-108.16-37.75c0-0.4125 1.35-0.75 3-0.75s3 0.3375 3 0.75-1.35 0.75-3 0.75-3-0.3375-3-0.75zm0-6.1276c0-1.6916 0.60898-2.1224 3-2.1224s3 0.43084 3 2.1224c0 1.7732-0.2468 1.9176-1.5 0.87756-1.1967-0.99319-1.8033-0.99319-3 0-1.2532 1.0401-1.5 0.89568-1.5-0.87756zm94.195-1.6224c0.0204-1.65 0.2445-2.2039 0.49804-1.231s0.23687 2.323-0.037 3c-0.27398 0.67703-0.48142-0.11903-0.46104-1.769z" fill="#3b3e48"/>
  <path d="m12.25 113.39c-0.6875-0.30616-1.25-1.1244-1.25-1.8183 0-0.69392-0.9197-2.094-2.0438-3.1113-1.9674-1.7805-2.035-2.7859-1.8098-26.905 0.12867-13.78 0.41059-28.066 0.62648-31.746 0.38955-6.64 0.41067-6.6826 2.7785-5.6038 1.3123 0.59791 2.1416 1.4825 1.843 1.9657-0.29864 0.4832-0.17202 0.81411 0.28136 0.73535 2.9538-0.51312 4.3243 0.29017 4.3243 2.5346 0 1.3425 0.45 2.7191 1 3.059s1 2.3433 1 4.452c0 2.5736 0.52 4.0335 1.5818 4.441 2.5138 0.96462 80.766 0.67279 82.313-0.30698 1.0221-0.64719 1.3944-3.2496 1.3927-9.7347l-2e-3 -8.8513 0.68072 7c0.39295 4.0409 0.75537 5.46 0.8573 3.357 0.16533-3.4108 2.6007-6.0846 3.3887-3.7205 0.48514 1.4564 5.7875-1.1059 5.7875-2.797 0-0.73672 0.45-1.3395 1-1.3395s1 2.5016 1 5.559 0.40013 5.3117 0.88919 5.0095c0.50969-0.31501 0.95756 11.768 1.0494 28.311l0.16021 28.861-2.2994 0.6159c-1.2647 0.33874-7.5692 0.62204-14.01 0.62955l-11.711 0.01365-0.28937-20.456-0.28937-20.456 3.5-0.35348c1.925-0.19442-11.013-0.24043-28.752-0.10226-17.739 0.13817-32.701 0.52879-33.25 0.86804-0.60383 0.37319-0.99803 7.6797-0.99803 18.499 0 11.993-0.36451 18.107-1.1068 18.566-0.77153 0.47683-0.69581 0.94441 0.25 1.5437 0.87174 0.55236-0.29141 0.86516-3.2537 0.875-2.5357 8e-3 -6.5857 0.2283-9 0.48862s-4.9521 0.22282-5.6396-0.0833zm77.75-49.478c-8.1202-1.0169-49.928-0.96426-56 0.07046-2.518 0.42908 10.255 0.76169 29 0.75517 21.94-0.0076 31.257-0.29254 27-0.82563zm-49 28.088v-15h15v30h-15zm-31-78.861c0-0.47373 1.125-0.64627 2.5-0.38342s2.5 0.65045 2.5 0.86133c0 0.21088-1.125 0.38342-2.5 0.38342s-2.5-0.3876-2.5-0.86133zm0-6.0162c0-1.6916 0.60898-2.1224 3-2.1224s3 0.43084 3 2.1224c0 1.7732-0.2468 1.9176-1.5 0.87756-1.1967-0.99319-1.8033-0.99319-3 0-1.2532 1.0401-1.5 0.89568-1.5-0.87756zm94.079-2.7058c0.048-1.1649 0.28494-1.4019 0.60416-0.60417 0.28887 0.72188 0.25335 1.5844-0.0789 1.9167-0.3323 0.33229-0.56864-0.25833-0.52522-1.3125z" fill="#393c45"/>
  <path d="m12.25 113.38c-0.6875-0.30263-1.25-1.118-1.25-1.8119 0-0.69392-0.9-2.0762-2-3.0716-1.8841-1.7051-1.9935-3.003-1.8881-22.405 0.096614-17.777 1.248-43.019 1.7263-37.845 0.13968 1.5111 1.8686 2.2541 4.3758 1.8804 0.39271-0.05853 0.48054 0.50199 0.19518 1.2456-0.34186 0.89087 0.52315 1.5604 2.536 1.963 2.6914 0.53829 3.0548 1.0176 3.0548 4.029 0 2.1943 0.56631 3.6353 1.5818 4.025 2.586 0.99233 80.777 0.66568 82.373-0.34413 0.97611-0.61747 1.416-2.5053 1.3361-5.7347-0.11185-4.5241-0.0719-4.6033 0.66321-1.3142 0.4726 2.1146 0.86217 2.7083 0.98416 1.5 0.19878-1.9688 0.21388-1.9695 0.96806-0.04096 0.7306 1.8682 0.88964 1.8355 3.4297-0.70454 1.465-1.465 2.6816-2.1215 2.7036-1.459 0.022 0.6625 0.73223-0.07274 1.5783-1.6339 0.84602-1.5611 1.6828-2.6861 1.8594-2.5 0.7682 0.8094 1.7202 18.07 2.1831 39.583l0.50019 23.244-2.6456 1.0058c-1.4551 0.55323-7.7736 1.0059-14.041 1.0059h-11.396l-0.28937-20.456-0.28937-20.456 4.5-0.38167c2.475-0.20992-10.44-0.2702-28.699-0.13395-18.26 0.13624-33.672 0.53994-34.25 0.8971-0.67084 0.4146-1.0507 7.1058-1.0507 18.507 0 13.349-0.3156 17.986-1.25 18.365-0.94068 0.38169-0.87881 0.76971 0.25 1.568 1.134 0.80194 0.15783 1.0672-4 1.0871-3.025 0.0145-7.075 0.23147-9 0.48221-1.925 0.25075-4.0625 0.20829-4.75-0.0943zm82.25-49.422c-7.7851-0.96593-55.215-0.96593-63 0-3.3799 0.41936 10.376 0.74444 31.5 0.74444s34.88-0.32509 31.5-0.74444zm-53.5 28.038v-15h15v30h-15zm67.5-38c0.33992-0.55 1.068-1 1.618-1s0.72189 0.45 0.38197 1-1.068 1-1.618 1-0.72189-0.45-0.38197-1zm-98.5-46.878c0-1.6916 0.60898-2.1224 3-2.1224 2.0888 0 3 0.48811 3 1.607 0 1.0732-0.54031 1.3997-1.6267 0.98275-0.89471-0.34333-2.2447-0.11138-3 0.51546-1.091 0.90543-1.3733 0.70342-1.3733-0.98275z" fill="#353842"/>
  <path d="m12.25 113.38c-0.6875-0.30263-1.25-1.118-1.25-1.8119 0-0.69392-0.95873-2.1189-2.1305-3.1667-2.0995-1.8772-2.1226-2.2893-1.5862-28.293 0.42241-20.477 0.84366-26.574 1.8805-27.218 0.75806-0.47102 1.4813-0.40873 1.6716 0.14397 0.18448 0.5358 0.82345 0.67256 1.4199 0.30391 0.68991-0.42639 0.85218-0.06479 0.44598 0.99377-0.51995 1.355 0.005715 1.664 2.8301 1.664 2.9918 0 3.4686 0.32893 3.4686 2.393 0 1.3162 0.7118 2.6662 1.5818 3 0.86998 0.33384 19.743 0.60699 41.941 0.60699 30.958 0 40.537-0.28782 41.123-1.2356 0.42-0.67958 0.71088-2.8171 0.64639-4.75-0.0673-2.0177 0.0881-2.5562 0.36493-1.2644 0.26519 1.2375 1.1259 2.3062 1.9126 2.375s1.993 0.20555 2.6804 0.304c0.6875 0.09845 2.0159-0.5203 2.952-1.375 4.7162-4.3061 4.5474-4.4286 5.1783 3.7558 0.32604 4.2296 0.88168 17.692 1.2348 29.916l0.64197 22.226-2.6936 1.0241c-1.4815 0.56325-7.8216 1.0241-14.089 1.0241h-11.396l-0.28937-20.459-0.28937-20.459 5.5-0.38198c3.025-0.21009-9.8659-0.28412-28.646-0.16452-18.78 0.1196-34.643 0.5244-35.25 0.89955-0.7382 0.45623-1.1037 6.5953-1.1037 18.54 0 13.349-0.3156 17.986-1.25 18.365-0.94068 0.38169-0.87881 0.76971 0.25 1.568 1.134 0.80194 0.15783 1.0672-4 1.0871-3.025 0.0145-7.075 0.23147-9 0.48221-1.925 0.25075-4.0625 0.20829-4.75-0.0943zm50.608-46.213c2.397-0.18128 4.1176 0.0598 3.8234 0.53571-0.29413 0.47592 0.29913 0.86531 1.3184 0.86531s1.6346-0.35357 1.3676-0.78572 0.10346-0.83057 0.82342-0.88539 0.18402-0.46771-1.191-0.91752c-1.8454-0.60368-0.9289-0.80444 3.5-0.76668 3.3 0.02814 6.45 0.37116 7 0.76228 1.4861 1.0568 4.5 2.0333 4.5 1.458 0-0.27546-1.0125-0.90782-2.25-1.4052-2.1628-0.86933-2.1434-0.90685 0.5-0.96778 1.5281-0.03522 2.7851 0.492 2.8289 1.1866 0.06316 1 0.17982 1 0.58333 0 0.33818-0.83809 3.1955-1.3002 8.6711-1.4025l8.1667-0.15249-6.5-0.73063c-8.6175-0.96864-61.003-0.97349-68-0.0063-3.7182 0.514 1.4382 0.80592 15.917 0.9011 11.779 0.07744 21.208 0.3494 20.953 0.60435s-3.3675 0.5546-6.9167 0.66587c-6.1537 0.19293-6.3139 0.25972-3.4531 1.4393 1.65 0.68031 3.225 0.94317 3.5 0.58413s2.4612-0.80112 4.8582-0.9824zm12.964 0.54388c0.80723-0.97265 0.59355-1.2857-0.87756-1.2857-1.9872 0-2.4672 0.7155-1.2779 1.9048 0.88188 0.88188 0.91858 0.87134 2.1555-0.61905zm-34.822 24.286v-15h15v30h-15zm-31-85.667c0-0.81481 1.1667-1.3333 3-1.3333s3 0.51852 3 1.3333-1.1667 1.3333-3 1.3333-3-0.51852-3-1.3333z" fill="#333640"/>
  <path d="m12.25 113.38c-0.6875-0.30263-1.25-1.118-1.25-1.8119 0-0.69392-0.9-2.0762-2-3.0716-1.8144-1.642-2-3.08-2-15.498 0-7.5284 0.29201-19.119 0.64892-25.756 0.52648-9.7913 0.91469-11.966 2.0575-11.528 0.77471 0.29728 1.1692 1.1642 0.87675 1.9264-0.38984 1.0159 0.13413 1.2651 1.9629 0.93348 1.4038-0.25456 2.2414-0.04244 1.9153 0.4851-0.31866 0.51561 0.0097 0.9719 0.72963 1.014 0.71996 0.04208 2.209 0.35914 3.309 0.70458 3.9228 1.2319 83.646 1.3429 85.121 0.11848 0.92336-0.76632 1.379-0.7931 1.379-0.081035 0 0.58489-0.5625 1.415-1.25 1.8448s-16.55 0.69282-35.25 0.58458-37.15 0.17781-41 0.63567c-6.3773 0.75841-6.5722 0.8451-2.191 0.97444 2.645 0.07809 4.56 0.54482 4.2557 1.0372-0.3043 0.49237 0.09622 1.1445 0.89006 1.4491 0.96277 0.36945 1.2582 0.07139 0.88727-0.89522-0.30583-0.79699-0.057917-1.4491 0.55093-1.4491s1.107 0.41968 1.107 0.93261c0 1.334 6.5888 3.0354 13.177 3.4025 0.92212 0.05139 1.5043 0.37219 1.2937 0.7129-0.53086 0.85896 30.28 0.46847 34.28-0.43445 2.0841-0.47048 3.25-0.3534 3.25 0.32638 0 0.58302 0.47656 1.06 1.059 1.06s0.73364-0.52647 0.33596-1.1699c-0.48384-0.78286-0.18126-0.96203 0.91454-0.54153 0.90068 0.34562 1.987 0.0846 2.414-0.58006 0.42705-0.66466 1.3389-1.2535 2.0264-1.3085s2.1766-0.1675 3.309-0.25 1.7809-0.6 1.441-1.15-0.14148-1 0.44098-1 1.059 0.45 1.059 1 0.47656 1 1.059 1 0.7809-0.45 0.44098-1c-0.34743-0.56216 0.4488-1 1.8185-1 1.3401 0 2.9518-0.62077 3.5814-1.3795 1.0319-1.2434 6.5257-3.0713 8.314-2.7663 0.39271 0.06698 0.47217-0.50846 0.17658-1.2788-0.31944-0.83244 0.2022-1.5452 1.286-1.7572 1.6419-0.32116 1.932 0.88994 2.9136 12.163 0.59959 6.8856 1.1805 19.161 1.2909 27.278l0.20073 14.759-2.606 0.9908c-1.4333 0.54493-7.734 0.99079-14.002 0.99079h-11.396l-0.28937-20.461-0.28937-20.461 6.5-0.41373c3.575-0.22755-9.289-0.31706-28.587-0.19892s-35.61 0.53833-36.25 0.93375c-0.8141 0.50314-1.1633 6.0792-1.1633 18.577 0 13.349-0.3156 17.986-1.25 18.365-0.94068 0.38169-0.87881 0.76971 0.25 1.568 1.134 0.80194 0.15783 1.0672-4 1.0871-3.025 0.0145-7.075 0.23147-9 0.48221-1.925 0.25075-4.0625 0.20829-4.75-0.0943zm28.75-21.384v-15h15v30h-15zm-6.5-26c-0.33992-0.55 0.11008-1 1-1s1.3399 0.45 1 1-0.78992 1-1 1-0.66008-0.45-1-1zm-17.5-6.882c0-0.55 0.45-1.2781 1-1.618s1-0.16803 1 0.38197-0.45 1.2781-1 1.618-1 0.16803-1-0.38197zm87-1.618c0-0.825 0.17686-1.5 0.39301-1.5 0.21616 0 0.65203 0.675 0.96862 1.5 0.31658 0.825 0.13972 1.5-0.39301 1.5-0.53274 0-0.96862-0.675-0.96862-1.5zm-93.998-51.25c-0.001318-0.72273 1.2632-1.25 2.9977-1.25 1.8589 0 3 0.51595 3 1.3565 0 0.86399-1.0884 1.3178-2.9977 1.25-1.6734-0.059438-2.9987-0.65872-3-1.3565z" fill="#31343c"/>
  <path d="m10.464 110.36-3.643-3.8643 0.63963-22.967c0.3518-12.632 0.84198-23.169 1.0893-23.417s0.44967 0.10189 0.44967 0.77602 0.42931 0.96036 0.95401 0.63607c0.52471-0.32429 2.1425-0.29133 3.595 0.07324 1.9464 0.48852 2.2873 0.88704 1.296 1.5153-0.73976 0.46884-0.89502 0.89375-0.34502 0.94425 3.0254 0.2778 4.8579 0.95272 6.4165 2.3632 0.95757 0.86659 2.2306 1.5756 2.829 1.5756 0.59836 0 1.2767 0.3375 1.5074 0.75s0.28231 0.1875 0.11472-0.5 0.13116-1.25 0.6639-1.25c0.53274 0 0.96862 0.49814 0.96862 1.107s0.675 0.84797 1.5 0.53138c0.97232-0.37312 1.5054 0.02898 1.5153 1.143 0.013144 1.4752 0.15261 1.5062 0.98469 0.21862 0.53316-0.825 0.97626-1.0275 0.98469-0.45 0.01479 1.0139 0.71709 1.1676 7.7653 1.7001 5.2841 0.39921 3.7112 1.626-2.5 1.95l-5.75 0.2999-0.27391 17.956c-0.19558 12.82-0.62457 18.183-1.5 18.75-0.93524 0.60583-0.87026 1.0278 0.27391 1.7789 1.0785 0.70801-0.08047 0.98899-4.125 1-3.0938 8e-3 -7.0071 0.29173-8.6963 0.62957-2.6487 0.52975-3.5725 0.0826-6.7143-3.25zm80.323-17.115-0.28757-20.251l8-0.19042 8-0.19042-9.5-0.61717c-5.225-0.33944-8.1376-0.70331-6.4725-0.80858 1.6651-0.10528 4.1023-0.94421 5.4159-1.8643s2.0913-1.1922 1.7282-0.60478c-0.36306 0.58745-0.0021 1.3206 0.80211 1.6292 1.6647 0.6388 2.9527-0.85263 2.0282-2.3485-0.40656-0.65782 0.24317-0.67026 1.9099-0.03657 2.0619 0.78392 2.7842 0.59186 3.9308-1.0451 1.4301-2.0417 3.5665-2.2257 4.8921-0.42131 0.45499 0.61931 0.74051 0.52413 0.75-0.25 8e-3 -0.6875 0.69031-1.25 1.5153-1.25s1.5-0.45 1.5-1 0.38397-1 0.85326-1c1.9197 0 4.1435 48.266 2.277 49.419-0.64133 0.39637-6.9911 0.80164-14.111 0.9006l-12.945 0.17992zm-49.788-1.249v-15h14.812l0.13485 15 0.13485 15h-15.082zm5.8125-20.683c0.72188-0.28887 1.5844-0.25334 1.9167 0.07895 0.33229 0.33229-0.25833 0.56864-1.3125 0.52522-1.1649-0.04798-1.4019-0.28494-0.60417-0.60417zm4 0c0.72188-0.28887 1.5844-0.25334 1.9167 0.07895 0.33229 0.33229-0.25833 0.56864-1.3125 0.52522-1.1649-0.04798-1.4019-0.28494-0.60417-0.60417zm10.938-0.040282c1.7875-0.22183 4.7125-0.22183 6.5 0 1.7875 0.22183 0.325 0.40332-3.25 0.40332s-5.0375-0.1815-3.25-0.40332zm13.018-0.0013c1.7974-0.22256 4.4974-0.21797 6 0.0102 1.5026 0.22817 0.03209 0.41027-3.2679 0.40466-3.3-0.0056-4.5294-0.1923-2.7321-0.41486zm10.045 0.04162c0.72188-0.28887 1.5844-0.25334 1.9167 0.07895 0.33229 0.33229-0.25833 0.56864-1.3125 0.52522-1.1649-0.04798-1.4019-0.28494-0.60417-0.60417zm18.188-4.3169c-1.2819-0.82843-1.2456-0.9716 0.25-0.98469 0.9625-0.008422 1.75 0.43469 1.75 0.98469 0 1.2196-0.11279 1.2196-2 0zm-84.221-5.5c-0.84056-1.6424-0.78713-1.7765 0.29885-0.75 1.0138 0.95827 10.914 1.25 42.422 1.25 31.542 0 41.393-0.2907 42.359-1.25 1.0097-1.0022 1.1272-0.90315 0.59301 0.5-0.36643 0.9625-0.95559 1.7642-1.3092 1.7816-0.35365 0.01739-19.25 0.12989-41.992 0.25-40.453 0.21366-41.371 0.17508-42.372-1.7816zm-8.7787-55.283c0-0.8605 0.91708-1.2348 2.5311-1.033 3.0751 0.38443 2.8582 2.1465-0.28109 2.284-1.2704 0.055614-2.25-0.48901-2.25-1.2509z" fill="#2d313a"/>
  <path d="m14.74 113c-1.3642-0.275-3.7304-1.9943-5.2583-3.8206l-2.778-3.3206 0.63669-16.179c0.35018-8.8987 0.65622-18.429 0.68008-21.179 0.038726-4.4631 0.19125-4.8049 1.4205-3.1834 0.75742 0.99912 1.5306 1.7498 1.7182 1.6682 1.1851-0.5156 5.7934 1.4485 6.2616 2.6688 0.31091 0.81022 1.0383 1.1808 1.6163 0.82356 0.57807-0.35727 2.2536 0.13835 3.7233 1.1014 2.96 1.9395 7.9614 2.6809 8.811 1.3061 0.30072-0.48658 2.8827-0.81135 5.7378-0.7217l5.191 0.163-5.5 0.587-5.5 0.587-0.27391 17.956c-0.19558 12.82-0.62457 18.183-1.5 18.75-0.94376 0.61136-0.9001 1.0041 0.18964 1.7057 1.5979 1.0287-10.993 1.9318-15.176 1.0886zm82.05 0.20386-5.7102-0.30129l-0.28985-19.952-0.28985-19.952 8-0.01428c5.2362-0.0093 7.4998-0.33073 6.5522-0.93026-1.1177-0.70713-0.77571-1.0642 1.5-1.566 4.9648-1.0947 8.4548-2.6774 9.3223-4.2276 0.8333-1.489 1.5879 7.6614 2.7206 32.99 0.45269 10.123 0.2956 12.839-0.76247 13.184-2.0003 0.65251-14.559 1.1119-21.043 0.76979zm-2.7898-37.204c0-0.55-0.45-1-1-1s-1 0.45-1 1 0.45 1 1 1 1-0.45 1-1zm-52.835 16 0.33506-15 7.5 0.099492c5.2826 0.07008 6.7609 0.33621 5 0.90013-1.4126 0.4524-1.7957 0.844-0.88084 0.90032 2.1105 0.12993 2.8558 4.7653 2.8698 17.85l0.011006 10.25h-15.17zm9.0851-13.662c-0.6875-0.27741-1.8125-0.27741-2.5 0-0.6875 0.27741-0.125 0.50439 1.25 0.50439s1.9375-0.22697 1.25-0.50439zm-30.93-16.159c-0.72574-0.72678-1.3195-1.6043-1.3195-1.95 0-0.34571 0.54-0.088571 1.2 0.57143 0.84954 0.84954 7.6397 1.251 23.25 1.3747 24.733 0.19597 23.071 0.64785-3.8805 1.0547-13.818 0.20856-18.233-0.03247-19.25-1.0508zm63.18 0.82143-18-0.57008 19.05-0.21496c13.227-0.14925 19.417-0.58179 20.25-1.415 0.66-0.66 1.2-0.91714 1.2-0.57143 0 0.95984-3.052 3.8002-3.8214 3.5565-0.37321-0.11823-8.7786-0.4715-18.679-0.78504zm-72.172-56.5c0.51031-1.5543 4.6717-1.8389 4.6717-0.31955 0 0.74085-1.0964 1.3196-2.5 1.3196-1.375 0-2.3523-0.45-2.1717-1z" fill="#292d35"/>
  <path d="m9.7293 109.53-2.7707-3.4724 0.67679-18.028c0.37223-9.9152 0.81107-18.028 0.9752-18.028 0.16412 0 1.4628 1.1644 2.8859 2.5875 2.0843 2.0843 2.8688 2.3541 4.0336 1.3874 1.1552-0.95869 1.5771-0.85884 2.0971 0.49632 0.5176 1.3488 0.82425 1.4232 1.4965 0.36262 0.60276-0.95087 0.84992-0.67088 0.86084 0.97517 0.0084 1.27 0.4174 2.0605 0.90883 1.7568 0.49144-0.30372 2.7144 0.09022 4.9399 0.87542l4.0464 1.4276 0.41026-2.6844c0.22564-1.4764 0.47769 5.3031 0.5601 15.066 0.10468 12.401-0.18379 17.75-0.95716 17.75-0.60884 0-0.84797 0.675-0.53138 1.5 0.48452 1.2626-0.80397 1.5-8.143 1.5l-8.7186-3e-5zm6.9538-34.715c-0.31923-0.79773-0.55618-0.56078-0.60417 0.60417-0.04342 1.0542 0.19293 1.6448 0.52522 1.3125 0.33229-0.33229 0.36782-1.1948 0.07895-1.9167zm74.107 18.178-0.29033-20.065l7.9736 0.28743c7.3661 0.26553 8.0698 0.47793 9.2353 2.7874 0.70253 1.3921 1.2749 1.8353 1.2917 1 0.0267-1.3333 0.13776-1.3333 0.99943 0 0.83643 1.2943 0.97147 1.2692 0.98469-0.18261 0.00842-0.92544 0.91531-1.9683 2.0153-2.3174s2-1.2795 2-2.0674c0-0.78794 0.45-1.4326 1-1.4326s1.0084 1.4625 1.0188 3.25c0.0103 1.7875 0.30006 7.8625 0.64387 13.5 0.51184 8.3928 0.37254 10.253-0.76876 10.265-0.95956 0.01054-1.0398 0.24423-0.25749 0.75 0.62501 0.40408 1.3 3.6597 1.5 7.2347l0.36362 6.5-13.71 0.27796-13.71 0.27795zm19.591 5.4575c0.34149-0.88992 0.17385-1.2913-0.39301-0.94098-0.5437 0.33602-0.98855 1.0344-0.98855 1.5519 0 1.4384 0.71677 1.1215 1.3816-0.61096zm3.3476-7.0522c-0.3323-0.33229-1.1948-0.36782-1.9167-0.07895-0.79773 0.31923-0.56078 0.55618 0.60417 0.60417 1.0542 0.04342 1.6448-0.19293 1.3125-0.52522zm-16.1-9.9848c1.4457 0.55475 1.4788 0.42154 0.26274-1.0568-1.2713-1.5455-1.1017-1.6341 1.964-1.0268 2.7317 0.54117 3.2488 0.38662 2.7814-0.83135-0.92303-2.4054 0.33333-1.7188 1.3796 0.7539 0.8694 2.0547 0.9317 1.9896 0.71777-0.75-0.23057-2.9527-0.33282-3.0047-6.4843-3.2977-6.0575-0.28855-6.25-0.22175-6.25 2.1682 0 4.0921 1.0146 5.8623 2.604 4.5432 0.75376-0.62557 2.1149-0.85175 3.0247-0.50263zm-56.53 16.839c0.095662-8.4638 1.4746-22.126 1.7603-17.441 0.077439 1.27 0.5908 2.0309 1.1408 1.691s1-0.18129 1 0.3525c0 1.0852 1.8543 0.99467 3.7385-0.18256 0.8484-0.53006 1.051-0.28495 0.64301 0.77812-0.62681 1.6334 0.40345 1.9554 3.0309 0.94715 0.86682-0.33263 1.3463-0.97654 1.0655-1.4309-0.28081-0.45436-0.1171-1.0693 0.36382-1.3665 0.98358-0.60788 2.1404 9.6914 2.1511 19.152l0.007109 6.25h-15l0.0989-8.75zm3.6775-20.983c2.352-0.21124 5.952-0.20827 8 0.0066 2.048 0.21488 0.12357 0.38772-4.2764 0.38409-4.4-0.003633-6.0756-0.17944-3.7236-0.39069zm-11.026-4.9288c0.6875-0.27741 1.8125-0.27741 2.5 0 0.6875 0.27741 0.125 0.50439-1.25 0.50439s-1.9375-0.22697-1.25-0.50439zm-14.098-10.088c-0.25651-0.4125 4.5544-0.63198 10.691-0.48774 20.227 0.47546 22.397 0.85677 5.9664 1.0487-8.905 0.104-16.401-0.14842-16.657-0.56092zm59.848 0.080486c12.147-0.72774 24.277-0.76867 23.849-0.080486-0.25668 0.4125-6.8526 0.66676-14.658 0.56502-7.805-0.10174-11.941-0.31978-9.191-0.48453zm-68.923-56.455c0.70382-1.1388 4.4227-1.1388 4.4227 0 0 0.48125-1.1168 0.875-2.4818 0.875-1.365 0-2.2384-0.39375-1.941-0.875z" fill="#252931"/>
  <path d="m9.9521 109.75c-2.5168-3.2103-2.5429-3.429-2.1407-17.927 0.33232-11.978 0.66184-14.579 1.7921-14.145 0.76172 0.2923 1.1062 0.98242 0.76559 1.5336-0.3912 0.63297 0.45472 0.76624 2.2963 0.36176 2.3384-0.51359 3.3518-0.13876 5.1185 1.8931 1.2115 1.3934 2.6823 2.5335 3.2684 2.5335 0.58636 0 0.72788 0.56219 0.31466 1.25-0.46932 0.78118-0.08781 0.71153 1.0172-0.1857 1.5365-1.2476 1.8892-1.2476 2.692 0 0.76099 1.1827 1.0755 1.2006 1.7846 0.10185 0.68008-1.0538 1.0401-0.94878 1.7145 0.5 0.61522 1.3215 1.0249 0.01803 1.4666-4.6662 0.40736-4.3205 0.67073-0.54842 0.78545 11.25 0.1097 11.282-0.19181 17.75-0.8274 17.75-0.55 0-1 0.675-1 1.5 0 1.2121-1.5833 1.5-8.25 1.5-8.1183-3e-5 -8.2907-0.0519-10.798-3.25zm6.0479-28.75c0-0.55-0.42344-1-0.94098-1s-1.2191 0.45-1.559 1 0.08352 1 0.94098 1c0.85746 0 1.559-0.45 1.559-1zm75.168 13.25c0.09711-10.831 0.41386-16.22 0.75-12.759 0.4496 4.6291 0.97974 6.0667 2.3319 6.3233 0.9625 0.18266 1.75-0.19967 1.75-0.84962 0-0.76117 0.88972-0.95843 2.5-0.55427 2.5026 0.62812 3.6053-0.85615 1.25-1.6826-0.6875-0.24123-0.03466-0.44748 1.4508-0.45833 1.6488-0.01205 2.8808 0.61321 3.1631 1.6053 0.25431 0.89375 0.38897-1.075 0.29925-4.375l-0.16314-6-6.5-0.3028c-9.7854-0.45585-9.9718-2.1972-0.23518-2.1972 8.8187 0 10.235 0.86103 10.235 6.2215 0 1.6361 0.60935 2.3988 2 2.5036 1.1 0.08286 2-0.32648 2-0.90964 0-0.66502 0.5592-0.5962 1.5 0.18459 1.2285 1.0196 1.5 0.95124 1.5-0.37756 0-0.89234 0.45-1.6224 1-1.6224s1 1.509 1 3.3533 0.29703 6.1951 0.66006 9.6684c0.54421 5.2067 0.41258 6.2201-0.75 5.774-0.97113-0.37266-1.4101 0.20321-1.4101 1.8499 0 2.0608 0.16043 2.1716 1.1616 0.80249 0.93371-1.2769 1.228-0.28262 1.5 5.0688 0.18613 3.6616 0.15093 6.8431-0.0782 7.0702-0.22916 0.22704-6.4167 0.4128-13.75 0.4128h-13.333zm19.918 7.9117c-1.0386-1.9406-0.46062-5.8143 1.1804-7.9117 0.5379-0.6875 0.58541-1.2816 0.10556-1.3203-0.47984-0.03866 0.0276-0.4809 1.1276-0.98277 1.8004-0.82139 1.7504-0.88925-0.5-0.67972-2.0301 0.18902-2.5589 0.84361-2.8134 3.4828-0.17235 1.7875-0.7464 3.25-1.2757 3.25s-0.26421 1.35 0.58904 3 1.7806 3 2.0609 3c0.28023 0 0.0668-0.82725-0.47434-1.8383zm-69.999-0.91167c0.04818-3.1625 0.40352-8 0.78964-10.75 0.59756-4.2559 0.82333-4.6477 1.5171-2.6324 0.71322 2.0717 1.2903 2.3039 4.6179 1.8576 2.123-0.28476 4.2854-0.02751 4.8953 0.58238 0.78992 0.78992 1.1243 0.69091 1.2074-0.35756 0.24302-3.0641 1.7726 6.8131 1.8274 11.8l0.05763 5.25h-15l0.08761-5.75zm3.6888-23.983c2.352-0.21124 5.952-0.20827 8 0.0066 2.048 0.21488 0.12357 0.38772-4.2764 0.38409-4.4-0.003633-6.0756-0.17944-3.7236-0.39069zm-25.125-15.017c-0.25668-0.4125 3.8793-0.63054 9.191-0.48453 17.82 0.48983 19.765 0.86318 5.4667 1.0496-7.805 0.10174-14.401-0.15252-14.658-0.56502zm64.349 0.10125c8.2038-0.73259 19.78-0.79316 19.349-0.10125-0.2568 0.4125-5.5028 0.67435-11.658 0.5819s-9.616-0.30875-7.691-0.48065zm-73-56.566c0-0.43214 0.9-0.78571 2-0.78571s2 0.35357 2 0.78571c0 0.43214-0.9 0.78571-2 0.78571s-2-0.35357-2-0.78571z" fill="#22242c"/>
  <path d="m9.9266 109.66c-2.3505-3.0589-2.4094-3.5496-1.8793-15.658 0.30102-6.875 0.63852-11.911 0.75-11.191 0.11148 0.71996 0.66385 1.024 1.2275 0.67567 0.56363-0.34834 0.90113-0.10426 0.75 0.5424-0.31112 1.3312 8.0619 4.1919 9.5599 3.2661 0.5359-0.33121 0.68243-0.12982 0.32561 0.44753-0.71405 1.1554 2.0192 2.5755 3.3609 1.7462 0.46236-0.28576 1.1278-0.054875 1.4789 0.51307s1.0571 0.77373 1.5691 0.4573 0.9309 0.15279 0.9309 1.0427c0 3.5417 1.6177 0.35192 1.8542-3.656 0.52836-8.9545 1.1458-4.6555 1.1458 7.9779 0 16.804-0.25017 17.191-11.037 17.075-7.3211-0.07836-7.7026-0.20148-10.037-3.2393zm81.258-11.908c0.10174-8.3875 0.34767-12.962 0.54652-10.166l0.36153 5.0844 4.7035-0.88316c2.5869-0.48574 5.491-0.95765 6.4535-1.0487 1.5026-0.14214 1.75-1.266 1.75-7.9512v-7.7857h-6.941c-3.8175 0-7.2191-0.45-7.559-1-0.39257-0.63519 2.3334-1 7.4724-1 5.5595 0 8.2348 0.39104 8.552 1.25 0.25389 0.6875 0.80226 4.369 1.2186 8.1812 0.71982 6.5908 0.84256 6.8455 2.4993 5.1862 0.95828-0.95972 2.2155-1.4525 2.7938-1.0951 0.57832 0.35742 1.7068 0.10601 2.5077-0.55869 1.2363-1.026 1.4814-0.51044 1.6229 3.4139 0.0917 2.5423 0.20416 5.2974 0.25 6.1224 0.0458 0.825-0.36667 1.3875-0.91667 1.25s-1-1.353-1-2.701c0-1.9204-0.65164-2.586-3.0097-3.0746-2.9734-0.61598-3.0053-0.57733-2.645 3.201 0.2213 2.3206-0.0647 3.8246-0.72731 3.8246-0.62727 0-0.16158 1.9152 1.0942 4.5 1.2024 2.475 2.4981 4.5 2.8792 4.5 0.38111 0-0.15266-1.6586-1.1862-3.6857-1.6702-3.2759-1.7135-3.8687-0.39001-5.3312 0.81899-0.90498 1.1881-1.9464 0.82023-2.3143-0.36787-0.36787-0.37923-0.66885-0.02524-0.66885s1.361 1.0948 2.2377 2.4329c1.2694 1.9374 1.3623 2.9049 0.45594 4.75-1.0807 2.2001-1.035 2.1908 0.90669-0.18294l2.0449-2.5 0.0222 6.75 0.0222 6.75h-4.8c-2.64 0-5.34-0.54-6-1.2-0.93333-0.93333-1.2-0.93333-1.2 0 0 0.82667-2.3333 1.2-7.5 1.2h-7.4999zm-50.185 6.3896c0-1.5732 0.28267-4.9227 0.62815-7.4433 0.54738-3.9936 0.81372-4.3973 2.0714-3.1396 0.7938 0.7938 2.4236 1.4808 3.6219 1.5266 1.1982 0.04583 3.1911 0.19563 4.4286 0.33288 1.2375 0.13725 2.3018-0.23775 2.365-0.83333 0.18342-1.7271 1.7638 6.6333 1.8274 9.6671l0.05763 2.75h-15zm3.25-26.868c2.0625-0.21574 5.4375-0.21574 7.5 0 2.0625 0.21574 0.375 0.39226-3.75 0.39226s-5.8125-0.17652-3.75-0.39226zm-24.599-15.022c-0.25677-0.4125 3.4292-0.62939 8.191-0.48198 15.979 0.49466 17.752 0.87014 4.9669 1.0517-6.98 0.099136-12.901-0.15725-13.158-0.56975zm66.349 0.10516c8.3692-0.73799 17.778-0.79503 17.349-0.10516-0.25677 0.4125-5.0528 0.67435-10.658 0.5819s-8.616-0.30699-6.691-0.47673zm-75-56.569c0-0.43214 0.9-0.78571 2-0.78571s2 0.35357 2 0.78571c0 0.43214-0.9 0.78571-2 0.78571s-2-0.35357-2-0.78571z" fill="#1e2129"/>
  <path d="m9.9266 109.66c-2.3234-3.0236-2.4031-3.6256-1.8742-14.158 0.30378-6.05 0.64128-9.9609 0.75-8.691s0.64767 2.0309 1.1977 1.691 1.0355 0.19602 1.0789 1.191c0.04633 1.0616 0.28832 1.2896 0.58569 0.55194 0.37804-0.93779 1.1834-0.78144 3.1711 0.61558 2.3025 1.6184 11.206 3.817 13.414 3.3127 0.4125-0.09418 0.82767 0.39126 0.9226 1.0788 0.09493 0.6875 0.46726-1.675 0.8274-5.25 0.54712-5.431 0.68319-4.4051 0.8274 6.2386 0.22133 16.335-0.06481 16.774-10.864 16.659-7.3211-0.0784-7.7026-0.20148-10.037-3.2393zm81.235-8.6578c0.0871-6.325 0.34343-9.925 0.56962-8 0.47264 4.0224 1.6964 5.7349 2.8103 3.9326 0.53492-0.86552 0.34192-0.99894-0.63713-0.44043-1.0898 0.62169-1.144 0.51904-0.24188-0.45811 0.63944-0.69263 2.4394-1.3294 4-1.4151 1.5606-0.08569 3.4694-0.55454 4.2419-1.0419 0.88182-0.55633 1.1773-0.51846 0.79399 0.10175-0.33579 0.54331-9e-3 0.98784 0.7251 0.98784 1.0121 0 1.3767-2.3817 1.505-9.8333l0.16942-9.8333h-6.99c-9.7615 0-9.8222-1.6771-0.06915-1.9122 5.8149-0.14015 8.0962 0.16135 8.3977 1.1099 0.22767 0.71626 0.63841 4.8909 0.91275 9.277 0.27434 4.3861 0.98296 8.1361 1.5747 8.3333 1.4851 0.49502 1.3587 4.9311-0.15485 5.4356-0.87349 0.29116-0.51111 1.7668 1.2483 5.0833 1.3635 2.5702 2.7627 4.6731 3.1094 4.6731s1.1936-1.3597 1.8819-3.0215c2.1146-5.1052 2.9911-4.3836 2.9911 2.4624v6.559h-5.0314c-3.5499 0-5.2009-0.44169-5.607-1.5-0.62919-1.6396-3.9071-2.0444-4.804-0.59326-0.30822 0.49871 0.34022 0.67122 1.441 0.38337 1.1413-0.29845 2.0014-0.0313 2.0014 0.62164 0 0.78296-2.3709 1.057-7.4983 0.86663l-7.4983-0.27838zm8.2956-3.9309c0.31643-0.512 0.19299-1.1672-0.27432-1.456-0.4673-0.28881-0.84965 0.1301-0.84965 0.9309 0 1.6862 0.31534 1.8335 1.124 0.52511zm-58.196 5.3072c0.49928-4.4296 1.8296-6.328 4.4576-6.361 0.73034-0.0092 0.96129 0.65527 0.57639 1.6583-0.47692 1.2428-0.23276 1.5165 0.94863 1.0631 0.95883-0.36794 1.8333 0.02136 2.2011 0.97989 0.5362 1.3973 0.79802 1.3593 2.1569-0.31314 0.85065-1.0469 1.2617-1.341 0.91346-0.6535-0.34824 0.6875-0.15662 1.25 0.42584 1.25s1.059-0.75 1.059-1.6667c0-2.948 0.72399-0.9694 1.4331 3.9167l0.6894 4.75h-15.383zm69.91-0.31484c-0.79412-2.278-0.70372-3.2046 0.40217-4.1224 1.0183-0.84508 1.4266-0.86268 1.4266-0.061484 0 0.61734 0.3375 1.0692 0.75 1.004 1.8615-0.29393 2.0769 0.31652 1.1002 3.1184-1.3184 3.782-2.3757 3.7997-3.6789 0.0615zm4.8287-7.4882c0-2.4226-0.51277-3.5607-1.75-3.884-1.6173-0.42265-1.6128-0.46612 0.059-0.57332 0.99496-0.0638 1.5501-0.53491 1.2337-1.0469-0.31644-0.512-0.11799-1.2136 0.44098-1.559 0.64188-0.39669 1.0163 1.4201 1.0163 4.9309 0 3.0575-0.225 5.559-0.5 5.559s-0.5-1.542-0.5-3.4267zm-5.3616-5.0733c0.31659-0.825 0.75246-1.5 0.96862-1.5 0.21615 0 0.39301 0.675 0.39301 1.5s-0.43588 1.5-0.96862 1.5c-0.53273 0-0.70959-0.675-0.39301-1.5zm-67.826-12.183c0.72188-0.28887 1.5844-0.25334 1.9167 0.07895 0.33229 0.33229-0.25833 0.56864-1.3125 0.52522-1.1649-0.04798-1.4019-0.28494-0.60417-0.60417zm-23.161-15.067c-0.2568-0.4125 3.2041-0.62879 7.691-0.48065 14.018 0.46284 15.604 0.88774 3.9669 1.0625-6.155 0.092457-11.401-0.1694-11.658-0.5819zm69.349 0.12997c5.7911-0.7421 14.78-0.82353 14.348-0.12997-0.25651 0.4125-4.1523 0.68258-8.6574 0.60017s-7.066-0.294-5.691-0.4702zm-78-56.594c0-0.43214 0.9-0.78571 2-0.78571s2 0.35357 2 0.78571c0 0.43214-0.9 0.78571-2 0.78571s-2-0.35357-2-0.78571z" fill="#1d2026"/>
  <path d="m10 109.66c-2.3793-3.012-2.473-3.6233-1.9414-12.665 0.30722-5.225 0.69801-8.825 0.86842-8 0.17041 0.825 0.26195 1.8213 0.20341 2.214-0.058534 0.39271 0.56318 0.45706 1.3816 0.14301 0.8184-0.31405 1.488-0.11498 1.488 0.44237s0.81894 0.79921 1.8199 0.53747c1.0009-0.26175 2.3838 0.20363 3.0731 1.0342 0.68929 0.83054 1.8954 1.2637 2.6801 0.96253 0.87105-0.33425 1.4269 0.078446 1.4269 1.0594 0 1.9059 1.136 2.071 2.8 0.40699 0.89752-0.89752 1.2-0.90544 1.2-0.03139 0 0.67913 0.697 0.90115 1.664 0.53006 1.0435-0.40044 1.4186-0.24136 1.0057 0.4266-0.36206 0.58584-0.0086 1.3145 0.78546 1.6192 1.1191 0.42945 1.5259-0.61502 1.8093-4.6452 0.20103-2.8596 0.44876-0.33518 0.5505 5.6098 0.10402 6.078-0.20295 10.569-0.70133 10.261-0.48747-0.30127-1.1203 0.34717-1.4064 1.441-0.43793 1.6746-1.364 1.9863-5.8637 1.9734-4.0212-0.0115-4.9724-0.27522-3.8436-1.0655 1.1525-0.80688 0.92082-0.9008-1-0.40533-1.375 0.35467-3.175 0.7958-4 0.98027-0.825 0.18449-2.625-1.0887-4-2.8293zm14.25 1.6729c-0.6875-0.27741-1.8125-0.27741-2.5 0s-0.125 0.50439 1.25 0.50439 1.9375-0.22698 1.25-0.50439zm66.914-10.338c0.09705-7.4476 0.35878-9.9033 0.74276-6.9688 0.57725 4.4116 0.68297 4.5274 4.0067 4.3862 1.8776-0.07975 3.9026-0.78517 4.5-1.5676 0.5974-0.78244 1.8737-1.2607 2.8362-1.0629 1.579 0.32458 1.75-0.6734 1.75-10.214v-10.573h-6.941c-8.6747 0-10.013-1.4005-1.7025-1.7821 10.384-0.47682 10.643-0.28997 10.643 7.6761 0 8.5239 0.94071 13.806 2.1258 11.937 0.58095-0.91641 0.84832-0.5005 0.85887 1.336 8e-3 1.4667-0.54719 2.8659-1.2347 3.1095-0.90412 0.32027-0.56402 1.7269 1.2291 5.0833 1.3635 2.5523 2.7714 4.6405 3.1287 4.6405s1.2088-1.35 1.8922-3c1.8484-4.4623 2.6476-3.6721 2.8829 2.8506l0.21112 5.8506-5.297-0.36468c-2.9134-0.20057-5.447-0.80833-5.6304-1.3506-0.41837-1.2374-3.8567-1.2964-4.609-0.0792-0.30822 0.49871 0.34022 0.67122 1.441 0.38337 1.1008-0.28786 2.0014-0.0936 2.0014 0.43176 0 0.52974-3.3371 0.91572-7.4928 0.86663l-7.4928-0.08846zm-49.771 4.4182c0.33384-0.86998 0.66827-3.0075 0.74317-4.75 0.10115-2.3532 0.24767-2.5894 0.56955-0.91821 0.51296 2.6633 2.9512 3.0014 3.6049 0.5 0.41919-1.6041 0.467-1.5978 0.57332 0.0754 0.08548 1.345 0.83963 1.7776 2.866 1.644 4.6991-0.30984 5.25-0.0443 5.25 2.5306 0 2.4322-0.19287 2.5-7.107 2.5-6.0698 0-7.0184-0.23084-6.5-1.5818zm69.982-3.2364c-1.0025-2.6559-0.90894-2.8182 1.6253-2.8182s2.6278 0.16224 1.6253 2.8182c-0.58506 1.55-1.3164 2.8182-1.6253 2.8182s-1.0402-1.2682-1.6253-2.8182zm4.8202-7.6818c0.0204-1.65 0.2445-2.2039 0.49804-1.231 0.25354 0.97297 0.23687 2.323-0.037 3-0.27398 0.67703-0.48142-0.11903-0.46104-1.769zm-96.688-32.489c-0.35034-0.56686 0.05106-0.73451 0.94098-0.39301 1.7324 0.66479 2.0494 1.3816 0.61096 1.3816-0.51754 0-1.2159-0.44485-1.5519-0.98855zm4.2429 0.32626c0.6875-0.27741 1.8125-0.27741 2.5 0 0.6875 0.27741 0.125 0.50439-1.25 0.50439s-1.9375-0.22697-1.25-0.50439zm77.25 0.26927c0-0.21616 0.69837-0.661 1.5519-0.98855 0.88992-0.3415 1.2913-0.17385 0.94098 0.39301-0.58726 0.9502-2.4929 1.4054-2.4929 0.59554z" fill="#1a1c23"/>
  <path d="m10.166 109.33c-1.7239-2.6299-2.1422-4.6843-2.0499-10.068 0.063801-3.7202 0.32286-5.971 0.57568-5.0018s0.87562 1.5052 1.384 1.191 0.92432-0.046557 0.92432 0.59475 0.60883 0.93238 1.3529 0.64683 2.1289 0.38711 3.0774 1.4948c1.1455 1.3379 2.5377 1.8585 4.1471 1.5509 1.3324-0.25471 2.4226-0.075519 2.4226 0.39821 0 0.47373 1.125 0.86133 2.5 0.86133s2.5 0.45 2.5 1 0.5625 0.8875 1.25 0.75c0.69901-0.1398 1.5087-2.454 1.837-5.25 0.51038-4.3473 0.60828-3.937 0.75 3.143 0.13141 6.5649-0.13998 8.2593-1.4004 8.7429-0.85986 0.32996-1.3518 0.9406-1.0932 1.357 0.25862 0.41638-2.0171 0.59977-5.0572 0.40752-3.04-0.19224-5.2928 0.0328-5.0062 0.5 0.28666 0.46725-0.93445 0.88019-2.7136 0.91765-2.5942 0.0546-3.6637-0.58624-5.4007-3.236zm81.009-5.8321c0.08847-4.95 0.34028-7.2 0.55958-5 0.2193 2.2 0.88467 4.45 1.4786 5 0.75471 0.69889 0.84097 0.54833 0.28647-0.5-0.62285-1.1775-0.5196-1.247 0.48027-0.32303 0.85357 0.78877 2.0564 0.87939 3.6467 0.27475 1.3052-0.49622 2.3799-0.57586 2.3883-0.17697 8e-3 0.39889 0.45842 0.0503 1-0.77475 0.81647-1.2438 1.1342-1.2682 1.8597-0.14324 0.48125 0.74622 1.1 0.97122 1.3751 0.5 0.85093-1.4578 1.8934-23.819 1.1952-25.639-0.53106-1.3839-2.0484-1.743-7.8023-1.8464l-7.143-0.12836 5.7372-0.98326c3.1555-0.54079 6.8313-0.70867 8.1684-0.37307 2.379 0.59708 2.4426 0.88418 2.9648 13.362 0.60451 14.445 0.80053 16.264 1.6931 15.712 0.34925-0.21585 1.2289 0.71719 1.9547 2.0734 1.7324 3.237 2.4124 3.1139 4.3341-0.78413 1.2426-2.5208 1.6245-2.8012 1.7019-1.25 0.0549 1.1 0.30308 3.8 0.55155 6l0.45177 4-5.5288-0.34255c-3.0408-0.1884-5.5288-0.7509-5.5288-1.25 0-1.1804-3.7129-1.181-4.4424-7.1e-4 -0.30822 0.49871 0.34022 0.67122 1.441 0.38337 1.1008-0.28786 2.0014-0.0936 2.0014 0.43176 0 0.52974-3.3371 0.91572-7.4928 0.86663l-7.4928-0.0885zm-49.665 2.4837c0.34546-0.55897 0.95601-0.81367 1.3568-0.56598 0.40076 0.24768 1.3407 0.072 2.0888-0.3903 0.77606-0.47964 2.3967-0.36836 3.7739 0.25912 1.9022 0.86671 2.6072 0.79394 3.3268-0.34339 0.68613-1.0844 0.91688-1.1178 0.92839-0.13412 0.0084 0.71996 0.46531 1.0309 1.0153 0.69098s1-0.14148 1 0.44098c0 0.64534-2.7574 1.059-7.059 1.059-4.5269 0-6.8337-0.36456-6.4309-1.0163zm70.49-3.0427c0-0.58246 0.45-0.7809 1-0.44098s1 0.81648 1 1.059-0.45 0.44098-1 0.44098-1-0.47656-1-1.059zm-94.188-4.6241c0.72188-0.28887 1.5844-0.25334 1.9167 0.07895 0.33229 0.33229-0.25833 0.56864-1.3125 0.52522-1.1649-0.04798-1.4019-0.28494-0.60417-0.60417zm98.266-2.9002c0.048-1.1649 0.28494-1.4019 0.60416-0.60417 0.28887 0.72188 0.25335 1.5844-0.0789 1.9167-0.3323 0.33229-0.56864-0.25833-0.52522-1.3125z" fill="#161920"/>
  <path d="m10.166 109.33c-1.5643-2.3864-2.1464-4.7662-2.0956-8.5681 0.051587-3.8636 0.29892-4.732 0.92971-3.264 0.57896 1.3473 0.88736 1.5105 0.94503 0.5 0.075043-1.315 0.20052-1.3183 1.0175-0.02639 0.61325 0.96973 0.52253 1.7667-0.26531 2.3309-0.72273 0.51752-0.15266 0.63089 1.4384 0.28606 1.6916-0.36664 3.0753-0.0414 3.8633 0.90811 0.67525 0.81362 1.5861 1.2578 2.0242 0.98709 0.43805-0.27073 1.5498-0.20316 2.4705 0.15017 1.3417 0.51488 1.4093 0.81933 0.34024 1.5336-0.84921 0.5674-0.32994 0.65793 1.4291 0.24917 1.7197-0.39961 3.397-0.12789 4.442 0.71962 1.4291 1.159 1.5516 1.1503 0.82297-0.0583-0.63538-1.054-0.44242-1.2612 0.74872-0.80415 1.2271 0.4709 1.6987-0.1362 2.004-2.5801 0.26202-2.0972 0.4543-1.3707 0.55932 2.1132 0.09027 2.9947-0.23864 5.0626-0.75455 4.7438-0.50302-0.31089-1.0845-0.0555-1.2922 0.56755-0.36465 1.094-2.1593 1.482-8.1022 1.752-1.545 0.0702-2.6022 0.46512-2.3493 0.87762s-0.99597 0.78065-2.7751 0.81811c-2.5942 0.0546-3.6637-0.58624-5.4007-3.236zm80.973-3.3321c0.10457-5.4639 0.24183-5.9421 0.86111-3 0.4052 1.925 0.80285 3.05 0.88367 2.5 0.08082-0.55 0.56259-0.34289 1.0706 0.46024 0.78752 1.245 1.2527 1.1714 3.1566-0.5 1.2281-1.0781 1.904-1.3977 1.502-0.71024-0.44983 0.76929-0.15406 1.25 0.76909 1.25 1.6926 0 3.0303-1.6063 1.8743-2.2507-0.41593-0.23184-0.16029-0.27157 0.56807-0.0883 3.1065 0.78168 3.8029-2.042 3.739-15.161l-0.0633-13-7.5-0.5-7.5-0.5 6.6282-0.76537c10.109-1.1674 9.8546-1.4897 9.9781 12.622 0.13262 15.149 0.17289 15.603 1.3937 15.683 0.55 0.0364 1.5769 1.1672 2.2819 2.5129 1.6578 3.164 2.8057 3.089 4.6461-0.30334l1.4919-2.75 0.04 3.6682c0.022 2.0175 0.31318 4.38 0.64703 5.25 0.50902 1.3265-0.298 1.5818-5 1.5818-3.0838 0-5.607-0.45-5.607-1 0-1.3596-3.7135-1.2725-4.5662 0.10713-0.46045 0.74503 0.0108 0.88652 1.441 0.43262 1.1689-0.37099 2.1252-0.26687 2.1252 0.23137s-3.3717 0.86606-7.4928 0.81738l-7.4928-0.0885zm-46.889 0.27153c2.0625-0.21574 5.4375-0.21574 7.5 0 2.0625 0.21575 0.375 0.39226-3.75 0.39226s-5.8125-0.17651-3.75-0.39226z" fill="#16181e"/>
  <path d="m16 112.28c-4.2714-0.76688-8.0165-5.1447-7.884-9.2159 0.063801-1.9596 0.3218-2.7754 0.57332-1.8129 0.41628 1.593 1.5471 2.1864 3.5607 1.8684 0.4125-0.0651 0.75 0.37972 0.75 0.98857 0 0.60884 0.675 0.84797 1.5 0.53138 0.825-0.31658 1.5-0.11317 1.5 0.45203s0.46971 0.73734 1.0438 0.38253 1.5866-0.21416 2.25 0.31255c0.66341 0.52672 1.9937 0.83028 2.9562 0.67458s1.75 0.17523 1.75 0.73541 0.60331 0.787 1.3407 0.50404 1.9623-0.13031 2.722 0.33922c1.7855 1.1035 0.06909 1.775-5.5627 2.1763-2.5543 0.18199-3.9096 0.73678-3.75 1.535 0.1375 0.6875 0.1375 1.1887 0 1.1138s-1.375-0.33816-2.75-0.58502zm75.182-5.2788c0.14868-4.883 0.21004-5.0307 0.54702-1.3162 0.30964 3.4132 0.73793 4.1568 2.3253 4.0372 1.0702-0.08061 1.9457-0.52317 1.9457-0.98345 0-0.46029 0.75627-0.41366 1.6806 0.10362 1.1584 0.6483 2.1127 0.50839 3.0714-0.45031 1.6112-1.6112 4.248-1.8538 4.248-0.39082 0 0.55 0.49878 1 1.1084 1 0.68038 0 0.88878-1.062 0.53968-2.75-0.3128-1.5125-0.32408-2.1875-0.0251-1.5 0.299 0.6875 1.1812 1.25 1.9603 1.25 0.77917 0 1.4304-0.5625 1.4471-1.25 0.0169-0.69372 0.48401-0.47121 1.0497 0.5 1.4181 2.4347 2.6267 2.1877 4.2254-0.86344 1.3311-2.5405 1.3744-2.4708 1.5503 2.5l0.18099 5.1134h-5.0184c-2.7601 0-5.0183-0.45-5.0183-1 0-1.2604-3.6845-1.3196-4.4558-0.0715-0.31562 0.51067 0.44532 1.0899 1.691 1.2871 1.2457 0.19722-1.2194 0.34189-5.4779 0.3215l-7.7428-0.03707zm-60.896-3.5c0.0075-2.75 0.20171-3.7563 0.43157-2.2362 0.22986 1.5201 0.22371 3.7701-0.01365 5s-0.42542-0.0138-0.41792-2.7638zm14.442 2.7783c1.7752-0.22091 4.9252-0.22454 7-8e-3 2.0748 0.21648 0.6223 0.39722-3.2277 0.40166-3.85 4e-3 -5.5475-0.17268-3.7723-0.39359zm61.257-16.778-0.48427-14-4.5-0.51916-4.5-0.51916 3.8923-0.80284c6.3033-1.3001 6.7141-0.2744 6.3714 15.906l-0.29515 13.935z" fill="#12141b"/>
  <path d="m103.81 112.32c0.72187-0.28887 1.5844-0.25335 1.9167 0.0789 0.33229 0.3323-0.25834 0.56864-1.3125 0.52522-1.165-0.048-1.4019-0.28494-0.60417-0.60416zm-91.888-3.0366c-1.3334-1.4959-1.7493-2.2573-0.92431-1.692 0.825 0.56523 2.4741 0.9524 3.6647 0.86036 1.562-0.12075 2.0019 0.25678 1.5801 1.3561-0.41364 1.0779-0.19729 1.284 0.73986 0.70487 0.88124-0.54464 1.0857-0.43221 0.61092 0.33595-1.1559 1.8704-3.0828 1.3386-5.6712-1.5652zm79.234 0.71974c0-1.375 0.22697-1.9375 0.50439-1.25 0.27741 0.6875 0.27741 1.8125 0 2.5-0.27741 0.6875-0.50439 0.125-0.50439-1.25zm6.8421 1.6166c0-0.21085 0.90062-0.61888 2.0014-0.90674 1.1008-0.28785 1.7492-0.11534 1.441 0.38337-0.53825 0.87091-3.4424 1.3124-3.4424 0.52337zm10.333-1.1008c0-1.0703 0.34696-1.1962 1.2443-0.45145 0.85852 0.71251 1.4484 0.70253 1.9024-0.0322 0.36197-0.58568 1.0462-0.82501 1.5206-0.53183 0.47436 0.29317 1.5683-0.47462 2.4309-1.7062 1.5633-2.232 1.5684-2.2288 1.5684 0.98327 0 3.1342-0.11869 3.2225-4.3333 3.2225-3.1646 0-4.3333-0.40029-4.3333-1.4841zm-63.606-4.2376c1.7752-0.22091 4.9252-0.22454 7-8e-3 2.0748 0.21648 0.6223 0.39722-3.2277 0.40166-3.85 4e-3 -5.5475-0.17268-3.7723-0.39359zm-36.649-1.8616c0.047984-1.165 0.28494-1.4019 0.60417-0.60417 0.28887 0.72187 0.25334 1.5844-0.078947 1.9167-0.33229 0.33229-0.56864-0.25834-0.52522-1.3125zm98.079-6.4167c0-1.375 0.22698-1.9375 0.50439-1.25s0.27741 1.8125 0 2.5-0.50439 0.125-0.50439-1.25zm-0.18072-12.492-0.47717-9.9923l-3-0.63941-3-0.63941 3.2814-0.11832c1.8955-0.06835 3.4961 0.44129 3.7898 1.2067 0.27965 0.72876 0.36775 5.5663 0.19578 10.75l-0.31267 9.425z" fill="#0e1016"/>
  <path d="m44.728 106.28c1.7752-0.22091 4.9252-0.22454 7-8e-3 2.0748 0.21648 0.6223 0.39722-3.2277 0.40166-3.85 4e-3 -5.5475-0.17268-3.7723-0.39359zm61.465-23.328c-0.10597-3.6025-0.73268-7.09-1.3927-7.75-0.93333-0.93333-0.92636-1.2 0.0314-1.2 1.8677 0 2.3065 2.0888 1.9128 9.1053l-0.35881 6.3947z" fill="#0b0d13"/>
 </g>
</svg>
