<?xml version="1.0" encoding="UTF-8"?>
<svg width="20" height="20" version="1.1" viewBox="0 0 20 20" xmlns="http://www.w3.org/2000/svg">
 <g transform="matrix(.047848 0 0 .053584 .56252 -.38754)">
  <path d="m79.642 373.96c-0.95962-4.7981-0.71717-26.407 0.39223-34.957 0.78675-6.0636 1.666-8.5032 4.6005-12.764 8.3305-12.096 27.542-26.313 57.669-42.678l8.804-4.7824-12.804-7.0206c-23.831-13.067-43.139-27.004-51.017-36.826-1.9554-2.4378-4.6667-6.8252-6.0251-9.7497-2.4688-5.3149-2.4697-5.33-2.1003-32.5l0.36965-27.183 2.84-5.1519c7.2393-13.132 27.043-28.449 59.879-46.313 4.2625-2.3189 7.75-4.5533 7.75-4.9653 0-0.41201-1.2222-1.306-2.716-1.9866-5.6267-2.5637-24.202-13.564-35.284-20.895-13.14-8.6928-26.6-21.44-29.833-28.254-2.0155-4.2472-2.165-6.0609-2.1432-26l0.023359-21.434 2.7306 5 2.7306 5h218.98l2.5397-4.7024c1.3968-2.5863 2.9031-5.0613 3.3473-5.5 0.44417-0.43867 0.49641 8.8774 0.11608 20.702-0.84038 26.129-1.4706 28.081-12.684 39.27-10.387 10.365-26.426 21.3-50.115 34.168l-8.804 4.7824 12.804 7.0376c31.496 17.311 49.282 31.514 56.655 45.242 2.0517 3.8196 2.1486 5.2625 2.1486 32v28l-2.7182 5.5347c-2.5006 5.0916-11.303 14.788-19.282 21.241-7.5896 6.1383-25.589 17.405-42.313 26.485l-7.3127 3.9706 11.313 6.1433c35.86 19.474 56.774 37.391 59.729 51.17 1.1491 5.3581 1.4827 34.862 0.43829 38.762-0.56072 2.0936-0.88621 1.8381-3.5091-2.7544l-2.8911-5.062-109.22 0.25442-109.22 0.25442-2.6117 4.8359-2.6117 4.8359zm210.91-19.526c-6.0319-5.3254-19.707-14.404-33.595-22.304l-12.538-7.1316h-98.847l-12.538 7.142c-19.01 10.829-36.038 22.606-36.038 24.925 0 0.57138 38.277 0.91691 98.75 0.89142l98.75-0.0416-3.9435-3.4816zm-70.513-39.094c3.154-0.63081 2.7266-0.94524-10.125-7.4478-7.38-3.734-13.964-6.8127-14.631-6.8414-0.66726-0.0287-7.3774 2.9853-14.911 6.6978l-13.698 6.75 6.4115 0.5774c9.3612 0.84304 43.111 1.0328 46.955 0.26398zm-8.5431-66.314l16-7.8493-31.917-0.0892c-17.554-0.049-31.639 0.18832-31.3 0.52747 0.70711 0.7071 29.958 15.226 30.717 15.247 0.275 7e-3 7.7-3.5187 16.5-7.8358zm44.948-23.156c11.899-6.7406 30.028-18.754 35.052-23.227l4-3.5616-100.31-0.0416c-62.639-0.026-100.09 0.31276-99.726 0.90206 0.32078 0.51903 4.1713 3.6474 8.5567 6.9519 6.8145 5.1348 13.726 9.4604 34.978 21.891 3.4012 1.9894 4.9811 2.0496 55.948 2.1301l52.448 0.0829 9.0519-5.1279zm33.552-36.721 5.5-0.6511-5.5-4.4038c-6.7972-5.4424-21.563-15.041-33.5-21.778l-9-5.0793-51.5-0.55527-51.5-0.55527-10 5.6077c-12.456 6.985-27.296 16.583-34.437 22.274-4.7618 3.7944-5.1966 4.4269-3.5 5.0911 2.3538 0.92159 185.67 0.96911 193.44 0.0501zm-78.793-50.245-16.293-7.9158-16.207 7.9621-16.207 7.9621 32.5-0.0463 32.5-0.0463-16.293-7.9158zm-1.0899-58.87 14.383-6.9635-29 0.01568-29 0.01569l13.5 6.8955c7.425 3.7926 14.003 6.919 14.617 6.9478 0.6143 0.02873 7.5893-3.0813 15.5-6.9112zm47.301-24.435c13.881-7.8917 23.769-14.315 31.963-20.762l4.8806-3.84h-198.54l3.8875 3.1174c6.5807 5.277 20.311 14.244 32.888 21.479l12 6.9032 41 0.5c22.55 0.275 44.975 0.41787 49.834 0.31748l8.8336-0.18252z" fill="#fac518"/>
  <path d="m79.655 374.03c-0.9706-4.853-0.73714-26.42 0.37913-35.023 0.78675-6.0636 1.666-8.5032 4.6005-12.764 8.3305-12.096 27.542-26.313 57.669-42.678l8.804-4.7824-12.804-7.0206c-23.831-13.067-43.139-27.004-51.017-36.826-1.9554-2.4378-4.6667-6.8252-6.0251-9.7497-2.4688-5.3149-2.4697-5.33-2.1003-32.5l0.36965-27.183 2.84-5.1519c7.2393-13.132 27.043-28.449 59.879-46.313 4.2625-2.3189 7.75-4.5533 7.75-4.9653 0-0.41201-1.2222-1.306-2.716-1.9866-5.6267-2.5637-24.202-13.564-35.284-20.895-13.14-8.6928-26.6-21.44-29.833-28.254-2.0182-4.2529-2.1634-6.0341-2.12-26l0.046562-21.434 2.3615 4.5c5.5279 10.534 23.956 25.616 48.545 39.73 11.99 6.8823 62.417 32.27 64.097 32.27 1.9048 0 53.759-26.36 66.687-33.9 24.245-14.14 40.377-27.564 45.663-37.996 1.4225-2.8072 2.8442-5.1041 3.1593-5.1041 0.31507 0 0.26331 9.5625-0.11501 21.25-0.83664 25.846-1.4883 27.852-12.68 39.02-10.387 10.365-26.426 21.3-50.115 34.168l-8.804 4.7824 12.804 7.0376c31.496 17.311 49.282 31.514 56.655 45.242 2.0517 3.8196 2.1486 5.2625 2.1486 32v28l-2.7182 5.5347c-2.5006 5.0916-11.303 14.788-19.282 21.241-7.5896 6.1383-25.589 17.405-42.313 26.485l-7.3127 3.9706 11.313 6.1433c35.86 19.474 56.774 37.391 59.729 51.17 1.1491 5.3581 1.4827 34.862 0.43829 38.762-0.55954 2.0892-0.8964 1.8202-3.5582-2.8403-5.8276-10.204-20.298-22.313-42.677-35.712-10.962-6.5633-67.213-35.255-69.119-35.255-1.6473 0-52.144 25.459-64.001 32.268-25.068 14.394-43.059 29.02-48.241 39.216l-2.4489 4.8185zm144.41-131.34c38.835-19.547 61.437-33.45 72.013-44.298l4.422-4.5357-6.1915-5.8474c-11.931-11.268-34.479-24.802-75.569-45.36l-23.691-11.853-23.47 11.699c-40.982 20.428-63.812 34.118-75.868 45.491l-6.2097 5.8581 3.5 3.6677c7.9687 8.3505 27.056 21.033 50.5 33.555 11.116 5.9372 50.679 25.794 51.565 25.881 0.31065 0.0304 13.361-6.3851 29-14.257z" fill="#489dab"/>
  <path d="m79.655 374.03c-0.9706-4.853-0.73714-26.42 0.37913-35.023 0.78901-6.0811 1.6639-8.5001 4.6338-12.812 7.6184-11.062 24.647-24.019 51.332-39.059 6.875-3.875 13.174-7.4508 13.998-7.9462 1.1555-0.69493 0.24139-1.5342-4-3.6723-22.099-11.14-41.866-24.377-53.027-35.507-10.556-10.527-13.452-15.93-13.403-25.006 0.03808-7.0229 1.8984-11.586 7.273-17.838l2.8692-3.3376 2.895 3.4789c8.1909 9.8428 31.448 24.276 73.578 45.662l28.497 14.466 27.877-13.966c39.166-19.621 62.877-34.158 73.52-45.075l4.422-4.5357-6.1915-5.8474c-11.935-11.271-34.477-24.801-75.606-45.379l-23.728-11.871 21.763-10.846 21.763-10.846 13 7.1124c31.492 17.229 49.452 31.548 56.851 45.323 2.0517 3.8196 2.1486 5.2625 2.1486 32v28l-2.7182 5.5347c-2.5006 5.0916-11.303 14.788-19.282 21.241-8.0208 6.4869-28.825 19.423-43.931 27.316-3.0602 1.599-5.5508 3.1324-5.5346 3.4074 0.0162 0.275 5.9185 3.65 13.116 7.5 12.133 6.4898 17.186 9.5776 30.35 18.545 8.3638 5.6978 22.186 19.683 24.965 25.259 2.466 4.9486 2.5354 5.6494 2.5354 25.587v20.499l-3.0237-4.7678c-3.6395-5.7389-15.995-18.284-21.775-22.109-2.2927-1.5173-3.8815-3.2233-3.5305-3.7911s0.15577-0.73438-0.43374-0.37004c-0.58952 0.36435-3.6966-1.0758-6.9045-3.2004s-7.1827-4.6157-8.8327-5.5358c-1.65-0.92012-4.575-2.6188-6.5-3.7748-3.6102-2.168-26.839-14.15-49.285-25.422-7.0315-3.5312-13.46-6.4204-14.286-6.4204-1.973 0-50.967 24.537-64.429 32.268-25.068 14.394-43.059 29.02-48.241 39.216l-2.4489 4.8185zm59.845-271.15c-32.268-17.936-51.561-33.104-57.371-45.105-1.9745-4.0787-2.1258-5.9551-2.0826-25.832l0.046562-21.434 2.3615 4.5c5.0996 9.7176 22.749 24.593 44.545 37.545 3.575 2.1243 20.407 10.912 37.404 19.529l30.904 15.666-21.8 10.63c-11.99 5.8465-22.072 10.627-22.404 10.623-0.33237-4e-3 -5.5543-2.7583-11.604-6.121z" fill="#e94649"/>
  <path d="m307.5 372.37c-2.4925-4.6411-16.559-19.078-22.234-22.819-2.3285-1.535-3.9464-3.2556-3.5955-3.8234s0.15577-0.73438-0.43374-0.37004c-0.58952 0.36435-3.6966-1.0758-6.9045-3.2004s-7.1827-4.6157-8.8327-5.5358c-1.65-0.92012-4.575-2.6287-6.5-3.7969s-9.35-5.036-16.5-8.5951-14.91-7.5819-17.244-8.9395-10.098-5.3104-17.253-8.7841l-13.009-6.3157 21.646-10.605 21.646-10.605 9.6067 5.1122c11.518 6.1293 25.391 14.468 33.607 20.201 9.648 6.7318 23.157 20.313 26.014 26.152 2.4844 5.078 2.5238 5.521 2.2572 25.409l-0.27133 20.241zm-158-94.762c-1.1-0.70668-7.175-4.1098-13.5-7.5624-18.801-10.263-33.694-20.645-43.029-29.997-10.555-10.574-13.452-15.986-13.403-25.044 0.03808-7.0229 1.8984-11.586 7.273-17.838l2.8692-3.3376 2.895 3.4789c8.1196 9.7572 30.096 23.463 70.895 44.214 15.95 8.1125 29.393 15.105 29.873 15.539 0.62088 0.56128-31.934 17.571-41.373 21.617-0.275 0.11789-1.4-0.36385-2.5-1.0705zm144.1-90.584c-14.362-12.431-34.101-24.203-74.256-44.286l-24.157-12.082 21.631-10.764 21.631-10.764 13.526 7.5444c23.571 13.147 43.742 27.273 42.37 29.671-0.36531 0.63844-0.28193 0.81316 0.18531 0.38827 0.46723-0.42489 2.7769 1.119 5.1326 3.431 3.0794 3.0222 4 4.5446 3.2757 5.4173-0.7252 0.8738-0.53777 1.1732 0.66917 1.069 1.0356-0.0894 2.5781 1.54 4.0351 4.2625 3.0718 5.7401 3.3341 17.28 0.51243 22.544-2.0014 3.7342-6.347 9.5266-7.1538 9.5357-0.275 3e-3 -3.6054-2.6823-7.401-5.9676zm-147.1-80.697c-31.471-15.855-58.235-36.109-63.955-48.398-2.4458-5.2543-2.5242-6.0687-2.493-25.925 0.03124-19.919 0.08058-20.41 1.7402-17.312 2.826 5.2738 11.061 14.171 18.831 20.346 12.446 9.8903 32.614 21.743 64.063 37.651l30.185 15.269-21.581 10.523c-11.87 5.7878-21.628 10.488-21.685 10.444-0.0574-0.0436-2.3543-1.2128-5.1043-2.5983z" fill="#3b7b83"/>
  <path d="m307.17 371.27c-1.6607-2.5997-1.8288-3.233-0.58628-2.2077 1.6007 1.3208 1.648 1.2608 0.58213-0.73993-0.63808-1.1976-0.91145-2.9976-0.6075-4 0.43164-1.4235 0.19168-1.3396-1.0961 0.38324l-1.6488 2.2057-6.35-6.6374c-5.7217-5.9807-6.1826-6.7647-4.6574-7.9239 1.9535-1.4848 0.86651-1.7811-1.6308-0.44458-1.965 1.0517-6.7393-2.186-5.701-3.8661 0.36257-0.58664 5e-3 -0.77719-0.84639-0.45062-0.81104 0.31123-2.3031-0.25643-3.3157-1.2614-1.0126-1.005-3.0922-2.3892-4.6215-3.076-1.5292-0.68677-2.7072-1.8118-2.6178-2.5 0.0894-0.68823 0.10242-1.9263 0.0288-2.7513-0.11893-1.3333-0.25284-1.3333-1.2052 0-0.87597 1.2264-0.98942 1.1199-0.62189-0.58333 0.27032-1.2528-0.0564-2.0833-0.81938-2.0833-0.87837 0-1.0196 0.6412-0.45889 2.0833 0.44551 1.1458 1.3367 1.9597 1.9804 1.8086 0.64374-0.15112 0.88101 0.19352 0.52727 0.76588-0.41864 0.67737-1.6593 0.44041-3.554-0.6788-2.0317-1.2002-2.5394-1.9554-1.6812-2.5006 0.75944-0.48243 0.15551-0.78697-1.5794-0.79643-1.615-9e-3 -2.5463-0.44037-2.191-1.0153 0.33992-0.55-0.13303-1-1.051-1-2.6759 0-13.471-6.1549-12.774-7.283 0.35024-0.5667 0.14802-0.72561-0.4517-0.35497-0.59721 0.3691-2.8042-0.11053-4.9045-1.0658-5.0099-2.2788-4.8822-2.144-3.377-3.5629 1.0376-0.97815 1.4032-0.9747 1.7667 0.0167 0.52087 1.4206 4.1271 1.6406 6.1255 0.37385 1.064-0.67448 0.9969-0.97482-0.33179-1.4847-2.4452-0.93835-3.2232-0.75146-1.502 0.36081 2.5235 1.6308-0.73851 1.1866-4.1174-0.56074-1.66-0.8584-3.5501-1.3439-4.2003-1.0789-0.65022 0.26498-0.36815 0.51731 0.62681 0.56073 0.99496 0.0434 1.5287 0.53253 1.1861 1.0869-1.2634 2.0443-10.162-1.1655-10.162-3.6656 0-0.99533 0.66154-1.3155 1.9967-0.96632 1.8372 0.48043 1.8678 0.39323 0.38352-1.091-1.3253-1.3253-1.8879-1.3852-3.1524-0.3358-0.84655 0.70257-1.2648 1.7213-0.92951 2.2639 0.72799 1.1779-2.2025-0.33291-5.1317-2.6456-1.9-1.5002-1.8556-1.5274 0.88869-0.54529 1.5888 0.56859 3.1507 0.77175 3.471 0.45146 0.86111-0.86111-1.9763-2.3661-3.4179-1.8129-0.68174 0.26161-1.5105 0.0372-1.8417-0.49864-0.33118-0.53586-1.5017-0.73905-2.6012-0.45154-1.8454 0.48258-2.531-0.51168-2.0926-3.0348 0.0787-0.45338-0.3253-0.53479-0.8979-0.1809-0.57259 0.35388-0.75875 1.1002-0.41368 1.6586 0.34506 0.55833-2.4601-0.5379-6.2337-2.4361-3.7736-1.8982-8.3087-4.0095-10.078-4.6918-3.4555-1.3327-6.4026-4.0254-4.4056-4.0254 2.1799 0 2.6373-0.15494 4.1224-1.3966 2.221-1.8569 18.997-9.6272 19.015-8.8073 8e-3 0.38716 0.34592 0.20187 0.75-0.41175 0.40408-0.61361 2.5595-2.0405 4.7897-3.1709 3.7476-1.8994 4.1366-1.9285 5.131-0.38433 1.0024 1.5566 1.2826 1.5512 4.0993-0.0791 1.6628-0.9625 3.9664-1.75 5.119-1.75s2.0957-0.47656 2.0957-1.059 0.45-0.7809 1-0.44098c1.1624 0.71842 1.3553 2.5561 0.25 2.3816-0.4125-0.0651-1.425-0.0582-2.25 0.0153-1.2696 0.11319-1.2833 0.27091-0.0895 1.0266 0.85874 0.54361 2.0783 0.47589 3.1175-0.17313 0.93885-0.58633 2.5415-0.74582 3.5614-0.35444 1.5821 0.60712 1.6383 0.86018 0.38246 1.7233-1.1418 0.78477-0.99886 0.87978 0.63715 0.42353 2.6063-0.72684 5.0566 0.14379 5.7911 2.0576 0.42808 1.1156 0.15041 1.2294-1.2156 0.49833-1.3945-0.74633-1.8008-0.54313-1.9139 0.95718-0.0789 1.0476 0.27274 2.1619 0.78144 2.4763 0.51572 0.31873 0.63197-0.19178 0.26276-1.1539-0.52496-1.368-0.28016-1.579 1.1815-1.0181 1.014 0.38911 2.1222 0.25675 2.4627-0.29414 0.36249-0.58652 3.6251 0.73119 7.8726 3.1796 6.9808 4.024 7.1771 4.239 5.2185 5.7178-2.0005 1.5104-1.9901 1.5391 0.61059 1.6903 1.8941 0.11007 2.2471-0.0986 1.2424-0.73469-1.1918-0.75454-1.1845-0.89075 0.0481-0.90376 1.8453-0.0195 12.049 6.1244 12.049 7.255 0 0.46626 0.38986 0.60679 0.86635 0.3123 0.4765-0.29449 1.714 0.4313 2.75 1.6129 1.036 1.1816 1.2516 1.7764 0.47914 1.3219-0.95523-0.56206-1.173-0.45189-0.6809 0.34441 0.39798 0.64395 1.1062 0.93435 1.5739 0.64532 1.1418-0.70565 4.1788 2.4131 3.4688 3.562-0.30862 0.49935 0.13725 0.63993 0.99081 0.31239 0.85357-0.32755 1.5519-0.14554 1.5519 0.40446s-0.70352 1.27-1.5634 1.5999-1.2667 1.08-0.904 1.6668c0.41948 0.67873 1.1447 0.40843 1.9933-0.74294 1.2733-1.7276 1.428-1.7095 3.404 0.39835 1.1385 1.2145 2.0701 2.8754 2.0701 3.691s0.45682 1.7651 1.0152 2.1102c0.55833 0.34507 1.6892 2.2407 2.5131 4.2126 0.82388 1.9718 1.7297 3.3535 2.0128 3.0703 0.64645-0.64645-0.97551-4.5123-3.2693-7.7922-1.6784-2.3999-1.6761-2.4429 0.0559-1.0728 2.2845 1.8071 5.1634 7.1493 4.8086 8.9232-0.14853 0.7427 0.16808 1.0796 0.70357 0.74862 0.56868-0.35146 0.76838 0.33465 0.48013 1.6496-0.39641 1.8085-0.28272 1.9563 0.57795 0.75138 1.3313-1.8638 1.2584-2.956 1.4516 21.75 0.0828 10.587 0.15051 19.231 0.15051 19.208 0-0.0231-1.0478-1.6823-2.3285-3.6872zm-0.95487-10.688c0.94945-1.7853 0.7302-1.7257-1.5373 0.41776-1.4546 1.375-2.6525 2.8926-2.662 3.3724-0.0254 1.2804 2.9132-1.3718 4.1993-3.7902zm-5.7166-0.58224c0.33992-0.55-0.11008-1-1-1s-1.3399 0.45-1 1 0.78992 1 1 1 0.66008-0.45 1-1zm-1.7704-3.25c-0.24039-0.6875-1.2904-1.0999-2.3333-0.91643-1.5279 0.26878-1.6534 0.0842-0.64626-0.95 1.46-1.4992 1.6314-2.8836 0.35699-2.8836-1.8632 0-2.2071 3.4536-0.47029 4.7236 2.2222 1.6249 3.6561 1.6372 3.0929 0.0264zm-9.3278-7.5872c-1.3169-0.28729-1.276-0.55438 0.27634-1.8052 1.6858-1.3583 1.6538-1.3866-0.42809-0.37764-2.5987 1.2593-2.7023 1.617-1 3.4515 0.90891 0.97954 1.4475 1.0362 1.9737 0.2078 0.41182-0.64838 0.0576-1.2846-0.82192-1.4765zm0.28876-4.52c0.44297-0.44296-0.54369-0.50741-2.1926-0.14322-1.9206 0.42422-2.5346 0.33364-1.7086-0.25205 0.90169-0.63935 0.42564-0.91422-1.5833-0.91422-1.58 0-2.8727 0.4985-2.8727 1.1078 0 1.2644 7.1226 1.4363 8.3572 0.20171zm18.993-6.8303c-0.31922-0.79773-0.55618-0.56078-0.60416 0.60417-0.0434 1.0542 0.19293 1.6448 0.52522 1.3125s0.36781-1.1948 0.0789-1.9167zm-2.6831-3.9555c0-1.2933-2.882-1.704-3.8418-0.54755-0.71776 0.86485-0.3274 1.1906 1.4269 1.1906 1.3282 0 2.415-0.28936 2.415-0.64301zm-4.7654-5.0677c-0.6601-2.5242-1.4743-1.4986-1.7673 2.2262-0.20961 2.6646-0.0804 2.8376 1.0078 1.3495 0.68652-0.93887 1.0283-2.5479 0.75956-3.5757zm-36.735 3.2107c-0.33992-0.55-1.0415-1-1.559-1s-0.94098 0.45-0.94098 1 0.70156 1 1.559 1 1.2809-0.45 0.94098-1zm1.8413-2.25c-0.25263-0.4125-1.9178-0.75-3.7003-0.75s-3.8718-0.5625-4.6428-1.25c-1.1814-1.0534-1.2062-0.99012-0.15826 0.40275 0.83569 1.1107 0.89395 1.7693 0.17762 2.008-0.58624 0.19542 1.1501 0.35168 3.8586 0.34725 2.7085-4e-3 4.7178-0.34555 4.4651-0.75805zm-11.341-1.75c0-0.55-0.47656-1-1.059-1s-0.7809 0.45-0.44098 1 0.81648 1 1.059 1 0.44098-0.45 0.44098-1zm-19.5-9c-0.33992-0.55-1.154-0.99311-1.809-0.98469-0.71561 9e-3 -0.59227 0.40223 0.30902 0.98469 1.9211 1.2415 2.2673 1.2415 1.5 0zm-3.5-7c0-0.55-0.45-1-1-1s-1 0.45-1 1 0.45 1 1 1 1-0.45 1-1zm52.5-2c-0.33992-0.55-1.0415-1-1.559-1s-0.94098 0.45-0.94098 1 0.70156 1 1.559 1 1.2809-0.45 0.94098-1zm-3.0965-1.5043c1.8713-1.4163 1.8713-1.4526 0-2.1452-1.0469-0.38752-2.2165-1.1744-2.5991-1.7486-0.38259-0.57419-1.0247-0.71486-1.427-0.31261-0.40225 0.40226 0.13578 1.3874 1.1956 2.1892 1.7498 1.3238 1.7661 1.4608 0.177 1.4897-0.9625 0.0175-1.75 0.4818-1.75 1.0318 0 1.4287 2.1794 1.1791 4.4035-0.50429zm4.5965 0.0633c0-0.24254-0.45-0.7191-1-1.059s-1-0.14148-1 0.44098 0.45 1.059 1 1.059 1-0.19844 1-0.44098zm-72.5-1.559c-0.33992-0.55-1.154-0.99311-1.809-0.98469-0.71561 9e-3 -0.59227 0.40223 0.30902 0.98469 1.9211 1.2415 2.2673 1.2415 1.5 0zm1.6048-1.914c-1.1935-0.75574-1.1935-0.94956 0-1.3412 0.76733-0.25176 0.5558-0.32591-0.47008-0.16476-1.0259 0.16114-2.6538-0.19946-3.6175-0.80135-0.96377-0.60188-2.5868-0.7741-3.6068-0.38272-1.5688 0.60203-1.6278 0.85383-0.38246 1.635 0.80958 0.50785 2.147 0.71892 2.972 0.46903s2.175-0.0215 3 0.50752 1.95 0.96185 2.5 0.96185 0.37218-0.39753-0.39515-0.88341zm59.895-3.0546c0-0.53273-0.675-0.70959-1.5-0.39301-0.825 0.31659-1.5 0.75246-1.5 0.96862 0 0.21615 0.675 0.39301 1.5 0.39301s1.5-0.43588 1.5-0.96862zm-72.596-1.6427c0.45257-1.1794 0.19124-1.4474-0.9748-1-0.87622 0.33624-1.8079 0.61134-2.0704 0.61134-0.26248 0-0.19912 0.45 0.1408 1 0.91728 1.4842 2.2042 1.2133 2.9044-0.61134zm7.3636-2.3887c1.4478-2.3182 1.2198-2.4071-2.1895-0.85377-1.3836 0.63042-2.2782 1.5304-1.988 2 0.91076 1.4736 2.8786 0.93369 4.1776-1.1462zm2.9612-3.6042c-0.3323-0.33229-1.1948-0.36781-1.9167-0.0789-0.79773 0.31922-0.56078 0.55618 0.60417 0.60416 1.0542 0.0434 1.6448-0.19293 1.3125-0.52522zm6.9065-0.90199c-3.1695-1.653-6.6257-2.0546-5.0857-0.5909 0.97059 0.9225 3.7657 1.7783 6.45 1.9749 0.825 0.0604 0.21106-0.56239-1.3643-1.384zm36.031-0.17821c0-1.0103-0.33734-1.028-1.5833-0.0827-0.87083 0.66063-1.7467 1.3044-1.9464 1.4305-0.19967 0.12613 0.51283 0.16335 1.5833 0.0827 1.0705-0.0806 1.9464-0.72436 1.9464-1.4305zm5.5771 0.99704c-0.69093-0.26592-0.94205-1.0076-0.55804-1.6481 0.46913-0.78251 0.19493-0.75734-0.83578 0.0767-0.84368 0.68273-1.9022 0.90773-2.3523 0.5-0.45008-0.40772-0.55539-0.27716-0.23404 0.29015 0.32136 0.5673 1.631 1.0839 2.9103 1.1481 1.2793 0.0641 1.7607-0.10096 1.0698-0.36688zm-35.882-2.8127c-0.31659-0.825-1.4275-1.5-2.4686-1.5-2.1279 0-2.5583 1.5649-0.64301 2.3377 2.4402 0.98463 3.6826 0.65015 3.1116-0.83772zm3.1384-4.5c1.3187-0.56668 1.4891-0.87815 0.5-0.9144-0.825-0.0302-2.175 0.38124-3 0.9144-1.828 1.1813-0.24909 1.1813 2.5 0zm11.75-0.66228c-0.6875-0.27741-1.8125-0.27741-2.5 0s-0.125 0.50439 1.25 0.50439 1.9375-0.22698 1.25-0.50439zm-9.25-3.1525c0-0.44813 1.6036-1.5795 3.5636-2.5141 2.6887-1.2821 3.9776-1.4318 5.25-0.60971 1.5446 0.99799 1.5462 1.0465 0.0192 0.57727-0.95078-0.29219-1.9213 0.14968-2.2584 1.0282-0.34285 0.89346-1.2396 1.2918-2.1347 0.94831-0.88328-0.33895-1.2822-0.16945-0.93255 0.39624 0.33603 0.5437-0.31559 0.98855-1.448 0.98855s-2.059-0.36665-2.059-0.81479zm-81.753-6.1701c-1.1896-1.1083-2.8833-2.0151-3.7638-2.0151-0.95541 0-1.3132-0.46548-0.88731-1.1545 0.41098-0.66497 0.27728-0.88489-0.31532-0.51865-1.336 0.82573-11.534-4.7364-10.538-5.7477 0.41666-0.42312-0.14244-0.61402-1.2424-0.42423-1.2577 0.217-2-0.20657-2-1.1412 0-0.81747 0.9-1.6292 2-1.8038 1.6918-0.26854 1.7689-0.14056 0.5 0.83064-1.2346 0.94493-1.1461 1.0173 0.5 0.4092 1.1-0.40639 2.7545-0.77026 3.6766-0.80862 0.92212-0.0384 1.479-0.38942 1.2375-0.78014-0.24148-0.39073-3.2584-0.54343-6.7043-0.33934-7.939 0.47021-9.042-0.18704-9.6333-5.7403-0.0421-0.39523-0.76991-0.45253-1.6174-0.12731-0.93581 0.3591-1.4267 0.10135-1.25-0.65639 0.15999-0.68622-0.38411-1.4507-1.2091-1.6988-1.1888-0.35753-1.2232-0.25673-0.16615 0.48584 2.4394 1.7136-1.894 2.4059-4.4748 0.71492-2.7876-1.8265-3.0592-2.6621-0.6091-1.8739 1.4267 0.45896 1.4817 0.37299 0.29775-0.4654-0.79874-0.5656-1.831-0.79431-2.2938-0.50825s-1.5375-0.0575-2.388-0.76337c-1.3796-1.145-1.3829-1.4031-0.0305-2.392 1.3145-0.96117 1.2268-1.2886-0.6597-2.4633-1.9451-1.2112-2.038-1.1882-0.8771 0.21686 0.93214 1.1282 0.98391 1.7661 0.18347 2.2608-1.2639 0.78113-2.4711-0.1079-2.5045-1.8444-0.0123-0.64167-0.74864-1.0462-1.6362-0.89896-0.88757 0.14724-1.8758-0.41526-2.1962-1.25-0.32036-0.83474-1.1788-1.5177-1.9078-1.5177-2.3628 0-8.802-7.6393-8.1451-9.6631 0.48357-1.4897 0.3997-1.5588-0.44366-0.36588-0.57198 0.80907-1.2122 1.2591-1.4226 1-3.5038-4.3128-5.7272-7.971-4.8448-7.971 0.61528 0 1.1187 0.45 1.1187 1s0.5051 1 1.1224 1c0.77728 0 0.74099-0.45962-0.11802-1.4947-0.68226-0.82207-1.0194-2.34-0.74922-3.3732 0.3842-1.4692 0.06462-1.767-1.4665-1.3666-1.466 0.38337-1.6298 0.71463-0.65219 1.3188 0.71807 0.44379 0.95664 1.1558 0.53016 1.5823-1.311 1.311-2.5074-1.8028-2.2236-5.7874 0.16718-2.3471-0.15052-3.7068-0.83679-3.5814-0.60845 0.11115-1.187-1.1479-1.2856-2.7979-0.09864-1.65 0.03948-2.2508 0.30693-1.3351 0.26745 0.91567 1.083 1.8938 1.8123 2.1737 1.0608 0.40705 1.1195-0.16415 0.29362-2.8551-0.89266-2.9086-0.64906-4.1217 1.7993-8.9608 1.7783-3.5147 3.3175-5.4104 4.1375-5.0957 0.71816 0.27559 1.2578 0.17976 1.1993-0.21295-0.05853-0.3927-0.05314-1.6038 0.012-2.6913 0.10836-1.8092 0.34904-1.7467 2.8321 0.73636 2.1942 2.1942 2.47 2.9555 1.4408 3.9773-1.0272 1.0198-1.1562 0.95684-0.66813-0.32615 0.3506-0.92164-0.14984-2.1824-1.1908-3-1.6698-1.3115-1.6905-1.2763-0.29551 0.50241 1.1451 1.4601 1.2043 2.0122 0.25 2.3333-0.6875 0.2314-1.2431 1.1707-1.2347 2.0874 0.01324 1.4415 0.14627 1.464 0.98469 0.16667 0.88714-1.3728 1.4448-0.69741 1.0936 1.3243-0.07876 0.45338 0.32529 0.53479 0.89789 0.1809 0.5726-0.35388 0.78219-1.0623 0.46576-1.5743-0.31644-0.51199 0.15278-0.9309 1.0427-0.9309 1.6997 0 1.4175 0.93211-1.3626 4.5-0.8571 1.1-0.27944 0.80556 1.2837-0.65432l2.8421-2.6543 5.6184 4.5522c3.0901 2.5037 5.949 5.0482 6.3531 5.6543s0.74158 0.75826 0.75 0.33795c0.0188-0.93859 7.5933 3.917 11.015 7.0613l2.5 2.2971-2.9128-1.0843c-2.1019-0.78243-3.2155-0.77906-4 0.0121-0.78678 0.79347-0.55832 0.89493 0.82688 0.36722 1.131-0.43087 1.674-0.3407 1.3272 0.22039-0.64111 1.0373 3.8493 1.1331 4.8783 0.10408 0.7512-0.75119 5.9535 1.7863 6.9423 3.3862 0.46948 0.75963-0.0673 0.90583-1.6866 0.45936-2.0174-0.55621-2.1104-0.48886-0.61731 0.44699 0.96686 0.60603 2.2208 0.81581 2.7865 0.46617 0.56572-0.34963 6.2678 1.9121 12.671 5.0262 7.4828 3.6389 11.191 5.9407 10.38 6.4424-0.95585 0.59075-0.85793 0.93599 0.40266 1.4197 2.6554 1.019 4.1753 0.73316 2.5021-0.47049-1.2475-0.89739-1.1917-0.97897 0.33179-0.48468 1.0075 0.32688 2.0465 0.59433 2.309 0.59433 0.26248 0 0.15186 0.52647-0.24583 1.1699-0.48512 0.78495-0.17942 0.96133 0.92899 0.53599 1.0186-0.39088 1.5608-0.16846 1.414 0.58006-0.1309 0.6677 0.36669 1.0874 1.1058 0.93276s1.1424 0.29531 0.89626 1c-0.24613 0.70469-1.1883 1.149-2.0938 0.98741s-1.6463 0.1555-1.6463 0.70469c0 1.2047 6.0619 2.4645 8.6501 1.7977 1.0174-0.26211 0.10726-0.52876-2.0226-0.59256-3.3759-0.10113-3.7078-0.31441-2.5883-1.6633 0.7063-0.85104 1.5489-1.1885 1.8724-0.75 0.32355 0.43853 1.4719 0.95163 2.5518 1.1402 4.114 0.7184 7.3518 5.1412 3.7864 5.1724-1.4956 0.0131-1.5319 0.15626-0.25 0.98469 1.9584 1.2656 3.2822 1.2656 2.5 0-0.91529-1.481 0.71922-1.214 3.5275 0.57609 1.87 1.1921 1.7415 0.9255-0.52749-1.094-1.65-1.4685-2.55-2.4843-2-2.2572 6.0602 2.5021 11.5 5.3277 11.5 5.9735 0 1.1482-2.7646 0.99143-3.5-0.19847-0.33992-0.55-1.0736-1-1.6304-1-0.55682 0-0.30905 0.70336 0.55061 1.563 1.072 1.072 2.6325 1.393 4.9672 1.022 2.3385-0.37165 3.7945-0.0708 4.6509 0.96115 0.68567 0.82619 1.0701 1.659 0.85418 1.8507-0.21587 0.19169-9.3925 4.7847-20.392 10.207-11 5.422-20.245 9.9861-20.545 10.142-0.29989 0.15631-1.5186-0.62259-2.7082-1.7309zm2.2534-2.0151c-0.37832-1.192-0.1797-2 0.49163-2 0.61952 0 0.84829 0.45 0.50837 1s-0.16803 1 0.38197 1 1.2894-0.4683 1.6432-1.0407c0.35375-0.57237 1.6178-0.78093 2.809-0.46346 1.5737 0.4194 1.3947 0.1383-0.65461-1.0282-2.5677-1.4615-3.0353-1.4646-5.2178-0.0345-1.4571 0.9547-2.1719 2.1584-1.8226 3.0688 0.86804 2.2621 2.5906 1.7974 1.8609-0.50199zm-1.5-3.5448c0-0.18197-0.86882-0.26542-1.9307-0.18543-1.0619 0.08-1.7225 0.48237-1.468 0.89418 0.42244 0.68351 3.3987 0.0629 3.3987-0.70875zm-11.543-2.3861c0.31644-0.512 0.19299-1.1672-0.27431-1.456-0.46731-0.28881-0.84965 0.13009-0.84965 0.9309 0 1.6862 0.31534 1.8335 1.124 0.52511zm30.543-1.0691c0-0.55-0.45-1-1-1s-1 0.45-1 1 0.45 1 1 1 1-0.45 1-1zm-3-1.607c0-0.21615-0.675-0.39301-1.5-0.39301s-1.5 0.43588-1.5 0.96862c0 0.53273 0.675 0.70959 1.5 0.39301 0.825-0.31659 1.5-0.75246 1.5-0.96862zm7.342-0.71767c0.36189 0.3619 0.65799 0.41309 0.65799 0.11377s-0.62004-1.0588-1.3779-1.6877c-1.0843-0.89993-1.4936-0.70082-1.9213 0.93471-0.41626 1.5918-0.24776 1.8328 0.71986 1.0298 0.69484-0.57666 1.5594-0.75238 1.9213-0.39049zm6.658-2.6753c1.925-1.0539 3.0066-1.935 2.4036-1.9581-1.2533-0.04792-7.4036 2.8856-7.4036 3.5313 0 0.81161 1.5141 0.3352 5-1.5732zm5-4c-0.825-0.53316-2.175-0.96937-3-0.96937-1.3333 0-1.3333 0.1077 0 0.96937 0.825 0.53316 2.175 0.96937 3 0.96937 1.3333 0 1.3333-0.1077 0-0.96937zm3.4573 0.0691c0.31644-0.512 0.11799-1.2136-0.44098-1.559s-1.0163 0.0734-1.0163 0.9309c0 1.7565 0.60006 2.0152 1.4573 0.62812zm-14.457-5.0691c0.825-0.53316 1.05-0.96937 0.5-0.96937s-1.675 0.43621-2.5 0.96937-1.05 0.96937-0.5 0.96937 1.675-0.43621 2.5-0.96937zm-60.995-3.79c1.8917-1.7624 1.8893-1.7924-0.15485-1.9464-1.1419-0.086-1.8042 0.11557-1.4718 0.44797 0.3324 0.33239 0.10316 1.2083-0.50941 1.9464-1.6262 1.9594-0.10574 1.6406 2.1361-0.44796zm44.519-4.8291c-0.89048-0.89047-1.9221-1.316-2.2925-0.94562-0.37038 0.37038-0.0114 1.0921 0.79762 1.6037 2.3625 1.4941 3.2544 1.1014 1.4948-0.65811zm-58.524-2.3095c0-1.2026-2.8688-4.0714-4.0714-4.0714-0.51071 0-0.92857 0.47656-0.92857 1.059s0.43528 0.78999 0.96729 0.46119 1.5403 0.31965 2.2405 1.441c1.4092 2.2565 1.7922 2.4937 1.7922 1.1102zm50-5.5124c0-0.24254-0.45-0.7191-1-1.059s-1-0.14148-1 0.44098 0.45 1.059 1 1.059 1-0.19844 1-0.44098zm-4.5538-4.0235c-2.4-1.8151-3.824-1.9604-2.8-0.28555 1.6595 2.7141 2.8715 3.5657 3.8 2.6701 0.58794-0.56705 0.20927-1.47-1-2.3846zm-53.953-1.5241c0.35129-0.5684-0.05346-0.73358-0.95232-0.38866-1.1762 0.45135-1.4133 0.13899-0.9576-1.2614 0.48292-1.4841 0.39725-1.567-0.42268-0.40909-1.0789 1.5236-0.65893 3.0478 0.83968 3.0478 0.48508 0 1.1569-0.44485 1.4929-0.98855zm42.715-1.6876c-1.0556-0.42357-1.0556-0.80976 0-2.113 1.09-1.3456 1.0575-1.4533-0.20766-0.6896-0.82467 0.49781-2.8497 0.83853-4.5 0.75716-1.8704-0.0922-2.2472 0.0524-1.0006 0.38391 1.1 0.29252 2.4275 0.93818 2.95 1.4348 0.5225 0.49662 1.6475 0.86741 2.5 0.82399 1.0902-0.0555 1.1668-0.23269 0.25826-0.59724zm-7.7426-4.174c-0.56346-0.59314-2.4657 0.91014-2.4657 1.9486 0 0.53923 0.62961 0.40017 1.3991-0.30901 0.76953-0.70919 1.2495-1.447 1.0665-1.6396zm-36.486 0.32597c-0.69572-0.83829-1.5253-1.2638-1.8435-0.94562-0.3182 0.31819 0.08343 0.99718 0.8925 1.5088 2.117 1.3388 2.3936 1.175 0.95098-0.56323zm1.5612-2.4093c-0.36253-0.58659-1.1377-1.0665-1.7226-1.0665-0.66309 0-0.58723 0.57378 0.20152 1.5242 1.3715 1.6526 2.5973 1.2838 1.5211-0.45764zm36.459-0.45954c0-0.21616-0.69837-0.661-1.5519-0.98855-0.88992-0.34149-1.2913-0.17385-0.94098 0.39301 0.58726 0.95021 2.4929 1.4054 2.4929 0.59554zm-22.374-10.527c1.4333-1.1274 2.0145-2.184 1.4077-2.559-0.56843-0.35131-1.0335-0.16219-1.0335 0.42027s-0.48032 1.059-1.0674 1.059c-0.61231 0-0.79675-0.85269-0.43261-2 0.34913-1.1 0.26235-2-0.19283-2s-2.0605-1.1432-3.5674-2.5405c-1.5069-1.3973-2.7398-2.1984-2.7398-1.7802 0 0.41814 1.4625 2.0651 3.25 3.6599 1.7875 1.5948 2.4854 2.6438 1.5509 2.3312-1.258-0.42091-1.5384-0.14972-1.0801 1.0446 0.43468 1.1328 0.24092 1.3794-0.6507 0.8284-1.0021-0.61933-1.0305-0.33776-0.13475 1.336 1.3887 2.5949 1.633 2.6053 4.6904 0.2004zm-3.6258-0.07972c0-0.55 0.45-1 1-1s1 0.45 1 1-0.45 1-1 1-1-0.45-1-1zm6.5265 0.19313c-0.30789-0.30789-1.1148-6.4e-4 -1.7931 0.68278-0.98026 0.98762-0.8654 1.1025 0.5598 0.5598 0.98622-0.37553 1.5412-0.93469 1.2333-1.2426zm-21.399-7.9431c1.2695-1.6188 1.2225-1.64-0.62756-0.28297-1.1 0.80687-2.1875 1.5944-2.4167 1.75-0.22917 0.15563 0.05323 0.28297 0.62756 0.28297 0.57432 0 1.6618-0.7875 2.4167-1.75zm34.539 56.083c-0.93214-0.93213-0.83205-2.3333 0.16666-2.3333 0.45834 0 0.83334 0.675 0.83334 1.5 0 1.6994-0.0731 1.7602-1 0.83333zm-3.1667-2.3333c-0.33992-0.55-0.14148-1 0.44098-1s1.059 0.45 1.059 1-0.19844 1-0.44098 1-0.7191-0.45-1.059-1zm176.1-71.98c-14.54-12.585-35.117-24.819-73.772-43.859-13.02-6.4134-23.708-11.889-23.75-12.169-0.0424-0.27958 9.6152-5.2378 21.461-11.018l21.538-10.51 13.212 7.3761c23.319 13.019 43.418 27.118 42.055 29.5-0.36531 0.63844-0.28193 0.81316 0.18531 0.38827 0.46723-0.42489 2.7769 1.119 5.1326 3.431 3.0794 3.0222 4 4.5446 3.2757 5.4173-0.7252 0.8738-0.53777 1.1732 0.66917 1.069 1.0356-0.0894 2.5781 1.54 4.0351 4.2625 3.0718 5.7401 3.3341 17.28 0.51243 22.544-2.0014 3.7342-6.347 9.5266-7.1538 9.5357-0.275 3e-3 -3.6054-2.6823-7.401-5.9676zm-147.12-80.808c-18.527-8.9664-44.023-25.801-54.191-35.781-4.5862-4.5014-8.1351-9.0582-9.7402-12.506-2.4458-5.2543-2.5242-6.0687-2.493-25.925 0.03124-19.919 0.08058-20.41 1.7402-17.312 2.826 5.2738 11.061 14.171 18.831 20.346 12.43 9.878 32.602 21.737 63.904 37.571l30.026 15.188-21.55 10.414-21.55 10.414z" fill="#b53746"/>
  <path d="m307.17 371.27c-1.6607-2.5997-1.8288-3.233-0.58628-2.2077 1.6007 1.3208 1.648 1.2608 0.58213-0.73993-0.63808-1.1976-0.89486-2.9976-0.57064-4 0.43384-1.3412 0.0746-1.1924-1.3605 0.56359-1.1356 1.3895-2.214 1.9589-2.5821 1.3633-0.34764-0.5625 0.0625-1.5992 0.91151-2.3038 0.84897-0.70458 2.0353-2.2181 2.6363-3.3633 0.8296-1.5808 0.41295-1.4106-1.7303 0.7071l-2.823 2.7894-5.0532-4.7894c-2.7792-2.6341-5.2548-4.9065-5.5013-5.0497-0.24648-0.14319 0.41901-0.91637 1.4789-1.7182 2.1436-1.6217 1.2332-2.0233-1.3964-0.616-1.965 1.0517-6.7393-2.186-5.701-3.8661 0.36257-0.58664 5e-3 -0.77719-0.84639-0.45062-0.81104 0.31123-2.3031-0.25643-3.3157-1.2614-1.0126-1.005-3.0922-2.3892-4.6215-3.076-1.5292-0.68677-2.7072-1.8118-2.6178-2.5 0.0894-0.68823 0.10242-1.9263 0.0288-2.7513-0.11893-1.3333-0.25284-1.3333-1.2052 0-0.87597 1.2264-0.98942 1.1199-0.62189-0.58333 0.27032-1.2528-0.0564-2.0833-0.81938-2.0833-0.87837 0-1.0196 0.6412-0.45889 2.0833 0.44551 1.1458 1.3367 1.9597 1.9804 1.8086 0.64374-0.15112 0.88101 0.19352 0.52727 0.76588-0.41864 0.67737-1.6593 0.44041-3.554-0.6788-2.0317-1.2002-2.5394-1.9554-1.6812-2.5006 0.75944-0.48243 0.15551-0.78697-1.5794-0.79643-1.615-9e-3 -2.5463-0.44037-2.191-1.0153 0.33992-0.55-0.13303-1-1.051-1-2.6759 0-13.471-6.1549-12.774-7.283 0.35024-0.5667 0.14802-0.72561-0.4517-0.35497-0.59721 0.3691-2.8042-0.11053-4.9045-1.0658-5.0099-2.2788-4.8822-2.144-3.377-3.5629 1.0376-0.97815 1.4032-0.9747 1.7667 0.0167 0.52087 1.4206 4.1271 1.6406 6.1255 0.37385 1.064-0.67448 0.9969-0.97482-0.33179-1.4847-2.4452-0.93835-3.2232-0.75146-1.502 0.36081 2.5235 1.6308-0.73851 1.1866-4.1174-0.56074-1.66-0.8584-3.5501-1.3439-4.2003-1.0789-0.65022 0.26498-0.36815 0.51731 0.62681 0.56073 0.99496 0.0434 1.5287 0.53253 1.1861 1.0869-1.2634 2.0443-10.162-1.1655-10.162-3.6656 0-0.99533 0.66154-1.3155 1.9967-0.96632 1.8372 0.48043 1.8678 0.39323 0.38352-1.091-1.3253-1.3253-1.8879-1.3852-3.1524-0.3358-0.84655 0.70257-1.2648 1.7213-0.92951 2.2639 0.72799 1.1779-2.2025-0.33291-5.1317-2.6456-1.9-1.5002-1.8556-1.5274 0.88869-0.54529 1.5888 0.56859 3.1507 0.77175 3.471 0.45146 0.86111-0.86111-1.9763-2.3661-3.4179-1.8129-0.68174 0.26161-1.5105 0.0372-1.8417-0.49864-0.33118-0.53586-1.5017-0.73905-2.6012-0.45154-1.8454 0.48258-2.531-0.51168-2.0926-3.0348 0.0787-0.45338-0.3253-0.53479-0.8979-0.1809-0.57259 0.35388-0.74482 1.1228-0.38272 1.7087s-1.9931-0.30985-5.2337-1.9905-8.0296-3.9658-10.642-5.0781c-2.6125-1.1123-4.7403-2.3851-4.7284-2.8286 0.0393-1.4673 11.689-6.1906 14.113-5.7222 2.112 0.40809 2.151 0.35958 0.36495-0.45342-1.857-0.84533-1.7856-0.99439 1-2.0856 1.65-0.64638 6.0411-2.7225 9.758-4.6136 5.5532-2.8254 7.0884-3.232 8.6112-2.281 1.4671 0.91621 2.3452 0.81276 4.2145-0.49653 1.2987-0.90964 3.3861-1.6539 4.6388-1.6539 1.2526 0 2.2775-0.47656 2.2775-1.059s0.45-0.7809 1-0.44098c1.1624 0.71842 1.3553 2.5561 0.25 2.3816-0.4125-0.0651-1.425-0.0582-2.25 0.0153-1.2696 0.11319-1.2833 0.27091-0.0895 1.0266 0.85874 0.54361 2.0783 0.47589 3.1175-0.17313 0.93885-0.58633 2.5415-0.74582 3.5614-0.35444 1.5821 0.60712 1.6383 0.86018 0.38246 1.7233-1.1418 0.78477-0.99886 0.87978 0.63715 0.42353 2.6063-0.72684 5.0566 0.14379 5.7911 2.0576 0.42808 1.1156 0.15041 1.2294-1.2156 0.49833-1.3945-0.74633-1.8008-0.54313-1.9139 0.95718-0.0789 1.0476 0.27274 2.1619 0.78144 2.4763 0.51572 0.31873 0.63197-0.19178 0.26276-1.1539-0.52496-1.368-0.28016-1.579 1.1815-1.0181 1.014 0.38911 2.1222 0.25675 2.4627-0.29414 0.36249-0.58652 3.6251 0.73119 7.8726 3.1796 6.9808 4.024 7.1771 4.239 5.2185 5.7178-2.0005 1.5104-1.9901 1.5391 0.61059 1.6903 1.8941 0.11007 2.2471-0.0986 1.2424-0.73469-1.1918-0.75454-1.1845-0.89075 0.0481-0.90376 1.8453-0.0195 12.049 6.1244 12.049 7.255 0 0.46626 0.38986 0.60679 0.86635 0.3123 0.4765-0.29449 1.714 0.4313 2.75 1.6129 1.036 1.1816 1.2516 1.7764 0.47914 1.3219-0.95523-0.56206-1.173-0.45189-0.6809 0.34441 0.39798 0.64395 1.1062 0.93435 1.5739 0.64532 1.1418-0.70565 4.1788 2.4131 3.4688 3.562-0.30862 0.49935 0.13725 0.63993 0.99081 0.31239 0.85357-0.32755 1.5519-0.14554 1.5519 0.40446s-0.70352 1.27-1.5634 1.5999-1.2667 1.08-0.904 1.6668c0.41948 0.67873 1.1447 0.40843 1.9933-0.74294 1.2733-1.7276 1.428-1.7095 3.404 0.39835 1.1385 1.2145 2.0701 2.8754 2.0701 3.691s0.45682 1.7651 1.0152 2.1102c0.55833 0.34507 1.6892 2.2407 2.5131 4.2126 0.82388 1.9718 1.7297 3.3535 2.0128 3.0703 0.64645-0.64645-0.97551-4.5123-3.2693-7.7922-1.6784-2.3999-1.6761-2.4429 0.0559-1.0728 2.2845 1.8071 5.1634 7.1493 4.8086 8.9232-0.14853 0.7427 0.16808 1.0796 0.70357 0.74862 0.56868-0.35146 0.76838 0.33465 0.48013 1.6496-0.39641 1.8085-0.28272 1.9563 0.57795 0.75138 1.3313-1.8638 1.2584-2.956 1.4516 21.75 0.0828 10.587 0.15051 19.231 0.15051 19.208 0-0.0231-1.0478-1.6823-2.3285-3.6872zm-6.6715-11.27c0.33992-0.55-0.11008-1-1-1s-1.3399 0.45-1 1 0.78992 1 1 1 0.66008-0.45 1-1zm-1.7704-3.25c-0.24039-0.6875-1.2904-1.0999-2.3333-0.91643-1.5279 0.26878-1.6534 0.0842-0.64626-0.95 1.46-1.4992 1.6314-2.8836 0.35699-2.8836-1.8632 0-2.2071 3.4536-0.47029 4.7236 2.2222 1.6249 3.6561 1.6372 3.0929 0.0264zm-9.3278-7.5872c-1.3169-0.28729-1.276-0.55438 0.27634-1.8052 1.6858-1.3583 1.6538-1.3866-0.42809-0.37764-2.5987 1.2593-2.7023 1.617-1 3.4515 0.90891 0.97954 1.4475 1.0362 1.9737 0.2078 0.41182-0.64838 0.0576-1.2846-0.82192-1.4765zm0.28876-4.52c0.44297-0.44296-0.54369-0.50741-2.1926-0.14322-1.9206 0.42422-2.5346 0.33364-1.7086-0.25205 0.90169-0.63935 0.42564-0.91422-1.5833-0.91422-1.58 0-2.8727 0.4985-2.8727 1.1078 0 1.2644 7.1226 1.4363 8.3572 0.20171zm18.993-6.8303c-0.31922-0.79773-0.55618-0.56078-0.60416 0.60417-0.0434 1.0542 0.19293 1.6448 0.52522 1.3125s0.36781-1.1948 0.0789-1.9167zm-2.6831-3.9555c0-1.2933-2.882-1.704-3.8418-0.54755-0.71776 0.86485-0.3274 1.1906 1.4269 1.1906 1.3282 0 2.415-0.28936 2.415-0.64301zm-4.7654-5.0677c-0.6601-2.5242-1.4743-1.4986-1.7673 2.2262-0.20961 2.6646-0.0804 2.8376 1.0078 1.3495 0.68652-0.93887 1.0283-2.5479 0.75956-3.5757zm-36.735 3.2107c-0.33992-0.55-1.0415-1-1.559-1s-0.94098 0.45-0.94098 1 0.70156 1 1.559 1 1.2809-0.45 0.94098-1zm1.8413-2.25c-0.25263-0.4125-1.9178-0.75-3.7003-0.75s-3.8718-0.5625-4.6428-1.25c-1.1814-1.0534-1.2062-0.99012-0.15826 0.40275 0.83569 1.1107 0.89395 1.7693 0.17762 2.008-0.58624 0.19542 1.1501 0.35168 3.8586 0.34725 2.7085-4e-3 4.7178-0.34555 4.4651-0.75805zm-11.341-1.75c0-0.55-0.47656-1-1.059-1s-0.7809 0.45-0.44098 1 0.81648 1 1.059 1 0.44098-0.45 0.44098-1zm-19.5-9c-0.33992-0.55-1.154-0.99311-1.809-0.98469-0.71561 9e-3 -0.59227 0.40223 0.30902 0.98469 1.9211 1.2415 2.2673 1.2415 1.5 0zm-3.5-7c0-0.55-0.45-1-1-1s-1 0.45-1 1 0.45 1 1 1 1-0.45 1-1zm52.5-2c-0.33992-0.55-1.0415-1-1.559-1s-0.94098 0.45-0.94098 1 0.70156 1 1.559 1 1.2809-0.45 0.94098-1zm-3.0965-1.5043c1.8713-1.4163 1.8713-1.4526 0-2.1452-1.0469-0.38752-2.2165-1.1744-2.5991-1.7486-0.38259-0.57419-1.0247-0.71486-1.427-0.31261-0.40225 0.40226 0.13578 1.3874 1.1956 2.1892 1.7498 1.3238 1.7661 1.4608 0.177 1.4897-0.9625 0.0175-1.75 0.4818-1.75 1.0318 0 1.4287 2.1794 1.1791 4.4035-0.50429zm4.5965 0.0633c0-0.24254-0.45-0.7191-1-1.059s-1-0.14148-1 0.44098 0.45 1.059 1 1.059 1-0.19844 1-0.44098zm-72.5-1.559c-0.33992-0.55-1.154-0.99311-1.809-0.98469-0.71561 9e-3 -0.59227 0.40223 0.30902 0.98469 1.9211 1.2415 2.2673 1.2415 1.5 0zm1.6048-1.914c-1.1935-0.75574-1.1935-0.94956 0-1.3412 0.76733-0.25176 0.5558-0.32591-0.47008-0.16476-1.0259 0.16114-2.6538-0.19946-3.6175-0.80135-0.96377-0.60188-2.5868-0.7741-3.6068-0.38272-1.5688 0.60203-1.6278 0.85383-0.38246 1.635 0.80958 0.50785 2.147 0.71892 2.972 0.46903s2.175-0.0215 3 0.50752 1.95 0.96185 2.5 0.96185 0.37218-0.39753-0.39515-0.88341zm59.895-3.0546c0-0.53273-0.675-0.70959-1.5-0.39301-0.825 0.31659-1.5 0.75246-1.5 0.96862 0 0.21615 0.675 0.39301 1.5 0.39301s1.5-0.43588 1.5-0.96862zm-72.596-1.6427c0.45257-1.1794 0.19124-1.4474-0.9748-1-0.87622 0.33624-1.8079 0.61134-2.0704 0.61134-0.26248 0-0.19912 0.45 0.1408 1 0.91728 1.4842 2.2042 1.2133 2.9044-0.61134zm7.3636-2.3887c1.4478-2.3182 1.2198-2.4071-2.1895-0.85377-1.3836 0.63042-2.2782 1.5304-1.988 2 0.91076 1.4736 2.8786 0.93369 4.1776-1.1462zm9.8678-4.5062c-3.1695-1.653-6.6257-2.0546-5.0857-0.5909 0.97059 0.9225 3.7657 1.7783 6.45 1.9749 0.825 0.0604 0.21106-0.56239-1.3643-1.384zm36.031-0.17821c0-1.0103-0.33734-1.028-1.5833-0.0827-0.87083 0.66063-1.7467 1.3044-1.9464 1.4305-0.19967 0.12613 0.51283 0.16335 1.5833 0.0827 1.0705-0.0806 1.9464-0.72436 1.9464-1.4305zm5.5771 0.99704c-0.69093-0.26592-0.94205-1.0076-0.55804-1.6481 0.46913-0.78251 0.19493-0.75734-0.83578 0.0767-0.84368 0.68273-1.9022 0.90773-2.3523 0.5-0.45008-0.40772-0.55539-0.27716-0.23404 0.29015 0.32136 0.5673 1.631 1.0839 2.9103 1.1481 1.2793 0.0641 1.7607-0.10096 1.0698-0.36688zm-35.882-2.8127c-0.31659-0.825-1.4275-1.5-2.4686-1.5-2.1279 0-2.5583 1.5649-0.64301 2.3377 2.4402 0.98463 3.6826 0.65015 3.1116-0.83772zm3.1384-4.5c1.3187-0.56668 1.4891-0.87815 0.5-0.9144-0.825-0.0302-2.175 0.38124-3 0.9144-1.828 1.1813-0.24909 1.1813 2.5 0zm11.75-0.66228c-0.6875-0.27741-1.8125-0.27741-2.5 0s-0.125 0.50439 1.25 0.50439 1.9375-0.22698 1.25-0.50439zm-9.25-2.8174c0-0.26382 1.7157-1.355 3.8127-2.4248 2.7024-1.3786 4.2313-1.6536 5.25-0.94419 1.2497 0.87024 1.2496 0.95017-2e-4 0.61227-0.79063-0.21375-2.2531 0.42699-3.25 1.4239-1.6117 1.6117-5.8125 2.575-5.8125 1.3328zm-82.357-7.0203c-0.825-0.825-2.2337-1.5-3.1304-1.5-0.97779 0-1.3448-0.46214-0.91692-1.1545 0.41098-0.66497 0.27728-0.88489-0.31532-0.51865-1.336 0.82573-11.534-4.7364-10.538-5.7477 0.41666-0.42312-0.14244-0.61402-1.2424-0.42423-1.2577 0.217-2-0.20657-2-1.1412 0-0.81747 0.9-1.6292 2-1.8038 1.6918-0.26854 1.7689-0.14056 0.5 0.83064-1.2346 0.94493-1.1461 1.0173 0.5 0.4092 1.1-0.40639 2.7545-0.77026 3.6766-0.80862 0.92212-0.0384 1.479-0.38942 1.2375-0.78014-0.24148-0.39073-3.2584-0.54343-6.7043-0.33934-7.939 0.47021-9.042-0.18704-9.6333-5.7403-0.0421-0.39523-0.76991-0.45253-1.6174-0.12731-0.93581 0.3591-1.4267 0.10135-1.25-0.65639 0.15999-0.68622-0.38411-1.4507-1.2091-1.6988-1.1888-0.35753-1.2232-0.25673-0.16615 0.48584 2.4394 1.7136-1.894 2.4059-4.4748 0.71492-2.7876-1.8265-3.0592-2.6621-0.6091-1.8739 1.4267 0.45896 1.4817 0.37299 0.29775-0.4654-0.79874-0.5656-1.831-0.79431-2.2938-0.50825s-1.5375-0.0575-2.388-0.76337c-1.3796-1.145-1.3829-1.4031-0.0305-2.392 1.3145-0.96117 1.2268-1.2886-0.6597-2.4633-1.9451-1.2112-2.038-1.1882-0.8771 0.21686 0.93214 1.1282 0.98391 1.7661 0.18347 2.2608-1.2639 0.78113-2.4711-0.1079-2.5045-1.8444-0.0123-0.64167-0.74864-1.0462-1.6362-0.89896-0.88757 0.14724-1.8758-0.41526-2.1962-1.25-0.32036-0.83474-1.1788-1.5177-1.9078-1.5177-2.3628 0-8.802-7.6393-8.1451-9.6631 0.48357-1.4897 0.3997-1.5588-0.44366-0.36588-0.57198 0.80907-1.2122 1.2591-1.4226 1-3.5038-4.3128-5.7272-7.971-4.8448-7.971 0.61528 0 1.1187 0.45 1.1187 1s0.5051 1 1.1224 1c0.77728 0 0.74099-0.45962-0.11802-1.4947-0.68226-0.82207-1.0194-2.34-0.74922-3.3732 0.3842-1.4692 0.06462-1.767-1.4665-1.3666-1.466 0.38337-1.6298 0.71463-0.65219 1.3188 0.71807 0.44379 0.95664 1.1558 0.53016 1.5823-1.311 1.311-2.5074-1.8028-2.2236-5.7874 0.16718-2.3471-0.15052-3.7068-0.83679-3.5814-0.60845 0.11115-1.187-1.1479-1.2856-2.7979-0.09864-1.65 0.03948-2.2508 0.30693-1.3351 0.26745 0.91567 1.083 1.8938 1.8123 2.1737 1.0608 0.40705 1.1195-0.16415 0.29362-2.8551-0.89266-2.9086-0.64906-4.1217 1.7993-8.9608 1.7783-3.5147 3.3175-5.4104 4.1375-5.0957 0.71816 0.27559 1.2578 0.17976 1.1993-0.21295-0.05853-0.3927-0.05314-1.6038 0.012-2.6913 0.10836-1.8092 0.34904-1.7467 2.8321 0.73636 2.1942 2.1942 2.47 2.9555 1.4408 3.9773-1.0272 1.0198-1.1562 0.95684-0.66813-0.32615 0.3506-0.92164-0.14984-2.1824-1.1908-3-1.6698-1.3115-1.6905-1.2763-0.29551 0.50241 1.1451 1.4601 1.2043 2.0122 0.25 2.3333-0.6875 0.2314-1.2431 1.1707-1.2347 2.0874 0.01324 1.4415 0.14627 1.464 0.98469 0.16667 0.88714-1.3728 1.4448-0.69741 1.0936 1.3243-0.07876 0.45338 0.32529 0.53479 0.89789 0.1809 0.5726-0.35388 0.78219-1.0623 0.46576-1.5743-0.31644-0.51199 0.15278-0.9309 1.0427-0.9309 1.6997 0 1.4175 0.93211-1.3626 4.5-0.8571 1.1-0.27944 0.80556 1.2837-0.65432l2.8421-2.6543 5.6184 4.5522c3.0901 2.5037 5.949 5.0482 6.3531 5.6543s0.74158 0.75826 0.75 0.33795c0.0188-0.93859 7.5933 3.917 11.015 7.0613l2.5 2.2971-2.9128-1.0843c-2.1019-0.78243-3.2155-0.77906-4 0.0121-0.78678 0.79347-0.55832 0.89493 0.82688 0.36722 1.131-0.43087 1.674-0.3407 1.3272 0.22039-0.64111 1.0373 3.8493 1.1331 4.8783 0.10408 0.7512-0.75119 5.9535 1.7863 6.9423 3.3862 0.46948 0.75963-0.0673 0.90583-1.6866 0.45936-2.0174-0.55621-2.1104-0.48886-0.61731 0.44699 0.96686 0.60603 2.2208 0.81581 2.7865 0.46617 0.56572-0.34963 6.2678 1.9121 12.671 5.0262 7.7874 3.787 11.208 5.9302 10.331 6.4722-1.8193 1.1244 2.0413 2.3161 4.4762 1.3818 1.1601-0.44519 1.5698-0.3121 1.1466 0.37254-0.64475 1.0432 2.0076 2.7775 3.674 2.4022 0.46406-0.10451 0.64238 0.38655 0.39626 1.0912-0.24613 0.70469-1.1883 1.149-2.0938 0.98741s-1.6463 0.1555-1.6463 0.70469c0 1.2047 6.0619 2.4645 8.6501 1.7977 1.0174-0.26211 0.10726-0.52876-2.0226-0.59256-3.3759-0.10113-3.7078-0.31441-2.5883-1.6633 0.7063-0.85104 1.5489-1.1885 1.8724-0.75 0.32355 0.43853 1.4719 0.95163 2.5518 1.1402 4.114 0.7184 7.3518 5.1412 3.7864 5.1724-1.4956 0.0131-1.5319 0.15626-0.25 0.98469 1.9584 1.2656 3.2822 1.2656 2.5 0-0.91529-1.481 0.71922-1.214 3.5275 0.57609 1.87 1.1921 1.7415 0.9255-0.52749-1.094-1.65-1.4685-2.55-2.4843-2-2.2572 6.0602 2.5021 11.5 5.3277 11.5 5.9735 0 1.1482-2.7646 0.99143-3.5-0.19847-0.33992-0.55-1.0736-1-1.6304-1-0.55682 0-0.30905 0.70336 0.55061 1.563 1.072 1.072 2.6325 1.393 4.9672 1.022 2.239-0.35584 3.7962-0.0687 4.5494 0.83886 0.9352 1.1268-1.725 2.7714-14.507 8.9681-8.6089 4.1735-16.122 7.2982-16.696 6.9436-0.57366-0.35454-0.77069-0.20398-0.43784 0.33458 0.5531 0.89495-7.1449 5.3298-9.2515 5.3298-0.496 0-1.5768-0.675-2.4018-1.5zm2.8571-1.5c-0.37832-1.192-0.1797-2 0.49163-2 0.61952 0 0.84829 0.45 0.50837 1s-0.16803 1 0.38197 1 1.2894-0.4683 1.6432-1.0407c0.35375-0.57237 1.6178-0.78093 2.809-0.46346 1.5737 0.4194 1.3947 0.1383-0.65461-1.0282-2.5677-1.4615-3.0353-1.4646-5.2178-0.0345-1.4571 0.9547-2.1719 2.1584-1.8226 3.0688 0.86804 2.2621 2.5906 1.7974 1.8609-0.50199zm-1.5-3.5448c0-0.18197-0.86882-0.26542-1.9307-0.18543-1.0619 0.08-1.7225 0.48237-1.468 0.89418 0.42244 0.68351 3.3987 0.0629 3.3987-0.70875zm-11.543-2.3861c0.31644-0.512 0.19299-1.1672-0.27431-1.456-0.46731-0.28881-0.84965 0.13009-0.84965 0.9309 0 1.6862 0.31534 1.8335 1.124 0.52511zm30.543-1.0691c0-0.55-0.45-1-1-1s-1 0.45-1 1 0.45 1 1 1 1-0.45 1-1zm-3-1.607c0-0.21615-0.675-0.39301-1.5-0.39301s-1.5 0.43588-1.5 0.96862c0 0.53273 0.675 0.70959 1.5 0.39301 0.825-0.31659 1.5-0.75246 1.5-0.96862zm7.342-0.71767c0.36189 0.3619 0.65799 0.41309 0.65799 0.11377s-0.62004-1.0588-1.3779-1.6877c-1.0843-0.89993-1.4936-0.70082-1.9213 0.93471-0.41626 1.5918-0.24776 1.8328 0.71986 1.0298 0.69484-0.57666 1.5594-0.75238 1.9213-0.39049zm6.658-2.6753c1.925-1.0539 3.0066-1.935 2.4036-1.9581-1.2533-0.04792-7.4036 2.8856-7.4036 3.5313 0 0.81161 1.5141 0.3352 5-1.5732zm5-4c-0.825-0.53316-2.175-0.96937-3-0.96937-1.3333 0-1.3333 0.1077 0 0.96937 0.825 0.53316 2.175 0.96937 3 0.96937 1.3333 0 1.3333-0.1077 0-0.96937zm3.4573 0.0691c0.31644-0.512 0.11799-1.2136-0.44098-1.559s-1.0163 0.0734-1.0163 0.9309c0 1.7565 0.60006 2.0152 1.4573 0.62812zm-14.457-5.0691c0.825-0.53316 1.05-0.96937 0.5-0.96937s-1.675 0.43621-2.5 0.96937-1.05 0.96937-0.5 0.96937 1.675-0.43621 2.5-0.96937zm-60.995-3.79c1.8917-1.7624 1.8893-1.7924-0.15485-1.9464-1.1419-0.086-1.8042 0.11557-1.4718 0.44797 0.3324 0.33239 0.10316 1.2083-0.50941 1.9464-1.6262 1.9594-0.10574 1.6406 2.1361-0.44796zm44.519-4.8291c-0.89048-0.89047-1.9221-1.316-2.2925-0.94562-0.37038 0.37038-0.0114 1.0921 0.79762 1.6037 2.3625 1.4941 3.2544 1.1014 1.4948-0.65811zm-58.524-2.3095c0-1.2026-2.8688-4.0714-4.0714-4.0714-0.51071 0-0.92857 0.47656-0.92857 1.059s0.43528 0.78999 0.96729 0.46119 1.5403 0.31965 2.2405 1.441c1.4092 2.2565 1.7922 2.4937 1.7922 1.1102zm50-5.5124c0-0.24254-0.45-0.7191-1-1.059s-1-0.14148-1 0.44098 0.45 1.059 1 1.059 1-0.19844 1-0.44098zm-4.5538-4.0235c-2.4-1.8151-3.824-1.9604-2.8-0.28555 1.6595 2.7141 2.8715 3.5657 3.8 2.6701 0.58794-0.56705 0.20927-1.47-1-2.3846zm-53.953-1.5241c0.35129-0.5684-0.05346-0.73358-0.95232-0.38866-1.1762 0.45135-1.4133 0.13899-0.9576-1.2614 0.48292-1.4841 0.39725-1.567-0.42268-0.40909-1.0789 1.5236-0.65893 3.0478 0.83968 3.0478 0.48508 0 1.1569-0.44485 1.4929-0.98855zm42.715-1.6876c-1.0556-0.42357-1.0556-0.80976 0-2.113 1.09-1.3456 1.0575-1.4533-0.20766-0.6896-0.82467 0.49781-2.8497 0.83853-4.5 0.75716-1.8704-0.0922-2.2472 0.0524-1.0006 0.38391 1.1 0.29252 2.4275 0.93818 2.95 1.4348 0.5225 0.49662 1.6475 0.86741 2.5 0.82399 1.0902-0.0555 1.1668-0.23269 0.25826-0.59724zm-7.7426-4.174c-0.56346-0.59314-2.4657 0.91014-2.4657 1.9486 0 0.53923 0.62961 0.40017 1.3991-0.30901 0.76953-0.70919 1.2495-1.447 1.0665-1.6396zm-36.486 0.32597c-0.69572-0.83829-1.5253-1.2638-1.8435-0.94562-0.3182 0.31819 0.08343 0.99718 0.8925 1.5088 2.117 1.3388 2.3936 1.175 0.95098-0.56323zm1.5612-2.4093c-0.36253-0.58659-1.1377-1.0665-1.7226-1.0665-0.66309 0-0.58723 0.57378 0.20152 1.5242 1.3715 1.6526 2.5973 1.2838 1.5211-0.45764zm36.459-0.45954c0-0.21616-0.69837-0.661-1.5519-0.98855-0.88992-0.34149-1.2913-0.17385-0.94098 0.39301 0.58726 0.95021 2.4929 1.4054 2.4929 0.59554zm-22.374-10.527c1.4333-1.1274 2.0145-2.184 1.4077-2.559-0.56843-0.35131-1.0335-0.16219-1.0335 0.42027s-0.48032 1.059-1.0674 1.059c-0.61231 0-0.79675-0.85269-0.43261-2 0.34913-1.1 0.26235-2-0.19283-2s-2.0605-1.1432-3.5674-2.5405c-1.5069-1.3973-2.7398-2.1984-2.7398-1.7802 0 0.41814 1.4625 2.0651 3.25 3.6599 1.7875 1.5948 2.4854 2.6438 1.5509 2.3312-1.258-0.42091-1.5384-0.14972-1.0801 1.0446 0.43468 1.1328 0.24092 1.3794-0.6507 0.8284-1.0021-0.61933-1.0305-0.33776-0.13475 1.336 1.3887 2.5949 1.633 2.6053 4.6904 0.2004zm-3.6258-0.07972c0-0.55 0.45-1 1-1s1 0.45 1 1-0.45 1-1 1-1-0.45-1-1zm6.5265 0.19313c-0.30789-0.30789-1.1148-6.4e-4 -1.7931 0.68278-0.98026 0.98762-0.8654 1.1025 0.5598 0.5598 0.98622-0.37553 1.5412-0.93469 1.2333-1.2426zm-21.399-7.9431c1.2695-1.6188 1.2225-1.64-0.62756-0.28297-1.1 0.80687-2.1875 1.5944-2.4167 1.75-0.22917 0.15563 0.05323 0.28297 0.62756 0.28297 0.57432 0 1.6618-0.7875 2.4167-1.75zm34.539 56.083c-0.93214-0.93213-0.83205-2.3333 0.16666-2.3333 0.45834 0 0.83334 0.675 0.83334 1.5 0 1.6994-0.0731 1.7602-1 0.83333zm-3.1667-2.3333c-0.33992-0.55-0.14148-1 0.44098-1s1.059 0.45 1.059 1-0.19844 1-0.44098 1-0.7191-0.45-1.059-1z" fill="#398277"/>
  <path d="m307 370.75c-1.4215-1.9418-1.6856-2.6869-0.6562-1.8511 1.5669 1.2721 1.6454 1.1815 0.86655-1-0.47105-1.3194-0.72254-3.9739-0.55887-5.8989 0.28292-3.3276 0.22216-3.4015-1.2332-1.5-1.4342 1.8738-1.5933 1.8896-2.5227 0.25-0.54556-0.9625-1.7571-1.7497-2.6922-1.7493-1.2983 5e-4 -1.7003-0.88612-1.7003-3.75 0-3.3314-0.30189-3.7855-2.7006-4.0623-1.4853-0.17141-3.5607 0.14869-4.612 0.71133-1.5158 0.81122-2.3559 0.54987-4.0586-1.2625-1.1809-1.257-1.8192-2.6134-1.4185-3.0142 0.40077-0.40077-0.11894-0.40341-1.1549-6e-3 -1.4205 0.54509-1.68 0.39338-1.0555-0.61709 0.60246-0.97481 0.3819-1.1687-0.80951-0.71147-0.90068 0.34562-1.987 0.0751-2.414-0.60112-0.42705-0.67624-2.0125-1.7722-3.5232-2.4356-2.4008-1.0541-2.6902-1.648-2.2977-4.7138 0.4052-3.1648 0.22375-3.4891-1.8557-3.317-1.8047 0.14937-2.1829 0.6343-1.7427 2.2348 0.48479 1.763 0.61213 1.8034 0.92586 0.2941 0.20007-0.9625 0.79661-1.75 1.3256-1.75 0.5614 0 0.48933 0.88292-0.17309 2.1207-0.89066 1.6642-0.86497 1.9538 0.11932 1.3455 0.80837-0.4996 1.003-0.3687 0.54762 0.36821-0.5093 0.82405-1.3879 0.69701-3.1459-0.45488-1.3416-0.87905-2.1916-1.999-1.8888-2.4889 0.30274-0.48971-0.62768-0.89049-2.0676-0.89049-1.4907 0-2.3519-0.4306-2-1 0.33992-0.55-0.0528-1-0.87278-1-2.2581 0-13.597-6.2396-13.024-7.1668 0.27543-0.44566-0.11566-0.57374-0.86909-0.28462-1.899 0.72873-6.8403-3.3637-6.507-5.3893 0.21617-1.3139-0.55675-1.6593-3.7128-1.6593-3.0112 0-4.0689-0.43086-4.3257-1.7622-0.20075-1.0408-0.82069-1.4739-1.5142-1.058-0.87819 0.52662-0.89348 0.34058-0.0606-0.73776 1.7647-2.2849 1.2594-4.5108-1.0304-4.5391-1.1458-0.0142-2.4551 0.45192-2.9095 1.0357-0.56798 0.72976-0.98462 0.67084-1.3333-0.18856-0.27897-0.6875-1.4822-1.2431-2.6739-1.2347-1.5682 0.0111-1.7982 0.24885-0.83282 0.86084 1.0755 0.68174 1.0294 0.96236-0.23801 1.4487-0.86452 0.33174-1.4648 0.28187-1.3338-0.11084 0.1309-0.3927 0.013-0.75047-0.262-0.79503-2.0421-0.3309-4.9298-2.7235-4.3735-3.6237 0.41519-0.6718 0.22394-0.82092-0.4883-0.38073-0.64395 0.39798-0.89144 1.1757-0.54997 1.7282 0.34146 0.55251-1.2236 0.0636-3.4779-1.0865-2.2543-1.1501-3.9889-2.6457-3.8545-3.3237 0.13864-0.6998-0.62034-1.1381-1.7558-1.014-1.1 0.12023-2.675-0.0659-3.5-0.41363-0.825-0.34772-1.725-0.69321-2-0.76775-3.1573-0.85579-5-1.8608-5-2.727 0-0.63303 0.63049-0.5318 1.5762 0.25308 1.3035 1.0818 1.7246 1.068 2.434-0.0798 0.47179-0.76337 0.63594-1.7469 0.36477-2.1857s0.18197-0.79775 1.007-0.79775 1.7781 0.45 2.118 1 0.0515 1-0.64098 1c-1.0056 0-1.0032 0.25156 0.012 1.25 1.0195 1.0026 1.6281 0.81318 3.0759-0.95748 0.99268-1.2141 2.1579-1.8891 2.5893-1.5 0.43146 0.38912 0.51702 0.23599 0.19013-0.34027s-0.28654-1.4763 0.0897-2c1.0639-1.4811 4.6511-4.0912 3.9012-2.8386-0.44494 0.74322 0.65538 1.1136 3.308 1.1136 2.4119 0 3.9747-0.46909 3.9747-1.193 0-0.65618 0.99846-1.1573 2.2188-1.1136 1.4948 0.0535 2.3078-0.57318 2.4915-1.9206l0.27272-2-0.92122 2c-0.50668 1.1-0.95286 1.4375-0.99151 0.75-0.0957-1.7022-2.8849-1.5782-4.6707 0.20751-0.80163 0.80163-2.1327 1.1984-2.958 0.88173-1.2776-0.49024-1.2361-0.77631 0.27894-1.9257 0.97866-0.74246 2.5118-1.3642 3.407-1.3817 0.89515-0.0175 2.1878-0.7068 2.8724-1.5318s1.7523-1.4931 2.3724-1.4847c0.62016 8e-3 0.47595 0.42756-0.32047 0.93141-0.93497 0.59151 0.12796 0.71013 3 0.33479 4.8173-0.62956 6.9102-2.3701 4.1614-3.461-1.6149-0.64088-1.6151-0.68399-2e-3 -0.75023 0.94108-0.0387 2.5276-0.94676 3.5256-2.018 1.354-1.4533 2.1888-1.6832 3.289-0.90567 1.2409 0.87704 1.2104 0.95792-0.19284 0.51084-0.93132-0.29672-1.9106 0.10305-2.2186 0.90567-0.38757 1.01 0.18198 1.4369 1.9172 1.4369 1.3577 0 2.4686-0.47656 2.4686-1.059s0.45-0.7809 1-0.44098c1.1624 0.71842 1.3553 2.5561 0.25 2.3816-0.4125-0.0651-1.3446-0.0651-2.0714 0-2.09 0.18729 1.2928 3.1333 3.5 3.0481 1.6755-0.0646 1.6665-0.13096-0.11219-0.82749-1.2147-0.47568-1.5248-1.0099-0.83392-1.4369 0.60484-0.37381 2.375-0.15165 3.9336 0.4937 3.0478 1.2619 3.8391 1.5217 5.2269 1.716 0.49116 0.0688 1.156 0.81041 1.4775 1.6481 0.45897 1.1961 0.20432 1.3197-1.1859 0.57565-1.4048-0.75183-1.8012-0.53903-1.9194 1.0306-0.082 1.0879 0.53758 2.2415 1.3767 2.5635 1.2251 0.47012 1.2654 0.74637 0.2045 1.402-0.92515 0.57177-0.70047 0.76981 0.74949 0.66058 1.1389-0.0858 2.0707-0.71587 2.0707-1.4002 0-0.68431-0.2625-1.2159-0.58334-1.1813-1.8343 0.19762-3.0838-0.30542-3.0838-1.2414 0-0.61231 0.85269-0.79675 2-0.43261 1.1215 0.35594 2 0.1797 2-0.40123 0-0.5698 0.67242-0.77797 1.4943-0.4626s1.2453 0.97625 0.94098 1.4686c-0.55406 0.8965 0.88177 1.2946 3.4151 0.94682 0.7427-0.10195 1.0514 0.29832 0.68606 0.88948-0.36536 0.59117-1.7697 0.8744-3.1207 0.62941s-2.2164-0.0571-1.9231 0.41757c0.29335 0.47466 1.9482 0.68395 3.6775 0.4651 3.5087-0.44405 10.141 2.2352 9.2199 3.7248-0.32578 0.52713-1.1468 0.74564-1.8245 0.48558-0.6777-0.26005-1.2322 0.0468-1.2321 0.68183 3e-5 0.63506 1.119 1.2238 2.4866 1.3084 1.8036 0.11152 2.1011-0.0903 1.0833-0.73469-1.1674-0.73913-1.1421-0.89102 0.15093-0.90376 1.7463-0.0172 10.333 5.1848 11.395 6.9032 0.3787 0.61275 1.0473 0.89236 1.4858 0.62135 0.43849-0.271 1.6449 0.47401 2.6809 1.6556 1.036 1.1816 1.2516 1.7764 0.47914 1.3219-0.95523-0.56206-1.173-0.45189-0.6809 0.34441 0.39798 0.64395 1.1062 0.93435 1.5739 0.64532 1.1418-0.70565 4.1788 2.4131 3.4688 3.562-0.30862 0.49935 0.13725 0.63993 0.99081 0.31239 0.85357-0.32755 1.5519-0.14554 1.5519 0.40446s-0.70352 1.27-1.5634 1.5999-1.2667 1.08-0.904 1.6668c0.41948 0.67873 1.1447 0.40843 1.9933-0.74294 1.2733-1.7276 1.428-1.7095 3.404 0.39835 1.1385 1.2145 2.0701 2.8469 2.0701 3.6276s0.675 1.9796 1.5 2.6643 1.5 1.7788 1.5 2.4313c0 0.65253 0.6983 2.0599 1.5518 3.1276 1.4906 1.8647 1.5244 1.843 0.85575-0.55103-0.61212-2.1918-0.50499-2.3336 0.88878-1.1769 0.87976 0.73013 1.3132 2.023 0.97431 2.9062-0.38052 0.99162-0.20491 1.3403 0.46618 0.92551 0.69261-0.42806 0.90065 0.13768 0.58319 1.586-0.39641 1.8085-0.28272 1.9563 0.57795 0.75138 0.90851-1.2719 1.09-1.1959 1.1932 0.5 0.12691 2.0837 0.45547 39.498 0.34687 39.499-0.0341 4.6e-4 -1.1326-1.4617-2.4412-3.2492zm-17.595-21.587c-1.3169-0.28729-1.276-0.55438 0.27634-1.8052 1.6858-1.3583 1.6538-1.3866-0.42809-0.37764-2.5987 1.2593-2.7023 1.617-1 3.4515 0.90891 0.97954 1.4475 1.0362 1.9737 0.2078 0.41182-0.64838 0.0576-1.2846-0.82192-1.4765zm0.28876-4.52c0.44297-0.44296-0.54369-0.50741-2.1926-0.14322-1.9206 0.42422-2.5346 0.33364-1.7086-0.25205 0.90169-0.63935 0.42564-0.91422-1.5833-0.91422-1.58 0-2.8727 0.4985-2.8727 1.1078 0 1.2644 7.1226 1.4363 8.3572 0.20171zm18.993-6.8303c-0.31922-0.79773-0.55618-0.56078-0.60416 0.60417-0.0434 1.0542 0.19293 1.6448 0.52522 1.3125s0.36781-1.1948 0.0789-1.9167zm-2.6831-3.9555c0-1.2933-2.882-1.704-3.8418-0.54755-0.71776 0.86485-0.3274 1.1906 1.4269 1.1906 1.3282 0 2.415-0.28936 2.415-0.64301zm-4.7654-5.0677c-0.6601-2.5242-1.4743-1.4986-1.7673 2.2262-0.20961 2.6646-0.0804 2.8376 1.0078 1.3495 0.68652-0.93887 1.0283-2.5479 0.75956-3.5757zm-36.735 3.2107c-0.33992-0.55-1.0415-1-1.559-1s-0.94098 0.45-0.94098 1 0.70156 1 1.559 1 1.2809-0.45 0.94098-1zm1.8413-2.25c-0.25263-0.4125-1.9178-0.75-3.7003-0.75s-3.8718-0.5625-4.6428-1.25c-1.1814-1.0534-1.2062-0.99012-0.15826 0.40275 0.83569 1.1107 0.89395 1.7693 0.17762 2.008-0.58624 0.19542 1.1501 0.35168 3.8586 0.34725 2.7085-4e-3 4.7178-0.34555 4.4651-0.75805zm-10.98-1.25c-0.31659-0.825-1.0326-1.5-1.5911-1.5-0.58531 0-0.48812 0.63541 0.22943 1.5 0.68469 0.825 1.4007 1.5 1.5911 1.5s0.0872-0.675-0.22943-1.5zm-5.8596-6.1392c1.3287-0.50987 1.3958-0.81021 0.33179-1.4847-1.9475-1.2345-3.602-1.036-1.8338 0.22005 1.155 0.82051 0.86756 0.92759-1.25 0.46563-1.5934-0.34762-2.75-0.17135-2.75 0.41912 0 1.1445 2.9742 1.3499 5.5021 0.37989zm34.998-12.361c-0.33992-0.55-1.0415-1-1.559-1s-0.94098 0.45-0.94098 1 0.70156 1 1.559 1 1.2809-0.45 0.94098-1zm-3.0965-1.5043c1.8713-1.4163 1.8713-1.4526 0-2.1452-1.0469-0.38752-2.2165-1.1744-2.5991-1.7486-0.38259-0.57419-1.0247-0.71486-1.427-0.31261-0.40225 0.40226 0.13578 1.3874 1.1956 2.1892 1.7498 1.3238 1.7661 1.4608 0.177 1.4897-0.9625 0.0175-1.75 0.4818-1.75 1.0318 0 1.4287 2.1794 1.1791 4.4035-0.50429zm4.5965 0.0633c0-0.24254-0.45-0.7191-1-1.059s-1-0.14148-1 0.44098 0.45 1.059 1 1.059 1-0.19844 1-0.44098zm-72.5-1.559c-0.33992-0.55-1.154-0.99311-1.809-0.98469-0.71561 9e-3 -0.59227 0.40223 0.30902 0.98469 1.9211 1.2415 2.2673 1.2415 1.5 0zm1.6048-1.914c-1.1935-0.75574-1.1935-0.94923 0-1.3389 0.76733-0.25052 0.37277-0.28504-0.87681-0.0767-1.3234 0.22062-2.4985-0.21164-2.8146-1.0353-0.57883-1.5084-4.0039-1.1067-5.0543 0.59277-0.35724 0.57802 0.16675 0.75319 1.2656 0.4231 1.0314-0.30983 3.0002 0.076 4.3752 0.85743 2.6962 1.5323 5.4098 2.0371 3.1048 0.57759zm61.491-2.2405c0.44208-0.7153 0.27432-0.88306-0.44098-0.44098-0.63498 0.39244-1.1545 0.25109-1.1545-0.31411s-0.7546-0.73806-1.6769-0.38415c-1.6845 0.64641-1.5344 0.78735 2.3679 2.2235 0.10504 0.0387 0.51207-0.44924 0.90451-1.0842zm-5.8663-0.44966c-0.33229-0.33229-1.1948-0.36781-1.9167-0.0789-0.79773 0.31922-0.56078 0.55618 0.60417 0.60416 1.0542 0.0434 1.6448-0.19293 1.3125-0.52522zm-30.729-16.121c-0.825-0.31223-1.8599-1.1767-2.2997-1.921s-1.3398-1.3465-2-1.3381c-0.73421 9e-3 -0.61783 0.39174 0.29969 0.98469 1.3333 0.86167 1.3333 0.97278 0 1-1.3333 0.0272-1.3333 0.13833 0 1 0.825 0.53316 2.4 0.94074 3.5 0.90574 1.4411-0.0458 1.5808-0.22227 0.5-0.63132zm56.44 70.909c0.53159-0.9203 0.20343-1.2214-1.0897-1-1.2803 0.21925-1.9488-0.3763-2.1699-1.9331-0.17575-1.2375 0.19207-2.25 0.81739-2.25 0.69615 0 0.89647 0.87231 0.51669 2.25l-0.62024 2.25 1.9879-2.2806 1.9879-2.2806-0.26997 2.5322c-0.14849 1.3927-0.6414 2.8689-1.0954 3.2806-0.45396 0.41162-0.48309 0.1558-0.0647-0.56848zm5.8582-32.409c-2.2682-2.9288-2.4079-4.1164-0.24138-2.052 1.2826 1.2222 2.0837 2.4706 1.7801 2.7742-0.30357 0.30357-0.99601-0.0214-1.5388-0.72222zm-75.298-9.1575c0-0.21085 0.90062-0.61888 2.0014-0.90674 1.1008-0.28785 1.7492-0.11534 1.441 0.38337-0.53825 0.87091-3.4424 1.3124-3.4424 0.52337zm-20.267-18.741c0.67834-0.68342 1.4852-0.99067 1.7931-0.68278s-0.24711 0.86705-1.2333 1.2426c-1.4252 0.54268-1.5401 0.42782-0.5598-0.5598zm22.267-11.935c0-0.58246 0.45-0.7809 1-0.44098s1 0.81648 1 1.059-0.45 0.44098-1 0.44098-1-0.47656-1-1.059zm-81.789-9.479c-1.0678-1.2106-1.0147-1.462 0.30902-1.462 0.99574 0 1.3272-0.47132 0.8791-1.25-0.39564-0.6875-0.3356-0.9009 0.13342-0.47423 1.1104 1.0101 1.6761 4.7355 0.71162 4.6862-0.40905-0.0209-1.324-0.69592-2.0332-1.5zm4.3729-0.10509c-0.81783-2.1312-0.22608-2.6402 3.3148-2.8508 2.5495-0.15167 2.7737 0.0464 1.8061 1.5957-0.60758 0.97288-1.472 1.5419-1.9208 1.2645s-0.52119-0.9817-0.16066-1.565c0.37869-0.61273 0.0688-0.85646-0.73368-0.57716-0.76406 0.26591-1.257 1.2243-1.0954 2.1297 0.3793 2.1251-0.39534 2.1271-1.2104 3e-3zm-10.109-2.399c-0.35424-0.57317-2.4029-1.7459-4.5525-2.606s-3.6412-1.9963-3.3146-2.5248c0.32662-0.52849-0.23879-0.8183-1.2565-0.64401-1.1126 0.19054-1.8504-0.27569-1.8504-1.1694 0-0.81747 0.9-1.6292 2-1.8038 1.6918-0.26854 1.7689-0.14056 0.5 0.83064-1.6318 1.249-0.92565 1.1219 3.414-0.61458 1.3445-0.538 1.6989-0.41777 1.191 0.40406-0.39769 0.64347-0.20901 1.1699 0.41929 1.1699 0.62829 0 0.95457-0.5625 0.72506-1.25-0.28231-0.84566-2.7468-1.25-7.619-1.25-7.9373 0-9.1961-0.82976-8.585-5.6587 0.19777-1.5627-0.069-2.8413-0.59291-2.8413-0.52387 0-0.83999 0.50625-0.70249 1.125s-0.32656 1.3359-1.0312 1.5938-1.1547-0.0797-1-0.75c0.15469-0.67031-0.39375-1.4218-1.2188-1.6699-1.1888-0.35753-1.2232-0.25673-0.16615 0.48584 2.4394 1.7136-1.894 2.4059-4.4748 0.71492-2.8037-1.8371-2.9516-2.3255-0.64741-2.1385 1.0261 0.0833 1.8042-0.66216 1.9426-1.8611 0.14698-1.2731 0.0521-1.4094-0.26094-0.375-0.47269 1.5618-5.3933 2.4002-5.3933 0.91898 0-0.38831-1.1035-1.2966-2.4522-2.0184s-2.3612-1.8104-2.25-2.419-0.53062-0.98693-1.4263-0.84067c-1.0372 0.16939-2.2709-1.1013-3.3978-3.5-1.7036-3.6259-3.136-5.2182-4.7237-5.2506-0.4125-8e-3 -0.75 0.46125-0.75 1.0437s0.39901 0.81241 0.88669 0.51101c1.1444-0.70726 3.6271 2.2495 2.6823 3.1943-0.39381 0.39381-2.1454-0.91912-3.8925-2.9176-8.3421-9.5427-10.517-12.336-9.9821-12.821 0.31867-0.28921 0.7803 0.0367 1.0258 0.72417 0.24554 0.6875 0.91403 1.25 1.4855 1.25 0.629 0 0.54953-0.5899-0.20136-1.4947-0.68226-0.82207-1.0194-2.34-0.74922-3.3732 0.3842-1.4692 0.06462-1.767-1.4665-1.3666-1.466 0.38337-1.6298 0.71463-0.65219 1.3188 0.71807 0.44379 0.95664 1.1558 0.53016 1.5823-1.311 1.311-2.5074-1.8028-2.2236-5.7874 0.14848-2.0845-0.17116-3.6928-0.71179-3.5814-0.5397 0.11115-1.2103-0.42865-1.4902-1.1996-0.36169-0.99622 0.06987-1.2503 1.492-0.8784 1.8421 0.4817 1.9202 0.26035 0.98443-2.7886-0.87209-2.8415-0.61763-4.1001 1.7918-8.8624 2.5269-4.9944 3.0679-5.4939 5.3994-4.9853 1.4251 0.31084 3.1339 0.60668 3.7972 0.65742 0.66331 0.0507 0.9864 0.44761 0.71798 0.88192-0.26842 0.43432-1.1486 0.53617-1.956 0.22635-0.96822-0.37155-1.4628 0.0689-1.4527 1.2937 0.0129 1.5649 0.16779 1.621 0.98469 0.35699 0.88714-1.3728 1.4448-0.69741 1.0936 1.3243-0.07876 0.45338 0.32529 0.53479 0.89789 0.1809 0.5726-0.35388 0.78219-1.0623 0.46576-1.5743-0.31643-0.51199 0.15279-0.9309 1.0427-0.9309 1.6997 0 1.4175 0.93211-1.3626 4.5-0.8571 1.1-0.28647 0.81259 1.2681-0.6387l2.8264-2.6387 5.7481 4.5884 5.7481 4.5884-2.1141 1.8497c-2.0821 1.8217-2.0664 1.8267 1.0353 0.32659 2.653-1.283 3.3281-1.3078 4.2832-0.15705 0.62356 0.75134 2.4631 1.9167 4.0879 2.5897 1.6248 0.673 2.7083 1.6214 2.4078 2.1076s0.10015 0.88394 0.89027 0.88394c0.79011 0 2.0087 0.68933 2.7079 1.5318 1.1195 1.3489 0.93421 1.4037-1.5508 0.45891-2.2564-0.85788-3.0887-0.76476-4.1524 0.46457-0.73171 0.84564-0.78878 1.0891-0.12681 0.5411 1.426-1.1806 3.1289-1.3319 2.4398-0.21679-0.56295 0.91087 3.4908 0.87797 4.9767-0.0404 0.55654-0.34396 2.3338 0.25335 3.9495 1.3274 1.6157 1.074 4.8515 2.8892 7.1906 4.0337 2.3391 1.1446 4.0033 2.485 3.6981 2.9789s0.0693 0.65836 0.8322 0.3656c0.76293-0.29276 2.2583 0.27489 3.3231 1.2614s1.4989 1.4562 0.96481 1.0438c-1.6453-1.2706-2.0633-0.85789-2.2809 2.252-0.11536 1.6489 0.27028 2.998 0.85699 2.998 0.5867 0 0.80771-0.675 0.49112-1.5-0.31658-0.825-0.13972-1.5 0.39301-1.5 0.53274 0 0.98293 0.5625 1.0004 1.25 0.0204 0.80162 0.48077 0.65995 1.2834-0.39495 1.0747-1.4125 1.515-1.4523 3.1155-0.28203 1.0251 0.7496 2.3601 1.066 2.9666 0.70299s0.42768 0.18784-0.39732 1.224c-0.96751 1.2151-1.0406 1.6077-0.20602 1.1058 0.73698-0.4432 2.3633-0.0775 3.7782 0.8496 1.3664 0.89527 2.9216 1.3575 3.456 1.0272 0.53446-0.33031 0.97175-0.12402 0.97175 0.45844 0 0.97104-1.3833 1.4722-3.25 1.1774-0.4125-0.0651-0.75 0.97837-0.75 2.3189 0 2.3876 0.16836 2.437 8.25 2.4195 4.5375-0.01 8.7375 0.0184 9.3333 0.0627 1.7282 0.12847 1.2517 3.0789-0.5 3.0958-1.3874 0.0134-1.3977 0.13525-0.0833 0.98469 2.0219 1.3067 3.2735 1.2516 2.4338-0.10713-0.46807-0.75736 0.0662-0.88265 1.691-0.39658 2.3361 0.69887 2.3423 0.68314 0.37523-0.95568-2.309-1.9237-1.8074-1.7834 5 1.3986 2.75 1.2854 5.3494 2.9313 5.7764 3.6574 0.42704 0.72613 1.3674 1.0934 2.0898 0.81627 0.72234-0.27719 1.9262 0.304 2.6753 1.2915 1.1634 1.5338 1.1576 1.6133-0.0398 0.54551-1.9841-1.7693-3.0335-1.5494-2.3867 0.5 0.47057 1.491 0.27416 1.454-1.3271-0.25-2.3952-2.5488-6.3122-4.8091-7.052-4.0693-0.3131 0.31311-0.0746 0.56929 0.53 0.56929s1.3849 0.9 1.734 2 1.2794 2 2.0674 2c0.78793 0 1.4326 0.675 1.4326 1.5 0 1.078-1.1018 1.5-3.9167 1.5-2.1542 0-4.0774 0.48205-4.2737 1.0712s-2.7152 1.1955-5.5974 1.3474c-5.6129 0.29582-7.5154 1.1441-4.8553 2.1648 0.90372 0.34679 1.6362 1.3699 1.6278 2.2735-0.0133 1.4277-0.14438 1.4464-1 0.14301-0.826-1.2583-1.1278-1.2779-1.8729-0.12188-0.49542 0.76869-1.4271 1.0451-2.1068 0.625-0.93737-0.57933-0.90547-0.9515 0.1382-1.6128 1.0569-0.66969 0.97-0.86307-0.39324-0.875-2.4893-0.0218-2.1676 2.4602 0.5 3.858 2.2434 1.1755 2.2436 1.1777 0.0646 0.76332-1.2973-0.24671-2.412 0.17482-2.7429 1.0373-0.30664 0.79908-0.97227 1.1966-1.4792 0.88326s-1.1496-4e-3 -1.4281 0.68662c-0.31707 0.78646-0.53599 0.62901-0.58541-0.42104-0.0651-1.3824-1.0019-1.6306-5.329-1.4119-2.8875 0.14593-6.5168 0.7882-8.0651 1.4273-3.4242 1.4133-3.4117 1.413-4.2109 0.1198zm-3.0167-3.8888c0.31644-0.512 0.19299-1.1672-0.27431-1.456-0.46731-0.28881-0.84965 0.13009-0.84965 0.9309 0 1.6862 0.31534 1.8335 1.124 0.52511zm46.543-10.069c-0.825-0.53316-2.175-0.96937-3-0.96937-1.3333 0-1.3333 0.1077 0 0.96937 0.825 0.53316 2.175 0.96937 3 0.96937 1.3333 0 1.3333-0.1077 0-0.96937zm-3-3.3834c0-0.21085-0.90062-0.61888-2.0014-0.90674-1.1008-0.28785-1.7492-0.11534-1.441 0.38337 0.53825 0.87091 3.4424 1.3124 3.4424 0.52337zm-8-1.6166c0.825-0.53316 1.05-0.96937 0.5-0.96937s-1.675 0.43621-2.5 0.96937-1.05 0.96937-0.5 0.96937 1.675-0.43621 2.5-0.96937zm6-2c0-0.55-0.42344-1-0.94098-1s-1.2191 0.45-1.559 1 0.0835 1 0.94098 1c0.85746 0 1.559-0.45 1.559-1zm-66.995-1.79c1.8917-1.7624 1.8893-1.7924-0.15485-1.9464-1.1419-0.086-1.8042 0.11557-1.4718 0.44797 0.3324 0.33239 0.10316 1.2083-0.50941 1.9464-1.6262 1.9594-0.10574 1.6406 2.1361-0.44796zm-4.0342-1.2281c-0.89825-0.55516-0.85679-0.86935 0.16616-1.2589 0.74973-0.28552 0.40393-0.47325-0.76844-0.41717-1.8189 0.087-2.2514 1.1085-1.4449 3.4128 0.0421 0.12023 0.78924-0.0549 1.6604-0.38917 1.1475-0.44034 1.2541-0.81158 0.38684-1.3476zm39.279-11.332c-0.41802-1.0874-0.67497-1.0737-2.75 0.14716-1.879 1.1055-1.8488 1.1563 0.5 0.83995 1.375-0.18522 2.3875-0.62942 2.25-0.98711zm-57.757-5.6389c0.35129-0.5684-0.05346-0.73358-0.95232-0.38866-1.1762 0.45135-1.4133 0.13899-0.9576-1.2614 0.48292-1.4841 0.39725-1.567-0.42268-0.40909-1.0789 1.5236-0.65893 3.0478 0.83968 3.0478 0.48508 0 1.1569-0.44485 1.4929-0.98855zm38.236-1.6156c-0.3323-0.33229-1.1948-0.36781-1.9167-0.0789-0.79773 0.31922-0.56078 0.55618 0.60417 0.60416 1.0542 0.0434 1.6448-0.19293 1.3125-0.52522zm3.712-0.86403c-1.0676-0.8075-3.0661-1.4303-4.4411-1.384-2.0384 0.0687-2.1307 0.17303-0.5 0.56527 1.1 0.26458 2.4275 0.88738 2.95 1.384 0.5225 0.49662 1.621 0.90294 2.4411 0.90294 1.1172 0 1.0043-0.3682-0.45-1.4682zm-6.9755-3.3819c-0.56346-0.59314-2.4657 0.91014-2.4657 1.9486 0 0.53923 0.62961 0.40017 1.3991-0.30901 0.76953-0.70919 1.2495-1.447 1.0665-1.6396zm8.0343 1.8501c0.33992-0.55 0.14148-1-0.44098-1s-1.059 0.45-1.059 1 0.19844 1 0.44098 1 0.7191-0.45 1.059-1zm-44.52-1.5242c-0.69572-0.83829-1.5253-1.2638-1.8435-0.94562-0.3182 0.31819 0.08343 0.99718 0.8925 1.5088 2.117 1.3388 2.3936 1.175 0.95098-0.56323zm41.02-0.47583c-0.825-0.53316-1.95-0.96937-2.5-0.96937s-0.325 0.43621 0.5 0.96937 1.95 0.96937 2.5 0.96937 0.325-0.43621-0.5-0.96937zm-39.459-1.9335c-0.36253-0.58659-1.1377-1.0665-1.7226-1.0665-0.66309 0-0.58723 0.57378 0.20152 1.5242 1.3715 1.6526 2.5973 1.2838 1.5211-0.45764zm36.459-0.45954c0-0.21616-0.69837-0.661-1.5519-0.98855-0.88992-0.34149-1.2913-0.17385-0.94098 0.39301 0.58726 0.95021 2.4929 1.4054 2.4929 0.59554zm-22.216-10.678c1.3506-1.0468 1.8613-2.0308 1.25-2.4086-0.56843-0.35131-1.0335-0.16219-1.0335 0.42027s-0.48032 1.059-1.0674 1.059c-0.61231 0-0.79675-0.85269-0.43261-2 0.34913-1.1 0.26235-2-0.19283-2s-2.0605-1.1432-3.5674-2.5405c-1.5069-1.3973-2.7398-2.1984-2.7398-1.7802 0 0.41814 1.4625 2.0386 3.25 3.601 2.5574 2.2353 2.8269 2.7746 1.2649 2.5302-1.5367-0.24037-1.9984 0.27302-2.0441 2.2728-0.07057 3.0882 1.9954 3.4171 5.3127 0.84599zm-4.1765-0.51111c-0.93895-2.4469-0.73505-2.6891 0.89301-1.0611 1.7 1.7 1.9166 2.6429 0.60699 2.6429-0.49116 0-1.1662-0.7118-1.5-1.5818zm-14.479-7.1682c1.2695-1.6188 1.2225-1.64-0.62756-0.28297-1.1 0.80687-2.1875 1.5944-2.4167 1.75-0.22917 0.15563 0.05323 0.28297 0.62756 0.28297 0.57432 0 1.6618-0.7875 2.4167-1.75zm84.903 62.2c-0.0355-1.2254 2.0082-3.45 3.1696-3.45 0.44 0 0.8 0.47656 0.8 1.059s-0.42234 0.79799-0.93854 0.47896c-0.5162-0.31902-1.4025 0.21692-1.9696 1.191s-1.0447 1.2985-1.0615 0.72103zm-50.364-6.1167c-0.93214-0.93213-0.83205-2.3333 0.16666-2.3333 0.45834 0 0.83334 0.675 0.83334 1.5 0 1.6994-0.0731 1.7602-1 0.83333zm-3.1667-2.3333c-0.33992-0.55-0.14148-1 0.44098-1s1.059 0.45 1.059 1-0.19844 1-0.44098 1-0.7191-0.45-1.059-1zm39.958-14.067c-0.36285-0.5871 0.28042-1.3131 1.4297-1.6137 1.1492-0.30051 1.7999-1.0148 1.4461-1.5872-0.37666-0.60946-0.15802-0.74093 0.52756-0.31721 1.5327 0.94726 0.48298 2.5812-1.6708 2.6007-1.4573 0.0132-1.4837 0.14929-0.19098 0.98469 0.90129 0.58246 1.0246 0.97549 0.30902 0.98469-0.65504 8e-3 -1.4878-0.46498-1.8506-1.052zm5.0146 0.0236c-0.32508-0.52598-0.45199-0.99076-0.28203-1.0328 2.494-0.6175 3.809-0.59748 3.809 0.058 0 1.2529-2.8656 2.045-3.527 0.97483z" fill="#387b7c"/>
 </g>
</svg>
