<?xml version="1.0" encoding="UTF-8"?>
<svg width="20" height="20" version="1.1" viewBox="0 0 20 20" xmlns="http://www.w3.org/2000/svg">
 <g transform="matrix(.043235 0 0 .043526 .036699 .021311)">
  <path d="m0.74801 459.36c-0.27881-0.47342-0.13658-26.961 0.31607-58.861 0.45265-31.9 0.84841-70.372 0.87946-85.494l0.056456-27.494 29.256 29.244c16.091 16.084 29.702 29.244 30.246 29.244 0.54422 0 20.344-19.351 43.999-43.001l43.01-43.001 25.743 25.757 25.743 25.757-43.498 43.489-43.498 43.489 29.61 29.622 29.61 29.622-75.361 0.65085c-41.448 0.35797-79.916 0.91766-85.483 1.2438-5.5674 0.3261-10.351 0.20557-10.629-0.26785zm371.25-0.65045c-43.725-0.51142-79.705-1.1228-79.955-1.3586s12.687-13.576 28.749-29.646l29.204-29.217-42.999-42.99c-23.649-23.645-42.999-43.446-42.999-44.002 0-0.55645 11.476-12.481 25.502-26.499l25.502-25.487 43.497 43.489 43.497 43.489 28.963-28.95c15.929-15.922 29.203-28.71 29.496-28.416 0.57985 0.57984 1.2447 39.453 2.0459 119.63l0.51218 51.25-5.7574-0.17992c-3.1666-0.09896-41.532-0.59836-85.257-1.1098zm-267-302.21-43.489-43.498-29.601 29.588-29.601 29.588-0.86648-77.839c-0.47656-42.812-0.88367-81.439-0.90469-85.839l-0.038217-8 5.5 0.076172c3.025 0.041895 41.181 0.45183 84.79 0.91096 43.61 0.45913 79.472 1.1282 79.693 1.4868s-12.622 13.671-28.542 29.584l-28.945 28.932 43.503 43.511 43.503 43.511-25.757 25.743-25.757 25.743zm184.07 17.957-25.222-25.543 13.008-13.707c7.1545-7.5388 26.524-27.191 43.044-43.671l30.036-29.964-28.719-28.922c-24.532-24.705-28.428-29.026-26.72-29.639 1.0994-0.39465 39.442-1.0173 85.206-1.3836l83.207-0.66609-0.47092 33.769c-0.25901 18.573-0.74309 56.607-1.0757 84.519-0.34748 29.158-0.9897 50.75-1.5095 50.75-0.49761 0-13.742-12.688-29.432-28.195l-28.527-28.195-43.204 43.195c-23.762 23.757-43.473 43.195-43.802 43.195s-11.947-11.494-25.819-25.543z" fill="#cadaeb"/>
  <path d="m1.48 374.36c0.40491-46.675 0.92988-85.068 1.1666-85.318s13.578 12.687 29.647 28.749l29.217 29.204 42.99-42.999c23.645-23.649 43.238-42.999 43.542-42.999 0.30323 0 12.153 11.362 26.332 25.25l25.781 25.25-43.577 43.495-43.577 43.495 29.204 29.217c16.062 16.069 28.999 29.406 28.749 29.638s-38.65 0.74967-85.333 1.1515l-84.878 0.73055zm335.04 83.887-44.983-0.27102 29.478-29.491 29.478-29.491-43.491-43.5-43.491-43.5 25.746-25.746 25.746-25.746 43.5 43.491 43.5 43.491 29.382-29.369 29.382-29.369 0.59693 36.375c0.32831 20.006 0.80466 58.312 1.0586 85.125l0.46162 48.75-40.69-0.23944c-22.379-0.13169-60.932-0.3614-85.673-0.51046zm-232.02-302.25-42.99-42.999-29.217 29.204c-16.069 16.062-29.4 28.999-29.623 28.749-0.2234-0.25034-0.72201-38.612-1.108-85.249l-0.70182-84.794 78.82 0.58139c43.351 0.31977 81.699 0.83254 85.218 1.1395l6.3982 0.5581-29.147 29.16-29.147 29.16 42.999 42.99c23.649 23.645 42.999 43.446 42.999 44.002 0 1.3124-49.199 50.497-50.512 50.497-0.54835 0-20.343-19.35-43.987-42.999zm184.74 17.743-25.241-25.256 42.999-42.99c23.649-23.644 42.999-43.439 42.999-43.988s-12.889-13.893-28.642-29.653l-28.642-28.655 8.392-0.57263c4.6156-0.31495 42.949-0.76403 85.186-0.99797l76.794-0.42535-0.52266 8.1464c-0.28747 4.4805-0.78644 42.099-1.1088 83.597-0.32239 41.498-0.84017 75.862-1.1506 76.364-0.31045 0.50231-13.557-12.073-29.436-27.945l-28.872-28.859-43.253 43.245c-23.789 23.785-43.48 43.245-43.756 43.245-0.2767 0-11.862-11.365-25.744-25.256z" fill="#aec7e1"/>
  <path d="m1.3342 397.5c0.36618-34.007 0.66578-72.441 0.66578-85.409v-23.579l29.501 29.488 29.501 29.488 43.5-43.491 43.5-43.491 25.746 25.746 25.746 25.746-43.491 43.5-43.491 43.5 29.488 29.501 29.488 29.501-27.494 9.5e-4c-15.122 5.2e-4 -53.556 0.30009-85.409 0.66571l-57.916 0.66477zm337.91 60.514-47.257-0.51472 29.007-28.994c15.954-15.946 29.007-29.445 29.007-29.996s-19.351-20.357-43.002-44.012l-43.002-43.01 25.503-25.488 25.503-25.488 43.497 43.489 43.497 43.489 29.381-29.368 29.381-29.368 0.61591 46.373c0.33876 25.505 0.75259 63.811 0.91962 85.123l0.3037 38.75-38.049-0.23528c-20.927-0.12941-59.315-0.46691-85.306-0.75zm-234.99-302.26-43.246-43.246-29.502 29.49-29.502 29.49-0.0011198-36.494c-6.159e-4 -20.072-0.2993-58.446-0.66374-85.277l-0.66262-48.783 76.414 0.56704c42.028 0.31187 80.19 0.82241 84.806 1.1345l8.392 0.56749-28.887 28.899-28.887 28.899 43.489 43.497 43.489 43.497-25.487 25.502c-14.018 14.026-25.716 25.502-25.996 25.502s-19.97-19.461-43.755-43.246zm184.99 17.99-25.241-25.256 42.999-42.99c23.649-23.644 42.999-43.439 42.999-43.988s-12.887-13.891-28.638-29.649l-28.638-28.651 10.388-0.58721c5.7134-0.32297 44.015-0.74569 85.115-0.93938l74.727-0.35216-0.41892 2.0837c-0.2304 1.1461-0.70235 38.468-1.0488 82.938-0.34642 44.47-0.8879 81.527-1.2033 82.349-0.40076 1.0444-9.2629-7.1912-29.43-27.349l-28.856-28.843-43.253 43.245c-23.789 23.785-43.48 43.245-43.756 43.245-0.2767 0-11.862-11.365-25.744-25.256z" fill="#95b6d7"/>
  <path d="m1.3333 404.42c0.36556-30.204 0.66511-68.638 0.66566-85.409l9.99e-4 -30.494 29.501 29.488 29.501 29.488 43.5-43.491 43.5-43.491 25.746 25.746 25.746 25.746-43.491 43.5-43.491 43.5 29.488 29.501 29.488 29.501h-34.079c-18.744 0-57.178 0.29952-85.409 0.6656l-51.33 0.66559zm341.91 53.598-51.257-0.51364 29.007-28.994c15.954-15.946 29.007-29.445 29.007-29.996s-19.351-20.357-43.002-44.012l-43.002-43.01 25.503-25.488 25.503-25.488 43.497 43.489 43.497 43.489 28.963-28.95c15.929-15.922 29.187-28.725 29.462-28.45 0.27464 0.27465 0.81481 38.392 1.2004 84.705l0.70103 84.206-33.912-0.23636c-18.652-0.12999-56.978-0.46749-85.169-0.75zm-238.99-302.26-43.246-43.246-29.502 29.49-29.502 29.49v-41.58c0-22.869-0.29849-61.24-0.6633-85.27l-0.6633-43.69 72.413 0.55637c39.827 0.30601 77.987 0.81668 84.798 1.1348l12.385 0.57846-28.635 28.648c-15.749 15.756-28.635 29.097-28.635 29.646s19.349 20.343 42.999 43.988l42.999 42.99-25.241 25.256c-13.883 13.891-25.47 25.256-25.75 25.256s-19.97-19.461-43.755-43.246zm184.99 17.99-25.241-25.256 42.999-42.99c23.649-23.644 42.999-43.439 42.999-43.988s-12.885-13.889-28.633-29.644l-28.633-28.646 14.383-0.61389c7.9106-0.33764 46.062-0.72491 84.781-0.86061l70.398-0.24672-0.69123 81c-0.38018 44.55-0.95607 82.513-1.2798 84.361l-0.58853 3.3614-28.869-28.856-28.869-28.856-43.253 43.245c-23.789 23.785-43.48 43.245-43.756 43.245-0.2767 0-11.862-11.365-25.744-25.256z" fill="#6999c8"/>
  <path d="m1.5407 380.74c0.29573-43.03 0.788-81.116 1.0939-84.635l0.55625-6.3981 28.84 28.827 28.84 28.827 43.723-43.268 43.723-43.268 25.588 25.588 25.588 25.588-43.491 43.5-43.491 43.5 28.881 28.894 28.881 28.894-11.386 0.57579c-6.2625 0.31669-44.348 0.80908-84.635 1.0942l-73.248 0.5184zm353.29 77.308c-33.367-0.29964-60.912-0.79003-61.212-1.0898s12.263-13.347 27.917-28.993c15.654-15.647 28.462-28.9 28.462-29.451 0-0.55127-19.351-20.357-43.002-44.012l-43.002-43.01 25.503-25.488 25.503-25.488 43.497 43.489 43.497 43.489 28.963-28.95c15.929-15.922 29.156-28.745 29.392-28.495 0.23614 0.25031 0.76001 38.368 1.1642 84.705l0.73481 84.25-23.376-0.2052c-12.857-0.11286-50.676-0.45036-84.043-0.75zm-249.33-302.05c-23.644-23.649-43.439-42.999-43.988-42.999s-13.893 12.889-29.653 28.642l-28.655 28.642-0.56654-8.392c-0.3116-4.6156-0.80473-42.707-1.0958-84.648l-0.5293-76.256 66.244 0.53313c36.434 0.29322 74.515 0.79687 84.624 1.1192l18.38 0.5861-28.63 28.643c-15.747 15.754-28.63 29.088-28.63 29.632 0 0.54416 19.351 20.344 43.002 43.999l43.002 43.01-25.257 25.243-25.257 25.243zm184.24 18.244c-13.608-13.617-24.742-25.206-24.742-25.754s19.125-20.118 42.5-43.488c23.375-23.37 42.5-42.94 42.5-43.489s-12.884-13.888-28.631-29.641l-28.631-28.643 17.381-0.64207c9.5594-0.35314 47.703-0.74146 84.763-0.86293l67.382-0.22087-0.66207 78c-0.36413 42.9-0.93166 80.864-1.2612 84.365l-0.59911 6.3648-28.872-28.859-28.872-28.859-43.253 43.245c-23.789 23.785-43.48 43.245-43.756 43.245s-11.637-11.141-25.246-24.757z" fill="#4a84bc"/>
  <path d="m1.5549 390.71c0.27545-37.514 0.76378-75.578 1.0852-84.588l0.58436-16.381 28.823 28.81 28.823 28.81 43.721-43.265 43.721-43.265 25.345 25.331 25.345 25.331-43.002 43.01c-23.651 23.656-43.002 43.455-43.002 43.999s12.883 13.878 28.629 29.631l28.629 28.641-21.379 0.5896c-11.758 0.32428-49.829 0.80654-84.601 1.0717l-63.223 0.48209zm358.25 67.33c-36.133-0.32678-65.928-0.82636-66.212-1.1102-0.28382-0.28382 12.517-13.543 28.447-29.466l28.963-28.95-43.503-43.511-43.503-43.511 25.503-25.488 25.503-25.488 43.497 43.489 43.497 43.489 28.872-28.859c15.879-15.872 29.099-28.47 29.376-27.995 0.27743 0.47524 0.82782 38.552 1.2231 84.614l0.71867 83.75-18.344-0.18471c-10.089-0.10159-47.907-0.45208-84.039-0.77886zm-254.31-302.04c-23.644-23.649-43.439-42.999-43.988-42.999s-13.887 12.884-29.641 28.63l-28.643 28.63-0.58669-18.38c-0.32268-10.109-0.80877-48.17-1.0802-84.579l-0.49351-66.199 61.217 0.47359c33.669 0.26048 71.737 0.73968 84.594 1.0649l23.378 0.59131-28.628 28.64c-15.745 15.752-28.628 29.086-28.628 29.63 0 0.54416 19.351 20.344 43.002 43.999l43.002 43.01-25.257 25.243-25.257 25.243zm184.24 18.244c-13.608-13.617-24.742-25.206-24.742-25.754 0-0.54835 19.35-20.343 42.999-43.987l42.999-42.99-29.127-29.139-29.126-29.139 24.377-0.65846c13.408-0.36215 51.539-0.75196 84.737-0.86624l60.36-0.20778-0.62721 75c-0.34496 41.25-0.89107 79.225-1.2136 84.39l-0.58638 9.3898-28.897-28.884-28.897-28.884-43.253 43.245c-23.789 23.785-43.48 43.245-43.756 43.245s-11.637-11.141-25.246-24.757z" fill="#417eb9"/>
  <path d="m1.576 397.68c0.26026-33.647 0.73928-71.697 1.0645-84.555l0.59131-23.378 28.64 28.628c15.752 15.745 29.09 28.628 29.638 28.628s20.343-19.349 43.988-42.999l42.99-42.999 25.257 25.243 25.257 25.243-43.002 43.01c-23.651 23.656-43.002 43.455-43.002 43.999s12.882 13.877 28.626 29.628l28.626 28.639-28.376 0.59529c-15.607 0.32741-53.666 0.79739-84.575 1.0444l-56.199 0.44911zm361.66 60.299c-38.097-0.37199-69.467-0.87639-69.712-1.1209-0.24451-0.2445 12.589-13.472 28.518-29.394l28.963-28.95-43.503-43.511-43.503-43.511 25.503-25.488 25.503-25.488 43.497 43.489 43.497 43.489 28.956-28.943c18.778-18.77 29.12-28.434 29.421-27.495 0.25573 0.79678 0.75335 38.911 1.1058 84.699l0.64088 83.25-14.811-0.17399c-8.146-0.0957-45.981-0.47835-84.078-0.85034zm-257.73-301.98c-23.644-23.649-43.439-42.999-43.988-42.999s-13.886 12.882-29.637 28.627l-28.639 28.627-0.59305-26.377c-0.32618-14.507-0.80438-52.554-1.0627-84.549l-0.46962-58.173 53.196 0.44391c29.258 0.24415 67.315 0.71245 84.571 1.0407l31.375 0.59675-28.625 28.638c-15.744 15.751-28.625 29.083-28.625 29.628 0 0.54416 19.351 20.344 43.002 43.999l43.002 43.01-25.257 25.243-25.257 25.243zm184.1 18.081-24.848-24.921 2.0598-2.8292c1.1329-1.5561 20.539-21.277 43.124-43.824l41.064-40.995-29.081-29.093-29.081-29.093 23.332-0.65972c12.832-0.36284 50.931-0.66075 84.664-0.66202l61.332-0.0023008-0.60828 74.25c-0.59852 73.059-1.1065 92.75-2.3927 92.75-0.35761 0-13.366-12.71-28.908-28.245l-28.258-28.245-43.253 43.245c-23.789 23.784-43.488 43.245-43.775 43.245s-11.704-11.214-25.37-24.921z" fill="#3173b4"/>
 </g>
</svg>
