<?xml version="1.0" encoding="UTF-8"?>
<svg width="256" height="256" version="1.1" viewBox="0 0 256 256" xmlns="http://www.w3.org/2000/svg">
 <g transform="translate(-2.8814e-6)">
  <path d="m113 235.5-19.481-19.5 19.481-19.5c10.714-10.725 19.823-19.5 20.24-19.5s0.75962 4.9553 0.75962 11.012v11.012l4.25-0.61639c22.252-3.2272 42.672-17.876 52.966-37.995l4.2839-8.3726 10.24 10.202 10.24 10.202 5.01-4.9346c2.7555-2.714 5.01-4.5678 5.01-4.1196 0 1.8517-8.0146 17.522-11.696 22.87-17.531 25.461-43.995 41.53-74.554 45.267l-5.75 0.70329v11.385c0 6.2616-0.34183 11.385-0.75962 11.385s-9.526-8.775-20.24-19.5zm-31.065-14.255c-32.25-16.254-53.099-45.823-57.462-81.495l-0.70329-5.75h-11.385c-6.2616 0-11.385-0.34183-11.385-0.75962s8.775-9.526 19.5-20.24l19.5-19.481 19.5 19.481c10.725 10.714 19.5 19.823 19.5 20.24s-4.9553 0.75962-11.012 0.75962h-11.012l0.61638 4.25c3.2272 22.252 17.876 42.672 37.995 52.966l8.3726 4.2839-10.202 10.24-10.202 10.24 4.9346 5.01c2.714 2.7555 4.4722 5.01 3.907 5.01s-5.2732-2.1398-10.462-4.7551zm32.054-47.117c-20.438-6.5422-33.989-24.933-33.989-46.128 0-26.722 21.278-48 48-48 36.834 0 59.985 39.773 41.799 71.81-5.9318 10.45-17.001 19.155-28.73 22.596-7.1959 2.1111-20.027 1.9793-27.08-0.27821zm82.252-31.388c-10.582-10.593-19.24-19.593-19.24-20s4.9553-0.74062 11.012-0.74062h11.012l-0.61639-4.25c-3.2272-22.252-17.876-42.672-37.995-52.966l-8.3726-4.2839 10.202-10.24 10.202-10.24-4.9346-5.01c-2.714-2.7555-4.5678-5.01-4.1196-5.01 1.8517 0 17.522 8.0146 22.87 11.697 25.461 17.531 41.53 43.995 45.267 74.553l0.70329 5.75h11.385c6.2616 0 11.385 0.34183 11.385 0.75962 0 0.82533-38.198 39.24-39.019 39.24-0.27513 0-9.1584-8.6667-19.741-19.259zm-146.01-48.995-10.202-10.202-5.0159 4.9404c-2.7587 2.7172-5.0159 4.5904-5.0159 4.1625 0-0.42787 1.5441-4.1199 3.4313-8.2046 15.191-32.879 46.462-55.523 82.819-59.969l5.75-0.70329v-11.385c0-6.2616 0.34183-11.385 0.75962-11.385s9.526 8.775 20.24 19.5l19.481 19.5-19.481 19.5c-10.714 10.725-19.823 19.5-20.24 19.5s-0.75962-4.9553-0.75962-11.012v-11.012l-4.25 0.61638c-22.222 3.2228-42.511 17.761-52.963 37.951l-4.3511 8.4045z" fill="#c7dbe9"/>
  <path d="m113.51 235.01-18.993-19.017 19.243-19.243 19.243-19.243v10.747c0 12.292-0.73601 11.61 10.063 9.3207 21.748-4.6104 41.584-20.587 50.034-40.301 1.0073-2.35 2.177-4.2728 2.5992-4.2728 0.42221 0 5.158 4.3738 10.524 9.7196l9.7562 9.7196 4.5116-4.4278c2.4814-2.4353 4.5116-3.9402 4.5116-3.3441 0 2.4126-5.4901 13.307-10.498 20.833-8.9574 13.46-22.507 25.933-36.933 33.997-8.3067 4.6438-25.267 10.137-35.788 11.592l-8.7186 1.2052-0.28138 10.866-0.28137 10.866zm-32.007-14.044c-9.8236-4.8807-17.737-10.734-27.333-20.218-15.785-15.601-26.087-36.415-29.264-59.127l-1.206-8.6207h-22.19l19.247-19.247 19.247-19.247 19.247 19.247 19.247 19.247h-10.747c-12.292 0-11.61-0.73601-9.3207 10.063 4.6104 21.748 20.587 41.584 40.301 50.034 2.35 1.0073 4.2728 2.177 4.2728 2.5992 0 0.42221-4.3738 5.158-9.7196 10.524l-9.7196 9.7562 4.4278 4.5116c2.4921 2.5393 3.7904 4.4987 2.9696 4.4819-0.80201-0.01634-5.0582-1.8183-9.4582-4.0044zm34.775-46.505c-17.46-4.7025-30.208-17.59-34.785-35.164-6.5411-25.113 9.2567-51.047 35.214-57.808 20.401-5.3137 44.046 5.2011 53.418 23.754 7.7309 15.305 7.7309 30.209 0 45.514-9.398 18.606-33.455 29.196-53.846 23.704zm80.225-32.461-18.98-19h10.74c12.302 0 11.61 0.76689 9.2716-10.266-4.5044-21.256-20.783-41.483-40.025-49.731-2.4788-1.0625-4.5069-2.2773-4.5069-2.6995s4.3738-5.158 9.7196-10.524l9.7196-9.7562-4.4278-4.5116c-5.0656-5.1615-4.3843-5.5358 3.6267-1.993 18.245 8.0687 37.214 25.87 47.859 44.912 4.6487 8.3155 10.138 25.271 11.596 35.819l1.2096 8.75h22.177l-18.98 19c-10.439 10.45-19.214 19-19.5 19s-9.0609-8.55-19.5-19zm-146.74-48.726-9.7257-9.7257-4.5179 4.4339c-2.4848 2.4387-4.5179 3.8463-4.5179 3.1281 0-2.4862 8.0238-17.636 12.505-23.611 17.837-23.782 42.55-38.635 70.874-42.597l8.6207-1.206v-22.19l19.247 19.247 19.247 19.247-19.247 19.247-19.247 19.247v-10.747c0-12.31 0.76727-11.616-10.266-9.2783-21.256 4.5044-41.483 20.783-49.731 40.025-1.0625 2.4788-2.2883 4.5069-2.7238 4.5069s-5.1685-4.3766-10.518-9.7257z" fill="#afcde0"/>
  <path d="m113.51 235.01-18.993-19.017 19.243-19.243 19.243-19.243v21.724l5.75-0.71774c13.636-1.7021 29.413-9.836 40.412-20.834 5.5101-5.5101 14.838-19.56 14.838-22.349 0-3.5672 3.078-1.7184 12.095 7.2648l9.8817 9.8446 4.5116-4.4278c2.5594-2.5118 4.5034-3.7968 4.4925-2.9696-0.0321 2.4388-9.5028 19.489-14.252 25.659-5.7959 7.5289-17.714 18.795-24.94 23.576-13.062 8.6425-31.365 15.222-48.006 17.259l-4.7178 0.57727-0.28223 10.957-0.28222 10.957zm-33.207-14.933c-11.401-6.0525-18.765-11.667-27.8-21.197-8.2898-8.7441-13.114-15.801-18.555-27.139-3.8153-7.9513-8.2353-23.79-9.4854-33.991l-0.58211-4.75h-22.371l19.247-19.247 19.247-19.247 19.247 19.247 19.247 19.247h-21.724l0.71773 5.75c1.7021 13.636 9.836 29.413 20.834 40.412 5.5101 5.5101 19.56 14.838 22.349 14.838 3.5672 0 1.7184 3.078-7.2648 12.095l-9.8446 9.8817 4.4278 4.5116c2.5118 2.5594 3.7968 4.5034 2.9696 4.4925-0.80201-0.0106-5.5984-2.2171-10.659-4.9034zm37.809-45.159c-13.121-2.5768-26.595-13.053-32.715-25.437-20.128-40.726 22.022-83.854 63.145-64.61 18.623 8.7148 29.877 29.818 26.734 50.129-4.1998 27.133-30.115 45.23-57.163 39.918zm78.392-32.918-18.98-19h21.711l-0.71774-5.75c-1.7021-13.636-9.836-29.413-20.834-40.412-5.5101-5.5101-19.56-14.838-22.349-14.838-3.5672 0-1.7184-3.078 7.2648-12.095l9.8446-9.8817-4.4278-4.5116c-2.5118-2.5593-3.7968-4.5033-2.9696-4.4925 2.4388 0.0321 19.489 9.5027 25.659 14.252 7.5289 5.7959 18.795 17.714 23.576 24.94 8.6486 13.071 15.219 31.354 17.264 48.038l0.58211 4.75h22.358l-18.98 19c-10.439 10.45-19.214 19-19.5 19s-9.0609-8.55-19.5-19zm-146.74-48.726-9.7257-9.7257-4.5179 4.4339c-2.5619 2.5143-4.5095 3.8026-4.4987 2.9757 0.0321-2.4388 9.5027-19.489 14.252-25.659 5.7959-7.5289 17.714-18.795 24.94-23.576 13.071-8.6486 31.354-15.219 48.038-17.264l4.75-0.58211v-22.371l19.247 19.247 19.247 19.247-19.247 19.247-19.247 19.247v-21.724l-5.75 0.71773c-22.269 2.7797-45.066 20.017-54.41 41.142-1.0634 2.4039-2.2527 4.3708-2.643 4.3708-0.39029 0-5.0862-4.3766-10.435-9.7257z" fill="#8eb8d4"/>
  <path d="m113.51 235.01-18.993-19.017 19.243-19.243 19.243-19.243v21.494h2.8117c4.9938 0 18.511-4.0632 25.188-7.5714 12.871-6.7623 23.845-17.831 30.64-30.904 2.0083-3.8636 3.8253-7.2267 4.0378-7.4737 0.21252-0.24696 4.8666 4.0144 10.342 9.4696l9.956 9.9186 4.6219-4.4696c3.9878-3.8564 4.5223-4.1267 3.8961-1.9696-0.39914 1.375-2.4741 5.875-4.611 10-12.097 23.351-33.972 42.019-59.09 50.426-6.4085 2.1451-10.136 2.9289-24.511 5.1541l-3.2176 0.49809-0.28239 10.974-0.28238 10.974zm-32.155-14.483c-24.368-12.313-43.163-33.996-51.778-59.734-2.147-6.4142-2.9133-10.059-5.1602-24.543l-0.50416-3.25h-22.403l19.247-19.247 19.247-19.247 19.247 19.247 19.247 19.247h-21.494v2.8117c0 4.9938 4.0631 18.511 7.5714 25.188 6.7623 12.871 17.831 23.845 30.904 30.64 3.8636 2.0083 7.2267 3.8253 7.4737 4.0378 0.24696 0.21252-4.0144 4.8666-9.4696 10.342l-9.9186 9.956 4.4278 4.5116c2.4353 2.4814 3.9299 4.5116 3.3213 4.5116s-5.0898-2.0127-9.9582-4.4727zm36.05-46.013c-8.9197-1.9406-16.027-5.9542-23.141-13.068-18.769-18.769-18.705-48.187 0.14658-67.039 18.922-18.922 48.263-18.922 67.185 0 18.851 18.851 18.916 48.269 0.14659 67.039-7.2604 7.2604-14.213 11.122-23.608 13.114-8.0473 1.7057-12.727 1.6954-20.729-0.0455zm79.098-32.514-18.98-19h21.48v-2.8117c0-4.9999-4.0649-18.514-7.5836-25.213-6.7516-12.853-17.822-23.821-30.916-30.628-3.85-2.0015-7.2021-3.8131-7.449-4.0256-0.24696-0.21252 4.0144-4.8666 9.4696-10.342l9.9186-9.956-4.4696-4.6219c-3.8564-3.9878-4.1267-4.5223-1.9696-3.8961 1.375 0.39914 5.875 2.4741 10 4.611 23.351 12.097 42.019 33.972 50.426 59.09 2.147 6.4142 2.9133 10.059 5.1602 24.543l0.50417 3.25h22.39l-18.98 19c-10.439 10.45-19.214 19-19.5 19s-9.0609-8.55-19.5-19zm-146.74-48.726-9.7257-9.7257-4.6281 4.4757c-3.9794 3.8484-4.5243 4.1254-3.8874 1.9757 0.40734-1.375 2.0935-5.2 3.7471-8.5 11.977-23.903 34.419-43.383 59.747-51.862 6.5843-2.204 10.238-2.9759 24.736-5.2249l3.25-0.50416v-22.403l19.247 19.247 19.247 19.247-19.247 19.247-19.247 19.247v-21.494h-2.8117c-4.9999 0-18.514 4.0649-25.213 7.5836-12.968 6.8121-23.929 17.921-30.745 31.162-2.0515 3.9851-3.958 7.2476-4.2365 7.25-0.27853 2e-3 -4.883-4.3723-10.232-9.7214z" fill="#6fa5c9"/>
  <path d="m113.51 235.01-18.993-19.019 19.243-19.243 19.243-19.243v21.494h3.2899c5.0468 0 14.461-2.7076 22.21-6.3875 15.46-7.3421 28.389-20.439 34.964-35.418l1.89-4.3057 10.311 10.276 10.311 10.276 4.5896-4.4701 4.5896-4.4701-2.601 5.9277c-14.225 32.419-47.077 56.57-82.054 60.321l-7 0.75087-0.5 11.265-0.5 11.265zm-31.65-14.305c-31.15-15.633-53.001-46.594-56.606-80.207l-0.75087-7-11.265-0.5-11.265-0.5 19.019-18.993 19.019-18.993 19.243 19.243 19.243 19.243h-21.494v3.2899c0 5.0468 2.7076 14.461 6.3875 22.21 7.3421 15.46 20.439 28.389 35.418 34.964l4.3057 1.89-10.276 10.311-10.276 10.311 4.4283 4.5121c2.4356 2.4817 4.2021 4.5121 3.9255 4.5121-0.27651 0-4.352-1.9319-9.0567-4.293zm38.143-45.69c-17.55-3.3201-31.129-14.962-37.222-31.911-2.803-7.798-2.803-22.414 0-30.212 5.1494-14.326 15.75-24.96 29.973-30.067 8.0143-2.8777 22.483-2.8777 30.497 0 14.223 5.107 24.824 15.741 29.973 30.067 2.8275 7.8662 2.804 22.409-0.049 30.355-5.0847 14.161-15.955 25.032-29.789 29.791-6.4568 2.2215-17.263 3.1352-23.383 1.9773zm76.5-33.017-18.98-19h21.48v-3.2899c0-5.0468-2.7076-14.461-6.3875-22.21-7.3421-15.46-20.439-28.389-35.418-34.964l-4.3057-1.89 10.276-10.311 10.276-10.311-4.4701-4.5896-4.4701-4.5896 5.9277 2.601c32.419 14.225 56.57 47.077 60.321 82.054l0.75087 7 11.455 0.28467 11.456 0.28468-18.946 18.965c-10.42 10.431-19.18 18.965-19.465 18.965s-9.0609-8.55-19.5-19zm-146.23-49.199-10.232-10.252-4.5955 4.4759-4.5955 4.4759 2.601-5.9277c14.225-32.419 47.077-56.57 82.054-60.321l7-0.75087 0.5-11.265 0.5-11.265 18.993 19.019 18.993 19.019-19.243 19.243-19.243 19.243v-21.494h-3.2899c-5.0468 0-14.461 2.7076-22.21 6.3875-15.531 7.376-27.593 19.572-34.998 35.389l-2.0022 4.2766z" fill="#498ebb"/>
  <path d="m113.51 235.01-18.993-19.019 19.243-19.243 19.243-19.243v22.444l3.25-0.57138c15.22-2.6759 26.846-7.6009 36.631-15.518 7.8536-6.3546 15.306-15.623 19.372-24.094l3.2368-6.7424 10.243 10.208 10.243 10.208 4.5896-4.4701 4.5896-4.4701-2.5393 5.7881c-14.073 32.078-47.437 56.609-82.213 60.45l-6.9031 0.76228-0.5 11.265-0.5 11.265zm-28.287-12.526c-9.269-4.2115-22.486-13.523-30.334-21.371-16.242-16.242-27.225-38.717-29.62-60.614l-0.76565-7-11.265-0.5-11.265-0.5 19.019-18.993 19.019-18.993 19.243 19.243 19.243 19.243h-22.444l0.57138 3.25c2.6759 15.22 7.6009 26.846 15.518 36.631 6.3546 7.8536 15.623 15.306 24.094 19.372l6.7424 3.2368-10.208 10.243-10.208 10.243 4.4283 4.5121c2.4356 2.4817 4.2221 4.4862 3.9701 4.4545-0.25201-0.0317-2.8344-1.1373-5.7387-2.4568zm36.78-47.157c-9.6944-1.1568-20.138-6.3853-27.541-13.788-9.3415-9.3415-13.789-20.161-13.789-33.541s4.448-24.199 13.789-33.541c9.3415-9.3415 20.161-13.789 33.541-13.789 21.259 0 38.684 12.823 45.57 33.536 2.3514 7.0725 2.3514 20.515 0 27.588-5.115 15.385-16.455 26.822-31.276 31.543-5.3136 1.6928-14.908 2.6344-20.294 1.9918zm74.5-33.329-18.98-19h22.43l-0.57138-3.25c-2.5698-14.617-8.2628-27.874-16.081-37.448-5.564-6.8129-15.626-14.761-23.432-18.508l-6.8409-3.2841 10.208-10.243 10.208-10.243-4.4701-4.5896-4.4701-4.5896 5.7881 2.5393c32.078 14.073 56.609 47.437 60.45 82.213l0.76228 6.9031 11.455 0.28467 11.456 0.28468-18.946 18.965c-10.42 10.431-19.18 18.965-19.465 18.965s-9.0609-8.55-19.5-19zm-146.28-49.267-10.185-10.185-4.5955 4.4759-4.5955 4.4759 2.5393-5.7881c14.035-31.991 47.556-56.666 82.116-60.446l7-0.76565 0.5-11.265 0.5-11.265 18.993 19.019 18.993 19.019-19.243 19.243-19.243 19.243v-22.444l-3.25 0.57138c-26.157 4.5986-44.88 17.788-55.797 39.305l-3.5471 6.9914z" fill="#3884b4"/>
  <path d="m113.51 235.01-18.993-19.016 19.243-19.243 19.243-19.243v22.584l3.75-0.64403c18.19-3.1239 31.571-9.8621 42.906-21.605 5.6333-5.8364 12.597-16.132 14.534-21.49l1.229-3.3989 10.276 10.241 10.276 10.241 4.0148-3.9203c2.2081-2.1562 4.0148-3.5459 4.0148-3.0882 0 2.5003-10.38 19.92-16.027 26.896-16.397 20.257-43.492 35.027-68.543 37.366l-6.3686 0.59471-0.28051 11.371-0.28051 11.371zm-33.885-15.783c-19.185-10.213-34.405-25.978-44.112-45.691-5.6733-11.521-9.187-23.28-10.201-34.136l-0.59756-6.3991h-23.204l19.247-19.247 19.247-19.247 19.247 19.247 19.247 19.247h-22.584l0.64403 3.75c3.1239 18.19 9.8621 31.571 21.605 42.906 5.8364 5.6333 16.132 12.597 21.49 14.534l3.3989 1.229-10.241 10.276-10.241 10.276 3.9203 4.0148c2.1562 2.2081 3.4915 4.0043 2.9674 3.9914-0.52412-0.0129-4.9484-2.1504-9.8316-4.75zm44.379-43.966c-10.784-0.88762-21.434-5.9127-29.387-13.866-9.3337-9.3337-13.771-20.094-13.771-33.396 0-13.299 4.4372-24.062 13.767-33.391 9.3294-9.3294 20.092-13.767 33.391-13.767s24.062 4.4372 33.391 13.767c9.3294 9.3294 13.767 20.092 13.767 33.391 0 13.301-4.4371 24.062-13.771 33.396-9.878 9.878-23.674 14.994-37.387 13.866zm72.5-33.261-18.98-19h22.571l-0.64403-3.75c-3.1239-18.19-9.8621-31.571-21.605-42.906-5.8364-5.6333-16.132-12.597-21.49-14.534l-3.3989-1.229 10.241-10.276 10.241-10.276-3.9203-4.0148c-2.1562-2.2081-3.563-4.0148-3.1262-4.0148 2.5891 0 19.581 10.075 26.671 15.814 20.537 16.625 35.278 43.568 37.633 68.787l0.59756 6.3991h23.191l-18.98 19c-10.439 10.45-19.214 19-19.5 19s-9.0609-8.55-19.5-19zm-146.31-49.296-10.15-10.15-4.0207 3.9261c-2.2114 2.1594-4.0207 3.5517-4.0207 3.094 0-2.5003 10.38-19.92 16.027-26.896 16.406-20.267 43.491-35.027 68.573-37.369l6.3991-0.59756v-23.204l19.247 19.247 19.247 19.247-19.247 19.247-19.247 19.247v-22.584l-3.75 0.64403c-7.3541 1.263-15.492 3.579-20.756 5.9067-14.957 6.6146-28.878 20.378-35.865 35.458l-2.287 4.9363z" fill="#0061a0"/>
 </g>
</svg>
