<?xml version="1.0" encoding="UTF-8"?>
<svg width="366" height="366" version="1.1" viewBox="0 0 366 366" xmlns="http://www.w3.org/2000/svg">
 <g transform="matrix(.93313 0 0 1.0157 -10.885 -2.5397)">
  <path d="m77 369.36c-15.78-1.8012-31.253-8.0827-40.317-16.367-10.381-9.488-16.083-20.594-20.487-39.905l-2.6428-11.588-0.29938-123.47c-0.33067-136.37-0.46628-133.02 5.9107-146.03 4.1796-8.5282 13.308-17.656 21.836-21.836 12.173-5.9662 16.79-6.3223 76.209-5.8786l53.291 0.39791 9.6659 2.5735c5.3163 1.4154 12.775 3.575 16.576 4.799l6.9098 2.2255 7.4242-3.658c13.156-6.482 16.858-6.7866 77.134-6.3485l53.291 0.38732 11.5 3.0799c16.296 4.3644 21.787 6.6263 29.877 12.308 11.51 8.0832 19.005 19.219 23.427 34.806 2.1621 7.621 2.1694 8.0007 2.4863 128.64 0.22631 86.167-8e-3 123.3-0.81254 129-3.34 23.639-14.659 40.375-33.478 49.5-14.8 7.1768-18.115 7.4996-77 7.4996-47.317 0-52.721-0.16874-60-1.8735-4.4-1.0304-10.475-3.0156-13.5-4.4114-7.5451-3.4816-15.496-3.4621-23.127 0.0567-12.32 5.6806-15.918 6.0003-70.373 6.2542-27.5 0.12824-51.575 0.0534-53.5-0.16637z" fill="#f3f3f3"/>
  <path d="m70.862 364.47c-10.139-1.878-17.548-4.7452-24.835-9.6113-9.058-6.0487-14.428-12.81-21.061-26.517-7.5307-15.563-9.8762-22.63-11.075-33.37-0.58866-5.2725-0.84562-55.103-0.65529-127.07 0.30425-115.04 0.37002-118.6 2.3218-125.49 5.104-18.024 19.466-31.925 37.316-36.116 6.8201-1.6014 13.178-1.7907 60.126-1.7907 59.486 0 58.686-0.081035 74.879 7.5858 5.7082 2.7028 11.02 4.9142 11.805 4.9142 0.78444 0 4.4353-1.8149 8.1131-4.033 13.953-8.4154 22.354-9.2829 84.053-8.6789 32.236 0.31554 48.195 0.83845 51.65 1.6924 7.3083 1.8062 30.025 12.584 37.146 17.623 10.636 7.5267 18.049 18.745 22.07 33.397 1.6675 6.0763 1.7837 14.648 1.7837 131.5 0 116.85-0.11627 125.42-1.7837 131.5-7.0277 25.609-25.142 41.215-52.216 44.986-3.85 0.53617-27.754 0.98377-53.119 0.99466-51.671 0.0222-57.37-0.48817-72.348-6.4793-12.903-5.1613-12.611-5.1526-23.679-0.70544-16.511 6.6347-14.896 6.4808-71.354 6.7992-41.108 0.23186-53.041 5e-3 -59.138-1.1242z" fill="#e6edf3"/>
  <path d="m70.862 364.47c-15.043-2.7863-26.752-9.0005-35.414-18.795-4.2822-4.8421-13.781-22.291-13.781-25.314 0-0.7487-0.375-1.3613-0.83333-1.3613-0.45833 0-0.74974-0.3375-0.64756-0.75s-0.60905-2.55-1.5805-4.75c-4.5866-10.387-4.5706-9.8997-4.5706-139 0-134.08-0.19153-129.6 6.0823-142.37 4.056-8.2593 12.75-16.954 21.01-21.01 11.826-5.8077 15.071-6.0823 71.873-6.0823 57.336 0 58.835 0.13412 73.191 6.5488 15.276 6.8257 14.275 6.7179 21.145 2.2773 3.3106-2.1397 8.9766-4.8874 12.591-6.106 6.4115-2.1615 7.8938-2.2234 60.658-2.5328 62.43-0.36606 61.233-0.48872 81.127 8.3107 20.331 8.9925 29.851 17.094 36.391 30.967 6.7839 14.39 6.396 5.6577 6.396 144 0 116.85-0.11627 125.42-1.7837 131.5-7.0277 25.609-25.142 41.215-52.216 44.986-3.85 0.53617-27.754 0.98377-53.119 0.99466-51.671 0.0222-57.37-0.48817-72.348-6.4793-12.903-5.1613-12.611-5.1526-23.679-0.70544-16.511 6.6347-14.896 6.4808-71.354 6.7992-41.108 0.23186-53.041 5e-3 -59.138-1.1242z" fill="#ebebeb"/>
  <path d="m75.81 363c-19.659-2.4118-36.312-12.429-44.382-26.698-1.4929-2.6396-4.8938-8.5079-7.5575-13.041-2.6637-4.5327-5.8617-11.058-7.1067-14.5l-2.2636-6.2588-0.27255-124.71c-0.30046-137.47-0.49448-132.67 5.8886-145.67 4.0568-8.2584 12.752-16.954 21.011-21.011 12.216-6.0008 15.34-6.2454 75.287-5.8939 61.538 0.36083 59.659 0.1275 74.431 9.2447 4.0396 2.4933 7.6396 4.5236 8 4.5118 0.36038-0.01177 3.7941-2.0546 7.6306-4.5397 3.8364-2.485 10.136-5.5129 14-6.7286 6.9042-2.1724 8.002-2.2103 64.025-2.2103 66.605 0 61.124-0.80701 82.696 12.175 19.93 11.994 28.704 22.545 33.537 40.325 1.6446 6.0505 1.7668 15.075 1.7668 130.5 0 137.77 0.41543 128.84-6.6807 143.5-4.3024 8.8861-15.933 20.423-25.038 24.837-13.302 6.4488-15.535 6.6517-73.281 6.6574-57.474 6e-3 -57.754-0.0198-72.855-6.6535-10.718-4.7083-13.749-4.7538-23.729-0.35564-15.187 6.6927-16.037 6.7787-69.915 7.0702-26.675 0.14433-51.51-0.1069-55.19-0.55829z" fill="#e3e3e3"/>
  <path d="m74.5 360.32c-18.325-2.7266-30.479-10.541-43-27.648-10.868-14.848-12.452-17.401-14.684-23.669l-2.3156-6.5-0.27255-124.71c-0.23661-108.26-0.07272-125.67 1.2426-132 4.2634-20.524 18.626-34.98 39.03-39.283 10.069-2.1234 106.75-2.1654 116.73-0.050664 8.6975 1.8432 14.87 4.6174 21.631 9.7221 3.5858 2.7073 5.8492 3.8069 6.6196 3.2158 6.3273-4.8543 15.059-9.8258 20.45-11.643 6.4115-2.1615 7.8938-2.2234 60.658-2.5328 59.669-0.34987 63.125-0.086085 74.914 5.7164 3.3 1.6243 8.475 5.1225 11.5 7.7737 3.025 2.6512 8.0566 6.7564 11.181 9.1227 9.137 6.9192 15.809 16.684 19.243 28.165 3.1666 10.585 3.731 35.52 3.3069 146.09-0.45774 119.35-0.16866 114.22-7.2418 128.6-6.4677 13.144-18.077 22.668-33.49 27.475-7.4727 2.3304-7.6964 2.3389-61.5 2.3389-59.685 0-58.151 0.13688-74.199-6.6243-5.0595-2.1316-10.459-3.865-12-3.852-1.5406 0.0131-5.501 1.1788-8.801 2.5906-3.3 1.4118-9.375 3.7515-13.5 5.1995l-7.5 2.6326-52.5 0.15845c-28.875 0.0872-53.85-0.0424-55.5-0.28791z" fill="#d9e3ed"/>
  <path d="m74.5 360.32c-13.264-1.9736-24.164-7.1208-32.422-15.311-6.857-6.8005-18.524-22.597-22.161-30.006-5.6132-11.433-5.4164-6.2893-5.4164-141.5 0-118.5 0.095571-125.31 1.8387-131 5.439-17.748 16.741-29.189 34.661-35.087 4.9558-1.6311 10.614-1.8464 57.185-2.1759 42.395-0.30001 53.229-0.099264 60.277 1.1169 9.3802 1.6187 18.853 5.6133 24.926 10.511 2.1381 1.7244 4.2713 3.1353 4.7403 3.1353s3.7407-1.9772 7.2705-4.3937c7.6873-5.2629 15.405-8.2962 24.43-9.6016 10.911-1.5783 101.14-1.2081 110.46 0.45325 9.7404 1.7364 18.467 5.7743 26.213 12.129 3.3 2.7073 8.5566 6.8636 11.681 9.2362 9.1464 6.9448 15.811 16.703 19.243 28.177 3.1666 10.585 3.731 35.52 3.3069 146.09-0.45774 119.35-0.16866 114.22-7.2418 128.6-6.4677 13.144-18.077 22.668-33.49 27.475-7.4727 2.3304-7.6964 2.3389-61.5 2.3389-59.685 0-58.151 0.13688-74.199-6.6243-5.0595-2.1316-10.459-3.865-12-3.852-1.5406 0.0131-5.501 1.1788-8.801 2.5906-3.3 1.4118-9.375 3.7515-13.5 5.1995l-7.5 2.6326-52.5 0.15845c-28.875 0.0872-53.85-0.0424-55.5-0.28791z" fill="#c9d8e7"/>
  <path d="m72.831 360.01c-18.122-3.1809-29.397-10.529-40.117-26.142-3.1594-4.6016-7.3001-10.59-9.2016-13.308-4.8686-6.9582-7.4317-15.313-8.6086-28.059-0.64319-6.9662-0.88982-53.538-0.67256-127 0.3779-127.78 0.010006-120.28 6.551-133.49 3.4829-7.0344 13.186-16.74 20.228-20.233 12.506-6.2033 13.343-6.2768 71.49-6.2768 47.106 0 53.753 0.19355 59.771 1.7406 8.0897 2.0794 13.465 4.6684 20.327 9.7899 5.7001 4.2545 4.6412 4.4233 14.814-2.3612 13.385-8.9268 23.494-10.037 85.579-9.3964 56.899 0.58683 55.471 0.26768 78.589 17.565 15.659 11.716 21.777 19.566 25.844 33.163 3.1666 10.585 3.731 35.52 3.3069 146.09-0.45774 119.35-0.16866 114.22-7.2418 128.6-6.4677 13.144-18.077 22.668-33.49 27.475-7.4727 2.3304-7.6964 2.3389-61.5 2.3389-59.685 0-58.151 0.13688-74.199-6.6243-5.0595-2.1316-10.459-3.865-12-3.852-1.5406 0.0131-5.501 1.1788-8.801 2.5906-3.3 1.4118-9.375 3.7515-13.5 5.1995l-7.5 2.6326-52.5 0.19084c-28.875 0.10496-54.601-0.17797-57.169-0.62874z" fill="#d5d4d4"/>
  <path d="m75.755 357.99c-8.5443-1.0464-18.165-4.2321-24.049-7.9637-5.238-3.3218-20.016-18.326-26.396-26.801-4.4567-5.9196-7.5145-12.807-9.6037-21.632-0.90773-3.8343-1.2064-35.549-1.2064-128.1 0-135.87-0.34253-128.15 6.2768-141.49 3.4909-7.038 13.195-16.742 20.233-20.233 12.506-6.2033 13.343-6.2768 71.49-6.2768 47.106 0 53.753 0.19355 59.771 1.7406 8.1563 2.0966 13.469 4.6702 20.542 9.9521 5.0527 3.773 5.4203 3.8889 7.5 2.3636 19.256-14.123 24.838-14.983 92.678-14.283 37.15 0.38316 45.568 0.73334 50.916 2.1181 11.452 2.9654 17.523 6.9913 31.795 21.084 11.127 10.988 13.68 14.09 16.244 19.745 6.2009 13.676 6.139 12.141 5.8161 144.38-0.32258 132.09 0.0675 123.8-6.4656 137.4-3.4964 7.276-15.02 18.692-22.482 22.271-12.689 6.0873-14.307 6.2286-71.314 6.2286-57.763 0-56.297 0.14119-72.803-7.0118-10.47-4.5373-14.51-4.5275-24.945 0.0606-15.342 6.7456-15.132 6.7241-68.753 7.0105-26.675 0.14247-51.535-0.11271-55.245-0.56705zm91.941-43.979c5.915-1.7323 11.785-7.0978 13.975-12.774 1.7357-4.4984 1.8287-10.944 1.8287-126.74 0-67.1-0.34831-123.64-0.77402-125.64-1.098-5.1588-7.7446-12.319-13.494-14.538-4.3632-1.6835-8.781-1.8257-56.732-1.8257-41.213 0-52.796 0.28127-55.836 1.3559-5.3046 1.875-10.605 6.7961-13.081 12.144-2.0686 4.4685-2.0852 5.3296-2.368 123-0.19143 79.649 0.06194 120.79 0.7728 125.5 1.9837 13.13 8.885 19.194 23.39 20.551 13.347 1.2493 97.42 0.39607 102.32-1.0384zm171 0c5.915-1.7323 11.785-7.0978 13.975-12.774 1.7357-4.4984 1.8287-10.944 1.8287-126.74 0-67.1-0.34831-123.64-0.77402-125.64-1.098-5.1588-7.7446-12.319-13.494-14.538-4.3632-1.6835-8.781-1.8257-56.732-1.8257-41.213 0-52.796 0.28127-55.836 1.3559-5.3046 1.875-10.605 6.7961-13.081 12.144-2.0686 4.4685-2.0852 5.3296-2.368 123-0.19143 79.649 0.0619 120.79 0.7728 125.5 1.9838 13.13 8.885 19.194 23.39 20.551 13.347 1.2493 97.42 0.39607 102.32-1.0384z" fill="#b5cce2"/>
  <path d="m75.755 357.99c-8.5443-1.0464-18.165-4.2321-24.049-7.9637-6.1663-3.9106-21.11-19.511-26.924-28.108-2.5951-3.8369-5.7451-10.001-7-13.698l-2.2816-6.7222-0.27264-124.21c-0.29729-135.43-0.415-132.26 5.3395-144.02 5.3082-10.85 16.545-20.487 28.685-24.603 6.0013-2.0346 8.3582-2.1314 59.666-2.4512 46.153-0.28764 54.503-0.11299 61.398 1.2842 8.6326 1.7492 16.912 5.4794 23.071 10.394 2.1381 1.7061 4.2133 3.1021 4.6115 3.1021s4.0488-2.2612 8.1125-5.0248c14.066-9.566 12.568-9.3681 73.806-9.7528 46.4-0.29151 54.479-0.12069 61.5 1.3002 13.037 2.6385 20.114 7.0047 34.787 21.461 10.673 10.515 13.191 13.591 15.744 19.232 6.1977 13.694 6.1358 12.156 5.8129 144.38-0.32258 132.09 0.0675 123.8-6.4656 137.4-3.4964 7.276-15.02 18.692-22.482 22.271-12.689 6.0873-14.307 6.2286-71.314 6.2286-57.763 0-56.297 0.14119-72.803-7.0118-10.47-4.5373-14.51-4.5275-24.945 0.0606-15.342 6.7456-15.132 6.7241-68.753 7.0105-26.675 0.14247-51.535-0.11271-55.245-0.56705zm91.941-43.979c5.915-1.7323 11.785-7.0978 13.975-12.774 1.7357-4.4984 1.8287-10.944 1.8287-126.74 0-67.1-0.34831-123.64-0.77402-125.64-1.098-5.1588-7.7446-12.319-13.494-14.538-4.3632-1.6835-8.781-1.8257-56.732-1.8257-41.213 0-52.796 0.28127-55.836 1.3559-5.3046 1.875-10.605 6.7961-13.081 12.144-2.0686 4.4685-2.0852 5.3296-2.368 123-0.19143 79.649 0.06194 120.79 0.7728 125.5 1.9837 13.13 8.885 19.194 23.39 20.551 13.347 1.2493 97.42 0.39607 102.32-1.0384zm171 0c5.915-1.7323 11.785-7.0978 13.975-12.774 1.7357-4.4984 1.8287-10.944 1.8287-126.74 0-67.1-0.34831-123.64-0.77402-125.64-1.098-5.1588-7.7446-12.319-13.494-14.538-4.3632-1.6835-8.781-1.8257-56.732-1.8257-41.213 0-52.796 0.28127-55.836 1.3559-5.3046 1.875-10.605 6.7961-13.081 12.144-2.0686 4.4685-2.0852 5.3296-2.368 123-0.19143 79.649 0.0619 120.79 0.7728 125.5 1.9838 13.13 8.885 19.194 23.39 20.551 13.347 1.2493 97.42 0.39607 102.32-1.0384z" fill="#c5cad0"/>
  <path d="m69.791 356.5c-12.362-2.5123-19.062-6.5844-31.136-18.922-12.454-12.726-17.755-20.204-20.92-29.51l-2.2352-6.5721-0.27264-124.21c-0.29729-135.43-0.415-132.26 5.3395-144.02 5.3082-10.85 16.545-20.487 28.685-24.603 6.0013-2.0346 8.3582-2.1314 59.666-2.4512 46.153-0.28764 54.503-0.11299 61.398 1.2842 8.6326 1.7492 16.912 5.4794 23.071 10.394 2.1381 1.7061 4.2923 3.1021 4.7871 3.1021s4.1129-2.2566 8.0403-5.0147c13.572-9.5314 12.413-9.3778 73.703-9.7629 60.297-0.37882 63.847-0.075809 76.411 6.5221 9.62 5.0519 30.242 25.6 34.604 34.482 6.8332 13.911 6.5669 8.1818 6.5669 141.27 0 109.26-0.1516 120.65-1.6941 127.24-4.6975 20.075-16.975 33.376-36.806 39.871-4.9384 1.6175-10.707 1.8394-56.5 2.1732-58.012 0.42286-61.117 0.17243-75.5-6.0888-11.303-4.9206-17.888-5.4279-24.674-1.9011-2.2957 1.1931-7.6957 3.415-12 4.9376l-7.826 2.7684-53 0.18411c-41.396 0.14381-54.469-0.11441-59.709-1.1794zm98.278-42.107c6.6721-1.9684 13.218-8.2902 15.134-14.616 1.0322-3.4074 1.297-29.189 1.297-126.28 0-135.19 0.44616-126.35-6.7711-134.18-7.1506-7.7575-7.682-7.8217-64.729-7.8217-57.304 0-57.633 0.03755-65.015 7.4194-2.9298 2.9298-5.1292 6.269-5.9962 9.1038-1.1154 3.6466-1.4349 25.5-1.7232 117.84-0.2122 67.984 0.03228 117.53 0.61071 123.78 1.0804 11.661 3.5685 17.402 9.316 21.494 6.2989 4.4852 9.4036 4.7239 62.376 4.7953 43.137 0.0582 50.82-0.15435 55.5-1.5349zm171 0c6.6721-1.9684 13.218-8.2902 15.134-14.616 1.0322-3.4074 1.297-29.189 1.297-126.28 0-135.19 0.44616-126.35-6.7711-134.18-7.1506-7.7575-7.682-7.8217-64.729-7.8217-57.304 0-57.633 0.03755-65.015 7.4194-2.9295 2.9295-5.1293 6.2693-5.9964 9.1038-1.1158 3.6476-1.4354 25.592-1.725 118.48-0.21801 69.913 0.0235 117.79 0.62448 123.8 1.1 11.001 3.7153 16.858 9.3042 20.837 6.2989 4.4852 9.4036 4.7239 62.376 4.7953 43.137 0.0582 50.82-0.15435 55.5-1.5349z" fill="#c6c7c8"/>
  <path d="m70.131 354.46c-12.733-2.7628-23.025-9.4988-39.691-25.978-7.0975-7.0178-11.767-15.727-13.929-25.981-2.2121-10.49-2.2095-246.54 0.00287-256.98 3.7076-17.503 15.789-31.1 32.738-36.847 6.0013-2.0346 8.3582-2.1314 59.666-2.4512 46.153-0.28764 54.503-0.11299 61.398 1.2842 8.6326 1.7492 16.912 5.4794 23.071 10.394 2.1381 1.7061 4.2923 3.1021 4.7871 3.1021s4.1129-2.2566 8.0403-5.0147c13.572-9.5314 12.413-9.3778 73.703-9.7629 46.179-0.29012 54.5-0.11627 61.405 1.2829 13.264 2.6877 24.674 9.672 32.148 19.678 2.1839 2.9241 5.8811 7.4857 8.216 10.137 5.7807 6.5637 10.834 17.05 12.461 25.86 1.0872 5.8854 1.3521 30.442 1.3521 125.32 0 129.69 0.11666 127-6.0519 139.33-6.4126 12.818-16.187 21.137-29.907 25.453-6.9132 2.1751-8.0441 2.2155-62.042 2.2155h-55l-8.5-3.1581c-4.675-1.7369-11.132-4.1793-14.348-5.4274-6.9343-2.6909-10.053-2.2383-23.652 3.4322-4.675 1.9494-11.425 4.0154-15 4.5912-10.277 1.6552-102.88 1.2552-110.87-0.47899zm97.938-40.061c6.6721-1.9684 13.218-8.2902 15.134-14.616 1.0322-3.4074 1.297-29.189 1.297-126.28 0-135.19 0.44616-126.35-6.7711-134.18-7.1506-7.7575-7.682-7.8217-64.729-7.8217-57.304 0-57.633 0.03755-65.015 7.4194-2.9298 2.9298-5.1292 6.269-5.9962 9.1038-1.1154 3.6466-1.4349 25.5-1.7232 117.84-0.2122 67.984 0.03228 117.53 0.61071 123.78 1.0804 11.661 3.5685 17.402 9.316 21.494 6.2989 4.4852 9.4036 4.7239 62.376 4.7953 43.137 0.0582 50.82-0.15435 55.5-1.5349zm171 0c6.6721-1.9684 13.218-8.2902 15.134-14.616 1.0322-3.4074 1.297-29.189 1.297-126.28 0-135.19 0.44616-126.35-6.7711-134.18-7.1506-7.7575-7.682-7.8217-64.729-7.8217-57.304 0-57.633 0.03755-65.015 7.4194-2.9295 2.9295-5.1293 6.2693-5.9964 9.1038-1.1158 3.6476-1.4354 25.592-1.725 118.48-0.21801 69.913 0.0235 117.79 0.62448 123.8 1.1 11.001 3.7153 16.858 9.3042 20.837 6.2989 4.4852 9.4036 4.7239 62.376 4.7953 43.137 0.0582 50.82-0.15435 55.5-1.5349z" fill="#b6c3cf"/>
  <path d="m70.131 354.46c-9.7522-2.1161-17.804-6.4443-27.09-14.563-18.27-15.973-23.61-23.499-26.533-37.396-2.2086-10.5-2.2025-246.55 0.00669-256.98 3.7076-17.503 15.789-31.1 32.738-36.847 6.0013-2.0346 8.3582-2.1314 59.666-2.4512 46.172-0.28776 54.501-0.11337 61.405 1.2856 9.0486 1.8335 15.992 5.0238 22.967 10.553l4.7899 3.7971 7.5463-5.4142c13.964-10.019 12.601-9.8314 74.292-10.219 59.267-0.37235 63.569-0.034432 75.366 5.9206 9.6284 4.8604 28.068 24.84 34.155 37.007 6.1796 12.352 6.0616 9.6385 6.0616 139.35 0 129.69 0.11666 127-6.0519 139.33-6.4126 12.818-16.187 21.137-29.907 25.453-6.9132 2.1751-8.0441 2.2155-62.042 2.2155h-55l-8.5-3.1581c-4.675-1.7369-11.132-4.1793-14.348-5.4274-6.9343-2.6909-10.053-2.2383-23.652 3.4322-4.675 1.9494-11.425 4.0154-15 4.5912-10.277 1.6552-102.88 1.2552-110.87-0.47899zm97.982-39.309c5.8884-1.9044 11.428-6.5759 14.005-11.81l2.3827-4.8399v-249.05l-2.5546-4.9642c-3.6434-7.0799-9.2326-11.013-17.673-12.437-4.7001-0.79278-22.138-1.0578-55.875-0.84917l-49.043 0.30328-5.8937 3.0153c-7.0205 3.5918-10.898 9.0637-12.476 17.608-0.69165 3.744-0.94618 45.689-0.76157 125.5 0.26129 112.96 0.38114 120.11 2.078 123.88 3.9025 8.6689 10.513 13.207 21.199 14.553 9.8291 1.238 100.41 0.45636 104.61-0.90276zm171 0c5.8884-1.9044 11.428-6.5759 14.005-11.81l2.3827-4.8399v-249.05l-2.5546-4.9641c-3.6434-7.0798-9.2327-11.013-17.673-12.437-4.7001-0.79278-22.138-1.0578-55.875-0.84917l-49.043 0.30328-5.8937 3.0153c-7.0205 3.5918-10.898 9.0637-12.476 17.608-0.69165 3.744-0.94618 45.689-0.76157 125.5 0.2613 112.96 0.38115 120.11 2.078 123.88 3.9025 8.6689 10.513 13.207 21.199 14.553 9.8291 1.238 100.41 0.45636 104.61-0.90276z" fill="#a8b9cb"/>
  <path d="m70.131 354.46c-9.8236-2.1316-18.148-6.5368-25.708-13.605-3.7378-3.4945-9.5864-8.964-12.997-12.154-6.679-6.2479-11.147-13.606-14.087-23.199-1.7431-5.6881-1.8387-12.497-1.8387-131 0-103.31 0.2408-125.95 1.3878-130.5 4.3654-17.3 17.109-30.491 34.612-35.825 4.1168-1.2546 14.009-1.5941 56-1.922 64.956-0.5073 69.989 0.14168 84.136 10.85 3.5585 2.6934 6.6286 4.8971 6.8224 4.8971 0.19384 0 2.2802-1.6106 4.6363-3.579 2.3561-1.9685 6.5612-4.7362 9.3446-6.1505 10.978-5.578 11.087-5.5879 66.061-6.0172 53.517-0.41796 61.838 0.030656 72.153 3.89 7.1864 2.6888 16.349 9.6228 21.207 16.048 2.2071 2.9196 6.2253 7.6006 8.9292 10.402 6.2336 6.4589 11.621 17.182 13.359 26.586 1.0872 5.8854 1.3521 30.442 1.3521 125.32 0 129.69 0.11666 127-6.0519 139.33-6.4126 12.818-16.187 21.137-29.907 25.453-6.9132 2.1751-8.0441 2.2155-62.042 2.2155h-55l-8.5-3.1581c-4.675-1.7369-11.132-4.1793-14.348-5.4274-6.9343-2.6909-10.053-2.2383-23.652 3.4322-4.675 1.9494-11.425 4.0154-15 4.5912-10.277 1.6552-102.88 1.2552-110.87-0.47899zm96.195-38.861c6.9288-1.6302 12.203-5.5628 15.674-11.687l2.5-4.4106 0.30833-122.5c0.21765-86.471-0.01546-124.01-0.79256-127.62-1.3114-6.0989-6.303-12.418-12.373-15.665-4.1037-2.1947-4.6334-2.2182-56.492-2.5076-59.956-0.33456-60.326-0.2955-67.765 7.1432-7.8231 7.8231-7.3858-0.15739-7.3858 134.78 0 81.434 0.34312 121.37 1.072 124.77 2.0244 9.4393 9.0683 16.04 19.272 18.058 2.2859 0.45226 25.756 0.86456 52.156 0.91623 37.42 0.0732 49.284-0.20816 53.826-1.2767zm171 0c11.851-2.7884 17.265-10.089 18.79-25.339 1.5544-15.545 0.61017-236.64-1.0333-241.96-1.6509-5.3357-7.1102-11.738-12.44-14.588-4.1037-2.1947-4.6334-2.2182-56.492-2.5076-59.956-0.33456-60.326-0.2955-67.765 7.1432-7.8231 7.8231-7.3858-0.15739-7.3858 134.78 0 81.434 0.34312 121.37 1.072 124.77 2.0244 9.4393 9.0683 16.04 19.272 18.058 2.2859 0.45226 25.756 0.86456 52.156 0.91623 37.42 0.0732 49.284-0.20816 53.826-1.2767z" fill="#b7b7b7"/>
  <path d="m77.308 352.92c-11.227-1.2444-17.107-3.6804-30.941-12.818-17.708-11.697-24.418-19.706-29.029-34.648-1.7427-5.6478-1.8382-12.452-1.8382-130.96 0-103.31 0.2408-125.95 1.3878-130.5 4.3654-17.3 17.109-30.491 34.612-35.825 4.1168-1.2546 14.009-1.5941 56-1.922 64.956-0.5073 69.989 0.14168 84.136 10.85 3.5585 2.6934 6.6286 4.8971 6.8224 4.8971 0.19384 0 2.2802-1.6106 4.6363-3.579 5.0513-4.2202 12.443-8.1236 19.405-10.247 7.5647-2.3072 104.52-2.9673 117.09-0.79731 15.514 2.6772 26.292 9.7195 34.959 22.842 2.6452 4.0048 6.0185 9.0815 7.4962 11.282 4.1625 6.1968 7.5425 13.469 9.0633 19.5 1.1449 4.5404 1.3869 26.787 1.3869 127.5 0 112.45-0.13504 122.49-1.7254 128.23-5.0561 18.27-17.077 30.289-34.868 34.862-5.2961 1.3613-13.905 1.7304-49.655 2.1289-54.375 0.60614-62.103-0.0151-77.899-6.2626-14.402-5.6961-18.441-5.8208-29.601-0.91426-15.136 6.655-15.375 6.68-66.753 6.9962-25.575 0.15739-50.186-0.12244-54.692-0.62184zm89.018-37.325c6.9288-1.6302 12.203-5.5628 15.674-11.687l2.5-4.4106 0.30833-122.5c0.21765-86.471-0.01546-124.01-0.79256-127.62-1.3114-6.0989-6.303-12.418-12.373-15.665-4.1037-2.1947-4.6334-2.2182-56.492-2.5076-59.956-0.33456-60.326-0.2955-67.765 7.1432-7.8231 7.8231-7.3858-0.15739-7.3858 134.78 0 81.434 0.34312 121.37 1.072 124.77 2.0244 9.4393 9.0683 16.04 19.272 18.058 2.2859 0.45226 25.756 0.86456 52.156 0.91623 37.42 0.0732 49.284-0.20816 53.826-1.2767zm171 0c11.851-2.7884 17.265-10.089 18.79-25.339 1.5544-15.545 0.61017-236.64-1.0333-241.96-1.6509-5.3357-7.1102-11.738-12.44-14.588-4.1037-2.1947-4.6334-2.2182-56.492-2.5076-59.956-0.33456-60.326-0.2955-67.765 7.1432-7.8231 7.8231-7.3858-0.15739-7.3858 134.78 0 81.434 0.34312 121.37 1.072 124.77 2.0244 9.4393 9.0683 16.04 19.272 18.058 2.2859 0.45226 25.756 0.86456 52.156 0.91623 37.42 0.0732 49.284-0.20816 53.826-1.2767z" fill="#9bb1c7"/>
  <path d="m77.625 352.95c-13.304-1.4853-17.7-3.4306-34.365-15.207-16.24-11.476-22.4-19.351-25.945-33.169-1.7055-6.6487-1.815-14.555-1.815-131.08 0-117.22 0.1002-124.36 1.8338-130.5 2.5815-9.1504 6.2914-15.573 12.692-21.974 6.4007-6.4007 12.824-10.111 21.974-12.692 5.939-1.6755 11.161-1.8338 60.5-1.8338 48.059 0 54.686 0.18981 60.235 1.7254 7.8898 2.1834 14.703 5.627 20.171 10.196 2.3561 1.9685 4.7791 3.579 5.3845 3.579 0.60537 0 2.2503-1.0948 3.6554-2.4329 4.64-4.4186 13.987-9.3338 21.325-11.214 6.596-1.6904 11.916-1.8526 60.729-1.8526 47.586 0 54.189 0.19073 59.735 1.7254 8.9902 2.4879 15.832 6.2512 22.042 12.124 5.461 5.1648 17.291 21.855 21.629 30.517 5.2389 10.459 5.0946 6.562 5.0946 137.63 0 112.45-0.13504 122.49-1.7254 128.23-5.0561 18.27-17.077 30.289-34.868 34.862-5.2961 1.3613-13.905 1.7304-49.655 2.1289-54.375 0.60614-62.103-0.0151-77.899-6.2626-14.402-5.6961-18.441-5.8208-29.601-0.91426-15.136 6.655-15.375 6.68-66.753 6.9961-25.575 0.15731-50.044-0.10963-54.375-0.5932zm95.142-39.37c6.9097-3.8283 10.716-9.5672 12.188-18.379 0.79478-4.7559 1.0366-41.27 0.83242-125.7l-0.28774-119-2.6629-5.6807c-2.9649-6.3248-8.4053-10.991-15.241-13.072-3.0421-0.92622-17.217-1.247-55.096-1.247-57.834 0-57.756-0.0091-65.439 7.6741-7.9633 7.9633-7.4773-0.05918-7.8286 129.22-0.19205 70.675 0.06525 118.27 0.66859 123.67 1.5293 13.697 6.1458 20.514 16.295 24.06 4.9425 1.727 8.9163 1.8371 58.304 1.6146l53-0.23875zm171 0c5.8182-3.2236 10.699-9.5368 11.964-15.475 0.42259-1.9834 0.76835-58.506 0.76835-125.61v-122l-2.6629-5.6807c-2.9649-6.3248-8.4053-10.991-15.241-13.072-3.0421-0.92622-17.217-1.247-55.096-1.247-57.834 0-57.756-0.0091-65.439 7.6741-7.9633 7.9633-7.4773-0.05918-7.8286 129.22-0.19205 70.675 0.0652 118.27 0.66859 123.67 1.5293 13.697 6.1458 20.514 16.295 24.06 4.9424 1.727 8.9163 1.8371 58.304 1.6146l53-0.23875z" fill="#89a7c5"/>
  <path d="m77.308 352.92c-4.5057-0.4994-10.687-1.8413-13.736-2.982-6.5811-2.4623-17.819-9.7333-17.026-11.016 0.30663-0.49615-0.25336-0.61054-1.2444-0.25421-0.99107 0.35634-1.4657 0.27746-1.0548-0.17527 0.41093-0.45273-1.2845-1.9869-3.7677-3.4093-6.4825-3.7133-14.796-12.326-18.37-19.031-6.99-13.115-6.6099-4.9462-6.6099-142.05 0-114.92 0.12253-123.94 1.7644-129.89 5.0791-18.386 17.462-30.769 35.848-35.848 5.7282-1.5824 11.803-1.7644 58.887-1.7644 56.982 0 59.157 0.17139 70.569 5.5625 3.3381 1.5769 8.159 4.7065 10.713 6.9547l4.6438 4.0877 5.2278-4.1323c6.5811-5.202 13.141-8.5415 21.111-10.747 5.5386-1.5328 12.096-1.7254 58.735-1.7254 57.299 0 59.098 0.14605 71 5.7632 7.7304 3.6484 17.518 12.949 21.319 20.26 1.4234 2.7375 2.609 4.5893 2.6347 4.115 0.07-1.2971 6.48 8.3032 9.2993 13.928 5.4151 10.803 5.2473 6.3912 5.2473 137.93 0 112.45-0.13504 122.49-1.7254 128.23-5.0561 18.27-17.077 30.289-34.868 34.862-5.2961 1.3613-13.905 1.7304-49.655 2.1289-54.375 0.60614-62.103-0.0151-77.899-6.2626-14.402-5.6961-18.441-5.8208-29.601-0.91426-15.136 6.655-15.375 6.68-66.753 6.9962-25.575 0.15739-50.186-0.12244-54.692-0.62184zm84.554-35.941c4.1684-0.54116 9.1363-1.9375 11.453-3.2191 5.482-3.0324 10.253-9.5228 11.593-15.77 0.75502-3.5206 1.0921-42.058 1.0921-124.86 0-134.22 0.41088-126.48-7.1458-134.67-7.467-8.1007-6.2916-7.9576-65.354-7.9576-59.51 0-59.063-0.05006-66.517 7.449-7.9663 8.0142-7.4045-1.6056-7.7347 132.45-0.19615 79.628 0.05232 121.78 0.73977 125.5 2.2034 11.927 10.133 19.47 22.098 21.019 9.0229 1.1684 90.868 1.2231 99.775 0.0667zm171 0c4.1684-0.54116 9.1363-1.9375 11.453-3.2191 5.482-3.0324 10.253-9.5228 11.593-15.77 0.75502-3.5206 1.0921-42.058 1.0921-124.86 0-134.22 0.41088-126.48-7.1458-134.67-7.467-8.1007-6.2916-7.9576-65.354-7.9576-59.51 0-59.063-0.05006-66.517 7.449-7.9663 8.0142-7.4045-1.6056-7.7347 132.45-0.19615 79.628 0.0523 121.78 0.73977 125.5 2.2034 11.927 10.133 19.47 22.098 21.019 9.0229 1.1684 90.868 1.2231 99.775 0.0667z" fill="#a7a7a7"/>
  <path d="m76.173 349.97c-8.8721-1.2083-12.101-2.3909-25.173-9.2195-13.891-7.2562-14.178-7.4484-20.654-13.831-5.9884-5.9015-10.585-13.994-13.081-23.028-1.6419-5.9436-1.7644-14.963-1.7644-129.89 0-114.92 0.12253-123.94 1.7644-129.89 5.0791-18.386 17.462-30.769 35.848-35.848 5.7282-1.5824 11.803-1.7644 58.887-1.7644 56.982 0 59.157 0.17139 70.569 5.5625 3.3381 1.5769 8.159 4.7065 10.713 6.9547l4.6438 4.0877 5.2278-4.1323c6.5811-5.202 13.141-8.5415 21.111-10.747 5.5386-1.5328 12.096-1.7254 58.735-1.7254 57.273 0 59.074 0.14586 71 5.7499 10.441 4.9063 18.135 13.556 25.669 28.858 10.84 22.015 9.8307 6.8849 9.8307 147.39 0 116.55-0.0964 123.31-1.8383 129-2.6928 8.7888-6.3304 14.897-12.15 20.4-6.0119 5.6858-10.664 8.2464-19.572 10.773-5.859 1.6618-11.087 1.8266-57.94 1.8266-56.948 0-56.215 0.069-71.335-6.7186-10.023-4.4993-18.19-4.4996-28.497-1e-3 -15.176 6.6238-13.925 6.4974-67.169 6.7853-26.675 0.14422-51.347-0.12552-54.827-0.59943zm85.688-32.983c4.1684-0.54116 9.1363-1.9375 11.453-3.2191 5.482-3.0324 10.253-9.5228 11.593-15.77 0.75502-3.5206 1.0921-42.058 1.0921-124.86 0-134.22 0.41088-126.48-7.1458-134.67-7.467-8.1007-6.2916-7.9576-65.354-7.9576-59.51 0-59.063-0.05006-66.517 7.449-7.9663 8.0142-7.4045-1.6056-7.7347 132.45-0.19615 79.628 0.05232 121.78 0.73977 125.5 2.2034 11.927 10.133 19.47 22.098 21.019 9.0229 1.1684 90.868 1.2231 99.775 0.0667zm171 0c4.1684-0.54116 9.1363-1.9375 11.453-3.2191 5.482-3.0324 10.253-9.5228 11.593-15.77 0.75502-3.5206 1.0921-42.058 1.0921-124.86 0-134.22 0.41088-126.48-7.1458-134.67-7.467-8.1007-6.2916-7.9576-65.354-7.9576-59.51 0-59.063-0.05006-66.517 7.449-7.9663 8.0142-7.4045-1.6056-7.7347 132.45-0.19615 79.628 0.0523 121.78 0.73977 125.5 2.2034 11.927 10.133 19.47 22.098 21.019 9.0229 1.1684 90.868 1.2231 99.775 0.0667z" fill="#77a1cb"/>
  <path d="m76.173 349.97c-8.7925-1.1974-11.961-2.3508-25.673-9.3451-19.672-10.034-29.421-21.306-32.986-38.138-2.2148-10.456-2.2148-246.51 0-256.97 2.1095-9.9589 5.9487-17.118 12.917-24.086s14.127-10.808 24.086-12.917c10.071-2.1333 106.72-2.1701 116.75-0.044513 7.682 1.6278 16.697 6.0989 22.758 11.286l4.1189 3.5256 2.6768-2.1453c7.2555-5.815 13.268-9.3865 19.177-11.39 6.3281-2.1462 7.9144-2.213 59.993-2.5244 59.546-0.35614 62.953-0.10161 74.327 5.5525 11.079 5.5076 17.798 13.02 25.35 28.344 10.839 21.996 9.8307 6.873 9.8307 147.38 0 116.55-0.0964 123.31-1.8383 129-2.6928 8.7888-6.3304 14.897-12.15 20.4-6.0119 5.6858-10.664 8.2464-19.572 10.773-5.859 1.6618-11.087 1.8266-57.94 1.8266-56.948 0-56.215 0.069-71.335-6.7186-10.023-4.4993-18.19-4.4996-28.497-1e-3 -15.176 6.6238-13.925 6.4974-67.169 6.7853-26.675 0.14422-51.347-0.12552-54.827-0.59943zm86.121-32.988c8.15-1.1784 13.339-3.6572 17.445-8.3333 6.0569-6.8984 5.7612 0.06329 5.7612-135.64v-124.5l-2.1776-4.0682c-2.799-5.2291-8.9993-10.815-13.942-12.561-5.5603-1.9639-106.77-2.009-113.25-0.050395-5.8344 1.7636-13.548 9.4774-15.312 15.312-1.0629 3.5164-1.3203 28.347-1.3203 127.37v123l2.2882 4.9635c1.2585 2.7299 3.058 5.814 3.9988 6.8536 3.1513 3.4821 9.9044 6.7152 15.835 7.5809 8.2533 1.2048 92.43 1.2717 100.67 0.08zm171 0c8.1931-1.1846 13.341-3.659 17.524-8.4236 6.5097-7.4142 6.2486-1.3977 5.9513-137.13l-0.2693-122.93-2.1776-4.0682c-2.799-5.2291-8.9993-10.815-13.942-12.561-5.5603-1.9639-106.77-2.009-113.25-0.050395-5.8344 1.7636-13.548 9.4774-15.312 15.312-1.0629 3.5164-1.3203 28.347-1.3203 127.37v123l2.2882 4.9635c1.2585 2.7299 3.058 5.814 3.9988 6.8536 3.1513 3.4821 9.9044 6.7152 15.835 7.5809 8.2533 1.2048 92.43 1.2717 100.67 0.08z" fill="#739bc2"/>
  <path d="m76.173 349.97c-3.4798-0.47391-7.9798-1.4004-10-2.0589-3.7751-1.2305-17.28-7.7897-18.173-8.8267-0.275-0.31921-2.7185-1.7054-5.43-3.0804-12.638-6.4088-23.321-21.656-25.573-36.5-0.71773-4.7308-0.97044-46.873-0.77958-130l0.28242-123 2.3267-6.446c5.4263-15.033 15.23-24.811 30.345-30.262 6.2429-2.2518 7.0475-2.287 59.329-2.5954 35.452-0.20912 55.095 0.051817 59.326 0.78812 9.5364 1.6593 16.615 4.6793 23.704 10.112 3.5186 2.6968 6.794 4.9033 7.2786 4.9033 0.4847 0 1.7385-0.96579 2.7863-2.1462 3.0635-3.4514 11.627-8.5586 18.518-11.044 6.3212-2.2797 6.9345-2.3064 59.937-2.6116 45.312-0.2609 54.696-0.070254 61 1.2392 9.6042 1.9952 18.261 6.2873 24.245 12.021 4.9455 4.7386 12.705 15.852 12.705 18.197 0 0.73973 0.49814 1.345 1.107 1.345 0.60884 0 0.84797 0.675 0.53138 1.5-0.31658 0.825-0.20634 1.5 0.24498 1.5 1.1373 0 6.7203 12.432 8.3083 18.5 1.0435 3.9878 1.3084 29.799 1.3084 127.5 0 116.07-0.0965 122.82-1.8383 128.5-2.6928 8.7888-6.3304 14.897-12.15 20.4-6.0119 5.6858-10.664 8.2464-19.572 10.773-5.859 1.6618-11.087 1.8266-57.94 1.8266-56.948 0-56.215 0.069-71.335-6.7186-10.023-4.4993-18.19-4.4996-28.497-1e-3 -15.176 6.6238-13.925 6.4974-67.169 6.7853-26.675 0.14422-51.347-0.12552-54.827-0.59943zm94.897-34.58c2.5134-1.1628 6.2303-3.8238 8.2598-5.9135 7.0172-7.2253 6.6709-0.16558 6.6647-135.9-4e-3 -81.005-0.35356-123.32-1.04-125.79-1.5464-5.5682-6.8498-11.845-12.437-14.721l-4.9641-2.5546h-110.05l-5.5 3.0931c-6.1473 3.4572-11.268 10.56-12.355 17.139-0.34253 2.0725-0.62773 57.799-0.63378 123.84-0.01225 133.62-0.35677 126.72 6.7203 134.56 4.1673 4.6127 7.7033 6.656 13.595 7.8562 2.2955 0.46761 27.349 0.77578 55.674 0.68481 50.138-0.16101 51.621-0.2213 56.07-2.2795zm171 0c6.6038-3.055 11.655-8.6994 13.704-15.314 1.5948-5.1477 1.7262-14.788 1.7262-126.57 0-95.312-0.27115-121.89-1.2772-125.21-1.8579-6.1211-7.0196-12.311-12.705-15.237l-4.9641-2.5546h-110.05l-5.5 3.0931c-6.1473 3.4572-11.268 10.56-12.355 17.139-0.34253 2.0725-0.62773 57.799-0.63378 123.84-0.0122 133.62-0.35677 126.72 6.7203 134.56 4.1672 4.6127 7.7033 6.656 13.595 7.8562 2.2955 0.46761 27.349 0.77578 55.674 0.68481 50.138-0.16101 51.621-0.2213 56.07-2.2795z" fill="#979797"/>
  <path d="m71 345.44c-12.138-2.6184-25.644-7.5223-31.804-11.547-11.866-7.7532-20.09-20.495-22.199-34.392-0.71773-4.7308-0.97044-46.873-0.77958-130l0.28242-123 2.3267-6.446c5.4263-15.033 15.23-24.811 30.345-30.262 6.2429-2.2518 7.0475-2.287 59.329-2.5954 35.452-0.20912 55.095 0.051817 59.326 0.78812 9.5364 1.6593 16.615 4.6793 23.704 10.112 3.5186 2.6968 6.794 4.9033 7.2786 4.9033 0.4847 0 1.7385-0.96579 2.7863-2.1462 3.0635-3.4514 11.627-8.5586 18.518-11.044 6.3212-2.2797 6.9345-2.3064 59.937-2.6116 59.206-0.3409 62.624-0.074645 74.609 5.8122 7.1397 3.507 15.463 11.45 20.04 19.125 3.3031 5.5387 6.934 16.816 10.025 31.137 1.6439 7.6159 1.7758 16.885 1.7758 124.73 0 126.18 0.041 125.15-5.4277 136.65-3.3448 7.0359-11.04 14.529-18.354 17.873-9.146 4.1808-16.046 4.6023-69.308 4.2342l-49.91-0.345-15-4.288c-17.632-5.0405-22.45-5.0746-34.569-0.24475-4.1631 1.6591-10.463 3.4861-14 4.06-10.259 1.6646-100.82 1.2466-108.93-0.5027zm100.07-30.053c2.5134-1.1628 6.2303-3.8238 8.2598-5.9135 7.0172-7.2253 6.6709-0.16558 6.6647-135.9-4e-3 -81.005-0.35356-123.32-1.04-125.79-1.5464-5.5682-6.8498-11.845-12.437-14.721l-4.9641-2.5546h-110.05l-5.5 3.0931c-6.1473 3.4572-11.268 10.56-12.355 17.139-0.34253 2.0725-0.62773 57.799-0.63378 123.84-0.01225 133.62-0.35677 126.72 6.7203 134.56 4.1673 4.6127 7.7033 6.656 13.595 7.8562 2.2955 0.46761 27.349 0.77578 55.674 0.68481 50.138-0.16101 51.621-0.2213 56.07-2.2795zm171 0c6.6038-3.055 11.655-8.6994 13.704-15.314 1.5948-5.1477 1.7262-14.788 1.7262-126.57 0-95.312-0.27115-121.89-1.2772-125.21-1.8579-6.1211-7.0196-12.311-12.705-15.237l-4.9641-2.5546h-110.05l-5.5 3.0931c-6.1473 3.4572-11.268 10.56-12.355 17.139-0.34253 2.0725-0.62773 57.799-0.63378 123.84-0.0122 133.62-0.35677 126.72 6.7203 134.56 4.1672 4.6127 7.7033 6.656 13.595 7.8562 2.2955 0.46761 27.349 0.77578 55.674 0.68481 50.138-0.16101 51.621-0.2213 56.07-2.2795z" fill="#6893be"/>
  <path d="m75 346.31c-4.0915-0.69045-21.094-5.3615-22.863-6.281-0.90034-0.46804-4.1798-2.0264-7.2878-3.4629-12.288-5.6799-21.59-16.166-26.09-29.412l-2.2591-6.6499-0.29763-121c-0.18994-77.217 0.066435-123.75 0.70853-128.6 2.7396-20.699 14.534-35.203 33.469-41.159 7.0096-2.2046 7.965-2.2393 61.62-2.2393 58.661 0 59.999 0.10081 70.848 5.3387 2.9415 1.4201 7.2855 4.2873 9.6534 6.3716 2.3679 2.0843 4.7749 3.7897 5.3489 3.7897 0.57398 0 3.9551-2.2037 7.5136-4.8971 7.6894-5.8201 15.187-8.8169 25.534-10.206 4.667-0.62664 27.1-0.87412 58.102-0.64098 54.251 0.40798 54.625 0.44154 65.592 5.881 9.5379 4.7306 19.08 15.496 22.925 25.863 0.91785 2.475 2.0626 5.4 2.5439 6.5 0.48129 1.1 1.808 5.6 2.9483 10 3.5538 13.713 4.1738 38.762 3.7007 149.5-0.4752 111.22-0.38983 109.51-6.0332 120.65-3.1437 6.2038-11.223 13.795-17.959 16.874-9.146 4.1808-16.046 4.6023-69.308 4.2342l-49.91-0.345-15-4.288c-17.632-5.0405-22.45-5.0746-34.569-0.24475-4.1631 1.6591-10.463 3.4861-14 4.06-6.1253 0.99383-99.284 1.3172-104.93 0.36425zm91.994-29.398c7.1972-1.5435 12.883-6.1624 16.506-13.408l3-5.9999v-122.5c0-134.8 0.29413-128.38-6.2257-135.99-4.7751-5.5787-9.8412-7.9046-19.896-9.1344-11.709-1.4323-98.56-0.60958-103.49 0.98035-10.649 3.4334-16.469 11.495-17.964 24.879-1.5829 14.178-0.71412 238.66 0.94345 243.77 2.8123 8.6649 10.044 15.535 18.465 17.541 5.1922 1.2367 102.83 1.1174 108.66-0.13278zm171 0c7.1972-1.5435 12.883-6.1624 16.506-13.408l3-5.9999v-122.5c0-134.8 0.29413-128.38-6.2257-135.99-4.7751-5.5787-9.8412-7.9046-19.896-9.1344-11.709-1.4323-98.56-0.60958-103.49 0.98035-10.649 3.4334-16.469 11.495-17.964 24.879-1.5829 14.178-0.71412 238.66 0.94345 243.77 2.8123 8.6649 10.044 15.535 18.465 17.541 5.1922 1.2367 102.83 1.1174 108.66-0.13278z" fill="#588dc1"/>
  <path d="m75 346.31c-4.0038-0.67565-21.07-5.3505-22.863-6.2628-0.90034-0.45806-4.7119-2.3164-8.4701-4.1297-12.206-5.889-21.376-17.451-25.402-32.026-1.6419-5.9436-1.7644-14.963-1.7644-129.89 0-114.92 0.12253-123.94 1.7644-129.89 4.9985-18.094 16.791-29.848 35.001-34.888 5.5386-1.5328 12.096-1.7254 58.735-1.7254 46.949 0 53.306 0.18934 60.126 1.7907 7.6488 1.796 17.049 6.63 21.928 11.276 1.4051 1.3381 3.1635 2.4329 3.9076 2.4329s3.6445-1.7487 6.4453-3.8859c6.527-4.9807 12.035-7.7245 19.844-9.8851 5.5559-1.5373 12.068-1.7289 58.749-1.7289 46.949 0 53.306 0.18934 60.126 1.7907 15.848 3.7211 28.951 15.04 34.391 29.709 0.91785 2.475 2.0626 5.4 2.5439 6.5 0.48129 1.1 1.808 5.6 2.9483 10 3.5538 13.713 4.1738 38.762 3.7007 149.5-0.4752 111.22-0.38983 109.51-6.0332 120.65-3.1437 6.2038-11.223 13.795-17.959 16.874-9.146 4.1808-16.046 4.6023-69.308 4.2342l-49.91-0.345-15-4.288c-17.632-5.0405-22.45-5.0746-34.569-0.24475-4.1631 1.6591-10.463 3.4861-14 4.06-6.1253 0.99383-99.284 1.3172-104.93 0.36425zm91.994-29.398c7.1972-1.5435 12.883-6.1624 16.506-13.408l3-5.9999v-122.5c0-134.8 0.29413-128.38-6.2257-135.99-4.7751-5.5787-9.8412-7.9046-19.896-9.1344-11.709-1.4323-98.56-0.60958-103.49 0.98035-10.649 3.4334-16.469 11.495-17.964 24.879-1.5829 14.178-0.71412 238.66 0.94345 243.77 2.8123 8.6649 10.044 15.535 18.465 17.541 5.1922 1.2367 102.83 1.1174 108.66-0.13278zm171 0c7.1972-1.5435 12.883-6.1624 16.506-13.408l3-5.9999v-122.5c0-134.8 0.29413-128.38-6.2257-135.99-4.7751-5.5787-9.8412-7.9046-19.896-9.1344-11.709-1.4323-98.56-0.60958-103.49 0.98035-10.649 3.4334-16.469 11.495-17.964 24.879-1.5829 14.178-0.71412 238.66 0.94345 243.77 2.8123 8.6649 10.044 15.535 18.465 17.541 5.1922 1.2367 102.83 1.1174 108.66-0.13278z" fill="#598abb"/>
  <path d="m75.5 346.37c-7.68-1.5471-22.5-5.7631-22.5-6.4009 0-0.4269-2.0901-1.4884-4.6447-2.3588-10.215-3.4807-20.872-12.771-25.796-22.488-6.3761-12.583-6.0595-5.2105-6.0595-141.12 0-114.92 0.12253-123.94 1.7644-129.89 4.9985-18.094 16.791-29.848 35.001-34.888 5.5386-1.5328 12.096-1.7254 58.735-1.7254 55.818 0 58.766 0.21051 69.515 4.9644 2.7602 1.2207 7.5921 4.3156 10.737 6.8775 3.1454 2.5619 5.9228 4.6581 6.1721 4.6581s2.5506-1.8152 5.1139-4.0337c5.7151-4.9464 12.508-8.4665 20.726-10.741 5.5386-1.5328 12.096-1.7254 58.735-1.7254 40.396 0 53.883 0.31073 58.5 1.3477 9.5394 2.1428 18.061 6.7132 24.474 13.127 5.3573 5.3573 6.8089 7.766 13.575 22.526 0.75641 1.65 2.3108 6.6 3.4542 11 3.5601 13.7 4.1798 38.695 3.7064 149.5-0.4752 111.22-0.38983 109.51-6.0332 120.65-3.1437 6.2038-11.223 13.795-17.959 16.874-9.146 4.1808-16.046 4.6023-69.308 4.2342l-49.91-0.345-15-4.288c-17.632-5.0405-22.45-5.0746-34.569-0.24475-4.1631 1.6591-10.463 3.4861-14 4.06-6.0475 0.98121-99.775 1.3614-104.43 0.42362zm93.288-29.334c5.9505-1.7951 13.63-8.9524 15.89-14.809 1.7277-4.4776 1.8221-11.169 1.8221-129.22v-124.5l-3-5.4229c-3.1837-5.755-8.3001-10.138-14.329-12.276-5.4343-1.9266-106.75-1.8805-113.17 0.051561-6.0961 1.833-14.314 10.051-16.147 16.147-2.0149 6.7012-2.0005 246.27 0.01518 253.21 2.7307 9.3962 10.984 16.076 21.922 17.745 9.3149 1.4205 101.88 0.62317 107-0.9217zm171.16-0.0409c2.8818-0.86435 6.286-3.1232 9.6639-6.4123 9.0632-8.825 8.4643 1.3926 8.1564-139.15l-0.2693-122.93-3-5.4229c-3.1837-5.755-8.3001-10.138-14.329-12.276-5.4343-1.9266-106.75-1.8805-113.17 0.051561-6.0961 1.833-14.314 10.051-16.147 16.147-2.0149 6.7012-2.0005 246.27 0.0152 253.21 2.7307 9.3962 10.984 16.076 21.922 17.745 9.5108 1.4504 101.88 0.62064 107.16-0.96261z" fill="#888989"/>
  <path d="m72 343.29c-8.0042-0.4368-19-2.3364-19-3.2823 0-0.4486-2.0901-1.5278-4.6447-2.3982-10.215-3.4807-20.872-12.771-25.796-22.488-6.3761-12.583-6.0595-5.2105-6.0595-141.12 0-114.92 0.12253-123.94 1.7644-129.89 4.9985-18.094 16.791-29.848 35.001-34.888 5.5386-1.5328 12.096-1.7254 58.735-1.7254 55.818 0 58.766 0.21051 69.515 4.9644 2.7602 1.2207 7.5921 4.3156 10.737 6.8775 3.1454 2.5619 5.9228 4.6581 6.1721 4.6581s2.5506-1.8152 5.1139-4.0337c5.7151-4.9464 12.508-8.4665 20.726-10.741 5.5386-1.5328 12.096-1.7254 58.735-1.7254 40.396 0 53.883 0.31073 58.5 1.3477 15.104 3.3926 27.47 12.922 33.451 25.779 1.7588 3.7804 3.8238 8.1204 4.589 9.6444 3.2671 6.5072 3.5463 18.376 3.2522 138.23l-0.29205 119-2.3379 8.9621c-2.8626 10.974-5.0808 15.457-10.162 20.538-5.4607 5.4607-9.8532 7.441-22.513 10.149-10.685 2.286-12.333 2.3506-59.987 2.35-53.124-6.4e-4 -56.507-0.26255-72.283-5.595-9.6207-3.252-11.367-3.1641-31.717 1.597-6.05 1.4155-15.5 3.0113-21 3.5463-8.8201 0.85796-75.907 1.0345-90.5 0.2382zm96.788-26.255c5.9505-1.7951 13.63-8.9524 15.89-14.809 1.7277-4.4776 1.8221-11.169 1.8221-129.22v-124.5l-3-5.4229c-3.1837-5.755-8.3001-10.138-14.329-12.276-5.4343-1.9266-106.75-1.8805-113.17 0.051561-6.0961 1.833-14.314 10.051-16.147 16.147-2.0149 6.7012-2.0005 246.27 0.01518 253.21 2.7307 9.3962 10.984 16.076 21.922 17.745 9.3149 1.4205 101.88 0.62317 107-0.9217zm171.16-0.0409c2.8818-0.86435 6.286-3.1232 9.6639-6.4123 9.0632-8.825 8.4643 1.3926 8.1564-139.15l-0.2693-122.93-3-5.4229c-3.1837-5.755-8.3001-10.138-14.329-12.276-5.4343-1.9266-106.75-1.8805-113.17 0.051561-6.0961 1.833-14.314 10.051-16.147 16.147-2.0149 6.7012-2.0005 246.27 0.0152 253.21 2.7307 9.3962 10.984 16.076 21.922 17.745 9.5108 1.4504 101.88 0.62064 107.16-0.96261z" fill="#78828c"/>
  <path d="m64.91 341.99c-17.87-1.7127-35.159-12.684-42.351-26.875-6.3761-12.583-6.0595-5.2105-6.0595-141.12 0-113.87 0.13451-123.99 1.7254-129.73 5.0395-18.21 16.794-30.002 34.888-35.001 5.7282-1.5824 11.803-1.7644 58.887-1.7644 55.818 0 58.766 0.21051 69.515 4.9644 2.7602 1.2207 7.5921 4.3156 10.737 6.8775 3.1454 2.5619 5.9228 4.6581 6.1721 4.6581s2.5506-1.8152 5.1139-4.0337c5.5759-4.8259 12.359-8.3946 20.194-10.624 4.8486-1.3795 13.094-1.7121 51.786-2.0891 61.759-0.6017 70.94 0.41222 83.98 9.2742 7.681 5.2199 14.338 14.018 18.617 24.605l3.3825 8.3678 0.29274 122.5c0.21765 91.077-0.0107 124.17-0.89014 129-0.65059 3.575-1.363 8.5011-1.583 10.947-1.37 15.225-14.08 27.085-30.476 28.438-2.3891 0.19721-8.986 0.91093-14.66 1.586-7.3408 0.87345-23.492 1.0936-56 0.76343-42.072-0.42737-46.316-0.62778-53.684-2.5346-4.4-1.1388-9.7527-2.808-11.895-3.7092-4.4354-1.8661-9.2198-1.532-22.212 1.551-4.4588 1.058-10.309 2.125-13 2.371-2.6912 0.24599-8.718 0.92535-13.393 1.5097-9.4667 1.1833-86.904 1.2384-99.09 0.0705zm103.88-24.962c5.9505-1.7951 13.63-8.9524 15.89-14.809 1.7277-4.4776 1.8221-11.169 1.8221-129.22v-124.5l-3-5.4229c-3.1837-5.755-8.3001-10.138-14.329-12.276-5.4343-1.9266-106.75-1.8805-113.17 0.051561-6.0961 1.833-14.314 10.051-16.147 16.147-2.0149 6.7012-2.0005 246.27 0.01518 253.21 2.7307 9.3962 10.984 16.076 21.922 17.745 9.3149 1.4205 101.88 0.62317 107-0.9217zm171.16-0.0409c2.8818-0.86435 6.286-3.1232 9.6639-6.4123 9.0632-8.825 8.4643 1.3926 8.1564-139.15l-0.2693-122.93-3-5.4229c-3.1837-5.755-8.3001-10.138-14.329-12.276-5.4343-1.9266-106.75-1.8805-113.17 0.051561-6.0961 1.833-14.314 10.051-16.147 16.147-2.0149 6.7012-2.0005 246.27 0.0152 253.21 2.7307 9.3962 10.984 16.076 21.922 17.745 9.5108 1.4504 101.88 0.62064 107.16-0.96261z" fill="#4982ba"/>
  <path d="m64.269 341.93c-4.5273-0.43792-9.4773-1.4553-11-2.2608-1.5227-0.80551-5.8424-2.907-9.5992-4.6699-8.4207-3.9515-16.529-11.798-20.672-20.005-6.2024-12.287-5.9667-6.7301-5.9829-141.09-0.014289-118.51 0.050452-122.85 1.9453-130.25 4.5003-17.596 16.1-29.196 33.696-33.696 7.135-1.8248 11.258-1.9589 59.754-1.9427 56.144 0.018715 60.462 0.3447 70.221 5.3014 2.6779 1.3601 6.963 4.3198 9.5224 6.5771s5.1787 4.1042 5.8206 4.1042 3.2729-1.7303 5.8466-3.8452c7.1718-5.8932 11.265-8.0028 19.727-10.167 7.2727-1.8601 11.119-1.9867 59.862-1.9704 56.292 0.018764 60.432 0.33515 70.385 5.3789 2.7683 1.4028 7.7706 5.0849 11.116 8.1825 5.9097 5.4714 7.0328 7.2945 14.735 23.921 1.767 3.8142 1.8666 9.6895 2.1458 126.5 0.21765 91.077-0.0107 124.17-0.89014 129-0.65059 3.575-1.363 8.5011-1.583 10.947-1.37 15.225-14.08 27.085-30.476 28.438-2.3891 0.19721-8.986 0.91093-14.66 1.586-7.3408 0.87345-23.492 1.0936-56 0.76343-42.072-0.42737-46.316-0.62778-53.684-2.5346-4.4-1.1388-9.7527-2.808-11.895-3.7092-4.4354-1.8661-9.2198-1.532-22.212 1.551-4.4588 1.058-10.309 2.125-13 2.371-2.6912 0.24599-8.718 0.92535-13.393 1.5097-9.7697 1.2211-87.128 1.228-99.731 9e-3zm107.52-25.823c2.9932-1.3525 6.8116-4.1654 8.7869-6.4732 6.7908-7.9336 6.4789-0.9627 6.185-138.19l-0.26542-123.94-2.1776-4.0682c-2.799-5.2291-8.9993-10.815-13.942-12.561-3.1049-1.0967-14.776-1.3707-58.381-1.3707h-54.5l-4.7061 2.3179c-5.2559 2.5888-10.221 7.7261-12.669 13.109-1.4657 3.2228-1.6544 15.426-1.9265 124.57-0.16586 66.55-0.02705 123.31 0.30847 126.14 1.2752 10.749 9.9404 20.154 20.538 22.29 2.4503 0.49404 27.63 0.82383 55.955 0.73286l51.5-0.16538zm171 0c6.1511-2.7793 11.344-8.3817 13.88-14.975 1.6663-4.3313 1.8031-12.188 2.0974-120.49 0.19453-71.585-0.0612-119.23-0.66927-124.67-1.1373-10.187-3.3133-15.117-8.899-20.163-7.0834-6.3994-6.0653-6.3025-66.203-6.3025h-54.5l-4.706 2.3179c-5.2559 2.5888-10.221 7.7261-12.669 13.109-1.4658 3.223-1.6553 15.514-1.9352 125.57-0.21947 86.285 0.0127 123.5 0.79312 127.12 2.2705 10.54 9.9242 18.256 20.164 20.328 2.3943 0.48447 27.528 0.80644 55.853 0.71547l51.5-0.16538z" fill="#6d7d8d"/>
  <path d="m58.905 341.02c-2.5275-0.4429-5.4525-1.2586-6.5-1.8126-1.0475-0.55406-4.9784-2.4474-8.7352-4.2074-8.42-3.9446-16.526-11.787-20.672-20-6.2024-12.287-5.9667-6.7301-5.9829-141.09-0.014289-118.51 0.050452-122.85 1.9453-130.25 4.5003-17.596 16.1-29.196 33.696-33.696 7.135-1.8248 11.258-1.9589 59.754-1.9427 56.144 0.018715 60.462 0.3447 70.221 5.3014 2.6779 1.3601 6.963 4.3198 9.5224 6.5771s5.1787 4.1042 5.8206 4.1042 3.2729-1.7303 5.8466-3.8452c7.1718-5.8932 11.265-8.0028 19.727-10.167 7.2727-1.8601 11.119-1.9867 59.862-1.9704 56.292 0.018764 60.432 0.33515 70.385 5.3789 8.5254 4.3202 16.695 12.746 20.808 21.459 1.9845 4.2046 4.0585 8.5028 4.609 9.5516 0.5505 1.0488 1.3869 6.2238 1.8588 11.5 1.148 12.838 1.1075 224.87-0.0455 237.65-0.51916 5.7534-1.8489 12.598-3.1084 16-4.7164 12.739-15.522 23.909-27.447 28.37-10.306 3.8558-17.066 4.2206-71.143 3.8384-46.708-0.33013-52.371-0.54513-57.328-2.1765-6.9291-2.2805-13.735-5.7108-18.107-9.1265-2.6941-2.1046-2.5862-1.9101 0.52405 0.9446 2.1541 1.9771 3.5041 3.6038 3 3.6149-2.3939 0.0525-13.75 2.1131-21.157 3.839-4.5324 1.0561-7.9934 1.5198-7.691 1.0305 0.30244-0.48927 1.1277-0.88959 1.834-0.88959 1.2924 0 15.598-9.6478 15.598-10.519 0-0.25702-2.9287 1.5378-6.5082 3.9884-3.5795 2.4506-9.542 5.4721-13.25 6.7144-6.6289 2.2208-7.629 2.2618-59.742 2.4479-29.15 0.1041-55.068-0.17309-57.595-0.61599zm112.89-24.907c2.9932-1.3525 6.8116-4.1654 8.7869-6.4732 6.7908-7.9336 6.4789-0.9627 6.185-138.19l-0.26542-123.94-2.1776-4.0682c-2.799-5.2291-8.9993-10.815-13.942-12.561-3.1049-1.0967-14.776-1.3707-58.381-1.3707h-54.5l-4.7061 2.3179c-5.2559 2.5888-10.221 7.7261-12.669 13.109-1.4657 3.2228-1.6544 15.426-1.9265 124.57-0.16586 66.55-0.02705 123.31 0.30847 126.14 1.2752 10.749 9.9404 20.154 20.538 22.29 2.4503 0.49404 27.63 0.82383 55.955 0.73286l51.5-0.16538zm171 0c6.1511-2.7793 11.344-8.3817 13.88-14.975 1.6663-4.3313 1.8031-12.188 2.0974-120.49 0.19453-71.585-0.0612-119.23-0.66927-124.67-1.1373-10.187-3.3133-15.117-8.899-20.163-7.0834-6.3994-6.0653-6.3025-66.203-6.3025h-54.5l-4.706 2.3179c-5.2559 2.5888-10.221 7.7261-12.669 13.109-1.4658 3.223-1.6553 15.514-1.9352 125.57-0.21947 86.285 0.0127 123.5 0.79312 127.12 2.2705 10.54 9.9242 18.256 20.164 20.328 2.3943 0.48447 27.528 0.80644 55.853 0.71547l51.5-0.16538zm6.2065 24.421c0-0.15982 2.5875-1.5748 5.75-3.1445 7.2305-3.5887 18.133-14.246 21.626-21.141 1.4615-2.8841 2.8269-5.2439 3.0341-5.2439 0.82924 0-1.5844 8.4204-3.477 12.13-2.4386 4.78-8.6226 11.134-13.13 13.49-2.9753 1.5555-13.803 4.6215-13.803 3.9084z" fill="#427cb6"/>
  <path d="m58.655 340.98c-2.6645-0.4625-5.5895-1.4834-6.5-2.2687s-3.1199-1.9188-4.9099-2.5189c-4.9535-1.6608-13.848-7.9138-17.848-12.547-4.4799-5.1898-8.7037-13.487-10.51-20.645-2.052-8.1321-2.0608-249.81-0.009449-258 4.4673-17.826 17.296-30.654 35.122-35.122 4.3311-1.0854 16.87-1.3784 59-1.3784 47.628 0 54.186 0.18976 59.749 1.7289 8.1658 2.2594 12.558 4.5662 19.366 10.17 3.0736 2.5304 5.8436 4.6007 6.1555 4.6007 0.31192 0 2.854-1.9521 5.6491-4.3379 2.7951-2.3858 7.4443-5.4781 10.332-6.8716 10.721-5.1744 12.251-5.2905 69.75-5.2905 58.557 0 60.033 0.12732 71.066 6.1323 9.1558 4.9832 19.404 17.3 21.524 25.868 0.40812 1.65 1.3763 3.4687 2.1516 4.0416 0.92621 0.6844 1.7144 4.4563 2.2987 11 1.1701 13.105 1.1575 225.03-0.0141 238.01-0.51916 5.7534-1.8489 12.598-3.1084 16-4.7164 12.739-15.522 23.909-27.447 28.37-10.306 3.8558-17.066 4.2206-71.143 3.8384-46.708-0.33013-52.371-0.54513-57.328-2.1765-6.9291-2.2805-13.735-5.7108-18.107-9.1265-2.6941-2.1046-2.5862-1.9101 0.52405 0.9446 2.1541 1.9771 3.5041 3.6038 3 3.6149-2.3939 0.0525-13.75 2.1131-21.157 3.839-4.5324 1.0561-7.9934 1.5198-7.691 1.0305 0.30234-0.48927 1.1276-0.88959 1.8339-0.88959 1.2924 0 15.598-9.6478 15.598-10.519 0-0.25702-2.9287 1.5378-6.5082 3.9884-3.5795 2.4506-9.542 5.4721-13.25 6.7144-6.6289 2.2208-7.629 2.2618-59.742 2.4479-29.15 0.1041-55.18-0.18913-57.845-0.65164zm102.21-21.957c14.834-1.7055 23.366-8.8009 26.019-21.639 0.92562-4.479 1.1442-34.781 0.91512-126.88l-0.30091-121-3-5.9999c-3.37-6.74-9.0514-11.677-15.792-13.723-3.1825-0.96597-16.88-1.2772-56.208-1.2772-48.346 0-52.38 0.13236-57.41 1.8834-7.133 2.4834-13.223 8.5739-15.707 15.707-1.8049 5.1841-1.8834 10.519-1.8834 127.91 0 117.76 0.07319 122.69 1.8914 127.4 2.3163 6.0053 7.6289 12.056 12.984 14.788 2.2065 1.1257 7.1872 2.382 11.068 2.7918 10.559 1.1149 87.797 1.1462 97.423 0.0395zm178.31-0.89136c7.1605-2.3082 13.07-7.2248 16.3-13.561l3.0225-5.9293v-249.14l-3-5.9999c-3.37-6.74-9.0514-11.677-15.792-13.723-3.1825-0.96597-16.88-1.2772-56.208-1.2772-48.346 0-52.38 0.13236-57.41 1.8834-7.133 2.4834-13.223 8.5739-15.707 15.707-1.8049 5.1841-1.8834 10.519-1.8834 127.91 0 117.76 0.0732 122.69 1.8914 127.4 2.3163 6.0053 7.6289 12.056 12.984 14.788 2.2066 1.1257 7.1872 2.4007 11.068 2.8333 11.35 1.2652 100.39 0.50566 104.73-0.89338zm9.8227 22.398c0-0.15982 2.5875-1.5748 5.75-3.1445 7.2305-3.5887 18.133-14.246 21.626-21.141 1.4615-2.8841 2.8269-5.2439 3.0341-5.2439 0.82924 0-1.5844 8.4204-3.477 12.13-2.4386 4.78-8.6226 11.134-13.13 13.49-2.9753 1.5555-13.803 4.6215-13.803 3.9084z" fill="#597a9a"/>
  <path d="m60.463 340.06c0.34685-0.56122-0.90239-0.69997-3.0965-0.34392-2.754 0.44691-3.488 0.28964-2.9221-0.62612 0.46606-0.7541 0.23814-1.1368-0.59452-0.99835-0.74269 0.12353-2.2504-0.12066-3.3504-0.54264-16.525-6.3392-27.529-18.365-31.612-34.548-2.052-8.1321-2.0608-249.81-0.009449-258 4.4673-17.826 17.296-30.654 35.122-35.122 4.3311-1.0854 16.87-1.3784 59-1.3784 47.628 0 54.186 0.18976 59.749 1.7289 8.1658 2.2594 12.558 4.5662 19.366 10.17 3.0736 2.5304 5.8436 4.6007 6.1555 4.6007 0.31192 0 2.854-1.9521 5.6491-4.3379 2.7951-2.3858 7.4443-5.4781 10.332-6.8716 10.721-5.1744 12.251-5.2905 69.75-5.2905 58.557 0 60.033 0.12732 71.066 6.1323 9.3458 5.0866 19.896 17.927 21.558 26.238 0.34431 1.7215 1.0501 3.13 1.5684 3.13 0.51831 0 0.65674 0.9 0.30761 2-0.39386 1.2409-0.1797 2 0.56428 2 0.82165 0 1.0302 1.259 0.66255 4-0.29606 2.2073-0.11574 4 0.40234 4 0.58178 0 0.81477 46.305 0.6126 121.75-0.3612 134.79 0.0287 126.83-6.7961 138.82-3.6988 6.4981-13.094 15.459-19.739 18.826-10.378 5.259-14.773 5.6046-71.272 5.6046-28.564 0-51.935-0.37206-51.935-0.82681 0-0.45474-1.4139-0.61928-3.142-0.36565-2.2357 0.32814-2.9327 0.12239-2.4162-0.71327 0.51784-0.83789-0.0146-0.9886-1.858-0.52594-1.5805 0.39667-2.5838 0.23026-2.5838-0.42854 0-0.59236-0.675-0.818-1.5-0.50142-0.825 0.31659-1.5 0.0509-1.5-0.5904s-0.45-0.88789-1-0.54797-1 0.11492-1-0.5-0.46616-0.82993-1.0359-0.47781c-1.2225 0.75554-9.5597-4.3983-12.946-8.003-1.3016-1.3855-2.8589-2.5192-3.4606-2.5192-0.60171 0-3.3262 1.8446-6.0545 4.0991-2.7283 2.2545-7.1028 5.1847-9.7212 6.5116-9.9089 5.0212-14.752 5.3893-70.906 5.3893-32.225 0-51.773-0.35769-51.412-0.94077zm100.4-21.036c14.834-1.7055 23.366-8.8009 26.019-21.639 0.92562-4.479 1.1442-34.781 0.91512-126.88l-0.30091-121-3-5.9999c-3.37-6.74-9.0514-11.677-15.792-13.723-3.1825-0.96597-16.88-1.2772-56.208-1.2772-48.346 0-52.38 0.13236-57.41 1.8834-7.133 2.4834-13.223 8.5739-15.707 15.707-1.8049 5.1841-1.8834 10.519-1.8834 127.91 0 117.76 0.07319 122.69 1.8914 127.4 2.3163 6.0053 7.6289 12.056 12.984 14.788 2.2065 1.1257 7.1872 2.382 11.068 2.7918 10.559 1.1149 87.797 1.1462 97.423 0.0395zm178.31-0.89136c7.1605-2.3082 13.07-7.2248 16.3-13.561l3.0225-5.9293v-249.14l-3-5.9999c-3.37-6.74-9.0514-11.677-15.792-13.723-3.1825-0.96597-16.88-1.2772-56.208-1.2772-48.346 0-52.38 0.13236-57.41 1.8834-7.133 2.4834-13.223 8.5739-15.707 15.707-1.8049 5.1841-1.8834 10.519-1.8834 127.91 0 117.76 0.0732 122.69 1.8914 127.4 2.3163 6.0053 7.6289 12.056 12.984 14.788 2.2066 1.1257 7.1872 2.4007 11.068 2.8333 11.35 1.2652 100.39 0.50566 104.73-0.89338zm-160.61 21.758c0.30239-0.48927 1.1277-0.88959 1.834-0.88959 1.735 0 15.598-9.7996 15.598-11.026 0-2.1351 3.7318-0.68229 7.8786 3.0671 2.4082 2.1774 3.9832 3.968 3.5 3.9791-2.3691 0.0542-13.771 2.1268-21.119 3.839-4.5324 1.0561-7.9934 1.5198-7.691 1.0305zm170.43 0.63944c0-0.15982 2.5875-1.5748 5.75-3.1445 7.2305-3.5887 18.133-14.246 21.626-21.141 1.4615-2.8841 2.8269-5.2439 3.0341-5.2439 0.82924 0-1.5844 8.4204-3.477 12.13-2.4386 4.78-8.6226 11.134-13.13 13.49-2.9753 1.5555-13.803 4.6215-13.803 3.9084z" fill="#787a7b"/>
  <path d="m60.463 340.06c0.34685-0.56122-0.90239-0.69997-3.0965-0.34392-2.754 0.44691-3.488 0.28964-2.9221-0.62612 0.46606-0.7541 0.23814-1.1368-0.59452-0.99835-0.74269 0.12353-2.2504-0.12066-3.3504-0.54264-16.525-6.3392-27.529-18.365-31.612-34.548-2.052-8.1321-2.0608-249.81-0.009449-258 4.4673-17.826 17.296-30.654 35.122-35.122 4.3311-1.0854 16.87-1.3784 59-1.3784 47.628 0 54.186 0.18976 59.749 1.7289 8.1658 2.2594 12.558 4.5662 19.366 10.17 3.0736 2.5304 5.8436 4.6007 6.1555 4.6007 0.31192 0 2.854-1.9521 5.6491-4.3379 2.7951-2.3858 7.4443-5.4781 10.332-6.8716 10.721-5.1744 12.251-5.2905 69.75-5.2905 58.557 0 60.033 0.12732 71.066 6.1323 9.3458 5.0866 19.896 17.927 21.558 26.238 0.34431 1.7215 1.0501 3.13 1.5684 3.13 0.51831 0 0.65674 0.9 0.30761 2-0.39386 1.2409-0.1797 2 0.56428 2 0.82165 0 1.0302 1.259 0.66255 4-0.29606 2.2073-0.11574 4 0.40234 4 0.58178 0 0.81477 46.305 0.6126 121.75-0.3612 134.79 0.0287 126.83-6.7961 138.82-3.6988 6.4981-13.094 15.459-19.739 18.826-10.378 5.259-14.773 5.6046-71.272 5.6046-28.564 0-51.935-0.37206-51.935-0.82681 0-0.45474-1.4139-0.61928-3.142-0.36565-2.2357 0.32814-2.9327 0.12239-2.4162-0.71327 0.51784-0.83789-0.0146-0.9886-1.858-0.52594-1.5805 0.39667-2.5838 0.23026-2.5838-0.42854 0-0.59236-0.675-0.818-1.5-0.50142-0.825 0.31659-1.5 0.0509-1.5-0.5904s-0.45-0.88789-1-0.54797-1 0.11492-1-0.5-0.46616-0.82993-1.0359-0.47781c-1.2225 0.75554-9.5597-4.3983-12.946-8.003-1.3016-1.3855-2.8589-2.5192-3.4606-2.5192-0.60171 0-3.3262 1.8446-6.0545 4.0991-2.7283 2.2545-7.1028 5.1847-9.7212 6.5116-9.9089 5.0212-14.752 5.3893-70.906 5.3893-32.225 0-51.773-0.35769-51.412-0.94077zm100.4-21.036c14.834-1.7055 23.366-8.8009 26.019-21.639 0.92562-4.479 1.1442-34.781 0.91512-126.88l-0.30091-121-3-5.9999c-3.37-6.74-9.0514-11.677-15.792-13.723-3.1825-0.96597-16.88-1.2772-56.208-1.2772-48.346 0-52.38 0.13236-57.41 1.8834-7.133 2.4834-13.223 8.5739-15.707 15.707-1.8049 5.1841-1.8834 10.519-1.8834 127.91 0 117.76 0.07319 122.69 1.8914 127.4 2.3163 6.0053 7.6289 12.056 12.984 14.788 2.2065 1.1257 7.1872 2.382 11.068 2.7918 10.559 1.1149 87.797 1.1462 97.423 0.0395zm178.31-0.89136c7.1605-2.3082 13.07-7.2248 16.3-13.561l3.0225-5.9293v-249.14l-3-5.9999c-3.37-6.74-9.0514-11.677-15.792-13.723-3.1825-0.96597-16.88-1.2772-56.208-1.2772-48.346 0-52.38 0.13236-57.41 1.8834-7.133 2.4834-13.223 8.5739-15.707 15.707-1.8049 5.1841-1.8834 10.519-1.8834 127.91 0 117.76 0.0732 122.69 1.8914 127.4 2.3163 6.0053 7.6289 12.056 12.984 14.788 2.2066 1.1257 7.1872 2.4007 11.068 2.8333 11.35 1.2652 100.39 0.50566 104.73-0.89338z" fill="#4676a6"/>
  <path d="m55.063 338.45c-17.859-3.8726-31.608-17.344-36.175-35.445-2.052-8.1321-2.0608-249.81-0.009449-258 4.4673-17.826 17.296-30.654 35.122-35.122 4.3311-1.0854 16.87-1.3784 59-1.3784 47.628 0 54.186 0.18976 59.749 1.7289 8.1658 2.2594 12.558 4.5662 19.366 10.17 3.0736 2.5304 5.8436 4.6007 6.1555 4.6007 0.31192 0 2.854-1.9521 5.6491-4.3379 2.7951-2.3858 7.4443-5.4781 10.332-6.8716 10.721-5.1744 12.251-5.2905 69.75-5.2905 48.062 0 54.15 0.17956 59.895 1.7664 16.878 4.6622 28.988 16.758 33.773 33.734 1.7312 6.1419 1.8321 13.304 1.8321 130 0 133.27 0.19439 128.14-5.3051 140-3.0053 6.4788-12.823 16.749-19.045 19.924-2.3713 1.2098-7.722 3.0718-11.89 4.1379-7.0149 1.7941-11.396 1.9384-58.854 1.9384-55.699 0-60.346-0.36664-70.789-5.5859-2.8143-1.4065-7.2226-4.3251-9.7962-6.4857-2.5737-2.1606-5.2191-3.9284-5.8788-3.9284-0.65966 0-2.8854 1.5232-4.946 3.3848-5.8048 5.2443-11.958 8.4317-20.492 10.614-7.3512 1.8801-10.94 1.9962-59.414 1.9215-40.164-0.0619-53.016-0.38864-58.027-1.4753zm105.8-19.422c14.834-1.7055 23.366-8.8009 26.019-21.639 0.92562-4.479 1.1442-34.781 0.91512-126.88l-0.30091-121-3-5.9999c-3.37-6.74-9.0514-11.677-15.792-13.723-3.1825-0.96597-16.88-1.2772-56.208-1.2772-48.346 0-52.38 0.13236-57.41 1.8834-7.133 2.4834-13.223 8.5739-15.707 15.707-1.8049 5.1841-1.8834 10.519-1.8834 127.91 0 117.76 0.07319 122.69 1.8914 127.4 2.3163 6.0053 7.6289 12.056 12.984 14.788 2.2065 1.1257 7.1872 2.382 11.068 2.7918 10.559 1.1149 87.797 1.1462 97.423 0.0395zm178.31-0.89136c7.1605-2.3082 13.07-7.2248 16.3-13.561l3.0225-5.9293v-249.14l-3-5.9999c-3.37-6.74-9.0514-11.677-15.792-13.723-3.1825-0.96597-16.88-1.2772-56.208-1.2772-48.346 0-52.38 0.13236-57.41 1.8834-7.133 2.4834-13.223 8.5739-15.707 15.707-1.8049 5.1841-1.8834 10.519-1.8834 127.91 0 117.76 0.0732 122.69 1.8914 127.4 2.3163 6.0053 7.6289 12.056 12.984 14.788 2.2066 1.1257 7.1872 2.4007 11.068 2.8333 11.35 1.2652 100.39 0.50566 104.73-0.89338z" fill="#3173b3"/>
 </g>
</svg>
