<?xml version="1.0" encoding="UTF-8"?>
<svg width="48px" height="48px" version="1.1" xmlns="http://www.w3.org/2000/svg" xmlns:xlink="http://www.w3.org/1999/xlink">
 <g transform="matrix(1.2879 0 0 1.2879 -75.958 -23.059)">
  <g transform="matrix(.98493 0 0 1.3752 -5.1163 -11.411)" fill-rule="evenodd">
   <path d="m77.148 32.312v1.6816h7.2148v-1.6816h-7.2148z" color="#000000" color-rendering="auto" image-rendering="auto" shape-rendering="auto" solid-color="#000000" style="block-progression:tb;isolation:auto;mix-blend-mode:normal;shape-padding:0;text-decoration-color:#000000;text-decoration-line:none;text-decoration-style:solid;text-indent:0;text-transform:none;white-space:normal"/>
   <path d="m79.168 33.153 1.6832-1.6832-5.8912 1.6832 5.8912 1.6832-1.6832-1.6832z" stroke="#000" stroke-width=".33664pt"/>
  </g>
  <g transform="matrix(.29451 0 0 .36424 46.982 51.91)" stroke-width=".24847">
   <path d="m47.642 7.1541c-2.5229-2.8758-8.4047-0.37163-6.7893-6.112 1.4456-2.9149 5.2763-0.98328 5.8999-4.6883 2.6034-2.2228 7.6289-3.6058 2.8415-6.1936-1.8565-3.1579-0.74568-9.3897-5.2275-8.8326-4.3165-7.728-3.2038-17.097-3.1701-25.613 0.34401-12.637 2.7121-25.209 2.1747-37.861 0.76806-2.8162 0.4658 6.4928 3.9875 4.0061 3.65 1.007-0.12613 8.2649 4.8657 8.0047-2.7623 4.766-7.6058 1.5774-10.229 0.11436-1.926-0.29106 0.84629 6.4157-0.08313 9.1082-0.06982 9.4323-0.57236 18.855-1.1352 28.269 2.214 0.1594 6.3045 6.7055 4.6416 0.20437-1.9145-4.7939 7.6352-5.1876 5.6715 0.56303 2.1741-0.9979 6.3368-4.2901 3.7597-7.8055-3.5794-2.7868-4.3884-7.8008 0.53931-8.2508 0.09772-4.1908 0.29395-8.5038 0.0012-12.652-3.3123-3.7072 2.4661-6.1744-1.1306-10.227 0.88484-3.2459 1.3588-7.5009 2.1012-10.631 0.11719 2.466 0.39161 9.3034 2.2601 4.0666-3.6728-6.9358 6.8547-2.8871 8.9632-3.8777 3.1891-6.0983 8.8516 5.5254 10.182-1.7992 1.7762-2.9879 7.3661 1.8992 4.2081 4.3168 3.1314 1.9941 4.4846-7.0304 8.8034-2.3837 5.1745 1.0625 1.7016 9.3553 7.5622 7.0683 2.9695 1.6733-1.4953 6.9534 2.756 7.8623-2.2471 2.5864-8.7488 3.3939-8.4828-1.619-5.1233 3.6673-10.126-9.1036-11.86-1.0749-2.16 2.6972-6.2385 3.7162-8.2247 4.8046 4.0109 2.7022-0.34182 8.9543-4.2003 7.7846 3.0076 2.8655 0.45046 7.0476 5.0254 7.4019 2.8621 2.8751 1.2958 6.6111 5.7914 7.3771 2.948 2.6632 2.5202 5.2395 6.2889 6.3421 1.8848 1.6969 6.2936 5.8905 7.2667 5.7786-2.3299-3.6972 2.5992-8.8402 5.1283-5.0672 0.69211 7.1155 3.5555-3.0434 5.5518-4.4801 1.4919-1.5515 4.1572-1.556 4.9943-3.2-1.5936-3.7037 7.051-1.49 4.6038-3.9725-3.7336-2.9402 1.9476-6.8953-2.4278-9.9316-0.99489-2.2804 6.6872-7.1674 0.0817-4.8712-4.4852 3.4062-7.1469-5.8061-0.97921-5.0796-0.27284-1.166-8.7708-5.0815-3.4919-8.5591 5.3795-1.1912-1.7728-8.566 5.2964-7.512 3.7737-1.6783 4.8645 4.2361 6.511-0.33171 3.4985-5.1398 9.298 5.2941 9.3742-3.1214 1.6048-1.9522 7.299 1.4323 4.667 4.2372 3.0571 2.7351 1.6912-6.865 6.6178-4.2256 4.2909 0.48408 5.71 5.6893 7.3241 7.4657 4.5041-1.983 3.6368 6.8828 3.8145 7.6822-2.9213-0.2512-1.6183-7.1792-3.0482-1.2069-1.3009 3.1283 1.313 3.9048 3.3449 1.917-1.5545 5.5718-6.2399-1.8575-9.1522-0.39608-3.5126-0.19246-8.7032-7.858-8.775-1.5734-2.7773 2.1601-4.5975 5.7231-7.9926 5.8923 5.195 2.4912 0.33007 8.8508-2.7034 8.5436 2.7463 2.549 0.0999 6.7661 4.5155 7.6964 2.4332 3.1357 1.8806 5.9433 5.9715 7.1483 3.2049 2.1732 1.206 5.5384 5.3793 5.9389 2.418 3.2357 5.8867 4.0218 8.3284 7.2578-1.053-3.814-0.18583-8.9572 4.8744-6.6977 0.5044 3.4504 0.59202 5.0647 2.9917 1.823 2.3806-0.17625 2.1981-4.0751 3.5476-1.023 4.3852-0.20612 3.0506 6.8136 8.092 5.371 3.3728 2.8364-2.0967 7.7229 1.7169 10.765-0.54644 3.1707-7.9074 6.2302-2.1162 8.854 2.739 2.6551-3.9717 6.0612-5.0513 2.9985-4.8318 2.7253 5.0836 4.8019 1.064 8.4215-2.9003 5.0926-9.0092 2.5186-13.553 2.6563-2.1597-1.2814-3.8978-4.8088-5.7354-2.5665-1.7331-2.849 8.5729-3.2774 1.9957-4.2587-11.265-0.024921-22.53 0.029868-33.795 0.039161 3.3161 4.5722-3.9114 8.8476-7.7861 7.7656-0.5298 4.5703-6.2175 1.9388-7.2749 2.6474-1.6982 4.2939-3.7163-5.8494 0.59224-6.0224 0.07171-3.3257 3.2093-5.4272-1.8804-4.3632-10.982 0.10856-21.974-0.13547-32.95 0.14371 3.6031 3.5543-3.4085 9.1202-7.2292 6.9927-3.3625-1.4916-1.0179 5.6363-5.4957 2.751zm1.9503-1.0336c1.5239-3.2397-3.4613 0.7941-4.2578-3.0457-1.0146-3.1975-4.7722-2.5586-3.2689 1.4538 2.5285-2.1146 5.6668 2.976 7.5268 1.5918zm48.513-0.40683c-2.224-4.5216-6.3079 0.54891-1.7664 1.0313 1.0797 0.37122 4.4993 1.1792 1.7664-1.0313zm-42.302-1.6364c2.7015-1.0632 5.628-4.3172 0.30178-2.8513-3.3838 1.3509-6.5936-8.3526-5.0897-1.7319 0.67082 2.2326 1.6701 5.1974 4.7879 4.5832zm50.203-0.40926c2.3217-1.4619 3.7726-3.821-0.16102-2.4671-3.8467 1.5264-4.1785-4.0751-6.9112-3.4444 1.6134 2.4093 3.9664 7.6621 7.0722 5.9114zm50.113 0.27133c2.0103-0.72279 5.3422-4.4254 0.87343-2.7848-3.7729 1.2921-4.3682-3.9706-6.5409-3.7969 1.5831 3.3174 1.0445 6.7449 5.6674 6.5817zm-76.946-7.3571c5.927-0.07044 11.876 0.13844 17.789-0.15687 2.8629-1.9359 5.6999-4.1405 1.4516-5.5998-2.1712-3.9685-0.93516-9.7879-6.7035-9.1553-3.7935-0.83379-1.665-6.9386-5.9302-3.4708-4.4797 3.6577-6.4313-2.8739-7.968-5.0894-4.294-0.27075-3.3054-1.6552 0.64718-0.74818 1.3707-0.60362 5.1539-1.7452 3.85-3.4024-4.521 3.8321-9.0391-4.0244-6.4485-6.5515-4.0812 3.4284-9.5943-3.0485-5.9211-6.6098-1.4876 0.50019-5.4045 0.05695-6.3358-2.3483-1.0999 3.6336-5.8384 4.5613-7.2448 4.1718 0.83397 2.1278-1.2691 6.8305 1.03 7.4721 3.8029 0.26465 2.8094 7.1162 7.9279 5.4385 2.4743 3.5052-2.2384 7.7492 1.3982 11.078-1.3971 2.9988-7.3443 6.067-1.9097 8.7164 2.1849 3.258-4.3276 5.2333-5.2425 2.5286-4.3982 5.1886 6.014 3.5691 8.9325 3.7286 3.5591-0.00222 7.1183-0.00236 10.677-0.00124zm48.926-0.093809c6.233-0.041243 12.472 0.038042 18.7-0.20976 1.6751-2.0974 8.5995-3.976 3.1948-5.4846-2.4066-3.3031-0.39172-10.468-5.7241-9.4576-2.8927-0.2986-3.5578-4.5043-4.3351-4.8064-5.1056 4.1034-7.3773-7.6912-11.893-2.9006-4.0271 4.6042-2.0194-4.625-0.2066-1.897-0.54126 0.92864 5.2676-1.8283 6.1567 1.6805 1.5678 2.4296 4.9071 3.1964 1.1298 0.51341-4.9529-0.64801 2.5118-7.7952-1.7471-5.4361-2.4731 1.7634-6.5254-2.2137-6.1552-4.5961 3.6139-4.809-4.1472 0.76949-5.2192-4.0614-2.9403-2.5092 3.2341-6.9449-2.6727-4.5611-2.101 1.6009-2.815 6.2813-6.7237 3.687-0.80862 3.831-4.1146-1.6596-6.3671 1.6262-3.2898 1.2546-5.1454 5.2324-0.16193 4.584 1.7359 3.3001 3.4603 5.027 7.1671 4.8565 4.0172 2.4518-1.3388 5.4346 0.31299 8.0964 5.7168 3.9983-2.6258 6.7747-3.007 9.8144 4.6076 0.81489 3.7536 5.9457-0.20112 6.1027-3.1398-4.1299-5.1227 4.2408 0.28909 2.4315 5.8211 0.02346 11.642 0.02045 17.464 0.017988zm-72.84-9.6382c-0.14486-2.2879-1.9423 2.5906 0 0zm4.4982 0.7242c4.224-0.98149-2.2304-3.7257-2.8105-5.765-0.69804 2.5282-2.2232 7.9261 2.8105 5.765zm2.0743-3.093c-1.1089-2.9157-4.2316-2.597-0.91732 0.23785 0.29185 0.38647 0.87947 0.17672 0.91732-0.23785zm45.471 2.9893c5.9345 0.30306-4.5556-9.508-2.2047-2.7004-2.5514 3.4786-4.1378 2.4655 2.2047 2.7004zm-42.872-4.1766c3.0359-3.4548-2.7203-2.3636-1.987-5.0104-5.1161-2.4026-3.1977 4.4739 0.44162 5.0872 0.33642 0.74368 1.2085 0.5272 1.5453-0.07684zm45.278 0.35187c-3.4901-3.7874 0.29309 2.9291 0 0zm45.226 3.7259c1.6519-1.8115-2.9336-0.09626 0.36041 0.20831l-0.36043-0.20831zm4.8872 0.0081c4.2224-1.1122-2.1083-3.5379-2.5948-5.7641-0.66683 2.4534-2.7328 7.6352 2.5948 5.7641zm-102.21-7.1107c1.9636-5.7724-3.9055-2.5718-0.51215 0.61573l0.56098-0.06471-0.04882-0.55101zm56.105 2.501c2.9897-4-6.0156-1.4431-1.8835-4.2319-0.67217-2.9404-8.0034-0.24936-3.7 2.7729 3.3799 0.33878 2.5537 5.3552 5.5835 1.4591zm-58.704-7.3644c-1.7544-1.2106-6.5059 1.3-1.7669 2.4565 2.3634 2.9785 2.3414-0.90863 1.7669-2.4565zm50.447 5.6382c0.1005-1.9389 1.9479-5.0822-2.1248-5.0603-0.46088-3.1386-6.6678 1.3223-1.9063 1.8236 2.1743 0.26519 1.9944 3.755 4.0311 3.2368zm56.495 3.3436c-1.0188-2.8757-4.4084-2.8767-0.86776 0.1752 0.19547 0.44878 0.95843 0.29344 0.86776-0.1752zm3.4036-2.4755c0.56676-2.7445-3.312-0.98418-3.0476-3.8866-6.3408-2.4783-0.76263 7.0862 1.9898 5.1789l0.63037-0.65524zm-103.23-5.292c-0.71381-2.4236 5.5309-4.7506 0.21191-5.0772-2.0342-0.62965-1.7929 4.8292-1.2955 5.376 0.01896 0.06317 1.9754 0.75906 1.0836-0.29881zm2.3889-1.3087c-0.84858-2.401-1.263 4.067 0 0zm-5.1853 0.54733c2.8297-3.2143-2.2158-3.8467-1.6527-5.8724 5.149 0.43542-2.7957-7.954-1.3046-1.2966 0.26962 2.2117-1.3374 9.4794 2.9573 7.1689zm-8.6348-0.79544c4.6055 0.94358 1.71-6.0529 0.29246-5.0978-0.96466 2.7408-7.1468 5.0375-1.1518 5.4312zm107.06 5.0789c2.2622-2.6733-1.858-5.4838-1.3759-1.3431-0.76956 0.97646 1.3928 3.2754 1.3759 1.3431zm-46.821-3.9648c2.8608-2.1009 0.77004-6.6205-1.8429-4.8371 0.86661 1.7242-1.6257 7.1786 1.8429 4.8371zm-11.031-1.2979c3.2843-1.0348-2.6585-8.8954-2.2655-2.9139-2.7382 1.8199-3.42 4.3926 0.9542 3.3846l0.63518-0.16923zm7.2619 0.98099c2.8853-3.5862-2.1875-13.911-5.1374-8.2255-4.6089 0.17284 3.5494 1.9873 1.8931 5.0533-0.41693 2.1352 0.9011 4.119 3.2444 3.1721zm-2.512-5.1803c0.51381-4.3903 4.5543 2.1001 1e-4 0zm-22.231 3.6186c-1.9048-2.1561-1.6813-0.52707 0 0zm72.687 0.9033c-1.4006-1.1388-6.3415 1.181-2.0042 2.3211 2.3298 2.8942 2.7262-0.28126 2.0042-2.3211zm-100.7-4.8138c-3.3411-2.8293 1.6762 4.6149 0 0zm107.91 6.3047c-0.80922-2.6006 5.7297-4.8686 0.0125-5.3388-1.8034-0.14896-1.4271 4.5238-1.0258 5.4869-0.11174 0.66254 1.4754 0.36631 1.0133-0.14811zm2.4929-2.2527c-2.6212 1.0974-0.11347 3.8917 0 0zm-4.8093-0.15667c1.1778-2.643-5.4132-4.3202-0.18556-4.6049-0.14506-3.0703-4.3206-5.985-3.3406-0.97211-0.41923 2.3565-0.0642 11.578 3.5262 5.577zm-104.61-5.7661c0.92796-4.468-5.3713 1.3557-0.23876 0.88721zm46.821 1.9761c-3.0497-2.8879 0.46649 3.7955 0.21784 0.62621zm49.58 4.1783c4.2302 0.18429-1.1255-9.0443-1.4591-3.2674-2.4739 1.5849-5.0551 3.5856-0.62813 3.7619 0.72248 0.0093 1.4462-0.1632 2.0872-0.49444zm-39.635-4.1631c-1.2568-0.98808 0.2247 0.87203 0 0zm42.766 0.99193c-2.5389-5.6494-0.70486 2.0938 0 0zm0.60169-3.759c0.30079-3.8782-5.0073 2.4757-0.21473 1.3234l0.13062-0.4832 0.0841-0.84022zm-100.14-10.241c-0.46611-3.1725-4.4828-3.6481-1.039-0.19038 0.68335 0.16591 1.3639 2.7832 1.039 0.19038zm55.855 1.6854c-0.56674-2.4269-1.1675 0.96715 0 0zm-54.109-6.5494c-0.7768-2.6279-1.213 0.70481 0 0zm5.8497-1.979c-0.69618-0.86483-0.77688 0.28942 0 0zm-4.8424-4.0586c2.0613-1.9231-1.2407-4.4888 2.3974-6.2327 2.6066-2.8474-6.7443-0.75769-4.0053 2.8681 0.03593 1.4562-0.58628 7.2851 1.6078 3.3646zm8.8482-8.9258c0.15368-4.1544-4.5568-9.9286-6.6418-3.8634 3.0581 0.34566 3.4763 5.0579 6.6418 3.8634zm-8.059-3.8177c-2.3761-3.0693-3.5994 2.6145 0 0zm59.583 3.658c1.3359-2.7184-6.3492-11.6-6.7739-3.7866 3.3062-0.22672 3.8945 4.908 6.7739 3.7866zm-50.459-4.3529c0.11942-2.7364-0.21296-5.6594 2.6662-6.6905-1.2684-2.6051 6.7107-5.1178 1.8895-6.1144-0.15304 4.3616-4.5821 4.0132-6.5386 4.9166 1.302 3.9409-7.7949 4.0918-5.3817 5.8152 3.6762-4.667 5.6352 3.0001 7.3646 2.0732zm29.741 1.3205c3.7883-0.51825-2.6654-2.877 0.17378-5.9103 1.227-2.7704-3.4805-1.7353-1.3072 0.30183-3.1907 1.4275-3.6958 8.2456 1.1335 5.6085zm-49.489-2.9456c5.2314-2.1393-2.2622-1.7412-0.76434-5.8264-0.6148 1.4287-2.762 7.054 0.76434 5.8264zm10.606-0.5692c-0.30567-3.3895 8.8712-3.2152 4.7992-7.201-1.6846 1.2647-6.2341 0.40944-3.0118 2.2964-1.1914 2.5242-5.0873-2.3416-4.1064 2.8227-1.1389 1.563 2.6855 6.0082 2.319 2.0819zm60.342 0.9677c-1.6216-5.2814 2.8888-7.7383 5.2532-11.671-2.6453-4.0435-2.7697 6.4771-7.2665 3.635-1.9043 0.36432-0.37924 5.8244-4.6584 4.9158-4.0596 3.5625 3.9726-2.2 4.5088 2.3364 0.6258 0.84935 2.1055 3.9725 2.163 0.78419zm-9.4381-0.79227c-0.68862-4.0702 8.126-3.0394 4.6039-7.7127-2.9338 1.5935-4.8903 4.2301-6.0233 1.8763-5.2193 0.92914-0.18225 8.9474 1.4194 5.8364zm-54.204-3.3154c-0.42658-0.1885 0.16266 1.7542 0 0zm-13.863-4.2895c3.113-0.77995 0.25917-6.6511 2.2691-1.7221 1.6869 2.4883 1.2869 6.6991-1.5157 2.599zm49.541 2.9917c3.294-1.3243 1.8334-5.3692-0.76721-6.7377-4.7335-3.312 1.4504 4.5433-0.81652 6.4938-3.4503 2.9915-0.2717 2.5813 1.5837 0.24384zm-15.376-1.2448c0.92154-2.9195 0.24619-5.9062-1.4568-1.7318-4.1242 2.1755-1.6939 2.1276 1.048 3.0186l0.20198-0.01669zm-28.196-1.3117c-2.1588-3.3899-3.321 1.4659 0-4e-6zm15.931-1.0584c3.6555-0.75079-4.1513-6.5888-2.7911-0.61934-1.0599 2.9263 1.3037-0.04849 2.7911 0.61934zm5.5623 0.84682c0.92641-2.5427 6.0121-5.9611 0.94445-5.6515 0.75867 2.8976-6.449 2.9686-2.9452 5.7328l1.1901 0.33798zm40.915 0.71438c-1.6268-0.87375 0.49271 1.113 0 0zm-50.377-3.9496c1.3469-3.245-2.0606 1.0811 0 0zm63.364 4.1324c3.8054 1.2092 3.9451-2.3156 2.7682-5.3239 1.665 2.0398-5.3566 5.3415-2.7682 5.3239zm17.092 0.71863c5.0522-2.5797 3.4328-9.807-2.2795-10.13 2.5498 3.1571 2.3076 7.0485 1.4972 10.66zm-75.418-5.793c-2.1162-1.1511 1.2552 1.8246 0 0zm48.54 3.0928c4.3388 0.03629-3.0834-6.7195-2.1045-1.3021-0.71694 2.5652 0.47713 1.7698 2.1045 1.3021zm6.1439 0.5203c-0.2842-3.0418 6.4117-6.077 0.93489-6.2685-0.71616 2.0073-1.1638 3.1937-4.01 4.0865-1.2199 2.3272 1.6182 2.2714 3.0751 2.182zm28.265 0.12164c-0.86868-1.9885-3.8436 0.80896 5e-3 1.0485l-5e-3 -1.0485h3.5e-4zm-37.696-3.2936c-0.65164-4.3091-1.1664 4.0238 0 0zm4.7052-1.0214c-1.6877-1.4096-0.66569 1.0985 0.22266 0.43096zm-47.073-11.522c6.0541-0.71659 12.971-0.14411 19.356-0.31999 1.9687-0.15324 9.0581 0.16625 3.1984 0.58095-7.3788 0.10774-14.773 0.27233-22.146-0.04444l-0.40897-0.21652zm48.71-0.0681c5.4061-0.77892 11.288-0.14313 16.871-0.3536 2.0294-0.2353 9.0423 0.43053 3.0576 0.60905-6.641 0.03275-13.335 0.33664-19.944 0.01958l0.0149-0.27504z" fill="#c4c4c4"/>
   <path d="m49.508 7.1733c2.2788-0.62609-0.69239 0.96787 0 0zm43.6 1.2123c-2.1002-4.5732 3.7504-7.5303 3.1114-11.153-11.995-0.14786-23.999-0.059775-35.991-0.036165-2.7455-0.11404-7.3546 5.5724-3.1095 0.14837 3.1418-2.5068 9.7722 0.50338 14.305-0.63429 8.6392-0.00614 17.278-0.019115 25.918-0.028553 2.2847-2.4704 5.5535-4.2538 1.1281-6.0383-2.4228-2.1456-0.54113-9.6348-4.6366-8.3756-3.0861 0.08984-5.2269-3.7115-5.4368-5.2901-4.0293 3.3924-9.689 2.1593-9.85-3.6991-3.0776-0.15989-5.7086-1.8219-0.92989-0.96275 3.1974 1.1162 7.6652-5.5117 2.3009-2.4757-4.2379 0.0413-5.7777-5.8101-4.1386-7.588-4.1595 3.3899-9.5835-3.2034-5.6853-6.7244-2.8737 1.5768-5.0441-0.50342-6.6061-2.3766-1.3303 2.2856-3.9917 6.3909-7.0458 4.009 0.08522 1.8397-0.48289 11.942-0.92034 5.5839 0.5824-3.4392-8.2923-9.5331-0.46624-9.8922 1.2178-2.559 0.31783-6.6864 0.58741-9.9101 0.32248-2.3159-0.30833-4.4053-1.4355-6.4149 2.352-1.7297 1.2559-5.3842-0.0057-8.4868 2.6008-2.0583 0.64282-7.9251 2.1613-8.9633 0.40114 2.2438-0.69987 8.9676 2.3388 4.1678-4.0614-6.6379 6.2448-4.8558 8.345-3.7621 2.566-4.5974 6.5639-1.2308 9.4395 0.74721-0.23432-5.0682 5.0393-4.948 6.5062-1.5366-3.0919 3.271 1.8569 4.286 2.3549 0.60099 2.7282-3.7821 6.9975 0.57074 8.8481 3.0735-0.29632 3.678 0.98006 4.5373 4.4847 3.8417 1.9041 2.2132-1.4435 6.6454 2.2995 7.7359-3.5212 3.7841-7.9559 0.93258-8.7931-1.7346-3.9895 3.3106-9.2059-7.0286-10.252-2.776-1.8492 3.705-7.2834 5.0857-9.4773 6.5975 4.1236 2.6999-0.42823 8.968-4.5185 7.2723 3.2904 2.4411 0.60332 7.6826 5.0525 7.5421 3.2644 2.9225 1.6244 6.8857 6.1389 7.7512 2.5168 2.8982 2.7418 5.1017 6.32 6.3245 2.0551 2.2175 5.6256 4.8232 7.3567 5.9657-0.16876-2.9516-1.6162-6.0189 2.406-6.3089 3.7608-2.9647 2.1516 7.5531 4.7585 2.2076 3.3219-2.4946-2.208 3.9415 2.7756 2.6487 1.2361 1.8737 1.1508 9.6968 4.9249 5.4967 1.4776-3.8641-1.3926-11.088-5.7885-9.0431 3.4506-4.1262 5.624 2.7883 8.0293 3.8858 5.0939-1.2767 5.707 4.5685 2.9498 7.5531 3.464 2.6775 3.1283 7.3097-1.7072 8.5004-3.2916 3.4063 7.0679 4.2811 0.92405 7.5486-1.901 3.0034-3.896-3.8335-4.594 0.66925-1.6204 2.8581 3.0898 2.7824 5.0329 2.5989 11.241 0.00175 22.483-0.11241 33.723 0.041759-4.7576 0.70338-10.387 0.17114-15.471 0.36333-7.0692 0.07752-14.214-0.13359-21.236 0.18472 3.122 3.6804-2.829 9.0107-6.8666 7.471-1.9832 2.2229-4.5785 4.6762-8.2464 2.3596 0.315 1.2886 0.3258 2.79-1.3125 1.3202zm6.0432-1.2435c-0.13522-3.6511-8.2134-4.4136-3.7726-0.74454 1.0794 0.16921 2.8251 1.7296 3.7726 0.74454zm7.1593-3.4445c3.3779-2.6322 2.6176-3.4959-1.0928-2.551-3.0635 1.5415-5.8447-6.9725-5.9858-2.0909 2.6879 1.9754 3.7115 6.6498 7.0786 4.6419zm1.9859-16.253c3.8257-1.1284-5.4308-9.2862-3.4786-2.6236-4.6041 3.2514 0.38117 2.8862 3.4786 2.6236zm1.6094-3.3164c-2.9172-5.0892-2.3584 1.089 0 0zm2.924-0.44592c2.8771-2.395 0.79842-4.9562-1.8636-3.5216-0.30394-1.8493 3.0571-1.9904-0.74371-2.689-5.0055-1.663-3.4646 5.0963 0.41252 5.5073 0.99961 1.176 0.14801 2.6181 2.1948 0.70333zm-6.9024-2.8857c-0.92375-2.4575 1.5868-4.443-2.386-4.7951-0.87472-3.3054-6.6944 1.298-2.0589 1.9256 2.8014 0.22007 1.5294 4.9915 4.4449 2.8695zm5.1131-4.5873c2.6524-1.9825 0.61119-7.2142-2.0103-4.6296 1.0321 2.0925-2.0959 7.1756 2.0103 4.6296zm-14.352-0.9422c5.0578 2.1693 5.5298-4.9894 1.6064-5.5698 1.0172 2.227-6.9524 6.0543-1.6064 5.5698zm-14.6-1.4103c-3.5658-2.9637 1.8996 2.6361 0 0zm20.22-3.5967c-4.3752-2.7857 1.7833 5.6616 0 0zm9.8644 0.2485c-2.8524-1.6047 0.67094 1.0584 0 0zm-56.588-12.81c0.69714-2.8867-5.3913-4.0492-1.3236-0.26943 0.89242 0.51445 1.4437 2.6702 1.3236 0.26943zm1.479-5.5556c-1.766-3.2857 0.06005 2.7946 0 0zm5.7269-1.7233c-1.1387-0.57557 0.27778 1.2237 0 0zm-4.5057-3.8626c0.71015-2.7567 0.34366-5.2841 3.448-7.5138-4.0135-0.82182-6.3753 1.2539-5.3676 5.0461-0.01685 2.3727-0.4701 6.7176 1.9196 2.4677zm8.9956-8.6419c-0.22192-3.7872-4.1744-10.679-6.9528-4.2719 2.5051 0.67543 3.722 5.2873 6.9528 4.2719zm-8.7964-3.6545c2.0103-1.8267-4.8575-1.6803-1.2513 0.29091zm9.587-1.1756c-0.10449-3.0009 0.53176-5.5307 2.9764-6.4939-1.8583-2.3306 6.698-5.7187 1.4469-6.2018-0.30766 3.9904-4.0675 4.3765-6.5115 4.3297 1.6099 4.825-7.3658 3.542-5.2006 6.4721 4.0634-5.3051 5.6617 4.3893 7.2888 1.894zm29.82 1.5183c3.0338-0.56054-2.1448-3.1985 0.15827-5.7599 1.7314-3.1192-4.1408-2.2917-1.4055 0.05358-2.7005 0.88769-4.0048 5.7262-0.48956 6.1913l0.78638-0.16767zm-38.901-2.465c-1.923-4.9659 9.3016-3.3113 4.8783-8.469-2.4316 1.1189-6.0303 0.28776-3.4366 2.7875-2.2904 0.05809-4.8173-1.3006-3.9358 2.9824-0.46922 1.242 1.3568 3.951 2.4941 2.699zm-3.3513-4.3085c-0.39856-0.29067 0.16182 2.6895 0 0zm35.194-0.79113c5.2549-1.6208 0.50395-9.1399-2.3107-7.7237 1.9704 3.378 1.3059 6.5889-0.2616 9.6168 0.91545-0.54921 1.7297-1.2432 2.5723-1.8932zm-14.774-1.4914c1.0055-2.8478-0.17565-6.9902-1.4459-2.209-4.0377 2.0088-2.5174 2.9263 0.66472 3.0387 1.3433 1.8045 0.51158-0.57052 0.78121-0.82965zm-13.711-2.3152c6.0354 0.63772-2.209-7.7392-1.5583-1.2059-0.59693 1.8151-0.21565 1.9173 1.5583 1.2059zm6.9018 0.70212c0.7795-2.4025 5.8028-6.7375 0.66278-5.8328 0.7868 2.9393-6.2918 2.7126-2.8689 5.6823 0.67607 0.21661 1.5367 0.66037 2.2061 0.15056zm-9.1351-4.6785c-2.4198 0.71317 0.14746 3.7196 0 0zm5.0464 0.79062c-1.9714-3.5137-1.1649 1.8948 0 0zm-17.872 85.017c1.1772-2.0993 3.4263-5.3225 4.7233-2.0912-1.737 0.2064-2.9445 2.9759-4.7233 2.0912zm8.8566-0.50732c4.0234-1.7559-0.95024 0.95367 0 0zm-4.9829-0.68674c1.3998-0.12747-0.45293 0.39852 0 0zm7.5172-0.77505c1.3998-0.12747-0.45293 0.39852 0 0zm0.70187-2.9603c1.3985-4.0207 0.71718 1.8094 0 0zm-7.2977-1.4519c0.44163-2.2788 1.7295 2.3089 0 0zm9.2356 0.76385c1.6183-1.3561-0.66231 1.3705 0 0zm87.52 4.7955c-2.3506-2.5914 5.2631-3.4566 2.6559-1.1217-1.0632 0.00825-1.5312 1.9183-2.6559 1.1217zm-99.362-6.5313c-3.297 0.028701-3.6932-1.5978-0.21416-1.1572 1.1468-0.53081 1.0077 2.2722 0.21416 1.1572zm107.11 6.567c3.8597-1.3838-2.0539 1.2915 0 0zm-5.4205-0.47254c0.59141-0.78762 1.5678 0.51225 0 0zm8.1383-1.3933c1.3998-0.12748-0.45291 0.39852 0 0zm-17.67-1.443c1.4824-2.5505 0.46165 0.49274 0 0zm17.652-0.54662c1.7223-4.2898 0.89104 1.4357 0 0zm-97.877-6.1812c0.31718-2.8983 6.0477-5.1604 2.6779-1.2358-0.67047 0.43233-1.8364 2.0587-2.6779 1.2358zm90.923 4.731c-1.008-2.8944 1.1638-0.4184 0.30307 0.66602zm3.1524 0.71368c0.73949-2.964 6.141-5.1873 1.9586-1.4524 0.0823 0.20941-2.4832 2.2037-1.9586 1.4524zm-96.707-6.2843c-1.4103-3.254 1.8382-0.40824 0 0zm102.45 5.8989c0.40358-1.3919 0.73932 0.7844 0 0zm-105.42-7.1693c-2.4899 0.060322-3.7805-1.748-0.31492-1.247 0.11678-0.11023 1.0622 2.1834 0.31492 1.247zm93.771 5.3618c-5.5599-0.35438-0.70801-2.15 1.854-0.54557-0.95536-0.19645-1.0622 1.452-1.854 0.54557zm-99.782-6.7858c-1.8911-3.2757 2.097-1.0981 0 0zm5.5243-2.2539c0.1159-2.3159 0.23724-5.9139-0.23626-5.9094 3.0731-4.4451 0.66821 7.1954 0.23626 5.9094zm103.27 5.3475c-0.37078-4.7614 1.8739-0.12988 0 0zm2.9641 0.31002c-0.0794-2.7926 6.1746-5.1496 2.9385-1.3866-0.78727 0.61678-1.8201 1.8673-2.9385 1.3866zm-99.988-6.6156c-0.33196-1.2645 1.2703 1.1331 0 0zm-11.737-1.9686c-4.848-2.148 4.7026-1.0994 1.4805 0.785l-0.52702-0.22738zm12.081 1.3473c-0.76078-2.9977 2.2527-0.91002 0-3e-6zm93.994 5.0393c-6.7746-1.0462 1.2236-2.5844 0 0zm-92.548-7.0015c1.0366-1.2426 0.48737 0.6132 0 0zm86.54 5.5508c-1.7554-2.4535 1.1346-0.5664 1.3047-1.9544-0.82929 0.24284-0.50431 1.9041-1.3047 1.9544zm-87.477-6.4926c0.67261-1.3239 0.53781 1.0671 0 0zm2.1216 0.16938c0.72452-1.0148-0.2509 0.96288 0 0zm0.54495-0.59835c0.3925-0.76675 0.6306 0.69879 0 0zm90.413 4.7246c-0.44125-3.1082 0.60438-8.0102 0.95253-6.516 0.20671 1.1828-0.11099 7.7655-0.95253 6.516zm-110.91-7.6652c-0.2041 3.2662-5.7803-4.3757-0.90223-0.88479zm2.425 0.67501c1.1986-4.1581 0.88954 1.8592 0 0zm11.539 0.30723c-1.9351-1.7388 2.9196 1.9725 0 0zm-4.146-0.7272c0.9689-1.1198 1.2497-8.0288 1.8015-2.1872 0.55215 1.0824-0.77795 4.4444-1.8015 2.1872zm107.58 6.0438c-0.684-1.2878 0.96581 0.31442 0 0zm-12.323-1.767c-4.4683-2.9975 6.4587 1.3955 0.64451 0.39013zm-86.887-5.4364c1.5469-1.7191-3.3954-2.5774 0.65699-1.3937 2.4066 1.3932 0.91507 3.3684-0.65699 1.3937zm99.504 6.4749c-0.53095-1.4402 1.2256 0.60894 0 0zm0.16138-0.79683c0.28136-2.3879 2.4395 0.78414 0 0zm-113.8-8.5689c-0.43616-3.9981 1.1229 3.2582 0 0zm115.18 7.6019c0.34874-0.79722 1.3865 0.29145 0 0zm-1.2415-0.46616c0.75315-0.99766 0.36125 0.87958 0 0zm-103.27-6.6984c1.3998-0.12747-0.45293 0.39851 0 0zm-8.4423-1.6023c2.8734-0.91048 0.54363 0.3709-0.89656 0.4033zm91.709 4.4238c-5.6671-2.8942 3.8568-1.8779 2.0094 1.4325-0.67574-0.4691-1.3407-0.95343-2.0094-1.4325zm4.4158 0.947c0.72876-3.9533 1.4901 1.4779 0 0zm7.7411 0.53633c6e-3 -1.9756 0.9445-4.0924 1.2231-5.6056 0.5746 1.2227 1.0365 5.6896-1.2231 5.6056zm-101.31-6.7621c1.857-1.1342-1.0305 1.8379 0 0zm2.1173 0.21034c-0.33522-3.173 0.55691-9.2714-1.486-8.4935 3.6023-3.5918 2.1938 8.2035 1.486 8.4935zm103.1 6.3691c-1.8517-1.7876 2.2365 1.7387 0 0zm-94.895-6.9632c2.9746-1.501-2.078 1.9864 0 0zm-17.859-1.0929c0.04441-2.3368 5.5747-0.87644 1.0102 0.34612l-0.53009 0.21084zm14.661 0.50952c0.69387-2.6293-5.6844-2.9802-1.2617-3.9066-0.26498 0.17016 3.7842 4.2319 1.2617 3.9066zm103 6.4287c-0.52599-0.89758-0.85893-2.843-1.4599-2.564 1.2698 0.02791 5.0519 3.0961 1.4599 2.564zm-98.372-6.9185c3.7456-2.0394-0.52277 1.0526 0 0zm70.77 3.5671c0.47345-1.1668 8.0383-1.3319 2.5036 0.02112-0.8142 0.20343-1.7441 0.72472-2.5036-0.02112zm12.84-0.18452c-0.34269-4.2961 1.06 3.1178 0 0zm12.332 0.6699c1.3998-0.12748-0.45291 0.39852 0 0zm-34.771-3.4343c1.5963-1.5738 6.3895-3.1291 1.9588-0.76116-0.10989 0.61837-4.136 2.4004-1.9588 0.76116zm8.8935-0.03545c-5.064-3.4069 5.5425 0.75703 1.1258 0.95521l-0.5187-0.43199zm15.837 1.5495c1.9489-0.8293 4.9702-1.3089 1.07-0.02031-0.091 0.14466-3.9256 0.83799-1.07 0.02031zm-98.765-6.1186c1.5586-0.14958-0.0076 0.43028 0 0zm103.53 5.6383c-0.12505-2.723-1.492-7.8868 0.51045-9.4265-0.18024 2.2043 0.65105 9.6048-0.51045 9.4265zm7.5661-0.09759c2.207-2.4666 3.7437-2.2029 0.26712-0.02735l-0.21307 0.10317-0.054-0.07583h-5e-5zm-58.537-4.1332c0.016-4.2937 4.2996 1.5892 0 0zm41.109 2.3272c0.25393-2.1403 6.1953-0.97338 1.1435 0.33259l-0.60592 0.24145zm-93.234-5.6287c0.87469-1.0985 0.88556-0.13959 0 0zm107.51 4.8728c-0.61153-1.0973-4.6662-2.2376-0.86706-2.5597 1.7396-0.01281 3.0071 6.613 0.86706 2.5597zm-110.17-6.0656c-4.1656-2.7039 2.0376-3.1216 0 0zm92.16 3.8918c0.26222-1.4343 0.0814 1.4551 0 0zm19.33 1.1192c0.81603-0.62495 2.4637 0.16921 0.66182 0.13007zm-32.966-4.6462c-4.2222-4.2755 6.2598 1.9014 1.1909 1.4016l-0.54937-0.63439zm21.748 0.57788c0.81742-1.3904 0.49287 0.69417 0 0zm3.2706-0.51498c1.7842-1.3568 1.6247 0.05394 0 0zm-3.6422-0.66741c-2.7596-0.38796 0.78271-4.6765 0.75382-0.18731 0.39591 0.65604-0.72318 0.85501-0.75382 0.18731zm-4.5011-0.52076c-1.3745-1.405 2.2514 1.4566 0 0zm-8.5099-1.4126c-3.4181-2.1927 3.5623 1.9104 0 0zm-33.241-2.4344c0.75329-1.3945 0.6558 0.65904 0 0zm51.967 2.7486c0.36214-2.6382 1.2272 2.2726 0 0zm-50.889-3.5436c2.2704-1.723 1.2722 0.43003 2.9e-4 0zm17.718-0.66178c-3.4609-3.0799 1.114-0.75349 2.0758 0.99413-0.29776 1.6853-1.6561-0.85365-2.0758-0.99413zm-15.786-0.17295c2.9077-2.2332 3.3247-0.90071 0 0zm3.6323 0.23313c0.94992-1.5724 3.4334 0.74386 0 0zm17.701 0.94208c0.71748-1.0512 1.0477 0.01479 0 0zm-13.092-1.9443c-0.58026-2.7974 5.1061-7.2972 2.7712-2.474-0.52921 1.0105-1.5041 3.8633-2.7712 2.474zm-5.399-0.84823c0.24723-1.4479 1.9791 0.30055 0 0zm-0.89476-0.72262c-1.2338-1.9465 2.2255 0.59727 0 0zm22.868 0.18311c-0.81058-1.5742 1.3099 1.1051 0 0zm-1.7131-0.439c0.26222-1.4343 0.0814 1.4551 0 0zm-18.555-6.4855c2.5819-2.7423 0.81318 1.8837 0 0zm14.839 0.61265c-3.2328-3.3675 2.1784 0.83178 0 0zm-6.6104-1.201c-0.65178-2.2623 3.7911-5.5469 2.5254-3.4821-0.50808 0.33003-2.2647 5.3655-2.5254 3.4821zm-8.0805-5.1713c-3.7882-3.3045 6.1584 0.13065 1.9134 1.256-0.61338 1.9024-1.4247-0.82517-1.9134-1.256zm4.0884-0.66198c-1.5256-1.9574 1.9072 1.988 0 0zm-0.68559-1.8918c1.3372-1.5763 0.57205 0.98708 0 0zm2.0489-0.62195c2.1415-0.10839 0.0664 0.40506 0 0zm6.343-0.61456c-0.45804-4.3583 5.2151-4.9626 1.8114-0.51342 0.0928 0.86161-2.9469 2.5142-1.8114 0.51342zm-16.616-3.2789c-2.863-6.0511 1.4365 3.4668 3.0732-1.3643 1.8724-3.4232-2.0705 7.528-3.0732 1.3643zm3.3626 0.86387c1.4066-0.60369-0.67599 0.75235 0 0zm2.6722-0.91442c1.121-2.0938 2.6239-3.4955 1.2552 0.03956-0.2209 0.2124-2.8745 0.48662-1.2552-0.03956zm2.8839-0.80702c-1.765-3.6832 3.0031 3.0564 0 0zm-68.874-4.8589c1.7825-0.17187-0.19932 0.42959 0 0zm-2.0065-1.0912c1.1025 0.46363 1.411 1.5864 0 0zm3.5849 0.73232c3.2337-1.1074-1.4618 1.1271 0 0zm70.211 2.9647c1.2127-2.234 6.9366-2.0596 1.6899-0.56536-0.2788-0.15594-1.4558 1.4686-1.6899 0.56536zm-67.181-5.0249c1.2765-0.77268 0.40511 1.129 0 0zm71.784 4.0257c1.837-0.91444 0.5022 0.51927 0 0zm3.636-0.9502c-1.2037-3.9417 4.3226-5.5381 5.0449-4.3827-1.8325 0.71851-4.6231 5.9505-5.0449 4.3827zm-15.459-1.0791c2.4951-2.5364 2.7438-2.7419 0.87507-0.28646 0.16644-0.14926-0.84507 0.80971-0.87507 0.28646zm35.088 0.24373c2.822-0.56943 1.8229 0.52193 0 0zm-1.5684-1.1304c-2.0135-2.5819 3.3198 2.82 0 0zm3.816 1.0184c0.71748-1.0512 1.0476 0.01479 0 0zm-37.311-3.3392c2.2971-0.80998 6.2174-1.3967 1.3633-0.09016-0.0793-0.04004-2.2806 0.73252-1.3633 0.09016zm26.176-0.57976c-5.3859-1.8768 2.3535-2.079 2.272 1.2-0.75673-0.40112-1.5145-0.80027-2.272-1.2zm-92.703-5.1919c3.1024-1.3519 2.539 0.13564 0 0zm64.907 3.6016c-3.0287-3.138 4.6828-0.64918 0 0zm9.8104 0.63388c1.3998-0.12747-0.45291 0.39852 0 0zm-13.07-1.258c2.7572-2.0252 3.103-0.63839 0 0zm3.7822-1.5233c0.35148-2.9524 0.55577 1.7173 3.1886-1.1585-0.0125 0.24815-2.1942 1.8998-3.1886 1.1585zm11.327 0.2927c0.8234-2.4165 6.3893-4.7802 1.5464-1.2878-1.1684-0.22329-0.40814 2.596-1.5464 1.2878zm-12.498-2.033c-1.7618-2.4334 0.24431-5.7507 0.28096-1.8698 0.60973 0.87102 0.79952 4.8118-0.28096 1.8698zm20.372 1.0775c-3.1473-1.1962-3.1821-2.7535 0.26787-1.1186 1.8929 1.1412 2.9075 3.9509-0.26787 1.1186zm-9.9257-0.07552c3.4909-1.1973-2.2504 1.3249 0 0zm-5.2122-0.54122c1.3998-0.12747-0.45291 0.39852 0 0zm1.5448-2.3528c1.9759-0.7377-1.1611 1.0297 0 0zm30.164 1.6413c4.0138-0.92097-2.1007 1.0081 0 0zm-34.72-3.3792c0.62053-2.3717 0.60557 1.3016 0 0zm6.2796 0.33336c1.5594-4.1292 4.1296 1.6969 0 0zm-7.4694-0.73748c1.3998-0.12746-0.45295 0.39851 0 0zm12.234 0.18768c1.8778-0.63743 0.96502 0.45364-0.26039 0.18258zm-3.2373-1.722c1.9138-1.0408 2.4308-0.33101 0 0zm15.587-0.73799c1.4836-3.9334 6.6626 1.9765 1.9444 0.34847-0.0789-0.19894-2.5639 0.73023-1.9444-0.34847zm-66.662-8.8663c5.3659-0.60096 11.297-0.09868 16.879-0.27306 2.4004-0.19484 11.814 0.33094 4.5194 0.43432-7.1083-0.11405-14.382 0.31808-21.398-0.16126zm48.933-0.20988c7.3202-0.23572 14.66-0.25266 21.979-0.01152-4.8498 0.68363-10.815 0.16144-16.089 0.32813-1.6961-0.13481-5.1737 0.26778-5.8907-0.31661z" fill="#f53131"/>
   <path d="m52.026 2.6004c-0.43062 2.2046-7.2824 2.9249-2.5074-0.19983 0.80277-0.38317 1.7892-0.31074 2.5074 0.19983zm4.1183 1.9564c4.0234-1.7559-0.95024 0.95367 0 0zm2.5343-1.4618c1.3998-0.12747-0.45293 0.39852 0 0zm0.70187-2.9603c1.3985-4.0207 0.71717 1.8094 0 0zm-4.3296-0.37126c1.8933-2.1295 3.2217-4.7966 6.8287-3.1012 11.736 0.23131 23.634-0.25478 35.27 0.24576-12.242 0.44894-24.629 0.19271-36.923 0.28693-2.3448-0.65967-3.4332 2.9843-5.1766 2.5685zm-2.9681-1.0806c0.44163-2.2788 1.7295 2.3089 0 0zm9.2356 0.76385c1.6183-1.3561-0.66231 1.3705 0 0zm87.52 4.7955c-2.3506-2.5914 5.2631-3.4566 2.6559-1.1217-1.0632 0.00825-1.5312 1.9183-2.6559 1.1217zm7.7439 0.035684c3.8597-1.3838-2.0539 1.2915 0 0zm-5.4205-0.47254c0.59141-0.78762 1.5678 0.51225 0 0zm8.1383-1.3933c1.3998-0.12748-0.45291 0.39852 0 0zm-17.67-1.443c1.4824-2.5505 0.46165 0.49274 0 0zm17.652-0.54662c1.7223-4.2898 0.89104 1.4357 0 0zm-97.877-6.1812c0.31718-2.8983 6.0477-5.1604 2.6779-1.2358-0.67047 0.43233-1.8364 2.0587-2.6779 1.2358zm46.395 2.6423c12.807-0.30906 25.631-0.37569 38.44-0.19687-4.5458 0.70112-9.9635 0.17959-14.836 0.37518-7.8442-0.14519-15.837 0.33231-23.604-0.17831zm44.528 2.0887c-1.008-2.8944 1.1638-0.4184 0.30307 0.66602zm3.1524 0.71368c0.73949-2.964 6.141-5.1873 1.9586-1.4524 0.0823 0.20941-2.4832 2.2037-1.9586 1.4524zm-96.707-6.2843c-1.4103-3.254 1.8382-0.40824 0 0zm102.45 5.8989c0.40358-1.3919 0.73932 0.7844 0 0zm-105.42-7.1693c-2.4899 0.060322-3.7805-1.748-0.31492-1.247 0.11678-0.11023 1.0622 2.1834 0.31492 1.247zm93.771 5.3618c-5.5599-0.35438-0.70801-2.15 1.854-0.54557-0.95536-0.19645-1.0622 1.452-1.854 0.54557zm-94.257-9.0397c0.1159-2.3159 0.23724-5.9139-0.23626-5.9094 3.0731-4.4451 0.66821 7.1954 0.23626 5.9094zm103.27 5.3475c-0.37078-4.7614 1.8739-0.12988 0 0zm2.9641 0.31002c-0.0794-2.7926 6.1746-5.1496 2.9385-1.3866-0.78727 0.61678-1.8201 1.8673-2.9385 1.3866zm-99.988-6.6156c-0.33196-1.2645 1.2703 1.1331 0 0zm0.34405-0.62129c-0.76078-2.9977 2.2527-0.91002 0-3e-6zm93.994 5.0393c-6.7746-1.0462 1.2236-2.5844 0 0zm-92.548-7.0015c1.0366-1.2426 0.48737 0.6132 0 0zm86.54 5.5508c-1.7554-2.4535 1.1346-0.5664 1.3047-1.9544-0.82929 0.24284-0.50431 1.9041-1.3047 1.9544zm-87.477-6.4926c0.67261-1.3239 0.53781 1.0671 0 0zm2.1216 0.16938c0.72452-1.0148-0.2509 0.96288 0 0zm0.54495-0.59835c0.3925-0.76675 0.6306 0.69879 0 0zm90.413 4.7246c-0.44125-3.1082 0.60438-8.0102 0.95253-6.516 0.20671 1.1828-0.11099 7.7655-0.95253 6.516zm-96.948-6.683c-1.9351-1.7388 2.9196 1.9725 0 0zm-4.146-0.7272c0.9689-1.1198 1.2497-8.0288 1.8015-2.1872 0.55215 1.0824-0.77795 4.4444-1.8015 2.1872zm107.58 6.0438c-0.684-1.2878 0.96581 0.31442 0 0zm-12.323-1.767c-4.4683-2.9975 6.4587 1.3955 0.64451 0.39013zm12.617 1.0386c-0.53095-1.4402 1.2256 0.60894 0 0zm0.16138-0.79683c0.28136-2.3879 2.4395 0.78414 0 0zm-100.15-7.2877c-2.3459-1.3722 4.0965 1.6288 0 0zm101.53 6.3207c0.34874-0.79722 1.3865 0.29145 0 0zm-1.2415-0.46616c0.75315-0.99766 0.36126 0.87958 0 0zm-103.27-6.6984c1.3998-0.12747-0.45293 0.39851 0 0zm-6.8017-1.9591c-0.37635 3.4988-1.3912 12.933-1.4078 13.088 0.46926-4.3625 0.93851-8.725 1.4078-13.088zm90.068 4.7806c-5.6671-2.8942 3.8568-1.8779 2.0094 1.4325-0.67574-0.4691-1.3407-0.95343-2.0094-1.4325zm4.4158 0.947c0.72876-3.9533 1.4901 1.4779 0 0zm7.7411 0.53633c6e-3 -1.9756 0.9445-4.0924 1.2231-5.6056 0.55634 1.3278 1.077 5.5781-1.2231 5.6056zm-101.31-6.7621c1.857-1.1342-1.0305 1.8379 0 0zm2.1173 0.21034c-0.33522-3.173 0.55691-9.2714-1.486-8.4935 3.6023-3.5918 2.1938 8.2035 1.486 8.4935zm103.1 6.3691c-1.8517-1.7876 2.2365 1.7387 0 0zm-94.895-6.9632c2.9746-1.501-2.078 1.9864 0 0zm-3.1899-0.53053c-1.9246-2.6977-0.33072-4.8956 0.59575-0.81564 0.42921 0.27591-0.57963 1.9404-0.59575 0.81564zm104.17 5.7106c-0.75557-1.2358 1.4177 1.5555 0 0zm-99.553-6.2532c3.7456-2.0394-0.52277 1.0526 0 0zm70.77 3.5671c0.47345-1.1668 8.0383-1.3319 2.5036 0.02112-0.8142 0.20343-1.7441 0.72472-2.5036-0.02112zm12.84-0.18452c-0.34269-4.2961 1.06 3.1178 0 0zm13.957 1.3056c-2.6686-1.2727 3.5454 1.2943 0 0zm-1.6252-0.6357c1.3998-0.12748-0.45291 0.39852 0 0zm-34.771-3.4343c1.5963-1.5738 6.3895-3.1291 1.9588-0.76116-0.10989 0.61837-4.136 2.4004-1.9588 0.76116zm8.8935-0.03545c-5.064-3.4069 5.5425 0.75703 1.1258 0.95521l-0.5187-0.43199zm15.837 1.5495c1.9489-0.8293 4.9702-1.3089 1.07-0.02031-0.091 0.14466-3.9256 0.83799-1.07 0.02031zm-98.765-6.1186c1.5586-0.14958-0.0076 0.43028 0 0zm103.53 5.6383c-0.12505-2.723-1.492-7.8868 0.51045-9.4265-0.18024 2.2043 0.65105 9.6048-0.51045 9.4265zm7.5661-0.09759c2.207-2.4666 3.7437-2.2029 0.26712-0.02735l-0.21307 0.10317-0.054-0.07583h-5e-5zm-17.428-1.806c0.25393-2.1403 6.1953-0.97338 1.1435 0.33259l-0.60592 0.24145zm-93.234-5.6287c0.87469-1.0985 0.88556-0.13959 0 0zm107.52 4.9144c-2.4102-5.8977 3.4039 3.5387 0 0zm-104.74-7.4472c-0.30136-2.1331 0.37112-12.382 0.75852-5.3049-0.51012 0.96323 0.9596 6.5729-0.75852 5.3049zm86.711 5.2318c0.26222-1.4343 0.0814 1.4551 0 0zm19.33 1.1192c0.81603-0.62495 2.4637 0.16921 0.66182 0.13007zm-32.966-4.6462c-4.2222-4.2755 6.2598 1.9014 1.1909 1.4016l-0.54937-0.63439zm-26.608-0.4816c0.4351-0.92102 0.7082 0.83254 0 0zm48.356 1.0595c0.81742-1.3904 0.49287 0.69417 0 0zm3.2706-0.51498c1.7842-1.3568 1.6247 0.05394 0 0zm-3.6422-0.66741c-2.7596-0.38796 0.78271-4.6765 0.75382-0.18731 0.39591 0.65604-0.72318 0.85501-0.75382 0.18731zm-4.5011-0.52076c-1.3745-1.405 2.2514 1.4566 0 0zm-8.5099-1.4126c-3.4181-2.1927 3.5623 1.9104 0 0zm-33.241-2.4344c0.75329-1.3945 0.6558 0.65904 0 0zm51.967 2.7486c0.36214-2.6382 1.2272 2.2726 0 0zm-50.889-3.5436c2.2704-1.723 1.2722 0.43003 2.9e-4 0zm17.718-0.66178c-3.4609-3.0799 1.114-0.75349 2.0758 0.99413-0.29776 1.6853-1.6561-0.85365-2.0758-0.99413zm-15.786-0.17295c2.9077-2.2332 3.3247-0.90071 0 0zm3.6323 0.23313c0.94992-1.5724 3.4334 0.74386 0 0zm17.701 0.94208c0.71748-1.0512 1.0477 0.01479 0 0zm-13.092-1.9443c-0.58026-2.7974 5.1061-7.2972 2.7712-2.474-0.52921 1.0105-1.5041 3.8633-2.7712 2.474zm-5.399-0.84823c0.24723-1.4479 1.9791 0.30055 0 0zm-0.89476-0.72262c-1.2338-1.9465 2.2255 0.59727 0 0zm22.868 0.18311c-0.81058-1.5742 1.3099 1.1051 0 0zm-1.7131-0.439c0.26222-1.4343 0.0814 1.4551 0 0zm-74.209-5.9443c0.31238-2.9019-0.81459-10.846 0.69729-10.937-0.08649 3.96 0.44904 9.6907-0.56774 11.948zm55.654-0.54114c2.5819-2.7423 0.81318 1.8837 0 0zm14.839 0.61265c-3.2328-3.3675 2.1784 0.83178 0 0zm-6.6104-1.201c-0.65178-2.2623 3.7911-5.5469 2.5254-3.4821-0.50808 0.33003-2.2647 5.3655-2.5254 3.4821zm-8.0805-5.1713c-3.7882-3.3045 6.1584 0.13065 1.9134 1.256-0.61338 1.9024-1.4247-0.82517-1.9134-1.256zm4.0884-0.66198c-1.5256-1.9574 1.9072 1.988 0 0zm-0.68559-1.8918c1.3372-1.5763 0.57205 0.98708 0 0zm2.0489-0.62195c2.1415-0.10839 0.0664 0.40506 0 0zm6.343-0.61456c-0.45804-4.3583 5.2151-4.9626 1.8114-0.51342 0.0928 0.86161-2.9469 2.5142-1.8114 0.51342zm-16.616-3.2789c-2.863-6.0511 1.4365 3.4668 3.0732-1.3643 1.8724-3.4232-2.0705 7.528-3.0732 1.3643zm3.3626 0.86387c1.4066-0.60369-0.67599 0.75235 0 0zm-54.246-4.9022c-0.51754-5.4932 1.8673 2.5617 0 0zm56.918 3.9877c1.121-2.0938 2.6239-3.4955 1.2552 0.03956-0.2209 0.2124-2.8745 0.48662-1.2552-0.03956zm2.8839-0.80702c-1.765-3.6832 3.0031 3.0564 0 0zm2.915-2.253c1.2127-2.234 6.9366-2.0596 1.6899-0.56536-0.2788-0.15594-1.4558 1.4686-1.6899 0.56536zm-62.583-4.1685c-0.89855-3.198 1.1294-6.6002 0.63458-1.2938-0.0337 0.32787 0.05579 2.3655-0.63458 1.2938zm67.186 3.1694c1.837-0.91444 0.5022 0.51927 0 0zm3.636-0.9502c-1.2037-3.9417 4.3226-5.5381 5.0449-4.3827-1.8325 0.71851-4.6231 5.9505-5.0449 4.3827zm-15.459-1.0791c2.4951-2.5364 2.7438-2.7419 0.87507-0.28646 0.16644-0.14926-0.84507 0.80971-0.87507 0.28646zm35.088 0.24373c2.822-0.56943 1.8229 0.52193 0 0zm-1.5684-1.1304c-2.0135-2.5819 3.3198 2.82 0 0zm3.816 1.0184c0.71748-1.0512 1.0476 0.01479 0 0zm-37.311-3.3392c2.2971-0.80998 6.2174-1.3967 1.3633-0.09016-0.0793-0.04004-2.2806 0.73252-1.3633 0.09016zm-55.474-3.6641c-0.55902-2.721 0.61973-9.8668 0.76844-3.023-0.11829 0.39887 0.11393 4.3072-0.76844 3.023zm81.65 3.0843c-5.3859-1.8768 2.3535-2.079 2.272 1.2-0.75673-0.40112-1.5145-0.80027-2.272-1.2zm-17.985-0.95643c1.3998-0.12747-0.45291 0.39852 0 0zm-13.07-1.258c2.7572-2.0252 3.103-0.63839 0 0zm3.7822-1.5233c0.35148-2.9524 0.55577 1.7173 3.1886-1.1585-0.0125 0.24815-2.1942 1.8998-3.1886 1.1585zm11.327 0.2927c0.8234-2.4165 6.3893-4.7802 1.5464-1.2878-1.1684-0.22329-0.40814 2.596-1.5464 1.2878zm-12.498-2.033c-1.7618-2.4334 0.24431-5.7507 0.28096-1.8698 0.60973 0.87102 0.79952 4.8118-0.28096 1.8698zm20.372 1.0775c-3.1473-1.1962-3.1821-2.7535 0.26787-1.1186 1.8929 1.1412 2.9075 3.9509-0.26787 1.1186zm-9.9257-0.07552c3.4909-1.1973-2.2504 1.3249 0 0zm-5.2122-0.54122c1.3998-0.12747-0.45291 0.39852 0 0zm1.5448-2.3528c1.9759-0.7377-1.1611 1.0297 0 0zm30.164 1.6413c4.0138-0.92097-2.1007 1.0081 0 0zm-34.72-3.3792c0.62053-2.3717 0.60557 1.3016 0 0zm-1.1897-0.40411c1.3998-0.12746-0.45295 0.39851 0 0zm12.234 0.18768c1.8778-0.63743 0.96502 0.45364-0.26039 0.18258zm-3.2373-1.722c1.9138-1.0408 2.4308-0.33101 0 0zm15.587-0.73799c1.4836-3.9334 6.6626 1.9765 1.9444 0.34847-0.0789-0.19894-2.5639 0.73023-1.9444-0.34847zm-66.662-8.8663c5.3659-0.60096 11.297-0.09868 16.879-0.27306 2.4004-0.19484 11.814 0.33094 4.5194 0.43432-7.1083-0.11405-14.382 0.31808-21.398-0.16126zm48.933-0.20988c7.3202-0.23572 14.66-0.25266 21.979-0.01152-4.8498 0.68363-10.815 0.16144-16.089 0.32813-1.6961-0.13481-5.1737 0.26778-5.8907-0.31661z" fill="#c2c2c2"/>
  </g>
  <path transform="matrix(1.0425 0 0 .94389 -2.4138 2.4177)" d="m92.931 52.165h-31.722v-31.722h31.722z" fill="none" opacity=".66" stroke="#000" stroke-linejoin="round" stroke-width=".85413"/>
 </g>
</svg>
