<?xml version="1.0" encoding="UTF-8"?>
<svg width="256" height="256" version="1.1" viewBox="0 0 256 256" xmlns="http://www.w3.org/2000/svg">
 <g transform="translate(3.5593e-6 1.0847)">
  <path d="m24.5 255.07c-7.8757-1.9506-15.916-8.4256-20.193-16.261-1.7104-3.1335-1.8066-9.0344-1.8066-110.81v-107.5l2.6947-4.5836c1.4821-2.521 4.5693-6.2772 6.8604-8.3472 7.5729-6.8416 8.6235-7.0509 35.445-7.0606l24-0.0086207 0.28432 9.593 0.28432 9.593-21.484 0.59475c-12.413 0.34364-22.345 1.0558-23.524 1.6867-5.233 2.8006-5.061-0.79948-5.061 105.94 0 72.686 0.30679 99.676 1.1541 101.54 2.2615 4.9635 4.0545 5.3676 27.236 6.1378l21.679 0.72028-0.28442 9.6015-0.28442 9.6015-22 0.15706c-12.1 0.0864-23.35-0.1773-25-0.58595zm136.68-33.94c-2.3262-1.4749-3.1294-8.1937-3.1538-26.381l-0.02386-17.75h-85.607l-5.1317-2.5572c-6.0473-3.0135-11.645-8.8774-14.624-15.32-2.013-4.3536-2.1373-6.1633-2.1373-31.122s0.12428-26.769 2.1373-31.122c2.9791-6.443 8.5764-12.307 14.624-15.32l5.1317-2.5572h85.607l0.0239-17.75c0.0337-25.076 1.218-29.19 7.4382-25.84 4.5703 2.4613 86.195 84.557 87.509 88.015 1.7178 4.5181 1.1722 8.0775-1.8849 12.298-3.8677 5.3392-60.541 62.797-74.894 75.931-6.2192 5.6909-11.844 10.34-12.5 10.332-0.65577-8e-3 -1.7873-0.3926-2.5146-0.85371z" fill="#f9f9fd"/>
  <path d="m24.5 255.06c-5.4814-1.3404-11.209-4.9242-15.303-9.5754-7.6311-8.6694-7.1969-1.5813-7.1969-117.49 0-115.91-0.43495-108.82 7.2018-117.49 2.2284-2.5315 6.3571-5.8172 9.1749-7.3015 5.0844-2.6781 5.3041-2.7012 28.873-3.032l23.75-0.33331v19.845l-20.964 0.60203c-11.92 0.34233-21.838 1.0698-22.99 1.6864-5.2169 2.792-5.0468-0.7798-5.0468 106.03 0 106.23-0.13572 103.25 4.8275 105.91 0.99374 0.53184 11.339 1.2879 22.99 1.6801l21.183 0.71316v19.699l-21.75-0.10236c-11.962-0.0563-23.1-0.43248-24.75-0.83595zm136.61-33.974c-2.1322-1.3502-2.9821-8.9739-3.0474-27.337l-0.05961-16.75h-41.634c-28.05 0-42.864-0.36858-45.404-1.1296-6.748-2.0218-13.117-7.7691-16.962-15.307l-3.5-6.8615v-25.601c0-25.485 0.01178-25.626 2.6011-31.146 3.5009-7.4641 7.9449-12.3 14.14-15.387l5.1518-2.5672h85.402l0.42949-20.25c0.23622-11.138 0.76722-21.003 1.18-21.923 1.1527-2.5691 3.6099-3.04 6.4868-1.243 4.0613 2.5367 83.608 82.48 85.986 86.416 3.2588 5.3916 2.7684 8.9968-2.062 15.16-5.4387 6.9395-76.401 77.803-81.902 81.788-4.6366 3.3587-4.7996 3.41-6.8061 2.1394z" fill="#f5f6fc"/>
  <path d="m25 255.06c-5.6838-1.1522-11.482-4.6647-15.803-9.5742-7.6311-8.6694-7.1969-1.5813-7.1969-117.49 0-115.91-0.43495-108.82 7.2018-117.49 2.2284-2.5315 6.3571-5.8172 9.1749-7.3015 5.0844-2.6781 5.3041-2.7012 28.873-3.032l23.75-0.33331v19.891l-20.916 0.46356c-22.71 0.50332-25.093 1.0675-27.129 6.4213-0.5838 1.5355-0.95536 41.011-0.95536 101.5 0 106.55-0.16197 103.12 4.9973 105.88 1.0871 0.58182 11.432 1.3416 22.99 1.6883l21.013 0.63047v19.683l-21.25-0.115c-11.688-0.06325-22.825-0.43426-24.75-0.82447zm136.06-34.003c-1.9319-1.2223-2.9447-11.09-3.0081-29.308l-0.05135-14.75h-41.634c-28.05 0-42.864-0.36858-45.404-1.1296-6.748-2.0218-13.117-7.7691-16.962-15.307l-3.5-6.8615v-51.244l3.2998-6.7028c2.1153-4.2968 4.8387-7.9638 7.5869-10.216 7.927-6.4956 8.2921-6.5393 54.604-6.5393h41.739l0.51559-20.25c0.28358-11.138 0.82927-21.003 1.2126-21.923 1.069-2.5654 3.5524-3.043 6.4333-1.2374 4.0672 2.5491 83.601 82.479 85.982 86.41 3.2663 5.3928 2.7752 8.9956-2.0665 15.16-5.4898 6.99-76.378 77.793-81.87 81.771-4.6767 3.3878-4.8162 3.4309-6.8771 2.1269z" fill="#f3f6fc"/>
  <path d="m24.897 255.07c-7.814-1.5262-15.841-7.9557-20.058-16.066l-2.3396-4.5-0.26365-104.95c-0.29515-117.49-0.71362-110.32 6.9443-119.02 2.24-2.5447 6.3782-5.8412 9.196-7.3255 5.0844-2.6781 5.3041-2.7012 28.873-3.032l23.75-0.33331v19.891l-20.916 0.46356c-22.71 0.50332-25.093 1.0675-27.129 6.4213-1.2893 3.391-1.2893 199.37 0 202.77 1.959 5.1525 4.1672 5.6708 26.947 6.325l21.098 0.60589v19.686l-21.25-0.115c-11.688-0.0632-22.871-0.43163-24.853-0.81863zm135.74-34.913c-1.3989-1.5458-1.776-5.2128-2.3138-22.5l-0.64249-20.653h-84.363l-6.1197-3.058c-7.0029-3.4994-10.43-7.1287-14.11-14.942-2.5762-5.4704-2.5902-5.6379-2.5902-31.101v-25.601l3.5-6.8615c3.8451-7.5381 10.214-13.285 16.962-15.307 2.5402-0.76106 17.355-1.1296 45.404-1.1296h41.634l0.0795-13.25c0.1095-18.246 1.1512-29.656 2.8004-30.676 0.73781-0.45599 2.3042-0.59586 3.4808-0.31082 2.5998 0.62983 84.533 82.301 87.516 87.237 3.2051 5.3024 2.759 9.0269-1.7557 14.66-5.3552 6.6819-77.701 79.023-82.518 82.512-4.6148 3.343-4.8031 3.3695-6.9647 0.98095z" fill="#f0f2fc"/>
  <path d="m25 255.06c-8.4119-1.6974-16.123-8.0309-20.156-16.555l-2.8428-6.0091 0.00898-104.5 0.00898-104.5 2.5509-5.5c3.1738-6.8429 7.4611-11.404 13.93-14.818 4.9274-2.6007 5.3448-2.6442 28.75-3.0029l23.75-0.36393v19.936l-20.866 0.42117c-22.686 0.45792-25.123 1.0356-27.179 6.4447-1.2893 3.391-1.2893 199.37 0 202.77 1.959 5.1525 4.1672 5.6708 26.947 6.325l21.098 0.60589v19.686l-21.25-0.115c-11.688-0.06325-22.825-0.4328-24.75-0.82123zm135.74-34.814c-1.267-1.4105-1.7123-5.775-2.296-22.5l-0.72415-20.75-42.109-0.01-42.109-0.01-5.1022-2.3757c-6.4965-3.025-11.978-8.506-15.003-15.003-2.3126-4.9665-2.376-5.8091-2.3855-31.692l-0.009769-26.59 3.058-6.1197c3.4423-6.8887 7.1431-10.437 14.442-13.845 4.9893-2.3301 5.0899-2.3351 47.109-2.3448l42.109-0.009769 0.72415-20.75c0.77695-22.263 1.3576-24.59 5.8647-23.505 3.1117 0.74944 86.974 84.972 88.607 88.988 3.1016 7.6262 3.3426 7.3193-39.751 50.631-36.279 36.463-48.03 47.636-50.098 47.636-0.41537 0-1.4626-0.7875-2.3271-1.75z" fill="#eef0fb"/>
  <path d="m23.951 254.64c-9.0597-2.4434-15.27-7.8746-19.596-17.138l-2.3351-5-0.00898-104.5-0.00898-104.5 2.8428-6.0091c3.0418-6.4296 7.6382-11.116 14.433-14.715 3.9615-2.0983 5.6884-2.2588 27.972-2.5983l23.75-0.36191v19.936l-20.866 0.42117c-22.686 0.45792-25.123 1.0356-27.179 6.4447-1.2893 3.391-1.2893 199.37 0 202.77 1.959 5.1525 4.1672 5.6708 26.947 6.325l21.098 0.60589v19.686l-21.25-0.0675c-13.437-0.0427-22.923-0.51863-25.799-1.2945zm136.25-34.838c-0.74821-0.74821-1.2-4.454-1.2-9.843 0-4.7536-0.29415-14.114-0.65368-20.8l-0.65367-12.157-42.096-0.01-42.096-0.01-5.1022-2.3757c-6.4965-3.025-11.978-8.506-15.003-15.003-2.314-4.9696-2.3754-5.7907-2.3635-31.602 0.01115-24.236 0.18089-26.872 1.987-30.852 3.2504-7.1631 7.6164-11.81 14.178-15.088l6.123-3.0592h84.373l0.65367-12.157c0.35953-6.6864 0.65368-16.046 0.65368-20.8 0-5.389 0.45179-9.0948 1.2-9.843 3.5661-3.5661 5.1058-2.2545 48.781 41.55 25.569 25.645 43.149 44.044 43.936 45.983 3.1298 7.7134 3.7041 6.9966-43.276 54.017-44.369 44.408-45.836 45.655-49.441 42.05z" fill="#eceffb"/>
  <path d="m23.951 254.64c-9.0597-2.4434-15.27-7.8746-19.596-17.138l-2.3351-5-0.0097689-104.59-0.0097689-104.59 3.0468-6.0972c3.2866-6.5771 7.5553-10.91 14.231-14.446 3.9615-2.0983 5.6884-2.2588 27.972-2.5983l23.75-0.36191v19.958l-20.814 0.37624c-22.66 0.40962-25.153 1.0017-27.231 6.4678-1.2893 3.391-1.2893 199.37 0 202.77 2.0152 5.3003 4.3498 5.8518 27.08 6.3975l20.964 0.50333v19.717l-21.25-0.0675c-13.437-0.0427-22.923-0.51863-25.799-1.2945zm136.25-34.838c-0.82414-0.82414-1.2-5.7896-1.2-15.853 0-8.0593-0.28911-17.419-0.64246-20.8l-0.64245-6.1467-42.108-0.01-42.108-0.01-5.0813-2.366c-6.3511-2.9569-11.985-8.6171-15.045-15.114-2.2877-4.8581-2.3546-5.7522-2.3546-31.5 0-25.799 0.06288-26.635 2.3757-31.602 3.025-6.4965 8.506-11.978 15.003-15.003l5.1022-2.3757 42.108-0.009769 42.108-0.009769 0.64245-6.1467c0.35335-3.3807 0.64246-12.741 0.64246-20.8 0-25.3-1.9485-26.282 49.002 24.7 22.95 22.965 42.687 43.327 43.859 45.25 2.879 4.7228 2.6883 7.8278-0.80338 13.075-1.6182 2.4318-21.339 22.759-43.825 45.171-41.846 41.71-43.49 43.093-47.033 39.55z" fill="#e8ecfa"/>
  <path d="m25.147 254.92c-8.5332-1.6778-15.658-7.3612-20.445-16.308l-2.2022-4.1165-0.26795-105.37-0.26795-105.37 2.3691-5.1747c3.1715-6.9274 7.4289-11.581 13.848-15.137l5.3189-2.9464 23.75-0.34219 23.75-0.34219v19.958l-20.814 0.37624c-22.66 0.40962-25.153 1.0017-27.231 6.4678-1.2893 3.391-1.2893 199.37 0 202.77 2.0152 5.3003 4.3498 5.8518 27.08 6.3975l20.964 0.50333v19.717l-20.75-0.10957c-11.412-0.0603-22.709-0.49472-25.103-0.96547zm134.89-35.859c-0.61492-1.149-1.0352-10.081-1.0352-22v-20.066l-42.75-0.01-42.75-0.01-5-2.3581c-6.3724-3.0048-12.117-8.7496-15.122-15.122-2.2923-4.8606-2.3581-5.739-2.3581-31.5 0-25.799 0.06288-26.635 2.3757-31.602 3.025-6.4965 8.506-11.978 15.003-15.003l5.1022-2.3757 42.75-0.009769 42.75-0.009769v-20.066c0-11.919 0.42026-20.851 1.0352-22 2.7548-5.1475 4.3603-3.8147 47.967 39.819 22.95 22.965 42.687 43.327 43.859 45.25 2.879 4.7228 2.6883 7.8278-0.80338 13.075-1.6182 2.4318-21.339 22.759-43.825 45.171-42.788 42.649-44.425 43.996-47.198 38.816z" fill="#e4e9fa"/>
  <path d="m25.147 254.92c-8.5332-1.6778-15.658-7.3612-20.445-16.308l-2.2022-4.1165v-213l2.9464-5.3189c3.3037-5.9638 7.5784-10.102 13.831-13.388 3.9435-2.0727 5.79-2.245 27.972-2.6101l23.75-0.39099v20.208l-17.75 0.04355c-21.054 0.05166-25.843 0.78198-28.971 4.4183l-2.2791 2.6496v201.78l2.3543 2.737c2.9683 3.4508 8.0942 4.1743 30.396 4.2901l16.25 0.08438v20l-20.75-0.10957c-11.412-0.0603-22.709-0.49472-25.103-0.96547zm134.89-35.859c-0.61472-1.1486-1.0352-10.068-1.0352-21.96v-20.026l-43.75-0.28967c-42.591-0.282-43.856-0.34669-47.75-2.4417-5.5465-2.984-11.012-8.727-13.987-14.698-2.4949-5.0065-2.5127-5.2315-2.503-31.596 0.0095-25.807 0.07606-26.694 2.3678-31.554 3.0053-6.3724 8.75-12.117 15.122-15.122l5-2.3581 42.75-0.0098 42.75-0.009738v-20.066c0-11.919 0.42026-20.851 1.0352-22 2.7425-5.1244 4.3574-3.7815 48.012 39.923 22.995 23.022 42.74 43.384 43.877 45.25 2.8145 4.6167 2.6062 7.7513-0.86205 12.971-1.6158 2.4318-21.347 22.759-43.847 45.171-42.769 42.602-44.424 43.964-47.18 38.816z" fill="#e1e6f9"/>
  <path d="m25.872 254.98c-8.4018-1.4197-15.885-6.9651-20.401-15.118l-2.9711-5.3642v-213l2.9464-5.3189c3.3037-5.9638 7.5784-10.102 13.831-13.388 3.9435-2.0727 5.79-2.245 27.972-2.6101l23.75-0.39099v20.208l-17.75 0.04355c-21.054 0.05166-25.843 0.78198-28.971 4.4183l-2.2791 2.6496v201.78l2.3343 2.7138c3.0146 3.5047 8.0271 4.2293 29.916 4.3247l16.75 0.073v20l-20.25-0.11762c-11.138-0.0647-22.333-0.46955-24.878-0.8997zm134.16-35.917c-0.61472-1.1486-1.0352-10.068-1.0352-21.96v-20.026l-43.75-0.28967c-50.055-0.33141-47.69 0.0764-56.521-9.7457-7.2682-8.084-7.731-10.48-7.7197-39.972 0.0095-24.776 0.08319-25.728 2.3678-30.572 3.0053-6.3724 8.75-12.117 15.122-15.122l5-2.3581 42.75-0.0098 42.75-0.009738v-20.066c0-11.919 0.42026-20.851 1.0352-22 2.7452-5.1295 4.3087-3.8232 49.002 40.941 46.508 46.582 46.831 46.982 43.954 54.323-0.81754 2.0855-17.007 19.049-43.95 46.052-34.829 34.906-43.144 42.75-45.313 42.75-1.6037 0-3.0677-0.76691-3.6924-1.9343z" fill="#dee4f9"/>
  <path d="m25.872 254.98c-8.4018-1.4197-15.885-6.9651-20.401-15.118l-2.9711-5.3642v-213l2.9464-5.3189c3.3099-5.9751 7.5963-10.119 13.831-13.371 3.9258-2.0478 5.8897-2.2318 27.972-2.6209l23.75-0.41846v20.031l-21.583 0.34946-21.583 0.34946-2.9174 3.2658-2.9174 3.2658v201.86l2.3099 2.6855c3.0673 3.5659 7.9644 4.2922 29.44 4.3665l17.25 0.05961v20l-20.25-0.11762c-11.138-0.0647-22.333-0.46955-24.878-0.8997zm134.16-35.917c-0.61472-1.1486-1.0352-10.068-1.0352-21.96v-20.026l-43.75-0.28967-43.75-0.28967-4.6511-2.7342c-6.2303-3.6625-12.383-10.847-14.343-16.748-1.3388-4.0308-1.553-9.0677-1.304-30.671 0.28262-24.521 0.41424-26.084 2.5644-30.448 3.0149-6.1187 8.6118-11.636 14.733-14.523l5-2.3581 42.75-0.0098 42.75-0.009738v-20.309c0-22.694 0.44172-24.55 5.5379-23.271 1.9484 0.48903 16.205 14.112 45.1 43.095 45.835 45.975 46.205 46.433 43.346 53.683-0.81837 2.075-17.144 19.185-43.94 46.052-34.899 34.99-43.122 42.75-45.305 42.75-1.6135 0-3.0761-0.76415-3.7023-1.9343z" fill="#dae1f8"/>
  <path d="m27.5 255.04c-3.3-0.37993-7.125-1.2778-8.5-1.9954-5.2567-2.7432-10.671-8.0163-13.529-13.176l-2.9711-5.3642v-213l2.2561-4.2222c3.5385-6.622 7.9024-10.963 14.062-13.988 5.6423-2.7708 5.8425-2.7925 28.932-3.1456l23.25-0.35547v20.012l-21.583 0.34946-21.583 0.34946-2.9174 3.2658-2.9174 3.2658v201.86l2.3099 2.6855c3.0673 3.5659 7.9644 4.2922 29.44 4.3665l17.25 0.05961v20l-18.75-0.13682c-10.312-0.07526-21.45-0.44768-24.75-0.8276zm132.54-35.97c-0.61492-1.149-1.0352-10.081-1.0352-22v-20.066h-41.822c-48.85 0-48.23 0.0967-57.252-8.9259-8.4783-8.4783-8.9259-10.488-8.9259-40.074 0-28.463 0.50354-31.007 7.7295-39.044 8.8309-9.8221 6.4657-9.4143 56.521-9.7457l43.75-0.28967v-20.269c0-22.543 0.45862-24.506 5.4346-23.257 1.8109 0.45451 17.167 15.13 45.102 43.101 45.97 46.031 46.325 46.47 43.426 53.703-0.80908 2.0193-15.916 18.011-38.893 41.169-47.881 48.26-51.173 51.045-54.035 45.698z" fill="#d8dff8"/>
  <path d="m27.5 255.04c-3.3-0.37993-7.125-1.2778-8.5-1.9954-5.2567-2.7432-10.671-8.0163-13.529-13.176l-2.9711-5.3642v-213l2.2561-4.2222c3.5385-6.622 7.9024-10.963 14.062-13.988 5.6423-2.7708 5.8425-2.7925 28.932-3.1456l23.25-0.35547v20.039l-21.583 0.33594-21.583 0.33594-2.9166 3.2658-2.9166 3.2658v201.86l2.2791 2.6496c3.1279 3.6363 7.9166 4.3667 28.971 4.4183l17.75 0.04355v20l-18.75-0.13682c-10.312-0.07526-21.45-0.44768-24.75-0.8276zm132.54-35.97c-0.61492-1.149-1.0352-10.081-1.0352-22v-20.066h-41.822c-48.85 0-48.23 0.0967-57.252-8.9259-8.4783-8.4783-8.9259-10.488-8.9259-40.074 0-28.463 0.50354-31.007 7.7295-39.044 8.8309-9.8221 6.4657-9.4143 56.521-9.7457l43.75-0.28967v-20.026c0-20.819 0.52782-23.895 4.1003-23.895 2.6315 0 33.545 29.568 65.445 62.597 26.558 27.498 27.381 28.72 23.917 35.531-1.806 3.5508-71.806 74.595-81.764 82.984-6.231 5.249-9.0207 6.0217-10.663 2.9533z" fill="#d6def8"/>
  <path d="m27.268 255.02c-10.817-1.2313-21.425-10.456-24.299-21.132-0.65167-2.4201-0.91095-40.428-0.73716-108.06l0.26809-104.33 2.9711-5.3642c1.6341-2.9503 4.8188-6.8783 7.0771-8.7288 7.745-6.3464 9.5671-6.7192 35.202-7.2018l23.25-0.43769v20.061l-21.583 0.33594-21.583 0.33594-2.9166 3.2658-2.9166 3.2658v201.94l2.9174 3.2658 2.9174 3.2658 21.583 0.34946 21.583 0.34947v19.801l-18.75-0.13682c-10.312-0.0753-21.554-0.45602-24.982-0.84615zm132.77-35.951c-0.61492-1.149-1.0352-10.081-1.0352-22v-20.066h-41.822c-48.85 0-48.23 0.0967-57.252-8.9259-8.4783-8.4783-8.9259-10.488-8.9259-40.074 0-28.087 0.52622-30.908 7.174-38.46 2.2131-2.5142 6.1168-5.8017 8.6749-7.3055l4.6511-2.7342 43.75-0.28967 43.75-0.28967v-20.026c0-20.809 0.52849-23.895 4.0927-23.895 2.64 0 32.752 28.793 64.963 62.116 27.087 28.023 27.877 29.189 24.407 36.012-1.806 3.5508-71.806 74.595-81.764 82.984-6.231 5.249-9.0207 6.0217-10.663 2.9533z" fill="#d2dbf7"/>
  <path d="m27.268 255.02c-10.817-1.2313-21.425-10.456-24.299-21.132-0.65167-2.4201-0.91095-40.428-0.73716-108.06l0.26809-104.33 2.2915-4.2915c3.1407-5.8818 9.4847-11.993 15.059-14.506 4.1841-1.8865 6.975-2.1381 27.899-2.5154l23.25-0.4192v20.061l-21.583 0.33594-21.583 0.33594-2.9166 3.2658-2.9166 3.2658v201.94l2.9174 3.2658 2.9174 3.2658 21.583 0.34946 21.583 0.34947v19.801l-18.75-0.13682c-10.312-0.0753-21.554-0.45602-24.982-0.84615zm132.77-35.951c-0.61492-1.149-1.0352-10.081-1.0352-22v-20.066h-41.822c-48.85 0-48.23 0.0967-57.252-8.9259-8.4783-8.4783-8.9259-10.488-8.9259-40.074 0-29.586 0.44755-31.596 8.9259-40.074 9.0226-9.0226 8.4024-8.9259 57.252-8.9259h41.822v-20.066c0-20.833 0.52859-23.934 4.0799-23.934 2.5248 0 37.004 33.052 67.473 64.679 24.39 25.318 25.327 26.749 21.899 33.449-1.8189 3.5544-69.128 71.914-80.727 81.987-7.1229 6.1858-9.9765 7.1501-11.689 3.95z" fill="#cfd9f6"/>
  <path d="m29.368 255.07c-7.1324-0.54824-8.803-1.0708-13.594-4.2517-5.8907-3.9112-11.185-10.91-12.805-16.928-0.65167-2.4201-0.91095-40.428-0.73716-108.06l0.26809-104.33 2.2915-4.2915c3.1525-5.904 9.5016-12.007 15.059-14.475 4.1405-1.8388 7.1927-2.116 27.899-2.5335l23.25-0.4688v20.126l-21.584 0.32114-21.584 0.32114-2.9162 3.2658-2.9162 3.2658v201.94l2.9174 3.2658 2.9174 3.2658 21.583 0.34946 21.583 0.34947v19.801l-16.75-0.15483c-9.2125-0.0852-20.409-0.43611-24.882-0.7799zm130.67-36c-0.61492-1.149-1.0352-10.081-1.0352-22v-20.066h-41.822c-48.85 0-48.23 0.0967-57.252-8.9259-8.4783-8.4783-8.9259-10.488-8.9259-40.074 0-29.586 0.44755-31.596 8.9259-40.074 9.0226-9.0226 8.4024-8.9259 57.252-8.9259h41.822v-20.066c0-20.814 0.52996-23.934 4.0645-23.934 2.5377 0 32.82 29.01 65.357 62.61 26.691 27.564 27.494 28.75 24.03 35.519-1.8189 3.5544-69.128 71.914-80.727 81.987-7.1229 6.1858-9.9765 7.1501-11.689 3.95z" fill="#ccd6f6"/>
  <path d="m30.5 255.07c-4.8766-0.35844-9.5617-1.3572-12-2.5583-5.9533-2.9324-12.074-9.7616-14.457-16.13-2.0631-5.5142-2.0769-6.3505-1.811-110.22l0.26792-104.66 2.2915-4.2915c3.1525-5.904 9.5016-12.007 15.059-14.475 4.1405-1.8388 7.1927-2.116 27.899-2.5335l23.25-0.4688v20.126l-21.584 0.32114-21.584 0.32114-2.9162 3.2658-2.9162 3.2658v201.94l2.9166 3.2658 2.9166 3.2658 21.583 0.33594 21.583 0.33593v19.828l-16.25-0.16919c-8.9375-0.09306-19.85-0.4338-24.25-0.75721zm129.54-36.008c-0.61492-1.149-1.0352-10.081-1.0352-22v-20.066h-41.318c-33.759 0-42.24-0.27358-46.354-1.4954-6.9505-2.0641-13.895-8.4103-17.468-15.964l-2.8576-6.0404-7.89e-4 -25.072c-9.46e-4 -30.065 0.42628-32.003 8.9251-40.502 9.0226-9.0226 8.4024-8.9259 57.252-8.9259h41.822v-20.309c0-22.241 0.51305-24.589 5.0944-23.319 2.494 0.69128 37.796 35.012 70.153 68.203 20.444 20.971 21.619 22.879 18.204 29.553-1.8189 3.5544-69.128 71.914-80.727 81.987-7.1229 6.1858-9.9765 7.1501-11.689 3.95z" fill="#c6d1f5"/>
  <path d="m33 255.07c-11.97-0.64622-16.15-2.2164-22.318-8.3845-2.1362-2.1362-4.8511-5.9761-6.0332-8.5332l-2.1492-4.6492v-211l2.1492-4.6492c2.741-5.9295 9.2987-12.498 14.992-15.016 3.844-1.7004 7.584-2.0429 27.899-2.5554l23.46-0.59179v20.17l-21.584 0.32114-21.584 0.32114-2.9162 3.2658-2.9162 3.2658v201.94l2.9162 3.2658 2.9162 3.2658 21.584 0.32114 21.584 0.32114v19.858l-13.75-0.18315c-7.5625-0.10073-18.475-0.43823-24.25-0.75zm127.04-36.001c-0.61492-1.149-1.0352-10.081-1.0352-22v-20.066h-41.318c-33.759 0-42.24-0.27358-46.354-1.4954-6.9505-2.0641-13.895-8.4103-17.468-15.964l-2.8576-6.0404v-51l2.8576-6.0404c3.5736-7.5539 10.518-13.9 17.468-15.964 4.1142-1.2218 12.595-1.4954 46.354-1.4954h41.318v-20.309c0-22.206 0.50846-24.539 5.0944-23.376 1.3632 0.34555 21.113 19.367 45.578 43.897 47.225 47.351 46.573 46.528 42.768 53.916-1.838 3.5692-66.524 69.305-79.697 80.991-8.0304 7.1236-10.938 8.2551-12.708 4.9462z" fill="#c1cef4"/>
  <path d="m33.5 255.06c-7.8078-0.40078-12.086-1.1047-14.744-2.4256-5.3617-2.6652-11.605-9.0759-14.104-14.483l-2.1523-4.6563v-211l2.1492-4.6492c2.701-5.8428 8.6468-11.847 14.571-14.715 4.1756-2.0214 6.5856-2.2636 28.173-2.8315l23.607-0.6211v20.207l-21.584 0.30511-21.584 0.30511-2.9161 3.2658-2.9161 3.2658v201.94l2.9162 3.2658 2.9162 3.2658 21.584 0.32114 21.584 0.32114v19.858l-13.25-0.18536c-7.2875-0.10194-18.2-0.43944-24.25-0.75zm126.54-35.999c-0.61492-1.149-1.0352-10.081-1.0352-22v-20.066h-41.318c-46.878 0-48.18-0.16534-56.083-7.122-2.5814-2.2722-5.9096-6.4368-7.3961-9.2546l-2.7027-5.1234v-55l2.7027-5.1233c1.4865-2.8178 4.8147-6.9824 7.3961-9.2546 7.9032-6.9567 9.2052-7.122 56.083-7.122h41.318v-20.309c0-22.206 0.50846-24.539 5.0944-23.376 1.3651 0.34604 21.055 19.333 45.524 43.897 46.613 46.796 45.985 46.014 42.878 53.45-1.5104 3.6148-61.503 64.917-78.738 80.456-8.9477 8.0675-11.903 9.3483-13.723 5.9473z" fill="#bbc9f3"/>
  <path d="m34 255.06c-8.3289-0.40745-12.536-1.0774-15.257-2.4297-4.8764-2.4236-13.216-11.582-14.914-16.376-1.074-3.0343-1.3298-23.948-1.3298-108.76v-105l2.1492-4.6492c2.6936-5.827 8.6431-11.846 14.523-14.692 4.1111-1.9901 6.6486-2.2453 28.173-2.8327l23.655-0.64555v20.32h-20.099c-21.938 0-25.544 0.72673-27.763 5.5952-0.82727 1.8157-1.1386 29.959-1.1386 102.94v100.44l2.9162 3.2658 2.9162 3.2658 21.584 0.32114 21.584 0.32114v19.858l-12.75-0.18742c-7.0125-0.10309-17.925-0.44059-24.25-0.75zm125.98-36.628c-0.53639-1.4108-0.97525-11.289-0.97525-21.951v-19.386l-43.25-0.29925c-43.223-0.29907-43.253-0.3007-47.75-2.657-6.1351-3.2145-10.668-7.683-13.839-13.642l-2.6607-5v-55l2.7027-5.1233c1.4865-2.8178 4.8147-6.9824 7.3961-9.2546 7.9032-6.9567 9.2052-7.122 56.083-7.122h41.318v-19.435c0-10.689 0.43886-20.589 0.97525-22 2.1626-5.688 3.6447-4.446 49.146 41.185 47.129 47.263 46.487 46.467 43.394 53.869-1.497 3.5828-61.817 65.242-78.756 80.505-9.3338 8.4101-12.187 9.5096-13.783 5.3113z" fill="#b8c7f3"/>
  <path d="m37.5 255.07c-17.252-0.65359-20.087-1.6424-27.371-9.5444-8.2701-8.972-7.6288 0.90752-7.6288-117.52v-105.5l2.4229-4.9229c3.0622-6.2218 8.3626-11.551 14.233-14.311 4.1979-1.9733 6.4847-2.1743 27.958-2.4578l23.386-0.30877 0.28621 9.75 0.28621 9.75h-20.135c-21.977 0-25.58 0.72508-27.799 5.5952-0.82727 1.8157-1.1386 29.959-1.1386 102.94v100.44l2.9161 3.2658 2.9161 3.2658 21.619 0.3054 21.619 0.3054-0.28554 9.6946-0.28554 9.6946-9 0.0683c-4.95 0.0376-15.75-0.18744-24-0.5zm122.48-36.633c-0.53639-1.4108-0.97525-11.289-0.97525-21.951v-19.386l-43.25-0.29925-43.25-0.29925-5.09-2.6858c-5.6584-2.9857-10.253-7.7279-13.654-14.092-2.1845-4.0881-2.2561-5.0958-2.2561-31.722v-27.5l2.7027-5.1233c1.4865-2.8178 4.8147-6.9824 7.3961-9.2546 7.9032-6.9567 9.2052-7.122 56.083-7.122h41.318v-19.435c0-20.966 0.61698-24.565 4.2113-24.565 1.6484 0 14.08 11.851 45.894 43.75 47.086 47.212 46.496 46.481 43.431 53.817-1.4862 3.5569-59.458 62.867-77.766 79.561-10.328 9.4174-13.154 10.622-14.795 6.3069z" fill="#b4c3f2"/>
  <path d="m38 255.08c-17.809-0.66508-20.542-1.602-27.871-9.5528-8.2701-8.972-7.6288 0.90752-7.6288-117.52v-105.5l2.3125-4.6949c2.9274-5.9433 8.9602-12.008 14.566-14.643 3.9223-1.8437 6.6486-2.075 27.736-2.3535l23.386-0.30877 0.28621 9.75 0.28621 9.75h-20.135c-21.977 0-25.58 0.72508-27.799 5.5952-1.6233 3.5628-1.6233 201.25 0 204.81 2.219 4.8702 5.8214 5.5952 27.799 5.5952h20.135l-0.28621 9.75-0.28621 9.75-8.5 0.0778c-4.675 0.0428-15.475-0.18268-24-0.50106zm121.98-36.642c-0.53639-1.4108-0.97525-11.289-0.97525-21.951v-19.386l-43.25-0.29925-43.25-0.29925-5.09-2.6858c-5.6584-2.9857-10.253-7.7279-13.654-14.092-2.1845-4.0881-2.2561-5.0958-2.2561-31.722s0.07167-27.634 2.2561-31.722c3.4007-6.3641 7.9954-11.106 13.654-14.092l5.09-2.6858 43.25-0.29007 43.25-0.29006v-19.395c0-20.926 0.61792-24.525 4.2113-24.525 1.6484 0 14.08 11.851 45.894 43.75 47.511 47.638 46.703 46.625 43.164 54.107-1.7866 3.7768-60.027 63.353-77.499 79.276-10.328 9.4125-13.155 10.617-14.795 6.3022z" fill="#afc0f2"/>
  <path d="m38 255.08c-13.369-0.49929-16.065-0.88115-19.613-2.778-5.1972-2.7792-12.851-11.227-14.571-16.083-1.9482-5.4996-1.9352-210.97 0.013622-216.47 1.8043-5.0972 10.202-14.068 15.501-16.559 3.897-1.8318 6.6831-2.0688 27.751-2.3604l23.419-0.32412 0.28621 9.75 0.28621 9.75h-19.971c-10.984 0-21.082 0.42243-22.44 0.93874-1.358 0.51631-3.4123 1.9512-4.5651 3.1886l-2.096 2.2498v100.76c0 73.221 0.31121 101.45 1.1386 103.26 2.219 4.8702 5.8214 5.5952 27.799 5.5952h20.135l-0.28621 9.75-0.28621 9.75-8.5 0.0778c-4.675 0.0428-15.475-0.18268-24-0.50106zm121.98-36.642c-0.53639-1.4108-0.97525-11.289-0.97525-21.951v-19.386l-43.25-0.29925c-42.69-0.29538-43.305-0.32846-47.472-2.5554-6.2934-3.3629-10.542-7.4863-13.831-13.425l-2.9464-5.3188v-27.5c0-26.626 0.07167-27.634 2.2561-31.722 3.4007-6.3641 7.9954-11.106 13.654-14.092l5.09-2.6858 43.25-0.29925 43.25-0.29925v-19.386c0-20.9 0.61953-24.516 4.201-24.516 1.6335 0 14.091 11.857 45.441 43.25 47.415 47.481 47.155 47.154 43.595 54.67-1.7669 3.7306-57.695 60.943-76.457 78.213-11.327 10.426-14.125 11.719-15.805 7.3023z" fill="#adbdf1"/>
  <path d="m42 255.07c-22.289-0.65438-24.201-1.2273-31.871-9.5486-8.2688-8.9706-7.6288 0.84644-7.6288-117.02 0-84.809 0.25571-105.72 1.3298-108.76 1.7968-5.076 10.2-14.07 15.42-16.505 3.7705-1.7586 6.9044-2.0252 27.751-2.3604l23.5-0.37788 0.28621 9.75 0.28621 9.75h-19.887c-21.5 0-25.037 0.61344-27.823 4.8248-1.6626 2.5137-1.7705 8.7187-1.7873 102.83-0.014837 82.775 0.21908 100.6 1.3482 102.7 2.6558 4.9624 6.0349 5.6431 28.014 5.6431h20.135l-0.28621 9.75-0.28621 9.75-4.5 0.07251c-2.475 0.0399-13.275-0.18512-24-0.5zm117.98-36.638c-0.53639-1.4108-0.97525-11.285-0.97525-21.942v-19.377l-43.25-0.30809-43.25-0.30809-5.3588-2.9682c-6.6753-3.6974-11.526-9.2707-14.133-16.24-1.8052-4.8247-2.008-7.7836-2.008-29.292s0.20283-24.467 2.008-29.292c2.6151-6.9895 7.9483-13.119 14.354-16.498l5.1379-2.71 43.25-0.29925 43.25-0.29925v-19.386c0-20.855 0.62324-24.516 4.1734-24.516 1.5916 0 13.844 11.574 43.136 40.75 22.502 22.412 42.213 42.505 43.802 44.65 2.1248 2.8688 2.8887 5.029 2.8887 8.1694 0 5.3523-0.88687 6.376-37.925 43.775-32.771 33.091-49.456 48.656-52.158 48.656-1.1914 0-2.3516-1.0115-2.9423-2.5651z" fill="#a8bbf0"/>
  <path d="m42.5 255.07c-22.796-0.65172-24.677-1.2012-32.253-9.42-8.4167-9.131-7.7467 1.0018-7.7467-117.15 0-84.809 0.25571-105.72 1.3298-108.76 1.7973-5.0774 10.201-14.071 15.42-16.503 3.7681-1.7556 6.918-2.0235 27.751-2.3604l23.5-0.38 0.28621 9.75 0.28621 9.75h-20.586c-22.401 0-24.801 0.48161-27.496 5.5178-2.0984 3.9208-2.1656 200.92-0.069873 204.83 2.6588 4.968 6.033 5.6483 28.017 5.6483h20.135l-0.28621 9.75-0.28621 9.75-4 0.0718c-2.2 0.0395-13-0.18553-24-0.5zm117.48-36.637c-0.53639-1.4108-0.97525-11.288-0.97525-21.95v-19.385l-42.75-0.29974-42.75-0.29973-5.7242-2.811c-6.8703-3.3737-12.045-9.119-14.768-16.397-1.8052-4.8247-2.008-7.7836-2.008-29.292s0.20283-24.467 2.008-29.292c2.6151-6.9895 7.9483-13.119 14.354-16.498l5.1379-2.71 43.25-0.29925 43.25-0.29925v-19.386c0-20.816 0.62633-24.516 4.1504-24.516 1.5608 0 14.094 11.839 43.141 40.75 22.518 22.412 42.239 42.505 43.825 44.65 2.1248 2.8736 2.8839 5.0298 2.8839 8.1923 0 4.0569-0.57061 4.9123-10.406 15.6-5.7231 6.2192-22.711 23.49-37.75 38.379-40.875 40.467-42.596 41.842-44.869 35.864z" fill="#a6b9f0"/>
  <path d="m42.5 255.07c-22.796-0.65172-24.677-1.2012-32.253-9.42-8.4167-9.131-7.7467 1.0018-7.7467-117.15 0-84.809 0.25571-105.72 1.3298-108.76 1.7973-5.0774 10.201-14.071 15.42-16.503 3.7681-1.7556 6.918-2.0235 27.751-2.3604l23.5-0.38 0.28621 9.75 0.28621 9.75h-20.586c-22.401 0-24.801 0.48161-27.496 5.5178-2.0984 3.9208-2.1656 200.92-0.069873 204.83 2.6588 4.968 6.033 5.6483 28.017 5.6483h20.135l-0.28621 9.75-0.28621 9.75-4 0.0718c-2.2 0.0395-13-0.18553-24-0.5zm117.66-36.619c-0.7533-1.6533-1.1605-9.3555-1.1605-21.95v-19.403l-42.75-0.29974-42.75-0.29973-5.7242-2.811c-6.8703-3.3737-12.045-9.119-14.768-16.397-1.8052-4.8247-2.008-7.7836-2.008-29.292s0.20283-24.467 2.008-29.292c2.6076-6.9693 7.4579-12.543 14.133-16.24l5.3588-2.9681 43.25-0.29925 43.25-0.29925v-19.386c0-20.813 0.62657-24.516 4.1486-24.516 1.5574 0 13.84 11.586 42.139 39.75 21.967 21.862 41.689 41.928 43.827 44.59 3.1844 3.9662 3.8859 5.6293 3.8859 9.2134 0 5.305-0.92704 6.379-36.933 42.789-30.441 30.782-50.564 49.658-52.937 49.658-0.99457 0-2.3305-1.1462-2.9688-2.547z" fill="#a3b7f0"/>
  <path d="m42.5 255.07c-22.796-0.65172-24.677-1.2012-32.253-9.42-8.4181-9.1326-7.7467 1.0649-7.7467-117.65 0-118.72-0.67224-108.52 7.7515-117.66 7.8463-8.5123 9.8571-9.0301 36.749-9.4639l23.5-0.37909 0.28621 9.75 0.28621 9.75h-20.586c-15.791 0-21.223 0.32951-23.322 1.4147-5.8929 3.0473-5.6194-2.1779-5.5975 106.94 0.01888 94.16 0.12596 100.3 1.7923 102.82 2.7901 4.2116 6.3264 4.8248 27.826 4.8248h19.887l-0.28621 9.75-0.28621 9.75-4 0.0718c-2.2 0.0395-13-0.18553-24-0.5zm117.66-36.619c-0.75325-1.6532-1.1605-9.3533-1.1605-21.941v-19.394l-42.75-0.30866-42.75-0.30865-5.6816-2.7901c-6.4369-3.161-11.134-8.0059-14.213-14.659-1.932-4.1754-2.1313-6.6171-2.4165-29.601-0.28932-23.314-0.16749-25.433 1.758-30.579 2.6656-7.1246 7.4731-12.68 14.194-16.403l5.3588-2.9681 43.25-0.29925 43.25-0.29925v-19.386c0-20.813 0.62657-24.516 4.1486-24.516 1.5574 0 13.84 11.586 42.139 39.75 21.967 21.862 41.689 41.928 43.827 44.59 3.1844 3.9662 3.8859 5.6293 3.8859 9.2134 0 5.305-0.92704 6.379-36.933 42.789-30.441 30.782-50.564 49.658-52.937 49.658-0.99457 0-2.3305-1.1462-2.9688-2.547z" fill="#a0b4ef"/>
  <path d="m19.5 252.64c-5.7035-2.6678-12.689-9.764-14.958-15.196-1.3559-3.245-1.5416-16.433-1.5416-109.45 0-93.012 0.18577-106.2 1.5416-109.45 2.1758-5.2073 9.0373-12.308 14.635-15.144 4.6262-2.3443 5.4033-2.4105 28.29-2.4105h23.533v19h-20.55c-15.76 0-21.187 0.32975-23.285 1.4147-5.9457 3.0746-5.6651-2.2256-5.6638 106.99 0.0011 95.044 0.09277 100.23 1.816 102.77 2.859 4.2142 6.3811 4.8248 27.832 4.8248h19.851v19l-23.25-0.01c-22.27-9e-3 -23.461-0.10836-28.25-2.3485zm140.66-34.189c-0.75325-1.6532-1.1605-9.3533-1.1605-21.941v-19.394l-42.75-0.30866-42.75-0.30865-5.6816-2.7901c-6.4369-3.161-11.134-8.0059-14.213-14.659-1.9734-4.265-2.1057-6.2151-2.1057-31.051v-26.5l2.7901-5.6816c3.025-6.1599 7.3657-10.524 13.988-14.062 4.1667-2.2265 4.7906-2.2602 47.472-2.5642l43.25-0.30809v-19.377c0-20.804 0.62678-24.507 4.1486-24.507 1.5574 0 13.84 11.586 42.139 39.75 21.967 21.862 41.689 41.928 43.827 44.59 3.1844 3.9662 3.8859 5.6293 3.8859 9.2134 0 5.305-0.92704 6.379-36.933 42.789-30.441 30.782-50.564 49.658-52.937 49.658-0.99457 0-2.3305-1.1462-2.9688-2.547z" fill="#9cb1ee"/>
  <path d="m19.5 252.64c-5.7035-2.6678-12.689-9.764-14.958-15.196-1.3559-3.245-1.5416-16.433-1.5416-109.45 0-93.012 0.18577-106.2 1.5416-109.45 2.2698-5.4324 9.2549-12.529 14.958-15.196 4.7892-2.2401 5.9802-2.3391 28.25-2.3485l23.25-0.0097689v19h-20.55c-22.401 0-24.763 0.47828-27.486 5.5661-2.2042 4.1186-2.2042 200.75 0 204.87 2.7229 5.0878 5.0847 5.5661 27.486 5.5661h20.55v19l-23.25-0.01c-22.27-9e-3 -23.461-0.10836-28.25-2.3485zm140.6-34.791c-0.64637-1.8542-1.0978-10.874-1.0978-21.933v-18.784l-42.75-0.31723-42.75-0.31722-5.6816-2.7901c-6.4369-3.161-11.134-8.0059-14.213-14.659-1.9734-4.265-2.1057-6.2151-2.1057-31.051s0.13224-26.786 2.1057-31.051c3.0784-6.6532 7.7758-11.498 14.213-14.659l5.6816-2.7901 42.75-0.29974 42.75-0.29974v-19.403c0-20.555 0.69708-24.497 4.332-24.497 2.0516 0 74.914 71.592 84.78 83.302 4.2477 5.0416 4.8883 6.3844 4.8883 10.247 0 4.1293-0.51091 4.9959-7.1912 12.198-26.819 28.914-79.728 80.253-82.707 80.253-1.2388 0-2.2903-1.1024-3.0039-3.1492z" fill="#98aeee"/>
  <path d="m20 252.92c-5.7986-2.6194-11.538-8.1835-14.586-14.14l-2.4136-4.7168v-105.91c0-93.152 0.18572-106.36 1.5416-109.6 2.2698-5.4324 9.2549-12.529 14.958-15.196 4.7892-2.2401 5.9802-2.3391 28.25-2.3485l23.25-0.0097689v19h-20.55c-22.401 0-24.763 0.47828-27.486 5.5661-2.2042 4.1186-2.2042 200.75 0 204.87 2.7229 5.0878 5.0847 5.5661 27.486 5.5661h20.55v19l-23.25-0.022c-21.205-0.01999-23.646-0.20075-27.75-2.0547zm140.1-35.073c-0.64637-1.8542-1.0978-10.874-1.0978-21.933v-18.784l-42.75-0.31723-42.75-0.31722-5.6816-2.7901c-6.4369-3.161-11.134-8.0059-14.213-14.659-1.9734-4.265-2.1057-6.2151-2.1057-31.051s0.13224-26.786 2.1057-31.051c3.0784-6.6532 7.7758-11.498 14.213-14.659l5.6816-2.7901 42.75-0.30865 42.75-0.30865v-18.792c0-18.76 0.88516-25.091 3.508-25.091 0.7218 0 3.4903 1.7557 6.1522 3.9015 5.3274 4.2946 77.41 76.597 81.676 81.925 1.9842 2.4782 2.6637 4.4577 2.6637 7.761 0 4.1476-0.49739 4.9668-7.6944 12.673-28.704 30.736-79.222 79.739-82.204 79.739-1.2388 0-2.2903-1.1024-3.0039-3.1492z" fill="#95abed"/>
  <path d="m20 252.92c-5.7986-2.6194-11.538-8.1835-14.586-14.14l-2.4136-4.7168v-212.13l2.4136-4.7168c3.048-5.9566 8.7878-11.521 14.586-14.14 4.1041-1.8539 6.5453-2.0347 27.75-2.0547l23.25-0.021962v19l-20.75 0.0037c-18.864 0.0034-21.043 0.18239-23.973 1.969-1.7727 1.0809-3.5727 3.2167-4 4.7463-0.42726 1.5296-0.77684 47.375-0.77684 101.88 0 108.12-0.27821 102.91 5.665 105.99 2.098 1.0849 7.5256 1.4147 23.285 1.4147h20.55v19l-23.25-0.022c-21.205-0.01999-23.646-0.20075-27.75-2.0547zm140.1-35.073c-0.64637-1.8542-1.0978-10.874-1.0978-21.933v-18.784l-42.75-0.31723-42.75-0.31722-5.6816-2.7901c-6.4369-3.161-11.134-8.0059-14.213-14.659-1.9734-4.265-2.1057-6.2151-2.1057-31.051s0.13224-26.786 2.1057-31.051c3.0784-6.6532 7.7758-11.498 14.213-14.659l5.6816-2.7901 42.75-0.30865 42.75-0.30865v-18.792c0-18.76 0.88516-25.091 3.508-25.091 0.7218 0 3.4903 1.7557 6.1522 3.9015 5.3274 4.2946 77.41 76.597 81.676 81.925 1.9842 2.4782 2.6637 4.4577 2.6637 7.761 0 4.1478-0.49719 4.9665-7.6955 12.673-27.645 29.598-79.322 79.739-82.181 79.739-1.2637 0-2.3065-1.0853-3.026-3.1492z" fill="#91a9ed"/>
  <path d="m20 252.92c-6.0398-2.7283-11.727-8.3426-14.61-14.423l-2.3707-5 0.012193-105.5c0.012009-103.91 0.042815-105.57 2.0449-110 2.7283-6.0398 8.3426-11.727 14.423-14.61 4.8126-2.2819 5.8713-2.3711 28.25-2.3805l23.25-0.0097689v19l-20.75 0.0037c-18.864 0.0034-21.043 0.18239-23.973 1.969-1.7727 1.0809-3.5727 3.2167-4 4.7463-0.42726 1.5296-0.77684 47.375-0.77684 101.88 0 108.12-0.27822 102.91 5.665 105.99 2.098 1.0849 7.5256 1.4147 23.285 1.4147h20.55v19l-23.25-0.022c-21.205-0.02-23.646-0.20079-27.75-2.0547zm140.87-33.574c-1.0394-1.2503-1.4468-6.5709-1.679-21.925l-0.30653-20.274-42.693-0.32512-42.693-0.32513-5.6816-2.7901c-6.4369-3.161-11.134-8.0059-14.213-14.659-1.9734-4.265-2.1057-6.2151-2.1057-31.051s0.13224-26.786 2.1057-31.051c3.0784-6.6532 7.7758-11.498 14.213-14.659l5.6816-2.7901 42.75-0.31722 42.75-0.31722v-18.784c0-18.751 0.88545-25.082 3.508-25.082 0.7218 0 3.4903 1.7557 6.1522 3.9015 5.1597 4.1594 75.825 75.014 81.166 81.383 2.534 3.0219 3.1737 4.6918 3.1737 8.2847 0 4.2824-0.42054 4.9453-8.7016 13.715-27.696 29.33-78.291 78.715-80.646 78.715-0.77435 0-2.0255-0.74292-2.7804-1.6509z" fill="#8da4ec"/>
  <path d="m20.363 253.08c-6.0421-2.7436-12.344-8.8636-15.01-14.578l-2.3333-5 0.012193-105.5c0.012009-103.91 0.042815-105.57 2.0449-110 2.7283-6.0398 8.3426-11.727 14.423-14.61 4.8126-2.2819 5.8713-2.3711 28.25-2.3805l23.25-0.0097689v19l-20.75 0.0037c-18.864 0.0034-21.043 0.18239-23.973 1.969-1.7727 1.0809-3.5727 3.2167-4 4.7463-1.0149 3.6331-1.0149 198.93 0 202.56 0.42726 1.5296 2.2273 3.6654 4 4.7463 2.9302 1.7866 5.1094 1.9656 23.973 1.969l20.75 0.00378v19l-23.25-0.022c-20.585-0.0195-23.724-0.23731-27.387-1.9005zm140.51-33.728c-1.0393-1.2502-1.4468-6.5697-1.6789-21.917l-0.30646-20.266-42.694-0.33295-42.694-0.33296-5.6816-2.7901c-6.4369-3.161-11.134-8.0059-14.213-14.659-1.9734-4.265-2.1057-6.2151-2.1057-31.051s0.13224-26.786 2.1057-31.051c3.0784-6.6532 7.7758-11.498 14.213-14.659l5.6816-2.7901 42.75-0.31722 42.75-0.31722v-18.784c0-18.828 0.88408-25.082 3.5459-25.082 0.74264 0 3.9611 2.2071 7.1522 4.9047 6.2692 5.2997 74.905 74.151 80.128 80.38 2.5263 3.0126 3.1738 4.6959 3.1738 8.2508 0 4.4096-0.21384 4.6914-16.909 22.282-21.453 22.604-70.554 70.183-72.427 70.183-0.7805 0-2.0367-0.74292-2.7916-1.6509z" fill="#89a3ec"/>
  <path d="m20.363 253.08c-6.0421-2.7436-12.344-8.8636-15.01-14.578l-2.3333-5 0.012193-105.5c0.012009-103.91 0.042815-105.57 2.0449-110 2.7283-6.0398 8.3426-11.727 14.423-14.61 4.8126-2.2819 5.8713-2.3711 28.25-2.3805l23.25-0.0097689v19l-20.75 0.0037c-18.864 0.0034-21.043 0.18239-23.973 1.969-1.7727 1.0809-3.5727 3.2167-4 4.7463-1.0149 3.6331-1.0149 198.93 0 202.56 0.42726 1.5296 2.2273 3.6654 4 4.7463 2.9302 1.7866 5.1094 1.9656 23.973 1.969l20.75 0.00378v19l-23.25-0.022c-20.585-0.0195-23.724-0.23731-27.387-1.9005zm140.51-33.729c-1.038-1.2488-1.4511-6.5896-1.6952-21.917l-0.32275-20.266-42.677-0.33285-42.677-0.33286-5.8069-2.8514c-6.3926-3.139-12.592-9.974-14.861-16.384-0.979-2.7661-1.3323-10.658-1.3323-29.764 0-24.327 0.13546-26.293 2.1057-30.551 3.0784-6.6532 7.7758-11.498 14.213-14.659l5.6816-2.7901 42.693-0.31694 42.693-0.31694 0.3066-20.4c0.25951-17.266 0.55746-20.65 1.9399-22.031 1.3627-1.3608 2.0255-1.4267 4-0.39765 2.8291 1.4745 71.122 69.129 80.975 80.218 5.7788 6.5037 6.8917 8.3312 6.8917 11.316 0 1.9577-0.52001 4.5423-1.1556 5.7436-3.379 6.3869-85.169 87.684-88.215 87.684-0.76134 0-2.0019-0.74302-2.7567-1.6512z" fill="#869eeb"/>
  <path d="m20.363 253.08c-6.0421-2.7436-12.344-8.8636-15.01-14.578l-2.3333-5 0.012193-105.5c0.012009-103.91 0.042815-105.57 2.0449-110 2.7283-6.0398 8.3426-11.727 14.423-14.61 4.8126-2.2819 5.8713-2.3711 28.25-2.3805l23.25-0.0097689v19l-20.75 0.0037c-18.864 0.0034-21.043 0.18239-23.973 1.969-1.7727 1.0809-3.5727 3.2167-4 4.7463-1.0149 3.6331-1.0149 198.93 0 202.56 0.42726 1.5296 2.2273 3.6654 4 4.7463 2.9302 1.7866 5.1094 1.9656 23.973 1.969l20.75 0.00378v19l-23.25-0.022c-20.585-0.0195-23.724-0.23731-27.387-1.9005zm140.51-33.729c-1.0379-1.2487-1.4511-6.5872-1.695-21.903l-0.32259-20.251-42.677-0.37237c-40.962-0.3574-42.864-0.45773-47.327-2.4966-5.9267-2.7079-12.447-9.2174-15.202-15.177-2.0246-4.3796-2.1492-6.1565-2.1492-30.649 0-19.106 0.35326-26.998 1.3323-29.764 2.2688-6.4103 8.4682-13.245 14.861-16.384l5.8069-2.8514 42.677-0.32504 42.677-0.32504 0.32284-20.391c0.27302-17.244 0.57496-20.643 1.9562-22.023 1.3668-1.3651 2.0196-1.4284 4-0.38797 2.8506 1.4976 71.224 69.219 80.98 80.208 8.1975 9.2334 8.9148 12.701 4.0018 19.344-6.258 8.4615-84.078 85.4-86.378 85.4-0.82085 0-2.11-0.74302-2.8649-1.6512z" fill="#839cea"/>
  <path d="m21.741 253.57c-6.7048-2.3925-13.172-8.3522-16.353-15.071l-2.3678-5 0.012193-105.5c0.012009-103.91 0.042815-105.57 2.0449-110 2.7283-6.0398 8.3426-11.727 14.423-14.61 4.8126-2.2819 5.8713-2.3711 28.25-2.3805l23.25-0.0097689v18.892l-22.088 0.30413-22.088 0.30413-2.2983 2.6741c-2.1852 2.5424-2.3339 3.7243-3.0202 24-1.212 35.806-0.18525 180.92 1.2988 183.57 2.633 4.696 5.599 5.2604 27.647 5.2604h20.55v19l-22.75-0.0439c-16.396-0.0316-23.8-0.4186-26.509-1.3854zm139.13-34.222c-1.0379-1.2487-1.4511-6.5872-1.695-21.903l-0.32259-20.251-42.677-0.37237c-40.962-0.3574-42.864-0.45773-47.327-2.4966-5.9158-2.703-11.829-8.606-14.928-14.903-2.3755-4.8266-2.4229-5.4314-2.4229-30.923 0-19.106 0.35326-26.998 1.3323-29.764 2.2688-6.4103 8.4682-13.245 14.861-16.384l5.8069-2.8514 42.677-0.33286 42.677-0.33286 0.32275-20.383c0.27293-17.237 0.57491-20.635 1.9561-22.015 1.3713-1.3696 2.013-1.4301 4-0.3769 2.8674 1.5198 68.909 66.899 79.985 79.182 6.9155 7.6696 7.882 9.2057 7.882 12.527 0 2.0823-0.73566 4.8986-1.6348 6.2585-2.3692 3.5832-79.137 80.634-83.765 84.074-4.5411 3.3752-4.9032 3.4424-6.7275 1.2476z" fill="#8099ea"/>
  <path d="m21.741 253.57c-6.7048-2.3925-13.172-8.3522-16.353-15.071l-2.3678-5 0.012193-105.5c0.012009-103.91 0.042815-105.57 2.0449-110 2.7283-6.0398 8.3426-11.727 14.423-14.61 4.8126-2.2819 5.8713-2.3711 28.25-2.3805l23.25-0.0097689v18.892l-22.088 0.30413-22.088 0.30413-2.3042 2.6809c-2.0853 2.4262-2.3704 4.0415-3.0004 17-0.38292 7.8755-0.54376 53.469-0.35742 101.32 0.26614 68.34 0.61326 87.48 1.6184 89.24 2.6861 4.7012 5.6275 5.2604 27.671 5.2604h20.55v19l-22.75-0.0439c-16.396-0.0316-23.8-0.4186-26.509-1.3854zm139.13-34.223c-1.0367-1.2478-1.455-6.6063-1.71-21.903l-0.33752-20.251-42.662-0.37226c-40.947-0.35729-42.849-0.45766-47.312-2.4965-5.9158-2.703-11.829-8.606-14.928-14.903-2.3791-4.8339-2.4229-5.4023-2.4229-31.423s0.04383-26.589 2.4229-31.423c3.0926-6.2836 8.9999-12.189 14.928-14.923 4.4824-2.0673 6.1797-2.1564 47.326-2.482l42.677-0.33777 0.32275-20.383c0.27293-17.237 0.57491-20.635 1.9561-22.015 1.3719-1.3702 2.0122-1.4303 4-0.37544 2.8682 1.522 66.523 64.52 78.984 78.169 7.9098 8.664 8.8828 10.146 8.8828 13.528 0 2.0888-0.73566 4.9104-1.6348 6.2703-2.3692 3.5832-79.137 80.634-83.765 84.074-4.5413 3.3753-4.9033 3.4424-6.7275 1.2468z" fill="#7b96e9"/>
  <path d="m21.324 253.36c-5.8049-2.0569-12.673-8.414-15.74-14.57l-2.5839-5.1852 0.0097689-105.55 0.0097689-105.55 2.3333-5c2.6665-5.7139 8.9681-11.834 15.01-14.578 3.6628-1.6632 6.8023-1.8811 27.387-1.9005l23.25-0.021962v18.892l-22.088 0.30413-22.088 0.30413-2.3056 2.6825c-2.0616 2.3986-2.379 4.0917-2.9995 16-0.38166 7.3246-0.54189 52.918-0.35606 101.32 0.26552 69.154 0.61192 88.48 1.6175 90.24 2.6861 4.7012 5.6275 5.2604 27.671 5.2604h20.55v19l-22.75-0.0789c-17.373-0.0603-23.737-0.42869-26.926-1.5586zm139.55-34.014c-1.0365-1.2476-1.455-6.6012-1.7095-21.873l-0.33709-20.221-42.694-0.43196c-42.273-0.4277-42.741-0.45501-47.521-2.769-6.1185-2.9619-10.86-7.6955-14.361-14.337l-2.7499-5.2166v-26.5c0-26.134 0.03395-26.568 2.4578-31.458 3.1429-6.3398 8.9787-12.166 14.893-14.868 4.4622-2.0388 6.3645-2.1392 47.312-2.4965l42.662-0.37226 0.33752-20.368c0.28993-17.497 0.57574-20.606 2.0275-22.057 1.5862-1.5848 1.8627-1.5765 4.5 0.13448 3.5894 2.3287 66.674 64.84 78.428 77.715 7.9093 8.6638 8.8823 10.146 8.8823 13.528 0 2.0888-0.73566 4.9104-1.6348 6.2703-2.3692 3.5832-79.137 80.634-83.765 84.074-4.5413 3.3753-4.9033 3.4424-6.7275 1.2468z" fill="#7491e8"/>
  <path d="m21.324 253.36c-5.8049-2.0569-12.673-8.414-15.74-14.57l-2.5839-5.1852 0.021962-105.55c0.021039-101.12 0.1009-105.73 1.9005-109.69 2.7025-5.9514 8.4222-11.858 14.339-14.806 5.0637-2.5234 5.4408-2.5572 28.473-2.5572h23.341l-0.28753 9.25-0.28753 9.25-21.725 0.5c-25.926 0.5967-25.67 0.48518-26.919 11.723-0.98254 8.8388-0.98254 183.72 0 192.55 1.2492 11.238 0.99319 11.126 26.919 11.723l21.725 0.5 0.28753 9.25 0.28753 9.25-22.788-0.0789c-17.406-0.0603-23.774-0.4284-26.963-1.5586zm139.55-34.015c-1.0353-1.247-1.4585-6.6184-1.7229-21.868l-0.35048-20.215-42.714-0.45325c-41.541-0.4408-42.84-0.51392-47.277-2.6619-6.3044-3.0519-11.607-8.4935-14.697-15.082-2.6046-5.5536-2.6107-5.6274-2.6107-31.567v-26l2.7499-5.2166c3.5097-6.658 8.8326-11.972 14.661-14.636 4.3862-2.0049 6.4776-2.1143 47.238-2.4699l42.649-0.37216 0.35107-20.368c0.30136-17.484 0.59033-20.607 2.0411-22.057 1.5865-1.5861 1.8588-1.579 4.446 0.11623 3.6328 2.3803 62.584 60.733 76.492 75.715 9.957 10.726 10.872 12.039 10.872 15.6 0 2.726-0.86623 5.0534-2.8987 7.7879-3.2515 4.3747-78.985 79.893-83.486 83.249-3.4672 2.5851-3.9733 2.629-5.7427 0.49787z" fill="#708ee8"/>
  <path d="m21.324 253.36c-5.8049-2.0569-12.673-8.414-15.74-14.57l-2.5839-5.1852 0.021962-105.55c0.020904-100.47 0.11093-105.75 1.8684-109.62 2.5243-5.5577 7.4776-10.978 12.997-14.223l4.6128-2.7118 24.288-0.3147 24.288-0.3147-0.28838 9.3147-0.28838 9.3147-21.725 0.5c-20.777 0.4782-21.821 0.5969-23.944 2.722-1.5167 1.5184-2.448 4.0516-2.9409 8-0.94128 7.5392-0.94128 187.02 0 194.56 0.49296 3.9484 1.4242 6.4816 2.941 8 2.1228 2.1251 3.167 2.2438 23.944 2.722l21.725 0.5 0.28753 9.25 0.28753 9.25-22.788-0.0789c-17.406-0.0603-23.774-0.4284-26.963-1.5586zm139.57-33.993c-1.0088-1.2156-1.4504-6.7762-1.7344-21.839l-0.381-20.208-42.851-0.63825c-40.698-0.60618-43.075-0.74356-47.31-2.7345-6.1545-2.893-11.41-8.2857-14.504-14.882-2.6005-5.5448-2.6107-5.6664-2.6107-31.067s0.01022-25.522 2.6107-31.067c3.0954-6.6001 8.3944-12.031 14.731-15.099 4.4832-2.1703 5.6494-2.2358 47.277-2.657l42.68-0.43183 0.35057-20.338c0.3009-17.456 0.59-20.577 2.0406-22.027 1.5865-1.5861 1.853-1.5828 4.35 0.05336 3.6062 2.3628 60.82 58.955 75.593 74.771 10.95 11.723 11.867 13.006 11.867 16.6 0 2.7335-0.86422 5.0574-2.8987 7.7946-3.2515 4.3747-78.985 79.893-83.486 83.249-3.4614 2.5808-3.9748 2.6274-5.7237 0.5201z" fill="#6c8ae6"/>
  <path d="m22.5 253.67c-8.4448-3.311-14.181-8.5576-17.61-16.106-1.7575-3.8695-1.8475-9.1514-1.8684-109.62l-0.021962-105.55 2.5839-5.1852c1.4211-2.8519 4.5961-6.9564 7.0555-9.1212 7.3-6.4257 10.613-7.0862 35.539-7.0862h21.822v19h-20.944c-20.553 0-20.995 0.04396-23.681 2.3543-2.1649 1.8622-2.8905 3.5867-3.4714 8.25-0.95815 7.6925-0.95815 187.1 0 194.79 0.58085 4.6634 1.3065 6.3878 3.4714 8.25 2.6859 2.3103 3.1281 2.3543 23.681 2.3543h20.944v19l-22.25-0.0761c-14.514-0.0496-23.293-0.48504-25.25-1.2523zm138.49-34.182c-0.87352-1.0525-1.4077-7.6747-1.7616-21.84l-0.50801-20.33-42.399-0.63c-39.99-0.59421-42.667-0.74806-47.111-2.7078-6.2178-2.7418-12.551-9.0729-15.388-15.383-2.1953-4.8825-2.2933-6.1807-2.3081-30.599-0.01544-25.415-0.0068-25.518 2.5952-31.067 3.0954-6.6001 8.3944-12.031 14.731-15.099 4.4831-2.1702 5.6502-2.2358 47.245-2.6567l42.648-0.4315 0.47155-20.427c0.39158-16.962 0.74307-20.698 2.0724-22.027 1.4678-1.4678 1.8084-1.4649 4.098 0.03534 3.5552 2.3294 60.504 58.615 75.26 74.384 11.45 12.236 12.363 13.5 12.363 17.115 0 2.4341-0.80972 4.9896-2.151 6.7884-3.2488 4.3573-76.633 78.005-82.189 82.483-5.4245 4.3729-5.9009 4.5214-7.669 2.391z" fill="#6788e6"/>
  <path d="m22.5 253.67c-8.4448-3.311-14.181-8.5576-17.61-16.106-1.7575-3.8695-1.8475-9.1514-1.8684-109.62l-0.021962-105.55 2.5839-5.1852c1.4211-2.8519 4.5961-6.9564 7.0555-9.1212 7.3-6.4257 10.613-7.0862 35.539-7.0862h21.822v19h-20.944c-20.358 0-21.018 0.06384-23.594 2.2791-1.6982 1.4607-2.9594 3.8846-3.5122 6.75-1.0928 5.664-1.1113 190.76-0.01974 197.41 0.57118 3.4806 1.6041 5.6225 3.4962 7.25 2.6207 2.2542 3.1904 2.3099 23.63 2.3099h20.944v19l-22.25-0.0761c-14.514-0.0496-23.293-0.48504-25.25-1.2523zm138.49-34.182c-0.87352-1.0525-1.4077-7.6746-1.7616-21.84l-0.50799-20.329-42.428-0.64326c-39.914-0.60516-42.705-0.76558-47.111-2.7083-6.1912-2.7301-12.527-9.07-15.36-15.371-2.1953-4.8825-2.2933-6.1807-2.3081-30.599-0.01544-25.415-0.0068-25.518 2.5952-31.067 3.1176-6.6474 8.337-11.972 14.717-15.014 4.55-2.1692 5.7894-2.2401 47.29-2.7055l42.618-0.47785 0.47144-20.422c0.39147-16.958 0.74298-20.693 2.0723-22.023 1.4508-1.4509 1.8227-1.4555 3.968-0.04986 3.5464 2.3237 56.876 54.972 73.362 72.424 13.476 14.266 14.391 15.483 14.391 19.149 0 2.4456-0.80726 4.9974-2.151 6.7996-3.2488 4.3573-76.633 78.005-82.189 82.483-5.4245 4.3729-5.9009 4.5214-7.669 2.391z" fill="#6685e6"/>
  <path d="m22.372 253.79c-5.0062-1.6126-12.558-7.9187-15.84-13.228l-3.0316-4.9032-0.26347-106.54-0.26347-106.54 2.5696-5.2521c1.4133-2.8887 4.5943-7.0343 7.0689-9.2126 7.33-6.4521 10.624-7.1107 35.567-7.1107h21.822v19h-20.944c-20.358 0-21.018 0.06384-23.594 2.2791-1.6982 1.4607-2.9594 3.8846-3.5122 6.75-1.1261 5.8368-1.1261 192.1 0 197.94 0.55282 2.8654 1.8141 5.2893 3.5122 6.75 2.5754 2.2153 3.2363 2.2791 23.594 2.2791h20.944v19l-22.25-0.10209c-12.238-0.0562-23.658-0.55549-25.378-1.1096zm138.63-34.281c-0.84761-1.0213-1.439-8.0494-1.8724-22.25l-0.63349-20.757-43.5-0.5c-42.219-0.48528-43.618-0.56374-47.5-2.6653-5.5205-2.9883-10.967-8.8875-13.696-14.835-2.2012-4.7971-2.2945-6.0348-2.2994-30.5-5e-3 -25.428 0.0023-25.515 2.6077-31 2.9626-6.2363 8.3635-12.009 13.738-14.684 3.3069-1.6457 7.735-1.8633 47.15-2.3163l43.5-0.5 0.60411-20.818c0.4965-17.11 0.88659-21.101 2.19-22.404 1.436-1.436 1.8097-1.4393 3.953-0.0349 3.5464 2.3237 56.876 54.972 73.362 72.424 13.534 14.327 14.391 15.471 14.391 19.194 0 3.1095-0.83782 4.9991-3.9015 8.7996-4.2946 5.3274-76.597 77.41-81.925 81.676-3.8464 3.0797-4.4828 3.2006-6.1673 1.1708z" fill="#6484e5"/>
  <path d="m22.372 253.79c-5.0062-1.6126-12.558-7.9187-15.84-13.228l-3.0316-4.9032-0.26347-106.54-0.26347-106.54 2.5696-5.2521c1.4133-2.8887 4.5943-7.0343 7.0689-9.2126 7.33-6.4521 10.624-7.1107 35.567-7.1107h21.822v19h-20.944c-20.358 0-21.018 0.06384-23.594 2.2791-1.6982 1.4607-2.9594 3.8846-3.5122 6.75-1.1261 5.8368-1.1261 192.1 0 197.94 0.55282 2.8654 1.8141 5.2893 3.5122 6.75 2.5754 2.2153 3.2363 2.2791 23.594 2.2791h20.944v19l-22.25-0.10209c-12.238-0.0562-23.658-0.55549-25.378-1.1096zm138.72-34.175c-0.73064-0.88037-1.4147-9.0091-1.8724-22.25l-0.72122-20.863-43.5-0.5c-42.219-0.48528-43.618-0.56374-47.5-2.6653-5.3825-2.9136-10.95-8.8589-13.423-14.335-1.8793-4.1604-2.0328-6.5002-2.0328-31s0.15343-26.84 2.0328-31c2.4736-5.4759 8.0408-11.421 13.423-14.335 3.8822-2.1015 5.2805-2.18 47.5-2.6653l43.5-0.5 0.72361-20.938c0.79899-23.119 1.3956-25.354 5.9664-22.355 3.6577 2.4004 57.65 55.721 73.469 72.554 13.393 14.252 14.341 15.519 14.341 19.16 0 3.0385-0.86087 4.9667-3.9015 8.7386-4.2946 5.3274-76.597 77.41-81.925 81.676-3.8094 3.0502-4.4892 3.1929-6.0796 1.2765z" fill="#6282e4"/>
  <path d="m22.703 253.56c-5.3728-1.9165-11.113-5.9176-14.091-9.8222-5.9305-7.7752-5.6118-1.1888-5.6118-116.01v-105.34l2.5839-5.1852c1.4211-2.8519 4.5961-6.9564 7.0555-9.1212 7.3-6.4257 10.613-7.0862 35.539-7.0862h21.822v19h-41.968l-3.2658 2.9176-3.2658 2.9176-0.31163 95.832c-0.17139 52.708-0.01463 98.724 0.34837 102.26 0.53592 5.2174 1.191 6.9563 3.4847 9.25l2.8247 2.8247h42.154v19l-21.75-0.0439c-15.663-0.0316-22.813-0.423-25.547-1.3984zm138.39-33.94c-0.73474-0.8853-1.3754-8.9791-1.7811-22.5l-0.6336-21.117-42.591-0.022c-40.652-0.02092-42.796-0.11448-47.091-2.0547-6.0398-2.7283-11.727-8.3426-14.61-14.423-2.3088-4.8695-2.3707-5.6915-2.3707-31.5s0.06186-26.63 2.3707-31.5c2.8831-6.0807 8.57-11.695 14.61-14.423 4.2951-1.9402 6.4394-2.0338 47.093-2.0547l42.593-0.021962 0.60555-21.086c0.62833-21.879 1.1561-24.424 4.7873-23.081 2.6627 0.98499 50.021 47.225 71.393 69.707 16.588 17.45 17.528 18.649 17.528 22.359 0 3.0638-0.85259 4.9781-3.9015 8.7603-4.2946 5.3274-76.597 77.41-81.925 81.676-3.8078 3.0489-4.4894 3.1926-6.0759 1.281z" fill="#5e81e4"/>
  <path d="m22.703 253.56c-8.5807-3.0608-15.546-9.6565-18.276-17.306-1.0852-3.041-1.3473-23.661-1.3829-108.81l-0.043893-105.05 2.5839-5.1852c1.4211-2.8519 4.5961-6.9564 7.0555-9.1212 7.3-6.4257 10.613-7.0862 35.539-7.0862h21.822v19h-41.968l-3.2658 2.9176-3.2658 2.9176-0.31163 95.832c-0.17139 52.708-0.01463 98.724 0.34837 102.26 0.53592 5.2174 1.191 6.9563 3.4847 9.25l2.8247 2.8247h42.154v19l-21.75-0.0439c-15.663-0.0316-22.813-0.423-25.547-1.3984zm138.39-33.94c-0.73474-0.8853-1.3754-8.9791-1.7811-22.5l-0.6336-21.117-42.591-0.022c-40.652-0.02092-42.796-0.11448-47.091-2.0547-6.0398-2.7283-11.727-8.3426-14.61-14.423-2.3088-4.8695-2.3707-5.6915-2.3707-31.5s0.06186-26.63 2.3707-31.5c2.8831-6.0807 8.57-11.695 14.61-14.423 4.2951-1.9402 6.4394-2.0338 47.091-2.0547l42.591-0.021962 0.6336-21.117c0.65181-21.724 1.1903-24.372 4.6931-23.073 2.6841 0.99515 46.592 43.805 69.477 67.74 18.581 19.434 19.513 20.596 19.513 24.34 0 3.0765-0.84843 4.984-3.9015 8.7713-4.2946 5.3274-76.597 77.41-81.925 81.676-3.8078 3.0489-4.4894 3.1926-6.0759 1.281z" fill="#5d7fe3"/>
  <path d="m22.703 253.56c-8.956-3.1947-16.62-10.822-18.724-18.635-0.66455-2.4679-0.92247-40.134-0.74704-109.1l0.26793-105.33 2.743-4.666c1.5086-2.5663 4.5986-6.2544 6.8666-8.1957 6.9831-5.9773 10.475-6.6382 35.069-6.6382h21.822v19h-41.968l-3.2658 2.918-3.2658 2.918v204.33l3.2658 2.918 3.2658 2.918h41.968v19l-21.75-0.0439c-15.663-0.0316-22.813-0.423-25.547-1.3984zm138.39-33.94c-0.73474-0.8853-1.3754-8.9791-1.7811-22.5l-0.6336-21.117-42.591-0.022c-40.652-0.02092-42.796-0.11448-47.091-2.0547-6.0398-2.7283-11.727-8.3426-14.61-14.423-2.3088-4.8695-2.3707-5.6915-2.3707-31.5s0.06186-26.63 2.3707-31.5c2.8831-6.0807 8.57-11.695 14.61-14.423 4.2951-1.9402 6.4394-2.0338 47.091-2.0547l42.591-0.021962 0.6336-21.117c0.64274-21.422 1.2141-24.357 4.5069-23.148 2.5929 0.95198 46.122 43.323 68.821 66.989 19.432 20.261 20.356 21.403 20.356 25.16 0 3.0821-0.84664 4.9865-3.9015 8.776-4.2946 5.3274-76.597 77.41-81.925 81.676-3.8078 3.0489-4.4894 3.1926-6.0759 1.281z" fill="#5a7ce4"/>
  <path d="m22.882 253.62c-5.6783-2.0292-10.539-5.3983-13.887-9.6258-6.3431-8.0089-6.0574-2.153-5.763-118.1l0.268-105.55 3.0316-4.9031c3.4774-5.6242 10.931-11.662 16.43-13.31 2.2981-0.68853 12.218-1.1296 25.404-1.1296h21.634v19h-41.968l-3.2658 2.918-3.2658 2.918v204.33l3.2658 2.918 3.2658 2.918h41.968v19l-21.75-0.0439c-15.151-0.0306-22.848-0.43614-25.368-1.3367zm138.81-33.908c-1.3126-1.0052-1.701-4.8269-2.2826-22.461l-0.7008-21.25-42.606-0.01c-42.529-0.00952-42.615-0.01372-47.606-2.3428-5.7139-2.6665-11.834-8.9681-14.578-15.01-1.6856-3.7121-1.8798-6.8589-1.8908-30.637-0.011881-25.821 0.048534-26.628 2.3585-31.5 2.8831-6.0807 8.57-11.695 14.61-14.423 4.2952-1.9402 6.4393-2.0338 47.106-2.0547l42.606-0.021962 0.72676-21.247c0.39971-11.686 1.1562-21.764 1.6812-22.397 0.52493-0.63251 1.878-0.90848 3.0069-0.61328 2.4813 0.64887 84.049 81.856 86.875 86.491 3.2987 5.4103 2.6501 8.8882-2.8839 15.464-6.4851 7.706-80.027 80.706-82.729 82.12-1.5732 0.82305-2.5153 0.79591-3.6936-0.10641z" fill="#587be3"/>
  <path d="m22.882 253.62c-5.6783-2.0292-10.539-5.3983-13.887-9.6258-6.3431-8.0089-6.0574-2.153-5.763-118.1l0.268-105.55 3.0316-4.9031c3.4774-5.6242 10.931-11.662 16.43-13.31 2.2981-0.68853 12.218-1.1296 25.404-1.1296h21.634v19h-41.968l-3.2658 2.918-3.2658 2.918v204.33l3.2658 2.918 3.2658 2.918h41.968v19l-21.75-0.0439c-15.151-0.0306-22.848-0.43614-25.368-1.3367zm138.81-33.908c-1.3126-1.0052-1.701-4.8269-2.2826-22.461l-0.7008-21.25-42.606-0.01c-42.529-0.00952-42.615-0.01372-47.606-2.3428-5.7139-2.6665-11.834-8.9681-14.578-15.01-1.6867-3.7146-1.8786-6.8429-1.8786-30.637s0.19182-26.922 1.8786-30.637c2.7436-6.0421 8.8636-12.344 14.578-15.01 4.991-2.3291 5.0763-2.3333 47.606-2.3431l42.606-0.009769 0.72676-21.247c0.39971-11.686 1.1562-21.764 1.6812-22.397 0.52493-0.63251 1.8384-0.91885 2.9188-0.63631 2.3977 0.627 84.283 82.118 87.011 86.592 3.2501 5.3302 2.5826 8.8337-2.9314 15.386-6.4851 7.706-80.027 80.706-82.729 82.12-1.5732 0.82305-2.5153 0.79591-3.6936-0.10641z" fill="#5679e3"/>
  <path d="m22.703 253.56c-8.6493-3.0853-15.695-10.098-18.544-18.457-0.84883-2.4904-1.1586-31.118-1.1586-107.07 0-117.09-0.51899-109.3 7.8596-117.86 8.1699-8.3408 9.3063-8.6254 35.89-8.9872l23.25-0.31649v19.133h-41.968l-3.2658 2.918-3.2658 2.918v204.33l3.2658 2.918 3.2658 2.918h41.968v19l-21.75-0.0439c-15.663-0.0316-22.813-0.423-25.547-1.3984zm137.94-34.33c-0.26253-0.42478-0.80407-10.325-1.2034-22l-0.7261-21.228-42.606-0.022c-39.525-0.0204-42.905-0.15778-46.743-1.9005-5.9514-2.7024-11.858-8.4222-14.806-14.339-2.5519-5.121-2.5572-5.187-2.5353-31.685 0.0197-23.818 0.21552-26.98 1.9005-30.691 2.7436-6.042 8.8636-12.344 14.578-15.01 4.991-2.3291 5.0763-2.3333 47.606-2.3431l42.606-0.009769 0.7261-21.228c0.39936-11.675 0.9409-21.575 1.2034-22 2.0446-3.3083 6.167 0.28602 46.787 40.793 22.925 22.861 42.555 42.998 43.623 44.75 3.2469 5.325 2.5793 8.8313-2.9288 15.383-2.6829 3.1911-22.203 23.014-43.377 44.052-30.576 30.379-39.026 38.25-41.063 38.25-1.4103 0-2.7789-0.34755-3.0414-0.77234z" fill="#5477e3"/>
  <path d="m22.703 253.56c-8.9812-3.2037-16.166-10.558-18.642-19.081-0.84955-2.9247-1.0766-31.628-0.85816-108.48 0.2894-101.8 0.34812-104.6 2.2763-108.5 2.5336-5.1205 8.9003-11.487 14.021-14.021 3.5727-1.7678 6.4836-2.013 27.25-2.2957l23.25-0.31649v19.133h-41.968l-3.2658 2.918-3.2658 2.918v204.33l3.2658 2.918 3.2658 2.918h41.968v19l-21.75-0.0439c-15.663-0.0316-22.813-0.423-25.547-1.3984zm137.95-34.308c-0.25403-0.4125-0.79211-10.312-1.1957-22l-0.73386-21.25-42.613-0.022c-39.533-0.0204-42.912-0.15776-46.75-1.9005-5.9514-2.7024-11.858-8.4222-14.806-14.339-2.5519-5.121-2.5572-5.187-2.5353-31.685 0.0197-23.818 0.21552-26.98 1.9005-30.691 2.7436-6.042 8.8636-12.344 14.578-15.01 4.9919-2.3295 5.0695-2.3333 47.75-2.3431l42.75-0.009769 0.12722-10.75c0.07-5.9125 0.40747-15.7 0.75-21.75l0.62278-11h2.7799c2.3267 0 9.5646 6.7658 44.396 41.5 22.889 22.825 42.449 42.85 43.466 44.5 3.1565 5.1169 2.4464 8.6957-3.0153 15.198-2.6804 3.1911-22.21 23.014-43.4 44.052-30.409 30.191-39.062 38.25-41.068 38.25-1.3976 0-2.749-0.3375-3.003-0.75z" fill="#5175e2"/>
  <path d="m22.703 253.56c-8.6493-3.0853-15.695-10.098-18.544-18.457-1.6292-4.78-1.6568-208.71-0.028963-214.14 1.7492-5.8382 7.7454-12.912 13.87-16.363l5.5-3.0988 23.25-0.31649 23.25-0.31649v19.133h-41.968l-3.2658 2.918-3.2658 2.918v204.33l3.2658 2.918 3.2658 2.918h41.968v19l-21.75-0.0439c-15.663-0.0316-22.813-0.423-25.547-1.3984zm137.96-34.224c-0.36667-0.36666-0.66849-4.5292-0.67073-9.25-2e-3 -4.7208-0.29578-14.303-0.65233-21.294l-0.64828-12.711-43.598-0.28924-43.598-0.28925-4.6128-2.7118c-5.7132-3.3586-10.493-8.7022-12.986-14.518-1.7074-3.9833-1.9014-7.1109-1.9014-30.657 0-26.121 0.0097-26.24 2.5572-31.352 2.9482-5.9163 8.8544-11.636 14.806-14.339 3.8379-1.7427 7.2171-1.8801 46.733-1.9005l42.596-0.021962 0.65026-12.75c0.35765-7.0125 0.65209-16.201 0.65432-20.418 0.00483-9.126 0.5298-10.832 3.3337-10.832 1.4526 0 15.387 13.241 44.463 42.25 23.291 23.238 42.991 43.465 43.777 44.95 2.7484 5.1885 1.878 8.2317-4.44 15.524-3.2288 3.7266-22.771 23.538-43.427 44.026-36.993 36.691-40.201 39.419-43.036 36.583z" fill="#4f74e2"/>
  <path d="m22.698 253.56c-8.4579-3.0168-15.752-10.278-18.539-18.455-1.6292-4.78-1.6568-208.71-0.028963-214.14 1.7492-5.8382 7.7454-12.912 13.87-16.363l5.5-3.0988 23.25-0.31649 23.25-0.31649v17.815l-20.743 0.6453c-22.405 0.69698-24.088 1.1192-26.992 6.7687-0.95596 1.8601-1.2353 24.901-1.2353 101.9 0 77.003 0.2793 100.04 1.2353 101.9 2.8233 5.4937 4.6257 5.9403 26.985 6.6862l20.75 0.69223v17.718l-21.75-0.0439c-15.675-0.0316-22.812-0.42266-25.552-1.4zm137.91-35.138c-0.33385-0.86998-0.60881-5.0325-0.61105-9.25-2e-3 -4.2175-0.29578-13.388-0.65233-20.379l-0.64828-12.711-43.598-0.28924-43.598-0.28925-4.6128-2.7118c-5.7132-3.3586-10.493-8.7022-12.986-14.518-1.7074-3.9833-1.9014-7.1109-1.9014-30.657 0-26.121 0.0097-26.24 2.5572-31.352 2.9482-5.9163 8.8544-11.636 14.806-14.339 3.8379-1.7427 7.2171-1.8801 46.733-1.9005l42.596-0.021962 0.65026-12.75c0.35765-7.0125 0.65209-16.201 0.65432-20.418 0.00483-9.126 0.5298-10.832 3.3337-10.832 1.4526 0 15.387 13.241 44.463 42.25 23.291 23.238 42.991 43.465 43.777 44.95 2.7553 5.2014 1.8816 8.2308-4.477 15.524-6.2727 7.1946-70.654 71.368-77.845 77.594-4.53 3.9218-7.6501 4.6802-8.6401 2.1001z" fill="#4d72e2"/>
  <path d="m22.698 253.56c-8.4579-3.0168-15.752-10.278-18.539-18.455-1.6292-4.78-1.6568-208.71-0.028963-214.14 1.7492-5.8382 7.7454-12.912 13.87-16.363l5.5-3.0988 23.25-0.31649 23.25-0.31649v17.881l-20.25 0.47471c-13.565 0.31799-21.142 0.90051-22.952 1.7645-6.0446 2.8855-5.7996-1.6536-5.7834 107.16 0.0114 76.859 0.29437 99.893 1.25 101.75 2.9274 5.6963 4.6386 6.1264 27.027 6.7938l20.708 0.61727v17.685l-21.75-0.0439c-15.675-0.0316-22.812-0.42266-25.552-1.4zm137.91-35.138c-0.33385-0.86998-0.60881-5.0325-0.61105-9.25-2e-3 -4.2175-0.29667-13.406-0.65432-20.418l-0.65026-12.75h-41.668c-48.266 0-48.135 0.0196-56.589-8.4348-7.9225-7.9225-8.4348-10.325-8.4348-39.565 0-27.679 0.54114-30.767 6.6382-37.89 1.9413-2.268 5.6294-5.358 8.1957-6.8666l4.666-2.743 43.598-0.28925 43.598-0.28924 0.64828-12.711c0.35655-6.9909 0.6501-16.161 0.65233-20.379 0.00483-9.126 0.5298-10.832 3.3337-10.832 1.4526 0 15.387 13.241 44.463 42.25 23.291 23.238 42.991 43.465 43.777 44.95 2.0234 3.8197 1.7769 7.4894-0.74865 11.145-2.7936 4.0439-65.531 67.351-77.062 77.762-8.635 7.7961-11.968 9.3953-13.152 6.3105z" fill="#4b70e1"/>
  <path d="m22.698 253.56c-8.4579-3.0168-15.752-10.278-18.539-18.455-1.6292-4.78-1.6568-208.71-0.028963-214.14 1.7492-5.8382 7.7454-12.912 13.87-16.363l5.5-3.0988 23.25-0.31649 23.25-0.31649v17.906l-20.75 0.40591c-22.282 0.43588-23.58 0.72301-26.634 5.8929-1.4599 2.4713-1.6151 12.411-1.6017 102.58 0.01141 77.253 0.29425 100.39 1.25 102.25 0.67939 1.322 2.4326 3.2924 3.8961 4.3787 2.3859 1.771 4.7885 2.0283 23.25 2.4896l20.589 0.51449v17.714l-21.75-0.0439c-15.675-0.0316-22.812-0.42266-25.552-1.4zm137.91-35.138c-0.33385-0.86998-0.60699-5.2993-0.60699-9.843 0-4.5437-0.29415-13.732-0.65368-20.418l-0.65367-12.157h-41.668c-48.267 0-48.135 0.0197-56.59-8.4348-7.9225-7.9225-8.4348-10.325-8.4348-39.565 0-29.24 0.51226-31.643 8.4348-39.565 8.4544-8.4544 8.3226-8.4348 56.59-8.4348h41.668l0.65367-12.157c0.35953-6.6864 0.65368-15.875 0.65368-20.418s0.27314-8.973 0.60699-9.843c1.6446-4.2857 5.1964-1.2244 47.185 40.668 23.291 23.238 42.991 43.465 43.777 44.95 2.0236 3.8203 1.7768 7.4898-0.74977 11.145-2.7939 4.0423-63.226 65.04-76.049 76.761-9.5361 8.7164-12.948 10.478-14.163 7.3115z" fill="#486ee1"/>
  <path d="m24.5 254.06c-7.9048-1.9244-15.304-8.3005-19.105-16.463l-2.3757-5.1022-0.0097689-104.59-0.0097689-104.59 3.0597-6.123c3.0469-6.0974 7.1201-10.132 13.94-13.809 3.0869-1.6643 6.244-1.9244 26.75-2.2035l23.25-0.31649v17.958l-20.75 0.33739c-22.555 0.36673-24.564 0.8412-27.096 6.3985-0.8476 1.8603-1.1541 29.105-1.1541 102.58 0 90.341 0.15684 100.31 1.6165 102.79 3.086 5.2242 4.3239 5.4985 26.634 5.9004l20.75 0.37381v17.798l-21.25-0.10236c-11.688-0.0563-22.6-0.43102-24.25-0.83271zm136.11-35.647c-0.33385-0.86998-0.61019-7.7325-0.6141-15.25-4e-3 -7.5175-0.29398-16.706-0.6446-20.418l-0.6375-6.75h-41.677c-46.511 0-47.279-0.094-55.05-6.7463-2.5574-2.1891-5.3912-6.0502-7.1158-9.6957l-2.866-6.058-7.89e-4 -25.072c-9.35e-4 -29.716 0.49134-32.051 8.434-39.993 8.4546-8.4546 8.3215-8.4348 56.599-8.4348h41.677l0.6375-6.75c0.35062-3.7125 0.64069-12.901 0.6446-20.418 4e-3 -7.5175 0.28025-14.38 0.6141-15.25 1.6304-4.2488 5.2359-1.1401 47.167 40.668 23.306 23.238 43.016 43.465 43.8 44.95 2.4794 4.6947 1.7844 8.0973-2.7386 13.409-6.035 7.0871-56.135 57.492-71.041 71.473-12.345 11.579-15.892 13.712-17.188 10.336z" fill="#456ce0"/>
  <path d="m22.165 253.09c-6.5723-2.2698-13.511-8.7206-16.773-15.592l-2.3729-5v-209l2.3757-5.1022c2.7998-6.0129 8.0013-11.499 13.881-14.641 3.9768-2.125 5.5815-2.2753 27.473-2.5733l23.25-0.31649v18.133l-18.75 0.0056c-21.574 0.0064-25.518 0.74593-28.298 5.3058-1.8914 3.102-1.9443 5.91-1.948 103.39-0.0027 73.6 0.30267 100.88 1.1504 102.74 2.5337 5.5608 4.5378 6.033 27.096 6.3835l20.75 0.32239v17.855l-21.25-0.0326c-17.989-0.02768-22.069-0.3154-26.585-1.8751zm138.44-34.674c-0.33385-0.86998-0.61019-7.7325-0.6141-15.25-4e-3 -7.5175-0.29231-16.688-0.6409-20.379l-0.63379-6.7103-43.109-0.28967c-42.237-0.2838-43.192-0.33423-47.226-2.4919-6.7012-3.585-10.085-7.0121-13.326-13.498l-3.058-6.1196v-51.361l3.0683-6.1403c1.6876-3.3772 4.8901-7.6996 7.1166-9.6054 7.5453-6.4585 8.5066-6.5737 54.849-6.5737h41.677l0.6375-6.75c0.35062-3.7125 0.64069-12.901 0.6446-20.418 4e-3 -7.5175 0.28025-14.38 0.6141-15.25 0.33384-0.86998 1.5275-1.5818 2.6526-1.5818 1.3571 0 15.834 13.715 43.014 40.75 22.532 22.412 42.264 42.505 43.847 44.65 3.3478 4.5347 3.6185 7.8755 0.98755 12.19-5.0355 8.2577-84.603 86.41-87.975 86.41-1.0555 0-2.1922-0.7118-2.526-1.5818z" fill="#4269e0"/>
  <path d="m22.86 253.43c-5.5887-1.7206-14.071-9.0464-17.16-14.82l-2.2002-4.1126-0.27848-105c-0.31439-118.54-0.88734-109.67 7.6713-118.82 8.3094-8.8834 9.2305-9.1277 35.857-9.5104l23.25-0.3342v18.161h-19.532c-20.999 0-24.734 0.68649-27.837 5.1169-1.4816 2.1153-1.6307 11.613-1.6307 103.88 0 92.27 0.14909 101.77 1.6307 103.88 3.1032 4.4304 6.8379 5.1169 27.837 5.1169h19.532v18l-21.25-0.0696c-15.414-0.0505-22.524-0.46197-25.89-1.4981zm137.75-35.014c-0.33385-0.86998-0.60699-8.004-0.60699-15.853 0-7.8493-0.28911-17.038-0.64246-20.418l-0.64245-6.1467h-41.32c-38.85 0-41.639-0.11939-46.657-1.9968-6.5383-2.4463-13.182-8.7397-16.365-15.503-2.279-4.8419-2.3534-5.8065-2.3534-30.5 0-24.746 0.07026-25.651 2.3757-30.602 2.7998-6.0129 8.0013-11.499 13.881-14.641 4.1693-2.2279 4.7759-2.2605 47.335-2.5464l43.112-0.28967 0.63831-6.107c0.35107-3.3589 0.63831-12.529 0.63831-20.379 0-7.8493 0.27314-14.983 0.60699-15.853 0.33384-0.86998 1.5296-1.5818 2.6571-1.5818 2.8357 0 88.316 85.479 89.266 89.265 0.37757 1.5044 0.38647 3.9727 0.0198 5.4852-0.93131 3.8413-86.33 89.25-89.239 89.25-1.1534 0-2.3703-0.7118-2.7041-1.5818z" fill="#4068e0"/>
 </g>
</svg>
