<?xml version="1.0" encoding="UTF-8"?>
<svg width="332" height="325.33" version="1.1" viewBox="0 0 332 325.33334" xmlns="http://www.w3.org/2000/svg">
 <g transform="matrix(1 0 0 1.0129 1.2843 -4.2045)" stroke-width="1.3333">
  <path d="m28.3 320.45c-14.155-9.6045-24.412-26.292-26.913-43.785-1.7814-12.46-1.7814-204.87 0-217.33 3.4451-24.097 20.678-44.088 44.711-51.868 6.0971-1.9738 18.133-2.1541 122-1.8276l115.24 0.36224 10.228 4.8843c18.512 8.8402 31.989 26.107 35.734 45.782 1.0857 5.7035 1.4053 39.194 1.1136 116.67l-0.40925 108.67-4.3589 10.096c-4.9858 11.548-14.315 22.825-24.051 29.073l-6.4903 4.1648-129.88-0.0546-129.88-0.0546z" fill="#f2f2f3"/>
  <path d="m34.665 321.42c-8.8457-4.57-19.79-15.795-24.541-25.17-7.568-14.935-7.4577-13.038-7.4577-128.25 0-114.98-0.093695-113.34 7.3434-128.02 5.3016-10.462 19.47-24.562 29.783-29.639l8.8176-4.3409h233.45l8.8998 4.3813c14.06 6.9217 27.774 22.222 33.517 37.395 2.8289 7.4734 2.8646 8.7683 3.2244 116.87 0.24932 74.917-0.0924 111.51-1.0861 116.29-3.3215 16-15.148 31.902-30.107 40.482l-6.829 3.9169-123.84-0.0641-123.84-0.06417z" fill="#ebebec"/>
  <path d="m37.604 320.62c-17.69-8.8499-29.572-25.996-32.337-46.662-0.93724-7.0053-1.269-45.599-0.97375-113.29 0.44189-101.33 0.48525-102.77 3.3204-110.28 7.434-19.7 18.754-33.432 33.555-40.704l7.4987-3.684h233.33l7.6241 3.5734c14.468 6.7812 27.535 22.639 33.862 41.093 2.3836 6.9528 2.5141 13.041 2.5141 117.33 0 104.32-0.13 110.38-2.5156 117.33-5.6751 16.544-15.863 28.297-30.78 35.507l-9.2957 4.4932h-236.38z" fill="#e3e3e3"/>
  <path d="m49.333 323.79c-19.624-5.5314-36.154-21.889-41.252-40.823-1.0428-3.8728-1.4804-38.113-1.4558-113.92 0.019325-59.611 0.29268-109.58 0.60746-111.05 1.262-5.8802 6.0609-19.363 8.8096-24.751 4.1913-8.2156 15.352-18.79 24.624-23.331l8-3.9181h233.39l8.8502 4.3569c12.409 6.1087 21.998 16.74 27.471 30.456 2.3089 5.7862 4.6684 12.92 5.2434 15.854 0.57503 2.9333 1.0455 53.933 1.0455 113.33 0 100.32-0.1708 108.54-2.4005 115.57-1.3203 4.1647-3.5703 9.0594-5 10.877-1.4297 1.8176-2.5995 3.6953-2.5995 4.1728 0 1.6458-11.223 12.838-15.564 15.521-2.3928 1.4788-8.0497 4.1385-12.571 5.9103l-8.2202 3.2215-112.16-0.0833c-69.442-0.0515-113.93-0.58416-116.82-1.3986z" fill="#dbdbe2"/>
  <path d="m56 324.43c-21.51-3.5046-39.899-19.344-46.212-39.803-2.2995-7.453-2.4551-14.848-2.4551-116.62v-108.67l3.155-11.033c3.4604-12.101 10.516-24.199 17.613-30.2 2.5108-2.1228 8.465-5.7139 13.232-7.9801l8.6667-4.1205h232l7.3333 3.5005c14.812 7.0702 24.763 18.718 30.51 35.712l3.4229 10.121 0.41187 107.79c0.26753 70.016-0.0696 110.43-0.9619 115.33-4.1468 22.776-22.773 41.129-46.12 45.445-7.3713 1.3627-212.46 1.8525-220.6 0.52688z" fill="#d7d7d9"/>
  <path d="m56 323.1c-23.938-4.1406-42.326-21.919-46.552-45.009-0.9607-5.2488-1.4464-42.271-1.443-110 0.0055525-111.7 0.40078-118.72 7.5073-133.24 4.9624-10.143 14.581-19.418 25.5-24.59l8.9877-4.2575h232l7.5896 3.727c17.279 8.4854 28.974 24.813 31.711 44.273 0.7704 5.4773 1.3237 53.215 1.3392 115.55 0.0248 99.637-0.12626 106.71-2.4399 114.14-5.2108 16.742-18.17 30.572-34.387 36.696l-7.8136 2.9507-109.33 0.17033c-60.133 0.09374-110.83-0.08906-112.67-0.40622z" fill="#ceced0"/>
  <path d="m48.634 320.18c-18.791-5.3826-34.345-22.409-37.98-41.577-1.8033-9.5086-1.7744-219.82 0.031532-229.42 3.1855-16.922 14.479-31.417 30.327-38.924l8.9877-4.2575h232l7.5896 3.727c11.624 5.7081 20.27 14.267 25.881 25.622 4.6252 9.3584 4.897 10.679 5.9484 28.895 1.4346 24.854 1.4391 185.61 5e-3 203.76-1.7264 21.86-10.044 36.843-25.7 46.293-14.14 8.5352-11.744 8.3838-131.01 8.2789-98.161-0.0863-108.79-0.30567-116.09-2.396z" fill="#c7c7ca"/>
  <path d="m52 319.48c-19.22-4.2734-33.416-18.119-39.795-38.813-1.7617-5.7154-2.1225-22.126-2.5286-115.01-0.31681-72.476-0.0066329-110.88 0.9369-116 3.1669-17.185 14.475-31.854 30.353-39.375l9.0337-4.279 113.23-0.36271c101.89-0.32638 113.91-0.14391 120 1.8216 14.993 4.8403 26.217 14.87 33.248 29.71l4.1843 8.8312v229.33l-3.0892 8.5561c-7.1614 19.835-21.428 32.396-40.876 35.991-11.642 2.1521-214.85 1.7891-224.7-0.40139z" fill="#b9b9c7"/>
  <path d="m51.49 318.54c-7.9865-1.9087-20.379-9.0563-25.468-14.69-5.4835-6.0696-11.307-17.129-12.031-22.848-0.28659-2.2645-1.1126-5.6661-1.8356-7.5591-1.7324-4.5359-2.8947-212.66-1.2471-223.32 2.6084-16.875 13.844-31.718 30.047-39.695l8.9883-4.4249h230.86l10.177 5.0298c15.768 7.7929 25.687 20.691 28.978 37.681 1.1099 5.7307 1.419 37.786 1.1055 114.62-0.38193 93.585-0.69473 107.32-2.5506 112-1.1634 2.9333-1.8273 6.1668-1.4752 7.1856 0.42769 1.2378 0.072 1.5012-1.0723 0.79399-1.1165-0.69003-1.3846-0.52798-0.77045 0.46569 1.5184 2.4568-3.6386 12.348-10.255 19.669-3.8724 4.2849-9.4678 8.4564-15.202 11.333l-9.0736 4.5526-112 0.22129c-65.105 0.12867-114.17-0.29669-117.18-1.0158z" fill="#b5b5b8"/>
  <path d="m54.902 317.24c-9.2367-1.8177-19.646-7.2447-25.83-13.467-5.5852-5.6194-14.114-21.025-16.852-30.44-1.7207-5.9169-2.9643-210.61-1.3514-222.44 2.3518-17.25 13.571-32.342 30.088-40.473l8.9883-4.4249h230.86l10.177 5.0298c15.375 7.5985 25.376 20.322 28.852 36.703 1.845 8.6955 2.0633 206 0.24188 218.59-0.66203 4.5772-2.7225 11.64-4.5789 15.695-1.8564 4.0548-3.477 7.8098-3.6015 8.3445-0.57134 2.4546-8.2331 12.352-12.044 15.559-5.9867 5.0375-15.34 9.4979-23.584 11.247-8.4655 1.7962-212.27 1.863-221.37 0.0725z" fill="#9494ec"/>
  <path d="m55.026 317.26c-7.4057-1.4616-16.489-5.5407-22.432-10.073-4.6746-3.5655-13.389-14.838-12.307-15.92 0.29976-0.29976 3.1825 2.1424 6.4061 5.427 5.8025 5.9123 5.9517 5.972 14.917 5.972h9.0557v-30.667h-19.255c-11.398 0-19.591-0.54404-20.079-1.3333-0.53543-0.86634 6.2084-1.3333 19.255-1.3333h20.079v-30.667h-20c-12.444 0-20-0.50371-20-1.3333 0-0.82963 7.5556-1.3333 20-1.3333h20v-30.667h-20c-12.444 0-20-0.50371-20-1.3333 0-0.82962 7.5556-1.3333 20-1.3333h20v-29.333h-20c-12.444 0-20-0.50371-20-1.3333 0-0.82962 7.5556-1.3333 20-1.3333h20v-33.333h-20c-12.444 0-20-0.50371-20-1.3333 0-0.82962 7.5556-1.3333 20-1.3333h20v-18.667h-40v-7.9305l20.333-0.40548 20.333-0.40548-20.152-0.29591-20.152-0.29592-0.8479-6.1861c-1.2797-9.3368-0.96791-38.618 0.52094-48.916 2.6091-18.046 13.541-32.912 30.253-41.139l8.9883-4.4249h230.86l10.177 5.0298c15.375 7.5985 25.376 20.322 28.852 36.703 0.82455 3.8861 1.4992 16.863 1.4992 28.837 0 17.741-0.37081 22.079-2.0032 23.434-3.238 2.6873-17.746 5.227-30.663 5.3677-6.6 0.0719-17.1 0.66708-23.333 1.3226-55.871 5.8757-80.922 6.5698-134.89 3.7376-24.258-1.273-31.34-1.251-35.889 0.11179-3.1168 0.93382-11.267 2.032-18.111 2.4403l-12.444 0.74244v20.942h128.67c84.889 0 128.67 0.45365 128.67 1.3333s-43.778 1.3333-128.67 1.3333h-128.67v33.333h128.67c84.889 0 128.67 0.45365 128.67 1.3333s-43.778 1.3333-128.67 1.3333h-128.67v29.333h128.67c84.889 0 128.67 0.45365 128.67 1.3333s-43.778 1.3333-128.67 1.3333h-128.67v30.667h128.67c84.889 0 128.67 0.45366 128.67 1.3333s-43.778 1.3333-128.67 1.3333h-128.67v30.667h128c84.444 0 128 0.45371 128 1.3333 0 0.87963-43.556 1.3333-128 1.3333h-128v30.667h234.62l6.262-6c3.4441-3.3 6.4834-6 6.7541-6 1.3024 0-8.0626 12.122-11.784 15.254-5.9867 5.0375-15.34 9.4979-23.584 11.247-8.4039 1.7831-212.24 1.8695-221.24 0.0937zm7.6404-9.2612c0-3.7778-0.2963-4-5.3333-4-4.751 0-5.3333 0.35185-5.3333 3.2222 0 3.5372 1.4627 4.5136 7 4.6725 3.2086 0.0921 3.6667-0.39447 3.6667-3.8947zm218.03 2.184c3.6849-0.98137 8.4849-2.7502 10.667-3.9308 3.6729-1.9874-4.6047-2.1504-111.7-2.1999l-115.67-0.05338v8l105-0.0159c83.425-0.012 106.38-0.38245 111.7-1.8001zm-230.03-2.8507c0-3.1282-0.42667-3.3333-6.9333-3.3333-7.7867 0-7.4789 1.4471 0.96555 4.5383 2.9156 1.0673 5.4511 1.9828 5.6345 2.0345 0.18333 0.0517 0.33333-1.4061 0.33333-3.2394zm12-20v-15.333h-10.667v30.667h10.667zm0-33.333v-15.333h-10.667v30.667h10.667zm0-33.333v-15.333h-10.667v30.667h10.667zm0-32.667v-14.667h-10.667v29.333h10.667zm0-34v-16.667h-10.667v33.333h10.667zm0-30c0-11.474-0.26255-11.811-7.6667-9.8263-2.7676 0.7417-3 1.5665-3 10.648v9.8445h10.667zm-1.6511-19.583c-1.2748-0.33373-3.6748-0.34583-5.3333-0.0269-1.6585 0.31892-0.61554 0.59197 2.3178 0.60677s4.2903-0.24614 3.0155-0.57986zm17.288-0.057c-2.7664-0.28864-6.9664-0.2838-9.3333 0.0108-2.367 0.29451-0.10359 0.53066 5.0297 0.52475 5.1333-6e-3 7.07-0.24692 4.3036-0.53555zm84.566-1.3959c-16.612-0.3518-17.677-0.52962-16-2.6706 1.5708-2.0049 1.5373-2.0916-0.26612-0.688-1.1348 0.88314-6.8348 1.8124-12.667 2.065l-10.604 0.4593 11.079 0.26832c6.0933 0.14758 10.799 0.71833 10.458 1.2683s7.5729 0.70178 17.588 0.33729l18.209-0.66272-17.797-0.37689zm49.019 0.18669c1.0217-0.89077-11.17-0.18269-15.222 0.88412-2.4262 0.63867-0.32774 0.76718 5.3333 0.3266 5.1333-0.3995 9.5833-0.94433 9.8889-1.2107zm-120.21-0.06709c-1.2748-0.33373-3.6748-0.34584-5.3333-0.0269-1.6586 0.31892-0.61555 0.59197 2.3178 0.60677 2.9333 0.0148 4.2903-0.24614 3.0155-0.57986zm97.984-0.0249c-1.65-0.3178-4.35-0.3178-6 0-1.65 0.31781-0.3 0.57783 3 0.57783s4.65-0.26002 3-0.57783zm-136.33-2.3923c0-2.9824-38.004-2.9824-39.149 0-0.66113 1.7229 1.9979 2 19.191 2 16.852 0 19.958-0.3113 19.958-2zm171.69 1.0473c-2.0035-0.30423-5.6035-0.31036-8-0.0136-2.3965 0.29675-0.75721 0.54566 3.6428 0.55315 4.4 7e-3 6.3607-0.23531 4.3572-0.53955zm-106.66-1.3498c-2.7306-0.2865-7.5306-0.29046-10.667-9e-3 -3.136 0.28166-0.90191 0.51607 4.9648 0.52092 5.8667 5e-3 8.4325-0.22561 5.7019-0.51212zm125.3-2e-3c-2.75-0.28766-7.25-0.28766-10 0s-0.5 0.52302 5 0.52302 7.75-0.23536 5-0.52302zm-179.98-1.2782c-1.2748-0.33372-3.6748-0.34583-5.3333-0.02691s-0.61555 0.59197 2.3178 0.60677c2.9333 0.0148 4.2903-0.24614 3.0155-0.57986zm17.288-0.05696c-2.7664-0.28863-6.9664-0.28379-9.3333 0.0108-2.367 0.29451-0.1036 0.53066 5.0297 0.52475 5.1333-0.0059 7.07-0.24691 4.3036-0.53554zm120.72 0.09848c-0.90271-0.36523-2.7027-0.38746-4-0.0494-1.2973 0.33806-0.55871 0.63688 1.6413 0.66406 2.2 0.02717 3.2614-0.24942 2.3587-0.61465zm53.975-0.04451c-1.2833-0.33537-3.3833-0.33537-4.6667 0s-0.23333 0.60976 2.3333 0.60976c2.5667 0 3.6167-0.27439 2.3333-0.60976z" fill="#8d8de3"/>
  <path d="m55.026 317.26c-7.4057-1.4616-16.489-5.5407-22.432-10.073-4.6746-3.5655-13.389-14.838-12.307-15.92 0.29976-0.29976 3.1825 2.1424 6.4061 5.427 5.8025 5.9123 5.9517 5.972 14.917 5.972h9.0557v-30.667h-19.255c-11.398 0-19.591-0.54404-20.079-1.3333-0.53543-0.86634 6.2084-1.3333 19.255-1.3333h20.079v-30.667h-20c-12.444 0-20-0.50371-20-1.3333 0-0.82963 7.5556-1.3333 20-1.3333h20v-30.667h-20c-12.444 0-20-0.50371-20-1.3333 0-0.82962 7.5556-1.3333 20-1.3333h20v-29.333h-20c-12.444 0-20-0.50371-20-1.3333 0-0.82962 7.5556-1.3333 20-1.3333h20v-33.333h-20c-12.444 0-20-0.50371-20-1.3333 0-0.82962 7.5556-1.3333 20-1.3333h20v-21.098l-5.6667 0.18302c-3.1167 0.10067-12.117 0.0478-20-0.11745-13.28-0.27841-14.333-0.49393-14.333-2.9324 0-2.4876 1.1153-2.6542 20.333-3.0374l20.333-0.40548-20.497-0.29591c-18.048-0.26057-20.298-0.53488-18.837-2.2959 1.3393-1.6138 5.4905-2 21.497-2 16.744 0 19.837-0.31184 19.837-2 0-1.6856-3.0318-2-19.286-2-18.628 0-19.342 0.10237-20.918 3l-1.6319 3-0.9488-3.3333c-1.4419-5.0655-1.3353-39.467 0.15422-49.769 2.6091-18.046 13.541-32.912 30.253-41.139l8.9883-4.4249h230.86l10.177 5.0298c15.375 7.5985 25.376 20.322 28.852 36.703 0.82455 3.8861 1.4992 16.84 1.4992 28.787v21.721l-5 1.5033c-10.048 3.0209-19.419 4.2569-32.277 4.2569-7.23 0-20.25 0.85673-28.934 1.9038-36.692 4.4243-75.764 5.2556-131.35 2.7947-17.278-0.76488-26.663-0.64991-30.667 0.37567-3.1728 0.81284-11.019 1.8576-17.435 2.3216l-11.667 0.84367v22.427h128.67c84.889 0 128.67 0.45365 128.67 1.3333s-43.778 1.3333-128.67 1.3333h-128.67v33.333h128.67c84.889 0 128.67 0.45365 128.67 1.3333s-43.778 1.3333-128.67 1.3333h-128.67v29.333h128.67c84.889 0 128.67 0.45365 128.67 1.3333s-43.778 1.3333-128.67 1.3333h-128.67v30.667h128.67c84.889 0 128.67 0.45366 128.67 1.3333s-43.778 1.3333-128.67 1.3333h-128.67v30.667h128c84.444 0 128 0.45371 128 1.3333 0 0.87963-43.556 1.3333-128 1.3333h-128v30.667h235.02l6-6c3.3-3.3 6.2499-6 6.5553-6 1.3506 0-7.8997 12.038-11.721 15.254-5.9867 5.0375-15.34 9.4979-23.584 11.247-8.4039 1.7831-212.24 1.8695-221.24 0.0937zm7.6404-9.2612c0-3.7778-0.2963-4-5.3333-4-4.6984 0-5.3333 0.37037-5.3333 3.1111 0 4.1397 0.95356 4.8889 6.2222 4.8889 4.0494 0 4.4444-0.35556 4.4444-4zm225.33-0.2222 7.3333-3.5555-115.67-0.11106-115.67-0.1112v8.0607l108.33-0.3637 108.33-0.36369zm-237.33-0.44447c0-3.1813-0.34974-3.3285-7.6667-3.2282l-7.6667 0.1052 6.6667 3.211c8.309 4.002 8.6667 3.9984 8.6667-0.088zm12-20v-15.333h-10.667v30.667h10.667zm0-33.333v-15.333h-10.667v30.667h10.667zm0-33.333v-15.333h-10.667v30.667h10.667zm0-32.667v-14.667h-10.667v29.333h10.667zm0-34v-16.667h-10.667v33.333h10.667zm0-30.667v-11.333h-10.667v22.667h10.667zm156-20.164c12.833-1.0696 26.933-2.4637 31.333-3.098 7.277-1.0491 6.9758-1.0973-3.3333-0.53348-15.279 0.8356-40.629 2.9513-47.997 4.0058-5.3811 0.77013-5.8159 0.64044-4.2358-1.2635 0.96848-1.167 3.367-2.3674 5.33-2.6678 3.3298-0.50943 3.2895-0.55943-0.60099-0.74581-2.2986-0.11012-4.915 0.6978-5.8299 1.8002-1.3597 1.6384-5.879 2-24.993 2-22.006 0-23.233-0.13273-21.568-2.3333 1.5021-1.985 1.4866-2.0846-0.10347-0.66667-2.012 1.7942-23.301 2.4333-22.207 0.66667 0.89963-1.4517-24.285-0.5323-29.796 1.0877-2.5667 0.75459-10.367 1.9111-17.333 2.57l-12.667 1.198 14.406-0.58629c7.923-0.32247 15.534-1.19 16.912-1.9279 2.8763-1.5394 27.158-1.8557 26.22-0.3416-0.34057 0.55 4.798 0.78753 11.419 0.52786 6.6211-0.25968 11.721 0.0403 11.332 0.66667-0.3883 0.62634 10.09 0.96223 23.284 0.74643 18.555-0.30349 23.763-0.0256 22.99 1.2266-0.71783 1.1615-0.27942 1.3356 1.5515 0.61604 1.4036-0.55161 13.052-1.878 25.885-2.9476zm-157.65 1.248c-1.2748-0.33373-3.6748-0.34583-5.3333-0.0269-1.6585 0.31892-0.61554 0.59197 2.3178 0.60677s4.2903-0.24614 3.0155-0.57986zm2.6667-5.3333c-1.2748-0.33372-3.6748-0.34583-5.3333-0.02691s-0.61555 0.59197 2.3178 0.60677c2.9333 0.0148 4.2903-0.24614 3.0155-0.57986zm18.651-0.05518c-2.75-0.28766-7.25-0.28766-10 0-2.75 0.28766-0.5 0.52302 5 0.52302s7.75-0.23536 5-0.52302z" fill="#a6a6ab"/>
  <path d="m52 314.22c-7.2058-1.9711-17.593-7.5664-18.346-9.8832-0.39686-1.2195 1.8128-1.6667 8.2354-1.6667h8.7778v-30.667h-19.255c-11.398 0-19.591-0.54404-20.079-1.3333-0.53543-0.86634 6.2084-1.3333 19.255-1.3333h20.079v-30.667h-20c-12.444 0-20-0.50371-20-1.3333 0-0.82963 7.5556-1.3333 20-1.3333h20v-30.667h-20c-12.444 0-20-0.50371-20-1.3333 0-0.82962 7.5556-1.3333 20-1.3333h20v-29.333h-20c-12.444 0-20-0.50371-20-1.3333 0-0.82962 7.5556-1.3333 20-1.3333h20v-33.333h-20c-12.444 0-20-0.50371-20-1.3333 0-0.82962 7.5556-1.3333 20-1.3333h20v-21.098l-5.6667 0.18302c-3.1167 0.10067-12.117 0.0478-20-0.11745-13.28-0.27841-14.333-0.49393-14.333-2.9324 0-2.4876 1.1153-2.6542 20.333-3.0374l20.333-0.40548-20.497-0.29591c-18.048-0.26057-20.298-0.53488-18.837-2.2959 1.3393-1.6138 5.4905-2 21.497-2 16.744 0 19.837-0.31184 19.837-2 0-1.6856-3.0318-2-19.286-2-18.628 0-19.342 0.10237-20.918 3l-1.6319 3-0.9488-3.3333c-1.4062-4.9401-1.3222-37.871 0.12489-49.012 2.4037-18.506 13.248-33.51 30.283-41.896l8.9883-4.4249h230.86l10.177 5.0298c15.375 7.5985 25.376 20.322 28.852 36.703 0.82455 3.8861 1.4992 16.84 1.4992 28.787v21.721l-5 1.5033c-10.048 3.0209-19.419 4.2569-32.277 4.2569-7.23 0-20.25 0.85673-28.934 1.9038-36.692 4.4243-75.764 5.2556-131.35 2.7947-17.278-0.76488-26.663-0.64991-30.667 0.37567-3.1728 0.81284-11.019 1.8576-17.435 2.3216l-11.667 0.84367v22.427h128.67c84.889 0 128.67 0.45365 128.67 1.3333s-43.778 1.3333-128.67 1.3333h-128.67v33.333h128.67c84.889 0 128.67 0.45365 128.67 1.3333s-43.778 1.3333-128.67 1.3333h-128.67v29.333h128.67c84.889 0 128.67 0.45365 128.67 1.3333s-43.778 1.3333-128.67 1.3333h-128.67v30.667h128.67c84.889 0 128.67 0.45366 128.67 1.3333s-43.778 1.3333-128.67 1.3333h-128.67v30.667h128c84.444 0 128 0.45371 128 1.3333 0 0.87963-43.556 1.3333-128 1.3333h-128v30.709l118.43-0.35449 118.43-0.35448-5.1243 4.0547c-2.8184 2.2301-7.9634 5.2301-11.433 6.6667-6.0724 2.514-10.437 2.6218-116.31 2.8742-83.646 0.1994-111.44-0.13093-116-1.379zm10.667-6.2165c0-3.7778-0.2963-4-5.3333-4-4.6984 0-5.3333 0.37037-5.3333 3.1111 0 4.1397 0.95356 4.8889 6.2222 4.8889 4.0494 0 4.4444-0.35556 4.4444-4zm221.33 1.2162c4.0333-1.4832 8.0833-2.7636 9-2.8454 0.91667-0.0817 1.6667-0.64862 1.6667-1.2597 0-0.6111-51.9-1.1111-115.33-1.1111h-115.33v8l106.33-0.0435c103.37-0.04224 106.54-0.11877 113.67-2.7402zm-233.33-1.8829c0-3.1813-0.34974-3.3285-7.6667-3.2282l-7.6667 0.1052 6.6667 3.211c8.309 4.002 8.6667 3.9984 8.6667-0.088zm12-20v-15.333h-10.667v30.667h10.667zm0-33.333v-15.333h-10.667v30.667h10.667zm0-33.333v-15.333h-10.667v30.667h10.667zm0-32.667v-14.667h-10.667v29.333h10.667zm0-34v-16.667h-10.667v33.333h10.667zm0-30.667v-11.333h-10.667v22.667h10.667zm156-20.164c12.833-1.0696 26.933-2.4637 31.333-3.098 7.277-1.0491 6.9758-1.0973-3.3333-0.53348-15.279 0.8356-40.629 2.9513-47.997 4.0058-5.3811 0.77013-5.8159 0.64044-4.2358-1.2635 0.96848-1.167 3.367-2.3674 5.33-2.6678 3.3298-0.50943 3.2895-0.55943-0.60099-0.74581-2.2986-0.11012-4.915 0.6978-5.8299 1.8002-1.3597 1.6384-5.879 2-24.993 2-22.006 0-23.233-0.13273-21.568-2.3333 1.5021-1.985 1.4866-2.0846-0.10347-0.66667-2.012 1.7942-23.301 2.4333-22.207 0.66667 0.89963-1.4517-24.285-0.5323-29.796 1.0877-2.5667 0.75459-10.367 1.9111-17.333 2.57l-12.667 1.198 14.406-0.58629c7.923-0.32247 15.534-1.19 16.912-1.9279 2.8763-1.5394 27.158-1.8557 26.22-0.3416-0.34057 0.55 4.798 0.78753 11.419 0.52786 6.6211-0.25968 11.721 0.0403 11.332 0.66667-0.3883 0.62634 10.09 0.96223 23.284 0.74643 18.555-0.30349 23.763-0.0256 22.99 1.2266-0.71783 1.1615-0.27942 1.3356 1.5515 0.61604 1.4036-0.55161 13.052-1.878 25.885-2.9476zm-157.65 1.248c-1.2748-0.33373-3.6748-0.34583-5.3333-0.0269-1.6585 0.31892-0.61554 0.59197 2.3178 0.60677s4.2903-0.24614 3.0155-0.57986zm2.6667-5.3333c-1.2748-0.33372-3.6748-0.34583-5.3333-0.02691s-0.61555 0.59197 2.3178 0.60677c2.9333 0.0148 4.2903-0.24614 3.0155-0.57986zm18.651-0.05518c-2.75-0.28766-7.25-0.28766-10 0-2.75 0.28766-0.5 0.52302 5 0.52302s7.75-0.23536 5-0.52302zm-56.396 197.97-5.2706-5.6667 5.6667 5.2706c5.2699 4.9016 6.2794 6.0627 5.2706 6.0627-0.21784 0-2.7678-2.55-5.6667-5.6667z" fill="#9696c5"/>
  <path d="m52 314.22c-7.2058-1.9711-17.593-7.5664-18.346-9.8832-0.39686-1.2195 1.8128-1.6667 8.2354-1.6667h8.7778v-30.667h-19.333c-12 0-19.333-0.50575-19.333-1.3333 0-0.82758 7.3333-1.3333 19.333-1.3333h19.333v-30.667h-20c-12.444 0-20-0.50371-20-1.3333 0-0.82963 7.5556-1.3333 20-1.3333h20v-30.667h-20c-12.444 0-20-0.50371-20-1.3333 0-0.82962 7.5556-1.3333 20-1.3333h20v-29.333h-20c-12.444 0-20-0.50371-20-1.3333 0-0.82962 7.5556-1.3333 20-1.3333h20v-33.333h-20c-12.444 0-20-0.50371-20-1.3333 0-0.82962 7.5556-1.3333 20-1.3333h20v-21.098l-5.6667 0.18302c-3.1167 0.10067-12.117 0.0478-20-0.11745-13.28-0.27841-14.333-0.49393-14.333-2.9324 0-2.4876 1.1153-2.6542 20.333-3.0374l20.333-0.40548-20.497-0.29591c-18.048-0.26057-20.298-0.53488-18.837-2.2959 1.3393-1.6138 5.4905-2 21.497-2 16.744 0 19.837-0.31184 19.837-2 0-1.6856-3.0318-2-19.286-2-18.628 0-19.342 0.10237-20.918 3l-1.6319 3-0.9488-3.3333c-1.3504-4.7441-1.342-37.67 0.012272-48.166 2.4961-19.345 15.803-37.093 33.017-44.039l7.756-3.1292h229.33l8.6667 4.1677c10.959 5.2699 18.171 11.588 23.61 20.681 6.7804 11.337 8.3898 20.011 8.3898 45.218v22.173l-5 1.5033c-10.048 3.0209-19.419 4.2569-32.277 4.2569-7.23 0-20.25 0.85673-28.934 1.9038-36.692 4.4243-75.764 5.2556-131.35 2.7947-17.278-0.76488-26.663-0.64991-30.667 0.37567-3.1728 0.81284-11.019 1.8576-17.435 2.3216l-11.667 0.84367v22.427h128.67c84.889 0 128.67 0.45365 128.67 1.3333s-43.778 1.3333-128.67 1.3333h-128.67v33.333h128.67c84.889 0 128.67 0.45365 128.67 1.3333s-43.778 1.3333-128.67 1.3333h-128.67v29.333h128.67c84.889 0 128.67 0.45365 128.67 1.3333s-43.778 1.3333-128.67 1.3333h-128.67v30.667h128.67c84.889 0 128.67 0.45366 128.67 1.3333s-43.778 1.3333-128.67 1.3333h-128.67v30.667h128c84.444 0 128 0.45371 128 1.3333 0 0.87963-43.556 1.3333-128 1.3333h-128v30.667l117.67 0.0541 117.67 0.0541-4.2227 3.6172c-2.3225 1.9895-7.1225 4.8151-10.667 6.2792-6.2434 2.5791-9.8687 2.6701-116.44 2.9242-83.646 0.1994-111.44-0.13093-116-1.379zm223.5-2.2295c7.4358-1.2069 20.496-5.9113 20.496-7.3828 0-0.33236-52.2-0.60428-116-0.60428h-116l-0.21338 4.3333-0.21338 4.3333-0.53776-4.3333c-0.50434-4.064-0.86403-4.3333-5.7866-4.3333-4.9192 0-5.2489 0.24614-5.2489 3.9195 0 3.5474 0.47476 3.9692 5 4.4425 11.633 1.2169 210.8 0.87508 218.5-0.37498zm-224.84-4.6537c0-3.2112-0.30529-3.3295-8.3333-3.2282l-8.3333 0.1052 6.6667 3.211c8.4303 4.0605 10 4.0466 10-0.088zm12-20v-15.333h-10.667v30.667h10.667zm0-33.333v-15.333h-10.667v30.667h10.667zm0-33.333v-15.333h-10.667v30.667h10.667zm0-32.667v-14.667h-10.667v29.333h10.667zm0-34v-16.667h-10.667v33.333h10.667zm0-30.667v-11.333h-10.667v22.667h10.667zm156-20.164c12.833-1.0696 26.933-2.4637 31.333-3.098 7.277-1.0491 6.9758-1.0973-3.3333-0.53348-15.279 0.8356-40.629 2.9513-47.997 4.0058-5.3811 0.77013-5.8159 0.64044-4.2358-1.2635 0.96848-1.167 3.367-2.3674 5.33-2.6678 3.3298-0.50943 3.2895-0.55943-0.60099-0.74581-2.2986-0.11012-4.915 0.6978-5.8299 1.8002-1.3597 1.6384-5.879 2-24.993 2-22.006 0-23.233-0.13273-21.568-2.3333 1.5021-1.985 1.4866-2.0846-0.10347-0.66667-2.012 1.7942-23.301 2.4333-22.207 0.66667 0.89963-1.4517-24.285-0.5323-29.796 1.0877-2.5667 0.75459-10.367 1.9111-17.333 2.57l-12.667 1.198 14.406-0.58629c7.923-0.32247 15.534-1.19 16.912-1.9279 2.8763-1.5394 27.158-1.8557 26.22-0.3416-0.34057 0.55 4.798 0.78753 11.419 0.52786 6.6211-0.25968 11.721 0.0403 11.332 0.66667-0.3883 0.62634 10.09 0.96223 23.284 0.74643 18.555-0.30349 23.763-0.0256 22.99 1.2266-0.71783 1.1615-0.27942 1.3356 1.5515 0.61604 1.4036-0.55161 13.052-1.878 25.885-2.9476zm-157.65 1.248c-1.2748-0.33373-3.6748-0.34583-5.3333-0.0269-1.6585 0.31892-0.61554 0.59197 2.3178 0.60677s4.2903-0.24614 3.0155-0.57986zm2.6667-5.3333c-1.2748-0.33372-3.6748-0.34583-5.3333-0.02691s-0.61555 0.59197 2.3178 0.60677c2.9333 0.0148 4.2903-0.24614 3.0155-0.57986zm18.651-0.05518c-2.75-0.28766-7.25-0.28766-10 0-2.75 0.28766-0.5 0.52302 5 0.52302s7.75-0.23536 5-0.52302z" fill="#8686d8"/>
  <path d="m52 314.22c-7.2058-1.9711-17.593-7.5664-18.346-9.8832-0.39686-1.2195 1.8128-1.6667 8.2354-1.6667h8.7778v-30.667h-19.333c-12 0-19.333-0.50575-19.333-1.3333 0-0.82758 7.3333-1.3333 19.333-1.3333h19.333v-30.667h-20c-12.444 0-20-0.50371-20-1.3333 0-0.82963 7.5556-1.3333 20-1.3333h20v-30.667h-20c-12.444 0-20-0.50371-20-1.3333 0-0.82962 7.5556-1.3333 20-1.3333h20v-29.333h-20c-12.444 0-20-0.50371-20-1.3333 0-0.82962 7.5556-1.3333 20-1.3333h20v-33.333h-20c-12.444 0-20-0.50371-20-1.3333 0-0.82962 7.5556-1.3333 20-1.3333h20v-22.432l-5.6667 0.18303c-14.681 0.47416-34.333-0.52828-34.333-1.7513 0-0.81973 6.6015-1.3333 17.138-1.3333 9.4258 0 20.824-0.38533 25.33-0.85629 7.4043-0.77391 8.3852-1.2426 10.196-4.8715 1.1017-2.2084 2.0031-4.223 2.0031-4.477 0-1.3348-9.2284-0.21043-9.8889 1.2049-0.62222 1.3333-0.93333 1.3333-1.5556 0-0.57087-1.2233-6.0307-1.6667-20.524-1.6667-17.554 0-19.852 0.25902-20.699 2.3333-1.973 4.8335-3.1451-2.8692-3.1955-21-0.064486-23.174 1.3559-33.718 5.9082-43.862 4.7718-10.633 17.262-22.596 28.198-27.008l7.756-3.1292h229.33l8.6667 4.1677c10.959 5.2699 18.171 11.588 23.61 20.681 6.7791 11.335 8.3898 20.012 8.3898 45.199v22.154l-13 2.2534c-7.15 1.2394-19.3 2.2944-27 2.3446-7.7 0.0502-17.6 0.60546-22 1.234-33.617 4.8019-97.98 6.0839-142.67 2.8416-10.477-0.76015-16.762-0.58352-22 0.6183-4.0333 0.92536-12.583 2.0716-19 2.5471l-11.667 0.86464v23.761h128.67c84.889 0 128.67 0.45365 128.67 1.3333s-43.778 1.3333-128.67 1.3333h-128.67v33.333h128.67c84.889 0 128.67 0.45365 128.67 1.3333s-43.778 1.3333-128.67 1.3333h-128.67v29.333h128.67c84.889 0 128.67 0.45365 128.67 1.3333s-43.778 1.3333-128.67 1.3333h-128.67v30.667h128.67c84.889 0 128.67 0.45366 128.67 1.3333s-43.778 1.3333-128.67 1.3333h-128.67v30.667h128c84.444 0 128 0.45371 128 1.3333 0 0.87963-43.556 1.3333-128 1.3333h-128v30.667l117.67 0.0541 117.67 0.0541-4.2227 3.6172c-2.3225 1.9895-7.1225 4.8151-10.667 6.2792-6.2434 2.5791-9.8687 2.6701-116.44 2.9242-83.646 0.1994-111.44-0.13093-116-1.379zm223.5-2.2295c7.4358-1.2069 20.496-5.9113 20.496-7.3828 0-0.33236-52.2-0.60428-116-0.60428h-116l-0.21338 4.3333-0.21338 4.3333-0.53776-4.3333c-0.50434-4.064-0.86403-4.3333-5.7866-4.3333-4.9192 0-5.2489 0.24614-5.2489 3.9195 0 3.5474 0.47476 3.9692 5 4.4425 11.633 1.2169 210.8 0.87508 218.5-0.37498zm-224.84-4.6537c0-3.2112-0.30529-3.3295-8.3333-3.2282l-8.3333 0.1052 6.6667 3.211c8.4303 4.0605 10 4.0466 10-0.088zm12-20v-15.333h-10.667v30.667h10.667zm0-33.333v-15.333h-10.667v30.667h10.667zm0-33.333v-15.333h-10.667v30.667h10.667zm0-32.667v-14.667h-10.667v29.333h10.667zm0-34v-16.667h-10.667v33.333h10.667zm0-31.333v-12h-10.667v24h10.667zm30.651-18.318c5.1432-1.7217 9.7338-1.7961 32.667-0.5295 35.134 1.9405 73.102 2.3472 88.016 0.94285 6.6-0.6215 13.8-1.0258 16-0.89851s10.3-0.68903 18-1.8141c7.7-1.1251 16.1-2.2542 18.667-2.5091 2.5667-0.25495-7.9125-0.52204-23.287-0.59354-19.845-0.09229-28.525 0.33171-29.923 1.4617-1.5463 1.2501-1.7527 1.2319-0.9615-0.0848 0.8042-1.3384-13.572-1.6677-71.288-1.6333-66.859 0.03995-72.427 0.21616-74.042 2.3431-3.7384 4.9221-2.3696 5.7473 9.1684 5.5278 6.05-0.11513 13.693-1.1108 16.984-2.2126zm186.36-5.2647c-1.2748-0.33372-3.6748-0.34583-5.3333-0.02691-1.6586 0.31892-0.61555 0.59197 2.3178 0.60677 2.9333 0.0148 4.2903-0.24614 3.0155-0.57986zm-229.02 7.0794c0-0.27687 0.91373-1.2617 2.0305-2.1886 1.6978-1.409 1.8929-1.3266 1.1907 0.50341-0.7172 1.869-3.2212 3.179-3.2212 1.6852z" fill="#9999a5"/>
  <path d="m111.67 313.67c29.517-0.2002 77.817-0.2002 107.33 0 29.517 0.20021 5.3667 0.36401-53.667 0.36401-59.033 0-83.183-0.1638-53.667-0.36401zm-58.667-1.2168c0.91667-0.36988 2.4167-0.36988 3.3333 0 0.91667 0.36988 0.16667 0.67252-1.6667 0.67252-1.8333 0-2.5833-0.30264-1.6667-0.67252zm222.75-0.0277c0.96249-0.38516 2.1125-0.3378 2.5556 0.1052 0.44305 0.44305-0.34445 0.75818-1.75 0.70029-1.5533-0.064-1.8692-0.37992-0.80556-0.80555zm-212.87-4.0893c-0.20279-4.1183-0.47364-4.3333-5.4582-4.3333-4.698 0-5.3027 0.38224-5.8002 3.6667l-0.55545 3.6667-0.19978-3.6058c-0.19353-3.4931-0.481-3.6203-9.1998-4.0722l-9-0.46644 9-0.26115 9-0.26115v-30.667h-19.333c-12 0-19.333-0.50575-19.333-1.3333 0-0.82758 7.3333-1.3333 19.333-1.3333h19.333v-30.667h-20c-12.444 0-20-0.50371-20-1.3333 0-0.82963 7.5556-1.3333 20-1.3333h20v-30.667h-20c-12.444 0-20-0.50371-20-1.3333 0-0.82962 7.5556-1.3333 20-1.3333h20v-29.333h-20c-12.444 0-20-0.50371-20-1.3333 0-0.82962 7.5556-1.3333 20-1.3333h20v-33.333h-20c-12.444 0-20-0.50371-20-1.3333 0-0.82962 7.5556-1.3333 20-1.3333h20v-22.432l-5.6667 0.18303c-14.681 0.47416-34.333-0.52828-34.333-1.7513 0-0.81973 6.6015-1.3333 17.138-1.3333 9.4258 0 20.824-0.38533 25.33-0.85629 7.4043-0.77391 8.3852-1.2426 10.196-4.8715 1.1017-2.2084 2.0031-4.223 2.0031-4.477 0-1.3348-9.2284-0.21043-9.8889 1.2049-0.62222 1.3333-0.93333 1.3333-1.5556 0-0.56998-1.2214-5.9632-1.6667-20.186-1.6667-16.903 0-19.643 0.30117-21.225 2.3333-1.5461 1.9859-1.7665-2.0392-1.4803-27.035l0.33618-29.369 4.3569-8.843c5.52-11.204 17.137-22.284 27.93-26.64l7.7128-3.113h229.33l8.9877 4.2575c15.848 7.5072 27.142 22.003 30.327 38.924 0.7436 3.9501 1.352 16.596 1.352 28.101v20.919l-13 2.2534c-7.15 1.2394-19.3 2.2944-27 2.3446-7.7 0.0502-17.6 0.60546-22 1.234-33.617 4.8019-97.98 6.0839-142.67 2.8416-10.477-0.76015-16.762-0.58352-22 0.6183-4.0333 0.92536-12.583 2.0716-19 2.5471l-11.667 0.86464v23.761h128.67c84.889 0 128.67 0.45365 128.67 1.3333s-43.778 1.3333-128.67 1.3333h-128.67v33.333h128.67c84.889 0 128.67 0.45365 128.67 1.3333s-43.778 1.3333-128.67 1.3333h-128.67v29.333h128.67c84.889 0 128.67 0.45365 128.67 1.3333s-43.778 1.3333-128.67 1.3333h-128.67v30.667h128.67c84.889 0 128.67 0.45366 128.67 1.3333s-43.778 1.3333-128.67 1.3333h-128.67v30.667h128c84.444 0 128 0.45371 128 1.3333 0 0.87963-43.556 1.3333-128 1.3333h-128v30.652l117 0.34799 117 0.348-116.92 0.32595-116.92 0.32596-0.53776 4.3333-0.53776 4.3333zm-0.21338-21v-15.333h-10.667v30.667h10.667zm0-33.333v-15.333h-10.667v30.667h10.667zm0-33.333v-15.333h-10.667v30.667h10.667zm0-32.667v-14.667h-10.667v29.333h10.667zm0-34v-16.667h-10.667v33.333h10.667zm0-31.333v-12h-10.667v24h10.667zm30.651-18.318c5.1432-1.7217 9.7338-1.7961 32.667-0.5295 35.134 1.9405 73.102 2.3472 88.016 0.94285 6.6-0.6215 13.8-1.0258 16-0.89851s10.3-0.68903 18-1.8141c7.7-1.1251 16.1-2.2542 18.667-2.5091 2.5667-0.25495-7.9125-0.52204-23.287-0.59354-19.845-0.09229-28.525 0.33171-29.923 1.4617-1.5463 1.2501-1.7527 1.2319-0.9615-0.0848 0.8042-1.3384-13.572-1.6677-71.288-1.6333-66.859 0.03995-72.427 0.21616-74.042 2.3431-3.7384 4.9221-2.3696 5.7473 9.1684 5.5278 6.05-0.11513 13.693-1.1108 16.984-2.2126zm186.36-5.2647c-1.2748-0.33372-3.6748-0.34583-5.3333-0.02691-1.6586 0.31892-0.61555 0.59197 2.3178 0.60677 2.9333 0.0148 4.2903-0.24614 3.0155-0.57986zm-229.02 7.0794c0-0.27687 0.91373-1.2617 2.0305-2.1886 1.6978-1.409 1.8929-1.3266 1.1907 0.50341-0.7172 1.869-3.2212 3.179-3.2212 1.6852z" fill="#97979d"/>
  <path d="m62.88 308.33c-0.20279-4.1183-0.47364-4.3333-5.4582-4.3333-4.698 0-5.3027 0.38224-5.8002 3.6667l-0.55545 3.6667-0.19978-3.6058c-0.19353-3.4931-0.481-3.6203-9.1998-4.0722l-9-0.46644 9-0.26115 9-0.26115v-30.667h-19.333c-12 0-19.333-0.50575-19.333-1.3333 0-0.82758 7.3333-1.3333 19.333-1.3333h19.333v-30.667h-20c-12.444 0-20-0.50371-20-1.3333 0-0.82963 7.5556-1.3333 20-1.3333h20v-30.667h-20c-12.444 0-20-0.50371-20-1.3333 0-0.82962 7.5556-1.3333 20-1.3333h20v-29.333h-20c-12.444 0-20-0.50371-20-1.3333 0-0.82962 7.5556-1.3333 20-1.3333h20v-33.333h-20c-12.444 0-20-0.50371-20-1.3333 0-0.82962 7.5556-1.3333 20-1.3333h20v-22.432l-5.6667 0.18303c-14.681 0.47416-34.333-0.52828-34.333-1.7513 0-0.81973 6.6015-1.3333 17.138-1.3333 9.4258 0 20.824-0.38533 25.33-0.85629 7.4043-0.77391 8.3852-1.2426 10.196-4.8715 1.1017-2.2084 2.0031-4.223 2.0031-4.477 0-1.3348-9.2284-0.21043-9.8889 1.2049-0.62222 1.3333-0.93333 1.3333-1.5556 0-0.56998-1.2214-5.9632-1.6667-20.186-1.6667-16.898 0-19.645 0.30177-21.238 2.3333-1.5633 1.9935-1.7789-1.9434-1.4803-27.035l0.34941-29.368 4.3569-8.8433c5.5199-11.204 17.136-22.284 27.93-26.64l7.7128-3.113h229.33l8.9877 4.2575c15.848 7.5072 27.142 22.003 30.327 38.924 0.7436 3.9501 1.352 16.596 1.352 28.101v20.919l-13 2.2534c-7.15 1.2394-19.3 2.2944-27 2.3446-7.7 0.0502-17.6 0.60546-22 1.234-33.617 4.8019-97.98 6.0839-142.67 2.8416-10.477-0.76015-16.762-0.58352-22 0.6183-4.0333 0.92536-12.583 2.0716-19 2.5471l-11.667 0.86464v23.761h128.67c84.889 0 128.67 0.45365 128.67 1.3333s-43.778 1.3333-128.67 1.3333h-128.67v33.333h128.67c84.889 0 128.67 0.45365 128.67 1.3333s-43.778 1.3333-128.67 1.3333h-128.67v29.333h128.67c84.889 0 128.67 0.45365 128.67 1.3333s-43.778 1.3333-128.67 1.3333h-128.67v30.667h128.67c84.889 0 128.67 0.45366 128.67 1.3333s-43.778 1.3333-128.67 1.3333h-128.67v30.667h128c84.444 0 128 0.45371 128 1.3333 0 0.87963-43.556 1.3333-128 1.3333h-128v30.652l117 0.34799 117 0.348-116.92 0.32595-116.92 0.32596-0.53776 4.3333-0.53776 4.3333zm-0.21338-21v-15.333h-10.667v30.667h10.667zm0-33.333v-15.333h-10.667v30.667h10.667zm0-33.333v-15.333h-10.667v30.667h10.667zm0-32.667v-14.667h-10.667v29.333h10.667zm0-34v-16.667h-10.667v33.333h10.667zm0-31.333v-12h-10.667v24h10.667zm30.651-18.318c5.1432-1.7217 9.7338-1.7961 32.667-0.5295 35.134 1.9405 73.102 2.3472 88.016 0.94285 6.6-0.6215 13.8-1.0258 16-0.89851s10.3-0.68903 18-1.8141c7.7-1.1251 16.1-2.2542 18.667-2.5091 2.5667-0.25495-7.9125-0.52204-23.287-0.59354-19.845-0.09229-28.525 0.33171-29.923 1.4617-1.5463 1.2501-1.7527 1.2319-0.9615-0.0848 0.8042-1.3384-13.572-1.6677-71.288-1.6333-66.859 0.03995-72.427 0.21616-74.042 2.3431-3.7384 4.9221-2.3696 5.7473 9.1684 5.5278 6.05-0.11513 13.693-1.1108 16.984-2.2126zm186.36-5.2647c-1.2748-0.33372-3.6748-0.34583-5.3333-0.02691-1.6586 0.31892-0.61555 0.59197 2.3178 0.60677 2.9333 0.0148 4.2903-0.24614 3.0155-0.57986zm-229.02 7.0794c0-0.27687 0.91373-1.2617 2.0305-2.1886 1.6978-1.409 1.8929-1.3266 1.1907 0.50341-0.7172 1.869-3.2212 3.179-3.2212 1.6852z" fill="#7b7bc6"/>
  <path d="m62.88 308.33c-0.20279-4.1183-0.47364-4.3333-5.4582-4.3333-4.698 0-5.3027 0.38224-5.8002 3.6667l-0.55545 3.6667-0.19978-3.6058c-0.19353-3.4931-0.481-3.6203-9.1998-4.0722l-9-0.46644 9-0.26115 9-0.26115v-30.667h-19.333c-12 0-19.333-0.50575-19.333-1.3333 0-0.82758 7.3333-1.3333 19.333-1.3333h19.333v-30.667h-20c-12.444 0-20-0.50371-20-1.3333 0-0.82963 7.5556-1.3333 20-1.3333h20v-30.667h-20c-12.444 0-20-0.50371-20-1.3333 0-0.82962 7.5556-1.3333 20-1.3333h20v-29.333h-20c-12.444 0-20-0.50371-20-1.3333 0-0.82962 7.5556-1.3333 20-1.3333h20v-33.333h-20c-12.444 0-20-0.50371-20-1.3333 0-0.82962 7.5556-1.3333 20-1.3333h20l0.001866-11.667 0.0019-11.667-17.002 0.42377c-9.3886 0.23402-18.494-0.17592-20.335-0.91548-2.4973-1.0034 1.0485-1.3605 14.138-1.4238 9.6091-0.0465 21.158-0.46984 25.664-0.9408 7.4043-0.77391 8.3852-1.2426 10.196-4.8715 1.1017-2.2084 2.0031-4.223 2.0031-4.477 0-1.3348-9.2284-0.21043-9.8889 1.2049-0.62222 1.3333-0.93333 1.3333-1.5556 0-0.57466-1.2314-6.3456-1.6667-22.098-1.6667h-21.321l0.43161-27.035 0.43161-27.035 4.3569-8.8431c5.52-11.204 17.137-22.284 27.93-26.64l7.7128-3.113h229.33l8.9877 4.2575c15.848 7.5072 27.142 22.003 30.327 38.924 0.7436 3.9501 1.352 16.642 1.352 28.205v21.023l-7 0.71742c-3.85 0.39458-18.597 1.3459-32.77 2.1141-14.174 0.76818-26.265 1.7023-26.869 2.0758-0.60438 0.37353-12.408 1.6189-26.23 2.7676-29.665 2.4652-58.147 2.5693-98.67 0.36059-22.358-1.2186-30.786-1.2371-34.667-0.0759-2.8202 0.84384-10.978 1.9446-18.128 2.4461l-13 0.9119v24.94h128c84.444 0 128 0.45371 128 1.3333 0 0.87963-43.556 1.3333-128 1.3333h-128v33.333h128c84.444 0 128 0.45371 128 1.3333 0 0.87963-43.556 1.3333-128 1.3333h-128v29.333h128c84.444 0 128 0.45371 128 1.3333 0 0.87963-43.556 1.3333-128 1.3333h-128v30.667h128c84.444 0 128 0.45371 128 1.3333 0 0.87962-43.556 1.3333-128 1.3333h-128v30.667h128.08c85.046 0 127.8 0.44797 127.25 1.3333-0.54005 0.87382-44.68 1.3333-128.08 1.3333h-127.25v30.652l117 0.34799 117 0.348-116.92 0.32595-116.92 0.32596-0.53776 4.3333-0.53776 4.3333zm-0.21338-21v-15.333h-10.667v30.667h10.667zm0-33.333v-15.333h-10.667v30.667h10.667zm0-33.333v-15.333h-10.667v30.667h10.667zm0-32.667v-14.667h-10.667v29.333h10.667zm0-34v-16.667h-10.667v33.333h10.667zm0-32.08v-12.747l-5 0.41382-5 0.41382-0.38337 12.333-0.38337 12.333h10.767zm31.132-17.537c3.2382-1.6376 7.4374-1.6917 28.455-0.36663 50.463 3.1816 91.012 2.5246 129.75-2.1024 9.1667-1.095 21.167-2.1543 26.667-2.354 5.5-0.1997-39.549-0.48232-100.11-0.62803l-110.11-0.26493-1.8291 3.6667c-1.006 2.0167-2.0133 4.0689-2.2384 4.5606-0.76578 1.6723 25.593-0.57797 29.416-2.5113zm-42.466 0.95073c0.45323-0.73334 1.0886-1.3333 1.412-1.3333s0.58798 0.6 0.58798 1.3333c0 0.73333-0.63541 1.3333-1.412 1.3333s-1.0412-0.6-0.58798-1.3333z" fill="#7373b8"/>
  <path d="m62.88 308.33c-0.20279-4.1183-0.47364-4.3333-5.4582-4.3333-4.698 0-5.3027 0.38224-5.8002 3.6667l-0.55545 3.6667-0.19978-3.603c-0.19156-3.4548-0.54266-3.6225-8.5331-4.0764l-8.3333-0.47338 8.3333-0.25691 8.3333-0.25691v-30.667h-19.333c-12 0-19.333-0.50575-19.333-1.3333 0-0.82758 7.3333-1.3333 19.333-1.3333h19.333v-30.667h-20c-12.444 0-20-0.50371-20-1.3333 0-0.82963 7.5556-1.3333 20-1.3333h20v-30.667h-20c-12.444 0-20-0.50371-20-1.3333 0-0.82962 7.5556-1.3333 20-1.3333h20v-29.333h-20c-12.444 0-20-0.50371-20-1.3333 0-0.82962 7.5556-1.3333 20-1.3333h20v-33.333h-20c-12.444 0-20-0.50371-20-1.3333 0-0.82962 7.5556-1.3333 20-1.3333h20v-26.667h5.2357c4.5418 0 5.5137-0.55728 7.3333-4.2048 1.1537-2.3127 2.0977-4.4127 2.0977-4.6667 0-1.3348-9.2284-0.21043-9.8889 1.2049-0.62222 1.3333-0.93333 1.3333-1.5556 0-0.57466-1.2314-6.3456-1.6667-22.098-1.6667h-21.321l0.43161-27c0.41645-26.052 0.55712-27.268 4.005-34.624 4.1684-8.8935 13.704-19.587 21.568-24.187 13.134-7.6822 10.399-7.5226 128.96-7.5226 104.86 0 109.27 0.099271 117.51 2.643 11.016 3.4024 22.004 11.32 28.133 20.272 8.3976 12.265 9.2771 16.224 9.9419 44.751l0.59816 25.667-9.1414 0.02108c-5.0278 0.0116-62.012 0.0023-126.63-0.02071l-117.49-0.041784-2.0196 4.1699c-1.3481 2.7835-2.0931 8.7751-2.2408 18.021l-0.22125 13.851h128.06c84.487 0 128.06 0.45369 128.06 1.3333 0 0.87963-43.556 1.3333-128 1.3333h-128v33.333h128c84.444 0 128 0.45371 128 1.3333 0 0.87963-43.556 1.3333-128 1.3333h-128v29.333h128c84.444 0 128 0.45371 128 1.3333 0 0.87963-43.556 1.3333-128 1.3333h-128v30.667h128c84.444 0 128 0.45371 128 1.3333 0 0.87962-43.556 1.3333-128 1.3333h-128v30.667h127.33c84 0 127.33 0.45375 127.33 1.3333 0 0.87959-43.333 1.3333-127.33 1.3333h-127.33v30.652l117 0.34799 117 0.348-116.92 0.32595-116.92 0.32596-0.53776 4.3333-0.53776 4.3333zm-0.21338-21v-15.333h-10.667v30.667h10.667zm0-33.333v-15.333h-10.667v30.667h10.667zm0-33.333v-15.333h-10.667v30.667h10.667zm0-32.667v-14.667h-10.667v29.333h10.667zm0-34v-16.667h-10.667v33.333h10.667zm0-32v-12.667h-10.667v25.333h10.667zm-45-12.319c4.2167-0.2646 11.117-0.2646 15.333 0s0.76667 0.48109-7.6667 0.48109c-8.4333 0-11.883-0.21649-7.6667-0.48109zm61.333-2.6364c2.0167-0.3055 5.3167-0.3055 7.3333 0 2.0167 0.3055 0.36667 0.55545-3.6667 0.55545-4.0333 0-5.6833-0.24995-3.6667-0.55545zm109.33 0.0359c1.2833-0.33537 3.3833-0.33537 4.6667 0s0.23333 0.60977-2.3333 0.60977c-2.5667 0-3.6167-0.2744-2.3333-0.60977zm9.3587-5e-3c1.2973-0.33806 3.0973-0.31583 4 0.0494s-0.15871 0.64182-2.3587 0.61465c-2.2-0.0272-2.9386-0.326-1.6413-0.66406zm-146.36-1.7426c0.45323-0.73334 1.0886-1.3333 1.412-1.3333s0.58798 0.6 0.58798 1.3333c0 0.73333-0.63541 1.3333-1.412 1.3333s-1.0412-0.6-0.58798-1.3333zm88.357 0.36702c2.3965-0.29675 5.9965-0.29062 8 0.0136 2.0035 0.30423 0.0428 0.54703-4.3572 0.53954-4.4-7e-3 -6.0392-0.2564-3.6428-0.55315zm33.994 0.01c2.0268-0.30647 5.0268-0.29828 6.6667 0.0182s-0.0183 0.56723-3.685 0.55722c-3.6667-0.01-5.0084-0.26895-2.9817-0.57542zm35.315 0.0158c1.65-0.3178 4.35-0.3178 6 0s0.3 0.57783-3 0.57783-4.65-0.26003-3-0.57783zm-91.333-1.3474c2.0167-0.3055 5.3167-0.3055 7.3333 0s0.36667 0.55545-3.6667 0.55545c-4.0333 0-5.6833-0.24995-3.6667-0.55545zm108.64-7e-3c2.367-0.29455 6.567-0.29939 9.3333-0.0108 2.7664 0.28863 0.82974 0.52962-4.3036 0.53554-5.1333 6e-3 -7.3967-0.23024-5.0297-0.52479zm-125.94-1.2951c1.2973-0.33805 3.0973-0.31582 4 0.0494 0.90271 0.36524-0.15871 0.64183-2.3587 0.61466-2.2-0.0272-2.9386-0.326-1.6413-0.66406zm145.97 0.041c0.91667-0.36988 2.4167-0.36988 3.3333 0 0.91666 0.36988 0.16666 0.67252-1.6667 0.67252s-2.5833-0.30264-1.6667-0.67252zm8-1.3333c0.91667-0.36989 2.4167-0.36989 3.3333 0 0.91666 0.36988 0.16666 0.67251-1.6667 0.67251s-2.5833-0.30263-1.6667-0.67251zm14.667-1.4156c2.3833-0.29577 6.2833-0.29577 8.6667 0 2.3833 0.29577 0.43333 0.53776-4.3333 0.53776-4.7667 0-6.7167-0.24199-4.3333-0.53776z" fill="#6e6eb0"/>
  <path d="m50.866 307.73c-0.19156-3.4548-0.54266-3.6225-8.5331-4.0764l-8.3333-0.47338 8.3333-0.25691 8.3333-0.25691v-30.667h-19.333c-12 0-19.333-0.50575-19.333-1.3333 0-0.82758 7.3333-1.3333 19.333-1.3333h19.333v-30.667h-20c-12.444 0-20-0.50371-20-1.3333 0-0.82963 7.5556-1.3333 20-1.3333h20v-30.667h-20c-12.444 0-20-0.50371-20-1.3333 0-0.82962 7.5556-1.3333 20-1.3333h20v-29.333h-20c-12.444 0-20-0.50371-20-1.3333 0-0.82962 7.5556-1.3333 20-1.3333h20v-33.333h-20c-12.444 0-20-0.50371-20-1.3333 0-0.82949 7.54-1.3333 19.953-1.3333h19.953l0.43211-13.667 0.43212-13.667 0.2812 13.667 0.2812 13.667h134c88.444 0 134 0.45329 134 1.3333s-45.556 1.3333-134 1.3333h-134v33.333h134c88.444 0 134 0.45329 134 1.3333s-45.556 1.3333-134 1.3333h-134v29.333h134c88.444 0 134 0.45329 134 1.3333s-45.556 1.3333-134 1.3333h-134v30.667h134c88.444 0 134 0.4533 134 1.3333s-45.556 1.3333-134 1.3333h-134v30.667h133.33c88 0 133.33 0.45333 133.33 1.3333s-45.333 1.3333-133.33 1.3333h-133.33v30.653l122.33 0.34738 122.33 0.34738-122.24 0.32627-122.24 0.32627-0.55546 3.6667-0.55545 3.6667zm11.569-197.39c-0.40085-2.0115 0.08717-5.2301 1.0845-7.1524 2.4089-4.6432 2.4844-4.5237-2.8534-4.5237-2.7407 0-4.6667 0.66032-4.6667 1.6 0 1.2444-0.35556 1.2444-1.6 0-1.1101-1.1101-8.0811-1.6-22.765-1.6h-21.165l0.43161-27c0.41645-26.052 0.55712-27.268 4.005-34.624 4.206-8.9739 13.716-19.591 21.781-24.318 12.685-7.434 11.942-7.3916 129.45-7.3916 104.16 0 108.57 0.099865 116.8 2.643 11.016 3.4024 22.004 11.32 28.133 20.272 8.3162 12.146 9.2219 16.226 9.9333 44.751l0.64007 25.667-9.8247 0.01419c-5.4036 0.0077-62.37 0.0015-126.59-0.01397l-116.77-0.02816-1.6993 3.1752c-0.93463 1.7464-2.1274 5.2026-2.6506 7.6806l-0.95129 4.5054zm-42.769-0.65906c3.85-0.26934 10.15-0.26934 14 0s0.7 0.4897-7 0.4897-10.85-0.22036-7-0.4897zm58.025-2.6077c1.2973-0.33805 3.0973-0.31582 4 0.0494 0.90271 0.36524-0.15871 0.64183-2.3587 0.61466-2.2-0.0272-2.9386-0.326-1.6413-0.66406zm67.308-1.2924c0.91667-0.36989 2.4167-0.36989 3.3333 0 0.91667 0.36988 0.16667 0.67251-1.6667 0.67251-1.8333 0-2.5833-0.30263-1.6667-0.67251zm28-0.0579c1.65-0.3178 4.35-0.3178 6 0 1.65 0.31781 0.3 0.57783-3 0.57783s-4.65-0.26002-3-0.57783zm34.75 0.0302c0.96249-0.38516 2.1125-0.33779 2.5556 0.10527 0.44305 0.44306-0.34445 0.75819-1.75 0.70029-1.5533-0.064-1.8692-0.37992-0.80556-0.80555zm-84-1.3333c0.9625-0.38516 2.1125-0.33779 2.5556 0.10527 0.44305 0.44305-0.34445 0.75819-1.75 0.70029-1.5533-0.064-1.8692-0.37992-0.80556-0.80556zm101.33 0c0.9625-0.38516 2.1125-0.33779 2.5556 0.10527 0.44306 0.44305-0.34445 0.75819-1.75 0.70029-1.5533-0.064-1.8692-0.37992-0.80556-0.80556zm-124.72-1.3465c1.2973-0.33805 3.0973-0.31582 4 0.0494 0.90271 0.36524-0.15871 0.64183-2.3587 0.61466-2.2-0.0272-2.9386-0.326-1.6413-0.66406zm167.39-2.6536c0.96249-0.38516 2.1125-0.3378 2.5556 0.10526 0.44305 0.44306-0.34445 0.75819-1.75 0.7003-1.5533-0.064-1.8692-0.37992-0.80556-0.80556z" fill="#6767a5"/>
  <path d="m51.301 209.33c0-56.1 0.16447-79.05 0.3655-51 0.20102 28.05 0.20102 73.95 0 102-0.20102 28.05-0.3655 5.1-0.3655-51zm-40.399-137.67l0.43161-27 4.2991-8.7855c5.3582-10.95 14.753-19.958 26.736-25.635l8.9644-4.2466 110.46-0.37747c120.11-0.41045 119.55-0.44009 132.26 7.0072 13.314 7.8027 23.349 22.625 25.881 38.23 0.75627 4.6606 1.3796 17.324 1.3851 28.141l0.0101 19.667h-310.86z" fill="#575784"/>
  <path d="m51.301 209.33c0-56.1 0.16447-79.05 0.3655-51 0.20102 28.05 0.20102 73.95 0 102-0.20102 28.05-0.3655 5.1-0.3655-51zm-40.634-134.53c0-20.056 0.42155-25.21 2.6447-32.333 4.6478-14.892 16.287-27.163 31.646-33.362l7.7097-3.1119 108-0.40571c76.991-0.28922 110.3 0.031733 116 1.1178 16.676 3.1757 31.903 14.99 39.093 30.33 3.414 7.2839 3.6032 8.829 4.2401 34.626l0.66667 27.002-155-0.0021-155-0.0022z" fill="#4a4a77"/>
  <path d="m10.879 72.333 0.4539-26.333 4.2575-8.9877c7.8351-16.54 22.367-27.432 40.409-30.287 10.864-1.7193 206.53-1.8398 218.32-0.13441 17.799 2.5743 32.9 13.424 40.689 29.234l4.3217 8.7715 0.43162 27.035 0.43161 27.035h-309.77z" fill="#3b3b60"/>
  <path d="m10.951 73c0.61689-29.885 2.2688-36.136 12.577-47.602l6.0519-6.7312h272.88l4.8079 5.617c2.6444 3.0893 6.4312 8.9393 8.4152 13 3.4963 7.1558 3.6219 8.2142 4.0812 34.383l0.47383 27h-309.82z" fill="#38385c"/>
  <path d="m10.974 73c0.5634-26.141 1.6408-32.302 7.107-40.645l1.98-3.0218h291.57l3.8488 8.3333c3.7683 8.1593 3.8578 8.8834 4.2822 34.667l0.43341 26.333h-309.78z" fill="#363658"/>
  <path d="m10.987 73c0.44486-20.173 1.0687-27.022 2.9147-32l2.3487-6.3333h298.13l2.4432 5.6667c2.0285 4.7048 2.5227 10.137 2.9115 32l0.46828 26.333h-309.78z" fill="#333352"/>
  <path d="m10.685 76.333c0.01001-12.283 0.38065-23.686 0.82364-25.339l0.80543-3.0056 153.51 0.33892 153.51 0.33892 0.36276 25 0.36275 25h-309.39z" fill="#30304e"/>
  <path d="m10.667 76.667v-22h309.33v44h-309.33z" fill="#2e2e4a"/>
  <path d="m10.667 82.667v-16h309.33v32h-309.33z" fill="#292943"/>
  <path d="m10.667 90.667v-8h309.33v16h-309.33z" fill="#24243c"/>
  <path d="m10.667 96.667c0-1.7663 18.074-2 154.67-2 136.59 0 154.67 0.23372 154.67 2s-18.074 2-154.67 2c-136.59 0-154.67-0.23372-154.67-2z" fill="#212136"/>
 </g>
</svg>
