<?xml version="1.0" encoding="UTF-8"?>
<svg width="20" height="20" version="1.1" viewBox="0 0 20 20" xmlns="http://www.w3.org/2000/svg">
 <g transform="matrix(.061475 0 0 .062476 -.10459 -.37144)" stroke-width="1.3333">
  <path d="m38.4 323.73c2.8325-2.8326 1.7011-4.2353-1.2959-1.6066-1.5927 1.397-2.5508 1.94-2.129 1.2066s-0.06912-3.1333-1.0909-5.3333c-1.6199-3.4877-1.7757-3.5731-1.2167-0.66667 0.35262 1.8333 0.28833 2.5583-0.14288 1.611-0.5488-1.2056-1.2785-1.3119-2.4321-0.35449-1.1788 0.97835-1.6481 0.82107-1.6481-0.55237 0-1.0561 0.5-1.6112 1.1111-1.2335 2.8399 1.7551 0.62548-2.6672-3.7739-7.5368-5.0977-5.6425-9.4889-8.6712-10.747-7.4126-0.40556 0.40556 0.97549 1.3886 3.069 2.1846 2.5852 0.98291 3.2761 1.7749 2.1534 2.4688-1.2288 0.75941-0.96051 1.6483 1.0452 3.4634 1.804 1.6326 2.6982 1.8774 2.6982 0.73857 0-1.3628 0.39974-1.3715 2-0.0433 2.1608 1.7933 2.8007 4.6522 0.7588 3.3903-0.68266-0.42192-1.6485-0.10814-2.1463 0.6973-0.58151 0.9409-2.274 0.15287-4.7344-2.2043-2.7272-2.6128-3.4428-4.1345-2.4864-5.287 0.94976-1.1444 0.64983-1.921-1.0244-2.6523-1.302-0.56872-2.9189-0.90493-3.5931-0.74713s-0.45067-0.64695 0.49659-1.7883c1.4158-1.7059 1.3966-2.1033-0.10764-2.2331-1.0065-0.0868-2.4131-0.0424-3.1258 0.0987-0.71275 0.1411-0.16976-0.98785 1.2066-2.5088 1.8846-2.0825 2.04-2.7704 0.62925-2.7857-1.5241-0.0167-1.5005-0.26143 0.12668-1.313 1.5929-1.0294 1.3216-1.3157-1.3333-1.4066-2.9232-0.10013-3.0161-0.23836-0.75517-1.1237 1.7723-0.69406 2.0849-1.3145 1-1.985-0.86799-0.53645-2.3282-0.59546-3.2448-0.13113-0.91667 0.46426-0.61667-0.01647 0.66667-1.0684 3.1145-2.5528 2.9558-4.0923-0.33333-3.2322-3.0843 0.80656-3.6487-1.0575-0.66667-2.2018 3.0738-1.1795 2.4154-3.9375-0.74281-3.1116-1.5085 0.3945-2.5393 0.31448-2.2906-0.17782 4.1755-8.264 4.1373-8.0152 1.9214-12.511l-2.1606-4.3838-0.12407 4c-0.06824 2.2-0.5319 5.0276-1.0304 6.2836-0.49846 1.256-0.90629-45.672-0.90629-104.28s0.40783-105.54 0.90629-104.28c0.49846 1.256 1.0181 4.0836 1.1547 6.2836 0.14651 2.3594 0.49847 3.043 0.85815 1.6667 0.33537-1.2833 1.1658-2.3333 1.8453-2.3333 1.9131 0 1.3776-5.7001-0.80684-8.5882-2.6647-3.5231-2.4587-4.6266 0.70907-3.7982 3.0782 0.80498 3.6618-1.6132 0.66667-2.7625-3.1633-1.2139-2.325-3.3466 1-2.5442l3 0.72399-3-2.9008c-1.65-1.5954-3-3.2974-3-3.7821 0-0.48477 0.72-0.16139 1.6 0.71861 2.4483 2.4483 4.305 1.9022 2.2299-0.65594-1.0425-1.2852-1.1524-1.8496-0.25539-1.3116 0.86599 0.5194 1.9514 0.33457 2.412-0.41072 0.46062-0.7453 0.05208-1.3643-0.90787-1.3755-1.2683-0.01484-1.1986-0.37373 0.25464-1.3129 1.1-0.71088 1.4353-1.3017 0.74516-1.3129-0.69016-0.0112-0.20667-0.78686 1.0744-1.7236 1.2811-0.93676 2.4721-2.6762 2.6466-3.8655 0.17455-1.1893 1.0898-3.093 2.0338-4.2305 0.94406-1.1375 1.875-3.1481 2.0687-4.4678 0.1937-1.3198 1.0097-2.3996 1.8133-2.3996s3.3628-1.9451 5.6871-4.3224 8.197-6.2773 13.05-8.6667l8.8244-4.3443h233.39l8.9958 4.2613c5.5981 2.6518 11.614 6.9325 15.928 11.333 3.8125 3.8896 5.7644 5.572 4.3375 3.7387l-2.5944-3.3333 2.9686 2.5115c1.6327 1.3813 2.631 3.0576 2.2185 3.7251-1.0978 1.7763 2.1875 5.2236 3.964 4.1594 0.83357-0.49936 0.69212 0.10724-0.31434 1.348-1.551 1.9121-1.551 2.28 0 2.4138 1.0065 0.08684 2.3245 0.07197 2.929-0.03304 0.60451-0.10501 0.71305 0.43372 0.2412 1.1972-0.47184 0.76347-1.4096 1.0472-2.0838 0.63045s-0.86993 0.17005-0.43482 1.3039c0.4351 1.1339 1.4782 1.6499 2.318 1.1466 0.83983-0.50322 0.70349 0.10023-0.30296 1.341-2.1216 2.6156-0.27091 3.047 2.5279 0.58928 1.0439-0.91667 0.77088-0.31667-0.60665 1.3333-2.4526 2.9377-2.4519 3.0004 0.0353 3.0204 2.085 0.01676 2.1887 0.24259 0.5786 1.2608-1.0788 0.68223-1.5433 1.6585-1.0322 2.1696 0.51104 0.51104 1.9419 0.09367 3.1797-0.9275 2.0515-1.6925 2.1091-1.5913 0.65199 1.1433-0.8792 1.65-2.2128 3-2.9636 3-0.75082 0-0.96902 0.6409-0.4849 1.4242 0.48414 0.78333 1.7195 1.1022 2.7454 0.70851 2.4723-0.94868 2.3856 1.1088-0.13482 3.2006-1.1 0.91292-2 2.451-2 3.4179 0 2.3513 2.746 3.9444 3.8157 2.2136 0.46801-0.75726 0.85093 46.373 0.85093 104.73s-0.18758 105.14-0.41686 103.95c-0.24287-1.2611-1.2168-1.8577-2.3333-1.4292-2.487 0.95434-2.4475 3.6828 0.0835 5.7834 2.5204 2.0918 2.6071 4.1493 0.13487 3.2006-1.0258-0.39364-2.2612-0.0748-2.7454 0.70852-0.48412 0.78332-0.26592 1.4242 0.48489 1.4242s2.0844 1.35 2.9636 3c1.3696 2.5703 1.3221 2.7722-0.33114 1.4096-1.25-1.0302-2.6184-1.1548-3.885-0.35374-1.6635 1.0521-1.6283 1.2397 0.2354 1.2571 1.2049 0.0107 2.5904 1.0704 3.079 2.3538 0.71224 1.8709 0.55553 2.003-0.79068 0.66667-0.92346-0.91667-2.609-1.6476-3.7457-1.6243-1.6237 0.0333-1.4951 0.49153 0.6 2.1379 2.6049 2.0469 2.5933 2.0735-0.50031 1.1481-2.1664-0.6481-2.8787-0.48104-2.2546 0.52877 0.50178 0.81189 0.16224 1.4762-0.75453 1.4762-0.9248 0-0.51464 0.89184 0.92131 2.0033 2.5485 1.9726 2.5473 1.9896-0.0785 1.1072-2.6562-0.8925-2.6563-0.88428-0.0375 2.0954 1.4461 1.6453 2.0461 2.8518 1.3333 2.6811-0.71276-0.17068-2.3612 0.15502-3.6633 0.72374-1.9681 0.85968-2.0806 1.3882-0.66667 3.1343 0.93538 1.1551 1.0425 1.7064 0.23806 1.225-1.5485-0.92656-9.0825 6.0404-7.8571 7.2658 0.39466 0.39465-0.2308 1.5046-1.3899 2.4666-1.7557 1.4571-2.0393 1.4332-1.6989-0.14333 0.2247-1.0408-0.31986-1.7496-1.2101-1.575-0.96906 0.18999-1.2959-0.52377-0.81446-1.7784 0.51702-1.3473 1.1223-1.5812 1.6947-0.65503 0.54791 0.88654 2.5729-0.29508 5.2641-3.0717 3.069-3.1664 3.8418-4.7086 2.5907-5.1701-1.095-0.40386-0.2968-1.2478 2.0686-2.1872 2.1184-0.84127 3.4871-1.894 3.0416-2.3396-1.1257-1.1257-7.7998 3.4176-6.9768 4.7494 0.79546 1.2871-5.1255 7.1483-6.168 6.1058-1.052-1.052-5.2264 5.7503-5.4639 8.9034-0.19433 2.5799-0.31248 2.5619-2.7835-0.42323l-2.5805-3.1175 0.8068 3.3333c0.76763 3.1715 0.71292 3.2077-1.1269 0.74516-1.4455-1.9347-1.9337-2.0862-1.9337-0.6 0 1.0935 0.45 2.5709 1 3.283 0.55 0.71217-0.14291 0.0821-1.5398-1.4l-2.5398-2.6949 0.74828 3c0.88736 3.5576-0.96327 3.9837-2.8953 0.66667-1.2943-2.2222-1.361-2.2222-1.3996 0-0.0468 2.6948-2.1187 3.1182-3.2628 0.66666-0.6039-1.2941-0.94822-1.3043-1.5403-0.0457-1.0837 2.3036-227.24 2.37-227.24 0.0667 0-1.1581-0.40784-1.1464-1.6 0.0457-2.2493 2.2493-3.7333 1.989-3.7333-0.65484 0-1.9744-0.25737-1.9329-2.069 0.33333-1.9884 2.4873-2.0345 2.4582-1.1819-0.74516l0.88711-3.3333-2.87 3c-1.5783 1.65-3.2665 3-3.7512 3-0.48477 0-0.16139-0.72 0.71861-1.6zm-1.4892-5.3167c-0.42564-1.0636-0.74158-0.7477-0.80556 0.80556-0.05789 1.4056 0.25724 2.1931 0.70029 1.75 0.44306-0.44306 0.49042-1.5931 0.10527-2.5556zm260-1.3333c-0.42562-1.0636-0.74157-0.74771-0.80554 0.80556-0.0579 1.4056 0.25722 2.193 0.70029 1.75 0.44305-0.44307 0.49041-1.5931 0.1052-2.5556zm-272.11-4.0833c0.52752-0.91667 0.45744-1.2112-0.15573-0.65447s-2.6594-0.34329-4.5471-2l-3.4322-3.0122 3.2324 3.6667c3.729 4.23 3.6402 4.1937 4.9027 2zm-8.8017-14.333c-1.1-0.71088-2.6-1.2925-3.3333-1.2925-0.73333 0-0.43333 0.58161 0.66667 1.2925s2.6 1.2925 3.3333 1.2925c0.73333 0 0.43333-0.58162-0.66667-1.2925z" fill="#f9f3f3"/>
  <path d="m52.064 322.73c-1.065-0.67372-2.4192-0.92649-3.0094-0.56173-0.59019 0.36475-1.4523-0.32515-1.9159-1.5331-0.60805-1.5846-1.1187-1.75-1.8332-0.5938-0.71732 1.1606-1.7461 0.8468-3.7311-1.1382-1.8419-1.8419-2.9521-2.2215-3.3854-1.1574-0.47488 1.1662-0.67247 1.1442-0.75-0.0833-0.05789-0.91666-1.0053-1.6667-2.1053-1.6667s-2-0.6-2-1.3333c0-0.73333-0.9-1.3333-2-1.3333s-2.0052-0.45-2.0116-1c-0.0064-0.55-2.9811-4-6.6104-7.6667-3.6294-3.6667-6.6241-7.3667-6.6551-8.2222-0.03093-0.85555-0.80624-1.8582-1.7229-2.2281-1.2989-0.52409-1.2874-0.69575 0.05193-0.77777 1.1321-0.0693 0.79078-1.1012-1-3.0234-1.4952-1.605-2.7686-3.555-2.8297-4.3333-0.0611-0.77839-0.45207-2.9153-0.8688-4.7486-0.41673-1.8334-0.94264-52.233-1.1687-112-0.45379-119.98-0.40698-120.8 7.7929-136.32 5.046-9.5491 14.787-18.783 24.732-23.444l7.6241-3.5734h233.33l7.7834 3.6463c19.253 9.0197 29.576 24.899 32.499 49.995 0.57823 4.9641 1.0513 55.284 1.0513 111.82 0 82.048-0.34761 103.21-1.7223 104.87-1.2817 1.544-1.3213 2.2084-0.15476 2.5972 1.0631 0.35438 0.83588 1.2542-0.70625 2.7963-1.3812 1.3812-1.6489 2.2738-0.68197 2.2738 1.2121 0 1.2228 0.44458 0.0449 1.864-0.85083 1.0252-1.8014 3.1849-2.1123 4.7994s-1.6943 3.9257-3.0743 5.136c-1.3799 1.2104-2.2529 2.9506-1.9399 3.8673 0.313 0.91667-0.1012 1.6667-0.92032 1.6667-0.81917 0-2.7484 2.1338-4.2871 4.7418-1.6991 2.8798-3.514 4.4669-4.6217 4.0419-1.0083-0.38692-1.824 0.13557-1.824 1.1684 0 1.0276-1.2 2.2492-2.6667 2.7147-1.4667 0.4655-2.6759 1.5559-2.6871 2.4232-0.012 0.93191-0.54904 0.75883-1.3129-0.42318-1.1046-1.7092-1.2955-1.6607-1.3129 0.33333-0.012 1.3505-1.0314 2.3333-2.4204 2.3333-1.32 0-3.12 0.72-4 1.6s-1.6 1.1065-1.6 0.50342c0-0.60314-0.9-0.34967-2 0.56325-1.5119 1.2548-2 1.2714-2 0.068 0-1.02-0.75269-0.83915-2.0952 0.5034-2.493 2.493-4.5714 2.7182-4.5714 0.49527 0-1.2444-0.35556-1.2444-1.6 0-2.3171 2.3171-213.15 2.3171-215.47 0-1.2444-1.2444-1.6-1.2444-1.6 0 0 1.9012-1.2867 2.0104-3.9363 0.33422zm270.27-200.4c-0.20291-25.117-0.36894-4.5667-0.36894 45.667 0 50.233 0.16603 70.783 0.36894 45.667 0.2029-25.117 0.2029-66.217 0-91.333z" fill="#f6f1f2"/>
  <path d="m54.064 321c-0.55861-1.2833-1.8869-2.3333-2.9517-2.3333-1.1052 0-1.5345 0.64975-1.0004 1.514 0.51462 0.83268-1.1 0.0827-3.588-1.6667-2.488-1.7494-4.7249-3.6344-4.9709-4.1889-0.24597-0.55457-0.9476-0.69905-1.5592-0.32108-0.61158 0.37798-2.1148-0.31558-3.3405-1.5413-1.8826-1.8826-2.4135-1.9363-3.4204-0.34559-0.94808 1.4977-1.1961 1.3736-1.2123-0.60645-0.02252-2.7453-9.71-12.832-12.355-12.864-1.1081-0.0136-0.99604-0.45283 0.33486-1.3129 1.5868-1.0254 1.3113-1.3009-1.3333-1.3333-2.3411-0.0287-2.8033-0.37679-1.5528-1.1695 0.9793-0.62076 1.7507-1.533 1.7143-2.0272-0.09739-1.3206-3.2446-4.2578-5.5186-5.1504-1.4351-0.56331-1.2461-0.81744 0.69048-0.9282 2.4001-0.13727 2.3335-0.34296-0.66667-2.058-2.544-1.4543-2.7808-1.9167-1-1.9527 3.0998-0.0628 2.9552-1.6841-0.33333-3.7378-1.4667-0.91595-2.6575-2.4103-2.6462-3.3207 0.013692-1.1101 0.49101-0.99655 1.449 0.34463 1.0867 1.5214 1.1748 1.2023 0.36818-1.3333-1.7949-5.6423-2.2271-216.76-0.46261-226 3.185-16.683 14.996-31.904 30.334-39.093l7.6241-3.5734h233.33l7.7834 3.6463c14.448 6.7685 24.46 18.155 28.944 32.919 2.6314 8.6632 2.7286 12.486 2.9962 117.73 0.1642 64.602-0.21331 108.48-0.92953 108.03-0.66331-0.41-0.80568-0.0977-0.31639 0.69399 0.48928 0.79168 0.16611 3.0274-0.71819 4.9682-1.2889 2.8288-1.2573 3.7454 0.15923 4.6208 1.3298 0.82186 1.0636 1.3154-1.0758 1.9944-3.1666 1.005-3.7204 2.8129-1.1762 3.8396 1.1156 0.45013 0.98893 0.70732-0.38294 0.77777-1.1273 0.0579-2.1291 1.1607-2.2263 2.4508-0.36311 4.8203-1.1271 6.3494-3.692 7.3896-2.0685 0.83892-2.2455 1.3089-0.82383 2.1876 1.3936 0.86132 1.1559 1.3269-1.0321 2.0214-1.5636 0.49627-2.7955 1.9118-2.7376 3.1458 0.0651 1.3874 0.36188 1.6075 0.77778 0.57682 0.36988-0.91667 1.296-1.6667 2.058-1.6667 0.83648 0 0.72776 0.79251-0.27438 2-1.8298 2.2048-5.9841 2.7983-4.6667 0.66667 1.3413-2.1703-0.18899-1.5197-2.1701 0.92261-1.4982 1.8469-1.5036 2.0595-0.0303 1.1724 1.4578-0.8777 1.5122-0.54642 0.28641 1.744-0.83225 1.5552-1.8275 2.8276-2.2117 2.8276-0.38415 0-0.27952-0.67784 0.2325-1.5063 0.56072-0.90727 0.20895-1.2656-0.88453-0.90115-0.99852 0.33284-2.2222 2.0607-2.7194 3.8396-0.49712 1.779-0.96368 2.5376-1.0368 1.6858-0.20934-2.4393-4.5019-1.168-5.6112 1.6619-0.68727 1.7532-1.0367 1.9267-1.1151 0.55346-0.0999-1.751-0.26859-1.7558-1.3546-0.0387-0.68223 1.0788-1.6919 1.51-2.2436 0.95819-0.55176-0.55178-1.8258 0.36561-2.8312 2.0386-1.0191 1.6958-1.5108 2.0093-1.1111 0.70848 0.96754-3.1491-0.38616-2.9354-4.2233 0.66667-2.1552 2.0231-3.0515 2.3488-2.7526 1 0.33608-1.5167-0.5234-1.8706-3.5568-1.4644-7.4513 0.99765-206.64 0.80502-210.9-0.20396-3.4395-0.81352-4.3402-0.563-4.7937 1.3333-0.5317 2.2233-0.60703 2.2234-1.5741 1e-3zm-28.831-13.859-3.2324-3.5256l3.6667 2.3456c2.0167 1.2901 3.6667 2.8766 3.6667 3.5256 0 1.8129-0.60593 1.4664-4.1009-2.3456z" fill="#f5eef5"/>
  <path d="m48.849 318.06c-3.5664-0.94752-6.8664-2.2483-7.3333-2.8906-0.46698-0.64228-1.7491-1.3628-2.8491-1.6011-1.1-0.23833-2.2-0.98833-2.4444-1.6667-0.24445-0.67834-0.99788-1.2333-1.6743-1.2333-1.2632 0-13.215-11.613-13.215-12.84 0-0.37592-0.90551-1.589-2.0123-2.6957s-1.6713-2.5639-1.2546-3.2381c0.41668-0.67421 0.1222-1.2258-0.65441-1.2258s-1.412-1.1646-1.412-2.588-0.60979-2.9648-1.3551-3.4255c-0.74529-0.46061-0.99364-1.4223-0.55188-2.1371 0.44176-0.71479 0.20698-2.0233-0.52173-2.9079-3.6933-4.4831-4.238-20.051-4.238-121.12 0-70.766 0.46937-105.93 1.4783-110.76 3.3656-16.086 15.313-31.167 30.231-38.159l7.6241-3.5734h233.33l7.7834 3.6463c14.318 6.7079 24.373 18.064 28.863 32.6 2.5998 8.4173 2.6874 12.192 2.6874 115.83 0 104.01-0.4751 118.13-4.1292 122.7-0.63309 0.7909-1.3696 2.5909-1.6368 4-1.1453 6.0412-2.6074 9.8954-3.7537 9.8954-0.67685 0-1.6322 1.05-2.123 2.3333-1.0094 2.6392-13.647 14.799-15.691 15.098-0.73333 0.1072-2.9833 1.3699-5 2.8059-2.0167 1.436-3.6667 2.2967-3.6667 1.9126 0-0.38407-2.4258 0.15757-5.3907 1.2036-7.569 2.6705-221.05 2.7057-231.09 0.0381z" fill="#f2e8eb"/>
  <path d="m57.764 315.47c0.67508-1.7592 0.15207-2.0512-2.736-1.5275-2.1671 0.39298-4.4791-0.17464-5.8818-1.4441-1.2711-1.1503-2.9489-1.6974-3.7285-1.2156-0.77954 0.48177-1.4174 0.24056-1.4174-0.53605 0-0.77662-1.2-1.412-2.6667-1.412-1.4667 0-2.6667-0.7-2.6667-1.5556 0-0.85555-0.40131-1.1542-0.8918-0.66375-0.49049 0.49048-2.0535-0.15952-3.4733-1.4444-1.4198-1.2849-2.9685-2.3362-3.4415-2.3362-0.47301 0-0.74558-0.34332-0.6057-0.76293 0.13987-0.41963-2.2952-3.2338-5.4113-6.2536-6.6021-6.3983-12.358-17.396-14.207-27.143-1.8942-9.9882-1.7341-212.31 0.17529-221.44 3.368-16.098 14.744-30.383 30.265-38.005l7.5896-3.727h233.39l8.8505 4.3569c11.211 5.5188 22.288 17.13 26.648 27.93l3.1131 7.7128v226.67l-3.0688 6.6667c-4.89 10.623-11.153 18.886-17.265 22.778-3.1167 1.9847-5.6667 4.0466-5.6667 4.5819s-1.865 1.3463-4.1444 1.8022c-2.6284 0.52568-3.9031 1.4576-3.4848 2.5476 0.38884 1.0133-0.33264 1.7187-1.7578 1.7187-1.3295 0-2.0582-0.62142-1.6193-1.381 0.43888-0.75952-0.35516-0.43453-1.7646 0.72219-1.4094 1.1567-4.2591 1.9391-6.3328 1.7386-3.1923-0.30868-3.5195-0.0625-2.1348 1.606 1.4127 1.7022 1.1426 1.7832-1.9832 0.59473-5.2603-2-207.99-1.8921-211.73 0.11267-2.354 1.2598-2.653 1.1544-1.9466-0.68653z" fill="#eee4e4"/>
  <path d="m50.806 311.25c-21.072-5.732-36.091-21.897-40.129-43.192-1.8222-9.6086-1.8145-209.19 0.008445-218.87 3.1008-16.472 14.843-31.85 29.981-39.264l8-3.9181h233.39l8.7786 4.3217c10.942 5.3868 19.926 14.767 25.585 26.714l4.2466 8.9644 0.36362 109.99c0.35402 107.09 0.29251 110.23-2.3295 118.86-4.6161 15.197-16.132 27.635-32.034 34.6l-7.3333 3.2116-110.67 0.26795c-93.731 0.22693-111.77-0.0316-117.86-1.689z" fill="#b3b2ab"/>
  <path d="m54.971 311.98c-15.843-2.31-32.207-14.661-39.715-29.976l-3.9222-8-0.66667-82.667c-0.36667-45.467-0.36667-97.367 0-115.33l0.66667-32.667 4-7.9159c5.4567-10.799 14.181-19.36 25.315-24.842l9.2935-4.5757 112.59-0.36287c99.624-0.32109 113.44-0.11879 120.03 1.7572 18.503 5.2705 33.221 21.197 37.279 40.338 2.0795 9.8111 2.0972 211.94 0.0193 221.87-4.6201 22.083-22.985 39.214-45.533 42.475-10.021 1.4494-209.35 1.3583-219.35-0.1004z" fill="#b17d5d"/>
  <path d="m54.971 311.98c-15.843-2.31-32.207-14.661-39.715-29.976l-3.9222-8-0.66667-83.333c-0.36667-45.833-0.45102-85.283-0.18746-87.667l0.47921-4.3333h309.04v-9.3333h-309.55l0.4501-23c0.43989-22.478 0.54067-23.18 4.4435-30.916 5.4452-10.794 14.17-19.358 25.308-24.842l9.2935-4.5757 112.59-0.36287c99.624-0.32109 113.44-0.11879 120.03 1.7572 18.503 5.2705 33.221 21.197 37.279 40.338 2.0795 9.8111 2.0972 211.94 0.0193 221.87-4.6201 22.083-22.985 39.214-45.533 42.475-10.021 1.4494-209.35 1.3583-219.35-0.1004z" fill="#8b8478"/>
  <path d="m55.533 311.93c-19.64-3.2954-35.879-16.895-42.235-35.37-2.5127-7.3032-2.6317-11.499-2.6317-92.774v-85.125h309.33v-9.3333h-309.56l0.44572-22.368c0.44171-22.167 0.48488-22.448 4.8027-31.212 5.52-11.204 17.136-22.284 27.93-26.64l7.7128-3.113h229.33l9.0337 4.279c16.402 7.7692 27.816 23.023 30.352 40.562 0.67521 4.6706 1.2397 54.416 1.2545 110.55 0.0229 87.447-0.26572 103.18-2.0171 109.9-5.7944 22.246-21.991 36.995-44.623 40.633-10.33 1.6606-209.24 1.674-219.13 0.0147z" fill="#ac795d"/>
  <path d="m55.533 311.93c-19.64-3.2954-35.879-16.895-42.235-35.37-2.5127-7.3032-2.6317-11.499-2.6317-92.774v-85.125h309.33v-17.333l-155-0.325-155-0.325 155.33-0.68333 155.33-0.68334-155.13-0.325-155.13-0.325 0.46723-17.032c0.44101-16.076 0.71179-17.528 4.8242-25.878 5.5195-11.207 17.133-22.286 27.93-26.644l7.7128-3.113h229.33l9.0337 4.279c16.402 7.7692 27.816 23.023 30.352 40.562 0.67521 4.6706 1.2397 54.416 1.2545 110.55 0.0229 87.447-0.26572 103.18-2.0171 109.9-5.7944 22.246-21.991 36.995-44.623 40.633-10.33 1.6606-209.24 1.674-219.13 0.0147z" fill="#a3745b"/>
  <path d="m55.533 311.93c-19.64-3.2954-35.879-16.895-42.235-35.37-2.5127-7.3032-2.6317-11.499-2.6317-92.774v-85.125h309.33v-26.667h-309.64l0.50876-13.744c0.45345-12.25 0.97975-14.701 4.8415-22.545 5.4937-11.159 17.127-22.248 27.906-26.598l7.7128-3.113h229.33l9.0337 4.279c16.402 7.7692 27.816 23.023 30.352 40.562 0.67521 4.6706 1.2397 54.416 1.2545 110.55 0.0229 87.447-0.26572 103.18-2.0171 109.9-5.7944 22.246-21.991 36.995-44.623 40.633-10.33 1.6606-209.24 1.674-219.13 0.0147z" fill="#9f7159"/>
  <path d="m55.533 311.93c-19.64-3.2954-35.879-16.895-42.235-35.37-2.5127-7.3032-2.6317-11.499-2.6317-92.774v-85.125h309.33v-32h-309.67l0.58817-11.206c0.48165-9.1767 1.3613-12.777 4.8575-19.878 5.4277-11.025 17.121-22.142 27.843-26.469l7.7128-3.113h229.33l9.0337 4.279c16.402 7.7692 27.816 23.023 30.352 40.562 0.67521 4.6706 1.2397 54.416 1.2545 110.55 0.0229 87.447-0.26572 103.18-2.0171 109.9-5.7944 22.246-21.991 36.995-44.623 40.633-10.33 1.6606-209.24 1.674-219.13 0.0147z" fill="#7a7a71"/>
  <path d="m44.887 308.75c-15.164-6.2649-23.102-13.777-29.908-28.305l-3.6453-7.7812-0.37044-87-0.37044-87h310.74l-0.0107 79.667c-7e-3 47.547-0.55842 83.161-1.3701 88.333-2.8545 18.19-13.634 32.724-30.364 40.94l-7.589 3.727-114.67 0.31701-114.67 0.317zm275.39-231.09-0.2812-11h-309.67l0.58817-11.206c0.48165-9.1767 1.3613-12.777 4.8575-19.878 5.4277-11.025 17.121-22.142 27.843-26.469l7.7128-3.113h229.39l9.2944 4.5757c23.012 11.329 32.043 30.011 30.981 64.091-0.4165 13.37-0.44876 13.505-0.71731 3z" fill="#9c6e59"/>
  <path d="m44.887 308.75c-15.164-6.2649-23.102-13.777-29.908-28.305l-3.6453-7.7812-0.37044-87-0.37044-87h310.74l-0.0107 79.667c-7e-3 47.547-0.55842 83.161-1.3701 88.333-2.8545 18.19-13.634 32.724-30.364 40.94l-7.589 3.727-114.67 0.31701-114.67 0.317zm275.39-233.75-0.2812-13.667h-309.7l0.70142-8.7383c1.4329-17.851 15.467-36.56 32.618-43.482l7.7128-3.113h229.39l9.2944 4.5757c23.012 11.329 32.043 30.011 30.981 64.091l-0.43612 14z" fill="#996c56"/>
  <path d="m44.887 308.75c-15.164-6.2649-23.102-13.777-29.908-28.305l-3.6453-7.7812-0.37044-87-0.37044-87h310.74l-0.0107 79.667c-7e-3 47.547-0.55842 83.161-1.3701 88.333-2.8545 18.19-13.634 32.724-30.364 40.94l-7.589 3.727-114.67 0.31701-114.67 0.317zm275.63-236.75c0-9.1667 0.21303-12.917 0.47339-8.3333s0.26036 12.083 0 16.667-0.47339 0.83333-0.47339-8.3333zm-309.32-23c2.3929-15.652 17.05-33.68 32.428-39.887l7.7128-3.113h229.39l9.2944 4.5757c15.765 7.7612 27.426 22.793 29.517 38.051l0.82792 6.0403h-310.04z" fill="#956955"/>
  <path d="m44.887 308.75c-15.164-6.2649-23.102-13.777-29.908-28.305l-3.6453-7.7812-0.37044-87-0.37044-87h310.74l-0.0107 79.667c-7e-3 47.547-0.55842 83.161-1.3701 88.333-2.8545 18.19-13.634 32.724-30.364 40.94l-7.589 3.727-114.67 0.31701-114.67 0.317zm275.63-236.75c0-9.1667 0.21303-12.917 0.47339-8.3333s0.26036 12.083 0 16.667-0.47339 0.83333-0.47339-8.3333zm-308.89-24.667c1.9081-13.914 17.284-32.284 31.992-38.22l7.7128-3.113h229.39l9.2944 4.5757c14.37 7.0748 25.765 20.694 29.08 34.758l0.78575 3.3333-153.84-0.3444c-122.67-0.27462-153.96-0.004533-154.4 1.3333-0.30796 0.92275-0.31309-0.12227-0.0114-2.3223z" fill="#906652"/>
  <path d="m44.887 308.75c-15.164-6.2649-23.102-13.777-29.908-28.305l-3.6453-7.7812-0.37044-87-0.37044-87h310.74l-0.0107 79.667c-7e-3 47.547-0.55842 83.161-1.3701 88.333-2.8545 18.19-13.634 32.724-30.364 40.94l-7.589 3.727-114.67 0.31701-114.67 0.317zm275.63-236.75c0-9.1667 0.21303-12.917 0.47339-8.3333s0.26036 12.083 0 16.667-0.47339 0.83333-0.47339-8.3333zm-309.74-22.111c0.06398-1.5533 0.37992-1.8692 0.80556-0.80556 0.38516 0.9625 0.33779 2.1125-0.10526 2.5556-0.44306 0.44306-0.75819-0.34444-0.70029-1.75zm1.9583-7.2222c3.4382-12.665 17.807-28.273 30.89-33.554l7.7128-3.113h229.39l9.2944 4.5757c11.12 5.4747 20.454 14.603 25.209 24.655 1.8919 3.9992 3.4399 7.4584 3.4399 7.6872 4e-5 0.22875-68.511 0.26082-152.25 0.07128-121.15-0.27421-152.49-0.001866-153.42 1.3333-0.72543 1.0377-0.82772 0.40608-0.2681-1.6554z" fill="#8c6351"/>
  <path d="m44.887 308.75c-15.164-6.2649-23.102-13.777-29.908-28.305l-3.6453-7.7812-0.37044-87-0.37044-87h310.74l-0.0107 79.667c-7e-3 47.547-0.55842 83.161-1.3701 88.333-2.8545 18.19-13.634 32.724-30.364 40.94l-7.589 3.727-114.67 0.31701-114.67 0.317zm275.63-236.75c0-9.1667 0.21303-12.917 0.47339-8.3333s0.26036 12.083 0 16.667-0.47339 0.83333-0.47339-8.3333zm-5.8471-35.778c0-1.1759-36.462-1.5556-149.41-1.5556h-149.41l2.4087-4.1366c4.1546-7.135 17.135-18.096 25.363-21.417l7.7128-3.113h229.33l7.3333 3.4977c4.0333 1.9237 9.7427 5.2756 12.687 7.4486 5.7272 4.2262 16.344 18.467 14.868 19.943-0.48869 0.48869-0.88853 0.18853-0.88853-0.66702z" fill="#766a56"/>
  <path d="m48.667 310.15c-14.126-4.5072-27.474-16.14-33.508-29.201l-3.8258-8.2821-0.37044-87-0.37044-87h310.74l-0.0107 79.667c-7e-3 48.033-0.5547 83.108-1.3816 88.333-2.8699 18.134-12.713 31.607-28.958 39.637l-10.176 5.0298-113.4 0.25913c-88.874 0.20308-114.56-0.10894-118.74-1.4426zm-28.749-281.36c7.5783-11.015 19.404-19.079 32.36-22.068 3.5183-0.81157 47.388-1.3324 113.91-1.3525 104.97-0.031623 108.45 0.047975 116.95 2.6711 12.041 3.7191 21.83 11.346 29.325 22.848l2.4643 3.7818h-299.06z" fill="#87604e"/>
  <path d="m48.667 310.15c-14.126-4.5072-27.474-16.14-33.508-29.201l-3.8258-8.2821-0.37044-87-0.37044-87h310.74l-0.0107 79.667c-7e-3 48.033-0.5547 83.108-1.3816 88.333-2.8699 18.134-12.713 31.607-28.958 39.637l-10.176 5.0298-113.4 0.25913c-88.874 0.20308-114.56-0.10894-118.74-1.4426zm116.77-283.47-144.57-0.6756 6.8601-6.1677c7.4536-6.7012 15.589-11.046 24.552-13.114 3.5183-0.81157 47.388-1.3324 113.91-1.3525 104.51-0.031485 108.49 0.058272 116.83 2.6366 8.9559 2.7662 19.365 9.5755 24.741 16.184 1.7058 2.0972 2.9058 3.6671 2.6667 3.4886-0.23911-0.17842-65.49-0.62842-145-1z" fill="#835c4c"/>
  <path d="m48.667 310.15c-14.126-4.5072-27.474-16.14-33.508-29.201l-3.8258-8.2821-0.37044-87-0.37044-87h310.74l-0.0107 79.667c-7e-3 48.033-0.5547 83.108-1.3816 88.333-2.8699 18.134-12.713 31.607-28.958 39.637l-10.176 5.0298-113.4 0.25913c-88.874 0.20308-114.56-0.10894-118.74-1.4426zm-17.475-293.12c4.9396-4.5287 13.592-8.6574 21.836-10.42 4.0411-0.86382 45.801-1.2156 116.3-0.97985l110 0.36788 7.3333 2.9901c4.0333 1.6446 9.1333 4.473 11.333 6.2854l4 3.2953-136.07 0.04795c-74.837 0.02638-136.66 0.49796-137.39 1.048s0.4644-0.63576 2.6451-2.635z" fill="#7e594a"/>
  <path d="m48.667 310.15c-14.126-4.5072-27.474-16.14-33.508-29.201l-3.8258-8.2821-0.37044-87-0.37044-87h310.74l-0.0107 79.667c-7e-3 48.033-0.5547 83.108-1.3816 88.333-2.8699 18.134-12.713 31.607-28.958 39.637l-10.176 5.0298-113.4 0.25913c-88.874 0.20308-114.56-0.10894-118.74-1.4426zm-10.267-298.28c0.51357-0.43972 3.6338-1.9397 6.9338-3.3333 5.7087-2.4108 11.403-2.5518 117.31-2.9043l111.31-0.37042 9.3612 3.0371 9.3612 3.0371-45.333 0.33171c-114.63 0.83879-209.78 0.93084-208.93 0.20213z" fill="#7b5748"/>
  <path d="m48.667 310.15c-14.126-4.5072-27.474-16.14-33.508-29.201l-3.8258-8.2821-0.37044-87-0.37044-87h310.74l-0.0107 79.667c-7e-3 48.033-0.5547 83.108-1.3816 88.333-2.8699 18.134-12.713 31.607-28.958 39.637l-10.176 5.0298-113.4 0.25913c-88.874 0.20308-114.56-0.10894-118.74-1.4426z" fill="#4a4b42"/>
  <path d="m48.381 310.08c-14.194-4.4738-28.495-17.567-33.954-31.085l-3.0941-7.6622-0.37071-86.342-0.37071-86.342 154.75 0.02926 154.75 0.02926-0.37886 87.646-0.37886 87.646-3.9074 7.9709c-5.1559 10.518-14.062 19.201-25.44 24.803l-9.2605 4.5595-113.36 0.25913c-91.106 0.20826-114.47-0.08853-118.98-1.5118zm-14.666-200.4c-3.8232-0.26841-10.423-0.27087-14.667-5e-3 -4.2434 0.2654-1.1154 0.48501 6.9513 0.48802 8.0667 3e-3 11.539-0.21414 7.7154-0.48255zm47.977-2.56c-0.90271-0.36523-2.7027-0.38746-4-0.0494-1.2973 0.33805-0.55871 0.63688 1.6413 0.66405 2.2 0.0272 3.2614-0.24942 2.3587-0.61465zm112.61 0.069c-0.44307-0.44306-1.5931-0.49043-2.5556-0.10527-1.0636 0.42563-0.74771 0.74158 0.80556 0.80556 1.4056 0.0579 2.193-0.25724 1.75-0.7003zm-45.972-1.4108c-0.91666-0.36989-2.4167-0.36989-3.3333 0-0.91667 0.36988-0.16667 0.67251 1.6667 0.67251 1.8333 0 2.5833-0.30263 1.6667-0.67251zm32.018-0.0555c-1.6399-0.31648-4.6399-0.32467-6.6667-0.0182-2.0268 0.30648-0.685 0.56542 2.9817 0.57543 3.6667 0.01 5.3249-0.24074 3.685-0.55723zm30.648 0.05553c-0.91667-0.36989-2.4167-0.36989-3.3333 0-0.91667 0.36988-0.16667 0.67251 1.6667 0.67251 1.8333 0 2.5833-0.30263 1.6667-0.67251zm-83.975-1.3249c-0.90271-0.36523-2.7027-0.38746-4-0.0494s-0.55871 0.63688 1.6413 0.66405c2.2 0.0272 3.2614-0.24942 2.3587-0.61465zm99.975-0.00846c-0.91667-0.36988-2.4167-0.36988-3.3333 0-0.91667 0.36989-0.16667 0.67252 1.6667 0.67252 1.8333 0 2.5833-0.30263 1.6667-0.67252zm-122.64-1.3249c-0.90271-0.36523-2.7027-0.38746-4-0.0494-1.2973 0.33805-0.55871 0.63688 1.6413 0.66405 2.2 0.0272 3.2614-0.24942 2.3587-0.61465zm165.95-2.5976c-0.44307-0.44306-1.5931-0.49042-2.5556-0.10527-1.0636 0.42564-0.74771 0.74158 0.80556 0.80556 1.4056 0.0579 2.193-0.25724 1.75-0.70029z" fill="#474434"/>
  <path d="m49.239 310.19c-14.238-3.8738-29.189-17.272-34.812-31.196l-3.0941-7.6622-0.37334-80.42-0.37334-80.42 18.373 0.13498c10.105 0.0742 21.973-0.37493 26.373-0.99814 5.2903-0.74932-0.91936-0.9256-18.333-0.52043l-26.333 0.6127v-11.056l139 0.26493c76.45 0.14571 134.5 0.42607 129 0.62303s-17.5 1.2698-26.667 2.3841c-37.729 4.5864-80.288 5.2714-129.61 2.0861-20.508-1.3243-24.054-1.2539-28.405 0.5643-2.7347 1.1426-8.9489 2.1485-13.809 2.2352-4.8604 0.0868-10.637 0.64428-12.837 1.2389-2.3821 0.64387 1.1233 0.79889 8.6667 0.38327 6.9667-0.38385 15.376-1.4672 18.687-2.4075 4.904-1.3925 11.001-1.387 32.88 0.0296 43.868 2.8404 93.226 1.9301 121.1-2.2336 5.1333-0.7668 19.833-1.936 32.667-2.5982 12.833-0.66218 26.804-1.5874 31.046-2.0561l7.7125-0.85212-0.37916 87.836-0.37916 87.836-4 7.9159c-5.4567 10.799-14.181 19.36-25.315 24.842l-9.2935 4.5757-112.7 0.25827c-86.367 0.19796-114.12-0.12903-118.79-1.3998z" fill="#344a40"/>
  <path d="m49.333 310.18c-3.3-0.9172-7.8-2.6594-10-3.8715-3.7418-2.0616 4.3927-2.2002 126-2.1462l130 0.0577-7.3333 3.5556-7.3333 3.5555-112.67 0.25826c-86.742 0.19883-114.05-0.12546-118.67-1.4094zm-23.6-14.551c-7.1935-7.606-8.903-10.276-11.757-18.365l-1.858-5.2662h153.27c107.35 0 153.27 0.42468 153.27 1.4173 0 3.6671-7.9726 17.071-13.58 22.832l-6.2468 6.4174h-266.45zm-14.178-27.187c-0.48889-0.48888-0.88889-7.3889-0.88889-15.333v-14.444h309.33v30.667h-153.78c-84.578 0-154.18-0.4-154.67-0.88889zm-0.88889-47.778v-15.333h309.33v30.667h-309.33zm0-32.667v-14.667h309.33v29.333h-309.33zm0-34v-16.667h309.33v33.333h-309.33zm0-31.419v-12.086l18.333 0.13428c10.083 0.0739 21.933-0.37563 26.333-0.99884 5.2903-0.74932-0.91936-0.9256-18.333-0.52043l-26.333 0.6127v-11.056l139 0.26493c76.45 0.14571 134.5 0.42607 129 0.62303s-17.5 1.2698-26.667 2.3841c-37.729 4.5864-80.288 5.2714-129.61 2.0861-20.508-1.3243-24.054-1.2539-28.405 0.5643-2.7347 1.1426-8.9489 2.1485-13.809 2.2352-4.8604 0.0868-10.637 0.64428-12.837 1.2389-2.3821 0.64387 1.1233 0.79889 8.6667 0.38327 6.9667-0.38385 15.376-1.4672 18.687-2.4075 4.904-1.3925 11.001-1.387 32.88 0.0296 43.868 2.8404 93.226 1.9301 121.1-2.2336 5.1333-0.7668 19.833-1.936 32.667-2.5982 12.833-0.66218 26.783-1.5857 31-2.0523l7.6667-0.84828v36.33h-309.33z" fill="#343427"/>
  <path d="m47.979 309.52c-17.084-5.512-18.585-5.4433 117.35-5.3695l130 0.0705-7.3333 3.5556-7.3333 3.5555-112.67 0.28037c-104.83 0.26088-113.18 0.11533-120.02-2.0926zm-23.06-14.813c-4.5398-4.9035-8.3767-10.662-9.995-15l-2.6267-7.0413 152.73-0.33898c84.004-0.18644 153.01-0.066 153.34 0.26757 1.5419 1.5419-7.9192 18.074-13.587 23.742l-6.3295 6.3295h-266.17zm-13.363-26.264c-0.48889-0.48888-0.88889-7.3889-0.88889-15.333v-14.444h309.33v30.667h-153.78c-84.578 0-154.18-0.4-154.67-0.88889zm-0.88889-47.778v-15.333h309.33v30.667h-309.33zm0-32.667v-14.667h309.33v29.333h-309.33zm0-34v-16.667h309.33v33.333h-309.33zm0-30.667v-11.333h20c11 0 20.005-0.45 20.011-1 0.0059-0.55 8.2558-1.1682 18.333-1.3737 11.007-0.22448 21.074-1.1582 25.213-2.3387 5.7203-1.6314 10.157-1.733 26.13-0.59857 45.721 3.2472 92.196 2.5378 132.31-2.0197 9.5333-1.083 26.933-2.5921 38.667-3.3536 11.733-0.76144 22.983-1.7389 25-2.1722l3.6667-0.78781v36.311h-309.33zm0.0424-16.813c0.02332-1.7528 0.83947-4.2369 1.8137-5.5202 1.6671-2.1961 9.332-2.3227 130.29-2.1523 70.686 0.09957 124.16 0.6389 118.83 1.1985-5.3279 0.5596-10.607 1.3706-11.732 1.8022-1.1248 0.43161-11.766 1.4998-23.646 2.3739-25.387 1.8676-61.208 1.7272-100.35-0.39334-22.851-1.2379-28.691-1.1961-31.333 0.22446-3.6675 1.9715-22.259 3.4771-58.915 4.7712l-25 0.88259zm263.64-7.4633c1.6586-0.31892 4.0586-0.30682 5.3333 0.02691 1.2748 0.33372-0.0823 0.59466-3.0155 0.57986-2.9333-0.0148-3.9763-0.28785-2.3178-0.60677z" fill="#24241b"/>
  <path d="m47.489 309.35c-4.3141-1.378-8.4841-3.1458-9.2667-3.9283-1.0082-1.0082 36.248-1.4072 127.84-1.3694 119.6 0.0493 128.97 0.21395 125.3 2.1999-10.394 5.6242-12.485 5.7176-126.7 5.6592-103.23-0.0528-109.77-0.19574-117.18-2.5614zm-20.338-12.351c-7.0857-7.4304-10.778-12.941-13.12-19.579l-1.9128-5.4214h306.73l-0.9292 3c-2.1975 7.095-7.5568 15.762-13.293 21.499l-6.1678 6.1679h-265.9zm-15.675-29.776c-0.44512-1.16-0.80932-8.06-0.80932-15.333v-13.224h309.33v30.667h-153.86c-139.07 0-153.94-0.20273-154.67-2.109zm-0.80932-46.558v-15.333h309.33v30.667h-309.33zm0-32.667v-14.667h309.33v29.333h-309.33zm0-34v-16.667h309.33v33.333h-309.33zm0-30.333v-11l20.333-0.03547c26.651-0.0465 51.651-1.7344 61.919-4.1806 6.9116-1.6465 12.437-1.7419 34-0.58664 51.267 2.7466 96.577 2.0519 123.08-1.8869 6.6-0.98085 20.7-2.1703 31.333-2.6432 17.869-0.7947 32.082-2.4256 36.75-4.2169 1.6091-0.61745 1.9169 2.1778 1.9169 17.407v18.143h-309.33zm0.40689-16.667c0.21459-1.2833 1.1402-3.6987 2.0568-5.3675l1.6667-3.0342 39.968 0.10769c29.026 0.07821 39.717 0.51464 39.049 1.5941-0.6451 1.0438-0.15874 1.1212 1.6334 0.25982 1.4036-0.67463 15.994-1.399 32.423-1.6096 28.517-0.36568 29.787-0.27501 28.023 2-1.7667 2.278-1.727 2.2801 0.90047 0.0497 3.4455-2.9248 25.378-3.5403 23.755-0.66667-0.75276 1.3333-0.58184 1.3333 0.85465 0 1.1578-1.0746 6.0215-1.6667 13.692-1.6667 11.13 0 11.78 0.15044 10.09 2.3333-1.7209 2.2222-1.6761 2.2222 0.94172 0 2.9212-2.4798 7.9263-3.2452 6.5387-1-1.168 1.8898 1.1189 1.6561 3.2623-0.33333 1.4603-1.3554 1.5868-1.2932 0.6774 0.33333-0.89445 1.5998-0.73349 1.6978 0.80439 0.48968 1.222-0.95996 9.2106-1.5506 21.923-1.6209 13.111-0.07249 19.256 0.32237 17.84 1.1464-1.1881 0.69132-5.7972 1.51-10.242 1.8194s-8.6079 0.88733-9.2505 1.2845c-0.64257 0.39713-5.6335 0.70533-11.091 0.68488-5.4574-0.0204-10.223 0.0753-10.589 0.21275-1.3388 0.5019-16.83 1.74-22.667 1.8116-13.573 0.16647-73.429-1.9894-83.333-3.0015-7.8246-0.79955-11.821-0.62894-15 0.64033-2.3833 0.95165-4.3333 1.3874-4.3333 0.96839s-0.75-0.1912-1.6667 0.5063c-0.91667 0.69751-4.3667 1.3289-7.6667 1.403-3.3 0.0742-11.022 0.53684-17.161 1.0282-8.8658 0.70961-10.945 0.54435-10.112-0.80363 0.58637-0.94876-0.35526-0.71351-2.1357 0.53357-2.6158 1.8322-6.5827 2.2305-22.213 2.2305-17.382 0-18.995-0.20189-18.638-2.3333zm45.683-5.8121c0.4978-0.80545-0.66878-0.43322-2.5924 0.82719-1.9236 1.2604-3.4975 2.5438-3.4975 2.8519 0 0.9645 5.1386-2.1399 6.0899-3.6791zm29.243 0.14548c0.45322-0.73334 0.22404-1.3333-0.50929-1.3333s-1.7042 0.6-2.1574 1.3333c-0.45322 0.73333-0.22404 1.3333 0.50929 1.3333 0.73333 0 1.7042-0.6 2.1574-1.3333zm176.35-2.2764c1.6586-0.31892 4.0586-0.30682 5.3333 0.02691 1.2748 0.33372-0.0823 0.59466-3.0155 0.57986-2.9333-0.0148-3.9763-0.28785-2.3178-0.60677zm11.318 0.02392c1.2833-0.33537 3.3833-0.33537 4.6667 0 1.2833 0.33537 0.23334 0.60976-2.3333 0.60976s-3.6167-0.27439-2.3333-0.60976z" fill="#1d1d17"/>
  <path d="m50.667 310.17c-3.3-0.909-7.8-2.6445-10-3.8566-3.7428-2.0622 4.3171-2.206 125.33-2.2369 85.73-0.0219 128.66 0.4117 127.33 1.286-1.1 0.72542-5.8132 2.5162-10.474 3.9796-8.1883 2.571-12.141 2.6576-117.33 2.5706-82.244-0.068-110.33-0.49407-114.86-1.7427zm-23.35-12.991c-3.4816-3.2092-7.9334-9.4419-10.714-15l-4.7574-9.5093 152.96-0.33898c84.128-0.18644 153.22-0.0748 153.55 0.24794 1.528 1.528-6.9541 16.219-13.141 22.761l-6.9322 7.3298h-265.01zm-15.841-29.952c-0.44512-1.16-0.80932-8.06-0.80932-15.333v-13.224h309.33v30.667h-153.86c-139.07 0-153.94-0.20273-154.67-2.109zm-0.80932-46.558v-15.333h309.33v30.667h-309.33zm0-32.667v-14.667h309.33v29.333h-309.33zm0-34v-16.667h309.33v33.333h-309.33zm-0.001894-29.667-0.001893-10.333l18.742 0.4354c10.627 0.24687 19.432-0.11596 20.335-0.83798 0.87612-0.70036 7.2929-1.3836 14.26-1.5184s16.867-0.91708 22-1.7384c11.166-1.7866 27.319-1.8805 72.667-0.42267 18.7 0.60118 34.9 1.1095 36 1.1297 5.7169 0.10469 49.77-3.3923 56.667-4.4983 4.4-0.7056 16.1-1.589 26-1.963 18.826-0.71128 36.362-2.8104 40.333-4.8281 2.1657-1.1002 2.3333 0.11135 2.3333 16.862v18.047h-309.33l-0.0019-10.333zm9.6686-17.324c5.6833-0.24993 14.983-0.24993 20.667 0 5.6833 0.24994 1.0333 0.45443-10.333 0.45443-11.367 0-16.017-0.20449-10.333-0.45443zm32.423-1.8239c0.27797-0.44823 9.0893-1.1064 19.581-1.4625 10.491-0.35617 20.258-1.2805 21.703-2.0541 3.0084-1.6101 31.365-2.8545 30.422-1.335-1.0958 1.7666 20.194 1.1275 22.206-0.66667 1.59-1.4179 1.6055-1.3184 0.10346 0.66667-1.6652 2.2006-0.43824 2.3333 21.568 2.3333 19.114 0 23.633-0.36165 24.993-2 0.92061-1.1093 3.517-1.905 5.8299-1.7866l4.1701 0.21338-4.234 0.53036c-2.3287 0.2917-5.0287 1.4914-6 2.666-1.5923 1.9256-1.1102 2.0516 4.9007 1.2804 8.6518-1.1099 34.245-3.2239 48.667-4.0197 8.8083-0.4861 9.848-0.38219 4.6667 0.46638-3.6667 0.6005-16.267 1.781-28 2.6232-11.733 0.84226-23.867 2.0093-26.964 2.5934-3.3139 0.62503-5.3238 0.56547-4.8848-0.14477 0.43785-0.70847-9.16-1.0447-23.244-0.81437-13.195 0.2158-23.672-0.1201-23.284-0.74643 0.38832-0.62635-4.7112-0.92635-11.332-0.66667-6.6211 0.25967-11.76 0.0221-11.419-0.52786 0.99335-1.6042-24.765-1.1507-27.831 0.49003-2.8937 1.5487-42.507 3.7966-41.617 2.3617zm-40.169-2.8517 2.3862-3.6667 36.18 0.25248c33.186 0.23158 34.801 0.34489 19.513 1.3692-9.1667 0.61421-25.643 1.432-36.614 1.8173-12.524 0.43982-20.674 1.2949-21.9 2.2974-1.3047 1.0673-1.1607 0.38091 0.43413-2.0698z" fill="#11110c"/>
  <path d="m50.667 310.17c-3.3-0.909-7.8-2.6445-10-3.8566-3.7428-2.0622 4.3171-2.206 125.33-2.2369 85.73-0.0219 128.66 0.4117 127.33 1.286-1.1 0.72542-5.8132 2.5162-10.474 3.9796-8.1883 2.571-12.141 2.6576-117.33 2.5706-82.244-0.068-110.33-0.49407-114.86-1.7427zm-23.35-12.991c-3.4816-3.2092-7.9334-9.4419-10.714-15l-4.7574-9.5093 152.96-0.33898c84.128-0.18644 153.22-0.0748 153.55 0.24794 1.528 1.528-6.9541 16.219-13.141 22.761l-6.9322 7.3298h-265.01zm-15.841-29.952c-0.44512-1.16-0.80932-8.06-0.80932-15.333v-13.224h309.33v30.667h-153.86c-139.07 0-153.94-0.20273-154.67-2.109zm-0.80932-46.558v-15.333h309.33v30.667h-309.33zm0-32.667v-14.667h309.33v29.333h-309.33zm0-34v-16.667h309.33v33.333h-309.33zm0-28.667v-9.3333h19.902c17.833 0 19.966-0.24255 20.512-2.3333 0.44314-1.6957 0.65203-1.7831 0.76443-0.31973 0.13373 1.741 2.5464 1.8788 17.821 1.018 9.7167-0.54758 20.783-1.9239 24.593-3.0585 5.9639-1.7763 9.7617-1.8542 27.333-0.56089 45.062 3.3166 90.586 2.5671 131.74-2.169 9.1667-1.0549 22.367-1.917 29.333-1.9158 11.621 2e-3 32.938-2.7686 36.037-4.6837 0.81321-0.5026 1.2963 5.4392 1.2963 15.944v16.745h-309.33zm9.6667-18.324c5.6833-0.24993 14.983-0.24993 20.667 0 5.6833 0.24994 1.0333 0.45443-10.333 0.45443-11.367 0-16.017-0.20449-10.333-0.45443zm40-2.6609c4.2167-0.2646 11.117-0.2646 15.333 0 4.2167 0.2646 0.76667 0.48109-7.6667 0.48109s-11.883-0.21649-7.6667-0.48109zm84.536-0.68135c0.34164-0.55-4.3642-1.1208-10.458-1.2683l-11.079-0.26832 10.604-0.45929c5.8319-0.25261 11.532-1.1819 12.667-2.065 1.8034-1.4036 1.8369-1.3169 0.26612 0.68801-1.6774 2.141-0.61205 2.3188 16 2.6706l17.797 0.37689-18.209 0.66272c-10.015 0.36449-17.93 0.21271-17.588-0.33729zm51.797 0.36848c4.0525-1.0668 16.244-1.7749 15.222-0.88412-0.30556 0.2664-4.7556 0.81122-9.8889 1.2107-5.6611 0.44057-7.7595 0.31206-5.3333-0.32661zm-110.32-0.97816c1.6586-0.31893 4.0586-0.30682 5.3333 0.0269 1.2748 0.33373-0.08221 0.59467-3.0155 0.57987-2.9333-0.0148-3.9763-0.28785-2.3178-0.60677zm97.318 2e-3c1.65-0.31781 4.35-0.31781 6 0 1.65 0.3178 0.3 0.57782-3 0.57782s-4.65-0.26002-3-0.57782zm-169.48-2.3923c0.65952-1.7187 5.764-1.9595 36.291-1.7117 19.538 0.15856 28.174 0.47703 19.191 0.7077-9.3657 0.24049-16.333 0.97069-16.333 1.7117 0 0.77662-7.9641 1.2923-19.958 1.2923-17.193 0-19.852-0.27712-19.191-2zm202.84 1.0337c2.3965-0.29675 5.9965-0.29062 8 0.0136 2.0035 0.30423 0.0428 0.54703-4.3572 0.53954-4.4-7e-3 -6.0393-0.2564-3.6428-0.55315zm-109.32-1.345c3.136-0.28166 7.936-0.2777 10.667 9e-3 2.7306 0.28651 0.16475 0.51696-5.7019 0.51212-5.8667-5e-3 -8.1008-0.23926-4.9648-0.52092zm125.96 7e-3c2.75-0.28766 7.25-0.28766 10 0 2.75 0.28765 0.5 0.52301-5 0.52301s-7.75-0.23536-5-0.52301zm-35.975-1.286c1.2973-0.33806 3.0973-0.31582 4 0.0494 0.90271 0.36523-0.15871 0.64182-2.3587 0.61465-2.2-0.02717-2.9386-0.326-1.6413-0.66406zm53.308 0.004604c1.2833-0.33537 3.3833-0.33537 4.6667 0 1.2833 0.33537 0.23333 0.60976-2.3333 0.60976-2.5667 0-3.6167-0.27439-2.3333-0.60976z" fill="#150802"/>
  <path d="m54.333 311.08c-1.4137-0.36943-2.3333-1.885-2.3333-3.8453v-3.2356l121.67 0.0204c80.693 0.0136 120.99 0.4646 119.67 1.3394-1.1 0.72543-5.8132 2.5162-10.474 3.9796-8.1959 2.5734-12.044 2.6556-117.33 2.506-59.873-0.0851-109.91-0.42906-111.19-0.76443zm-11-3.6596-6.6667-3.211 7-0.1052c6.6058-0.0992 7 0.0825 7 3.2282 0 1.8333-0.15 3.3256-0.33333 3.3162-0.18333-9e-3 -3.3333-1.4621-7-3.2282zm-15.403-9.6432c-5.5554-5.019-10.203-11.977-13.878-20.778l-2.0879-5h38.702v30.667h-8.6628c-8.1025 0-9.0128-0.31621-14.074-4.8885zm24.07-10.445v-15.333h266.85l-0.9276 3c-2.0671 6.6853-6.5655 13.843-12.926 20.569l-6.7128 7.0978h-246.28zm-40.524-20.109c-0.44512-1.16-0.80932-8.06-0.80932-15.333v-13.224h40v30.667h-19.191c-16.269 0-19.314-0.32105-20-2.109zm40.524-13.224v-15.333h268v30.667h-268zm-41.333-33.333v-15.333h40v30.667h-40zm41.333 0v-15.333h268v30.667h-268zm-41.333-32.667v-14.667h40v29.333h-40zm41.333 0v-14.667h268v29.333h-268zm-41.333-34v-16.667h40v33.333h-40zm41.333 0v-16.667h268v33.333h-268zm-41.333-28.667v-9.3333h40v18.667h-40zm41.608-0.33334l0.39175-9.6667 6-0.1954c14.991-0.48821 30.519-2.1919 36.166-3.9682 5.194-1.6338 9.3969-1.7017 26.667-0.43083 45.161 3.3233 90.65 2.5772 131.83-2.1624 9.1667-1.0549 22.367-1.917 29.333-1.9158 11.621 2e-3 32.938-2.7686 36.037-4.6837 0.81321-0.5026 1.2963 5.4392 1.2963 15.944v16.745h-268.12zm-31.942-17.991c5.6833-0.24993 14.983-0.24993 20.667 0 5.6833 0.24994 1.0333 0.45443-10.333 0.45443-11.367 0-16.017-0.20449-10.333-0.45443zm40-2.6609c4.2167-0.2646 11.117-0.2646 15.333 0 4.2167 0.2646 0.76667 0.48109-7.6667 0.48109s-11.883-0.21649-7.6667-0.48109zm84.536-0.68135c0.34164-0.55-4.3642-1.1208-10.458-1.2683l-11.079-0.26832 10.604-0.45929c5.8319-0.25261 11.532-1.1819 12.667-2.065 1.8034-1.4036 1.8369-1.3169 0.26612 0.68801-1.6774 2.141-0.61205 2.3188 16 2.6706l17.797 0.37689-18.209 0.66272c-10.015 0.36449-17.93 0.21271-17.588-0.33729zm51.797 0.36848c4.0525-1.0668 16.244-1.7749 15.222-0.88412-0.30556 0.2664-4.7556 0.81122-9.8889 1.2107-5.6611 0.44057-7.7595 0.31206-5.3333-0.32661zm-110.32-0.97816c1.6586-0.31893 4.0586-0.30682 5.3333 0.0269 1.2748 0.33373-0.08221 0.59467-3.0155 0.57987-2.9333-0.0148-3.9763-0.28785-2.3178-0.60677zm97.318 2e-3c1.65-0.31781 4.35-0.31781 6 0 1.65 0.3178 0.3 0.57782-3 0.57782s-4.65-0.26002-3-0.57782zm-169.48-2.3923c0.65952-1.7187 5.764-1.9595 36.291-1.7117 19.538 0.15856 28.174 0.47703 19.191 0.7077-9.3657 0.24049-16.333 0.97069-16.333 1.7117 0 0.77662-7.9641 1.2923-19.958 1.2923-17.193 0-19.852-0.27712-19.191-2zm202.84 1.0337c2.3965-0.29675 5.9965-0.29062 8 0.0136 2.0035 0.30423 0.0428 0.54703-4.3572 0.53954-4.4-7e-3 -6.0393-0.2564-3.6428-0.55315zm-109.32-1.345c3.136-0.28166 7.936-0.2777 10.667 9e-3 2.7306 0.28651 0.16475 0.51696-5.7019 0.51212-5.8667-5e-3 -8.1008-0.23926-4.9648-0.52092zm125.96 7e-3c2.75-0.28766 7.25-0.28766 10 0 2.75 0.28765 0.5 0.52301-5 0.52301s-7.75-0.23536-5-0.52301zm-35.975-1.286c1.2973-0.33806 3.0973-0.31582 4 0.0494 0.90271 0.36523-0.15871 0.64182-2.3587 0.61465-2.2-0.02717-2.9386-0.326-1.6413-0.66406zm53.308 0.004604c1.2833-0.33537 3.3833-0.33537 4.6667 0 1.2833 0.33537 0.23333 0.60976-2.3333 0.60976-2.5667 0-3.6167-0.27439-2.3333-0.60976z" fill="#070705"/>
 </g>
</svg>
