<?xml version="1.0" encoding="UTF-8" standalone="no"?>
<svg
   xmlns:dc="http://purl.org/dc/elements/1.1/"
   xmlns:cc="http://creativecommons.org/ns#"
   xmlns:rdf="http://www.w3.org/1999/02/22-rdf-syntax-ns#"
   xmlns:svg="http://www.w3.org/2000/svg"
   xmlns="http://www.w3.org/2000/svg"
   xmlns:sodipodi="http://sodipodi.sourceforge.net/DTD/sodipodi-0.dtd"
   xmlns:inkscape="http://www.inkscape.org/namespaces/inkscape"
   width="20"
   height="20"
   version="1.1"
   viewBox="0 0 20 20.000206"
   id="svg66"
   sodipodi:docname="task_remark_blue_20x20.svg"
   inkscape:version="0.92.2 5c3e80d, 2017-08-06">
  <metadata
     id="metadata72">
    <rdf:RDF>
      <cc:Work
         rdf:about="">
        <dc:format>image/svg+xml</dc:format>
        <dc:type
           rdf:resource="http://purl.org/dc/dcmitype/StillImage" />
        <dc:title></dc:title>
      </cc:Work>
    </rdf:RDF>
  </metadata>
  <defs
     id="defs70" />
  <sodipodi:namedview
     pagecolor="#ffffff"
     bordercolor="#666666"
     borderopacity="1"
     objecttolerance="10"
     gridtolerance="10"
     guidetolerance="10"
     inkscape:pageopacity="0"
     inkscape:pageshadow="2"
     inkscape:window-width="919"
     inkscape:window-height="727"
     id="namedview68"
     showgrid="false"
     inkscape:zoom="16.41432"
     inkscape:cx="17.809434"
     inkscape:cy="14.30042"
     inkscape:window-x="0"
     inkscape:window-y="0"
     inkscape:window-maximized="0"
     inkscape:current-layer="svg66" />
  <g
     transform="matrix(0.06033704,0,0,0.06200843,0.05279189,-0.24255992)"
     id="g64"
     style="stroke-width:1.33329999">
    <path
       d="M 28.3,320.45 C 14.145,310.8455 3.888,294.158 1.387,276.665 -0.3944,264.205 -0.3944,71.795 1.387,59.335 4.8321,35.238 22.065,15.247 46.098,7.467 c 6.0971,-1.9738 18.133,-2.1541 122,-1.8276 l 115.24,0.36224 10.228,4.8843 c 18.512,8.8402 31.989,26.107 35.734,45.782 1.0857,5.7035 1.4053,39.194 1.1136,116.67 l -0.40925,108.67 -4.3589,10.096 c -4.9858,11.548 -14.315,22.825 -24.051,29.073 l -6.4903,4.1648 -129.88,-0.0546 -129.88,-0.0546 z"
       id="path2"
       inkscape:connector-curvature="0"
       style="fill:#f2f2f3" />
    <path
       d="M 34.665,321.42 C 25.8193,316.85 14.875,305.625 10.124,296.25 2.556,281.315 2.6663,283.212 2.6663,168 2.6663,53.02 2.572605,54.66 10.0097,39.98 15.3113,29.518 29.4797,15.418 39.7927,10.341 l 8.8176,-4.3409 h 233.45 l 8.8998,4.3813 c 14.06,6.9217 27.774,22.222 33.517,37.395 2.8289,7.4734 2.8646,8.7683 3.2244,116.87 0.24932,74.917 -0.0924,111.51 -1.0861,116.29 -3.3215,16 -15.148,31.902 -30.107,40.482 l -6.829,3.9169 -123.84,-0.0641 -123.84,-0.0642 z"
       id="path4"
       inkscape:connector-curvature="0"
       style="fill:#ebebec" />
    <path
       d="M 37.604,320.62 C 19.914,311.7701 8.032,294.624 5.267,273.958 4.32976,266.9527 3.998,228.359 4.29325,160.668 4.73514,59.338 4.7785,57.898 7.61365,50.388 c 7.434,-19.7 18.754,-33.432 33.555,-40.704 L 48.66735,6 h 233.33 l 7.6241,3.5734 c 14.468,6.7812 27.535,22.639 33.862,41.093 2.3836,6.9528 2.5141,13.041 2.5141,117.33 0,104.32 -0.13,110.38 -2.5156,117.33 -5.6751,16.544 -15.863,28.297 -30.78,35.507 l -9.2957,4.4932 h -236.38 z"
       id="path6"
       inkscape:connector-curvature="0"
       style="fill:#e3e3e3" />
    <path
       d="M 49.333,323.79 C 29.709,318.2586 13.179,301.901 8.081,282.967 7.0382,279.0942 6.6006,244.854 6.6252,169.047 6.644525,109.436 6.91788,59.467 7.23266,57.997 c 1.262,-5.8802 6.0609,-19.363 8.8096,-24.751 4.1913,-8.2156 15.352,-18.79 24.624,-23.331 l 8,-3.9181 h 233.39 l 8.8502,4.3569 c 12.409,6.1087 21.998,16.74 27.471,30.456 2.3089,5.7862 4.6684,12.92 5.2434,15.854 0.57503,2.9333 1.0455,53.933 1.0455,113.33 0,100.32 -0.1708,108.54 -2.4005,115.57 -1.3203,4.1647 -3.5703,9.0594 -5,10.877 -1.4297,1.8176 -2.5995,3.6953 -2.5995,4.1728 0,1.6458 -11.223,12.838 -15.564,15.521 -2.3928,1.4788 -8.0497,4.1385 -12.571,5.9103 l -8.2202,3.2215 -112.16,-0.0833 c -69.442,-0.0515 -113.93,-0.58416 -116.82,-1.3986 z"
       id="path8"
       inkscape:connector-curvature="0"
       style="fill:#dbdbe2" />
    <path
       d="M 56,324.43 C 34.49,320.9254 16.101,305.086 9.788,284.627 7.4885,277.174 7.3329,269.779 7.3329,168.007 V 59.337 l 3.155,-11.033 c 3.4604,-12.101 10.516,-24.199 17.613,-30.2 2.5108,-2.1228 8.465,-5.7139 13.232,-7.9801 l 8.6667,-4.1205 h 232 l 7.3333,3.5005 c 14.812,7.0702 24.763,18.718 30.51,35.712 l 3.4229,10.121 0.41187,107.79 c 0.26753,70.016 -0.0696,110.43 -0.9619,115.33 -4.1468,22.776 -22.773,41.129 -46.12,45.445 -7.3713,1.3627 -212.46,1.8525 -220.6,0.52688 z"
       id="path10"
       inkscape:connector-curvature="0"
       style="fill:#d7d7d9" />
    <path
       d="M 56,323.1 C 32.062,318.9594 13.674,301.181 9.448,278.091 8.4873,272.8422 8.0016,235.82 8.005,168.091 8.01055,56.391 8.40578,49.371 15.5123,34.851 c 4.9624,-10.143 14.581,-19.418 25.5,-24.59 L 50,6.0035 h 232 l 7.5896,3.727 c 17.279,8.4854 28.974,24.813 31.711,44.273 0.7704,5.4773 1.3237,53.215 1.3392,115.55 0.0248,99.637 -0.12626,106.71 -2.4399,114.14 -5.2108,16.742 -18.17,30.572 -34.387,36.696 l -7.8136,2.9507 -109.33,0.17033 c -60.133,0.0937 -110.83,-0.0891 -112.67,-0.40622 z"
       id="path12"
       inkscape:connector-curvature="0"
       style="fill:#ceced0" />
    <path
       d="M 48.634,320.18 C 29.843,314.7974 14.289,297.771 10.654,278.603 8.8507,269.0944 8.8796,58.783 10.68553,49.183 c 3.1855,-16.922 14.479,-31.417 30.327,-38.924 l 8.9877,-4.2575 h 232 l 7.5896,3.727 c 11.624,5.7081 20.27,14.267 25.881,25.622 4.6252,9.3584 4.897,10.679 5.9484,28.895 1.4346,24.854 1.4391,185.61 0.005,203.76 -1.7264,21.86 -10.044,36.843 -25.7,46.293 -14.14,8.5352 -11.744,8.3838 -131.01,8.2789 -98.160998,-0.0863 -108.789998,-0.30567 -116.089998,-2.396 z"
       id="path14"
       inkscape:connector-curvature="0"
       style="fill:#c7c7ca" />
    <path
       d="M 52,319.48 C 32.78,315.2066 18.584,301.361 12.205,280.667 10.4433,274.9516 10.0825,258.541 9.6764,165.657 9.35959,93.181 9.6697671,54.777 10.6133,49.657 13.7802,32.472 25.0883,17.803 40.9663,10.282 L 50,6.003 163.23,5.64029 c 101.89,-0.32638 113.91,-0.14391 120,1.8216 14.993,4.8403 26.217,14.87 33.248,29.71 l 4.1843,8.8312 v 229.33 l -3.0892,8.5561 c -7.1614,19.835 -21.428,32.396 -40.876,35.991 -11.642,2.1521 -214.85,1.7891 -224.7,-0.40139 z"
       id="path16"
       inkscape:connector-curvature="0"
       style="fill:#b9b9c7" />
    <path
       d="m 51.49,318.54 c -7.9865,-1.9087 -20.379,-9.0563 -25.468,-14.69 -5.4835,-6.0696 -11.307,-17.129 -12.031,-22.848 -0.28659,-2.2645 -1.1126,-5.6661 -1.8356,-7.5591 -1.7324,-4.5359 -2.8947,-212.66 -1.2471,-223.32 2.6084,-16.875 13.844,-31.718 30.047,-39.695 L 49.9436,6.003 h 230.86 l 10.177,5.0298 c 15.768,7.7929 25.687,20.691 28.978,37.681 1.1099,5.7307 1.419,37.786 1.1055,114.62 -0.38193,93.585 -0.69473,107.32 -2.5506,112 -1.1634,2.9333 -1.8273,6.1668 -1.4752,7.1856 0.42769,1.2378 0.072,1.5012 -1.0723,0.79399 -1.1165,-0.69003 -1.3846,-0.52798 -0.77045,0.46569 1.5184,2.4568 -3.6386,12.348 -10.255,19.669 -3.8724,4.2849 -9.4678,8.4564 -15.202,11.333 l -9.0736,4.5526 -112,0.22129 c -65.105,0.12867 -114.17,-0.29669 -117.18,-1.0158 z"
       id="path18"
       inkscape:connector-curvature="0"
       style="fill:#b5b5b8" />
    <path
       d="M 54.902,317.24 C 45.6653,315.4223 35.256,309.9953 29.072,303.773 23.4868,298.1536 14.958,282.748 12.22,273.333 10.4993,267.4161 9.2557,62.723 10.8686,50.893 13.2204,33.643 24.4396,18.551 40.9566,10.42 l 8.9883,-4.4249 h 230.86 l 10.177,5.0298 c 15.375,7.5985 25.376,20.322 28.852,36.703 1.845,8.6955 2.0633,206 0.24188,218.59 -0.66203,4.5772 -2.7225,11.64 -4.5789,15.695 -1.8564,4.0548 -3.477,7.8098 -3.6015,8.3445 -0.57134,2.4546 -8.2331,12.352 -12.044,15.559 -5.9867,5.0375 -15.34,9.4979 -23.584,11.247 -8.4655,1.7962 -212.27,1.863 -221.37,0.0725 z"
       id="path20"
       inkscape:connector-curvature="0"
       style="fill:#9494ec" />
    <path
       d="m 55.026,317.26 c -7.4057,-1.4616 -16.489,-5.5407 -22.432,-10.073 -4.6746,-3.5655 -13.389,-14.838 -12.307,-15.92 0.29976,-0.29976 3.1825,2.1424 6.4061,5.427 5.8025,5.9123 5.9517,5.972 14.917,5.972 h 9.0557 v -30.667 h -19.255 c -11.398,0 -19.591,-0.54404 -20.079,-1.3333 -0.53543,-0.86634 6.2084,-1.3333 19.255,-1.3333 h 20.079 v -30.667 h -20 c -12.444,0 -20,-0.50371 -20,-1.3333 0,-0.82963 7.5556,-1.3333 20,-1.3333 h 20 v -30.667 h -20 c -12.444,0 -20,-0.50371 -20,-1.3333 0,-0.82962 7.5556,-1.3333 20,-1.3333 h 20 v -29.333 h -20 c -12.444,0 -20,-0.50371 -20,-1.3333 0,-0.82962 7.5556,-1.3333 20,-1.3333 h 20 v -33.333 h -20 c -12.444,0 -20,-0.50371 -20,-1.3333 0,-0.82962 7.5556,-1.3333 20,-1.3333 h 20 v -18.667 h -40 v -7.9305 l 20.333,-0.40548 20.333,-0.40548 -20.152,-0.29591 -20.152,-0.29592 -0.8479,-6.1861 c -1.2797,-9.3368 -0.96791,-38.618 0.52094,-48.916 2.6091,-18.046 13.541,-32.912 30.253,-41.139 l 8.9883,-4.4249 h 230.86 l 10.177,5.0298 c 15.375,7.5985 25.376,20.322 28.852,36.703 0.82455,3.8861 1.4992,16.863 1.4992,28.837 0,17.741 -0.37081,22.079 -2.0032,23.434 -3.238,2.6873 -17.746,5.227 -30.663,5.3677 -6.6,0.0719 -17.1,0.66708 -23.333,1.3226 -55.871,5.8757 -80.922,6.5698 -134.89,3.7376 -24.258,-1.273 -31.34,-1.251 -35.889,0.11179 -3.1168,0.93382 -11.267,2.032 -18.111,2.4403 l -12.444,0.74244 v 20.942 h 128.67 c 84.889,0 128.67,0.45365 128.67,1.3333 0,0.87965 -43.778,1.3333 -128.67,1.3333 h -128.67 v 33.333 h 128.67 c 84.889,0 128.67,0.45365 128.67,1.3333 0,0.87965 -43.778,1.3333 -128.67,1.3333 h -128.67 v 29.333 h 128.67 c 84.889,0 128.67,0.45365 128.67,1.3333 0,0.87965 -43.778,1.3333 -128.67,1.3333 h -128.67 v 30.667 h 128.67 c 84.889,0 128.67,0.45366 128.67,1.3333 0,0.87964 -43.778,1.3333 -128.67,1.3333 h -128.67 v 30.667 h 128 c 84.444,0 128,0.45371 128,1.3333 0,0.87963 -43.556,1.3333 -128,1.3333 h -128 v 30.667 h 234.62 l 6.262,-6 c 3.4441,-3.3 6.4834,-6 6.7541,-6 1.3024,0 -8.0626,12.122 -11.784,15.254 -5.9867,5.0375 -15.34,9.4979 -23.584,11.247 -8.4039,1.7831 -212.24,1.8695 -221.24,0.0937 z m 7.6404,-9.2612 c 0,-3.7778 -0.2963,-4 -5.3333,-4 -4.751,0 -5.3333,0.35185 -5.3333,3.2222 0,3.5372 1.4627,4.5136 7,4.6725 3.2086,0.0921 3.6667,-0.39447 3.6667,-3.8947 z m 218.03,2.184 c 3.6849,-0.98137 8.4849,-2.7502 10.667,-3.9308 3.6729,-1.9874 -4.6047,-2.1504 -111.7,-2.1999 l -115.67,-0.0534 v 8 l 105,-0.0159 c 83.425,-0.012 106.38,-0.38245 111.7,-1.8001 z m -230.03,-2.8507 c 0,-3.1282 -0.42667,-3.3333 -6.9333,-3.3333 -7.7867,0 -7.4789,1.4471 0.96555,4.5383 2.9156,1.0673 5.4511,1.9828 5.6345,2.0345 0.18333,0.0517 0.33333,-1.4061 0.33333,-3.2394 z m 12,-20 v -15.333 h -10.667 v 30.667 h 10.667 z m 0,-33.333 v -15.333 h -10.667 v 30.667 h 10.667 z m 0,-33.333 v -15.333 h -10.667 v 30.667 h 10.667 z m 0,-32.667 v -14.667 h -10.667 v 29.333 h 10.667 z m 0,-34 v -16.667 h -10.667 v 33.333 h 10.667 z m 0,-30 c 0,-11.474 -0.26255,-11.811 -7.6667,-9.8263 -2.7676,0.7417 -3,1.5665 -3,10.648 v 9.8445 h 10.667 z m -1.6511,-19.583 c -1.2748,-0.33373 -3.6748,-0.34583 -5.3333,-0.0269 -1.6585,0.31892 -0.61554,0.59197 2.3178,0.60677 2.93334,0.0148 4.2903,-0.24614 3.0155,-0.57986 z m 17.288,-0.057 c -2.7664,-0.28864 -6.9664,-0.2838 -9.3333,0.0108 -2.367,0.29451 -0.10359,0.53066 5.0297,0.52475 5.1333,-0.006 7.07,-0.24692 4.3036,-0.53555 z m 84.566,-1.3959 c -16.612,-0.3518 -17.677,-0.52962 -16,-2.6706 1.5708,-2.0049 1.5373,-2.0916 -0.26612,-0.688 -1.1348,0.88314 -6.8348,1.8124 -12.667,2.065 l -10.604,0.4593 11.079,0.26832 c 6.0933,0.14758 10.799,0.71833 10.458,1.2683 -0.341,0.54997 7.5729,0.70178 17.588,0.33729 l 18.209,-0.66272 -17.797,-0.37689 z m 49.019,0.18669 c 1.0217,-0.89077 -11.17,-0.18269 -15.222,0.88412 -2.4262,0.63867 -0.32774,0.76718 5.3333,0.3266 5.1333,-0.3995 9.5833,-0.94433 9.8889,-1.2107 z m -120.21,-0.0671 c -1.2748,-0.33373 -3.6748,-0.34584 -5.3333,-0.0269 -1.6586,0.31892 -0.61555,0.59197 2.3178,0.60677 2.9333,0.0148 4.2903,-0.24614 3.0155,-0.57986 z m 97.984,-0.0249 c -1.65,-0.3178 -4.35,-0.3178 -6,0 -1.65,0.31781 -0.3,0.57783 3,0.57783 3.3,0 4.65,-0.26002 3,-0.57783 z m -136.33,-2.3923 c 0,-2.9824 -38.004,-2.9824 -39.149,0 -0.66113,1.7229 1.9979,2 19.191,2 16.852,0 19.958,-0.3113 19.958,-2 z m 171.69,1.0473 c -2.0035,-0.30423 -5.6035,-0.31036 -8,-0.0136 -2.3965,0.29675 -0.75721,0.54566 3.6428,0.55315 4.4,0.007 6.3607,-0.23531 4.3572,-0.53955 z m -106.66,-1.3498 c -2.7306,-0.2865 -7.5306,-0.29046 -10.667,-0.009 -3.136,0.28166 -0.90191,0.51607 4.9648,0.52092 5.8667,0.005 8.4325,-0.22561 5.7019,-0.51212 z m 125.3,-0.002 c -2.75,-0.28766 -7.25,-0.28766 -10,0 -2.75,0.28766 -0.5,0.52302 5,0.52302 5.5,0 7.75,-0.23536 5,-0.52302 z m -179.98,-1.2782 c -1.2748,-0.33372 -3.6748,-0.34583 -5.3333,-0.02691 -1.6585,0.31892 -0.61555,0.59197 2.3178,0.60677 2.9333,0.0148 4.2903,-0.24614 3.0155,-0.57986 z m 17.288,-0.05696 c -2.7664,-0.28863 -6.9664,-0.28379 -9.3333,0.0108 -2.367,0.29451 -0.1036,0.53066 5.0297,0.52475 5.1333,-0.0059 7.07,-0.24691 4.3036,-0.53554 z m 120.72,0.09848 c -0.90271,-0.36523 -2.7027,-0.38746 -4,-0.0494 -1.2973,0.33806 -0.55871,0.63688 1.6413,0.66406 2.2,0.02717 3.2614,-0.24942 2.3587,-0.61465 z m 53.975,-0.04451 c -1.2833,-0.33537 -3.3833,-0.33537 -4.6667,0 -1.2834,0.33537 -0.23333,0.60976 2.3333,0.60976 2.5667,0 3.6167,-0.27439 2.3333,-0.60976 z"
       id="path22"
       inkscape:connector-curvature="0"
       style="fill:#8d8de3" />
    <path
       d="m 55.026,317.26 c -7.4057,-1.4616 -16.489,-5.5407 -22.432,-10.073 -4.6746,-3.5655 -13.389,-14.838 -12.307,-15.92 0.29976,-0.29976 3.1825,2.1424 6.4061,5.427 5.8025,5.9123 5.9517,5.972 14.917,5.972 h 9.0557 v -30.667 h -19.255 c -11.398,0 -19.591,-0.54404 -20.079,-1.3333 -0.53543,-0.86634 6.2084,-1.3333 19.255,-1.3333 h 20.079 v -30.667 h -20 c -12.444,0 -20,-0.50371 -20,-1.3333 0,-0.82963 7.5556,-1.3333 20,-1.3333 h 20 v -30.667 h -20 c -12.444,0 -20,-0.50371 -20,-1.3333 0,-0.82962 7.5556,-1.3333 20,-1.3333 h 20 v -29.333 h -20 c -12.444,0 -20,-0.50371 -20,-1.3333 0,-0.82962 7.5556,-1.3333 20,-1.3333 h 20 v -33.333 h -20 c -12.444,0 -20,-0.50371 -20,-1.3333 0,-0.82962 7.5556,-1.3333 20,-1.3333 h 20 v -21.098 l -5.6667,0.18302 c -3.1167,0.10067 -12.117,0.0478 -20,-0.11745 -13.28,-0.27841 -14.333,-0.49393 -14.333,-2.9324 0,-2.4876 1.1153,-2.6542 20.333,-3.0374 l 20.333,-0.40548 -20.497,-0.29591 c -18.048,-0.26057 -20.298,-0.53488 -18.837,-2.2959 1.3393,-1.6138 5.4905,-2 21.497,-2 16.744,0 19.837,-0.31184 19.837,-2 0,-1.6856 -3.0318,-2 -19.286,-2 -18.628,0 -19.342,0.10237 -20.918,3 l -1.6319,3 -0.9488,-3.3333 c -1.4419,-5.0655 -1.3353,-39.467 0.15422,-49.769 2.6091,-18.046 13.541,-32.912 30.253,-41.139 l 8.9883,-4.4249 h 230.86 l 10.177,5.0298 c 15.375,7.5985 25.376,20.322 28.852,36.703 0.82455,3.8861 1.4992,16.84 1.4992,28.787 v 21.721 l -5,1.5033 c -10.048,3.0209 -19.419,4.2569 -32.277,4.2569 -7.23,0 -20.25,0.85673 -28.934,1.9038 -36.692,4.4243 -75.764,5.2556 -131.35,2.7947 -17.278,-0.76488 -26.663,-0.64991 -30.667,0.37567 -3.1728,0.81284 -11.019,1.8576 -17.435,2.3216 l -11.667,0.84367 v 22.427 h 128.67 c 84.889,0 128.67,0.45365 128.67,1.3333 0,0.87965 -43.778,1.3333 -128.67,1.3333 h -128.67 v 33.333 h 128.67 c 84.889,0 128.67,0.45365 128.67,1.3333 0,0.87965 -43.778,1.3333 -128.67,1.3333 h -128.67 v 29.333 h 128.67 c 84.889,0 128.67,0.45365 128.67,1.3333 0,0.87965 -43.778,1.3333 -128.67,1.3333 h -128.67 v 30.667 h 128.67 c 84.889,0 128.67,0.45366 128.67,1.3333 0,0.87964 -43.778,1.3333 -128.67,1.3333 h -128.67 v 30.667 h 128 c 84.444,0 128,0.45371 128,1.3333 0,0.87963 -43.556,1.3333 -128,1.3333 h -128 v 30.667 h 235.02 l 6,-6 c 3.3,-3.3 6.2499,-6 6.5553,-6 1.3506,0 -7.8997,12.038 -11.721,15.254 -5.9867,5.0375 -15.34,9.4979 -23.584,11.247 -8.4039,1.7831 -212.24,1.8695 -221.24,0.0937 z m 7.6404,-9.2612 c 0,-3.7778 -0.2963,-4 -5.3333,-4 -4.6984,0 -5.3333,0.37037 -5.3333,3.1111 0,4.1397 0.95356,4.8889 6.2222,4.8889 4.0494,0 4.4444,-0.35556 4.4444,-4 z m 225.33,-0.2222 7.3333,-3.5555 -115.67,-0.11106 -115.67,-0.1112 v 8.0607 l 108.33,-0.3637 108.33,-0.36369 z m -237.33,-0.44447 c 0,-3.1813 -0.34974,-3.3285 -7.6667,-3.2282 l -7.6667,0.1052 6.6667,3.211 c 8.309,4.002 8.6667,3.9984 8.6667,-0.088 z m 12,-20 v -15.333 h -10.667 v 30.667 h 10.667 z m 0,-33.333 v -15.333 h -10.667 v 30.667 h 10.667 z m 0,-33.333 v -15.333 h -10.667 v 30.667 h 10.667 z m 0,-32.667 v -14.667 h -10.667 v 29.333 h 10.667 z m 0,-34 v -16.667 h -10.667 v 33.333 h 10.667 z m 0,-30.667 v -11.333 h -10.667 v 22.667 h 10.667 z m 156,-20.164 c 12.833,-1.0696 26.933,-2.4637 31.333,-3.098 7.277,-1.0491 6.9758,-1.0973 -3.3333,-0.53348 -15.279,0.8356 -40.629,2.9513 -47.997,4.0058 -5.3811,0.77013 -5.8159,0.64044 -4.2358,-1.2635 0.96848,-1.167 3.367,-2.3674 5.33,-2.6678 3.3298,-0.50943 3.2895,-0.55943 -0.60099,-0.74581 -2.2986,-0.11012 -4.915,0.6978 -5.8299,1.8002 -1.3597,1.6384 -5.879,2 -24.993,2 -22.006,0 -23.233,-0.13273 -21.568,-2.3333 1.5021,-1.985 1.4866,-2.0846 -0.10347,-0.66667 -2.012,1.7942 -23.301,2.4333 -22.207,0.66667 0.89963,-1.4517 -24.285,-0.5323 -29.796,1.0877 -2.5667,0.75459 -10.367,1.9111 -17.333,2.57 l -12.667,1.198 14.406,-0.58629 c 7.923,-0.32247 15.534,-1.19 16.912,-1.9279 2.8763,-1.5394 27.158,-1.8557 26.22,-0.3416 -0.34057,0.55 4.798,0.78753 11.419,0.52786 6.6211,-0.25968 11.721,0.0403 11.332,0.66667 -0.3883,0.62634 10.09,0.96223 23.284,0.74643 18.555,-0.30349 23.763,-0.0256 22.99,1.2266 -0.71783,1.1615 -0.27942,1.3356 1.5515,0.61604 1.4036,-0.55161 13.052,-1.878 25.885,-2.9476 z m -157.65,1.248 c -1.2748,-0.33373 -3.6748,-0.34583 -5.3333,-0.0269 -1.6585,0.31892 -0.61554,0.59197 2.3178,0.60677 2.93334,0.0148 4.2903,-0.24614 3.0155,-0.57986 z m 2.6667,-5.3333 c -1.2748,-0.33372 -3.6748,-0.34583 -5.3333,-0.02691 -1.6585,0.31892 -0.61555,0.59197 2.3178,0.60677 2.9333,0.0148 4.2903,-0.24614 3.0155,-0.57986 z m 18.651,-0.05518 c -2.75,-0.28766 -7.25,-0.28766 -10,0 -2.75,0.28766 -0.5,0.52302 5,0.52302 5.5,0 7.75,-0.23536 5,-0.52302 z"
       id="path24"
       inkscape:connector-curvature="0"
       style="fill:#a6a6ab" />
    <path
       d="m 52,314.22 c -7.2058,-1.9711 -17.593,-7.5664 -18.346,-9.8832 -0.39686,-1.2195 1.8128,-1.6667 8.2354,-1.6667 h 8.7778 v -30.667 h -19.255 c -11.398,0 -19.591,-0.54404 -20.079,-1.3333 -0.53543,-0.86634 6.2084,-1.3333 19.255,-1.3333 h 20.079 v -30.667 h -20 c -12.444,0 -20,-0.50371 -20,-1.3333 0,-0.82963 7.5556,-1.3333 20,-1.3333 h 20 v -30.667 h -20 c -12.444,0 -20,-0.50371 -20,-1.3333 0,-0.82962 7.5556,-1.3333 20,-1.3333 h 20 v -29.333 h -20 c -12.444,0 -20,-0.50371 -20,-1.3333 0,-0.82962 7.5556,-1.3333 20,-1.3333 h 20 v -33.333 h -20 c -12.444,0 -20,-0.50371 -20,-1.3333 0,-0.82962 7.5556,-1.3333 20,-1.3333 h 20 v -21.098 l -5.6667,0.18302 c -3.1167,0.10067 -12.117,0.0478 -20,-0.11745 -13.28,-0.27841 -14.333,-0.49393 -14.333,-2.9324 0,-2.4876 1.1153,-2.6542 20.333,-3.0374 l 20.333,-0.40548 -20.497,-0.29591 c -18.048,-0.26057 -20.298,-0.53488 -18.837,-2.2959 1.3393,-1.6138 5.4905,-2 21.497,-2 16.744,0 19.837,-0.31184 19.837,-2 0,-1.6856 -3.0318,-2 -19.286,-2 -18.628,0 -19.342,0.10237 -20.918,3 l -1.6319,3 -0.9488,-3.3333 c -1.4062,-4.9401 -1.3222,-37.871 0.12489,-49.012 2.4037,-18.506 13.248,-33.51 30.283,-41.896 l 8.9883,-4.4249 h 230.86 l 10.177,5.0298 c 15.375,7.5985 25.376,20.322 28.852,36.703 0.82455,3.8861 1.4992,16.84 1.4992,28.787 v 21.721 l -5,1.5033 c -10.048,3.0209 -19.419,4.2569 -32.277,4.2569 -7.23,0 -20.25,0.85673 -28.934,1.9038 -36.692,4.4243 -75.764,5.2556 -131.35,2.7947 -17.278,-0.76488 -26.663,-0.64991 -30.667,0.37567 -3.1728,0.81284 -11.019,1.8576 -17.435,2.3216 l -11.667,0.84367 v 22.427 h 128.67 c 84.889,0 128.67,0.45365 128.67,1.3333 0,0.87965 -43.778,1.3333 -128.67,1.3333 h -128.67 v 33.333 h 128.67 c 84.889,0 128.67,0.45365 128.67,1.3333 0,0.87965 -43.778,1.3333 -128.67,1.3333 h -128.67 v 29.333 h 128.67 c 84.889,0 128.67,0.45365 128.67,1.3333 0,0.87965 -43.778,1.3333 -128.67,1.3333 h -128.67 v 30.667 h 128.67 c 84.889,0 128.67,0.45366 128.67,1.3333 0,0.87964 -43.778,1.3333 -128.67,1.3333 h -128.67 v 30.667 h 128 c 84.444,0 128,0.45371 128,1.3333 0,0.87963 -43.556,1.3333 -128,1.3333 h -128 v 30.709 l 118.43,-0.35449 118.43,-0.35448 -5.1243,4.0547 c -2.8184,2.2301 -7.9634,5.2301 -11.433,6.6667 -6.0724,2.514 -10.437,2.6218 -116.31,2.8742 -83.646,0.1994 -111.44,-0.13093 -116,-1.379 z m 10.667,-6.2165 c 0,-3.7778 -0.2963,-4 -5.3333,-4 -4.6984,0 -5.3333,0.37037 -5.3333,3.1111 0,4.1397 0.95356,4.8889 6.2222,4.8889 4.0494,0 4.4444,-0.35556 4.4444,-4 z m 221.33,1.2162 c 4.0333,-1.4832 8.0833,-2.7636 9,-2.8454 0.91667,-0.0817 1.6667,-0.64862 1.6667,-1.2597 0,-0.6111 -51.9,-1.1111 -115.33,-1.1111 h -115.33 v 8 l 106.33,-0.0435 c 103.37,-0.0422 106.54,-0.11877 113.67,-2.7402 z m -233.33,-1.8829 c 0,-3.1813 -0.34974,-3.3285 -7.6667,-3.2282 l -7.6667,0.1052 6.6667,3.211 c 8.309,4.002 8.6667,3.9984 8.6667,-0.088 z m 12,-20 v -15.333 H 52 v 30.667 h 10.667 z m 0,-33.333 v -15.333 H 52 v 30.667 h 10.667 z m 0,-33.333 v -15.333 H 52 v 30.667 h 10.667 z m 0,-32.667 v -14.667 H 52 v 29.333 h 10.667 z m 0,-34 v -16.667 H 52 v 33.333 h 10.667 z m 0,-30.667 v -11.333 H 52 v 22.667 h 10.667 z m 156,-20.164 c 12.833,-1.0696 26.933,-2.4637 31.333,-3.098 7.277,-1.0491 6.9758,-1.0973 -3.3333,-0.53348 -15.279,0.8356 -40.629,2.9513 -47.997,4.0058 -5.3811,0.77013 -5.8159,0.64044 -4.2358,-1.2635 0.96848,-1.167 3.367,-2.3674 5.33,-2.6678 3.3298,-0.50943 3.2895,-0.55943 -0.60099,-0.74581 -2.2986,-0.11012 -4.915,0.6978 -5.8299,1.8002 -1.3597,1.6384 -5.879,2 -24.993,2 -22.006,0 -23.233,-0.13273 -21.568,-2.3333 1.5021,-1.985 1.4866,-2.0846 -0.10347,-0.66667 -2.012,1.7942 -23.301,2.4333 -22.207,0.66667 0.89963,-1.4517 -24.285,-0.5323 -29.796,1.0877 -2.5667,0.75459 -10.367,1.9111 -17.333,2.57 l -12.667,1.198 14.406,-0.58629 c 7.923,-0.32247 15.534,-1.19 16.912,-1.9279 2.8763,-1.5394 27.158,-1.8557 26.22,-0.3416 -0.34057,0.55 4.798,0.78753 11.419,0.52786 6.6211,-0.25968 11.721,0.0403 11.332,0.66667 -0.3883,0.62634 10.09,0.96223 23.284,0.74643 18.555,-0.30349 23.763,-0.0256 22.99,1.2266 -0.71783,1.1615 -0.27942,1.3356 1.5515,0.61604 1.4036,-0.55161 13.052,-1.878 25.885,-2.9476 z m -157.65,1.248 c -1.2748,-0.33373 -3.6748,-0.34583 -5.3333,-0.0269 -1.6585,0.31892 -0.61554,0.59197 2.3178,0.60677 2.93334,0.0148 4.2903,-0.24614 3.0155,-0.57986 z m 2.6667,-5.3333 c -1.2748,-0.33372 -3.6748,-0.34583 -5.3333,-0.02691 -1.6585,0.31892 -0.61555,0.59197 2.3178,0.60677 2.9333,0.0148 4.2903,-0.24614 3.0155,-0.57986 z m 18.651,-0.05518 c -2.75,-0.28766 -7.25,-0.28766 -10,0 -2.75,0.28766 -0.5,0.52302 5,0.52302 5.5,0 7.75,-0.23536 5,-0.52302 z m -56.396,197.97 -5.2706,-5.6667 5.6667,5.2706 c 5.2699,4.9016 6.2794,6.0627 5.2706,6.0627 -0.21784,0 -2.7678,-2.55 -5.6667,-5.6667 z"
       id="path26"
       inkscape:connector-curvature="0"
       style="fill:#9696c5" />
    <path
       d="m 52,314.22 c -7.2058,-1.9711 -17.593,-7.5664 -18.346,-9.8832 -0.39686,-1.2195 1.8128,-1.6667 8.2354,-1.6667 h 8.7778 v -30.667 h -19.333 c -12,0 -19.333,-0.50575 -19.333,-1.3333 0,-0.82758 7.3333,-1.3333 19.333,-1.3333 h 19.333 v -30.667 h -20 c -12.444,0 -20,-0.50371 -20,-1.3333 0,-0.82963 7.5556,-1.3333 20,-1.3333 h 20 v -30.667 h -20 c -12.444,0 -20,-0.50371 -20,-1.3333 0,-0.82962 7.5556,-1.3333 20,-1.3333 h 20 v -29.333 h -20 c -12.444,0 -20,-0.50371 -20,-1.3333 0,-0.82962 7.5556,-1.3333 20,-1.3333 h 20 v -33.333 h -20 c -12.444,0 -20,-0.50371 -20,-1.3333 0,-0.82962 7.5556,-1.3333 20,-1.3333 h 20 v -21.098 l -5.6667,0.18302 c -3.1167,0.10067 -12.117,0.0478 -20,-0.11745 -13.28,-0.27841 -14.333,-0.49393 -14.333,-2.9324 0,-2.4876 1.1153,-2.6542 20.333,-3.0374 l 20.333,-0.40548 -20.497,-0.29591 c -18.048,-0.26057 -20.298,-0.53488 -18.837,-2.2959 1.3393,-1.6138 5.4905,-2 21.497,-2 16.744,0 19.837,-0.31184 19.837,-2 0,-1.6856 -3.0318,-2 -19.286,-2 -18.628,0 -19.342,0.10237 -20.918,3 l -1.6319,3 -0.9488,-3.3333 c -1.3504,-4.7441 -1.342,-37.67 0.01227,-48.166 2.4961,-19.345 15.803,-37.093 33.017,-44.039 l 7.756,-3.1292 h 229.33 l 8.6667,4.1677 c 10.959,5.2699 18.171,11.588 23.61,20.681 6.7804,11.337 8.3898,20.011 8.3898,45.218 v 22.173 l -5,1.5033 c -10.048,3.0209 -19.419,4.2569 -32.277,4.2569 -7.23,0 -20.25,0.85673 -28.934,1.9038 -36.692,4.4243 -75.764,5.2556 -131.35,2.7947 -17.278,-0.76488 -26.662998,-0.64991 -30.666998,0.37567 -3.1728,0.81284 -11.019,1.8576 -17.435,2.3216 l -11.667,0.84367 v 22.427 H 192.67057 c 84.889,0 128.67,0.45365 128.67,1.3333 0,0.87965 -43.778,1.3333 -128.67,1.3333 H 64.000572 v 33.333 H 192.67057 c 84.889,0 128.67,0.45365 128.67,1.3333 0,0.87965 -43.778,1.3333 -128.67,1.3333 H 64.000572 v 29.333 H 192.67057 c 84.889,0 128.67,0.45365 128.67,1.3333 0,0.87965 -43.778,1.3333 -128.67,1.3333 H 64.000572 v 30.667 H 192.67057 c 84.889,0 128.67,0.45366 128.67,1.3333 0,0.87964 -43.778,1.3333 -128.67,1.3333 H 64.000572 v 30.667 H 192.00057 c 84.444,0 128,0.45371 128,1.3333 0,0.87963 -43.556,1.3333 -128,1.3333 H 64.000572 v 30.667 l 117.669998,0.0541 117.67,0.0541 -4.2227,3.6172 c -2.3225,1.9895 -7.1225,4.8151 -10.667,6.2792 -6.2434,2.5791 -9.8687,2.6701 -116.44,2.9242 -83.645998,0.1994 -111.439998,-0.13093 -115.999998,-1.379 z m 223.5,-2.2295 c 7.4358,-1.2069 20.496,-5.9113 20.496,-7.3828 0,-0.33236 -52.2,-0.60428 -116,-0.60428 h -116 l -0.21338,4.3333 -0.21338,4.3333 -0.53776,-4.3333 c -0.50434,-4.064 -0.86403,-4.3333 -5.7866,-4.3333 -4.9192,0 -5.2489,0.24614 -5.2489,3.9195 0,3.5474 0.47476,3.9692 5,4.4425 11.633,1.2169 210.8,0.87508 218.5,-0.37498 z M 50.66,307.3368 c 0,-3.2112 -0.30529,-3.3295 -8.3333,-3.2282 l -8.3333,0.1052 6.6667,3.211 c 8.4303,4.0605 10,4.0466 10,-0.088 z m 12,-20 v -15.333 H 51.993 v 30.667 H 62.66 Z m 0,-33.333 v -15.333 H 51.993 v 30.667 H 62.66 Z m 0,-33.333 v -15.333 H 51.993 v 30.667 H 62.66 Z m 0,-32.667 v -14.667 H 51.993 v 29.333 H 62.66 Z m 0,-34 v -16.667 H 51.993 v 33.333 H 62.66 Z m 0,-30.667 v -11.333 H 51.993 v 22.667 H 62.66 Z m 156,-20.164 c 12.833,-1.0696 26.933,-2.4637 31.333,-3.098 7.277,-1.0491 6.9758,-1.0973 -3.3333,-0.53348 -15.279,0.8356 -40.629,2.9513 -47.997,4.0058 -5.3811,0.77013 -5.8159,0.64044 -4.2358,-1.2635 0.96848,-1.167 3.367,-2.3674 5.33,-2.6678 3.3298,-0.50943 3.2895,-0.55943 -0.60099,-0.74581 -2.2986,-0.11012 -4.915,0.6978 -5.8299,1.8002 -1.3597,1.6384 -5.879,2 -24.993,2 -22.006,0 -23.233,-0.13273 -21.568,-2.3333 1.5021,-1.985 1.4866,-2.0846 -0.10347,-0.66667 -2.012,1.7942 -23.301,2.4333 -22.207,0.66667 0.89963,-1.4517 -24.285,-0.5323 -29.796,1.0877 -2.5667,0.75459 -10.367,1.9111 -17.333,2.57 l -12.667,1.198 14.406,-0.58629 c 7.923,-0.32247 15.534,-1.19 16.912,-1.9279 2.8763,-1.5394 27.158,-1.8557 26.22,-0.3416 -0.34057,0.55 4.798,0.78753 11.419,0.52786 6.6211,-0.25968 11.721,0.0403 11.332,0.66667 -0.3883,0.62634 10.09,0.96223 23.284,0.74643 18.555,-0.30349 23.763,-0.0256 22.99,1.2266 -0.71783,1.1615 -0.27942,1.3356 1.5515,0.61604 1.4036,-0.55161 13.052,-1.878 25.885,-2.9476 z m -157.65,1.248 c -1.2748,-0.33373 -3.6748,-0.34583 -5.3333,-0.0269 -1.6585,0.31892 -0.61554,0.59197 2.3178,0.60677 2.93334,0.0148 4.2903,-0.24614 3.0155,-0.57986 z m 2.6667,-5.3333 c -1.2748,-0.33372 -3.6748,-0.34583 -5.3333,-0.02691 -1.6585,0.31892 -0.61555,0.59197 2.3178,0.60677 2.9333,0.0148 4.2903,-0.24614 3.0155,-0.57986 z m 18.651,-0.05518 c -2.75,-0.28766 -7.25,-0.28766 -10,0 -2.75,0.28766 -0.5,0.52302 5,0.52302 5.5,0 7.75,-0.23536 5,-0.52302 z"
       id="path28"
       inkscape:connector-curvature="0"
       style="fill:#8686d8" />
    <path
       d="m 52,314.22 c -7.2058,-1.9711 -17.593,-7.5664 -18.346,-9.8832 -0.39686,-1.2195 1.8128,-1.6667 8.2354,-1.6667 h 8.7778 v -30.667 h -19.333 c -12,0 -19.333,-0.50575 -19.333,-1.3333 0,-0.82758 7.3333,-1.3333 19.333,-1.3333 h 19.333 v -30.667 h -20 c -12.444,0 -20,-0.50371 -20,-1.3333 0,-0.82963 7.5556,-1.3333 20,-1.3333 h 20 v -30.667 h -20 c -12.444,0 -20,-0.50371 -20,-1.3333 0,-0.82962 7.5556,-1.3333 20,-1.3333 h 20 v -29.333 h -20 c -12.444,0 -20,-0.50371 -20,-1.3333 0,-0.82962 7.5556,-1.3333 20,-1.3333 h 20 v -33.333 h -20 c -12.444,0 -20,-0.50371 -20,-1.3333 0,-0.82962 7.5556,-1.3333 20,-1.3333 h 20 v -22.432 l -5.6667,0.18303 c -14.681,0.47416 -34.333,-0.52828 -34.333,-1.7513 0,-0.81973 6.6015,-1.3333 17.138,-1.3333 9.4258,0 20.824,-0.38533 25.33,-0.85629 7.4043,-0.77391 8.3852,-1.2426 10.196,-4.8715 1.1017,-2.2084 2.0031,-4.223 2.0031,-4.477 0,-1.3348 -9.2284,-0.21043 -9.8889,1.2049 -0.62222,1.3333 -0.93333,1.3333 -1.5556,0 -0.57087,-1.2233 -6.0307,-1.6667 -20.524,-1.6667 -17.554,0 -19.852,0.25902 -20.699,2.3333 -1.973,4.8335 -3.1451,-2.8692 -3.1955,-21 -0.064486,-23.174 1.3559,-33.718 5.9082,-43.862 4.7718,-10.633 17.262,-22.596 28.198,-27.008 l 7.756,-3.1292 h 229.33 l 8.6667,4.1677 c 10.959,5.2699 18.171,11.588 23.61,20.681 6.7791,11.335 8.3898,20.012 8.3898,45.199 v 22.154 l -13,2.2534 c -7.15,1.2394 -19.3,2.2944 -27,2.3446 -7.7,0.0502 -17.6,0.60546 -22,1.234 -33.617,4.8019 -97.98,6.0839 -142.67,2.8416 -10.477,-0.76015 -16.762,-0.58352 -22,0.6183 -4.0333,0.92536 -12.583,2.0716 -19,2.5471 l -11.667,0.86464 v 23.761 h 128.67 c 84.889,0 128.67,0.45365 128.67,1.3333 0,0.87965 -43.778,1.3333 -128.67,1.3333 h -128.67 v 33.333 h 128.67 c 84.889,0 128.67,0.45365 128.67,1.3333 0,0.87965 -43.778,1.3333 -128.67,1.3333 h -128.67 v 29.333 h 128.67 c 84.889,0 128.67,0.45365 128.67,1.3333 0,0.87965 -43.778,1.3333 -128.67,1.3333 h -128.67 v 30.667 h 128.67 c 84.889,0 128.67,0.45366 128.67,1.3333 0,0.87964 -43.778,1.3333 -128.67,1.3333 h -128.67 v 30.667 h 128 c 84.444,0 128,0.45371 128,1.3333 0,0.87963 -43.556,1.3333 -128,1.3333 h -128 v 30.667 l 117.67,0.0541 117.67,0.0541 -4.2227,3.6172 c -2.3225,1.9895 -7.1225,4.8151 -10.667,6.2792 -6.2434,2.5791 -9.8687,2.6701 -116.44,2.9242 -83.646,0.1994 -111.44,-0.13093 -116,-1.379 z m 223.5,-2.2295 c 7.4358,-1.2069 20.496,-5.9113 20.496,-7.3828 0,-0.33236 -52.2,-0.60428 -116,-0.60428 h -116 l -0.21338,4.3333 -0.21338,4.3333 -0.53776,-4.3333 c -0.50434,-4.064 -0.86403,-4.3333 -5.7866,-4.3333 -4.9192,0 -5.2489,0.24614 -5.2489,3.9195 0,3.5474 0.47476,3.9692 5,4.4425 11.633,1.2169 210.8,0.87508 218.5,-0.37498 z M 50.66,307.3368 c 0,-3.2112 -0.30529,-3.3295 -8.3333,-3.2282 l -8.3333,0.1052 6.6667,3.211 c 8.4303,4.0605 10,4.0466 10,-0.088 z m 12,-20 v -15.333 H 51.993 v 30.667 H 62.66 Z m 0,-33.333 v -15.333 H 51.993 v 30.667 H 62.66 Z m 0,-33.333 v -15.333 H 51.993 v 30.667 H 62.66 Z m 0,-32.667 v -14.667 H 51.993 v 29.333 H 62.66 Z m 0,-34 v -16.667 H 51.993 v 33.333 H 62.66 Z m 0,-31.333 v -12 H 51.993 v 24 H 62.66 Z m 30.651,-18.318 c 5.1432,-1.7217 9.7338,-1.7961 32.667,-0.5295 35.134,1.9405 73.102,2.3472 88.016,0.94285 6.6,-0.6215 13.8,-1.0258 16,-0.89851 2.2,0.12729 10.3,-0.68903 18,-1.8141 7.7,-1.1251 16.1,-2.2542 18.667,-2.5091 2.5667,-0.25495 -7.9125,-0.52204 -23.287,-0.59354 -19.845,-0.09229 -28.525,0.33171 -29.923,1.4617 -1.5463,1.2501 -1.7527,1.2319 -0.9615,-0.0848 0.8042,-1.3384 -13.572,-1.6677 -71.288,-1.6333 -66.859,0.03995 -72.427,0.21616 -74.042,2.3431 -3.7384,4.9221 -2.3696,5.7473 9.1684,5.5278 6.05,-0.11513 13.693,-1.1108 16.984,-2.2126 z m 186.36,-5.2647 c -1.2748,-0.33372 -3.6748,-0.34583 -5.3333,-0.02691 -1.6586,0.31892 -0.61555,0.59197 2.3178,0.60677 2.9333,0.0148 4.2903,-0.24614 3.0155,-0.57986 z m -229.02,7.0794 c 0,-0.27687 0.91373,-1.2617 2.0305,-2.1886 1.6978,-1.409 1.8929,-1.3266 1.1907,0.50341 -0.7172,1.869 -3.2212,3.179 -3.2212,1.6852 z"
       id="path30"
       inkscape:connector-curvature="0"
       style="fill:#9999a5" />
    <path
       d="m 111.67,313.67 c 29.517,-0.2002 77.817,-0.2002 107.33,0 29.517,0.20021 5.3667,0.36401 -53.667,0.36401 -59.033,0 -83.183,-0.1638 -53.667,-0.36401 z m -58.667,-1.2168 c 0.91667,-0.36988 2.4167,-0.36988 3.3333,0 0.91667,0.36988 0.16667,0.67252 -1.6667,0.67252 -1.8333,0 -2.5833,-0.30264 -1.6667,-0.67252 z m 222.75,-0.0277 c 0.96249,-0.38516 2.1125,-0.3378 2.5556,0.1052 0.44305,0.44305 -0.34445,0.75818 -1.75,0.70029 -1.5533,-0.064 -1.8692,-0.37992 -0.80556,-0.80555 z m -212.87,-4.0893 c -0.20279,-4.1183 -0.47364,-4.3333 -5.4582,-4.3333 -4.698,0 -5.3027,0.38224 -5.8002,3.6667 l -0.55545,3.6667 -0.19978,-3.6058 c -0.19353,-3.4931 -0.481,-3.6203 -9.1998,-4.0722 l -9,-0.46644 9,-0.26115 9,-0.26115 v -30.667 h -19.333 c -12,0 -19.333,-0.50575 -19.333,-1.3333 0,-0.82758 7.3333,-1.3333 19.333,-1.3333 h 19.333 v -30.667 h -20 c -12.444,0 -20,-0.50371 -20,-1.3333 0,-0.82963 7.5556,-1.3333 20,-1.3333 h 20 v -30.667 h -20 c -12.444,0 -20,-0.50371 -20,-1.3333 0,-0.82962 7.5556,-1.3333 20,-1.3333 h 20 v -29.333 h -20 c -12.444,0 -20,-0.50371 -20,-1.3333 0,-0.82962 7.5556,-1.3333 20,-1.3333 h 20 v -33.333 h -20 c -12.444,0 -20,-0.50371 -20,-1.3333 0,-0.82962 7.5556,-1.3333 20,-1.3333 h 20 v -22.432 l -5.6667,0.18303 c -14.681,0.47416 -34.333,-0.52828 -34.333,-1.7513 0,-0.81973 6.6015,-1.3333 17.138,-1.3333 9.4258,0 20.824,-0.38533 25.33,-0.85629 7.4043,-0.77391 8.3852,-1.2426 10.196,-4.8715 1.1017,-2.2084 2.0031,-4.223 2.0031,-4.477 0,-1.3348 -9.2284,-0.21043 -9.8889,1.2049 -0.62222,1.3333 -0.93333,1.3333 -1.5556,0 -0.56998,-1.2214 -5.9632,-1.6667 -20.186,-1.6667 -16.903,0 -19.643,0.30117 -21.225,2.3333 -1.5461,1.9859 -1.7665,-2.0392 -1.4803,-27.035 l 0.33618,-29.369 4.3569,-8.843 c 5.52,-11.204 17.137,-22.284 27.93,-26.64 l 7.7128,-3.113 h 229.33 l 8.9877,4.2575 c 15.848,7.5072 27.142,22.003 30.327,38.924 0.7436,3.9501 1.352,16.596 1.352,28.101 v 20.919 l -13,2.2534 c -7.15,1.2394 -19.3,2.2944 -27,2.3446 -7.7,0.0502 -17.6,0.60546 -22,1.234 -33.617,4.8019 -97.98,6.0839 -142.67,2.8416 -10.477,-0.76015 -16.762,-0.58352 -22,0.6183 -4.0333,0.92536 -12.583,2.0716 -19,2.5471 l -11.667,0.86464 v 23.761 h 128.67 c 84.889,0 128.67,0.45365 128.67,1.3333 0,0.87965 -43.778,1.3333 -128.67,1.3333 h -128.67 v 33.333 h 128.67 c 84.889,0 128.67,0.45365 128.67,1.3333 0,0.87965 -43.778,1.3333 -128.67,1.3333 h -128.67 v 29.333 h 128.67 c 84.889,0 128.67,0.45365 128.67,1.3333 0,0.87965 -43.778,1.3333 -128.67,1.3333 h -128.67 v 30.667 h 128.67 c 84.889,0 128.67,0.45366 128.67,1.3333 0,0.87964 -43.778,1.3333 -128.67,1.3333 h -128.67 v 30.667 h 128 c 84.444,0 128,0.45371 128,1.3333 0,0.87963 -43.556,1.3333 -128,1.3333 h -128 v 30.652 l 117,0.34799 117,0.348 -116.92,0.32595 -116.92,0.32596 -0.53776,4.3333 -0.53776,4.3333 z m -0.21338,-21 v -15.333 h -10.667 v 30.667 h 10.667 z m 0,-33.333 v -15.333 h -10.667 v 30.667 h 10.667 z m 0,-33.333 v -15.333 h -10.667 v 30.667 h 10.667 z m 0,-32.667 v -14.667 h -10.667 v 29.333 h 10.667 z m 0,-34 v -16.667 h -10.667 v 33.333 h 10.667 z m 0,-31.333 v -12 h -10.667 v 24 h 10.667 z m 30.651,-18.318 c 5.1432,-1.7217 9.7338,-1.7961 32.667,-0.5295 35.134,1.9405 73.102,2.3472 88.016,0.94285 6.6,-0.6215 13.8,-1.0258 16,-0.89851 2.2,0.12729 10.3,-0.68903 18,-1.8141 7.7,-1.1251 16.1,-2.2542 18.667,-2.5091 2.5667,-0.25495 -7.9125,-0.52204 -23.287,-0.59354 -19.845,-0.09229 -28.525,0.33171 -29.923,1.4617 -1.5463,1.2501 -1.7527,1.2319 -0.9615,-0.0848 0.8042,-1.3384 -13.572,-1.6677 -71.288,-1.6333 -66.859,0.03995 -72.427,0.21616 -74.042,2.3431 -3.7384,4.9221 -2.3696,5.7473 9.1684,5.5278 6.05,-0.11513 13.693,-1.1108 16.984,-2.2126 z m 186.36,-5.2647 c -1.2748,-0.33372 -3.6748,-0.34583 -5.3333,-0.02691 -1.6586,0.31892 -0.61555,0.59197 2.3178,0.60677 2.9333,0.0148 4.2903,-0.24614 3.0155,-0.57986 z m -229.02,7.0794 c 0,-0.27687 0.91373,-1.2617 2.0305,-2.1886 1.6978,-1.409 1.8929,-1.3266 1.1907,0.50341 -0.7172,1.869 -3.2212,3.179 -3.2212,1.6852 z"
       id="path32"
       inkscape:connector-curvature="0"
       style="fill:#97979d" />
    <path
       d="m 62.88,308.33 c -0.20279,-4.1183 -0.47364,-4.3333 -5.4582,-4.3333 -4.698,0 -5.3027,0.38224 -5.8002,3.6667 l -0.55545,3.6667 -0.19978,-3.6058 c -0.19353,-3.4931 -0.481,-3.6203 -9.1998,-4.0722 l -9,-0.46644 9,-0.26115 9,-0.26115 v -30.667 h -19.333 c -12,0 -19.333,-0.50575 -19.333,-1.3333 0,-0.82758 7.3333,-1.3333 19.333,-1.3333 h 19.333 v -30.667 h -20 c -12.444,0 -20,-0.50371 -20,-1.3333 0,-0.82963 7.5556,-1.3333 20,-1.3333 h 20 v -30.667 h -20 c -12.444,0 -20,-0.50371 -20,-1.3333 0,-0.82962 7.5556,-1.3333 20,-1.3333 h 20 v -29.333 h -20 c -12.444,0 -20,-0.50371 -20,-1.3333 0,-0.82962 7.5556,-1.3333 20,-1.3333 h 20 v -33.333 h -20 c -12.444,0 -20,-0.50371 -20,-1.3333 0,-0.82962 7.5556,-1.3333 20,-1.3333 h 20 v -22.432 l -5.6667,0.18303 c -14.681,0.47416 -34.333,-0.52828 -34.333,-1.7513 0,-0.81973 6.6015,-1.3333 17.138,-1.3333 9.4258,0 20.824,-0.38533 25.33,-0.85629 7.4043,-0.77391 8.3852,-1.2426 10.196,-4.8715 1.1017,-2.2084 2.0031,-4.223 2.0031,-4.477 0,-1.3348 -9.2284,-0.21043 -9.8889,1.2049 -0.62222,1.3333 -0.93333,1.3333 -1.5556,0 -0.56998,-1.2214 -5.9632,-1.6667 -20.186,-1.6667 -16.898,0 -19.645,0.30177 -21.238,2.3333 -1.5633,1.9935 -1.7789,-1.9434 -1.4803,-27.035 l 0.34941,-29.368 4.3569,-8.8433 c 5.5199,-11.204 17.136,-22.284 27.93,-26.64 l 7.7128,-3.113 h 229.33 l 8.9877,4.2575 c 15.848,7.5072 27.142,22.003 30.327,38.924 0.7436,3.9501 1.352,16.596 1.352,28.101 v 20.919 l -13,2.2534 c -7.15,1.2394 -19.3,2.2944 -27,2.3446 -7.7,0.0502 -17.6,0.60546 -22,1.234 -33.617,4.8019 -97.98,6.0839 -142.67,2.8416 -10.477,-0.76015 -16.762,-0.58352 -22,0.6183 -4.0333,0.92536 -12.583,2.0716 -19,2.5471 l -11.667,0.86464 v 23.761 h 128.67 c 84.889,0 128.67,0.45365 128.67,1.3333 0,0.87965 -43.778,1.3333 -128.67,1.3333 h -128.67 v 33.333 h 128.67 c 84.889,0 128.67,0.45365 128.67,1.3333 0,0.87965 -43.778,1.3333 -128.67,1.3333 h -128.67 v 29.333 h 128.67 c 84.889,0 128.67,0.45365 128.67,1.3333 0,0.87965 -43.778,1.3333 -128.67,1.3333 h -128.67 v 30.667 h 128.67 c 84.889,0 128.67,0.45366 128.67,1.3333 0,0.87964 -43.778,1.3333 -128.67,1.3333 h -128.67 v 30.667 h 128 c 84.444,0 128,0.45371 128,1.3333 0,0.87963 -43.556,1.3333 -128,1.3333 h -128 v 30.652 l 117,0.34799 117,0.348 -116.92,0.32595 -116.92,0.32596 -0.53776,4.3333 -0.53776,4.3333 z m -0.21338,-21 v -15.333 h -10.667 v 30.667 h 10.667 z m 0,-33.333 v -15.333 h -10.667 v 30.667 h 10.667 z m 0,-33.333 v -15.333 h -10.667 v 30.667 h 10.667 z m 0,-32.667 V 173.33 h -10.667 v 29.333 h 10.667 z m 0,-34 V 137.33 h -10.667 v 33.333 h 10.667 z m 0,-31.333 v -12 h -10.667 v 24 h 10.667 z m 30.651,-18.318 c 5.1432,-1.7217 9.7338,-1.7961 32.667,-0.5295 35.134,1.9405 73.102,2.3472 88.016,0.94285 6.6,-0.6215 13.8,-1.0258 16,-0.89851 2.2,0.12729 10.3,-0.68903 18,-1.8141 7.7,-1.1251 16.1,-2.2542 18.667,-2.5091 2.5667,-0.25495 -7.9125,-0.52204 -23.287,-0.59354 -19.845,-0.09229 -28.525,0.33171 -29.923,1.4617 -1.5463,1.2501 -1.7527,1.2319 -0.9615,-0.0848 0.8042,-1.3384 -13.572,-1.6677 -71.288,-1.6333 -66.859,0.03995 -72.427,0.21616 -74.042,2.3431 -3.7384,4.9221 -2.3696,5.7473 9.1684,5.5278 6.05,-0.11513 13.693,-1.1108 16.984,-2.2126 z m 186.36,-5.2647 c -1.2748,-0.33372 -3.6748,-0.34583 -5.3333,-0.02691 -1.6586,0.31892 -0.61555,0.59197 2.3178,0.60677 2.9333,0.0148 4.2903,-0.24614 3.0155,-0.57986 z m -229.02,7.0794 c 0,-0.27687 0.91373,-1.2617 2.0305,-2.1886 1.6978,-1.409 1.8929,-1.3266 1.1907,0.50341 -0.7172,1.869 -3.2212,3.179 -3.2212,1.6852 z"
       id="path34"
       inkscape:connector-curvature="0"
       style="fill:#7b7bc6" />
    <path
       d="m 62.88,308.33 c -0.20279,-4.1183 -0.47364,-4.3333 -5.4582,-4.3333 -4.698,0 -5.3027,0.38224 -5.8002,3.6667 l -0.55545,3.6667 -0.19978,-3.6058 c -0.19353,-3.4931 -0.481,-3.6203 -9.1998,-4.0722 l -9,-0.46644 9,-0.26115 9,-0.26115 v -30.667 h -19.333 c -12,0 -19.333,-0.50575 -19.333,-1.3333 0,-0.82758 7.3333,-1.3333 19.333,-1.3333 h 19.333 v -30.667 h -20 c -12.444,0 -20,-0.50371 -20,-1.3333 0,-0.82963 7.5556,-1.3333 20,-1.3333 h 20 v -30.667 h -20 c -12.444,0 -20,-0.50371 -20,-1.3333 0,-0.82962 7.5556,-1.3333 20,-1.3333 h 20 v -29.333 h -20 c -12.444,0 -20,-0.50371 -20,-1.3333 0,-0.82962 7.5556,-1.3333 20,-1.3333 h 20 v -33.333 h -20 c -12.444,0 -20,-0.50371 -20,-1.3333 0,-0.82962 7.5556,-1.3333 20,-1.3333 h 20 l 0.0019,-11.667 0.0019,-11.667 -17.002,0.42377 c -9.3886,0.23402 -18.494,-0.17592 -20.335,-0.91548 -2.4973,-1.0034 1.0485,-1.3605 14.138,-1.4238 9.6091,-0.0465 21.158,-0.46984 25.664,-0.9408 7.4043,-0.77391 8.3852,-1.2426 10.196,-4.8715 1.1017,-2.2084 2.0031,-4.223 2.0031,-4.477 0,-1.3348 -9.2284,-0.21043 -9.8889,1.2049 -0.62222,1.3333 -0.93333,1.3333 -1.5556,0 -0.57466,-1.2314 -6.3456,-1.6667 -22.098,-1.6667 h -21.321 l 0.43161,-27.035 0.43161,-27.035 4.3569,-8.8431 c 5.52,-11.204 17.137,-22.284 27.93,-26.64 l 7.7128,-3.113 h 229.32997 l 8.9877,4.2575 c 15.848,7.5072 27.142,22.003 30.327,38.924 0.7436,3.9501 1.352,16.642 1.352,28.205 v 21.023 l -7,0.71742 c -3.85,0.39458 -18.597,1.3459 -32.77,2.1141 -14.174,0.76818 -26.265,1.7023 -26.869,2.0758 -0.60438,0.37353 -12.408,1.6189 -26.23,2.7676 -29.665,2.4652 -58.147,2.5693 -98.67,0.36059 -22.358,-1.2186 -30.786004,-1.2371 -34.667004,-0.0759 -2.8202,0.84384 -10.978,1.9446 -18.128,2.4461 l -13,0.9119 v 24.94 H 191.99656 c 84.444,0 128,0.45371 128,1.3333 0,0.87963 -43.556,1.3333 -128,1.3333 H 63.996556 v 33.333 H 191.99656 c 84.444,0 128,0.45371 128,1.3333 0,0.87963 -43.556,1.3333 -128,1.3333 H 63.996556 v 29.333 H 191.99656 c 84.444,0 128,0.45371 128,1.3333 0,0.87963 -43.556,1.3333 -128,1.3333 H 63.996556 v 30.667 H 191.99656 c 84.444,0 128,0.45371 128,1.3333 0,0.87962 -43.556,1.3333 -128,1.3333 H 63.996556 v 30.667 H 192.07656 c 85.046,0 127.8,0.44797 127.25,1.3333 -0.54005,0.87382 -44.68,1.3333 -128.08,1.3333 H 63.996556 v 30.652 l 117.000004,0.34799 117,0.348 -116.92,0.32595 -116.920004,0.32596 -0.53776,4.3333 -0.53776,4.3333 z m -0.21338,-21 v -15.333 h -10.667 v 30.667 h 10.667 z m 0,-33.333 v -15.333 h -10.667 v 30.667 h 10.667 z m 0,-33.333 v -15.333 h -10.667 v 30.667 h 10.667 z m 0,-32.667 V 173.33 h -10.667 v 29.333 h 10.667 z m 0,-34 V 137.33 h -10.667 v 33.333 h 10.667 z m 0,-32.08 V 109.17 l -5,0.41382 -5,0.41382 -0.38337,12.333 -0.38337,12.333 h 10.767 z m 31.132,-17.537 c 3.2382,-1.6376 7.4374,-1.6917 28.455,-0.36663 50.463,3.1816 91.012,2.5246 129.75,-2.1024 9.1667,-1.095 21.167,-2.1543 26.667,-2.354 5.5,-0.1997 -39.549,-0.48232 -100.11,-0.62803 l -110.11,-0.26493 -1.8291,3.6667 c -1.006,2.0167 -2.0133,4.0689 -2.2384,4.5606 -0.76578,1.6723 25.593,-0.57797 29.416,-2.5113 z m -42.466,0.95073 c 0.45323,-0.73334 1.0886,-1.3333 1.412,-1.3333 0.3234,0 0.58798,0.6 0.58798,1.3333 0,0.73333 -0.63541,1.3333 -1.412,1.3333 -0.77659,0 -1.0412,-0.6 -0.58798,-1.3333 z"
       id="path36"
       inkscape:connector-curvature="0"
       style="fill:#7373b8" />
    <path
       d="m 62.88,308.33 c -0.20279,-4.1183 -0.47364,-4.3333 -5.4582,-4.3333 -4.698,0 -5.3027,0.38224 -5.8002,3.6667 l -0.55545,3.6667 -0.19978,-3.603 c -0.19156,-3.4548 -0.54266,-3.6225 -8.5331,-4.0764 l -8.3333,-0.47338 8.3333,-0.25691 8.3333,-0.25691 v -30.667 h -19.333 c -12,0 -19.333,-0.50575 -19.333,-1.3333 0,-0.82758 7.3333,-1.3333 19.333,-1.3333 h 19.333 v -30.667 h -20 c -12.444,0 -20,-0.50371 -20,-1.3333 0,-0.82963 7.5556,-1.3333 20,-1.3333 h 20 v -30.667 h -20 c -12.444,0 -20,-0.50371 -20,-1.3333 0,-0.82962 7.5556,-1.3333 20,-1.3333 h 20 v -29.333 h -20 c -12.444,0 -20,-0.50371 -20,-1.3333 0,-0.82962 7.5556,-1.3333 20,-1.3333 h 20 v -33.333 h -20 c -12.444,0 -20,-0.50371 -20,-1.3333 0,-0.82962 7.5556,-1.3333 20,-1.3333 h 20 v -26.667 h 5.2357 c 4.5418,0 5.5137,-0.55728 7.3333,-4.2048 1.1537,-2.3127 2.0977,-4.4127 2.0977,-4.6667 0,-1.3348 -9.2284,-0.21043 -9.8889,1.2049 -0.62222,1.3333 -0.93333,1.3333 -1.5556,0 -0.57466,-1.2314 -6.3456,-1.6667 -22.098,-1.6667 h -21.321 l 0.43161,-27 c 0.41645,-26.052 0.55712,-27.268 4.005,-34.624 4.1684,-8.8935 13.704,-19.587 21.568,-24.187 13.134,-7.6822 10.399,-7.5226 128.96,-7.5226 104.86,0 109.27,0.099271 117.51,2.643 11.016,3.4024 22.004,11.32 28.133,20.272 8.3976,12.265 9.2771,16.224 9.9419,44.751 l 0.59816,25.667 -9.1414,0.02108 c -5.0278,0.0116 -62.012,0.0023 -126.63,-0.02071 l -117.49,-0.04178 -2.0196,4.1699 c -1.3481,2.7835 -2.0931,8.7751 -2.2408,18.021 l -0.22125,13.851 h 128.06 c 84.487,0 128.06,0.45369 128.06,1.3333 0,0.87963 -43.556,1.3333 -128,1.3333 h -128 v 33.333 h 128 c 84.444,0 128,0.45371 128,1.3333 0,0.87963 -43.556,1.3333 -128,1.3333 h -128 v 29.333 h 128 c 84.444,0 128,0.45371 128,1.3333 0,0.87963 -43.556,1.3333 -128,1.3333 h -128 v 30.667 h 128 c 84.444,0 128,0.45371 128,1.3333 0,0.87962 -43.556,1.3333 -128,1.3333 h -128 v 30.667 h 127.33 c 84,0 127.33,0.45375 127.33,1.3333 0,0.87959 -43.333,1.3333 -127.33,1.3333 h -127.33 v 30.652 l 117,0.34799 117,0.348 -116.92,0.32595 -116.92,0.32596 -0.53776,4.3333 -0.53776,4.3333 z m -0.21338,-21 v -15.333 h -10.667 v 30.667 h 10.667 z m 0,-33.333 v -15.333 h -10.667 v 30.667 h 10.667 z m 0,-33.333 v -15.333 h -10.667 v 30.667 h 10.667 z m 0,-32.667 V 173.33 h -10.667 v 29.333 h 10.667 z m 0,-34 V 137.33 h -10.667 v 33.333 h 10.667 z m 0,-32 V 109.33 h -10.667 v 25.333 h 10.667 z m -45,-12.319 c 4.2167,-0.2646 11.117,-0.2646 15.333,0 4.216,0.2646 0.76667,0.48109 -7.6667,0.48109 -8.4333,0 -11.883,-0.21649 -7.6667,-0.48109 z m 61.333,-2.6364 c 2.0167,-0.3055 5.3167,-0.3055 7.3333,0 2.0167,0.3055 0.36667,0.55545 -3.6667,0.55545 -4.0333,0 -5.6833,-0.24995 -3.6667,-0.55545 z m 109.33,0.0359 c 1.2833,-0.33537 3.3833,-0.33537 4.6667,0 1.2834,0.33537 0.23333,0.60977 -2.3333,0.60977 -2.5667,0 -3.6167,-0.2744 -2.3333,-0.60977 z m 9.3587,-0.005 c 1.2973,-0.33806 3.0973,-0.31583 4,0.0494 0.9027,0.36523 -0.15871,0.64182 -2.3587,0.61465 -2.2,-0.0272 -2.9386,-0.326 -1.6413,-0.66406 z m -146.36,-1.7426 c 0.45323,-0.73334 1.0886,-1.3333 1.412,-1.3333 0.3234,0 0.58798,0.6 0.58798,1.3333 0,0.73333 -0.63541,1.3333 -1.412,1.3333 -0.77659,0 -1.0412,-0.6 -0.58798,-1.3333 z m 88.357,0.36702 c 2.3965,-0.29675 5.9965,-0.29062 8,0.0136 2.0035,0.30423 0.0428,0.54703 -4.3572,0.53954 -4.4,-0.007 -6.0392,-0.2564 -3.6428,-0.55315 z m 33.994,0.01 c 2.0268,-0.30647 5.0268,-0.29828 6.6667,0.0182 1.6399,0.31648 -0.0183,0.56723 -3.685,0.55722 -3.6667,-0.01 -5.0084,-0.26895 -2.9817,-0.57542 z m 35.315,0.0158 c 1.65,-0.3178 4.35,-0.3178 6,0 1.65,0.3178 0.3,0.57783 -3,0.57783 -3.3,0 -4.65,-0.26003 -3,-0.57783 z m -91.333,-1.3474 c 2.0167,-0.3055 5.3167,-0.3055 7.3333,0 2.0166,0.3055 0.36667,0.55545 -3.6667,0.55545 -4.0333,0 -5.6833,-0.24995 -3.6667,-0.55545 z m 108.64,-0.007 c 2.367,-0.29455 6.567,-0.29939 9.3333,-0.0108 2.7664,0.28863 0.82974,0.52962 -4.3036,0.53554 -5.1333,0.006 -7.3967,-0.23024 -5.0297,-0.52479 z m -125.94,-1.2951 c 1.2973,-0.33805 3.0973,-0.31582 4,0.0494 0.90271,0.36524 -0.15871,0.64183 -2.3587,0.61466 -2.2,-0.0272 -2.9386,-0.326 -1.6413,-0.66406 z m 145.97,0.041 c 0.91667,-0.36988 2.4167,-0.36988 3.3333,0 0.91666,0.36988 0.16666,0.67252 -1.6667,0.67252 -1.83336,0 -2.5833,-0.30264 -1.6667,-0.67252 z m 8,-1.3333 c 0.91667,-0.36989 2.4167,-0.36989 3.3333,0 0.91666,0.36988 0.16666,0.67251 -1.6667,0.67251 -1.83336,0 -2.5833,-0.30263 -1.6667,-0.67251 z m 14.667,-1.4156 c 2.3833,-0.29577 6.2833,-0.29577 8.6667,0 2.3833,0.29577 0.43333,0.53776 -4.3333,0.53776 -4.7667,0 -6.7167,-0.24199 -4.3333,-0.53776 z"
       id="path38"
       inkscape:connector-curvature="0"
       style="fill:#6e6eb0" />
    <path
       d="m 50.866,307.73 c -0.19156,-3.4548 -0.54266,-3.6225 -8.5331,-4.0764 l -8.3333,-0.47338 8.3333,-0.25691 8.3333,-0.25691 v -30.667 h -19.333 c -12,0 -19.333,-0.50575 -19.333,-1.3333 0,-0.82758 7.3333,-1.3333 19.333,-1.3333 h 19.333 v -30.667 h -20 c -12.444,0 -20,-0.50371 -20,-1.3333 0,-0.82963 7.5556,-1.3333 20,-1.3333 h 20 v -30.667 h -20 c -12.444,0 -20,-0.50371 -20,-1.3333 0,-0.82962 7.5556,-1.3333 20,-1.3333 h 20 v -29.333 h -20 c -12.444,0 -20,-0.50371 -20,-1.3333 0,-0.82962 7.5556,-1.3333 20,-1.3333 h 20 v -33.333 h -20 c -12.444,0 -20,-0.50371 -20,-1.3333 0,-0.82949 7.54,-1.3333 19.953,-1.3333 h 19.953 l 0.43211,-13.667 0.43212,-13.667 0.2812,13.667 0.2812,13.667 h 134 c 88.444,0 134,0.45329 134,1.3333 0,0.88001 -45.556,1.3333 -134,1.3333 h -134 v 33.333 h 134 c 88.444,0 134,0.45329 134,1.3333 0,0.88001 -45.556,1.3333 -134,1.3333 h -134 v 29.333 h 134 c 88.444,0 134,0.45329 134,1.3333 0,0.88001 -45.556,1.3333 -134,1.3333 h -134 v 30.667 h 134 c 88.444,0 134,0.4533 134,1.3333 0,0.88 -45.556,1.3333 -134,1.3333 h -134 v 30.667 h 133.33 c 88,0 133.33,0.45333 133.33,1.3333 0,0.87997 -45.333,1.3333 -133.33,1.3333 h -133.33 v 30.653 l 122.33,0.34738 122.33,0.34738 -122.24,0.32627 -122.24,0.32627 -0.55546,3.6667 -0.55545,3.6667 z M 62.435,110.34 c -0.40085,-2.0115 0.08717,-5.2301 1.0845,-7.1524 2.4089,-4.6432 2.4844,-4.5237 -2.8534,-4.5237 -2.7407,0 -4.6667,0.66032 -4.6667,1.6 0,1.2444 -0.35556,1.2444 -1.6,0 -1.1101,-1.1101 -8.0811,-1.6 -22.765,-1.6 h -21.165 l 0.43161,-27 c 0.41645,-26.052 0.55712,-27.268 4.005,-34.624 4.206,-8.9739 13.716,-19.591 21.781,-24.318 12.685,-7.434 11.942,-7.3916 129.45,-7.3916 104.16,0 108.57,0.099865 116.8,2.643 11.016,3.4024 22.004,11.32 28.133,20.272 8.3162,12.146 9.2219,16.226 9.9333,44.751 l 0.64007,25.667 -9.8247,0.01419 c -5.4036,0.0077 -62.37,0.0015 -126.59,-0.01397 l -116.77,-0.02816 -1.6993,3.1752 c -0.93463,1.7464 -2.1274,5.2026 -2.6506,7.6806 l -0.95129,4.5054 z m -42.769,-0.65906 c 3.85,-0.26934 10.15,-0.26934 14,0 3.85,0.26934 0.7,0.4897 -7,0.4897 -7.7,0 -10.85,-0.22036 -7,-0.4897 z m 58.025,-2.6077 c 1.2973,-0.33805 3.0973,-0.31582 4,0.0494 0.90271,0.36524 -0.15871,0.64183 -2.3587,0.61466 -2.2,-0.0272 -2.9386,-0.326 -1.6413,-0.66406 z m 67.308,-1.2924 c 0.91667,-0.36989 2.4167,-0.36989 3.3333,0 0.91667,0.36988 0.16667,0.67251 -1.6667,0.67251 -1.8333,0 -2.5833,-0.30263 -1.6667,-0.67251 z m 28,-0.0579 c 1.65,-0.3178 4.35,-0.3178 6,0 1.65,0.31781 0.3,0.57783 -3,0.57783 -3.3,0 -4.65,-0.26002 -3,-0.57783 z m 34.75,0.0302 c 0.96249,-0.38516 2.1125,-0.33779 2.5556,0.10527 0.44305,0.44306 -0.34445,0.75819 -1.75,0.70029 -1.5533,-0.064 -1.8692,-0.37992 -0.80556,-0.80555 z m -84,-1.3333 c 0.9625,-0.38516 2.1125,-0.33779 2.5556,0.10527 0.44305,0.44305 -0.34445,0.75819 -1.75,0.70029 -1.5533,-0.064 -1.8692,-0.37992 -0.80556,-0.80556 z m 101.33,0 c 0.9625,-0.38516 2.1125,-0.33779 2.5556,0.10527 0.44306,0.44305 -0.34445,0.75819 -1.75,0.70029 -1.5533,-0.064 -1.8692,-0.37992 -0.80556,-0.80556 z m -124.72,-1.3465 c 1.2973,-0.33805 3.0973,-0.31582 4,0.0494 0.90271,0.36524 -0.15871,0.64183 -2.3587,0.61466 -2.2,-0.0272 -2.9386,-0.326 -1.6413,-0.66406 z m 167.39,-2.6536 c 0.96249,-0.38516 2.1125,-0.3378 2.5556,0.10526 0.44305,0.44306 -0.34445,0.75819 -1.75,0.7003 -1.5533,-0.064 -1.8692,-0.37992 -0.80556,-0.80556 z"
       id="path40"
       inkscape:connector-curvature="0"
       style="fill:#6767a5" />
    <path
       d="m 51.301,209.33 c 0,-56.1 0.16447,-79.05 0.3655,-51 0.20102,28.05 0.20102,73.95 0,102 -0.20102,28.05 -0.3655,5.1 -0.3655,-51 z M 10.902,71.66 l 0.43161,-27 4.2991,-8.7855 c 5.3582,-10.95 14.753,-19.958 26.736,-25.635 l 8.9644,-4.2466 110.46,-0.37747 c 120.11,-0.41045 119.55,-0.44009 132.26,7.0072 13.314,7.8027 23.349,22.625 25.881,38.23 0.75627,4.6606 1.3796,17.324 1.3851,28.141 l 0.0101,19.667 h -310.86 z"
       id="path42"
       inkscape:connector-curvature="0"
       style="fill:#575784" />
    <path
       d="m 51.301,209.33 c 0,-56.1 0.16447,-79.05 0.3655,-51 0.20102,28.05 0.20102,73.95 0,102 -0.20102,28.05 -0.3655,5.1 -0.3655,-51 z M 10.667,74.8 c 0,-20.056 0.42155,-25.21 2.6447,-32.333 4.6478,-14.892 16.287,-27.163 31.646,-33.362 l 7.7097,-3.1119 108,-0.40571 c 76.991,-0.28922 110.3,0.031733 116,1.1178 16.676,3.1757 31.903,14.99 39.093,30.33 3.414,7.2839 3.6032,8.829 4.2401,34.626 l 0.66667,27.002 -155,-0.0021 -155,-0.0022 z"
       id="path44"
       inkscape:connector-curvature="0"
       style="fill:#4a4a77" />
    <path
       d="M 10.879,72.333 11.3329,46 15.5904,37.0123 c 7.8351,-16.54 22.367,-27.432 40.409,-30.287 10.864,-1.7193 206.53,-1.8398 218.32,-0.13441 17.799,2.5743 32.9,13.424 40.689,29.234 l 4.3217,8.7715 0.43162,27.035 0.43161,27.035 h -309.77 z"
       id="path46"
       inkscape:connector-curvature="0"
       style="fill:#3b3b60" />
    <path
       d="M 10.951,73 C 11.56789,43.115 13.2198,36.864 23.528,25.398 l 6.0519,-6.7312 h 272.88 l 4.8079,5.617 c 2.6444,3.0893 6.4312,8.9393 8.4152,13 3.4963,7.1558 3.6219,8.2142 4.0812,34.383 l 0.47383,27 h -309.82 z"
       id="path48"
       inkscape:connector-curvature="0"
       style="fill:#38385c" />
    <path
       d="m 10.974,73 c 0.5634,-26.141 1.6408,-32.302 7.107,-40.645 l 1.98,-3.0218 h 291.57 l 3.8488,8.3333 c 3.7683,8.1593 3.8578,8.8834 4.2822,34.667 l 0.43341,26.333 h -309.78 z"
       id="path50"
       inkscape:connector-curvature="0"
       style="fill:#363658" />
    <path
       d="m 10.987,73 c 0.44486,-20.173 1.0687,-27.022 2.9147,-32 l 2.3487,-6.3333 h 298.13 l 2.4432,5.6667 c 2.0285,4.7048 2.5227,10.137 2.9115,32 l 0.46828,26.333 h -309.78 z"
       id="path52"
       inkscape:connector-curvature="0"
       style="fill:#333352" />
    <path
       d="M 10.685,76.333 C 10.69501,64.05 11.06565,52.647 11.50864,50.994 l 0.80543,-3.0056 153.51,0.33892 153.51,0.33892 0.36276,25 0.36275,25 h -309.39 z"
       id="path54"
       inkscape:connector-curvature="0"
       style="fill:#30304e" />
    <path
       d="m 10.667,76.667 v -22 h 309.33 v 44 H 10.667 Z"
       id="path56"
       inkscape:connector-curvature="0"
       style="fill:#2e2e4a" />
    <path
       d="m 10.667,82.667 v -16 h 309.33 v 32 H 10.667 Z"
       id="path58"
       inkscape:connector-curvature="0"
       style="fill:#292943" />
    <path
       d="m 10.667,90.667 v -8 h 309.33 v 16 H 10.667 Z"
       id="path60"
       inkscape:connector-curvature="0"
       style="fill:#24243c" />
    <path
       d="m 10.667,96.667 c 0,-1.7663 18.074,-2 154.67,-2 136.59,0 154.67,0.23372 154.67,2 0,1.76628 -18.074,2 -154.67,2 -136.59,0 -154.67,-0.23372 -154.67,-2 z"
       id="path62"
       inkscape:connector-curvature="0"
       style="fill:#212136" />
  </g>
</svg>
