<?xml version="1.0" encoding="UTF-8" standalone="no"?>
<svg
   xmlns:dc="http://purl.org/dc/elements/1.1/"
   xmlns:cc="http://creativecommons.org/ns#"
   xmlns:rdf="http://www.w3.org/1999/02/22-rdf-syntax-ns#"
   xmlns:svg="http://www.w3.org/2000/svg"
   xmlns="http://www.w3.org/2000/svg"
   xmlns:sodipodi="http://sodipodi.sourceforge.net/DTD/sodipodi-0.dtd"
   xmlns:inkscape="http://www.inkscape.org/namespaces/inkscape"
   width="20"
   height="20"
   version="1.1"
   viewBox="0 0 20 20.000206"
   id="svg66"
   sodipodi:docname="task_remark_navy_20x20.svg"
   inkscape:version="0.92.2 5c3e80d, 2017-08-06">
  <metadata
     id="metadata72">
    <rdf:RDF>
      <cc:Work
         rdf:about="">
        <dc:format>image/svg+xml</dc:format>
        <dc:type
           rdf:resource="http://purl.org/dc/dcmitype/StillImage" />
        <dc:title></dc:title>
      </cc:Work>
    </rdf:RDF>
  </metadata>
  <defs
     id="defs70" />
  <sodipodi:namedview
     pagecolor="#ffffff"
     bordercolor="#666666"
     borderopacity="1"
     objecttolerance="10"
     gridtolerance="10"
     guidetolerance="10"
     inkscape:pageopacity="0"
     inkscape:pageshadow="2"
     inkscape:window-width="934"
     inkscape:window-height="824"
     id="namedview68"
     showgrid="false"
     inkscape:zoom="16.41432"
     inkscape:cx="10.57048"
     inkscape:cy="11.864346"
     inkscape:window-x="0"
     inkscape:window-y="0"
     inkscape:window-maximized="0"
     inkscape:current-layer="svg66" />
  <g
     transform="matrix(0.06362581,0,0,0.06288324,-0.42924824,-0.2539495)"
     id="g64"
     style="stroke-width:1.33329999">
    <path
       d="M 53.568,322.6 C 38.146,319.5055 22.402,307.694 14.961,293.635 7.9748,280.435 7.7554,276.02 8.3188,160.005 8.87987,44.465 8.72583,46.835 16.6523,32.265 21.5572,23.253 31.4033,14.094 41.0423,9.576 l 7.6241,-3.5734 h 233.33 l 7.7834,3.6463 c 14.221,6.6624 24.108,17.774 29.177,32.793 l 3.0018,8.8937 0.41021,110.58 c 0.27694,74.653 -0.0508,112.73 -1.0088,117.19 -4.0746,18.999 -17.735,34.514 -36.697,41.679 -6.3202,2.3882 -12.349,2.5308 -116,2.7429 -60.133,0.12307 -111.93,-0.2968 -115.1,-0.933 z"
       id="path2"
       inkscape:connector-curvature="0"
       style="fill:#f3f4f4" />
    <path
       d="M 58.315,316 C 46.437,314.4786 34.748,308.0222 26.158,298.238 17.5811,288.4688 12.491,278.958 10.653,269.266 8.7423,259.191 8.8864,56.936 10.81082,47.736 14.17642,31.65 26.12382,16.569 41.04182,9.577 l 7.6241,-3.5734 h 233.33 l 7.7834,3.6463 c 14.422,6.7564 24.461,18.159 28.924,32.855 2.6318,8.6647 2.6908,11.688 2.3295,119.53 l -0.37062,110.64 -4.1475,8.7526 c -5.4605,11.523 -18.433,25.4 -27.957,29.906 -3.9679,1.8771 -11.568,3.9784 -16.888,4.6695 -11.273,1.4643 -201.93,1.4687 -213.36,0.005 z"
       id="path4"
       inkscape:connector-curvature="0"
       style="fill:#eff1f0" />
    <path
       d="M 51.333,311.49 C 31.344,306.629 15.13,289.861 10.832,269.606 8.8612,260.3174 8.7271,59.586 10.68481,49.186 c 3.1008,-16.472 14.843,-31.85 29.981,-39.264 l 8,-3.9181 h 233.39 l 8.7786,4.3217 c 10.942,5.3868 19.926,14.767 25.585,26.714 l 4.2466,8.9644 v 226.72 l -4.3958,8.9289 c -4.803,9.756 -13.391,19.215 -22.056,24.292 -12.674,7.4257 -12.205,7.3992 -128.83,7.276 -79.42,-0.0838 -109.12,-0.53559 -114.05,-1.7346 z"
       id="path6"
       inkscape:connector-curvature="0"
       style="fill:#b2c8d6" />
    <path
       d="M 50.806,311.25 C 29.592,305.4792 14.6,289.229 10.618,267.686 9.7421,262.9478 9.3936,222.536 9.64174,154.496 10.07671,35.246 9.50337,41.976 20.48774,27.056 c 6.4533,-8.7662 16.693,-16.2 26.944,-19.56 6.1314,-2.0098 17.438,-2.1836 120.67,-1.855 l 113.9,0.36255 7.3333,3.4629 c 11.381,5.3742 20.488,14.456 26.312,26.238 l 5.0212,10.158 0.37084,110.04 c 0.3614,107.24 0.30217,110.27 -2.3295,118.93 -2.8026,9.2268 -9.6059,19.553 -16.912,25.668 -2.312,1.9353 -8.312,5.4645 -13.333,7.8427 l -9.1298,4.324 -110.67,0.26795 c -93.731,0.22693 -111.77,-0.0316 -117.86,-1.689 z M 319.996,96.67 c 0,-1.7663 -18.074,-2 -154.67,-2 -136.59,0 -154.67,0.23372 -154.67,2 0,1.76628 18.074,2 154.67,2 136.59,0 154.67,-0.23372 154.67,-2 z"
       id="path8"
       inkscape:connector-curvature="0"
       style="fill:#b0c6d4" />
    <path
       d="M 50.806,311.25 C 29.592,305.4792 14.6,289.229 10.618,267.686 9.7421,262.9478 9.3936,222.536 9.64174,154.496 10.07671,35.246 9.50337,41.976 20.48774,27.056 c 6.4533,-8.7662 16.693,-16.2 26.944,-19.56 6.1314,-2.0098 17.438,-2.1836 120.67,-1.855 l 113.9,0.36255 7.3333,3.4629 c 11.381,5.3742 20.488,14.456 26.312,26.238 l 5.0212,10.158 0.37084,110.04 c 0.3614,107.24 0.30217,110.27 -2.3295,118.93 -2.8026,9.2268 -9.6059,19.553 -16.912,25.668 -2.312,1.9353 -8.312,5.4645 -13.333,7.8427 l -9.1298,4.324 -110.67,0.26795 c -93.731,0.22693 -111.77,-0.0316 -117.86,-1.689 z M 319.996,94.67 v -4 H 10.666 v 8 h 309.33 z"
       id="path10"
       inkscape:connector-curvature="0"
       style="fill:#acc3d1" />
    <path
       d="M 50.806,311.25 C 29.592,305.4792 14.6,289.229 10.618,267.686 9.7421,262.9478 9.3936,222.536 9.64174,154.496 10.07671,35.246 9.50337,41.976 20.48774,27.056 c 6.4533,-8.7662 16.693,-16.2 26.944,-19.56 6.1314,-2.0098 17.438,-2.1836 120.67,-1.855 l 113.9,0.36255 7.3333,3.4629 c 11.381,5.3742 20.488,14.456 26.312,26.238 l 5.0212,10.158 0.37084,110.04 c 0.3614,107.24 0.30217,110.27 -2.3295,118.93 -2.8026,9.2268 -9.6059,19.553 -16.912,25.668 -2.312,1.9353 -8.312,5.4645 -13.333,7.8427 l -9.1298,4.324 -110.67,0.26795 c -93.731,0.22693 -111.77,-0.0316 -117.86,-1.689 z M 319.996,90.67 v -8 H 10.666 v 16 h 309.33 z"
       id="path12"
       inkscape:connector-curvature="0"
       style="fill:#b9bac4" />
    <path
       d="M 55.143,312 C 38.931,309.6264 22.881,297.556 15.256,282.003 l -3.9222,-8 -0.66667,-84.667 c -0.36667,-46.567 -0.44672,-86.017 -0.1779,-87.667 l 0.48877,-3 h 309.02 v -16 H 10.418 l 0.47943,-19.667 c 0.45573,-18.695 0.67594,-20.058 4.4556,-27.583 5.4938,-10.937 14.694,-19.968 25.609,-25.138 l 9.0337,-4.279 113.23,-0.36271 c 101.89,-0.32638 113.91,-0.14391 120,1.8216 14.993,4.8403 26.217,14.87 33.248,29.71 l 4.1843,8.8312 0.37845,107.79 c 0.23352,66.509 -0.12253,110.5 -0.92981,114.87 -4.0239,21.767 -22.353,39.723 -44.16,43.261 -9.9629,1.6164 -209.83,1.6909 -220.81,0.0823 z"
       id="path14"
       inkscape:connector-curvature="0"
       style="fill:#a7c0ce" />
    <path
       d="M 55.143,312 C 38.931,309.6264 22.881,297.556 15.256,282.003 l -3.9222,-8 -0.66667,-84.667 c -0.36667,-46.567 -0.44672,-86.017 -0.1779,-87.667 l 0.48877,-3 h 309.02 V 76.002 H 10.388 l 0.51656,-16.333 c 0.47075,-14.885 0.86723,-17.035 4.4704,-24.249 5.4541,-10.919 14.657,-19.961 25.587,-25.138 l 9.0337,-4.279 113.23,-0.36271 c 101.89,-0.32638 113.91,-0.14391 120,1.8216 14.993,4.8403 26.217,14.87 33.248,29.71 l 4.1843,8.8312 0.37845,107.79 c 0.23352,66.509 -0.12253,110.5 -0.92981,114.87 -4.0239,21.767 -22.353,39.723 -44.16,43.261 -9.9629,1.6164 -209.83,1.6909 -220.81,0.0823 z"
       id="path16"
       inkscape:connector-curvature="0"
       style="fill:#a2bdca" />
    <path
       d="M 55.143,312 C 38.931,309.6264 22.881,297.556 15.256,282.003 l -3.9222,-8 -0.66667,-84.667 c -0.36667,-46.567 -0.44672,-86.017 -0.1779,-87.667 l 0.48877,-3 h 309.02 v -28 H 10.358 l 0.55401,-13.667 c 0.47847,-11.803 1.09,-14.746 4.4846,-21.583 5.4129,-10.901 14.619,-19.954 25.564,-25.138 l 9.0337,-4.279 113.23,-0.36271 c 101.89,-0.32638 113.91,-0.14391 120,1.8216 14.993,4.8403 26.217,14.87 33.248,29.71 l 4.1843,8.8312 0.37845,107.79 c 0.23352,66.509 -0.12253,110.5 -0.92981,114.87 -4.0239,21.767 -22.353,39.723 -44.16,43.261 -9.9629,1.6164 -209.83,1.6909 -220.81,0.0823 z"
       id="path18"
       inkscape:connector-curvature="0"
       style="fill:#9fbac8" />
    <path
       d="M 55.143,312 C 38.931,309.6264 22.881,297.556 15.256,282.003 l -3.9222,-8 -0.66667,-84.667 c -0.36667,-46.567 -0.44672,-86.017 -0.1779,-87.667 l 0.48877,-3 h 309.02 v -32 H 10.338 l 0.58803,-11.667 c 0.47664,-9.4566 1.3284,-13.166 4.4964,-19.583 5.2983,-10.731 14.03,-19.331 25.223,-24.842 l 9.2935,-4.5757 112.59,-0.36287 c 99.624,-0.32109 113.44,-0.11879 120.03,1.7572 18.503,5.2705 33.221,21.197 37.279,40.338 1.9078,9.0009 2.1067,211.36 0.21752,221.32 -4.0728,21.476 -22.464,39.352 -44.098,42.862 -9.9629,1.6164 -209.83,1.6909 -220.81,0.0823 z"
       id="path20"
       inkscape:connector-curvature="0"
       style="fill:#9cb9c6" />
    <path
       d="M 55.143,312 C 38.931,309.6264 22.881,297.556 15.256,282.003 l -3.9222,-8 -0.66667,-84.667 c -0.36667,-46.567 -0.44672,-86.017 -0.1779,-87.667 l 0.48877,-3 h 309.02 v -36 H 10.318 l 0.62812,-9.6667 c 1.1796,-18.155 12.106,-33.76 29.704,-42.424 l 9.2935,-4.5757 112.59,-0.36287 c 99.624,-0.32109 113.44,-0.11879 120.03,1.7572 18.503,5.2705 33.221,21.197 37.279,40.338 1.9078,9.0009 2.1067,211.36 0.21752,221.32 -4.0728,21.476 -22.464,39.352 -44.098,42.862 -9.9629,1.6164 -209.83,1.6909 -220.81,0.0823 z"
       id="path22"
       inkscape:connector-curvature="0"
       style="fill:#99b6c4" />
    <path
       d="M 55.143,312 C 38.931,309.6264 22.881,297.556 15.256,282.003 l -3.9222,-8 -0.66667,-84.667 c -0.36667,-46.567 -0.44672,-86.017 -0.1779,-87.667 l 0.48877,-3 h 309.02 V 56.002 h -309.7 l 0.78264,-6.6082 c 1.8293,-15.446 13.668,-30.987 29.57,-38.816 l 9.2935,-4.5757 112.59,-0.36287 c 99.624,-0.32109 113.44,-0.11879 120.03,1.7572 13.825,3.9379 26.396,14.544 33.156,27.972 5.5739,11.073 5.7918,16.298 5.3632,128.63 l -0.40952,107.33 -4.2466,8.9644 c -8.1039,17.107 -23.06,28.793 -40.465,31.617 -9.9629,1.6164 -209.83,1.6909 -220.81,0.0823 z"
       id="path24"
       inkscape:connector-curvature="0"
       style="fill:#95b3c1" />
    <path
       d="M 54.971,311.98 C 39.128,309.67 22.764,297.319 15.256,282.004 l -3.9222,-8 -0.66667,-83.333 c -0.36667,-45.833 -0.45102,-85.283 -0.18746,-87.667 l 0.47921,-4.3333 h 308.98 l 0.41921,-23.667 c 0.23057,-13.017 0.39441,25.833 0.36411,86.333 l -0.0551,110 -4.2466,8.9644 c -8.2882,17.496 -23.594,29.104 -41.854,31.744 -10.208,1.4755 -209.43,1.4158 -219.6,-0.0659 z M 11.506,47.5 C 13.2465,34.009 27.401,16.59 42.292,9.612 L 50.0003,6 h 230.67 l 8.9877,4.2575 c 15.204,7.202 27.528,22.357 29.675,36.493 0.38301,2.5207 0.34049,3.8332 -0.0945,2.9165 -1.1609,-2.4466 -306.76,-2.4466 -307.63,0 -0.32578,0.91667 -0.36978,-0.05828 -0.09779,-2.1666 z"
       id="path26"
       inkscape:connector-curvature="0"
       style="fill:#90b0be" />
    <path
       d="M 54.667,311.82 C 38.411,309.1582 22.768,297.322 15.256,281.999 l -3.9222,-8 -0.66667,-83.333 c -0.36667,-45.833 -0.45102,-85.283 -0.18746,-87.667 l 0.47921,-4.3333 h 308.98 l 0.41921,-23.667 c 0.23057,-13.017 0.39441,25.833 0.36411,86.333 l -0.0551,110 -4.2466,8.9644 c -8.2882,17.496 -23.594,29.104 -41.854,31.744 -10.945,1.582 -210.11,1.3822 -219.9,-0.22068 z M 10.878,49.33 c 0,-1.8333 0.30263,-2.5833 0.67252,-1.6667 0.36988,0.91667 0.36988,2.4167 0,3.3333 -0.36988,0.9166 -0.67252,0.16667 -0.67252,-1.6667 z m 307.89,-2.1111 c 0.064,-1.5533 0.37992,-1.8692 0.80555,-0.80556 0.38516,0.9625 0.3378,2.1125 -0.1052,2.5556 -0.44307,0.44305 -0.75819,-0.34445 -0.70029,-1.75 z m -1.4386,-4.3333 c 0,-1.1761 -37.079,-1.5556 -152,-1.5556 -83.6,0 -152,-0.31995 -152,-0.71099 0,-0.39104 1.4347,-3.5423 3.1883,-7.0027 4.2217,-8.3312 16.288,-19.563 25.808,-24.025 l 7.6702,-3.5945 h 230.67 l 8.9877,4.2575 c 11.095,5.2557 21.334,15.211 25.898,25.18 1.8632,4.0699 3.0262,7.7613 2.5842,8.2033 -0.44193,0.44193 -0.80351,0.1035 -0.80351,-0.75205 z"
       id="path28"
       inkscape:connector-curvature="0"
       style="fill:#8bacbb" />
    <path
       d="M 54.667,311.82 C 38.411,309.1582 22.768,297.322 15.256,281.999 l -3.9222,-8 -0.66667,-83.333 c -0.36667,-45.833 -0.45102,-85.283 -0.18746,-87.667 l 0.47921,-4.3333 h 308.98 l 0.41921,-23.667 c 0.23057,-13.017 0.39441,25.833 0.36411,86.333 l -0.0551,110 -4.2466,8.9644 c -8.2882,17.496 -23.594,29.104 -41.854,31.744 -10.945,1.582 -210.11,1.3822 -219.9,-0.22068 z M 10.772,49.89 c 0.06398,-1.5533 0.37992,-1.8692 0.80556,-0.80556 0.38516,0.9625 0.33779,2.1125 -0.10526,2.5556 -0.44306,0.44306 -0.75819,-0.34444 -0.70029,-1.75 z m 308,-2.6667 c 0.064,-1.5533 0.37992,-1.8692 0.80555,-0.80556 0.38516,0.9625 0.3378,2.1125 -0.1052,2.5556 -0.44307,0.44305 -0.75819,-0.34445 -0.70029,-1.75 z m -3.8653,-10.561 -1.5266,-3.3504 -148.57,0.3448 -148.57,0.34481 2.2119,-3.774 c 3.7728,-6.4372 15.843,-16.867 23.875,-20.632 l 7.6702,-3.5945 h 230.67 l 8.9877,4.2575 c 10.144,4.8054 20.612,14.45 24.984,23.02 1.5846,3.1061 2.6367,5.8919 2.338,6.1906 -0.2987,0.2987 -1.23,-0.9646 -2.0697,-2.8073 z"
       id="path30"
       inkscape:connector-curvature="0"
       style="fill:#86a9b8" />
    <path
       d="M 54.667,311.82 C 38.411,309.1582 22.768,297.322 15.256,281.999 l -3.9222,-8 -0.66667,-83.333 c -0.36667,-45.833 -0.45102,-85.283 -0.18746,-87.667 l 0.47921,-4.3333 h 308.98 l 0.42448,-21.667 c 0.23346,-11.917 0.39832,26.933 0.36636,86.333 l -0.0581,108 -4.2466,8.9644 c -8.2882,17.496 -23.594,29.104 -41.854,31.744 -10.945,1.582 -210.11,1.3822 -219.9,-0.22068 z M 10.772,49.89 c 0.06398,-1.5533 0.37992,-1.8692 0.80556,-0.80556 0.38516,0.9625 0.33779,2.1125 -0.10526,2.5556 -0.44306,0.44306 -0.75819,-0.34444 -0.70029,-1.75 z m 308,-2.6667 c 0.064,-1.5533 0.37992,-1.8692 0.80555,-0.80556 0.38516,0.9625 0.3378,2.1125 -0.1052,2.5556 -0.44307,0.44305 -0.75819,-0.34445 -0.70029,-1.75 z m -7.8944,-17.889 -2.9573,-4 h -142.36 c -111.7,0 -142.78,0.35771 -144.29,1.6609 -1.0633,0.91348 1.0667,-1.5177 4.7333,-5.4026 4.0465,-4.2873 10.062,-8.7394 15.305,-11.328 l 8.6386,-4.264 h 230.72 l 8.9877,4.2575 c 8.7089,4.1255 20.258,14.017 23.552,20.172 2.1926,4.0969 1.1465,3.6046 -2.3287,-1.0958 z"
       id="path32"
       inkscape:connector-curvature="0"
       style="fill:#81a5b5" />
    <path
       d="M 54.667,311.82 C 38.411,309.1582 22.768,297.322 15.256,281.999 l -3.9222,-8 -0.66667,-83.333 c -0.36667,-45.833 -0.45102,-85.283 -0.18746,-87.667 l 0.47921,-4.3333 h 308.98 l 0.42448,-21.667 c 0.23346,-11.917 0.39832,26.933 0.36636,86.333 l -0.0581,108 -4.2466,8.9644 c -8.2882,17.496 -23.594,29.104 -41.854,31.744 -10.945,1.582 -210.11,1.3822 -219.9,-0.22068 z m 264.11,-264.6 c 0.064,-1.5533 0.37992,-1.8692 0.80555,-0.80556 0.38516,0.9625 0.3378,2.1125 -0.1052,2.5556 -0.44307,0.44305 -0.75819,-0.34445 -0.70029,-1.75 z m -7.4236,-17.386 c -1.2604,-1.9236 -1.6326,-3.0902 -0.82717,-2.5924 1.5392,0.95127 4.6436,6.0899 3.679,6.0899 -0.30812,0 -1.5915,-1.5739 -2.8519,-3.4975 z m -291.35,-2.3392 c 0,-0.27688 1.05,-1.3269 2.3333,-2.3333 2.1147,-1.6585 2.1619,-1.6113 0.50341,0.50341 -1.7418,2.221 -2.8367,2.9273 -2.8367,1.8299 z m 284.58,-6.4966 -3.9161,-4.3333 4.3333,3.9161 c 2.3833,2.1539 4.3333,4.1039 4.3333,4.3333 0,1.0301 -1.1002,0.12315 -4.7505,-3.9161 z m -274.68,-3.4328 c 1.4133,-1.6314 6.5007,-4.9014 11.305,-7.2667 L 49.944,5.9982 h 230.72 l 8.314,3.8401 c 4.5727,2.112 9.0438,4.812 9.9357,6 1.3621,1.8141 1.3225,1.8931 -0.24732,0.49327 -1.4683,-1.3093 -29.932,-1.6667 -132.76,-1.6667 h -130.89 l -3.8465,2.9333 -3.8465,2.9333 z"
       id="path34"
       inkscape:connector-curvature="0"
       style="fill:#69a8ca" />
    <path
       d="M 54.667,311.82 C 38.411,309.1582 22.768,297.322 15.256,281.999 l -3.9222,-8 -0.66667,-83.333 c -0.36667,-45.833 -0.45102,-85.283 -0.18746,-87.667 l 0.47921,-4.3333 h 308.98 l 0.42448,-21.667 c 0.23346,-11.917 0.39832,26.933 0.36636,86.333 l -0.0581,108 -4.2466,8.9644 c -8.2882,17.496 -23.594,29.104 -41.854,31.744 -10.945,1.582 -210.11,1.3822 -219.9,-0.22068 z m 264.11,-264.6 c 0.064,-1.5533 0.37992,-1.8692 0.80555,-0.80556 0.38516,0.9625 0.3378,2.1125 -0.1052,2.5556 -0.44307,0.44305 -0.75819,-0.34445 -0.70029,-1.75 z m -7.4236,-17.386 c -1.2604,-1.9236 -1.6326,-3.0902 -0.82717,-2.5924 1.5392,0.95127 4.6436,6.0899 3.679,6.0899 -0.30812,0 -1.5915,-1.5739 -2.8519,-3.4975 z m -291.35,-2.3392 c 0,-0.27688 1.05,-1.3269 2.3333,-2.3333 2.1147,-1.6585 2.1619,-1.6113 0.50341,0.50341 -1.7418,2.221 -2.8367,2.9273 -2.8367,1.8299 z m 284.58,-6.4966 -3.9161,-4.3333 4.3333,3.9161 c 2.3833,2.1539 4.3333,4.1039 4.3333,4.3333 0,1.0301 -1.1002,0.12315 -4.7505,-3.9161 z m -274.68,-3.4328 c 1.4133,-1.6314 6.5007,-4.9014 11.305,-7.2667 L 49.944,5.9982 h 230.72 l 8.314,3.8401 c 4.5727,2.112 9.0438,4.812 9.9357,6 1.3621,1.8141 1.3225,1.8931 -0.24732,0.49327 -1.4683,-1.3093 -29.932,-1.6667 -132.76,-1.6667 h -130.89 l -3.8465,2.9333 -3.8465,2.9333 z"
       id="path36"
       inkscape:connector-curvature="0"
       style="fill:#7ca1b1" />
    <path
       d="M 54.667,311.82 C 38.411,309.1582 22.768,297.322 15.256,281.999 l -3.9222,-8 -0.66667,-83.333 c -0.36667,-45.833 -0.45102,-85.283 -0.18746,-87.667 l 0.47921,-4.3333 h 308.98 l 0.42448,-21.667 c 0.23346,-11.917 0.39832,26.933 0.36636,86.333 l -0.0581,108 -4.2466,8.9644 c -8.2882,17.496 -23.594,29.104 -41.854,31.744 -10.945,1.582 -210.11,1.3822 -219.9,-0.22068 z M 304.587,21 l -3.9161,-4.3333 4.3333,3.9161 c 2.3833,2.1539 4.3333,4.1039 4.3333,4.3333 0,1.0301 -1.1002,0.12315 -4.7505,-3.9161 z M 49.087,7.089 c 0.9625,-0.38516 2.1125,-0.33779 2.5556,0.10526 0.44306,0.44306 -0.34444,0.75819 -1.75,0.70029 C 48.3393,7.830572 48.0234,7.51463 49.08704,7.08899 Z m 5.9167,-1.3416 c 1.2833,-0.33537 3.3833,-0.33537 4.6667,0 1.2833,0.33537 0.23333,0.60976 -2.3333,0.60976 -2.5667,0 -3.6167,-0.27439 -2.3333,-0.60976 z m 216,0 c 1.2833,-0.33537 3.3833,-0.33537 4.6667,0 1.2833,0.33537 0.23333,0.60976 -2.3333,0.60976 -2.5667,0 -3.6167,-0.27439 -2.3333,-0.60976 z"
       id="path38"
       inkscape:connector-curvature="0"
       style="fill:#8997ac" />
    <path
       d="M 55.533,311.93 C 35.893,308.6346 19.654,295.035 13.298,276.56 10.7853,269.2568 10.6663,265.061 10.6663,183.786 V 98.661 h 310.67 v 82.387 c 0,69.717 -0.3143,83.593 -2.0439,90.234 -5.7944,22.246 -21.991,36.995 -44.623,40.633 -10.33,1.6606 -209.24,1.674 -219.13,0.0147 z M 320.423,64 c 0,-4.7667 0.242,-6.7167 0.53777,-4.3333 0.29576,2.3833 0.29576,6.2833 0,8.6667 -0.29577,2.3833 -0.53777,0.43333 -0.53777,-4.3333 z m -16.528,-43.667 -3.2324,-3.6667 3.6667,3.2324 c 3.4271,3.0212 4.2781,4.1009 3.2324,4.1009 -0.23883,0 -1.8888,-1.65 -3.6667,-3.6667 z M 56.355,5.742 c 1.2973,-0.33806 3.0973,-0.31583 4,0.049405 0.90271,0.36523 -0.15871,0.64182 -2.3587,0.61465 -2.19999,-0.02717 -2.9386,-0.326 -1.6413,-0.66406 z m 214.67,0 c 1.2973,-0.33806 3.0973,-0.31583 4,0.049405 0.90271,0.36523 -0.1587,0.64182 -2.3587,0.61465 -2.2,-0.027173 -2.9386,-0.326 -1.6413,-0.66406 z"
       id="path40"
       inkscape:connector-curvature="0"
       style="fill:#7690a7" />
    <path
       d="M 55.533,311.93 C 35.893,308.6346 19.654,295.035 13.298,276.56 10.7853,269.2568 10.6663,265.061 10.6663,183.786 V 98.661 h 310.67 v 82.387 c 0,69.717 -0.3143,83.593 -2.0439,90.234 -5.7944,22.246 -21.991,36.995 -44.623,40.633 -10.33,1.6606 -209.24,1.674 -219.13,0.0147 z"
       id="path42"
       inkscape:connector-curvature="0"
       style="fill:#159bdb" />
    <path
       d="m 57,312.36 -5,-0.52302 -0.32488,-102.25 -0.32488,-102.25 -0.35012,101.67 c -0.19505,56.639 -0.86484,101.67 -1.5123,101.67 -2.6978,0 -11.934,-4.6181 -17.756,-8.878 -8.0476,-5.8886 -15.103,-15.543 -18.434,-25.224 -2.5127,-7.3032 -2.6317,-11.499 -2.6317,-92.774 v -85.125 h 310.67 v 82.387 c 0,69.717 -0.3143,83.593 -2.0439,90.234 -5.7944,22.246 -21.991,36.995 -44.623,40.633 -8.1671,1.3129 -205.51,1.7138 -217.67,0.4421 z"
       id="path44"
       inkscape:connector-curvature="0"
       style="fill:#797a90" />
    <path
       d="M 52.634,310.36 C 52.28298,309.42744 51.84296,263.364 51.65619,208 l -0.33958,-100.67 -0.32477,101.76 -0.32477,101.76 -3,-0.90743 c -13.157,-3.9796 -25.884,-15.215 -32.101,-28.338 l -4.2325,-8.9343 -0.37044,-87 -0.37044,-87 h 310.74 l -0.0107,79.667 c -0.007,48.033 -0.5547,83.108 -1.3816,88.333 -2.7841,17.592 -14.097,32.988 -29.942,40.749 l -8,3.9181 -114.36,0.36224 c -91.57,0.29004 -114.49,0.0243 -115,-1.3333 z"
       id="path46"
       inkscape:connector-curvature="0"
       style="fill:#7d4a62" />
    <path
       d="m 52.889,311.11 c -0.48889,-0.48888 -0.88889,-2.2889 -0.88889,-4 v -3.1111 h 121.6 c 81.735,0 121.16,0.44074 120.26,1.3444 -0.73944,0.73944 -4.7444,2.5394 -8.9,4 -7.3141,2.5707 -11.129,2.6556 -119.37,2.6556 -61.496,0 -112.21,-0.4 -112.7,-0.8889 z M 42,307.4202 35.3333,304.2092 43,304.104 c 7.3169,-0.1004 7.6667,0.0469 7.6667,3.2282 0,4.0864 -0.35771,4.09 -8.6667,0.088 z m -15.954,-10.638 c -5.4673,-5.4673 -11.103,-14.7 -13.297,-21.783 l -0.92919,-3 h 38.846 v 30.667 h -9.3684 c -9.298,0 -9.4126,-0.0443 -15.252,-5.8833 z M 52,287.3322 v -15.333 h 266.96 l -0.88976,3.6667 c -1.3976,5.7593 -8.9115,17.476 -14.403,22.459 l -5.0038,4.5406 h -246.66 z m -41.333,-33.333 v -15.333 h 40 v 30.667 h -40 z m 41.333,0 v -15.333 h 269.33 v 9.1472 c 0,5.031 -0.38156,11.931 -0.84789,15.333 l -0.84791,6.1861 h -267.64 z m -41.333,-33.333 v -15.333 h 40 v 30.667 h -40 z m 41.333,0 v -15.333 h 269.33 v 30.667 H 52 Z m -41.333,-32.667 v -14.667 h 40 v 29.333 h -40 z m 41.333,0 v -14.667 h 269.33 v 29.333 H 52 Z m -41.333,-34 v -16.667 h 40 v 33.333 h -40 z m 41.333,0 v -16.667 h 269.33 v 33.333 H 52 Z m -41.333,-37.333 v -18 h 310.67 v 36 H 52.097 l -0.43211,-13.667 -0.43212,-13.667 -0.2812,13.667 -0.2812,13.667 h -40 z"
       id="path48"
       inkscape:connector-curvature="0"
       style="fill:#0f5799" />
    <path
       d="m 52.889,311.11 c -0.48889,-0.48888 -0.88889,-2.2889 -0.88889,-4 0,-2.7407 0.63492,-3.1111 5.3333,-3.1111 5.037,0 5.3333,0.22222 5.3333,4 0,3.6444 -0.39506,4 -4.4444,4 -2.4444,0 -4.8444,-0.4 -5.3333,-0.8889 z M 64,307.9989 v -4 h 115.6 c 77.702,0 115.16,0.44074 114.26,1.3444 -0.73944,0.73944 -4.7444,2.5394 -8.9,4 -7.3031,2.5668 -11.122,2.6556 -114.26,2.6556 H 64 Z m -22,-0.57866 -6.6667,-3.211 7.6667,-0.1052 c 7.3169,-0.1004 7.6667,0.0469 7.6667,3.2282 0,4.0864 -0.35771,4.09 -8.6667,0.088 z m -15.954,-10.638 c -5.4673,-5.4673 -11.103,-14.7 -13.297,-21.783 l -0.92919,-3 h 38.846 v 30.667 h -9.3684 c -9.298,0 -9.4126,-0.0443 -15.252,-5.8833 z m 25.954,-9.45 v -15.333 h 10.667 v 30.667 H 52 Z m 12,0 v -15.333 h 254.96 l -0.88976,3.6667 c -1.3976,5.7593 -8.9115,17.476 -14.403,22.459 l -5.0038,4.5406 h -234.66 z m -53.333,-33.333 v -15.333 h 40 v 30.667 h -40 z m 41.333,0 v -15.333 h 10.667 v 30.667 H 52 Z m 12,0 v -15.333 h 257.33 v 9.1472 c 0,5.031 -0.38156,11.931 -0.84789,15.333 l -0.84791,6.1861 h -255.64 z m -53.333,-33.333 v -15.333 h 40 v 30.667 h -40 z m 41.333,0 v -15.333 h 10.667 v 30.667 H 52 Z m 12,0 v -15.333 h 257.33 v 30.667 H 64 Z m -53.333,-32.667 v -14.667 h 40 v 29.333 h -40 z m 41.333,0 v -14.667 h 10.667 v 29.333 H 52 Z m 12,0 v -14.667 h 257.33 v 29.333 H 64 Z m -53.333,-34 v -16.667 h 40 v 33.333 h -40 z m 41.333,0 v -16.667 h 10.667 v 33.333 H 52 Z m 12,0 v -16.667 h 257.33 v 33.333 H 64 Z m -53.333,-37.333 v -18 h 21.222 c 15.674,0 21.426,0.43572 22,1.6667 0.62222,1.3333 0.93333,1.3333 1.5556,0 0.84234,-1.805 9.8889,-2.3539 9.8889,-0.6 0,0.58666 -0.66527,1.7319 -1.4784,2.545 -0.93683,0.93683 -1.4059,7.1397 -1.2806,16.933 l 0.19777,15.455 h -10.679 l -0.43211,-13.667 -0.43212,-13.667 -0.2812,13.667 -0.2812,13.667 h -40 z M 64,121.20104 c 0,-9.6294 0.613,-14.757 2.1519,-18 l 2.1519,-4.5348 h 253.03 v 36 h -257.33 z"
       id="path50"
       inkscape:connector-curvature="0"
       style="fill:#474770" />
    <path
       d="m 53.667,311.12 c -0.91667,-0.36988 -1.6667,-2.1225 -1.6667,-3.8947 0,-2.8704 0.58238,-3.2222 5.3333,-3.2222 5.037,0 5.3333,0.22222 5.3333,4 0,3.5003 -0.45809,3.9868 -3.6667,3.8947 -2.0167,-0.0579 -4.4167,-0.40789 -5.3333,-0.77777 z M 64,308.0334 v -4.0304 l 115.67,0.11106 115.67,0.11107 -7.3333,3.5555 -7.3333,3.5555 -108.33,0.36369 -108.33,0.36369 v -4.0304 z m -22,-0.60902 -6.6667,-3.211 7.6667,-0.1052 c 7.3169,-0.1004 7.6667,0.0469 7.6667,3.2282 0,4.0864 -0.35771,4.09 -8.6667,0.088 z m -16.267,-11.79 c -7.1935,-7.606 -8.903,-10.276 -11.757,-18.365 l -1.858,-5.2662 h 38.548 v 30.667 H 32.386 Z M 52,287.33628 v -15.333 h 10.667 v 30.667 H 52 Z m 12,0 v -15.333 h 127.33 c 89.027,0 127.33,0.42636 127.33,1.4173 0,3.6671 -7.9726,17.071 -13.58,22.832 l -6.2468,6.4174 h -234.84 z m -52.444,-18.889 c -0.48889,-0.48888 -0.88889,-7.3889 -0.88889,-15.333 v -14.444 h 40 v 30.667 h -19.111 c -10.511,0 -19.511,-0.4 -20,-0.88889 z M 52,254.00328 v -15.333 h 10.667 v 30.667 H 52 Z m 12,0 v -15.333 h 256 v 30.667 H 64 Z m -53.333,-33.333 v -15.333 h 40 v 30.667 h -40 z m 41.333,0 v -15.333 h 10.667 v 30.667 H 52 Z m 12,0 v -15.333 h 256 v 30.667 H 64 Z m -53.333,-32.667 v -14.667 h 40 v 29.333 h -40 z m 41.333,0 v -14.667 h 10.667 v 29.333 H 52 Z m 12,0 v -14.667 h 256 v 29.333 H 64 Z m -53.333,-34 v -16.667 h 40 v 33.333 h -40 z m 41.333,0 v -16.667 h 10.667 v 33.333 H 52 Z m 12,0 v -16.667 h 256 v 33.333 H 64 Z m -53.333,-31.434 v -12.101 l 17.964,0.35903 c 9.8802,0.19747 18.38,-0.0572 18.889,-0.5659 0.50872,-0.50872 -7.5751,-0.92494 -17.964,-0.92494 H 10.667 v -10.667 h 21.222 c 15.674,0 21.426,0.43572 22,1.6667 0.62222,1.3333 0.93333,1.3333 1.5556,0 0.6766,-1.4499 9.8889,-2.5234 9.8889,-1.1524 0,0.28284 -0.88684,2.2328 -1.9707,4.3333 -1.5702,3.0429 -3.0995,3.9546 -7.5245,4.4857 l -5.5538,0.66667 0.26933,13 0.26933,13 h -40.156 z M 52,122.00337 v -12.667 h 10.667 v 25.333 H 52 Z m 12,0.1197 v -12.547 l 11.667,-0.83851 c 6.4167,-0.46117 14.707,-1.6389 18.422,-2.6171 5.6099,-1.477 11.299,-1.4845 33.547,-0.0439 43.8,2.8361 93.175,1.9231 121.03,-2.238 5.1333,-0.7668 19.833,-1.936 32.667,-2.5982 12.833,-0.66218 26.783,-1.5857 31,-2.0523 l 7.6667,-0.84829 v 36.33 h -256 z m 0.36998,-15.205 c 0.23234,-0.50332 1.2455,-2.5651 2.2515,-4.5818 l 1.8291,-3.6667 110.11,0.26493 c 60.559,0.14571 105.61,0.42607 100.11,0.62303 -5.5,0.19696 -17.5,1.2698 -26.667,2.3841 -37.567,4.5666 -80.641,5.2747 -129.01,2.1206 -18.921,-1.2337 -23.607,-1.1644 -28.484,0.42154 -6.1587,2.0028 -30.856,3.9979 -30.134,2.4343 z"
       id="path52"
       inkscape:connector-curvature="0"
       style="fill:#333367" />
    <path
       d="m 53.667,311.12 c -0.91667,-0.36988 -1.6667,-2.1225 -1.6667,-3.8947 0,-2.8704 0.58238,-3.2222 5.3333,-3.2222 5.037,0 5.3333,0.22222 5.3333,4 0,3.5003 -0.45809,3.9868 -3.6667,3.8947 -2.0167,-0.0579 -4.4167,-0.40789 -5.3333,-0.77777 z M 64,308.0406 v -4.0376 l 115.67,0.11106 115.67,0.11107 -7.3333,3.5555 -7.3333,3.5555 -108.33,0.37094 -108.33,0.37094 v -4.0376 z m -21.333,-0.50572 -7.3333,-2.8652 7.1474,-0.40812 c 8.041,-0.45916 8.5795,-0.2229 7.9603,3.4922 -0.43648,2.6188 -0.51733,2.6166 -7.7744,-0.21884 z m -16.933,-11.9 c -7.1935,-7.606 -8.903,-10.276 -11.757,-18.365 l -1.858,-5.2662 h 38.548 v 30.667 h -18.28 z m 26.267,-8.2981 v -15.333 h 10.667 v 30.667 H 52.001 Z m 12,0 v -15.333 h 254.85 l -0.9292,3 c -2.1975,7.095 -7.5568,15.762 -13.293,21.499 l -6.1678,6.1679 H 64.001 Z m -52.444,-18.889 c -0.48889,-0.48888 -0.88889,-7.3889 -0.88889,-15.333 v -14.444 h 40 v 30.667 h -19.111 c -10.511,0 -19.511,-0.4 -20,-0.88889 z m 40.444,-14.444 v -15.333 h 10.667 v 30.667 H 52.001 Z m 12,0 v -15.333 h 256 v 30.667 h -256 z m -53.333,-33.333 v -15.333 h 40 v 30.667 h -40 z m 41.333,0 v -15.333 h 10.667 v 30.667 H 52.001 Z m 12,0 v -15.333 h 256 v 30.667 h -256 z m -53.333,-32.667 v -14.667 h 40 v 29.333 h -40 z m 41.333,0 v -14.667 h 10.667 v 29.333 H 52.001 Z m 12,0 v -14.667 h 256 v 29.333 h -256 z m -53.333,-34 v -16.667 h 40 v 33.333 h -40 z m 41.333,0 v -16.667 h 10.667 v 33.333 H 52.001 Z m 12,0 v -16.667 h 256 v 33.333 h -256 z m -53.333,-30.726 v -11.392 l 20,0.26931 20,0.26931 v 22.246 h -40 z m 41.333,-0.60765 v -12 h 10.667 v 24 H 52.001 Z m 12,0.18572 v -11.814 l 7,-0.8408 c 3.85,-0.46244 9.4,-0.85251 12.333,-0.86682 2.9333,-0.0143 8.1568,-0.88285 11.608,-1.9301 5.0534,-1.5335 9.4644,-1.6557 22.667,-0.62763 42.055,3.2748 111.96,1.9178 141.06,-2.7381 4.0333,-0.64532 13.633,-1.2194 21.333,-1.2757 7.7,-0.0563 19.4,-0.98965 26,-2.0741 6.6,-1.0844 12.45,-1.9821 13,-1.9949 0.55,-0.0128 1,8.0767 1,17.977 v 18 h -256 z m -53.032,-18.85 0.36554,-5.3314 20.889,-0.002 c 15.409,-0.0015 21.093,0.43527 21.667,1.6647 0.62222,1.3333 0.93333,1.3333 1.5556,0 0.66046,-1.4152 9.8889,-2.5396 9.8889,-1.2048 0,0.254 -0.90138,2.2687 -2.0031,4.477 -1.8103,3.6289 -2.7913,4.0976 -10.196,4.8715 -4.5059,0.47096 -15.919,0.85629 -25.362,0.85629 h -17.17 z m 42.366,1.3314 c 0,-0.73334 -0.26459,-1.3333 -0.58798,-1.3333 -0.32339,0 -0.9588,0.6 -1.412,1.3333 -0.45322,0.73333 -0.18863,1.3333 0.58798,1.3333 0.77661,0 1.412,-0.6 1.412,-1.3333 z m 11.187,1.3333 c 0.1494,-0.36667 1.0947,-2.3167 2.1007,-4.3333 l 1.8291,-3.6667 106.77,0.23394 c 58.726,0.12867 101.37,0.6151 94.775,1.081 -6.6,0.46586 -18.6,1.5485 -26.667,2.4058 -38.376,4.0787 -76.477,4.3274 -130.74,0.85342 -11.316,-0.72441 -15.499,-0.52514 -18,0.8574 -3.0404,1.681 -30.67,4.041 -30.07,2.5684 z"
       id="path54"
       inkscape:connector-curvature="0"
       style="fill:#262755" />
    <path
       d="m 53.667,311.12 c -0.91667,-0.36988 -1.6667,-2.1225 -1.6667,-3.8947 0,-2.8704 0.58238,-3.2222 5.3333,-3.2222 5.037,0 5.3333,0.22222 5.3333,4 0,3.5003 -0.45809,3.9868 -3.6667,3.8947 -2.0167,-0.0579 -4.4167,-0.40789 -5.3333,-0.77777 z M 64,308.003 v -4 l 115.67,0.0533 c 107.1,0.0495 115.37,0.21245 111.7,2.1999 -10.349,5.5999 -12.794,5.7144 -122.37,5.7309 L 64,312.003 Z m -19.301,0.53826 c -8.4444,-3.0911 -8.7523,-4.5383 -0.96555,-4.5383 6.5067,0 6.9333,0.20513 6.9333,3.3333 0,1.8333 -0.15,3.291 -0.33333,3.2394 -0.18333,-0.0517 -2.7188,-0.96718 -5.6345,-2.0345 z m -17.547,-11.538 c -7.0857,-7.4304 -10.778,-12.941 -13.12,-19.579 l -1.9128,-5.4214 h 38.548 v 30.667 h -9.0557 c -8.9172,0 -9.1384,-0.0867 -14.46,-5.6667 z m 24.849,-9.6667 v -15.333 h 10.667 v 30.667 H 52.001 Z m 12,0 v -15.333 h 254.85 l -0.9292,3 c -2.1975,7.095 -7.5568,15.762 -13.293,21.499 l -6.1678,6.1679 H 64.001 Z m -52.524,-20.109 c -0.44512,-1.16 -0.80932,-8.06 -0.80932,-15.333 v -13.224 h 40 v 30.667 h -19.191 c -16.269,0 -19.314,-0.32105 -20,-2.109 z m 40.524,-13.224 v -15.333 h 10.667 v 30.667 H 52.001 Z m 12,0 v -15.333 h 256 v 30.667 h -256 z m -53.333,-33.333 v -15.333 h 40 v 30.667 h -40 z m 41.333,0 v -15.333 h 10.667 v 30.667 H 52.001 Z m 12,0 v -15.333 h 256 v 30.667 h -256 z m -53.333,-32.667 v -14.667 h 40 v 29.333 h -40 z m 41.333,0 v -14.667 h 10.667 v 29.333 H 52.001 Z m 12,0 v -14.667 h 256 v 29.333 h -256 z m -53.333,-34 v -16.667 h 40 v 33.333 h -40 z m 41.333,0 v -16.667 h 10.667 v 33.333 H 52.001 Z m 12,0 v -16.667 h 256 v 33.333 h -256 z m -53.333,-30 v -10.667 h 40 v 21.333 h -40 z m 41.333,-0.66666 v -11.333 h 10.667 v 22.667 H 52.001 Z m 12,0.16666 v -11.167 l 4.1667,-0.83334 c 2.2917,-0.45833 7.5417,-0.83983 11.667,-0.84776 4.125,-0.008 10.5,-0.94378 14.167,-2.0797 4.591,-1.4222 9.1575,-1.8118 14.667,-1.2513 4.4,0.44763 26,1.3238 48,1.947 40.834,1.1568 64.766,0.33593 94.667,-3.247 8.8,-1.0545 24.1,-2.2941 34,-2.7548 17.243,-0.80234 27.309,-2.0425 32.333,-3.9837 2.1521,-0.83148 2.3333,0.50788 2.3333,17.241 v 18.143 h -256 z m -53.291,-17.167 c 0.09932,-7.0263 2.0198,-7.6667 22.993,-7.6667 14.223,0 19.616,0.44528 20.186,1.6667 0.62222,1.3333 0.93333,1.3333 1.5556,0 0.66046,-1.4153 9.8889,-2.5397 9.8889,-1.2049 0,0.254 -0.94394,2.354 -2.0977,4.6667 -1.6647,3.337 -2.9352,4.2048 -6.1555,4.2048 -3.439,0 -3.9485,-0.41832 -3.3406,-2.7428 0.45631,-1.7449 0.14908,-2.5534 -0.84449,-2.2222 -0.85896,0.28633 -1.5618,1.3706 -1.5618,2.4095 0,3.4101 -2.4515,3.8478 -21.667,3.8685 -18.833,0.0202 -19,-0.006 -18.958,-2.9796 z m 54.667,-1.2814 c 0.02332,-0.94522 0.83947,-2.7686 1.8137,-4.0519 1.4727,-1.9401 3.9507,-2.3333 14.703,-2.3333 8.2555,0 12.635,0.48069 12.11,1.3293 -0.54604,0.88352 0.35096,0.88352 2.6748,0 5.5528,-2.1112 117.09,-1.7863 115.81,0.33737 -0.77741,1.294 -0.57046,1.3186 0.9255,0.1099 1.3406,-1.0832 10.443,-1.5286 29.923,-1.4643 15.398,0.05084 25.896,0.30942 23.329,0.57463 -2.5667,0.26521 -11.267,1.3573 -19.333,2.4268 -8.0667,1.0696 -16.167,1.8517 -18,1.738 -1.8333,-0.11364 -8.7333,0.32599 -15.333,0.97695 -14.854,1.465 -50.994,1.099 -88.226,-0.89356 -24.532,-1.3129 -28.894,-1.2458 -33.333,0.51218 -6.6463,2.6322 -27.125,3.1906 -27.065,0.73794 z m 208.29,-5.971 c 1.2833,-0.33537 3.3833,-0.33537 4.6667,0 1.2833,0.33537 0.23334,0.60976 -2.3333,0.60976 -2.56664,0 -3.6167,-0.27439 -2.3333,-0.60976 z"
       id="path56"
       inkscape:connector-curvature="0"
       style="fill:#1e204a" />
    <path
       d="m 53.667,311.12 c -0.91667,-0.36988 -1.6667,-2.1225 -1.6667,-3.8947 0,-2.8704 0.58238,-3.2222 5.3333,-3.2222 5.037,0 5.3333,0.22222 5.3333,4 0,3.5003 -0.45809,3.9868 -3.6667,3.8947 -2.0167,-0.0579 -4.4167,-0.40789 -5.3333,-0.77777 z M 64,308.003 v -4 l 115.67,0.0533 c 107.1,0.0495 115.37,0.21245 111.7,2.1999 -10.349,5.5999 -12.794,5.7144 -122.37,5.7309 L 64,312.003 Z m -19.301,0.53826 c -8.4444,-3.0911 -8.7523,-4.5383 -0.96555,-4.5383 6.5067,0 6.9333,0.20513 6.9333,3.3333 0,1.8333 -0.15,3.291 -0.33333,3.2394 -0.18333,-0.0517 -2.7188,-0.96718 -5.6345,-2.0345 z m -17.547,-11.538 c -7.0857,-7.4304 -10.778,-12.941 -13.12,-19.579 l -1.9128,-5.4214 h 38.548 v 30.667 h -9.0557 c -8.9172,0 -9.1384,-0.0867 -14.46,-5.6667 z m 24.849,-9.6667 v -15.333 h 10.667 v 30.667 H 52.001 Z m 12,0 v -15.333 h 254.85 l -0.9292,3 c -2.1975,7.095 -7.5568,15.762 -13.293,21.499 l -6.1678,6.1679 H 64.001 Z m -52.524,-20.109 c -0.44512,-1.16 -0.80932,-8.06 -0.80932,-15.333 v -13.224 h 40 v 30.667 h -19.191 c -16.269,0 -19.314,-0.32105 -20,-2.109 z m 40.524,-13.224 v -15.333 h 10.667 v 30.667 H 52.001 Z m 12,0 v -15.333 h 256 v 30.667 h -256 z m -53.333,-33.333 v -15.333 h 40 v 30.667 h -40 z m 41.333,0 v -15.333 h 10.667 v 30.667 H 52.001 Z m 12,0 v -15.333 h 256 v 30.667 h -256 z m -53.333,-32.667 v -14.667 h 40 v 29.333 h -40 z m 41.333,0 v -14.667 h 10.667 v 29.333 H 52.001 Z m 12,0 v -14.667 h 256 v 29.333 h -256 z m -53.333,-34 v -16.667 h 40 v 33.333 h -40 z m 41.333,0 v -16.667 h 10.667 v 33.333 H 52.001 Z m 12,0 v -16.667 h 256 v 33.333 h -256 z m -53.333,-30 v -10.667 h 40 v 21.333 h -40 z m 41.333,-0.66666 v -11.333 h 10.667 v 22.667 H 52.001 Z m 12,0.16666 v -11.167 l 4.1667,-0.83334 c 2.2917,-0.45833 7.5417,-0.83983 11.667,-0.84776 4.125,-0.008 10.5,-0.94378 14.167,-2.0797 4.591,-1.4222 9.1575,-1.8118 14.667,-1.2513 4.4,0.44763 26,1.3238 48,1.947 40.834,1.1568 64.766,0.33593 94.667,-3.247 8.8,-1.0545 24.1,-2.2941 34,-2.7548 17.243,-0.80234 27.309,-2.0425 32.333,-3.9837 2.1521,-0.83148 2.3333,0.50788 2.3333,17.241 v 18.143 h -256 z m -42.937,-16.493 c 6.0848,-0.24762 15.685,-0.24624 21.333,0.003 5.6485,0.24931 0.67002,0.45191 -11.063,0.45022 -11.733,-0.002 -16.355,-0.2056 -10.27,-0.45322 z m 32.78,-0.87249 c 0.15059,-1.026 0.99229,-2.7312 1.8705,-3.7893 0.87816,-1.0581 1.2019,-2.3186 0.71934,-2.8012 -0.48253,-0.48253 1.3227,-0.87732 4.0116,-0.87732 2.6889,0 4.8889,0.20782 4.8889,0.46182 0,0.254 -0.94394,2.354 -2.0977,4.6667 -1.6149,3.2372 -2.9685,4.2048 -5.882,4.2048 -2.4842,0 -3.6903,-0.64092 -3.5106,-1.8655 z m 13.977,-1.0016 c -2.9225,-0.80363 -2.9457,-0.87682 -0.31659,-1 1.5602,-0.0731 3.5452,-0.98659 4.4112,-2.03 1.2741,-1.5352 0.98729,-2.0092 -1.5034,-2.4851 -1.6928,-0.32342 2.5456,-0.66974 9.4188,-0.7696 10.969,-0.15938 12.294,0.06291 10.837,1.8184 -1.9323,2.3282 0.03672,2.765 3.7543,0.83283 3.3035,-1.7169 31.219,-3.0748 30.228,-1.4703 -0.49111,0.79462 2.3196,1.3042 7.194,1.3042 4.4,0 8.3708,-0.6 8.824,-1.3333 0.45322,-0.73333 2.3621,-1.3333 4.2419,-1.3333 2.887,0 3.1601,0.31068 1.7581,2 -2.4546,2.9576 2.3142,2.6868 5.872,-0.33333 2.6178,-2.2222 2.6626,-2.2222 0.94172,0 -1.7015,2.1972 -0.71754,2.3333 16.86,2.3333 14.966,0 18.996,-0.3965 20.327,-2 1.7497,-2.1083 15.422,-2.9681 14.137,-0.88898 -0.37767,0.61107 -2.3972,0.85997 -4.4879,0.55313 -2.4024,-0.35259 -4.4467,0.21988 -5.5553,1.5556 -1.5201,1.8316 -1.3173,2.1135 1.5203,2.1135 1.8009,0 3.7065,-0.43218 4.2348,-0.9604 0.52823,-0.52823 3.0593,-0.77958 5.6246,-0.55856 2.7438,0.23639 6.0758,-0.52308 8.0926,-1.8446 1.8856,-1.2355 3.0192,-1.5842 2.5189,-0.77477 -1.2463,2.0166 2.2922,1.8636 4.5101,-0.19503 1.4506,-1.3465 1.5936,-1.3121 0.74394,0.17913 -0.8444,1.482 -0.16029,1.6683 3.4711,0.94534 5.3524,-1.0656 33.682,-2.1728 32.791,-1.2815 -0.33821,0.33821 -4.7369,0.96255 -9.7749,1.3874 -5.038,0.42485 -9.8056,1.2836 -10.595,1.9084 -0.78908,0.62478 -5.794,0.84768 -11.122,0.49533 -5.328,-0.35235 -10.236,-0.30184 -10.906,0.11225 -0.67002,0.4141 -4.9651,0.94711 -9.5446,1.1845 -4.5795,0.23736 -10.663,0.88306 -13.519,1.4349 -4.0108,0.77496 -4.9574,0.62246 -4.1586,-0.66998 0.82001,-1.3268 -4.2278,-1.5621 -24.376,-1.1364 -15.772,0.33326 -25.115,0.0586 -24.631,-0.72413 0.4813,-0.77878 -3.6353,-0.9495 -10.764,-0.44641 -6.349,0.44806 -11.544,0.31978 -11.544,-0.28506 0,-1.5479 -17.797,-1.7404 -21.558,-0.23319 -1.7097,0.68517 -4.3086,1.6884 -5.7753,2.2293 -3.4104,1.2578 -18.058,1.4998 -22.18,0.36632 z m 16.925,-3.0905 c 2.3973,-1.8132 2.1331,-1.9607 -3.5819,-2 -3.9014,-0.0268 -6.7804,0.69296 -7.8299,1.9576 -1.4276,1.7201 -0.92626,2 3.5819,2 2.883,0 6.4064,-0.88092 7.8299,-1.9576 z m -72.098,0.29093 2.3264,-3.6667 h 19.037 c 15.692,0 19.172,0.35144 19.805,2 0.66155,1.724 -2.0423,2 -19.591,2 -14.452,0 -20.873,0.48352 -22.131,1.6667 -0.9752,0.91666 -0.72619,0.0167 0.55335,-2 z m 261.02,-3.2524 c 1.2833,-0.33537 3.3833,-0.33537 4.6667,0 1.2833,0.33537 0.23334,0.60976 -2.3333,0.60976 -2.56664,0 -3.6167,-0.27439 -2.3333,-0.60976 z"
       id="path58"
       inkscape:connector-curvature="0"
       style="fill:#1d1e49" />
    <path
       d="m 53.667,311.12 c -0.91667,-0.36988 -1.6667,-2.1225 -1.6667,-3.8947 0,-2.8704 0.58238,-3.2222 5.3333,-3.2222 5.037,0 5.3333,0.22222 5.3333,4 0,3.5003 -0.45809,3.9868 -3.6667,3.8947 -2.0167,-0.0579 -4.4167,-0.40789 -5.3333,-0.77777 z M 64,308.003 v -4 l 115.67,0.0533 c 107.1,0.0495 115.37,0.21245 111.7,2.1999 -10.349,5.5999 -12.794,5.7144 -122.37,5.7309 L 64,312.003 Z m -19.301,0.53826 c -8.4444,-3.0911 -8.7523,-4.5383 -0.96555,-4.5383 6.5067,0 6.9333,0.20513 6.9333,3.3333 0,1.8333 -0.15,3.291 -0.33333,3.2394 -0.18333,-0.0517 -2.7188,-0.96718 -5.6345,-2.0345 z m -17.547,-11.538 c -7.0857,-7.4304 -10.778,-12.941 -13.12,-19.579 l -1.9128,-5.4214 h 38.548 v 30.667 h -9.0557 c -8.9172,0 -9.1384,-0.0867 -14.46,-5.6667 z m 24.849,-9.6667 v -15.333 h 10.667 v 30.667 H 52.001 Z m 12,0 v -15.333 h 254.85 l -0.9292,3 c -2.1975,7.095 -7.5568,15.762 -13.293,21.499 l -6.1678,6.1679 H 64.001 Z m -52.524,-20.109 c -0.44512,-1.16 -0.80932,-8.06 -0.80932,-15.333 v -13.224 h 40 v 30.667 h -19.191 c -16.269,0 -19.314,-0.32105 -20,-2.109 z m 40.524,-13.224 v -15.333 h 10.667 v 30.667 H 52.001 Z m 12,0 v -15.333 h 256 v 30.667 h -256 z m -53.333,-33.333 v -15.333 h 40 v 30.667 h -40 z m 41.333,0 v -15.333 h 10.667 v 30.667 H 52.001 Z m 12,0 v -15.333 h 256 v 30.667 h -256 z m -53.333,-32.667 v -14.667 h 40 v 29.333 h -40 z m 41.333,0 v -14.667 h 10.667 v 29.333 H 52.001 Z m 12,0 v -14.667 h 256 v 29.333 h -256 z m -53.333,-34 v -16.667 h 40 v 33.333 h -40 z m 41.333,0 v -16.667 h 10.667 v 33.333 H 52.001 Z m 12,0 v -16.667 h 256 v 33.333 h -256 z m -53.333,-30 v -10.667 h 40 v 21.333 h -40 z m 41.333,-0.66666 v -11.333 h 10.667 v 22.667 H 52.001 Z m 12,0.16666 v -11.167 l 4.1667,-0.83334 c 2.2917,-0.45833 7.5417,-0.83983 11.667,-0.84776 4.125,-0.008 10.5,-0.94378 14.167,-2.0797 4.591,-1.4222 9.1575,-1.8118 14.667,-1.2513 4.4,0.44763 26,1.3238 48,1.947 40.834,1.1568 64.766,0.33593 94.667,-3.247 8.8,-1.0545 24.1,-2.2941 34,-2.7548 17.243,-0.80234 27.309,-2.0425 32.333,-3.9837 2.1521,-0.83148 2.3333,0.50788 2.3333,17.241 v 18.143 h -256 z m -43.667,-16.491 c 5.6833,-0.24993 14.983,-0.24993 20.667,0 5.6833,0.24994 1.0333,0.45443 -10.333,0.45443 -11.367,0 -16.017,-0.20449 -10.333,-0.45443 z m 171.15,-1.9202 c 0.43785,-0.70847 -9.16,-1.0447 -23.244,-0.81437 -13.195,0.2158 -23.672,-0.1201 -23.284,-0.74643 0.38832,-0.62635 -4.7112,-0.92635 -11.332,-0.66667 -6.6211,0.25967 -11.76,0.0221 -11.419,-0.52786 0.95625,-1.5443 -24.707,-1.182 -27.645,0.39025 -1.4287,0.76463 -8.7393,1.6289 -16.246,1.9205 l -13.648,0.53029 12.642,-1.1422 c 6.9529,-0.62822 14.753,-1.7814 17.333,-2.5627 5.4586,-1.6526 30.737,-2.6158 29.821,-1.1362 -1.0947,1.7666 20.195,1.1275 22.207,-0.66667 1.59,-1.4179 1.6055,-1.3184 0.10346,0.66667 -1.6652,2.2006 -0.43824,2.3333 21.568,2.3333 19.114,0 23.633,-0.36165 24.993,-2 0.92061,-1.1093 3.517,-1.905 5.8299,-1.7866 l 4.1701,0.21338 -4.234,0.53036 c -2.3287,0.2917 -5.0287,1.4914 -6,2.666 -1.5923,1.9256 -1.1102,2.0516 4.9007,1.2804 8.6518,-1.1099 34.245,-3.2239 48.667,-4.0197 8.8083,-0.4861 9.848,-0.38219 4.6667,0.46638 -3.6667,0.6005 -16.267,1.781 -28,2.6232 -11.733,0.84226 -23.867,2.0093 -26.964,2.5934 -3.3139,0.62503 -5.3238,0.56547 -4.8848,-0.14477 z m -178.84,-2.7553 2.3264,-3.6667 h 19.18 c 16.16,0 19.18,0.31491 19.18,2 0,1.6877 -3.0815,2 -19.733,2 -13.952,0 -20.253,0.48828 -21.506,1.6667 -0.9752,0.91666 -0.72619,0.0167 0.55335,-2 z m 43.035,2.057 c 1.6586,-0.31892 4.0586,-0.30682 5.3333,0.0269 1.2748,0.33372 -0.08221,0.59466 -3.0155,0.57986 -2.9333,-0.0148 -3.9763,-0.28785 -2.3178,-0.60677 z m 2.6667,-5.3333 c 1.6586,-0.31892 4.0586,-0.30682 5.3333,0.02691 1.2748,0.33372 -0.08221,0.59466 -3.0155,0.57986 -2.9333,-0.0148 -3.9763,-0.28785 -2.3178,-0.60677 z m 13.984,-0.02828 c 2.75,-0.28766 7.25,-0.28766 10,0 2.75,0.28766 0.5,0.52302 -5,0.52302 -5.5,0 -7.75,-0.23536 -5,-0.52302 z"
       id="path60"
       inkscape:connector-curvature="0"
       style="fill:#151753" />
    <path
       d="m 54.333,311.08 c -1.4137,-0.36943 -2.3333,-1.885 -2.3333,-3.8453 0,-2.886 0.57631,-3.2356 5.3333,-3.2356 5.037,0 5.3333,0.22222 5.3333,4 0,4.1114 -1.8179,4.7835 -8.3333,3.0809 z m 9.6667,-3.0809 v -4 l 115.67,0.0204 c 76.737,0.0136 114.99,0.46434 113.67,1.3394 -1.1,0.72543 -5.8132,2.5162 -10.474,3.9796 -8.1677,2.5645 -12.273,2.6606 -113.67,2.6606 l -105.19,2e-5 z m -20.667,-0.57866 -6.6667,-3.211 7,-0.1052 c 6.6058,-0.0992 7,0.0825 7,3.2282 0,1.8333 -0.15,3.3256 -0.33333,3.3162 -0.18333,-0.009 -3.3333,-1.4621 -7,-3.2282 z m -15.403,-9.6432 c -5.5554,-5.019 -10.203,-11.977 -13.878,-20.778 l -2.0879,-5 h 38.702 v 30.667 H 42.003 c -8.1025,0 -9.0128,-0.31621 -14.074,-4.8885 z m 24.07,-10.445 v -15.333 h 10.667 v 30.667 h -10.667 z m 12,0 v -15.333 h 254.85 l -0.9276,3 c -2.0671,6.6853 -6.5655,13.843 -12.926,20.569 l -6.7128,7.0978 h -234.28 z m -52.524,-20.109 c -0.44512,-1.16 -0.80932,-8.06 -0.80932,-15.333 v -13.224 h 40 v 30.667 h -19.191 c -16.269,0 -19.314,-0.32105 -20,-2.109 z m 40.524,-13.224 v -15.333 h 10.667 v 30.667 h -10.667 z m 12,0 v -15.333 h 256 v 30.667 h -256 z m -53.333,-33.333 v -15.333 h 40 v 30.667 h -40 z m 41.333,0 v -15.333 h 10.667 v 30.667 h -10.667 z m 12,0 v -15.333 h 256 v 30.667 h -256 z m -53.333,-32.667 v -14.667 h 40 v 29.333 h -40 z m 41.333,0 v -14.667 h 10.667 v 29.333 h -10.667 z m 12,0 v -14.667 h 256 v 29.333 h -256 z m -53.333,-34 v -16.667 h 40 v 33.333 h -40 z m 41.333,0 v -16.667 h 10.667 v 33.333 h -10.667 z m 12,0 v -16.667 h 256 v 33.333 h -256 z m -53.333,-28.667 v -9.3333 h 40 v 18.667 h -40 z m 41.333,-0.51116 c 0,-9.082 0.23236,-9.9068 3,-10.648 7.4041,-1.9842 7.6667,-1.6477 7.6667,9.8263 v 10.667 h -10.667 z m 12,-0.62628 v -10.471 l 12.444,-0.74244 c 6.8444,-0.40834 14.994,-1.5065 18.111,-2.4403 4.5486,-1.3628 11.631,-1.3848 35.889,-0.11178 53.967,2.8322 79.018,2.1381 134.89,-3.7376 6.2333,-0.65554 16.733,-1.2507 23.333,-1.3226 11.274,-0.12282 26.327,-2.4338 29.788,-4.573 1.1408,-0.70505 1.5448,3.5994 1.5448,16.457 v 17.412 h -256 z m -43.667,-17.187 c 5.6833,-0.24993 14.983,-0.24993 20.667,0 5.6833,0.24994 1.0333,0.45443 -10.333,0.45443 -11.367,0 -16.017,-0.20449 -10.333,-0.45443 z m 171.15,-1.9236 c 0.43515,-0.70409 -9.2105,-1.0406 -23.246,-0.81105 -13.195,0.2158 -23.711,-0.0576 -23.37,-0.60763 0.34113,-0.55 -4.3652,-1.1208 -10.458,-1.2683 l -11.079,-0.26832 10.604,-0.45929 c 5.8319,-0.25261 11.532,-1.1819 12.667,-2.065 1.8114,-1.4098 1.8399,-1.321 0.23326,0.72762 -1.7278,2.203 -0.52706,2.3333 21.503,2.3333 19.114,0 23.633,-0.36165 24.993,-2 0.92062,-1.1093 3.5171,-1.905 5.8299,-1.7866 l 4.1701,0.21338 -4.234,0.53036 c -2.3287,0.2917 -5.0287,1.4949 -6,2.6738 -1.5955,1.9365 -1.1224,2.0549 4.9007,1.227 3.6667,-0.50401 12.067,-1.1717 18.667,-1.4838 l 12,-0.56743 -12.667,1.2877 c -6.9667,0.70823 -15.5,1.7917 -18.962,2.4077 -3.7174,0.6614 -5.9907,0.62726 -5.5515,-0.0834 z m -135.8,-0.69503 c 1.6586,-0.31892 4.0586,-0.30682 5.3333,0.0269 1.2748,0.33372 -0.08221,0.59466 -3.0155,0.57986 -2.9333,-0.0148 -3.9763,-0.28785 -2.3178,-0.60677 z m 21.385,-0.34208 c 6.8203,-0.61941 14.02,-1.4919 16,-1.9389 2.9085,-0.65666 3.1556,-0.54273 1.2872,0.59347 -1.2718,0.77338 -8.4718,1.6459 -16,1.9389 l -13.688,0.53271 z m -63.402,-3.0482 c 0.40191,-1.2093 5.921,-1.7679 20.111,-2.0356 16.809,-0.31712 19.557,-0.08289 19.557,1.6667 0,1.7353 -2.9669,2.0356 -20.111,2.0356 -15.495,0 -19.984,-0.38252 -19.557,-1.6667 z m 90.046,-0.6512 c 3.8746,-0.27019 9.8746,-0.26735 13.333,0.006 3.4588,0.27371 0.28863,0.49477 -7.0447,0.4913 -7.3333,-0.003 -10.163,-0.22738 -6.2886,-0.49756 z m 125.73,0.50263 c 0.30556,-0.26505 6.8556,-0.78785 14.556,-1.1618 8.9035,-0.43238 12.058,-0.28492 8.6667,0.40507 -5.2644,1.0709 -24.3,1.6912 -23.222,0.75671 z m -171.1,-1.7944 c 1.6586,-0.31892 4.0586,-0.30682 5.3333,0.02691 1.2748,0.33372 -0.08221,0.59466 -3.0155,0.57986 -2.9333,-0.0148 -3.9763,-0.28785 -2.3178,-0.60677 z m 13.984,-0.02828 c 2.75,-0.28766 7.25,-0.28766 10,0 2.75,0.28766 0.5,0.52302 -5,0.52302 -5.5,0 -7.75,-0.23536 -5,-0.52302 z"
       id="path62"
       inkscape:connector-curvature="0"
       style="fill:#070a4a" />
  </g>
</svg>
