<?xml version="1.0" encoding="UTF-8"?>
<svg width="682.67" height="682.67" version="1.1" viewBox="0 0 682.66669 682.66669" xmlns="http://www.w3.org/2000/svg">
 <g transform="translate(2.3842 3.2655)" stroke-width="1.3333">
  <path d="m0 341.33v-341.33h682.67v682.67h-682.67z" fill="#fefefe"/>
  <path d="m165.94 680.18c-7.897-4.8157-9.1922-8.4356-9.7264-27.183l-0.48438-17h48.268l-0.0293 15c-0.0343 17.538-2.357 24.576-9.5599 28.967-6.0495 3.6883-22.568 3.8132-28.468 0.21516zm82.724 1.2701c-1.4667-0.64662-4.4667-3.0756-6.6667-5.3977-3.9801-4.201-4.0022-4.3114-4.4366-22.139l-0.43664-17.916h46.873v16.066c0 17.288-0.91672 20.622-7.3133 26.6-3.1242 2.9198-4.918 3.3723-14.46 3.6475-5.9914 0.17282-12.093-0.21485-13.56-0.86146zm78.256-1.4853c-7.2028-4.3915-9.5256-11.43-9.5599-28.967l-0.0293-15h48l-0.0293 15c-0.0487 24.9-5.165 31.657-23.971 31.657-7.6811 0-11.023-0.62359-14.411-2.6892zm83.744 1.8222c-3.1792-1.265-8.0894-6.1413-10.127-10.057-1.306-2.5101-1.8733-8.4658-1.8733-19.667v-16.066h46.667v16.066c0 17.288-0.91672 20.622-7.3133 26.6-3.1297 2.925-4.9012 3.3692-14.46 3.6261-5.9914 0.161-11.793-0.0653-12.893-0.50304zm77.589-1.8222c-7.2028-4.3915-9.5256-11.43-9.5599-28.967l-0.0293-15h48l-0.0293 15c-0.0487 24.9-5.165 31.657-23.971 31.657-7.6811 0-11.023-0.62359-14.411-2.6892zm-380.56-104.99-38.359-38.359v-390.56l38.359-38.359 38.359-38.359h390.56l38.359 38.359 38.359 38.359v390.56l-38.359 38.359-38.359 38.359h-390.56zm447.3-19.963 30.344-30.322v-366.67l-30.322-30.344-30.322-30.344h-368.04l-29.656 29.678-29.656 29.678v367.96l30.322 30.344 30.322 30.344h366.67zm-414.67-12.69-25.654-25.679v-350.62l25.654-25.679 25.654-25.679h350.72l25.654 25.679 25.654 25.679v350.67l-25.679 25.654-25.679 25.654h-350.67zm106.16-159.56c9.3715-1.8105 11.443-4.9114 11.985-17.94l0.4623-11.106-5.129-0.82224c-2.8209-0.45224-7.079-1.2132-9.4623-1.691l-4.3333-0.86878v17.667h-54.667v-54.667h54.667v8c0 4.4 0.40085 8 0.89078 8 0.48992 0 4.7519-0.67237 9.471-1.4942l8.5802-1.4942-0.49626-9.8274c-0.58687-11.622-2.9234-14.865-11.969-16.612-8.5126-1.6446-59.881-1.4812-67.793 0.2156-11 2.3592-11.276 3.2502-11.774 38.005-0.55541 38.793 0.25344 41.699 12.424 44.636 5.6259 1.3577 60.115 1.3574 67.144-3.3e-4zm73.523-15.428v-16.667l27.667-0.0319c43.877-0.0504 43.667 0.0748 43.667-25.968 0-26.642 1.4706-25.921-53-25.968l-37-0.0318v85.333h18.667zm0-42.667v-11.333h25.067c17.719 0 25.536 0.46903 26.667 1.6 0.89472 0.89472 1.6 5.1852 1.6 9.7333 0 4.5481-0.70528 8.8386-1.6 9.7333-1.131 1.131-8.9482 1.6-26.667 1.6h-25.067zm188.94 56.331c2.9705-1.6242 4.6939-3.8575 5.6592-7.3333 0.79858-2.8755 1.3911-19.861 1.3954-39.998l7e-3 -35h-18.667v69.333h-57.333v-69.45l-9.6667 0.39175-9.6667 0.39174-0.40987 28c-0.68448 46.761 0.7269 53.023 12.486 55.398 2.8917 0.58387 20.258 0.95827 38.591 0.832 28.961-0.19946 33.894-0.53594 37.605-2.565zm-497.91 143.05c-8.2629-3.7509-11.018-9.0969-11.018-21.382 0-18.806 6.757-23.922 31.657-23.971l15-0.0293v48l-15-0.0293c-11.899-0.02321-16.166-0.55844-20.639-2.5892zm624.97-21.382v-24l15 0.0293c24.9 0.0487 31.657 5.165 31.657 23.971 0 18.806-6.757 23.922-31.657 23.971l-15 0.0292zm-626-59.814c-8.3709-5.1707-9.3333-7.3242-9.3333-20.885 0-11.407 0.27169-12.71 3.3333-15.987 5.9774-6.3972 9.3119-7.3141 26.6-7.3141h16.066v46.667l-16.333-5e-3c-13.568-0.00412-17.011-0.42331-20.333-2.4758zm626-20.853v-23.333h16.066c17.289 0 20.623 0.91684 26.6 7.3141 3.0629 3.278 3.3333 4.5775 3.3333 16.019 0 11.442-0.2704 12.741-3.3333 16.019-5.9774 6.3972-9.3119 7.3141-26.6 7.3141h-16.066zm-624.97-59.285c-8.2629-3.7509-11.018-9.0968-11.018-21.382 0-18.806 6.757-23.922 31.657-23.971l15-0.0293v48l-15-0.0293c-11.899-0.0232-16.166-0.55842-20.639-2.5891zm624.97-21.382v-24l15 0.0293c24.9 0.0487 31.657 5.165 31.657 23.971s-6.757 23.922-31.657 23.971l-15 0.0292zm-626-59.814c-8.3819-5.1774-9.3333-7.3152-9.3333-20.97v-12.504l5.0184-5.0222 5.0184-5.0222 17.982-0.43664 17.982-0.43664v46.873l-16.333-5e-3c-13.568-0.00412-17.011-0.42331-20.333-2.4758zm626-20.956v-23.437l17.982 0.43664 17.982 0.43664 5.0184 5.0222 5.0184 5.0222v12.537c0 11.533-0.26705 12.823-3.3333 16.104-5.9774 6.3972-9.3119 7.3141-26.6 7.3141h-16.066zm-624.97-59.182c-8.1994-3.7221-11.016-9.1183-11.023-21.114-0.0057321-11.194 1.917-15.937 8.3082-20.495 3.9041-2.7846 6.1082-3.1533 21.353-3.5723l17-0.46724v48.268l-15-0.0293c-11.899-0.0232-16.166-0.55842-20.639-2.5891zm624.97-21.515v-24.134l17 0.46724c15.245 0.419 17.449 0.78773 21.353 3.5723 6.3912 4.5586 8.314 9.3018 8.3082 20.495-9e-3 18.512-6.8798 23.655-31.662 23.704l-15 0.0293zm-479.8-150.2c0.419-15.245 0.78773-17.449 3.5723-21.353 4.5586-6.3912 9.3018-8.314 20.495-8.3082 18.512 0.0094796 23.655 6.8798 23.704 31.662l0.0293 15h-48.268zm81.364-0.98158 0.43664-17.982 5.0222-5.0184 5.0222-5.0184h12.537c11.533 0 12.823 0.26705 16.104 3.3333 6.3972 5.9774 7.3141 9.3119 7.3141 26.6v16.066h-46.873zm79.799 2.9816c0.0486-24.9 5.1651-31.657 23.971-31.657 18.806 0 23.922 6.757 23.971 31.657l0.0293 15h-48l0.0293-15zm81.304-1.0662c0-17.289 0.91684-20.623 7.3141-26.6 3.278-3.0629 4.5775-3.3333 16.019-3.3333 11.442 0 12.741 0.2704 16.019 3.3333 6.3972 5.9774 7.3141 9.3119 7.3141 26.6v16.066h-46.667zm80.029 1.0662c0.0486-24.9 5.1651-31.657 23.971-31.657 18.806 0 23.922 6.757 23.971 31.657l0.0293 15h-48l0.0293-15z" fill="#cddae0"/>
  <path d="m166.65 680.18c-8.2252-4.398-9.9792-9.2344-9.9792-27.516v-16l23-0.36481 23-0.36483v16.874c0 19.176-1.6516 23.805-9.8892 27.714-6.3451 3.0109-20.2 2.8295-26.132-0.34218zm80.342-0.17534c-8.1242-4.9534-9.6439-9.3118-9.6495-27.674l-5e-3 -16.333h46.667l-3e-3 15.667c-3e-3 17.901-1.6581 22.938-9.1951 27.973-6.1613 4.116-21.338 4.3163-27.815 0.3671zm81.354 0.46659c-2.3788-1.1727-5.6712-4.309-7.3165-6.9696-2.6615-4.304-2.9933-6.6019-3.0083-20.837l-0.0169-16 23-0.36481 23-0.36483v16.874c0 19.176-1.6516 23.805-9.8892 27.714-5.8954 2.7976-20.048 2.7696-25.769-0.0509zm79.522-0.83369c-7.537-5.035-9.1927-10.072-9.1951-27.973l-2e-3 -15.667h46.667l-3e-3 15.667c-3e-3 17.901-1.6581 22.938-9.1951 27.973-3.6627 2.4472-6.3686 3.0266-14.136 3.0266-7.7669 0-10.473-0.57935-14.136-3.0266zm81.811 0.83369c-8.0538-3.9704-9.675-8.6056-9.675-27.663v-16.874l23 0.36483 23 0.36481-0.0169 16c-0.0151 14.256-0.34437 16.53-3.021 20.858-1.6523 2.6719-5.0354 5.8219-7.518 7-5.8955 2.7976-20.048 2.7696-25.769-0.0509zm-343.67-68.442c-1.4667-0.63056-19.167-17.7-39.333-37.932l-36.667-36.785v-391.98l37.67-37.67 37.67-37.67h391.99l37.67 37.669 37.67 37.669 0.35145 193.66c0.24107 132.84-0.0877 194.73-1.0468 197.05-0.76907 1.8641-17.881 19.864-38.027 40l-36.629 36.611-194.32 0.2558c-106.88 0.14069-195.52-0.26011-196.99-0.89067zm409.66-56.354 29.678-29.656v-369.33l-29.656-29.678-29.656-29.678h-369.38l-29.656 29.678-29.656 29.678v369.29l29.656 29.678 29.656 29.678h369.33zm-415.34-13.358-24.32-24.347v-353.33l24.346-24.32 24.347-24.32h353.33l24.32 24.346 24.32 24.347v353.33l-24.346 24.32-24.347 24.32h-353.33zm107.95-159.71c7.9923-2.2197 10.394-6.5196 10.394-18.609v-10.303l-7.5557-1.5174c-11.541-2.3177-11.111-2.5952-11.111 7.1769v8.6943l-27-0.36094-27-0.36094v-53.333l27-0.36095 27-0.36093v16.305l7-0.88824c12.087-1.5336 11.667-1.128 11.667-11.272 0-10.75-2.6792-15.227-10.394-17.37-7.0439-1.9563-66.349-1.6648-72.273 0.35523-8.4765 2.8906-9.3289 6.6025-9.3313 40.634-3e-3 36.398 0.75056 39.198 11.215 41.7 6.3983 1.5296 64.802 1.422 70.389-0.1296zm71.727-15.28v-16.667h29.376c42.099 0 42.624-0.32168 42.624-26.117 0-18.531-1.481-22.021-10.394-24.496-2.8551-0.79296-21.115-1.375-43.273-1.3792l-38.333-7e-3v85.333h20zm0-42.667v-11.333h25.067c17.719 0 25.536 0.46903 26.667 1.6 0.89472 0.89472 1.6 5.1852 1.6 9.7333 0 4.5481-0.70528 8.8386-1.6 9.7333-1.131 1.131-8.9482 1.6-26.667 1.6h-25.067zm189.11 56.893c6.2254-3.5478 6.8871-8.0494 6.8871-46.85v-36.043h-18.667v69.333h-57.333v-69.333h-20l8e-3 34.333c9e-3 42.102 0.74011 45.645 10.126 49.079 7.1591 2.6195 74.246 2.1778 78.98-0.52004zm-496.13 143.22c-6.441-2.3267-8.2653-3.9016-10.865-9.3791-2.7799-5.8582-2.7696-19.638 0.019129-25.515 3.909-8.2376 8.5374-9.8892 27.714-9.8892h16.874l-0.36482 23-0.36482 23-14 0.29682c-9.1488 0.19399-15.737-0.3306-19.013-1.5139zm624.01 1.1189c-0.55-0.55715-1-11.113-1-23.457v-22.444h16.843c19.142 0 23.775 1.6551 27.682 9.8892 3.0109 6.3451 2.8295 20.2-0.34218 26.132-4.2417 7.9328-9.3371 9.9134-26.849 10.436-8.4333 0.25179-15.783 1e-3 -16.333-0.55518zm-626.31-82.904c-7.6732-3.8552-10.693-9.7855-10.693-20.998 0-7.7669 0.57935-10.473 3.0266-14.136 5.035-7.537 10.072-9.1927 27.973-9.1951l15.667-2e-3v46.667l-15.667-3e-3c-12.254-1e-3 -16.677-0.50986-20.307-2.3333zm625.31-20.998v-23.333l15.667 3e-3c17.901 3e-3 22.938 1.6581 27.973 9.1951 2.4472 3.6627 3.0266 6.3686 3.0266 14.136 0 7.7669-0.57935 10.473-3.0266 14.136-5.035 7.537-10.072 9.1927-27.973 9.1951l-15.667 2e-3zm-627.33-60.65c-6.0869-4.0058-8.6667-9.9642-8.6667-20.017 0-10.438 2.9211-16.798 9.4841-20.651 3.8235-2.2445 6.9691-2.6533 20.516-2.6667l16-0.0157 0.36482 23 0.36482 23-17.031-9e-3c-14.709-0.00743-17.577-0.36762-21.031-2.6411zm627.64-20.35 0.36481-23 16 0.0169c14.256 0.0151 16.53 0.34438 20.858 3.021 6.3985 3.9566 9.142 10.047 9.142 20.295 0 10.014-2.7293 16.331-8.6327 19.979-3.7603 2.324-6.6319 2.6877-21.223 2.6877h-16.874zm-625.61-59.335c-7.6426-3.8398-10.694-9.7958-10.688-20.862 0.0057424-10.91 2.6044-16.515 9.6495-20.81 3.7103-2.2622 6.7332-2.6502 20.679-2.6545l16.333-5e-3v46.667l-15.667-3e-3c-12.254-1e-3 -16.677-0.50986-20.307-2.3333zm625.31-20.998v-23.333l16.333 5e-3c18.362 5e-3 22.72 1.5253 27.674 9.6495 3.9492 6.4772 3.7489 21.654-0.3671 27.815-5.035 7.537-10.072 9.1927-27.973 9.1951l-15.667 2e-3zm-627.33-60.65c-6.0869-4.0058-8.6667-9.9642-8.6667-20.017 0-10.433 2.9167-16.789 9.4841-20.667 3.8401-2.2676 6.9101-2.6667 20.516-2.6667h16l0.36482 23 0.36482 23-17.031-9e-3c-14.709-7e-3 -17.577-0.36723-21.031-2.6407zm627.64-20.35 0.36481-23h16c18.281 0 23.118 1.754 27.516 9.9792 3.1717 5.9318 3.3531 19.787 0.34218 26.132-3.909 8.2376-8.5374 9.8892-27.714 9.8892h-16.874zm-479.82-135.01c-0.42456-1.1064-0.55015-8.4564-0.2791-16.333 0.56491-16.416 2.6994-21.695 10.447-25.838 5.9318-3.1717 19.787-3.3531 26.132-0.34218 8.2341 3.9073 9.8892 8.5403 9.8892 27.682v16.843h-22.708c-19.014 0-22.834-0.32731-23.48-2.0116zm80.861-14.322c5e-3 -18.362 1.5253-22.72 9.6495-27.674 6.4772-3.9492 21.654-3.7489 27.815 0.36711 7.537 5.035 9.1927 10.072 9.1951 27.973l2e-3 15.667h-46.667l5e-3 -16.333zm80.451 14.266c-0.43634-1.137-0.52643-8.5451-0.20023-16.462 0.67843-16.466 2.7433-21.564 10.39-25.653 5.9318-3.1717 19.787-3.3531 26.132-0.34218 8.2341 3.9073 9.8892 8.5403 9.8892 27.682v16.843h-22.709c-19.284 0-22.828-0.31175-23.502-2.0673zm80.879-13.599c3e-3 -17.901 1.6581-22.938 9.1951-27.973 6.5113-4.3498 21.761-4.3498 28.272 0 7.537 5.035 9.1927 10.072 9.1951 27.973l2e-3 15.667h-46.667l3e-3 -15.667zm81.331-1.1445c0-19.176 1.6516-23.805 9.8892-27.714 6.3451-3.0109 20.2-2.8295 26.132 0.34218 8.1891 4.3787 9.9454 9.2291 9.9634 27.516l0.0157 16-23 0.36482-23 0.36482v-16.874z" fill="#c4d3db"/>
  <path d="m167.01 680.54c-8.0733-4.1098-9.675-8.6956-9.675-27.701v-16.843h45.333v16.794c0 18.202-0.94126 21.413-7.7792 26.535-4.8757 3.6522-21.655 4.3831-27.879 1.2145zm79.522-0.90324c-7.537-5.035-9.1927-10.072-9.1951-27.973l-2e-3 -15.667h46.667l-3e-3 15.667c-3e-3 17.901-1.6581 22.938-9.1951 27.973-3.6627 2.4472-6.3686 3.0266-14.136 3.0266-7.7669 0-10.473-0.57935-14.136-3.0266zm81.811 0.83369c-8.0504-3.9687-9.675-8.6085-9.675-27.631v-16.843h45.333v16.843c0 19.142-1.6551 23.775-9.8892 27.682-5.8955 2.7976-20.048 2.7696-25.769-0.0509zm79.522-0.83369c-7.537-5.035-9.1927-10.072-9.1951-27.973l-2e-3 -15.667h46.667l-3e-3 15.667c-3e-3 17.901-1.6581 22.938-9.1951 27.973-3.6627 2.4472-6.3686 3.0266-14.136 3.0266-7.7669 0-10.473-0.57935-14.136-3.0266zm81.811 0.83369c-8.0504-3.9687-9.675-8.6085-9.675-27.631v-16.843h45.333v16.843c0 19.142-1.6551 23.775-9.8892 27.682-5.8954 2.7976-20.048 2.7696-25.769-0.0509zm-343.67-68.671c-4.1563-2.2585-72.608-70.694-74.755-74.737-1.6346-3.0785-1.9118-31.455-1.9118-195.75 0-137.69 0.41783-192.98 1.474-195.07 2.1005-4.1501 70.461-72.7 74.793-75.001 5.4138-2.8746 386.05-2.8746 391.47 0 4.3319 2.3002 72.693 70.85 74.793 75.001 1.0562 2.0868 1.474 57.38 1.474 195.07 0 164.3-0.27713 192.68-1.9118 195.75-2.3002 4.3319-70.85 72.693-75.001 74.793-4.0913 2.0708-386.61 2.0158-390.42-0.0561zm409.66-56.125 29.678-29.656v-369.33l-29.656-29.678-29.656-29.678h-369.38l-29.656 29.678-29.656 29.678v369.29l29.656 29.678 29.656 29.678h369.33zm-415.34-13.358-24.32-24.347v-353.33l24.346-24.32 24.347-24.32h353.33l24.32 24.346 24.32 24.347v353.33l-24.346 24.32-24.347 24.32h-353.33zm107.95-159.71c7.992-2.2196 10.394-6.5198 10.394-18.607v-10.301l-9-1.9235-9-1.9235-0.39174 9.0712-0.39175 9.0712h-53.217v-54.667h53.333v16.307l7.5424-0.94236c11.341-1.417 11.124-1.1961 11.124-11.328 0-10.693-2.692-15.178-10.394-17.317-7.0439-1.9563-66.349-1.6648-72.273 0.35523-8.4909 2.8955-9.3292 6.573-9.3292 40.925 0 34.352 0.83832 38.029 9.3292 40.925 5.9237 2.0201 65.229 2.3116 72.273 0.35523zm71.727-15.28v-16.667h29.376c42.067 0 42.624-0.33952 42.624-26 0-26.438 0.88651-26-52.624-26h-39.376v85.333h20zm0-42.667v-11.333h24.088c14.054 0 25.162 0.57491 26.667 1.3802 2.1285 1.1391 2.579 2.8395 2.579 9.7333 0 4.7191-0.69608 9.0492-1.6 9.9531-1.131 1.131-8.9482 1.6-26.667 1.6h-25.067zm186.67 57.591c8.7488-2.9835 9.3289-5.9214 9.3313-47.258l2e-3 -36.333h-18.622l-0.35584 34.333-0.35584 34.333-28.333 0.35985-28.333 0.35985v-69.386h-20l0.15775 35c0.1964 43.573 0.48625 44.983 9.9374 48.35 6.8967 2.4571 69.495 2.6544 76.572 0.24138zm-498 140.43c-6.0382-3.9738-8.6667-9.9771-8.6667-19.794 0-10.248 2.6818-16.523 8.6327-20.201 3.7592-2.3233 6.632-2.6877 21.191-2.6877h16.843v45.333l-17-9e-3c-14.678-7e-3 -17.546-0.3682-21-2.641zm627.33-20.017v-22.667h16.843c14.559 0 17.432 0.36434 21.191 2.6877 5.9034 3.6485 8.6327 9.965 8.6327 19.979 0 10.014-2.7293 16.331-8.6327 19.979-3.7592 2.3233-6.632 2.6877-21.191 2.6877h-16.843zm-625.31-59.669c-7.6732-3.8552-10.693-9.7855-10.693-20.998 0-7.7669 0.57935-10.473 3.0266-14.136 5.035-7.537 10.072-9.1927 27.973-9.1951l15.667-2e-3v46.667l-15.667-3e-3c-12.254-1e-3 -16.677-0.50986-20.307-2.3333zm625.31-20.998v-23.333l15.667 3e-3c17.901 3e-3 22.938 1.6581 27.973 9.1951 2.4472 3.6627 3.0266 6.3686 3.0266 14.136 0 7.7669-0.57935 10.473-3.0266 14.136-5.035 7.537-10.072 9.1927-27.973 9.1951l-15.667 2e-3zm-627.33-60.65c-6.0382-3.9738-8.6667-9.9771-8.6667-19.794 0-10.248 2.6818-16.523 8.6327-20.201 3.7592-2.3233 6.632-2.6877 21.191-2.6877h16.843v45.333l-17-9e-3c-14.678-0.00737-17.546-0.3682-21-2.641zm627.33-20.017v-22.667h16.843c14.559 0 17.432 0.36434 21.191 2.6877 5.9034 3.6485 8.6327 9.965 8.6327 19.979 0 10.014-2.7293 16.331-8.6327 19.979-3.7592 2.3233-6.632 2.6877-21.191 2.6877h-16.843zm-625.31-59.669c-7.6732-3.8552-10.693-9.7855-10.693-20.998 0-7.7669 0.57935-10.473 3.0266-14.136 5.035-7.537 10.072-9.1927 27.973-9.1951l15.667-2e-3v46.667l-15.667-3e-3c-12.254-1e-3 -16.677-0.50986-20.307-2.3333zm625.31-20.998v-23.333l15.667 3e-3c17.901 3e-3 22.938 1.6581 27.973 9.1951 2.4472 3.6627 3.0266 6.3686 3.0266 14.136 0 7.7669-0.57935 10.473-3.0266 14.136-5.035 7.537-10.072 9.1927-27.973 9.1951l-15.667 2e-3zm-627.33-60.65c-6.0382-3.9738-8.6667-9.9771-8.6667-19.794 0-10.248 2.6818-16.523 8.6327-20.201 3.7592-2.3233 6.632-2.6877 21.191-2.6877h16.843v45.333l-17-9e-3c-14.678-0.00737-17.546-0.3682-21-2.641zm627.33-20.017v-22.667h16.843c19.284 0 23.768 1.6408 27.82 10.179 3.1602 6.6596 2.3895 22.376-1.3423 27.375-5.1031 6.8352-8.3219 7.7792-26.526 7.7792h-16.794zm-478.67-150.18c0-19.142 1.6551-23.775 9.8892-27.682 5.8984-2.799 19.657-2.799 25.555 0 8.2341 3.9073 9.8892 8.5403 9.8892 27.682v16.843h-45.333zm80.002 1.176c3e-3 -17.901 1.6581-22.938 9.1951-27.973 3.6633-2.4472 6.3692-3.0266 14.136-3.0266 7.7669 0 10.473 0.57935 14.136 3.0266 7.537 5.035 9.1927 10.072 9.1951 27.973l2e-3 15.667h-46.667l3e-3 -15.667zm81.331-1.176c0-19.142 1.6551-23.775 9.8892-27.682 5.8984-2.799 19.657-2.799 25.555 0 8.2341 3.9073 9.8892 8.5403 9.8892 27.682v16.843h-45.333zm80.002 1.176c3e-3 -17.901 1.6581-22.938 9.1951-27.973 6.5113-4.3498 21.761-4.3498 28.272 0 7.537 5.035 9.1927 10.072 9.1951 27.973l2e-3 15.667h-46.667l3e-3 -15.667zm81.331-1.176c0-19.142 1.6551-23.775 9.8892-27.682 5.8984-2.799 19.657-2.799 25.555 0 8.2341 3.9073 9.8892 8.5403 9.8892 27.682v16.843h-45.333z" fill="#bbccd5"/>
  <path d="m167.22 680.15c-8.9364-5.4494-9.8817-8.0315-9.8817-26.992v-17.154h45.54l-0.43664 17.897c-0.41364 16.954-0.6122 18.084-3.77 21.46-5.1623 5.5185-9.8067 7.3104-18.934 7.305-5.8728-4e-3 -9.6384-0.76042-12.518-2.5163zm80.88 0.25719c-8.7777-4.6128-10.043-7.8743-10.534-27.162l-0.43929-17.241h46.879v15.687c0 17.258-1.5895 22.394-8.5362 27.58-5.1206 3.8231-21 4.4814-27.369 1.1346zm80.454-0.25719c-8.9364-5.4494-9.8817-8.0315-9.8817-26.992v-17.154h45.54l-0.43664 17.897c-0.41364 16.954-0.6122 18.084-3.77 21.46-5.1623 5.5185-9.8067 7.3104-18.934 7.305-5.8728-4e-3 -9.6384-0.76042-12.518-2.5163zm80.88 0.25719c-8.7777-4.6128-10.043-7.8743-10.534-27.162l-0.43929-17.241h46.879l-3e-3 15.667c-3e-3 17.359-1.5857 22.552-8.3989 27.549-5.2811 3.8735-21.093 4.5556-27.504 1.1865zm80.572-0.21667c-8.7809-5.4239-9.2929-6.8034-9.77-26.322l-0.43664-17.864h45.54v17.231c0 16.643-0.11907 17.373-3.4922 21.381-1.9207 2.2826-5.1909 5.0286-7.2671 6.1023-5.5108 2.8498-19.595 2.5468-24.574-0.52864zm-344-68.383c-4.1563-2.2585-72.608-70.694-74.755-74.737-1.6346-3.0785-1.9118-31.455-1.9118-195.75 0-137.69 0.41783-192.98 1.474-195.07 2.1005-4.1501 70.461-72.7 74.793-75.001 5.4138-2.8746 386.05-2.8746 391.47 0 4.3319 2.3002 72.693 70.85 74.793 75.001 1.0562 2.0868 1.474 57.38 1.474 195.07 0 164.3-0.27713 192.68-1.9118 195.75-2.3002 4.3319-70.85 72.693-75.001 74.793-4.0913 2.0708-386.61 2.0158-390.42-0.0561zm409.66-56.126 31.01-30.989v-366.67l-30.989-31.01-30.989-31.01h-366.67l-31.01 30.989-31.01 30.989v366.67l30.989 31.01 30.989 31.01h366.67zm-415.34-13.357-24.32-24.347v-353.33l24.346-24.32 24.347-24.32h353.33l24.32 24.346 24.32 24.347v353.33l-24.346 24.32-24.347 24.32h-353.33zm112.59-160.91c1.5978-1.0605 3.5935-3.439 4.4348-5.2855 2.1405-4.6978 3.355-20.866 1.6468-21.922-0.75265-0.46516-5.3326-1.6767-10.178-2.6923l-8.8091-1.8466v18.341h-53.333v-54.723l26.333 0.36152 26.333 0.36152 0.40419 7.8114 0.4042 7.8114 7.5958-0.89066c13.097-1.5357 12.729-1.204 11.845-10.662-0.42642-4.5664-1.4497-9.7828-2.274-11.592-3.1176-6.8424-4.6787-7.1177-42.642-7.5196-31.712-0.3357-35.81-0.13067-39.981 2-7.6208 3.8923-7.9792 5.706-7.9792 40.374 0 34.668 0.35844 36.482 7.9792 40.374 4.1717 2.1307 8.2699 2.3357 39.981 2 28.119-0.29765 35.927-0.76773 38.238-2.3022zm67.095-14.072v-16.667h30.132c32.842 0 37.329-0.82967 40.35-7.4603 1.9285-4.2327 1.9979-32.695 0.0899-36.882-3.0925-6.7873-4.2475-6.9619-48.905-7.3944l-41.667-0.40353v85.474h20zm0-42.667v-11.333h24.088c14.054 0 25.162 0.57491 26.667 1.3802 2.1393 1.1449 2.579 2.842 2.579 9.9531 0 7.1111-0.43975 8.8082-2.579 9.9531-1.5048 0.80533-12.612 1.3802-26.667 1.3802h-24.088zm189.79 56.264c2.0151-1.3217 4.237-3.9108 4.9376-5.7535 0.70061-1.8427 1.2738-19.811 1.2738-39.93v-36.58h-20v69.333h-56v-69.333h-20.152l0.4095 37.729c0.45554 41.972 0.78422 43.583 9.4164 46.154 2.4193 0.72064 20.223 1.1774 40.389 1.0363 32.237-0.22561 36.451-0.50728 39.726-2.6554zm-501.73 140.91c-6.0016-5.05-8.0544-9.9369-8.0544-19.175 0-8.8697 1.8285-13.539 7.3099-18.667 3.3756-3.1578 4.5059-3.3563 21.46-3.77l17.897-0.43664v45.54h-17.231c-16.643 0-17.373-0.11908-21.381-3.4922zm627.95-19.278v-22.77l17.897 0.43664c16.954 0.41364 18.084 0.6122 21.46 3.77 5.4814 5.1276 7.31 9.7969 7.31 18.667 0 9.2376-2.0528 14.124-8.0544 19.175-4.0087 3.3731-4.7378 3.4922-21.381 3.4922h-17.231zm-625.24-59.565c-8.06-4.1099-10.095-8.3425-10.095-20.998 0-9.1646 0.48923-11.805 2.7614-14.902 5.0211-6.8448 10.196-8.4267 27.572-8.429l15.667-2e-3v46.667l-15.667-3e-3c-12.28-1e-3 -16.655-0.506-20.239-2.3333zm625.24-20.998v-23.333l15.667 3e-3c17.376 3e-3 22.551 1.5842 27.572 8.429 2.2722 3.0975 2.7614 5.7376 2.7614 14.902 0 9.1646-0.48922 11.805-2.7614 14.902-5.0211 6.8448-10.196 8.4267-27.572 8.429l-15.667 1e-3zm-624-58.942c-3.1094-1.1366-8.0615-6.023-10.127-9.9921-2.4546-4.7177-2.4076-18.832 0.078796-23.64 1.0737-2.0762 3.8197-5.3464 6.1023-7.2671 4.0087-3.3731 4.7378-3.4922 21.381-3.4922h17.231v45.333l-16.333-0.10533c-8.9833-0.05783-17.233-0.43419-18.333-0.83631zm624-21.622v-22.77h17.231c16.643 0 17.373 0.11906 21.381 3.4922 6.0016 5.05 8.0544 9.9369 8.0544 19.174 0 8.8697-1.8285 13.539-7.31 18.667-3.3756 3.1578-4.5059 3.3563-21.46 3.77l-17.897 0.43664zm-625.24-59.772c-8.06-4.1099-10.095-8.3424-10.095-20.998 0-9.1646 0.48923-11.805 2.7614-14.902 5.0211-6.8448 10.196-8.4267 27.572-8.429l15.667-2e-3v46.667l-15.667-3e-3c-12.28-1e-3 -16.655-0.506-20.239-2.3333zm625.24-20.998v-23.333l15.667 3e-3c17.376 3e-3 22.551 1.5842 27.572 8.429 3.9895 5.4386 4.0226 24.351 0.0519 29.669-5.21 6.9777-10.327 8.5658-27.603 8.5658h-15.688zm-624-58.942c-3.1094-1.1366-8.0615-6.023-10.127-9.9921-2.4546-4.7177-2.4076-18.832 0.078796-23.64 1.0737-2.0762 3.8197-5.3464 6.1023-7.2671 4.0087-3.3731 4.7378-3.4922 21.381-3.4922h17.231v45.333l-16.333-0.1052c-8.9833-0.05796-17.233-0.43432-18.333-0.83644zm624-21.622v-22.77h17.231c16.643 0 17.373 0.11907 21.381 3.4922 6.0016 5.05 8.0544 9.9369 8.0544 19.175 0 8.8697-1.8285 13.539-7.31 18.667-3.3756 3.1578-4.5059 3.3563-21.46 3.77l-17.897 0.43664zm-478.67-150.23c0-19.134 1.149-22.446 9.3948-27.08 3.5493-1.9948 7.3155-2.7923 13.186-2.7923 8.952 0 13.614 1.8174 18.752 7.3099 3.1578 3.3756 3.3563 4.5059 3.77 21.46l0.43664 17.897h-45.54zm80.002 1.1276c3e-3 -17.376 1.5842-22.551 8.429-27.572 5.4796-4.0196 24.325-4.0196 29.804 0 6.8448 5.0211 8.4267 10.196 8.429 27.572l2e-3 15.667h-46.667l3e-3 -15.667zm81.331-1.5644c0-16.643 0.11908-17.373 3.4922-21.381 5.05-6.0016 9.9369-8.0544 19.174-8.0544 9.2376 0 14.124 2.0528 19.175 8.0544 3.3731 4.0087 3.4922 4.7378 3.4922 21.381v17.231h-45.333zm80.002 1.5644c3e-3 -17.376 1.5842-22.551 8.429-27.572 5.4796-4.0196 24.325-4.0196 29.804 0 6.8448 5.0211 8.4267 10.196 8.429 27.572l2e-3 15.667h-46.667l3e-3 -15.667zm81.561-2.23c0.41364-16.954 0.6122-18.084 3.77-21.46 5.1276-5.4814 9.7969-7.3099 18.667-7.3099 9.2376 0 14.124 2.0528 19.175 8.0544 3.3731 4.0087 3.4922 4.7378 3.4922 21.381v17.231h-45.54z" fill="#a1b9c6"/>
  <path d="m168.67 680.78c-2.2-0.9778-5.5-3.4008-7.3333-5.3844-3.1552-3.4138-3.3567-4.5634-3.77-21.503l-0.43664-17.897h45.54v16.47c0 14.903-0.28789 16.9-3.0266 21-1.6646 2.4918-5.1146 5.5796-7.6667 6.8618-5.5328 2.7798-17.546 3.0134-23.307 0.45321zm79.313-0.5498c-2.8946-1.5152-5.7894-4.6566-7.6795-8.3333-2.702-5.2563-2.9935-7.5045-2.6667-20.568l0.36698-14.667h45.333l0.36698 14.667c0.32685 13.064 0.0353 15.312-2.6667 20.568-3.9522 7.6883-9.7736 10.765-20.367 10.765-5.196 0-9.6856-0.86059-12.687-2.432zm81.381 0.0965c-2.552-1.2822-6.002-4.37-7.6667-6.8618-2.7387-4.0995-3.0266-6.0971-3.0266-21v-16.47h45.333v16.47c0 14.903-0.28789 16.9-3.0266 21-4.083 6.1119-10.666 9.193-19.64 9.193-4.3235 0-9.2378-0.95681-11.973-2.3312zm79.953-0.0965c-2.8946-1.5152-5.7894-4.6566-7.6795-8.3333-2.702-5.2563-2.9935-7.5045-2.6667-20.568l0.36698-14.667h45.333l0.36698 14.667c0.32685 13.064 0.0353 15.312-2.6667 20.568-3.9523 7.6883-9.7736 10.765-20.367 10.765-5.196 0-9.6856-0.86059-12.687-2.432zm81.381 0.0965c-2.552-1.2822-6.002-4.37-7.6667-6.8618-2.7387-4.0995-3.0266-6.0971-3.0266-21v-16.47h45.333v16.47c0 14.903-0.28789 16.9-3.0266 21-4.083 6.1119-10.666 9.193-19.64 9.193-4.3235 0-9.2378-0.95681-11.973-2.3312zm-344.03-68.47c-4.0253-1.574-72.71-69.688-75.422-74.795-1.6346-3.0785-1.9118-31.455-1.9118-195.75 0-137.69 0.41783-192.98 1.474-195.07 2.1005-4.1501 70.461-72.7 74.793-75.001 5.3358-2.8332 384.26-2.8777 390.78-0.04589 5.4896 2.3874 73.704 70.897 75.561 75.888 1.9491 5.2396 1.9491 383.25 0 388.49-1.8565 4.9906-70.071 73.5-75.561 75.888-3.6139 1.5716-34.418 1.8526-195.33 1.7814-121.06-0.0535-192.26-0.56193-194.38-1.3879zm408.99-56.184 31.01-30.989v-366.67l-30.989-31.01-30.989-31.01h-366.67l-31.01 30.989-31.01 30.989v366.67l30.989 31.01 30.989 31.01h366.67zm-415.34-13.357-24.32-24.347v-353.33l24.346-24.32 24.347-24.32h353.33l24.32 24.346 24.32 24.347v353.33l-24.346 24.32-24.347 24.32h-353.33zm110.19-159.8c5.7066-1.9893 8.4535-7.775 9.2072-19.393l0.61872-9.5375-7.8337-1.5544c-4.3086-0.85491-8.8837-1.8535-10.167-2.2191-2.0648-0.5882-2.3333 0.41971-2.3333 8.7585v9.4232h-53.333v-53.333h53.333v15.489l9.6667-1.4728 9.6667-1.4728-0.10546-8.605c-0.13795-11.255-2.9197-16.677-9.569-18.651-3.2839-0.97469-16.96-1.3344-39.964-1.0512l-34.972 0.43056-3.6946 3.697-3.6946 3.697v34.529c0 34.508 1e-3 34.531 3.1657 37.899 1.7411 1.8533 4.4411 3.62 6 3.9258 6.7508 1.3246 69.976 0.84732 74.009-0.55863zm69.492-15.189v-16.667h30.043c42.581 0 42.624-0.026 42.624-26 0-17.97-1.4511-21.952-8.9536-24.567-2.5763-0.89808-18.97-1.4331-43.912-1.4331h-39.801v85.333h20zm0-42.667v-11.333h24.571c28.93 0 28.762-0.0705 28.762 12.048 0 6.4042-0.4771 8.1132-2.579 9.2381-1.5048 0.80533-12.612 1.3802-26.667 1.3802h-24.088zm187.98 56.998c7.7506-3.8873 7.9772-5.1905 7.9989-45.998l0.0197-37h-20v69.333h-56v-69.333h-20v36.043c0 28.612 0.40206 37.005 1.9501 40.71 3.321 7.9483 6.1364 8.4696 46.05 8.5262 31.042 0.044 35.898-0.233 39.981-2.2811zm-496.65 142.4c-7.0365-2.9105-11.334-11.185-11.331-21.815 0.0025572-8.5322 3.1996-15.215 9.1951-19.22 4.0996-2.7387 6.0972-3.0266 21-3.0266h16.469v45.333l-16.333-0.0845c-8.9833-0.0465-17.533-0.58086-19-1.1875zm624.67-21.291v-22.77h16.47c14.903 0 16.9 0.28789 21 3.0266 6.0317 4.0294 9.1925 10.681 9.1951 19.35 3e-3 8.3429-2.3119 14.384-7.2627 18.957-3.4154 3.155-4.5658 3.3567-21.505 3.77l-17.897 0.43664zm-625.23-60.403c-7.6883-3.9523-10.765-9.7736-10.765-20.367 0-10.593 3.077-16.415 10.765-20.367 5.2563-2.702 7.5045-2.9935 20.568-2.6667l14.667 0.36698v45.333l-14.667 0.36698c-13.064 0.32685-15.312 0.0353-20.568-2.6667zm625.82 1.2462c-0.36305-0.9461-0.49423-11.296-0.29149-23l0.36861-21.28 14.667-0.36698c13.064-0.32685 15.312-0.0353 20.568 2.6667 7.6883 3.9522 10.765 9.7736 10.765 20.367 0 10.573-3.0804 16.419-10.715 20.333-5.0037 2.5658-7.9386 3-20.277 3-10.55 0-14.603-0.46216-15.086-1.7202zm-627.39-82.64c-6.1119-4.083-9.193-10.666-9.193-19.64 0-8.9746 3.0811-15.557 9.193-19.64 4.0996-2.7387 6.0972-3.0266 21-3.0266h16.469v45.333h-16.469c-14.903 0-16.9-0.28789-21-3.0266zm626.8-19.64v-22.667h16.47c14.903 0 16.9 0.28789 21 3.0266 6.1119 4.083 9.193 10.666 9.193 19.64 0 8.9746-3.0811 15.557-9.193 19.64-4.0996 2.7387-6.0972 3.0266-21 3.0266h-16.47zm-625.23-60.3c-7.6298-3.9222-10.765-9.7895-10.765-20.145 0-9.3384 2.7696-15.829 8.4977-19.915 3.7784-2.6952 5.7303-2.9737 20.836-2.9737h16.667v45.333l-14.667 0.36698c-13.064 0.32685-15.312 0.0353-20.568-2.6667zm625.82 1.2462c-0.36305-0.9461-0.49423-11.296-0.29149-23l0.36861-21.28 14.667-0.36698c13.064-0.32685 15.312-0.0353 20.568 2.6667 7.6883 3.9523 10.765 9.7736 10.765 20.367 0 10.573-3.0804 16.419-10.715 20.333-5.0037 2.5658-7.9386 3-20.277 3-10.55 0-14.603-0.46216-15.086-1.7202zm-627.39-82.64c-6.0317-4.0294-9.1926-10.681-9.1951-19.35-0.0024545-8.3429 2.3119-14.384 7.2627-18.957 3.4155-3.155 4.5658-3.3567 21.505-3.77l17.897-0.43664v45.54h-16.469c-14.903 0-16.9-0.28789-21-3.0266zm626.8-19.743v-22.77l17.897 0.43664c16.939 0.41328 18.09 0.61494 21.505 3.77 4.9508 4.5734 7.2652 10.614 7.2627 18.957-3e-3 8.6686-3.1634 15.32-9.1951 19.35-4.0996 2.7387-6.0972 3.0266-21 3.0266h-16.47zm-478.44-151.13c0.41328-16.939 0.61494-18.09 3.77-21.505 4.5734-4.9508 10.614-7.2652 18.957-7.2627 8.6686 0.0025503 15.32 3.1634 19.35 9.1951 2.7387 4.0996 3.0266 6.0972 3.0266 21v16.469h-45.54zm80.263 15.926c-0.42959-1.1195-0.56569-8.784-0.30248-17.032 0.41213-12.915 0.89112-15.576 3.4509-19.166 4.0837-5.7277 10.575-8.4977 19.914-8.4977 10.355 0 16.222 3.1355 20.145 10.765 2.702 5.2563 2.9935 7.5045 2.6667 20.568l-0.36698 14.667-22.363 0.3657c-19.048 0.3115-22.479 0.06401-23.144-1.6697zm81.07-15.926c0.41328-16.939 0.61495-18.09 3.77-21.505 4.5733-4.9508 10.614-7.2652 18.957-7.2627 8.6686 0.0025503 15.32 3.1634 19.35 9.1951 2.7387 4.0996 3.0266 6.0972 3.0266 21v16.469h-45.54zm80.69 17.039c-0.50598-0.50599-0.91997-7.2928-0.91997-15.082 0-12.064 0.4444-15.029 3-20.012 3.9146-7.6341 9.7604-10.715 20.333-10.715 10.593 0 16.415 3.077 20.367 10.765 2.702 5.2563 2.9935 7.5045 2.6667 20.568l-0.36698 14.667-22.08 0.36442c-12.144 0.20043-22.494-0.04957-23-0.55556zm80.413-15.612c0-14.903 0.28789-16.9 3.0266-21 4.0294-6.0317 10.681-9.1926 19.35-9.1951 8.3429-0.0024545 14.384 2.3119 18.957 7.2627 3.155 3.4155 3.3567 4.5658 3.77 21.505l0.43664 17.897h-45.54z" fill="#8caab9"/>
  <path d="m170.19 681.38c-2.0955-0.67193-5.0069-2.3049-6.4698-3.6289-5.3226-4.8169-6.3869-8.9851-6.3869-25.014v-15.4h45.333l-3e-3 15c-3e-3 16.504-1.6675 21.948-8.171 26.713-4.0164 2.9424-18.164 4.2986-24.304 2.3298zm78.232-1.3002c-8.4057-3.8163-10.22-8.346-10.846-27.076l-0.5234-15.667h47.276l-0.55864 15.667c-0.4416 12.384-1.0984 16.58-3.1352 20.028-5.2701 8.9212-20.667 12.289-32.213 7.0472zm83.102 1.3002c-2.0955-0.67193-5.0069-2.3049-6.4698-3.6289-5.3226-4.8169-6.3869-8.9851-6.3869-25.014v-15.4h45.333l-5e-3 15.667c-5e-3 17.091-1.5334 21.785-8.5984 26.414-3.9532 2.5903-18.249 3.7647-23.873 1.9612zm78.433-1.3726c-8.6606-4.287-10.504-8.7797-11.077-27.003l-0.49332-15.667h47.228l-0.47506 15.667c-0.40824 13.463-0.90036 16.351-3.4994 20.532-5.4566 8.7785-20.723 11.896-31.683 6.4709zm82.9 1.3726c-2.0955-0.67193-5.0069-2.3049-6.4698-3.6289-5.3226-4.8169-6.3869-8.9851-6.3869-25.014v-15.4h45.333l-5e-3 15.667c-5e-3 17.091-1.5334 21.785-8.5984 26.414-3.9533 2.5903-18.249 3.7647-23.873 1.9612zm-345.52-69.344c-1.4667-0.63063-19.467-18-40-38.598l-37.333-37.452v-389.31l38.336-38.336 38.336-38.336h389.32l38.336 38.336 38.336 38.336v389.32l-38.336 38.336-38.336 38.336-193 0.25585c-106.15 0.14072-194.2-0.26012-195.66-0.89073zm408.32-56.354 31.01-30.989v-366.67l-30.989-31.01-30.989-31.01h-366.67l-31.01 30.989-31.01 30.989v366.67l30.989 31.01 30.989 31.01h366.67zm-414.67-14.023-24.987-25.013v-350.67l25.013-24.987 25.013-24.987h350.67l24.987 25.013 24.987 25.013v350.67l-25.013 24.987-25.013 24.987h-350.67zm111.01-159.99c5.6602-2.8276 7.8182-8.244 7.9248-19.891l0.0752-8.2265-9.2632-2.1069c-5.0948-1.1588-9.8948-2.1069-10.667-2.1069-0.84872 0-1.4035 3.6891-1.4035 9.3333v9.3333h-52v-53.333h52v7.2546c0 3.99 0.45 7.5228 1 7.8504 0.55 0.32768 5.2-0.098 10.333-0.94589l9.3333-1.5417 0.39306-6.6881c0.58634-9.9773-2.0968-16.782-7.7264-19.594-4.0803-2.0383-8.9862-2.3315-39.043-2.3333-38.712-3e-3 -41.856 0.56758-45.061 8.1673-2.7271 6.4674-2.7283 62.524-1e-3 68.991 3.1846 7.5524 5.9989 8.0627 44.772 8.1188 30.401 0.044 35.241-0.23675 39.333-2.2811zm68-14.331v-16.667l31-5e-3c28.352-4e-3 31.363-0.22643 35.252-2.5973 5.313-3.2395 7.067-9.0468 7.067-23.398s-1.754-20.158-7.067-23.398c-3.967-2.4188-6.9951-2.5926-45.252-2.5973l-41-5e-3v85.333h20zm0-42.69v-11.518l25.384 0.43723c28.712 0.49454 27.909 0.17488 27.909 11.104 0 10.933 0.80694 10.612-27.908 11.081l-25.384 0.41415zm188.61 57.292c7.4983-3.5582 7.8733-5.6122 8.4468-46.269l0.52199-37h-21.583v69.333h-56v-69.333h-20v36.733c0 40.113 0.4048 42.564 7.6834 46.513 5.5019 2.9853 74.646 3.0049 80.93 0.0229zm-498.87 140.79c-7.1271-4.3457-9.0724-8.6467-9.0724-20.059 0-11.412 1.9453-15.713 9.0724-20.059 3.5836-2.185 6.7513-2.5988 19.928-2.603l15.667-5e-3v45.333l-15.667-5e-3c-13.176-4e-3 -16.344-0.41763-19.928-2.6027zm627.59-20.059v-22.667l15.667 5e-3c13.176 4e-3 16.344 0.41797 19.928 2.603 7.1271 4.3457 9.0724 8.6467 9.0724 20.059s-1.9453 15.713-9.0724 20.059c-3.5836 2.185-6.7513 2.5988-19.928 2.603l-15.667 5e-3zm-622.74-58.598c-6.6706-2.0241-9.5147-4.3558-12.006-9.8433-5.2357-11.532-2.1695-26.444 6.5519-31.866 4.1812-2.599 7.0687-3.0911 20.532-3.4994l15.667-0.47506v46.948l-13.667-0.11467c-7.5167-0.0631-15.202-0.5804-17.078-1.1497zm622.74-22.069v-23.614l15.667 0.49332c12.597 0.39667 16.521 1.0062 20.028 3.1113 12.524 7.5171 12.835 31.985 0.50382 39.649-4.1812 2.599-7.0687 3.0911-20.532 3.4994l-15.667 0.47506zm-627.59-60.608c-7.1271-4.3457-9.0724-8.6467-9.0724-20.059 0-11.412 1.9453-15.713 9.0724-20.059 3.5836-2.185 6.7513-2.5988 19.928-2.603l15.667-5e-3v45.333l-15.667-5e-3c-13.176-4e-3 -16.344-0.41763-19.928-2.6027zm627.59-20.059v-22.667l15.667 5e-3c13.176 4e-3 16.344 0.41797 19.928 2.603 7.1271 4.3457 9.0724 8.6467 9.0724 20.059s-1.9453 15.713-9.0724 20.059c-3.5836 2.185-6.7513 2.5988-19.928 2.603l-15.667 5e-3zm-622.03-58.572c-6.4903-1.5565-10.93-5.2141-13.192-10.867-4.6385-11.593-1.0094-26.902 7.4488-31.422 3.3131-1.7708 8.4093-2.5048 20.105-2.8955l15.667-0.5234v46.948l-13-0.13648c-7.15-0.0751-14.813-0.57117-17.028-1.1025zm622.03-22.07v-23.638l15.667 0.5234c18.729 0.62574 23.259 2.4402 27.076 10.846 5.2423 11.546 1.874 26.943-7.0472 32.213-3.4478 2.0368-7.6439 2.6936-20.028 3.1352l-15.667 0.55864zm-626.57-60.359c-7.1757-3.659-9.6863-8.1577-10.348-18.543-0.68904-10.816 1.7295-16.716 8.7836-21.429 4.0738-2.7215 6.1236-3.0266 20.333-3.0266h15.803v45.333l-15-3e-3c-11.645-1e-3 -16.022-0.52343-19.572-2.3333zm626.57-20.331v-22.667l15.667 5e-3c17.24 5e-3 21.776 1.5186 26.594 8.8727 3.6231 5.5296 3.4027 22.901-0.35567 28.025-4.9683 6.7729-10.247 8.4267-26.905 8.429l-15 2e-3zm-480-150.47c0-14.21 0.30511-16.26 3.0266-20.333 4.7124-7.0541 10.613-9.4726 21.429-8.7836 16.665 1.0617 20.873 7.0919 20.876 29.92l2e-3 15h-45.333zm80.243 0.13616c0.62574-18.729 2.4402-23.259 10.846-27.075 11.507-5.2245 26.475-2.1809 31.822 6.4707 2.5078 4.0576 3.0482 7.207 3.5233 20.532l0.56117 15.739h-47.276zm81.096 0c5e-3 -17.24 1.5186-21.776 8.8727-26.594 5.1729-3.3894 22.405-3.3894 27.578 0 7.3541 4.8186 8.8672 9.3539 8.8727 26.594l5e-3 15.667h-45.333l5e-3 -15.667zm80.189 0c0.40824-13.463 0.90036-16.351 3.4994-20.532 5.425-8.7277 20.334-11.787 31.885-6.5434 8.4057 3.8163 10.22 8.346 10.846 27.075l0.5234 15.667h-47.228zm81.144 0c5e-3 -17.24 1.5186-21.776 8.8727-26.594 5.1729-3.3894 22.405-3.3894 27.578 0 7.3541 4.8186 8.8672 9.3539 8.8727 26.594l5e-3 15.667h-45.333l5e-3 -15.667z" fill="#6f94a7"/>
  <path d="m170.32 680.84c-10.903-4.0637-12.987-8.6855-12.987-28.798v-14.709h45.333v15.021c0 17.011-1.864 22.489-9.0959 26.737-5.5278 3.2462-16.932 4.1046-23.25 1.7498zm80.815 0.36957c-2.3088-0.66885-6.0588-3.3356-8.3333-5.9262l-4.1355-4.71v-33.241h44v33.241l-4.1097 4.6807c-5.9387 6.7638-16.622 9.084-27.422 5.9555zm80.519-0.36957c-10.903-4.0637-12.987-8.6855-12.987-28.798v-14.709h45.333v15.021c0 17.011-1.864 22.489-9.0959 26.737-5.5278 3.2462-16.932 4.1046-23.25 1.7498zm80.815 0.36957c-2.3088-0.66885-6.0588-3.3356-8.3333-5.9262l-4.1355-4.71v-33.241h44v33.241l-4.1097 4.6807c-5.9387 6.7638-16.622 9.084-27.422 5.9555zm80.519-0.36957c-10.792-4.0225-12.987-8.8745-12.987-28.709v-14.798h45.333l-3e-3 15c-3e-3 17.145-1.8311 22.607-8.943 26.712-5.6983 3.2888-17.056 4.1601-23.401 1.7952zm-345.65-69.427c-5.3738-2.4392-74.834-72.41-76.604-77.167-1.9489-5.2392-1.9489-380.59 0-385.83 1.8563-4.9902 71.404-74.833 76.894-77.221 6.4163-2.7904 381-2.7904 387.42 0 5.4905 2.3878 75.038 72.231 76.894 77.221 0.94859 2.55 1.3962 64.403 1.3962 192.91 0 128.51-0.44766 190.36-1.3962 192.91-1.8563 4.9902-71.404 74.833-76.894 77.221-6.3128 2.7454-381.66 2.6931-387.71-0.054zm408.99-55.069 30.344-30.322v-369.33l-30.322-30.344-30.322-30.344h-369.33l-30.344 30.322-30.344 30.322v369.33l30.322 30.344 30.322 30.344h369.33zm-415.34-14.69-24.987-25.013v-350.67l25.013-24.987 25.013-24.987h350.67l24.987 25.013 24.987 25.013v350.67l-25.013 24.987-25.013 24.987h-350.67zm111.01-159.36c5.1614-2.579 7.9956-9.6436 7.9979-19.936 3e-3 -9.9547 1.2373-8.7556-11.998-11.649-9.55-2.0875-9.3333-2.2567-9.3333 7.2899v8.6667h-52v-52h52v16.333l3.8131-0.76261c2.0972-0.41943 6.8972-1.1717 10.667-1.6718l6.8536-0.90916-3e-3 -8.1616c-3e-3 -9.4492-3.005-16.629-7.9979-19.123-2.4161-1.2072-13.24-1.6696-39.333-1.6802-32.995-0.0135-36.346 0.1961-40.141 2.5102-6.0133 3.6672-7.1921 10.244-7.1921 40.132 0 29.887 1.1788 36.465 7.1927 40.132 3.795 2.3141 7.1459 2.5237 40.141 2.5102 26.094-0.0107 36.917-0.47298 39.333-1.6802zm68-14.896v-16.6l32.639-0.39957 32.639-0.39959 3.6945-3.6968c3.5587-3.5609 3.7094-4.2716 4.0981-19.333 0.33552-12.999-1e-3 -16.42-2-20.285-4.0516-7.8352-4.9407-7.9772-50.07-7.9989l-41-0.0197v85.333h20zm0-41.984v-10.749h25.286c28.451 0 28.047-0.14882 28.047 10.324 0 10.06-0.60975 10.289-28.557 10.758l-24.777 0.41579zm189.14 56.684c6.991-3.6152 7.4414-6.252 7.9308-46.433l0.45069-37h-21.521v68h-56v-68h-20.115l0.39104 38.529c0.36896 36.353 0.54163 38.696 3.0577 41.491 1.4667 1.629 3.8667 3.453 5.3333 4.0533 1.4667 0.6003 19.346 1.1295 39.733 1.176 29.6 0.0675 37.806-0.2982 40.74-1.8155zm-498.43 140.9c-6.8639-3.4626-10.045-9.9017-10.045-20.331 0-10.35 3.0222-16.463 9.9792-20.183 3.743-2.0014 7.5651-2.4841 19.667-2.4841h15.021v45.333l-15-3e-3c-11.627-1e-3 -16.039-0.52636-19.621-2.3333zm626.62-20.331v-22.667h15.021c12.102 0 15.924 0.48277 19.667 2.4841 6.957 3.7198 9.9792 9.8322 9.9792 20.183 0 10.35-3.0222 16.463-9.9792 20.183-3.743 2.0014-7.5651 2.4841-19.667 2.4841h-15.021zm-630.65-63.67c-8.9869-8.9869-9.01-24.983-0.049129-33.944l5.0527-5.0527h33.647v44h-33.647zm630.65-16.996v-22h33.647l5.0527 5.0527c8.9609 8.9609 8.9377 24.957-0.0492 33.944l-5.0035 5.0036h-33.647zm-626.69-60.484c-6.9569-3.7198-9.9792-9.8322-9.9792-20.183 0-10.35 3.0222-16.463 9.9792-20.183 3.743-2.0014 7.5651-2.4841 19.667-2.4841h15.021v45.333h-15.021c-12.102 0-15.924-0.48277-19.667-2.4841zm626.69-20.183v-22.667l15 3e-3c17.351 3e-3 22.586 1.8147 26.955 9.3313 3.7444 6.4432 3.768 20.212 0.0453 26.516-4.5097 7.6364-9.7642 9.4835-26.979 9.4835h-15.021zm-630.65-63.67c-8.9869-8.9869-9.01-24.983-0.049129-33.944l5.0527-5.0527h33.647v44h-33.647zm630.65-16.996v-22h33.647l5.0527 5.0527c8.9609 8.9609 8.9377 24.957-0.0492 33.944l-5.0035 5.0036h-33.647zm-626.69-60.484c-6.9569-3.7198-9.9792-9.8322-9.9792-20.183 0-10.43 3.1815-16.869 10.045-20.331 3.582-1.807 7.9947-2.3317 19.621-2.3333l15-2e-3v45.333h-15.021c-12.102 0-15.924-0.48277-19.667-2.4841zm626.69-20.183v-22.667l15 3e-3c17.351 3e-3 22.586 1.8147 26.955 9.3313 3.7444 6.4432 3.768 20.212 0.0453 26.516-4.5097 7.6364-9.7642 9.4835-26.979 9.4835h-15.021zm-480-149.67c1e-3 -11.609 0.52905-16.055 2.3333-19.667 6.9295-13.871 33.101-13.885 40.514-0.0208 2.0014 3.743 2.4841 7.5651 2.4841 19.667v15.021h-45.333l3e-3 -15zm81.331-1.8235v-16.824l5.0036-5.0036c8.9869-8.9869 24.983-9.01 33.944-0.049129l5.0527 5.0527v33.647h-44zm80 1.8027c0-12.102 0.48277-15.924 2.4841-19.667 3.7198-6.9569 9.8322-9.9792 20.183-9.9792 10.35 0 16.463 3.0222 20.183 9.9792 2.0014 3.743 2.4841 7.5651 2.4841 19.667v15.021h-45.333zm81.333-1.8027v-16.824l5.0036-5.0036c8.9869-8.9869 24.983-9.01 33.944-0.049129l5.0527 5.0527v33.647h-44zm80 1.8027c0-17.215 1.8471-22.469 9.4841-26.979 6.3041-3.7226 20.073-3.6991 26.516 0.045357 7.5166 4.3682 9.3289 9.6033 9.3313 26.955l2e-3 15h-45.333z" fill="#5d869c"/>
 </g>
</svg>
