<?xml version="1.0" encoding="UTF-8"?>
<svg width="341.33" height="341.33" version="1.1" viewBox="0 0 341.33334 341.33334" xmlns="http://www.w3.org/2000/svg">
 <g transform="translate(-1.4463)" stroke-width="1.3333">
  <path d="m88 253.34-82-81.201 81.996-82.071c45.098-45.139 82.56-82.071 83.248-82.071s38.057 36.75 83.041 81.667l81.789 81.667-81.771 81.667c-44.974 44.917-82.341 81.639-83.037 81.606s-38.166-36.601-83.266-81.262z" fill="#84daf9"/>
  <path d="m88.333 253.25c-44.917-44.73-81.667-81.61-81.667-81.956s0.45-0.55843 1-0.47159c0.55 0.0868 37.45 0.0868 82 0l81-0.15789v-161.83l-4.065 3.8945c-2.2357 2.142-3.3977 4.1169-2.5822 4.3887 0.81553 0.27184 2.3257-0.61841 3.3559-1.9784 1.6155-2.1326 1.8789 8.2991 1.9155 75.861l0.0424 78.333h-78.163c-65.238 0-77.918-0.29591-76.678-1.7894 0.81676-0.98413 1.0402-2.2803 0.49659-2.8804-0.54364-0.6001-0.30642-0.7015 0.52716-0.22534 0.83358 0.47617 2.3336-0.14282 3.3333-1.3755 1.5444-1.9042 1.5361-2.0716-0.05493-1.1126-1.2712 0.76611-1.5671 0.63419-0.92131-0.41072 0.52325-0.84664 1.723-1.5394 2.666-1.5394 1.9749 0 6.4639-4.553 5.4695-5.5474-0.36537-0.36538 0.93007-2.1167 2.8788-3.8918s3.1109-2.4775 2.5827-1.5608c-0.5282 0.91667-0.6101 1.6667-0.182 1.6667s1.3624-1.5361 2.0762-3.4136c0.71381-1.8775 1.9138-3.0329 2.6667-2.5676 0.75288 0.46529 1.204 0.0515 1.0025-0.91977-0.20283-0.97758 0.52639-1.5674 1.6336-1.3213 1.1 0.24446 1.5416-0.014 0.98133-0.57421-1.267-1.267 5.6694-8.7041 7.2227-7.7441 0.62112 0.38388 1.1293 0.0934 1.1293-0.64538 0-1.8966 5.9992-8.1474 7.8196-8.1474 0.83258 0 1.3638-0.70095 1.1804-1.5577-0.18333-0.85671 0.91334-2.2105 2.437-3.0085 4.0775-2.1353 7.2383-5.6325 6.1661-6.8222-0.51508-0.57154-0.18906-0.60913 0.72449-0.0835 1.0454 0.60142 2.243-0.32176 3.2313-2.4907 1.1361-2.4934 1.8693-2.975 2.6519-1.7418 0.73028 1.1508 1.0883 0.67944 1.1021-1.451 0.01615-2.4952 0.57847-3.0096 2.6871-2.4582 1.4667 0.38354 2.6667 0.15352 2.6667-0.51116s-0.75-1.2268-1.6667-1.249c-0.91667-0.0223-0.48703-0.72466 0.95474-1.5608 4.992-2.895 11.791-10.913 7.0453-8.3079-0.91667 0.50312 17.938-18.765 41.9-42.819l43.567-43.734 10.433 9.4787c5.7381 5.2133 43.002 42.089 82.809 81.945l72.376 72.466-81.897 81.619c-45.043 44.891-82.412 81.6-83.043 81.576-0.63044-0.024-37.896-36.641-82.813-81.371zm3.0031-161.57c0.6001 0.54364 0.64148 0.2093 0.09195-0.74298-0.76978-1.334-1.431-1.373-2.8804-0.17008-1.0347 0.85874-1.8813 1.8613-1.8813 2.228s0.80521-0.0016 1.7893-0.81836c0.98414-0.81676 2.2803-1.0402 2.8804-0.49659zm5.4127-7.3736c-0.44694-0.44694-1.8483 0.27177-3.1142 1.5971-2.2003 2.3037-2.1645 2.3394 0.81261 0.81261 1.7128-0.87841 2.7485-1.9628 2.3016-2.4097zm7.21-6.1536c0.59833-1.5498 3.5381-4.6177 6.5328-6.8177s5.4592-4.3629 5.4765-4.8065c0.0481-1.2307 12.024-13.294 12.085-12.173 0.0294 0.53896 0.94852-0.67008 2.0426-2.6867 1.0941-2.0167 2.87-3.6667 3.9466-3.6667 1.0766 0 1.9574-0.86946 1.9574-1.9321s2.25-3.6127 5-5.6667c2.75-2.054 5.2296-4.2733 5.5102-4.9317 1.1016-2.585 7.7957-8.7191 8.6179-7.8969 0.47955 0.47954 0.87189-0.09409 0.87189-1.2747 0-2.4113 5.1702-6.556 6.8687-5.5063 0.60543 0.37417 0.74346-0.25085 0.30674-1.3889-0.43674-1.1381-0.88446-2.0692-0.99494-2.0692-0.11049 0-14.867 14.675-32.793 32.612-19.157 19.169-31.34 32.285-29.554 31.818 1.6706-0.43688 3.5271-2.0623 4.1254-3.6121z" fill="#7cd9fd"/>
  <path d="m88.333 253.25c-44.917-44.73-81.667-81.61-81.667-81.956s0.45-0.55843 1-0.47159c0.55 0.0868 37.45 0.0868 82 0l81-0.15789v-161.98l-43.667 43.323-43.667 43.323 43.567-43.895 43.567-43.895 10.433 9.4787c5.7381 5.2133 43.002 42.089 82.809 81.945l72.376 72.466-81.897 81.619c-45.043 44.891-82.412 81.6-83.043 81.576-0.63044-0.024-37.896-36.641-82.813-81.371z" fill="#65b0cd"/>
  <path d="m170.67 333.65c0-0.90565-0.76023-1.6466-1.6894-1.6466-2.5203 0-30.569-28.614-29.355-29.947 0.57453-0.63099 0.40444-0.78353-0.37799-0.33899-0.78241 0.44456-30.764-28.555-66.626-64.443l-65.203-65.251 81.959-0.34369 81.959-0.34369 0.34368-81.035 0.34366-81.035 52.323 52.448c36.985 37.074 40.598 40.504 12.324 11.702l-39.999-40.746 49.666 49.327c27.316 27.13 49.666 49.553 49.666 49.83s-1.05-0.32012-2.3333-1.3266c-2.1217-1.664-2.1649-1.6154-0.47666 0.53562 1.0212 1.3011 2.1924 2.0298 2.6027 1.6195 0.93159-0.93159 38.874 36.811 38.874 38.669 0 0.74563-29.25 30.457-65 66.025-87.071 86.628-99 98.231-99 96.301zm-2.6667-3.3383c0-0.1971-6.15-6.3471-13.667-13.667l-13.667-13.308 13.308 13.667c12.361 12.694 14.025 14.273 14.025 13.308zm165.33-160.15c0-0.27687-1.05-1.3269-2.3333-2.3333-2.1148-1.6585-2.1619-1.6113-0.50342 0.50342 1.7418 2.221 2.8368 2.9273 2.8368 1.8299zm-44-43.902c0-0.22281-2.25-2.4728-5-5l-5-4.5949 4.5949 5c4.2768 4.6539 5.4051 5.613 5.4051 4.5949z" fill="#5aa0b9"/>
  <path d="m170.67 292.46c1e-3 -64.33 1.8562-281.54 2.3759-278.2 0.29692 1.9049 1.1252 2.6695 2.373 2.1907 1.1123-0.42685 1.9169 0.05902 1.9169 1.1576 0 2.6704 7.4853 9.5342 9.225 8.4591 1.7924-1.1078 1.8389 0.03275 0.13147 3.2232-1.1004 2.056-0.8868 2.3374 1.3333 1.7568 1.4703-0.38448 2.6436-0.03052 2.6436 0.79754 0 0.81886 0.63541 1.4888 1.412 1.4888 0.77661 0 0.9839-0.6927 0.46065-1.5393-0.57609-0.93214-0.36713-1.1783 0.52975-0.62397 0.81461 0.50346 1.1258 1.8412 0.69164 2.9727-0.56615 1.4753-0.0783 1.9347 1.7249 1.624 1.8361-0.31645 2.3975 0.24494 2.081 2.081-0.29838 1.7313 0.16291 2.2856 1.4812 1.7797 1.186-0.45512 5.3218 2.6989 10.869 8.2885 8.418 8.483 8.8187 9.1585 6.6934 11.284-1.2434 1.2434-1.9178 2.6035-1.4988 3.0226 0.41905 0.41905 1.7618-0.23798 2.9839-1.4601 2.0737-2.0737 2.3872-2.0724 4.6987 0.01947 1.3622 1.2328 2.205 2.6811 1.873 3.2184-0.70537 1.1413 3.9155 5.6401 4.8417 4.7138 0.34393-0.34393 7.1952 6.0348 15.225 14.175 8.0299 8.1402 13.85 14.385 12.933 13.877-0.91666-0.50778-1.6667-0.28783-1.6667 0.48878 0 1.3014 1.7592 1.8723 3.3239 1.0787 0.36148-0.18333 16.566 15.567 36.01 35l35.353 35.333-79.01 0.68255-79.01 0.68254 81 0.31746c44.55 0.1746 81 0.81885 81 1.4317 0 0.61283-36.9 37.57-82 82.127l-82 81.013zm3.665-236.79c-0.20664-20.717-0.3757-3.7667-0.3757 37.667 0 41.433 0.16906 58.383 0.3757 37.667 0.20664-20.717 0.20664-54.617 0-75.333zm151.12 109.89c-1.6443-3.0725-5.1534-6.0233-7.5876-6.3806-2.1477-0.3152-2.509 1.6018-0.53216 2.8236 0.73333 0.45323 1.3333 0.0956 1.3333-0.79462 0-1.0109 0.98946-0.72323 2.6352 0.76617 1.4494 1.3117 2.3456 2.8534 1.9917 3.4261-0.5256 0.85044 0.68956 1.8335 3.0867 2.4971 0.20913 0.0579-0.20811-0.99408-0.9272-2.3377zm-11.297-10.094c-0.41655-2.8382-3.5711-6.1292-5.875-6.1292-1.9227 0-1.1111 1.9758 0.82992 2.0204 2.4182 0.0556 3.8938 2.2807 3.2204 4.8561-0.48308 1.8473-0.24265 2.5593 0.67308 1.9934 0.78354-0.48425 1.3018-1.7175 1.1516-2.7406zm-8.2758-9.1292c-3.233-5.7097-9.8803-9.9707-9.8803-6.3333 0 0.73334 1.1265 1.3333 2.5034 1.3333 3.547 0 5.8824 3.0808 3.8649 5.0984-1.2022 1.2022-0.8651 1.5683 1.4437 1.5683 2.024 0 2.7025-0.54669 2.0683-1.6667zm-10.667-10.667c-2.007-3.5446-6.3211-7.5516-7.4075-6.8802-0.62673 0.38735-1.1395-0.0924-1.1395-1.0661 0-0.9737-6.1409-7.7591-13.646-15.079-7.5055-7.3196-12.952-12.485-12.104-11.479 0.84824 1.006 1.2325 2.806 0.85398 4-0.48233 1.5214-0.33312 1.6807 0.49875 0.53246 0.89187-1.231 1.7852-0.93969 3.5932 1.1718 1.9742 2.3057 2.0829 3.0395 0.60545 4.0874-1.3373 0.94851-1.1043 1.1278 0.90532 0.69657 2.7955-0.59984 6.4633 2.0689 4.9387 3.5934-0.47389 0.47389 0.42065 1.1969 1.9879 1.6068 1.6266 0.42537 2.564 1.4892 2.1842 2.4789-0.36592 0.95356-0.0244 2.1298 0.75894 2.614 0.78332 0.48413 1.4242 0.17135 1.4242-0.69505 0-1.1429 0.57442-1.0986 2.0927 0.1615 1.151 0.95523 1.8069 2.8295 1.4577 4.1651-0.34926 1.3356-0.11947 2.1097 0.51066 1.7202 0.63012-0.38943 1.9858 0.8954 3.0126 2.8552 1.2509 2.3874 2.191 3.0391 2.8487 1.9748 1.2174-1.9698 4.7443 0.53618 4.7443 3.371 0 1.0102 0.63541 1.8368 1.412 1.8368 0.77661 0 0.98734-0.75 0.4683-1.6667zm-10.547-3.6667c-0.45322-0.73333-1.5386-1.3241-2.412-1.3129-0.95415 0.0123-0.7897 0.5363 0.41202 1.3129 2.5615 1.6554 3.0231 1.6554 2 0zm-26.667-29.333c0.45322-0.73333 0.18864-1.3333-0.58798-1.3333-0.77661 0-1.412 0.6-1.412 1.3333s0.26459 1.3333 0.58798 1.3333 0.9588-0.6 1.412-1.3333zm-3.6999-6.4119c1.1118-0.70633-2.7165-5.2771-11.988-14.313-7.4916-7.3014-10.627-9.9926-6.9668-5.9805 3.6599 4.0121 7.2544 7.7529 7.9878 8.3129 0.83473 0.63744 0.71008 1.0258-0.33334 1.0386-0.91666 0.0112-1.6667 0.60159-1.6667 1.3119s0.88458 0.95204 1.9657 0.53716c2.3016-0.88321 6.342 2.6493 4.9708 4.346-0.51508 0.6373-0.3917 0.71394 0.27415 0.1703 0.66587-0.54364 2.0232-0.31403 3.0164 0.51024 1.3642 1.1322 1.4358 1.9445 0.29276 3.3218-1.64 1.976-0.18729 2.4181 2.4469 0.74454zm-29.039-24.293c0.69346 1.0788 1.6298 1.5924 2.0808 1.1414 0.45099-0.45098-0.76293-2.4029-2.6976-4.3376-3.0245-3.0245-3.397-3.1378-2.6576-0.80808 0.51707 1.6291 0.26112 2.7095-0.6419 2.7095-0.82603 0-1.0915 0.66406-0.58986 1.4757 0.63606 1.0292 1.2651 0.92829 2.0787-0.33333 0.97001-1.5041 1.3792-1.4784 2.4275 0.15237zm-1.2608-8.4648c0-0.27688-1.05-1.3269-2.3333-2.3333-2.1148-1.6585-2.1619-1.6113-0.50341 0.50341 1.7418 2.221 2.8367 2.9273 2.8367 1.8299zm-15.299-15.462c-4.3351-4.3808-8.1701-7.677-8.5223-7.3249-0.35215 0.35214 1.4136 2.5125 3.9238 4.8009 2.883 2.6282 3.9501 4.3848 2.8973 4.7693-0.91666 0.33477-1.6667 1.2321-1.6667 1.9942 0 0.78717 0.93886 0.60629 2.1741-0.41885 1.871-1.5528 2.4751-1.3966 4.3333 1.1203 1.1876 1.6086 2.7405 2.947 3.4508 2.9744 0.71038 0.02736-2.2553-3.5346-6.5904-7.9154zm-25.578-16.634c0.49456-1.2888 0.10066-1.6862-1.183-1.1936-1.0584 0.40616-1.5925 1.2756-1.1867 1.9321 1.0219 1.6535 1.5103 1.5013 2.3698-0.73848zm-130.69 140.93c21.869-0.20566 57.269-0.20552 78.667 3.2e-4s3.5046 0.37411-39.762 0.37394c-43.267-1.9e-4 -60.774-0.1686-38.905-0.37426z" fill="#599dba"/>
  <path d="m170.67 253.54c0-44.76 0.45-81.567 1-81.794 0.55-0.22661 37.502-0.112 82.116 0.25464l81.116 0.66667-82.116 81.127-82.116 81.127z" fill="#427388"/>
  <path d="m172.32 252.33-0.31758-80.333l80.333 0.19978c44.183 0.10986 78.683 0.44973 76.667 0.75522-2.0167 0.30551-3.6667 1.018-3.6667 1.5832 0 0.56525-2.5384 3.6754-5.641 6.9114-3.1026 3.236-5.5098 6.3121-5.3493 6.8357 0.16042 0.52361-0.60112 0.60941-1.6923 0.19068-1.2492-0.47937-1.984 0.0323-1.984 1.3813 0 1.1785-0.6 2.1426-1.3333 2.1426s-1.3333 0.92111-1.3333 2.0469c0 1.5796-0.56404 1.745-2.4707 0.72464-2.1749-1.164-2.3925-0.89028-1.8177 2.2864 0.35914 1.9848 0.21096 3.1987-0.32925 2.6976-0.88304-0.81906-3.1138 0.91238-13.448 10.438-1.7066 1.573-2.74 3.223-2.2964 3.6667 0.44363 0.44363-0.17229 0.8066-1.3687 0.8066s-2.8799 1.3165-3.741 2.9256c-2.6061 4.8696-62.895 65.005-64.3 64.137-0.71878-0.44424-0.95865-0.24424-0.53302 0.44443 0.87977 1.4235-14.46 16.925-18.041 18.23-1.2901 0.47042-2.2129 1.322-2.0506 1.8924 0.561 1.9715-3.5862 7.0371-5.7612 7.0371-2.3991 0-5.5942 3.1372-4.4057 4.3258 0.41091 0.4109-1.3943 2.4557-4.0115 4.544-2.6172 2.0883-4.7586 4.2898-4.7586 4.8922-3e-5 0.60237-0.90004 1.9952-2 3.0952-1.7778 1.7778-2.0353-6.6402-2.3176-75.762l-0.31759-77.762-0.69817 80-0.69818 80zm22.871 52.23c0.99615-2.5959 0.33062-2.382-2.5737 0.82713-2.0253 2.2379-2.0806 2.5764-0.30974 1.8969 1.1855-0.45493 2.483-1.6807 2.8834-2.724zm92.573-130.9c-20.298-0.20692-53.898-0.20708-74.667-3.5e-4 -20.769 0.20672-4.1613 0.37603 36.905 0.37623 41.067 1.9e-4 58.059-0.16895 37.761-0.37588zm39.709 2.5545c-0.3777-0.61112 0.1605-1.1111 1.196-1.1111s1.5737 0.5 1.196 1.1111c-0.37768 0.61111-0.91588 1.1111-1.196 1.1111-0.2801 0-0.8183-0.5-1.196-1.1111z" fill="#3e7186"/>
 </g>
</svg>
